<?xml version="1.0" encoding="utf-8" standalone="no"?>
<!DOCTYPE svg PUBLIC "-//W3C//DTD SVG 1.1//EN"
  "http://www.w3.org/Graphics/SVG/1.1/DTD/svg11.dtd">
<svg xmlns:xlink="http://www.w3.org/1999/xlink" width="720pt" height="648pt" viewBox="0 0 720 648" xmlns="http://www.w3.org/2000/svg" version="1.1">
 <metadata>
  <rdf:RDF xmlns:dc="http://purl.org/dc/elements/1.1/" xmlns:cc="http://creativecommons.org/ns#" xmlns:rdf="http://www.w3.org/1999/02/22-rdf-syntax-ns#">
   <cc:Work>
    <dc:type rdf:resource="http://purl.org/dc/dcmitype/StillImage"/>
    <dc:date>2026-06-19T08:31:30.326790</dc:date>
    <dc:format>image/svg+xml</dc:format>
    <dc:creator>
     <cc:Agent>
      <dc:title>Matplotlib v3.10.9, https://matplotlib.org/</dc:title>
     </cc:Agent>
    </dc:creator>
   </cc:Work>
  </rdf:RDF>
 </metadata>
 <defs>
  <style type="text/css">*{stroke-linejoin: round; stroke-linecap: butt}</style>
 </defs>
 <g id="figure_1">
  <g id="patch_1">
   <path d="M 0 648 
L 720 648 
L 720 0 
L 0 0 
z
" style="fill: #ffffff"/>
  </g>
  <g id="axes_1">
   <g id="patch_2">
    <path d="M 68.96 209.92 
L 709.2 209.92 
L 709.2 26.16 
L 68.96 26.16 
z
" style="fill: #ffffff"/>
   </g>
   <g id="matplotlib.axis_1">
    <g id="xtick_1">
     <g id="line2d_1">
      <path d="M 98.061775 209.92 
L 98.061775 26.16 
" clip-path="url(#p1e3a196152)" style="fill: none; stroke: #b0b0b0; stroke-width: 0.8; stroke-linecap: square"/>
     </g>
     <g id="line2d_2">
      <defs>
       <path id="m4230e169a1" d="M 0 0 
L 0 3.5 
" style="stroke: #000000; stroke-width: 0.8"/>
      </defs>
      <g>
       <use xlink:href="#m4230e169a1" x="98.061775" y="209.92" style="stroke: #000000; stroke-width: 0.8"/>
      </g>
     </g>
    </g>
    <g id="xtick_2">
     <g id="line2d_3">
      <path d="M 227.554949 209.92 
L 227.554949 26.16 
" clip-path="url(#p1e3a196152)" style="fill: none; stroke: #b0b0b0; stroke-width: 0.8; stroke-linecap: square"/>
     </g>
     <g id="line2d_4">
      <g>
       <use xlink:href="#m4230e169a1" x="227.554949" y="209.92" style="stroke: #000000; stroke-width: 0.8"/>
      </g>
     </g>
    </g>
    <g id="xtick_3">
     <g id="line2d_5">
      <path d="M 357.048123 209.92 
L 357.048123 26.16 
" clip-path="url(#p1e3a196152)" style="fill: none; stroke: #b0b0b0; stroke-width: 0.8; stroke-linecap: square"/>
     </g>
     <g id="line2d_6">
      <g>
       <use xlink:href="#m4230e169a1" x="357.048123" y="209.92" style="stroke: #000000; stroke-width: 0.8"/>
      </g>
     </g>
    </g>
    <g id="xtick_4">
     <g id="line2d_7">
      <path d="M 486.541298 209.92 
L 486.541298 26.16 
" clip-path="url(#p1e3a196152)" style="fill: none; stroke: #b0b0b0; stroke-width: 0.8; stroke-linecap: square"/>
     </g>
     <g id="line2d_8">
      <g>
       <use xlink:href="#m4230e169a1" x="486.541298" y="209.92" style="stroke: #000000; stroke-width: 0.8"/>
      </g>
     </g>
    </g>
    <g id="xtick_5">
     <g id="line2d_9">
      <path d="M 616.034472 209.92 
L 616.034472 26.16 
" clip-path="url(#p1e3a196152)" style="fill: none; stroke: #b0b0b0; stroke-width: 0.8; stroke-linecap: square"/>
     </g>
     <g id="line2d_10">
      <g>
       <use xlink:href="#m4230e169a1" x="616.034472" y="209.92" style="stroke: #000000; stroke-width: 0.8"/>
      </g>
     </g>
    </g>
   </g>
   <g id="matplotlib.axis_2">
    <g id="ytick_1">
     <g id="line2d_11">
      <path d="M 68.96 196.579929 
L 709.2 196.579929 
" clip-path="url(#p1e3a196152)" style="fill: none; stroke: #b0b0b0; stroke-width: 0.8; stroke-linecap: square"/>
     </g>
     <g id="line2d_12">
      <defs>
       <path id="mb3e9998d06" d="M 0 0 
L -3.5 0 
" style="stroke: #000000; stroke-width: 0.8"/>
      </defs>
      <g>
       <use xlink:href="#mb3e9998d06" x="68.96" y="196.579929" style="stroke: #000000; stroke-width: 0.8"/>
      </g>
     </g>
     <g id="text_1">
      <!-- 27.6 -->
      <g transform="translate(39.694375 200.379148) scale(0.1 -0.1)">
       <defs>
        <path id="DejaVuSans-32" d="M 1228 531 
L 3431 531 
L 3431 0 
L 469 0 
L 469 531 
Q 828 903 1448 1529 
Q 2069 2156 2228 2338 
Q 2531 2678 2651 2914 
Q 2772 3150 2772 3378 
Q 2772 3750 2511 3984 
Q 2250 4219 1831 4219 
Q 1534 4219 1204 4116 
Q 875 4013 500 3803 
L 500 4441 
Q 881 4594 1212 4672 
Q 1544 4750 1819 4750 
Q 2544 4750 2975 4387 
Q 3406 4025 3406 3419 
Q 3406 3131 3298 2873 
Q 3191 2616 2906 2266 
Q 2828 2175 2409 1742 
Q 1991 1309 1228 531 
z
" transform="scale(0.015625)"/>
        <path id="DejaVuSans-37" d="M 525 4666 
L 3525 4666 
L 3525 4397 
L 1831 0 
L 1172 0 
L 2766 4134 
L 525 4134 
L 525 4666 
z
" transform="scale(0.015625)"/>
        <path id="DejaVuSans-2e" d="M 684 794 
L 1344 794 
L 1344 0 
L 684 0 
L 684 794 
z
" transform="scale(0.015625)"/>
        <path id="DejaVuSans-36" d="M 2113 2584 
Q 1688 2584 1439 2293 
Q 1191 2003 1191 1497 
Q 1191 994 1439 701 
Q 1688 409 2113 409 
Q 2538 409 2786 701 
Q 3034 994 3034 1497 
Q 3034 2003 2786 2293 
Q 2538 2584 2113 2584 
z
M 3366 4563 
L 3366 3988 
Q 3128 4100 2886 4159 
Q 2644 4219 2406 4219 
Q 1781 4219 1451 3797 
Q 1122 3375 1075 2522 
Q 1259 2794 1537 2939 
Q 1816 3084 2150 3084 
Q 2853 3084 3261 2657 
Q 3669 2231 3669 1497 
Q 3669 778 3244 343 
Q 2819 -91 2113 -91 
Q 1303 -91 875 529 
Q 447 1150 447 2328 
Q 447 3434 972 4092 
Q 1497 4750 2381 4750 
Q 2619 4750 2861 4703 
Q 3103 4656 3366 4563 
z
" transform="scale(0.015625)"/>
       </defs>
       <use xlink:href="#DejaVuSans-32"/>
       <use xlink:href="#DejaVuSans-37" transform="translate(63.623047 0)"/>
       <use xlink:href="#DejaVuSans-2e" transform="translate(127.246094 0)"/>
       <use xlink:href="#DejaVuSans-36" transform="translate(159.033203 0)"/>
      </g>
     </g>
    </g>
    <g id="ytick_2">
     <g id="line2d_13">
      <path d="M 68.96 165.878207 
L 709.2 165.878207 
" clip-path="url(#p1e3a196152)" style="fill: none; stroke: #b0b0b0; stroke-width: 0.8; stroke-linecap: square"/>
     </g>
     <g id="line2d_14">
      <g>
       <use xlink:href="#mb3e9998d06" x="68.96" y="165.878207" style="stroke: #000000; stroke-width: 0.8"/>
      </g>
     </g>
     <g id="text_2">
      <!-- 27.7 -->
      <g transform="translate(39.694375 169.677426) scale(0.1 -0.1)">
       <use xlink:href="#DejaVuSans-32"/>
       <use xlink:href="#DejaVuSans-37" transform="translate(63.623047 0)"/>
       <use xlink:href="#DejaVuSans-2e" transform="translate(127.246094 0)"/>
       <use xlink:href="#DejaVuSans-37" transform="translate(159.033203 0)"/>
      </g>
     </g>
    </g>
    <g id="ytick_3">
     <g id="line2d_15">
      <path d="M 68.96 135.176484 
L 709.2 135.176484 
" clip-path="url(#p1e3a196152)" style="fill: none; stroke: #b0b0b0; stroke-width: 0.8; stroke-linecap: square"/>
     </g>
     <g id="line2d_16">
      <g>
       <use xlink:href="#mb3e9998d06" x="68.96" y="135.176484" style="stroke: #000000; stroke-width: 0.8"/>
      </g>
     </g>
     <g id="text_3">
      <!-- 27.8 -->
      <g transform="translate(39.694375 138.975703) scale(0.1 -0.1)">
       <defs>
        <path id="DejaVuSans-38" d="M 2034 2216 
Q 1584 2216 1326 1975 
Q 1069 1734 1069 1313 
Q 1069 891 1326 650 
Q 1584 409 2034 409 
Q 2484 409 2743 651 
Q 3003 894 3003 1313 
Q 3003 1734 2745 1975 
Q 2488 2216 2034 2216 
z
M 1403 2484 
Q 997 2584 770 2862 
Q 544 3141 544 3541 
Q 544 4100 942 4425 
Q 1341 4750 2034 4750 
Q 2731 4750 3128 4425 
Q 3525 4100 3525 3541 
Q 3525 3141 3298 2862 
Q 3072 2584 2669 2484 
Q 3125 2378 3379 2068 
Q 3634 1759 3634 1313 
Q 3634 634 3220 271 
Q 2806 -91 2034 -91 
Q 1263 -91 848 271 
Q 434 634 434 1313 
Q 434 1759 690 2068 
Q 947 2378 1403 2484 
z
M 1172 3481 
Q 1172 3119 1398 2916 
Q 1625 2713 2034 2713 
Q 2441 2713 2670 2916 
Q 2900 3119 2900 3481 
Q 2900 3844 2670 4047 
Q 2441 4250 2034 4250 
Q 1625 4250 1398 4047 
Q 1172 3844 1172 3481 
z
" transform="scale(0.015625)"/>
       </defs>
       <use xlink:href="#DejaVuSans-32"/>
       <use xlink:href="#DejaVuSans-37" transform="translate(63.623047 0)"/>
       <use xlink:href="#DejaVuSans-2e" transform="translate(127.246094 0)"/>
       <use xlink:href="#DejaVuSans-38" transform="translate(159.033203 0)"/>
      </g>
     </g>
    </g>
    <g id="ytick_4">
     <g id="line2d_17">
      <path d="M 68.96 104.474762 
L 709.2 104.474762 
" clip-path="url(#p1e3a196152)" style="fill: none; stroke: #b0b0b0; stroke-width: 0.8; stroke-linecap: square"/>
     </g>
     <g id="line2d_18">
      <g>
       <use xlink:href="#mb3e9998d06" x="68.96" y="104.474762" style="stroke: #000000; stroke-width: 0.8"/>
      </g>
     </g>
     <g id="text_4">
      <!-- 27.9 -->
      <g transform="translate(39.694375 108.273981) scale(0.1 -0.1)">
       <defs>
        <path id="DejaVuSans-39" d="M 703 97 
L 703 672 
Q 941 559 1184 500 
Q 1428 441 1663 441 
Q 2288 441 2617 861 
Q 2947 1281 2994 2138 
Q 2813 1869 2534 1725 
Q 2256 1581 1919 1581 
Q 1219 1581 811 2004 
Q 403 2428 403 3163 
Q 403 3881 828 4315 
Q 1253 4750 1959 4750 
Q 2769 4750 3195 4129 
Q 3622 3509 3622 2328 
Q 3622 1225 3098 567 
Q 2575 -91 1691 -91 
Q 1453 -91 1209 -44 
Q 966 3 703 97 
z
M 1959 2075 
Q 2384 2075 2632 2365 
Q 2881 2656 2881 3163 
Q 2881 3666 2632 3958 
Q 2384 4250 1959 4250 
Q 1534 4250 1286 3958 
Q 1038 3666 1038 3163 
Q 1038 2656 1286 2365 
Q 1534 2075 1959 2075 
z
" transform="scale(0.015625)"/>
       </defs>
       <use xlink:href="#DejaVuSans-32"/>
       <use xlink:href="#DejaVuSans-37" transform="translate(63.623047 0)"/>
       <use xlink:href="#DejaVuSans-2e" transform="translate(127.246094 0)"/>
       <use xlink:href="#DejaVuSans-39" transform="translate(159.033203 0)"/>
      </g>
     </g>
    </g>
    <g id="ytick_5">
     <g id="line2d_19">
      <path d="M 68.96 73.773039 
L 709.2 73.773039 
" clip-path="url(#p1e3a196152)" style="fill: none; stroke: #b0b0b0; stroke-width: 0.8; stroke-linecap: square"/>
     </g>
     <g id="line2d_20">
      <g>
       <use xlink:href="#mb3e9998d06" x="68.96" y="73.773039" style="stroke: #000000; stroke-width: 0.8"/>
      </g>
     </g>
     <g id="text_5">
      <!-- 28.0 -->
      <g transform="translate(39.694375 77.572258) scale(0.1 -0.1)">
       <defs>
        <path id="DejaVuSans-30" d="M 2034 4250 
Q 1547 4250 1301 3770 
Q 1056 3291 1056 2328 
Q 1056 1369 1301 889 
Q 1547 409 2034 409 
Q 2525 409 2770 889 
Q 3016 1369 3016 2328 
Q 3016 3291 2770 3770 
Q 2525 4250 2034 4250 
z
M 2034 4750 
Q 2819 4750 3233 4129 
Q 3647 3509 3647 2328 
Q 3647 1150 3233 529 
Q 2819 -91 2034 -91 
Q 1250 -91 836 529 
Q 422 1150 422 2328 
Q 422 3509 836 4129 
Q 1250 4750 2034 4750 
z
" transform="scale(0.015625)"/>
       </defs>
       <use xlink:href="#DejaVuSans-32"/>
       <use xlink:href="#DejaVuSans-38" transform="translate(63.623047 0)"/>
       <use xlink:href="#DejaVuSans-2e" transform="translate(127.246094 0)"/>
       <use xlink:href="#DejaVuSans-30" transform="translate(159.033203 0)"/>
      </g>
     </g>
    </g>
    <g id="ytick_6">
     <g id="line2d_21">
      <path d="M 68.96 43.071317 
L 709.2 43.071317 
" clip-path="url(#p1e3a196152)" style="fill: none; stroke: #b0b0b0; stroke-width: 0.8; stroke-linecap: square"/>
     </g>
     <g id="line2d_22">
      <g>
       <use xlink:href="#mb3e9998d06" x="68.96" y="43.071317" style="stroke: #000000; stroke-width: 0.8"/>
      </g>
     </g>
     <g id="text_6">
      <!-- 28.1 -->
      <g transform="translate(39.694375 46.870535) scale(0.1 -0.1)">
       <defs>
        <path id="DejaVuSans-31" d="M 794 531 
L 1825 531 
L 1825 4091 
L 703 3866 
L 703 4441 
L 1819 4666 
L 2450 4666 
L 2450 531 
L 3481 531 
L 3481 0 
L 794 0 
L 794 531 
z
" transform="scale(0.015625)"/>
       </defs>
       <use xlink:href="#DejaVuSans-32"/>
       <use xlink:href="#DejaVuSans-38" transform="translate(63.623047 0)"/>
       <use xlink:href="#DejaVuSans-2e" transform="translate(127.246094 0)"/>
       <use xlink:href="#DejaVuSans-31" transform="translate(159.033203 0)"/>
      </g>
     </g>
    </g>
    <g id="text_7">
     <!-- position  [rev] -->
     <g transform="translate(33.614688 152.903281) rotate(-90) scale(0.1 -0.1)">
      <defs>
       <path id="DejaVuSans-70" d="M 1159 525 
L 1159 -1331 
L 581 -1331 
L 581 3500 
L 1159 3500 
L 1159 2969 
Q 1341 3281 1617 3432 
Q 1894 3584 2278 3584 
Q 2916 3584 3314 3078 
Q 3713 2572 3713 1747 
Q 3713 922 3314 415 
Q 2916 -91 2278 -91 
Q 1894 -91 1617 61 
Q 1341 213 1159 525 
z
M 3116 1747 
Q 3116 2381 2855 2742 
Q 2594 3103 2138 3103 
Q 1681 3103 1420 2742 
Q 1159 2381 1159 1747 
Q 1159 1113 1420 752 
Q 1681 391 2138 391 
Q 2594 391 2855 752 
Q 3116 1113 3116 1747 
z
" transform="scale(0.015625)"/>
       <path id="DejaVuSans-6f" d="M 1959 3097 
Q 1497 3097 1228 2736 
Q 959 2375 959 1747 
Q 959 1119 1226 758 
Q 1494 397 1959 397 
Q 2419 397 2687 759 
Q 2956 1122 2956 1747 
Q 2956 2369 2687 2733 
Q 2419 3097 1959 3097 
z
M 1959 3584 
Q 2709 3584 3137 3096 
Q 3566 2609 3566 1747 
Q 3566 888 3137 398 
Q 2709 -91 1959 -91 
Q 1206 -91 779 398 
Q 353 888 353 1747 
Q 353 2609 779 3096 
Q 1206 3584 1959 3584 
z
" transform="scale(0.015625)"/>
       <path id="DejaVuSans-73" d="M 2834 3397 
L 2834 2853 
Q 2591 2978 2328 3040 
Q 2066 3103 1784 3103 
Q 1356 3103 1142 2972 
Q 928 2841 928 2578 
Q 928 2378 1081 2264 
Q 1234 2150 1697 2047 
L 1894 2003 
Q 2506 1872 2764 1633 
Q 3022 1394 3022 966 
Q 3022 478 2636 193 
Q 2250 -91 1575 -91 
Q 1294 -91 989 -36 
Q 684 19 347 128 
L 347 722 
Q 666 556 975 473 
Q 1284 391 1588 391 
Q 1994 391 2212 530 
Q 2431 669 2431 922 
Q 2431 1156 2273 1281 
Q 2116 1406 1581 1522 
L 1381 1569 
Q 847 1681 609 1914 
Q 372 2147 372 2553 
Q 372 3047 722 3315 
Q 1072 3584 1716 3584 
Q 2034 3584 2315 3537 
Q 2597 3491 2834 3397 
z
" transform="scale(0.015625)"/>
       <path id="DejaVuSans-69" d="M 603 3500 
L 1178 3500 
L 1178 0 
L 603 0 
L 603 3500 
z
M 603 4863 
L 1178 4863 
L 1178 4134 
L 603 4134 
L 603 4863 
z
" transform="scale(0.015625)"/>
       <path id="DejaVuSans-74" d="M 1172 4494 
L 1172 3500 
L 2356 3500 
L 2356 3053 
L 1172 3053 
L 1172 1153 
Q 1172 725 1289 603 
Q 1406 481 1766 481 
L 2356 481 
L 2356 0 
L 1766 0 
Q 1100 0 847 248 
Q 594 497 594 1153 
L 594 3053 
L 172 3053 
L 172 3500 
L 594 3500 
L 594 4494 
L 1172 4494 
z
" transform="scale(0.015625)"/>
       <path id="DejaVuSans-6e" d="M 3513 2113 
L 3513 0 
L 2938 0 
L 2938 2094 
Q 2938 2591 2744 2837 
Q 2550 3084 2163 3084 
Q 1697 3084 1428 2787 
Q 1159 2491 1159 1978 
L 1159 0 
L 581 0 
L 581 3500 
L 1159 3500 
L 1159 2956 
Q 1366 3272 1645 3428 
Q 1925 3584 2291 3584 
Q 2894 3584 3203 3211 
Q 3513 2838 3513 2113 
z
" transform="scale(0.015625)"/>
       <path id="DejaVuSans-20" transform="scale(0.015625)"/>
       <path id="DejaVuSans-5b" d="M 550 4863 
L 1875 4863 
L 1875 4416 
L 1125 4416 
L 1125 -397 
L 1875 -397 
L 1875 -844 
L 550 -844 
L 550 4863 
z
" transform="scale(0.015625)"/>
       <path id="DejaVuSans-72" d="M 2631 2963 
Q 2534 3019 2420 3045 
Q 2306 3072 2169 3072 
Q 1681 3072 1420 2755 
Q 1159 2438 1159 1844 
L 1159 0 
L 581 0 
L 581 3500 
L 1159 3500 
L 1159 2956 
Q 1341 3275 1631 3429 
Q 1922 3584 2338 3584 
Q 2397 3584 2469 3576 
Q 2541 3569 2628 3553 
L 2631 2963 
z
" transform="scale(0.015625)"/>
       <path id="DejaVuSans-65" d="M 3597 1894 
L 3597 1613 
L 953 1613 
Q 991 1019 1311 708 
Q 1631 397 2203 397 
Q 2534 397 2845 478 
Q 3156 559 3463 722 
L 3463 178 
Q 3153 47 2828 -22 
Q 2503 -91 2169 -91 
Q 1331 -91 842 396 
Q 353 884 353 1716 
Q 353 2575 817 3079 
Q 1281 3584 2069 3584 
Q 2775 3584 3186 3129 
Q 3597 2675 3597 1894 
z
M 3022 2063 
Q 3016 2534 2758 2815 
Q 2500 3097 2075 3097 
Q 1594 3097 1305 2825 
Q 1016 2553 972 2059 
L 3022 2063 
z
" transform="scale(0.015625)"/>
       <path id="DejaVuSans-76" d="M 191 3500 
L 800 3500 
L 1894 563 
L 2988 3500 
L 3597 3500 
L 2284 0 
L 1503 0 
L 191 3500 
z
" transform="scale(0.015625)"/>
       <path id="DejaVuSans-5d" d="M 1947 4863 
L 1947 -844 
L 622 -844 
L 622 -397 
L 1369 -397 
L 1369 4416 
L 622 4416 
L 622 4863 
L 1947 4863 
z
" transform="scale(0.015625)"/>
      </defs>
      <use xlink:href="#DejaVuSans-70"/>
      <use xlink:href="#DejaVuSans-6f" transform="translate(63.476562 0)"/>
      <use xlink:href="#DejaVuSans-73" transform="translate(124.658203 0)"/>
      <use xlink:href="#DejaVuSans-69" transform="translate(176.757812 0)"/>
      <use xlink:href="#DejaVuSans-74" transform="translate(204.541016 0)"/>
      <use xlink:href="#DejaVuSans-69" transform="translate(243.75 0)"/>
      <use xlink:href="#DejaVuSans-6f" transform="translate(271.533203 0)"/>
      <use xlink:href="#DejaVuSans-6e" transform="translate(332.714844 0)"/>
      <use xlink:href="#DejaVuSans-20" transform="translate(396.09375 0)"/>
      <use xlink:href="#DejaVuSans-20" transform="translate(427.880859 0)"/>
      <use xlink:href="#DejaVuSans-5b" transform="translate(459.667969 0)"/>
      <use xlink:href="#DejaVuSans-72" transform="translate(498.681641 0)"/>
      <use xlink:href="#DejaVuSans-65" transform="translate(537.544922 0)"/>
      <use xlink:href="#DejaVuSans-76" transform="translate(599.068359 0)"/>
      <use xlink:href="#DejaVuSans-5d" transform="translate(658.248047 0)"/>
     </g>
    </g>
   </g>
   <g id="line2d_23">
    <path d="M 98.061888 201.04727 
L 105.499037 201.056639 
L 110.355539 201.084747 
L 114.849227 201.089432 
L 118.476638 201.112856 
L 127.787451 201.164388 
L 136.955708 201.239343 
L 164.134059 201.553219 
L 170.598742 201.53448 
L 175.903106 201.45484 
L 182.512017 201.155018 
L 186.962907 200.803665 
L 196.754771 199.459153 
L 202.19349 198.269236 
L 207.754283 196.638957 
L 211.356475 195.406878 
L 215.869453 193.682904 
L 216.777885 193.228487 
L 217.683177 192.909927 
L 222.439618 190.684689 
L 225.024755 189.45261 
L 232.72573 185.531507 
L 236.239269 183.61546 
L 237.435494 183.118881 
L 240.218195 181.657251 
L 241.125634 181.26842 
L 242.884179 180.317423 
L 246.575845 178.448224 
L 252.597149 175.520279 
L 253.563713 175.112709 
L 254.507793 174.550544 
L 261.130711 171.786564 
L 263.489769 170.816829 
L 265.369292 170.104753 
L 267.551479 169.280244 
L 271.876648 167.781136 
L 282.694524 164.665804 
L 289.295611 163.129218 
L 295.710061 161.939302 
L 304.188357 160.66506 
L 312.806009 159.840551 
L 322.320968 159.250278 
L 330.137267 159.025411 
L 338.484586 158.983249 
L 350.62939 159.236223 
L 370.595705 159.784335 
L 393.782758 160.046678 
L 461.052136 159.090997 
L 465.869126 159.095682 
L 471.547709 159.058204 
L 478.733798 159.072259 
L 504.07033 158.983249 
L 508.365635 158.945771 
L 516.143302 158.908294 
L 554.670198 158.205587 
L 566.586775 157.849549 
L 578.444842 157.390447 
L 583.81064 157.179635 
L 614.995764 155.525932 
L 634.836638 154.10178 
L 644.117915 153.338172 
L 656.726396 152.270058 
L 659.115642 152.031138 
L 664.294954 151.581406 
L 674.52826 150.597616 
L 677.663182 150.260317 
L 679.903548 150.016712 
L 679.903548 150.016712 
" clip-path="url(#p1e3a196152)" style="fill: none; stroke: #1f77b4; stroke-linecap: square"/>
   </g>
   <g id="line2d_24">
    <path d="M 98.061818 149.651305 
L 108.000829 150.475814 
L 111.319578 150.888068 
L 126.574224 153.094567 
L 128.658816 153.469344 
L 131.423209 153.965923 
L 138.09691 155.263588 
L 141.268295 155.947556 
L 143.146011 156.336387 
L 144.963928 156.715849 
L 147.749083 157.301438 
L 150.837975 158.013514 
L 162.648368 160.651006 
L 163.569178 160.852449 
L 164.488477 160.248121 
L 165.432056 160.908665 
L 166.275056 160.519834 
L 167.184918 161.086684 
L 168.086326 160.82434 
L 168.981679 161.227226 
L 169.892238 161.049207 
L 170.82168 161.264703 
L 171.673535 161.175694 
L 172.589839 161.260019 
L 175.810232 161.058576 
L 178.304913 160.735331 
L 181.749172 160.065417 
L 186.392377 158.622526 
L 192.096497 155.980349 
L 192.977736 155.554041 
L 199.493358 151.276899 
L 202.900425 148.564452 
L 207.193329 144.779205 
L 209.108814 142.750725 
L 210.110951 143.261359 
L 211.039309 141.162608 
L 212.358618 140.773777 
L 213.51967 139.546383 
L 214.823822 137.981689 
L 215.91798 137.31646 
L 216.992018 135.967264 
L 219.34949 134.24329 
L 220.549719 133.048689 
L 223.575975 130.565792 
L 227.707897 127.230277 
L 236.039596 121.486822 
L 239.46169 119.547351 
L 240.715438 118.699418 
L 242.09174 118.132568 
L 243.080733 117.45797 
L 244.428309 117.045715 
L 245.364118 116.549136 
L 246.731582 116.024448 
L 247.672647 115.527869 
L 248.79722 115.068767 
L 255.118721 113.08245 
L 256.111064 112.295418 
L 257.192079 112.361004 
L 258.2367 111.78947 
L 259.286766 111.70983 
L 261.809525 111.016492 
L 265.437217 110.2482 
L 266.600001 109.924955 
L 284.404692 106.954848 
L 293.451759 105.78367 
L 305.04926 104.692132 
L 309.512722 104.340779 
L 318.745613 103.8442 
L 336.41617 103.492846 
L 386.39992 103.661496 
L 394.031547 103.591225 
L 398.394841 103.553748 
L 405.826082 103.464738 
L 413.410286 103.431945 
L 456.084082 102.612121 
L 466.510371 102.288876 
L 469.293702 102.227974 
L 489.424431 101.356618 
L 513.673069 99.642014 
L 517.129198 99.337508 
L 524.356693 98.737865 
L 559.480297 95.594423 
L 572.66213 94.26865 
L 584.402694 92.905399 
L 587.142046 92.605578 
L 593.724951 91.734222 
L 600.141596 90.923767 
L 623.946456 87.447711 
L 627.76187 86.791851 
L 644.227601 83.957601 
L 653.843673 82.097771 
L 658.594885 81.217045 
L 680.098182 77.033598 
L 680.098182 77.033598 
" clip-path="url(#p1e3a196152)" style="fill: none; stroke: #d62728; stroke-linecap: square"/>
   </g>
   <g id="line2d_25">
    <path d="M 98.061888 201.0379 
L 165.124655 200.939668 
L 167.242937 200.677842 
L 169.595639 200.194449 
L 171.760808 199.570487 
L 174.910055 198.356503 
L 177.179585 197.256467 
L 180.253143 195.466042 
L 183.504145 193.195795 
L 185.592465 191.533322 
L 188.184897 189.247363 
L 191.694469 185.760586 
L 194.486434 182.66463 
L 197.986629 178.380094 
L 201.257384 173.970935 
L 204.95709 168.511355 
L 207.754283 164.050862 
L 208.671499 124.148946 
L 212.271739 118.361098 
L 215.869453 113.051448 
L 219.514238 108.155643 
L 222.439618 104.578074 
L 225.969127 100.678823 
L 228.824544 97.858086 
L 231.695623 95.322902 
L 235.02445 92.761396 
L 238.409882 90.572513 
L 241.125634 89.119988 
L 243.830067 87.941903 
L 246.575845 87.019806 
L 248.781654 86.479021 
L 251.747042 86.032778 
L 253.563713 85.918458 
L 254.507793 124.283594 
L 679.903548 124.283594 
L 679.903548 124.283594 
" clip-path="url(#p1e3a196152)" style="fill: none; stroke-dasharray: 2.96,1.28; stroke-dashoffset: 0; stroke: #1f77b4; stroke-opacity: 0.5; stroke-width: 0.8"/>
   </g>
   <g id="line2d_26">
    <path d="M 68.96 124.283594 
L 709.2 124.283594 
" clip-path="url(#p1e3a196152)" style="fill: none; stroke-dasharray: 0.6,0.99; stroke-dashoffset: 0; stroke: #1f77b4; stroke-opacity: 0.4; stroke-width: 0.6"/>
   </g>
   <g id="line2d_27">
    <path d="M 98.061818 149.641935 
L 164.488477 149.590252 
L 167.184918 149.291237 
L 169.892238 148.723157 
L 172.589839 147.890162 
L 174.794482 147.011508 
L 177.023837 145.94202 
L 180.275599 144.055723 
L 182.871646 142.271841 
L 184.969187 140.650255 
L 188.366446 137.68209 
L 191.178482 134.905537 
L 194.063299 131.756223 
L 197.125747 128.079522 
L 200.6849 123.374992 
L 204.007193 118.564958 
L 207.193329 113.572379 
L 208.123295 112.045067 
L 209.108814 72.024616 
L 212.358618 66.831328 
L 215.91798 61.587103 
L 219.34949 56.970475 
L 222.624772 52.966222 
L 225.592475 49.677224 
L 228.795785 46.489041 
L 231.745365 43.885675 
L 234.977633 41.398643 
L 237.333292 39.827117 
L 239.46169 38.581942 
L 242.09174 37.272427 
L 244.428309 36.321511 
L 246.731582 35.579814 
L 248.79722 35.079872 
L 251.182635 34.696935 
L 254.023187 34.512727 
L 255.118721 72.887629 
L 680.098182 72.887629 
L 680.098182 72.887629 
" clip-path="url(#p1e3a196152)" style="fill: none; stroke-dasharray: 2.96,1.28; stroke-dashoffset: 0; stroke: #d62728; stroke-opacity: 0.5; stroke-width: 0.8"/>
   </g>
   <g id="line2d_28">
    <path d="M 68.96 72.887629 
L 709.2 72.887629 
" clip-path="url(#p1e3a196152)" style="fill: none; stroke-dasharray: 0.6,0.99; stroke-dashoffset: 0; stroke: #d62728; stroke-opacity: 0.4; stroke-width: 0.6"/>
   </g>
   <g id="patch_3">
    <path d="M 68.96 209.92 
L 68.96 26.16 
" style="fill: none; stroke: #000000; stroke-width: 0.8; stroke-linejoin: miter; stroke-linecap: square"/>
   </g>
   <g id="patch_4">
    <path d="M 709.2 209.92 
L 709.2 26.16 
" style="fill: none; stroke: #000000; stroke-width: 0.8; stroke-linejoin: miter; stroke-linecap: square"/>
   </g>
   <g id="patch_5">
    <path d="M 68.96 209.92 
L 709.2 209.92 
" style="fill: none; stroke: #000000; stroke-width: 0.8; stroke-linejoin: miter; stroke-linecap: square"/>
   </g>
   <g id="patch_6">
    <path d="M 68.96 26.16 
L 709.2 26.16 
" style="fill: none; stroke: #000000; stroke-width: 0.8; stroke-linejoin: miter; stroke-linecap: square"/>
   </g>
   <g id="text_8">
    <!-- Park test — drum, id=1  (step 0.25 rev) -->
    <g transform="translate(270.592188 20.16) scale(0.12 -0.12)">
     <defs>
      <path id="DejaVuSans-50" d="M 1259 4147 
L 1259 2394 
L 2053 2394 
Q 2494 2394 2734 2622 
Q 2975 2850 2975 3272 
Q 2975 3691 2734 3919 
Q 2494 4147 2053 4147 
L 1259 4147 
z
M 628 4666 
L 2053 4666 
Q 2838 4666 3239 4311 
Q 3641 3956 3641 3272 
Q 3641 2581 3239 2228 
Q 2838 1875 2053 1875 
L 1259 1875 
L 1259 0 
L 628 0 
L 628 4666 
z
" transform="scale(0.015625)"/>
      <path id="DejaVuSans-61" d="M 2194 1759 
Q 1497 1759 1228 1600 
Q 959 1441 959 1056 
Q 959 750 1161 570 
Q 1363 391 1709 391 
Q 2188 391 2477 730 
Q 2766 1069 2766 1631 
L 2766 1759 
L 2194 1759 
z
M 3341 1997 
L 3341 0 
L 2766 0 
L 2766 531 
Q 2569 213 2275 61 
Q 1981 -91 1556 -91 
Q 1019 -91 701 211 
Q 384 513 384 1019 
Q 384 1609 779 1909 
Q 1175 2209 1959 2209 
L 2766 2209 
L 2766 2266 
Q 2766 2663 2505 2880 
Q 2244 3097 1772 3097 
Q 1472 3097 1187 3025 
Q 903 2953 641 2809 
L 641 3341 
Q 956 3463 1253 3523 
Q 1550 3584 1831 3584 
Q 2591 3584 2966 3190 
Q 3341 2797 3341 1997 
z
" transform="scale(0.015625)"/>
      <path id="DejaVuSans-6b" d="M 581 4863 
L 1159 4863 
L 1159 1991 
L 2875 3500 
L 3609 3500 
L 1753 1863 
L 3688 0 
L 2938 0 
L 1159 1709 
L 1159 0 
L 581 0 
L 581 4863 
z
" transform="scale(0.015625)"/>
      <path id="DejaVuSans-2014" d="M 313 1978 
L 6088 1978 
L 6088 1528 
L 313 1528 
L 313 1978 
z
" transform="scale(0.015625)"/>
      <path id="DejaVuSans-64" d="M 2906 2969 
L 2906 4863 
L 3481 4863 
L 3481 0 
L 2906 0 
L 2906 525 
Q 2725 213 2448 61 
Q 2172 -91 1784 -91 
Q 1150 -91 751 415 
Q 353 922 353 1747 
Q 353 2572 751 3078 
Q 1150 3584 1784 3584 
Q 2172 3584 2448 3432 
Q 2725 3281 2906 2969 
z
M 947 1747 
Q 947 1113 1208 752 
Q 1469 391 1925 391 
Q 2381 391 2643 752 
Q 2906 1113 2906 1747 
Q 2906 2381 2643 2742 
Q 2381 3103 1925 3103 
Q 1469 3103 1208 2742 
Q 947 2381 947 1747 
z
" transform="scale(0.015625)"/>
      <path id="DejaVuSans-75" d="M 544 1381 
L 544 3500 
L 1119 3500 
L 1119 1403 
Q 1119 906 1312 657 
Q 1506 409 1894 409 
Q 2359 409 2629 706 
Q 2900 1003 2900 1516 
L 2900 3500 
L 3475 3500 
L 3475 0 
L 2900 0 
L 2900 538 
Q 2691 219 2414 64 
Q 2138 -91 1772 -91 
Q 1169 -91 856 284 
Q 544 659 544 1381 
z
M 1991 3584 
L 1991 3584 
z
" transform="scale(0.015625)"/>
      <path id="DejaVuSans-6d" d="M 3328 2828 
Q 3544 3216 3844 3400 
Q 4144 3584 4550 3584 
Q 5097 3584 5394 3201 
Q 5691 2819 5691 2113 
L 5691 0 
L 5113 0 
L 5113 2094 
Q 5113 2597 4934 2840 
Q 4756 3084 4391 3084 
Q 3944 3084 3684 2787 
Q 3425 2491 3425 1978 
L 3425 0 
L 2847 0 
L 2847 2094 
Q 2847 2600 2669 2842 
Q 2491 3084 2119 3084 
Q 1678 3084 1418 2786 
Q 1159 2488 1159 1978 
L 1159 0 
L 581 0 
L 581 3500 
L 1159 3500 
L 1159 2956 
Q 1356 3278 1631 3431 
Q 1906 3584 2284 3584 
Q 2666 3584 2933 3390 
Q 3200 3197 3328 2828 
z
" transform="scale(0.015625)"/>
      <path id="DejaVuSans-2c" d="M 750 794 
L 1409 794 
L 1409 256 
L 897 -744 
L 494 -744 
L 750 256 
L 750 794 
z
" transform="scale(0.015625)"/>
      <path id="DejaVuSans-3d" d="M 678 2906 
L 4684 2906 
L 4684 2381 
L 678 2381 
L 678 2906 
z
M 678 1631 
L 4684 1631 
L 4684 1100 
L 678 1100 
L 678 1631 
z
" transform="scale(0.015625)"/>
      <path id="DejaVuSans-28" d="M 1984 4856 
Q 1566 4138 1362 3434 
Q 1159 2731 1159 2009 
Q 1159 1288 1364 580 
Q 1569 -128 1984 -844 
L 1484 -844 
Q 1016 -109 783 600 
Q 550 1309 550 2009 
Q 550 2706 781 3412 
Q 1013 4119 1484 4856 
L 1984 4856 
z
" transform="scale(0.015625)"/>
      <path id="DejaVuSans-35" d="M 691 4666 
L 3169 4666 
L 3169 4134 
L 1269 4134 
L 1269 2991 
Q 1406 3038 1543 3061 
Q 1681 3084 1819 3084 
Q 2600 3084 3056 2656 
Q 3513 2228 3513 1497 
Q 3513 744 3044 326 
Q 2575 -91 1722 -91 
Q 1428 -91 1123 -41 
Q 819 9 494 109 
L 494 744 
Q 775 591 1075 516 
Q 1375 441 1709 441 
Q 2250 441 2565 725 
Q 2881 1009 2881 1497 
Q 2881 1984 2565 2268 
Q 2250 2553 1709 2553 
Q 1456 2553 1204 2497 
Q 953 2441 691 2322 
L 691 4666 
z
" transform="scale(0.015625)"/>
      <path id="DejaVuSans-29" d="M 513 4856 
L 1013 4856 
Q 1481 4119 1714 3412 
Q 1947 2706 1947 2009 
Q 1947 1309 1714 600 
Q 1481 -109 1013 -844 
L 513 -844 
Q 928 -128 1133 580 
Q 1338 1288 1338 2009 
Q 1338 2731 1133 3434 
Q 928 4138 513 4856 
z
" transform="scale(0.015625)"/>
     </defs>
     <use xlink:href="#DejaVuSans-50"/>
     <use xlink:href="#DejaVuSans-61" transform="translate(55.802734 0)"/>
     <use xlink:href="#DejaVuSans-72" transform="translate(117.082031 0)"/>
     <use xlink:href="#DejaVuSans-6b" transform="translate(158.195312 0)"/>
     <use xlink:href="#DejaVuSans-20" transform="translate(216.105469 0)"/>
     <use xlink:href="#DejaVuSans-74" transform="translate(247.892578 0)"/>
     <use xlink:href="#DejaVuSans-65" transform="translate(287.101562 0)"/>
     <use xlink:href="#DejaVuSans-73" transform="translate(348.625 0)"/>
     <use xlink:href="#DejaVuSans-74" transform="translate(400.724609 0)"/>
     <use xlink:href="#DejaVuSans-20" transform="translate(439.933594 0)"/>
     <use xlink:href="#DejaVuSans-2014" transform="translate(471.720703 0)"/>
     <use xlink:href="#DejaVuSans-20" transform="translate(571.720703 0)"/>
     <use xlink:href="#DejaVuSans-64" transform="translate(603.507812 0)"/>
     <use xlink:href="#DejaVuSans-72" transform="translate(666.984375 0)"/>
     <use xlink:href="#DejaVuSans-75" transform="translate(708.097656 0)"/>
     <use xlink:href="#DejaVuSans-6d" transform="translate(771.476562 0)"/>
     <use xlink:href="#DejaVuSans-2c" transform="translate(868.888672 0)"/>
     <use xlink:href="#DejaVuSans-20" transform="translate(900.675781 0)"/>
     <use xlink:href="#DejaVuSans-69" transform="translate(932.462891 0)"/>
     <use xlink:href="#DejaVuSans-64" transform="translate(960.246094 0)"/>
     <use xlink:href="#DejaVuSans-3d" transform="translate(1023.722656 0)"/>
     <use xlink:href="#DejaVuSans-31" transform="translate(1107.511719 0)"/>
     <use xlink:href="#DejaVuSans-20" transform="translate(1171.134766 0)"/>
     <use xlink:href="#DejaVuSans-20" transform="translate(1202.921875 0)"/>
     <use xlink:href="#DejaVuSans-28" transform="translate(1234.708984 0)"/>
     <use xlink:href="#DejaVuSans-73" transform="translate(1273.722656 0)"/>
     <use xlink:href="#DejaVuSans-74" transform="translate(1325.822266 0)"/>
     <use xlink:href="#DejaVuSans-65" transform="translate(1365.03125 0)"/>
     <use xlink:href="#DejaVuSans-70" transform="translate(1426.554688 0)"/>
     <use xlink:href="#DejaVuSans-20" transform="translate(1490.03125 0)"/>
     <use xlink:href="#DejaVuSans-30" transform="translate(1521.818359 0)"/>
     <use xlink:href="#DejaVuSans-2e" transform="translate(1585.441406 0)"/>
     <use xlink:href="#DejaVuSans-32" transform="translate(1617.228516 0)"/>
     <use xlink:href="#DejaVuSans-35" transform="translate(1680.851562 0)"/>
     <use xlink:href="#DejaVuSans-20" transform="translate(1744.474609 0)"/>
     <use xlink:href="#DejaVuSans-72" transform="translate(1776.261719 0)"/>
     <use xlink:href="#DejaVuSans-65" transform="translate(1815.125 0)"/>
     <use xlink:href="#DejaVuSans-76" transform="translate(1876.648438 0)"/>
     <use xlink:href="#DejaVuSans-29" transform="translate(1935.828125 0)"/>
    </g>
   </g>
   <g id="legend_1">
    <g id="patch_7">
     <path d="M 642.0175 205.92 
L 703.6 205.92 
Q 705.2 205.92 705.2 204.32 
L 705.2 158.15 
Q 705.2 156.55 703.6 156.55 
L 642.0175 156.55 
Q 640.4175 156.55 640.4175 158.15 
L 640.4175 204.32 
Q 640.4175 205.92 642.0175 205.92 
z
" style="fill: #ffffff; opacity: 0.8; stroke: #cccccc; stroke-linejoin: miter"/>
    </g>
    <g id="line2d_29">
     <path d="M 643.6175 163.02875 
L 651.6175 163.02875 
L 659.6175 163.02875 
" style="fill: none; stroke: #1f77b4; stroke-linecap: square"/>
    </g>
    <g id="text_9">
     <!-- no FF -->
     <g transform="translate(666.0175 165.82875) scale(0.08 -0.08)">
      <defs>
       <path id="DejaVuSans-46" d="M 628 4666 
L 3309 4666 
L 3309 4134 
L 1259 4134 
L 1259 2759 
L 3109 2759 
L 3109 2228 
L 1259 2228 
L 1259 0 
L 628 0 
L 628 4666 
z
" transform="scale(0.015625)"/>
      </defs>
      <use xlink:href="#DejaVuSans-6e"/>
      <use xlink:href="#DejaVuSans-6f" transform="translate(63.378906 0)"/>
      <use xlink:href="#DejaVuSans-20" transform="translate(124.560547 0)"/>
      <use xlink:href="#DejaVuSans-46" transform="translate(156.347656 0)"/>
      <use xlink:href="#DejaVuSans-46" transform="translate(213.867188 0)"/>
     </g>
    </g>
    <g id="line2d_30">
     <path d="M 643.6175 174.77125 
L 651.6175 174.77125 
L 659.6175 174.77125 
" style="fill: none; stroke: #d62728; stroke-linecap: square"/>
    </g>
    <g id="text_10">
     <!-- FF ref -->
     <g transform="translate(666.0175 177.57125) scale(0.08 -0.08)">
      <defs>
       <path id="DejaVuSans-66" d="M 2375 4863 
L 2375 4384 
L 1825 4384 
Q 1516 4384 1395 4259 
Q 1275 4134 1275 3809 
L 1275 3500 
L 2222 3500 
L 2222 3053 
L 1275 3053 
L 1275 0 
L 697 0 
L 697 3053 
L 147 3053 
L 147 3500 
L 697 3500 
L 697 3744 
Q 697 4328 969 4595 
Q 1241 4863 1831 4863 
L 2375 4863 
z
" transform="scale(0.015625)"/>
      </defs>
      <use xlink:href="#DejaVuSans-46"/>
      <use xlink:href="#DejaVuSans-46" transform="translate(57.519531 0)"/>
      <use xlink:href="#DejaVuSans-20" transform="translate(115.039062 0)"/>
      <use xlink:href="#DejaVuSans-72" transform="translate(146.826172 0)"/>
      <use xlink:href="#DejaVuSans-65" transform="translate(185.689453 0)"/>
      <use xlink:href="#DejaVuSans-66" transform="translate(247.212891 0)"/>
     </g>
    </g>
    <g id="line2d_31">
     <path d="M 643.6175 186.51375 
L 651.6175 186.51375 
L 659.6175 186.51375 
" style="fill: none; stroke-dasharray: 2.96,1.28; stroke-dashoffset: 0; stroke: #1f77b4; stroke-opacity: 0.5; stroke-width: 0.8"/>
    </g>
    <g id="text_11">
     <!-- no FF ref -->
     <g transform="translate(666.0175 189.31375) scale(0.08 -0.08)">
      <use xlink:href="#DejaVuSans-6e"/>
      <use xlink:href="#DejaVuSans-6f" transform="translate(63.378906 0)"/>
      <use xlink:href="#DejaVuSans-20" transform="translate(124.560547 0)"/>
      <use xlink:href="#DejaVuSans-46" transform="translate(156.347656 0)"/>
      <use xlink:href="#DejaVuSans-46" transform="translate(213.867188 0)"/>
      <use xlink:href="#DejaVuSans-20" transform="translate(271.386719 0)"/>
      <use xlink:href="#DejaVuSans-72" transform="translate(303.173828 0)"/>
      <use xlink:href="#DejaVuSans-65" transform="translate(342.037109 0)"/>
      <use xlink:href="#DejaVuSans-66" transform="translate(403.560547 0)"/>
     </g>
    </g>
    <g id="line2d_32">
     <path d="M 643.6175 198.25625 
L 651.6175 198.25625 
L 659.6175 198.25625 
" style="fill: none; stroke-dasharray: 2.96,1.28; stroke-dashoffset: 0; stroke: #d62728; stroke-opacity: 0.5; stroke-width: 0.8"/>
    </g>
    <g id="text_12">
     <!-- FF ref ref -->
     <g transform="translate(666.0175 201.05625) scale(0.08 -0.08)">
      <use xlink:href="#DejaVuSans-46"/>
      <use xlink:href="#DejaVuSans-46" transform="translate(57.519531 0)"/>
      <use xlink:href="#DejaVuSans-20" transform="translate(115.039062 0)"/>
      <use xlink:href="#DejaVuSans-72" transform="translate(146.826172 0)"/>
      <use xlink:href="#DejaVuSans-65" transform="translate(185.689453 0)"/>
      <use xlink:href="#DejaVuSans-66" transform="translate(247.212891 0)"/>
      <use xlink:href="#DejaVuSans-20" transform="translate(282.417969 0)"/>
      <use xlink:href="#DejaVuSans-72" transform="translate(314.205078 0)"/>
      <use xlink:href="#DejaVuSans-65" transform="translate(353.068359 0)"/>
      <use xlink:href="#DejaVuSans-66" transform="translate(414.591797 0)"/>
     </g>
    </g>
   </g>
  </g>
  <g id="axes_2">
   <g id="patch_8">
    <path d="M 68.96 407.98 
L 709.2 407.98 
L 709.2 224.22 
L 68.96 224.22 
z
" style="fill: #ffffff"/>
   </g>
   <g id="matplotlib.axis_3">
    <g id="xtick_6">
     <g id="line2d_33">
      <path d="M 98.061775 407.98 
L 98.061775 224.22 
" clip-path="url(#p586cc0faed)" style="fill: none; stroke: #b0b0b0; stroke-width: 0.8; stroke-linecap: square"/>
     </g>
     <g id="line2d_34">
      <g>
       <use xlink:href="#m4230e169a1" x="98.061775" y="407.98" style="stroke: #000000; stroke-width: 0.8"/>
      </g>
     </g>
    </g>
    <g id="xtick_7">
     <g id="line2d_35">
      <path d="M 227.554949 407.98 
L 227.554949 224.22 
" clip-path="url(#p586cc0faed)" style="fill: none; stroke: #b0b0b0; stroke-width: 0.8; stroke-linecap: square"/>
     </g>
     <g id="line2d_36">
      <g>
       <use xlink:href="#m4230e169a1" x="227.554949" y="407.98" style="stroke: #000000; stroke-width: 0.8"/>
      </g>
     </g>
    </g>
    <g id="xtick_8">
     <g id="line2d_37">
      <path d="M 357.048123 407.98 
L 357.048123 224.22 
" clip-path="url(#p586cc0faed)" style="fill: none; stroke: #b0b0b0; stroke-width: 0.8; stroke-linecap: square"/>
     </g>
     <g id="line2d_38">
      <g>
       <use xlink:href="#m4230e169a1" x="357.048123" y="407.98" style="stroke: #000000; stroke-width: 0.8"/>
      </g>
     </g>
    </g>
    <g id="xtick_9">
     <g id="line2d_39">
      <path d="M 486.541298 407.98 
L 486.541298 224.22 
" clip-path="url(#p586cc0faed)" style="fill: none; stroke: #b0b0b0; stroke-width: 0.8; stroke-linecap: square"/>
     </g>
     <g id="line2d_40">
      <g>
       <use xlink:href="#m4230e169a1" x="486.541298" y="407.98" style="stroke: #000000; stroke-width: 0.8"/>
      </g>
     </g>
    </g>
    <g id="xtick_10">
     <g id="line2d_41">
      <path d="M 616.034472 407.98 
L 616.034472 224.22 
" clip-path="url(#p586cc0faed)" style="fill: none; stroke: #b0b0b0; stroke-width: 0.8; stroke-linecap: square"/>
     </g>
     <g id="line2d_42">
      <g>
       <use xlink:href="#m4230e169a1" x="616.034472" y="407.98" style="stroke: #000000; stroke-width: 0.8"/>
      </g>
     </g>
    </g>
   </g>
   <g id="matplotlib.axis_4">
    <g id="ytick_7">
     <g id="line2d_43">
      <path d="M 68.96 388.759427 
L 709.2 388.759427 
" clip-path="url(#p586cc0faed)" style="fill: none; stroke: #b0b0b0; stroke-width: 0.8; stroke-linecap: square"/>
     </g>
     <g id="line2d_44">
      <g>
       <use xlink:href="#mb3e9998d06" x="68.96" y="388.759427" style="stroke: #000000; stroke-width: 0.8"/>
      </g>
     </g>
     <g id="text_13">
      <!-- −0.2 -->
      <g transform="translate(37.677188 392.558646) scale(0.1 -0.1)">
       <defs>
        <path id="DejaVuSans-2212" d="M 678 2272 
L 4684 2272 
L 4684 1741 
L 678 1741 
L 678 2272 
z
" transform="scale(0.015625)"/>
       </defs>
       <use xlink:href="#DejaVuSans-2212"/>
       <use xlink:href="#DejaVuSans-30" transform="translate(83.789062 0)"/>
       <use xlink:href="#DejaVuSans-2e" transform="translate(147.412109 0)"/>
       <use xlink:href="#DejaVuSans-32" transform="translate(179.199219 0)"/>
      </g>
     </g>
    </g>
    <g id="ytick_8">
     <g id="line2d_45">
      <path d="M 68.96 350.832551 
L 709.2 350.832551 
" clip-path="url(#p586cc0faed)" style="fill: none; stroke: #b0b0b0; stroke-width: 0.8; stroke-linecap: square"/>
     </g>
     <g id="line2d_46">
      <g>
       <use xlink:href="#mb3e9998d06" x="68.96" y="350.832551" style="stroke: #000000; stroke-width: 0.8"/>
      </g>
     </g>
     <g id="text_14">
      <!-- 0.0 -->
      <g transform="translate(46.056875 354.631769) scale(0.1 -0.1)">
       <use xlink:href="#DejaVuSans-30"/>
       <use xlink:href="#DejaVuSans-2e" transform="translate(63.623047 0)"/>
       <use xlink:href="#DejaVuSans-30" transform="translate(95.410156 0)"/>
      </g>
     </g>
    </g>
    <g id="ytick_9">
     <g id="line2d_47">
      <path d="M 68.96 312.905674 
L 709.2 312.905674 
" clip-path="url(#p586cc0faed)" style="fill: none; stroke: #b0b0b0; stroke-width: 0.8; stroke-linecap: square"/>
     </g>
     <g id="line2d_48">
      <g>
       <use xlink:href="#mb3e9998d06" x="68.96" y="312.905674" style="stroke: #000000; stroke-width: 0.8"/>
      </g>
     </g>
     <g id="text_15">
      <!-- 0.2 -->
      <g transform="translate(46.056875 316.704893) scale(0.1 -0.1)">
       <use xlink:href="#DejaVuSans-30"/>
       <use xlink:href="#DejaVuSans-2e" transform="translate(63.623047 0)"/>
       <use xlink:href="#DejaVuSans-32" transform="translate(95.410156 0)"/>
      </g>
     </g>
    </g>
    <g id="ytick_10">
     <g id="line2d_49">
      <path d="M 68.96 274.978797 
L 709.2 274.978797 
" clip-path="url(#p586cc0faed)" style="fill: none; stroke: #b0b0b0; stroke-width: 0.8; stroke-linecap: square"/>
     </g>
     <g id="line2d_50">
      <g>
       <use xlink:href="#mb3e9998d06" x="68.96" y="274.978797" style="stroke: #000000; stroke-width: 0.8"/>
      </g>
     </g>
     <g id="text_16">
      <!-- 0.4 -->
      <g transform="translate(46.056875 278.778016) scale(0.1 -0.1)">
       <defs>
        <path id="DejaVuSans-34" d="M 2419 4116 
L 825 1625 
L 2419 1625 
L 2419 4116 
z
M 2253 4666 
L 3047 4666 
L 3047 1625 
L 3713 1625 
L 3713 1100 
L 3047 1100 
L 3047 0 
L 2419 0 
L 2419 1100 
L 313 1100 
L 313 1709 
L 2253 4666 
z
" transform="scale(0.015625)"/>
       </defs>
       <use xlink:href="#DejaVuSans-30"/>
       <use xlink:href="#DejaVuSans-2e" transform="translate(63.623047 0)"/>
       <use xlink:href="#DejaVuSans-34" transform="translate(95.410156 0)"/>
      </g>
     </g>
    </g>
    <g id="ytick_11">
     <g id="line2d_51">
      <path d="M 68.96 237.05192 
L 709.2 237.05192 
" clip-path="url(#p586cc0faed)" style="fill: none; stroke: #b0b0b0; stroke-width: 0.8; stroke-linecap: square"/>
     </g>
     <g id="line2d_52">
      <g>
       <use xlink:href="#mb3e9998d06" x="68.96" y="237.05192" style="stroke: #000000; stroke-width: 0.8"/>
      </g>
     </g>
     <g id="text_17">
      <!-- 0.6 -->
      <g transform="translate(46.056875 240.851139) scale(0.1 -0.1)">
       <use xlink:href="#DejaVuSans-30"/>
       <use xlink:href="#DejaVuSans-2e" transform="translate(63.623047 0)"/>
       <use xlink:href="#DejaVuSans-36" transform="translate(95.410156 0)"/>
      </g>
     </g>
    </g>
    <g id="text_18">
     <!-- velocity  [rev/s] -->
     <g transform="translate(31.5975 354.989844) rotate(-90) scale(0.1 -0.1)">
      <defs>
       <path id="DejaVuSans-6c" d="M 603 4863 
L 1178 4863 
L 1178 0 
L 603 0 
L 603 4863 
z
" transform="scale(0.015625)"/>
       <path id="DejaVuSans-63" d="M 3122 3366 
L 3122 2828 
Q 2878 2963 2633 3030 
Q 2388 3097 2138 3097 
Q 1578 3097 1268 2742 
Q 959 2388 959 1747 
Q 959 1106 1268 751 
Q 1578 397 2138 397 
Q 2388 397 2633 464 
Q 2878 531 3122 666 
L 3122 134 
Q 2881 22 2623 -34 
Q 2366 -91 2075 -91 
Q 1284 -91 818 406 
Q 353 903 353 1747 
Q 353 2603 823 3093 
Q 1294 3584 2113 3584 
Q 2378 3584 2631 3529 
Q 2884 3475 3122 3366 
z
" transform="scale(0.015625)"/>
       <path id="DejaVuSans-79" d="M 2059 -325 
Q 1816 -950 1584 -1140 
Q 1353 -1331 966 -1331 
L 506 -1331 
L 506 -850 
L 844 -850 
Q 1081 -850 1212 -737 
Q 1344 -625 1503 -206 
L 1606 56 
L 191 3500 
L 800 3500 
L 1894 763 
L 2988 3500 
L 3597 3500 
L 2059 -325 
z
" transform="scale(0.015625)"/>
       <path id="DejaVuSans-2f" d="M 1625 4666 
L 2156 4666 
L 531 -594 
L 0 -594 
L 1625 4666 
z
" transform="scale(0.015625)"/>
      </defs>
      <use xlink:href="#DejaVuSans-76"/>
      <use xlink:href="#DejaVuSans-65" transform="translate(59.179688 0)"/>
      <use xlink:href="#DejaVuSans-6c" transform="translate(120.703125 0)"/>
      <use xlink:href="#DejaVuSans-6f" transform="translate(148.486328 0)"/>
      <use xlink:href="#DejaVuSans-63" transform="translate(209.667969 0)"/>
      <use xlink:href="#DejaVuSans-69" transform="translate(264.648438 0)"/>
      <use xlink:href="#DejaVuSans-74" transform="translate(292.431641 0)"/>
      <use xlink:href="#DejaVuSans-79" transform="translate(331.640625 0)"/>
      <use xlink:href="#DejaVuSans-20" transform="translate(390.820312 0)"/>
      <use xlink:href="#DejaVuSans-20" transform="translate(422.607422 0)"/>
      <use xlink:href="#DejaVuSans-5b" transform="translate(454.394531 0)"/>
      <use xlink:href="#DejaVuSans-72" transform="translate(493.408203 0)"/>
      <use xlink:href="#DejaVuSans-65" transform="translate(532.271484 0)"/>
      <use xlink:href="#DejaVuSans-76" transform="translate(593.794922 0)"/>
      <use xlink:href="#DejaVuSans-2f" transform="translate(652.974609 0)"/>
      <use xlink:href="#DejaVuSans-73" transform="translate(686.666016 0)"/>
      <use xlink:href="#DejaVuSans-5d" transform="translate(738.765625 0)"/>
     </g>
    </g>
   </g>
   <g id="line2d_53">
    <path d="M 98.061888 350.721276 
L 98.961127 349.286667 
L 99.946888 351.261454 
L 101.085198 348.716306 
L 102.231164 349.870765 
L 103.346726 351.716118 
L 104.336583 349.889919 
L 105.499037 348.992008 
L 106.536321 351.867028 
L 107.62395 353.261782 
L 108.551693 352.041737 
L 109.449211 349.609384 
L 110.355539 352.224957 
L 111.266448 349.321108 
L 112.121621 350.030382 
L 113.030868 351.50001 
L 113.947803 349.593906 
L 114.849227 348.941705 
L 115.704664 352.218572 
L 116.60577 350.643888 
L 117.543467 351.442935 
L 118.476638 349.931518 
L 120.950034 353.759397 
L 122.477276 347.922486 
L 123.435682 351.383734 
L 124.6951 351.465959 
L 125.565607 353.891347 
L 126.790526 351.05773 
L 127.787451 349.81021 
L 129.125078 348.872054 
L 130.351049 350.509423 
L 131.401206 354.778617 
L 132.63758 352.896117 
L 133.745804 348.803565 
L 134.705333 351.167814 
L 135.890675 352.817565 
L 136.955708 351.034703 
L 137.922542 351.880376 
L 138.87682 353.454094 
L 139.909712 351.287381 
L 141.878407 352.263842 
L 142.982785 352.424426 
L 143.963469 350.885921 
L 144.889081 350.643111 
L 146.125827 350.516192 
L 147.067248 350.865606 
L 148.036358 352.417073 
L 148.962574 351.74243 
L 149.931896 349.310851 
L 150.886848 351.914428 
L 151.88482 350.541152 
L 152.919956 352.851229 
L 153.942531 352.099003 
L 155.152046 351.427067 
L 156.32841 353.861935 
L 157.415419 352.136727 
L 158.602872 349.762803 
L 159.761156 352.959766 
L 160.841118 353.123445 
L 161.938222 351.807629 
L 163.009886 351.383727 
L 164.134059 351.121378 
L 165.124655 348.053656 
L 166.178228 349.647881 
L 167.242937 353.38889 
L 168.253 349.311042 
L 169.595639 350.237007 
L 170.598742 349.328067 
L 171.760808 351.006647 
L 172.89247 349.210049 
L 173.882203 348.933381 
L 174.910055 349.212371 
L 175.903106 348.834127 
L 177.179585 349.05488 
L 178.225005 346.103824 
L 179.281383 347.361018 
L 180.253143 348.237067 
L 181.284772 345.409448 
L 182.512017 346.876948 
L 183.504145 346.347602 
L 184.532455 343.750604 
L 185.592465 346.743453 
L 186.962907 345.897779 
L 188.184897 340.728158 
L 189.73588 338.049127 
L 190.776908 341.235836 
L 191.694469 339.062358 
L 192.63411 341.437449 
L 193.55077 338.090355 
L 194.486434 341.327364 
L 195.660996 338.505348 
L 196.754771 338.668819 
L 197.986629 335.672866 
L 198.906732 332.423677 
L 200.293291 332.327523 
L 201.257384 331.031451 
L 202.19349 333.612397 
L 203.102446 329.209907 
L 204.016694 330.601192 
L 204.95709 327.558043 
L 205.868226 328.075785 
L 206.853302 328.115845 
L 207.754283 324.652079 
L 208.671499 326.700778 
L 209.581539 322.064177 
L 210.490204 327.187963 
L 211.356475 320.702341 
L 212.271739 319.323833 
L 213.184396 319.123014 
L 214.085026 321.643578 
L 214.982322 317.072953 
L 215.869453 319.548824 
L 216.777885 313.827607 
L 217.683177 321.585901 
L 218.604845 315.515845 
L 219.514238 315.501719 
L 220.448947 317.898288 
L 221.446643 311.475346 
L 222.439618 313.06397 
L 223.518043 313.553083 
L 225.969127 308.129584 
L 226.887148 314.453256 
L 227.786386 308.714988 
L 228.824544 312.59995 
L 229.76891 311.420346 
L 230.688582 309.250548 
L 231.695623 312.599984 
L 232.72573 306.205292 
L 233.859627 309.886341 
L 236.239269 309.38638 
L 237.435494 313.626367 
L 238.409882 306.235282 
L 239.316847 313.233435 
L 240.218195 305.981446 
L 241.125634 313.169182 
L 241.955038 307.254312 
L 242.884179 309.437261 
L 243.830067 309.219784 
L 244.756434 311.128779 
L 245.653331 309.822462 
L 246.575845 310.584547 
L 247.559616 311.884301 
L 248.781654 310.042798 
L 249.861352 314.916208 
L 250.833268 309.187833 
L 251.747042 316.161387 
L 252.597149 311.34598 
L 253.563713 316.740422 
L 254.507793 311.147678 
L 255.724598 316.483115 
L 256.908003 315.410308 
L 257.993955 315.964411 
L 259.048979 319.791694 
L 261.130711 316.965811 
L 262.199985 320.463646 
L 263.489769 318.526564 
L 264.40302 318.211397 
L 265.369292 325.553345 
L 266.412042 313.542665 
L 267.551479 324.18139 
L 268.674028 320.286362 
L 269.647358 320.090946 
L 270.789164 327.369805 
L 271.876648 320.882049 
L 272.99425 328.053158 
L 274.265943 324.740687 
L 275.637092 324.662718 
L 276.865135 327.192186 
L 277.766052 327.783645 
L 278.72988 328.665705 
L 279.711584 326.653565 
L 280.635356 326.966025 
L 281.761952 329.797508 
L 282.694524 329.575397 
L 283.764564 331.424813 
L 284.793236 330.308274 
L 285.847332 331.619062 
L 287.053 336.047484 
L 288.249118 331.951841 
L 289.295611 335.090377 
L 290.397307 334.028022 
L 291.442274 334.745613 
L 292.416953 336.528099 
L 293.515842 335.776062 
L 294.581075 337.382087 
L 295.710061 335.845894 
L 296.779583 339.591546 
L 297.960604 337.154738 
L 299.052086 340.299268 
L 300.124446 339.418959 
L 301.126879 340.818934 
L 302.26186 338.046848 
L 303.285099 340.158034 
L 304.188357 339.120629 
L 305.542839 341.302821 
L 306.549028 341.691511 
L 307.637116 339.885045 
L 308.590634 343.75007 
L 309.512458 341.283085 
L 310.504138 342.722334 
L 311.626947 343.372213 
L 313.956647 346.009651 
L 315.034678 342.943669 
L 316.171045 346.504749 
L 317.203581 343.826681 
L 318.210412 344.47985 
L 319.285259 345.648433 
L 320.254073 346.955737 
L 321.299191 350.957938 
L 322.320968 349.404149 
L 323.233803 349.458322 
L 324.134158 345.86919 
L 325.045914 347.060601 
L 325.943539 350.470384 
L 326.879511 348.382413 
L 328.975498 348.671653 
L 330.137267 351.316633 
L 331.507289 350.346168 
L 332.678323 349.067113 
L 333.799701 349.114709 
L 334.763913 349.635154 
L 335.974733 351.161856 
L 337.18966 350.496307 
L 338.484586 350.090979 
L 339.665435 349.212996 
L 340.692224 352.145286 
L 342.914871 351.373519 
L 345.010859 352.247054 
L 346.148106 352.042165 
L 347.277448 352.371265 
L 348.454687 352.534944 
L 349.518257 352.562418 
L 350.62939 352.993283 
L 351.770138 353.780915 
L 353.22051 353.157543 
L 354.220759 354.074802 
L 355.704837 352.793812 
L 357.079342 352.003664 
L 358.073191 351.704554 
L 358.9948 355.174509 
L 359.958407 351.797812 
L 360.90306 354.869791 
L 361.878348 352.967169 
L 362.997547 354.594671 
L 363.920029 352.112403 
L 364.923504 353.341346 
L 365.834845 353.030047 
L 366.764401 351.547068 
L 367.73022 354.061843 
L 368.671242 350.895063 
L 369.590282 353.243449 
L 370.595705 354.396359 
L 371.527063 350.828123 
L 372.417118 352.603439 
L 373.316702 352.50767 
L 374.231862 352.712559 
L 376.091346 353.287178 
L 377.157534 350.226423 
L 378.196889 352.941635 
L 379.390142 350.899132 
L 380.32293 352.757448 
L 381.229328 351.353021 
L 382.979623 351.715397 
L 383.886091 351.694696 
L 384.799584 351.541077 
L 385.700344 352.647748 
L 386.597252 351.92493 
L 387.494424 349.816065 
L 388.384738 353.074164 
L 389.28607 351.943308 
L 390.224917 354.888753 
L 391.114292 349.829412 
L 392.006532 351.445306 
L 392.863599 347.851337 
L 393.782758 352.138718 
L 394.684359 350.339024 
L 395.58568 351.834965 
L 396.502115 349.846249 
L 397.612659 349.309745 
L 398.540785 349.703657 
L 399.774563 349.191724 
L 400.914605 348.168633 
L 402.063274 352.63517 
L 402.980491 349.718551 
L 403.926983 351.403321 
L 405.107368 350.347922 
L 406.216638 351.964976 
L 407.550316 350.45917 
L 408.495001 349.939885 
L 409.48408 348.598724 
L 410.393506 350.311354 
L 411.326601 348.103624 
L 412.514954 348.780396 
L 413.477029 348.831472 
L 414.464625 351.597761 
L 415.52402 349.495667 
L 416.549773 349.711197 
L 417.58369 349.533975 
L 418.539727 348.571636 
L 419.440168 348.435432 
L 420.660339 349.281492 
L 421.762607 351.614784 
L 422.770517 345.04809 
L 423.750063 350.187335 
L 424.864103 349.665921 
L 425.862167 348.577631 
L 426.907171 352.461813 
L 427.963674 353.190242 
L 428.830657 347.476573 
L 429.818054 350.604853 
L 430.786447 349.251115 
L 431.796213 350.087696 
L 433.179864 349.533394 
L 434.604364 351.358241 
L 436.017091 348.182949 
L 437.061848 349.109689 
L 438.30133 350.921184 
L 439.305371 349.480384 
L 440.312337 349.786652 
L 441.344025 350.476388 
L 442.361637 351.520179 
L 443.389478 352.079704 
L 444.473632 347.232411 
L 445.557674 350.988706 
L 446.657492 351.264599 
L 447.840725 348.258208 
L 448.914007 348.834953 
L 449.915367 349.788198 
L 451.067409 352.435695 
L 452.069875 349.616586 
L 452.966998 349.321538 
L 453.939373 348.722542 
L 454.891973 348.633738 
L 455.896722 349.455035 
L 456.97377 351.242928 
L 457.95037 351.649997 
L 458.979728 351.049841 
L 460.047 349.175273 
L 461.052136 347.661728 
L 462.459614 353.254282 
L 463.484779 348.486313 
L 464.735467 349.61059 
L 465.869126 351.808839 
L 466.953216 349.683336 
L 468.14192 351.473936 
L 469.356107 350.677405 
L 470.470677 349.068089 
L 471.547709 348.741893 
L 472.647252 351.698753 
L 473.838913 351.403705 
L 474.909438 348.809995 
L 476.237698 354.58074 
L 477.55821 351.251055 
L 478.733798 351.292458 
L 479.998337 350.873393 
L 481.08248 348.862812 
L 482.359418 350.340952 
L 484.037439 352.617751 
L 485.277547 350.993152 
L 486.214424 349.559123 
L 487.179424 351.554032 
L 488.157119 350.603495 
L 489.126515 351.144061 
L 490.104642 350.606398 
L 491.010053 350.553772 
L 491.914962 352.744863 
L 492.812091 349.014301 
L 493.692256 348.91679 
L 494.588322 349.315152 
L 495.439389 350.067765 
L 496.336426 350.13374 
L 497.239414 349.974125 
L 498.160774 350.704295 
L 499.078762 351.847726 
L 500.06727 350.818639 
L 501.07137 350.328183 
L 502.008939 347.87745 
L 503.043136 351.064351 
L 504.07033 351.213713 
L 505.07531 346.366226 
L 506.175101 352.891904 
L 507.215903 351.326315 
L 508.365635 349.002114 
L 509.474938 351.108658 
L 510.61791 350.947493 
L 511.661031 348.371002 
L 512.602991 348.93227 
L 513.49562 348.181398 
L 514.316558 350.375199 
L 515.222795 349.960391 
L 516.143302 351.536236 
L 517.050008 350.213647 
L 517.945793 349.380355 
L 518.846791 349.949361 
L 519.748133 348.600074 
L 520.683619 352.091697 
L 521.575406 347.918854 
L 522.488543 350.137419 
L 523.403186 350.468453 
L 524.324557 348.95007 
L 525.227238 350.600789 
L 526.243209 348.933237 
L 527.33052 351.038427 
L 528.31701 349.953813 
L 529.41223 351.375846 
L 530.62604 347.491669 
L 531.782214 348.54494 
L 532.749777 349.217069 
L 533.835027 346.689913 
L 534.961288 350.436147 
L 535.868302 350.805874 
L 537.020936 347.878616 
L 538.120204 346.515592 
L 539.07111 349.662058 
L 540.400136 348.410669 
L 541.541705 348.509728 
L 542.489822 351.946211 
L 543.417608 346.334696 
L 544.44546 349.712555 
L 545.742323 349.808326 
L 546.818557 349.57403 
L 547.895163 350.812455 
L 549.125419 347.428403 
L 550.221476 347.112653 
L 551.238478 351.157612 
L 552.349043 347.17089 
L 553.44134 347.314835 
L 554.670198 348.287429 
L 555.716497 346.909703 
L 556.73638 348.628333 
L 557.806436 345.849081 
L 558.787617 348.849862 
L 559.703889 346.827674 
L 560.715268 348.815232 
L 561.622497 346.898873 
L 562.552447 348.950662 
L 564.247561 349.314781 
L 565.255099 347.57371 
L 566.586775 348.989938 
L 567.816221 346.668639 
L 568.927817 348.596994 
L 570.05724 347.684185 
L 571.041351 348.619434 
L 572.00805 348.578997 
L 573.041821 347.490125 
L 574.08143 349.146069 
L 575.156584 349.413451 
L 576.139162 347.326061 
L 577.16695 349.381334 
L 578.444842 347.410416 
L 579.600272 349.810462 
L 580.805422 346.214751 
L 581.842123 347.99297 
L 582.880901 346.575389 
L 583.81064 348.981428 
L 584.754516 347.550687 
L 585.737817 348.493679 
L 586.737202 345.248155 
L 587.86171 346.192887 
L 589.075946 347.971685 
L 590.178489 348.659486 
L 591.202316 347.853278 
L 592.319119 347.519536 
L 593.754583 344.988514 
L 594.847522 345.988386 
L 596.029325 348.420736 
L 596.968026 345.881973 
L 598.30295 345.142322 
L 599.984856 346.390424 
L 601.003519 344.338054 
L 602.124952 348.530054 
L 603.266537 346.710821 
L 604.297005 345.534498 
L 605.374691 348.065522 
L 606.496954 345.904419 
L 607.456083 345.857601 
L 608.644901 345.955498 
L 609.768 343.997544 
L 611.048445 346.04063 
L 612.232466 344.005678 
L 613.155013 344.581262 
L 614.064471 344.351022 
L 614.995764 346.289047 
L 615.972099 345.004961 
L 617.141261 347.616855 
L 618.004905 343.977609 
L 619.594719 346.742349 
L 620.42749 345.531782 
L 621.494713 342.809412 
L 622.390698 344.625939 
L 623.304472 344.502309 
L 624.209295 346.221514 
L 625.146399 344.640834 
L 626.045368 343.61136 
L 626.929596 346.144901 
L 627.868168 344.197202 
L 628.818173 343.907379 
L 629.847039 346.116656 
L 631.029592 344.022497 
L 632.117411 345.71907 
L 633.051709 343.606724 
L 633.934524 347.850961 
L 634.836638 345.289758 
L 636.653654 343.478456 
L 637.658208 343.290401 
L 638.669307 344.235711 
L 639.58034 343.637297 
L 640.487002 342.6796 
L 641.386613 342.996317 
L 642.288155 344.26899 
L 643.208873 344.910551 
L 644.117915 342.222227 
L 645.008942 343.928471 
L 645.955645 343.903319 
L 646.847367 346.674058 
L 647.742807 340.638644 
L 648.800669 344.932989 
L 649.767249 344.764282 
L 650.733376 345.545921 
L 651.892184 341.148842 
L 652.960508 346.339744 
L 654.03208 346.561081 
L 655.33278 341.912868 
L 656.726396 344.745138 
L 657.708672 343.587393 
L 659.115642 341.727532 
L 660.332781 343.883606 
L 661.423961 344.267649 
L 662.361998 341.970345 
L 663.268089 343.714707 
L 664.294954 342.73689 
L 665.415544 342.147764 
L 666.62166 342.360969 
L 667.724429 344.2899 
L 668.976644 345.248175 
L 670.025151 343.958865 
L 671.402446 342.76358 
L 672.352596 341.768737 
L 673.383848 344.44738 
L 674.52826 345.041152 
L 675.688885 339.613827 
L 676.727685 345.71309 
L 677.663182 339.918933 
L 678.799808 346.283644 
L 679.903548 339.969823 
L 679.903548 339.969823 
" clip-path="url(#p586cc0faed)" style="fill: none; stroke: #1f77b4; stroke-linecap: square"/>
   </g>
   <g id="line2d_54">
    <path d="M 98.061818 357.108903 
L 98.950832 357.33836 
L 99.843482 355.894856 
L 100.741555 353.313335 
L 101.642013 357.037901 
L 102.55631 356.749429 
L 103.458953 357.283222 
L 104.377168 357.038672 
L 105.2727 355.694028 
L 106.184278 359.737246 
L 107.092321 357.958062 
L 108.000829 359.460379 
L 108.893539 359.690232 
L 109.819102 362.653286 
L 111.319578 361.236666 
L 112.794963 360.808705 
L 113.898402 359.140768 
L 117.321511 361.925051 
L 118.355082 360.286321 
L 119.440683 365.564675 
L 120.802881 363.601683 
L 121.960123 366.000561 
L 124.205438 360.94529 
L 125.421816 365.977349 
L 126.574224 365.343917 
L 127.522767 363.408983 
L 128.658816 365.200161 
L 129.600749 362.018097 
L 130.51795 366.497401 
L 131.423209 365.293805 
L 132.329262 367.024435 
L 133.221756 371.487297 
L 134.113824 364.599242 
L 135.042058 367.517025 
L 135.976087 365.321292 
L 137.11056 368.825105 
L 138.09691 366.305873 
L 139.210492 370.687673 
L 140.234594 366.321552 
L 141.268295 368.032249 
L 142.245639 362.698554 
L 143.146011 370.92564 
L 144.055776 365.02991 
L 144.963928 369.253438 
L 145.840942 365.473346 
L 146.766003 369.745829 
L 147.749083 368.514172 
L 148.760829 365.48902 
L 149.770601 368.60608 
L 150.837975 367.454909 
L 152.105293 369.442854 
L 154.457865 369.041001 
L 155.467318 369.816251 
L 156.628565 367.472902 
L 157.672172 371.985289 
L 158.709196 367.553569 
L 160.782851 368.85757 
L 161.810844 367.221561 
L 162.648368 368.519968 
L 163.569178 367.701963 
L 164.488477 300.028506 
L 165.432056 399.627273 
L 166.275056 326.007772 
L 167.184918 390.526655 
L 168.086326 338.560554 
L 168.981679 377.394422 
L 169.892238 346.412298 
L 170.82168 361.89504 
L 171.673535 348.616738 
L 172.589839 352.674077 
L 173.534972 351.484793 
L 174.794482 345.383404 
L 175.810232 344.447372 
L 177.023837 342.555198 
L 178.304913 337.882412 
L 179.281998 338.019974 
L 180.275599 335.590725 
L 181.749172 332.600775 
L 183.858055 326.852265 
L 184.969187 325.662414 
L 186.392377 325.7965 
L 187.376638 319.732268 
L 188.366446 314.493384 
L 189.288098 316.609408 
L 190.186775 309.905746 
L 191.178482 316.27914 
L 192.096497 307.507987 
L 192.977736 309.488972 
L 194.063299 300.217098 
L 195.062252 304.044028 
L 196.061114 300.940688 
L 197.125747 294.267186 
L 198.289551 300.118202 
L 199.493358 296.223999 
L 200.6849 285.445604 
L 201.835911 291.960655 
L 202.900425 281.804585 
L 204.007193 282.9912 
L 205.032331 279.11979 
L 206.167921 278.115245 
L 207.193329 273.820523 
L 208.123295 275.608237 
L 209.108814 263.441472 
L 210.110951 396.798536 
L 211.039309 232.572727 
L 212.358618 274.377206 
L 213.51967 303.567631 
L 214.823822 252.905415 
L 215.91798 285.136793 
L 216.992018 297.031193 
L 218.423409 264.380968 
L 219.34949 294.059441 
L 220.549719 278.000683 
L 221.532081 282.756859 
L 222.624772 287.00113 
L 223.575975 283.466761 
L 224.589086 287.170009 
L 225.592475 285.340559 
L 226.646301 291.708754 
L 227.707897 288.955999 
L 228.795785 291.120021 
L 229.804062 292.039776 
L 230.737303 293.23952 
L 231.745365 295.7429 
L 232.8339 292.083547 
L 233.827911 304.402576 
L 234.977633 295.745777 
L 236.039596 302.687434 
L 237.333292 304.88411 
L 238.432263 298.614213 
L 239.46169 306.527893 
L 240.715438 310.037314 
L 242.09174 306.077903 
L 243.080733 307.965248 
L 244.428309 315.826479 
L 245.364118 312.66743 
L 246.731582 319.945518 
L 247.672647 313.980526 
L 248.79722 317.777266 
L 250.211863 324.342233 
L 251.182635 321.974487 
L 252.14075 324.837707 
L 253.108819 328.338246 
L 254.023187 327.780287 
L 255.118721 329.805 
L 256.111064 289.469759 
L 257.192079 350.497194 
L 258.2367 314.393236 
L 259.286766 332.200181 
L 260.605578 339.59167 
L 261.809525 325.603313 
L 263.040444 337.844017 
L 264.447236 333.34284 
L 265.437217 334.718241 
L 266.600001 335.669934 
L 268.009615 332.885268 
L 269.214063 334.889661 
L 270.44822 335.839044 
L 271.367859 332.62002 
L 272.535056 339.785521 
L 273.443089 331.323567 
L 274.365879 338.201949 
L 275.255778 334.739926 
L 276.162219 339.770247 
L 277.068121 336.303585 
L 278.046188 339.883815 
L 279.002021 335.995771 
L 280.077073 337.805718 
L 281.309438 337.931483 
L 282.526998 339.567302 
L 283.50036 337.641074 
L 284.404692 340.081935 
L 285.301696 340.164738 
L 286.199241 342.858855 
L 287.072985 340.407932 
L 288.030792 340.476031 
L 288.927586 338.941397 
L 289.843502 343.622692 
L 290.772238 338.839636 
L 291.678404 342.330286 
L 292.54384 341.028014 
L 293.451759 340.631977 
L 294.358055 340.663707 
L 295.274338 342.873565 
L 296.226291 340.690987 
L 297.193923 343.442959 
L 298.628524 343.194923 
L 299.520872 344.170993 
L 300.687703 340.463064 
L 301.642775 344.380329 
L 302.694858 344.277789 
L 303.794654 344.995969 
L 305.04926 347.949929 
L 306.079513 345.570388 
L 307.462403 345.444634 
L 308.564088 342.876074 
L 309.512722 345.715501 
L 310.635757 347.646564 
L 311.876199 345.656107 
L 313.065923 346.39266 
L 314.211571 345.784763 
L 315.317534 347.648694 
L 316.344075 345.324493 
L 317.687502 347.60052 
L 318.745613 346.831461 
L 320.367833 348.469606 
L 321.32169 345.606965 
L 322.421918 349.547061 
L 323.408851 348.181718 
L 324.345237 343.449927 
L 325.468218 352.630454 
L 326.403046 348.867 
L 327.48979 349.332692 
L 328.651576 348.283677 
L 329.897705 346.677457 
L 331.018657 350.181268 
L 332.145933 352.267498 
L 333.160205 349.403504 
L 334.177228 348.830628 
L 335.268116 348.966641 
L 336.41617 348.751304 
L 337.316617 350.311284 
L 338.177385 350.620261 
L 339.120894 352.108655 
L 340.124115 352.550936 
L 342.028577 351.709905 
L 343.285233 349.69062 
L 344.28519 352.702621 
L 345.607736 354.855018 
L 346.681747 347.966382 
L 347.70347 351.418534 
L 349.041852 353.178953 
L 349.998013 350.295613 
L 351.003258 351.340952 
L 351.918726 352.609754 
L 352.846755 353.557388 
L 353.760141 351.314058 
L 354.887066 351.145155 
L 357.198244 351.860622 
L 358.359835 350.791872 
L 359.257158 352.585569 
L 360.241118 351.004501 
L 361.259781 351.402863 
L 362.327128 352.15451 
L 363.301451 353.894614 
L 364.450692 351.742991 
L 365.667615 350.604397 
L 366.763829 351.766013 
L 367.92971 349.91118 
L 369.040378 350.737506 
L 370.1453 351.361266 
L 372.503387 349.775749 
L 373.735348 352.218743 
L 374.725781 351.134322 
L 375.72978 350.694362 
L 376.626914 350.853398 
L 377.538222 348.956774 
L 378.470702 351.311738 
L 379.385324 349.777684 
L 380.3108 352.136904 
L 381.534301 348.921369 
L 382.614473 350.93485 
L 383.81576 349.406599 
L 385.168807 347.96019 
L 386.39992 349.966125 
L 387.581702 348.950775 
L 389.047327 349.382996 
L 390.495746 352.383195 
L 391.73423 350.042741 
L 392.87698 351.597304 
L 394.031547 348.71938 
L 395.107969 351.562478 
L 396.319864 352.163409 
L 397.375546 348.89699 
L 398.394841 350.394477 
L 399.414076 348.730021 
L 400.316104 349.291675 
L 401.235602 347.050281 
L 402.152031 350.37126 
L 403.10509 351.453166 
L 404.018308 349.772459 
L 404.922478 349.84153 
L 405.826082 347.249755 
L 406.735431 349.235957 
L 407.639299 349.650572 
L 408.581885 349.444328 
L 409.471449 349.0746 
L 410.358952 350.603817 
L 411.272753 348.88248 
L 412.257695 350.960969 
L 413.410286 351.258918 
L 414.532501 350.823022 
L 415.698922 349.662179 
L 416.848379 348.882673 
L 417.840518 349.857008 
L 419.033371 351.565382 
L 420.109001 350.959809 
L 421.304568 350.474189 
L 422.216972 351.528428 
L 424.088369 349.916017 
L 424.990321 351.157151 
L 425.857375 351.396865 
L 426.784681 348.837592 
L 427.618876 350.374548 
L 428.525048 347.70577 
L 429.435606 348.884026 
L 430.352154 349.323599 
L 431.307009 350.771171 
L 432.284041 348.369967 
L 433.228429 348.105875 
L 434.41436 348.154825 
L 435.687661 350.341854 
L 436.779671 350.237766 
L 437.956651 351.049196 
L 439.014324 348.395895 
L 440.007094 350.912217 
L 440.960094 348.007592 
L 441.882004 350.402604 
L 442.780984 351.14419 
L 443.700369 347.169853 
L 444.647714 348.606978 
L 445.817086 348.355074 
L 446.820432 348.779364 
L 447.767135 346.784649 
L 448.77934 351.598278 
L 451.151266 345.013784 
L 452.189127 348.879391 
L 453.159953 351.064486 
L 454.214568 348.956589 
L 455.16856 350.238933 
L 456.084082 349.984322 
L 457.043173 346.079053 
L 457.974542 349.693532 
L 459.085977 349.933825 
L 460.063542 351.840123 
L 461.183124 347.272399 
L 462.503841 349.525982 
L 463.431622 345.610266 
L 464.66737 349.620592 
L 466.510371 345.461293 
L 467.399368 349.709784 
L 468.316045 348.335346 
L 469.293702 348.700429 
L 470.258632 347.855142 
L 471.50994 349.344696 
L 472.742942 349.941562 
L 473.945221 346.716157 
L 475.097306 348.122326 
L 476.136311 348.301097 
L 477.2918 347.841792 
L 478.336151 346.994571 
L 479.326245 348.516437 
L 480.416815 347.64329 
L 481.867927 347.448463 
L 482.846064 345.510823 
L 483.766717 347.654322 
L 485.138935 350.040433 
L 486.433575 347.127104 
L 487.547276 346.959363 
L 488.511374 345.541778 
L 489.424431 345.349272 
L 490.325962 344.618131 
L 491.269471 344.854363 
L 492.830614 342.242466 
L 493.931327 347.44401 
L 495.175482 345.198359 
L 496.296844 346.66779 
L 497.508312 346.63664 
L 498.889227 342.478499 
L 500.040643 347.815473 
L 500.968515 347.572469 
L 501.977877 344.436066 
L 502.875415 346.268071 
L 503.935506 343.495399 
L 504.862607 349.072667 
L 505.764996 345.449093 
L 506.679067 347.685455 
L 507.600848 343.068394 
L 508.524053 344.687002 
L 509.43193 345.352939 
L 510.354153 343.360545 
L 511.347889 345.27535 
L 512.468156 344.850093 
L 513.673069 344.886273 
L 514.705685 345.195057 
L 516.077336 343.320294 
L 517.129198 342.622822 
L 518.155184 344.499131 
L 519.567652 345.228332 
L 520.841045 343.73839 
L 522.016767 345.740452 
L 523.164794 344.585215 
L 524.356693 344.644995 
L 525.548715 345.002731 
L 526.717008 345.598245 
L 527.758732 341.773845 
L 528.834809 342.545424 
L 530.297268 343.418767 
L 531.427527 345.410773 
L 532.434493 345.361627 
L 533.359857 341.519621 
L 534.253894 344.022015 
L 535.183239 341.087016 
L 536.080282 345.413089 
L 536.966382 340.465768 
L 537.879757 343.052316 
L 538.787121 347.126875 
L 539.695321 341.345686 
L 540.611064 343.303254 
L 541.571623 343.741086 
L 542.631018 345.639067 
L 543.686619 342.394318 
L 544.590363 340.352205 
L 545.512797 341.365619 
L 546.530888 345.202204 
L 547.453786 342.489115 
L 548.468095 339.989823 
L 549.503652 345.821317 
L 550.428762 344.384579 
L 551.340329 346.155257 
L 552.198146 340.667951 
L 553.123359 343.933012 
L 554.007511 344.494282 
L 554.903911 340.640476 
L 555.833187 342.332016 
L 556.739461 341.945264 
L 557.647364 345.784755 
L 558.574228 342.874333 
L 559.480297 344.136943 
L 560.389803 343.271731 
L 561.289495 345.548915 
L 562.240687 340.234583 
L 563.222898 342.682032 
L 564.231742 342.793859 
L 565.298555 343.563107 
L 567.522482 341.081223 
L 568.585648 344.817393 
L 569.639414 341.380914 
L 570.802107 343.382593 
L 571.736562 341.225747 
L 572.66213 343.036466 
L 573.658046 342.208207 
L 574.694256 340.866078 
L 575.807142 343.781722 
L 577.219001 341.734186 
L 578.305896 342.937591 
L 579.5126 339.657628 
L 580.715813 340.904374 
L 581.788421 344.051425 
L 582.945475 343.214461 
L 584.402694 336.898319 
L 585.327183 342.44831 
L 586.221215 339.543493 
L 587.142046 343.718075 
L 589.123022 338.797064 
L 590.137218 340.817121 
L 591.214623 337.198779 
L 592.396183 340.58167 
L 593.724951 340.27907 
L 595.097551 340.9334 
L 596.216059 341.08625 
L 597.336407 339.711427 
L 598.327753 340.964355 
L 599.224828 337.782487 
L 600.141596 342.006407 
L 601.058284 340.353562 
L 601.992264 340.174789 
L 603.136417 339.337623 
L 604.459104 341.384966 
L 605.636229 340.165303 
L 606.663644 340.653046 
L 607.766645 338.507415 
L 608.873791 342.215528 
L 609.855079 339.166575 
L 610.885429 341.050041 
L 611.788606 340.5383 
L 612.685595 339.299489 
L 613.598462 341.397133 
L 614.530085 338.674563 
L 615.585033 342.54947 
L 616.830526 342.784736 
L 618.137791 339.137375 
L 619.129644 340.401144 
L 620.048771 340.24637 
L 620.950772 336.067529 
L 621.960085 339.192334 
L 622.929659 335.878512 
L 623.946456 340.471591 
L 624.811271 337.47293 
L 625.74776 336.937394 
L 626.717847 338.142149 
L 628.857469 337.41972 
L 630.020225 338.799 
L 631.117944 337.241711 
L 632.276682 339.133309 
L 633.243419 335.514577 
L 634.234619 337.900493 
L 635.444948 337.798726 
L 637.152181 338.012713 
L 638.171783 336.247856 
L 639.11151 338.091861 
L 640.052342 336.10296 
L 641.123218 335.116238 
L 642.188731 336.943015 
L 643.188402 333.311512 
L 644.227601 338.504929 
L 645.239094 337.175188 
L 646.595492 338.067694 
L 647.65732 335.055502 
L 649.037652 338.364873 
L 650.069535 337.716165 
L 651.255531 334.585377 
L 652.724431 334.525013 
L 653.843673 333.828905 
L 654.941165 336.754227 
L 656.289955 337.360949 
L 657.555411 334.851788 
L 658.594885 333.870498 
L 659.871138 336.645105 
L 661.055633 333.560542 
L 661.967103 336.35488 
L 662.857417 335.059375 
L 663.758323 336.203374 
L 664.658106 333.12404 
L 665.642033 334.806673 
L 666.558877 331.676656 
L 667.487678 339.095797 
L 668.808158 335.912965 
L 669.957749 332.659311 
L 671.072119 337.889502 
L 672.280549 335.58658 
L 673.363636 336.160223 
L 674.43742 334.624811 
L 675.478238 336.188851 
L 676.630495 336.99139 
L 678.26908 336.148595 
L 680.098182 334.747642 
L 680.098182 334.747642 
" clip-path="url(#p586cc0faed)" style="fill: none; stroke: #d62728; stroke-linecap: square"/>
   </g>
   <g id="line2d_55">
    <path d="M 68.96 350.832551 
L 709.2 350.832551 
" clip-path="url(#p586cc0faed)" style="fill: none; stroke: #000000; stroke-width: 0.5; stroke-linecap: square"/>
   </g>
   <g id="patch_9">
    <path d="M 68.96 407.98 
L 68.96 224.22 
" style="fill: none; stroke: #000000; stroke-width: 0.8; stroke-linejoin: miter; stroke-linecap: square"/>
   </g>
   <g id="patch_10">
    <path d="M 709.2 407.98 
L 709.2 224.22 
" style="fill: none; stroke: #000000; stroke-width: 0.8; stroke-linejoin: miter; stroke-linecap: square"/>
   </g>
   <g id="patch_11">
    <path d="M 68.96 407.98 
L 709.2 407.98 
" style="fill: none; stroke: #000000; stroke-width: 0.8; stroke-linejoin: miter; stroke-linecap: square"/>
   </g>
   <g id="patch_12">
    <path d="M 68.96 224.22 
L 709.2 224.22 
" style="fill: none; stroke: #000000; stroke-width: 0.8; stroke-linejoin: miter; stroke-linecap: square"/>
   </g>
   <g id="legend_2">
    <g id="patch_13">
     <path d="M 655.4075 254.105 
L 703.6 254.105 
Q 705.2 254.105 705.2 252.505 
L 705.2 229.82 
Q 705.2 228.22 703.6 228.22 
L 655.4075 228.22 
Q 653.8075 228.22 653.8075 229.82 
L 653.8075 252.505 
Q 653.8075 254.105 655.4075 254.105 
z
" style="fill: #ffffff; opacity: 0.8; stroke: #cccccc; stroke-linejoin: miter"/>
    </g>
    <g id="line2d_56">
     <path d="M 657.0075 234.69875 
L 665.0075 234.69875 
L 673.0075 234.69875 
" style="fill: none; stroke: #1f77b4; stroke-linecap: square"/>
    </g>
    <g id="text_19">
     <!-- no FF -->
     <g transform="translate(679.4075 237.49875) scale(0.08 -0.08)">
      <use xlink:href="#DejaVuSans-6e"/>
      <use xlink:href="#DejaVuSans-6f" transform="translate(63.378906 0)"/>
      <use xlink:href="#DejaVuSans-20" transform="translate(124.560547 0)"/>
      <use xlink:href="#DejaVuSans-46" transform="translate(156.347656 0)"/>
      <use xlink:href="#DejaVuSans-46" transform="translate(213.867188 0)"/>
     </g>
    </g>
    <g id="line2d_57">
     <path d="M 657.0075 246.44125 
L 665.0075 246.44125 
L 673.0075 246.44125 
" style="fill: none; stroke: #d62728; stroke-linecap: square"/>
    </g>
    <g id="text_20">
     <!-- FF ref -->
     <g transform="translate(679.4075 249.24125) scale(0.08 -0.08)">
      <use xlink:href="#DejaVuSans-46"/>
      <use xlink:href="#DejaVuSans-46" transform="translate(57.519531 0)"/>
      <use xlink:href="#DejaVuSans-20" transform="translate(115.039062 0)"/>
      <use xlink:href="#DejaVuSans-72" transform="translate(146.826172 0)"/>
      <use xlink:href="#DejaVuSans-65" transform="translate(185.689453 0)"/>
      <use xlink:href="#DejaVuSans-66" transform="translate(247.212891 0)"/>
     </g>
    </g>
   </g>
  </g>
  <g id="axes_3">
   <g id="patch_14">
    <path d="M 68.96 606.04 
L 709.2 606.04 
L 709.2 422.28 
L 68.96 422.28 
z
" style="fill: #ffffff"/>
   </g>
   <g id="matplotlib.axis_5">
    <g id="xtick_11">
     <g id="line2d_58">
      <path d="M 98.061775 606.04 
L 98.061775 422.28 
" clip-path="url(#paf3ad4f026)" style="fill: none; stroke: #b0b0b0; stroke-width: 0.8; stroke-linecap: square"/>
     </g>
     <g id="line2d_59">
      <g>
       <use xlink:href="#m4230e169a1" x="98.061775" y="606.04" style="stroke: #000000; stroke-width: 0.8"/>
      </g>
     </g>
     <g id="text_21">
      <!-- 0 -->
      <g transform="translate(94.880525 620.638438) scale(0.1 -0.1)">
       <use xlink:href="#DejaVuSans-30"/>
      </g>
     </g>
    </g>
    <g id="xtick_12">
     <g id="line2d_60">
      <path d="M 227.554949 606.04 
L 227.554949 422.28 
" clip-path="url(#paf3ad4f026)" style="fill: none; stroke: #b0b0b0; stroke-width: 0.8; stroke-linecap: square"/>
     </g>
     <g id="line2d_61">
      <g>
       <use xlink:href="#m4230e169a1" x="227.554949" y="606.04" style="stroke: #000000; stroke-width: 0.8"/>
      </g>
     </g>
     <g id="text_22">
      <!-- 1 -->
      <g transform="translate(224.373699 620.638438) scale(0.1 -0.1)">
       <use xlink:href="#DejaVuSans-31"/>
      </g>
     </g>
    </g>
    <g id="xtick_13">
     <g id="line2d_62">
      <path d="M 357.048123 606.04 
L 357.048123 422.28 
" clip-path="url(#paf3ad4f026)" style="fill: none; stroke: #b0b0b0; stroke-width: 0.8; stroke-linecap: square"/>
     </g>
     <g id="line2d_63">
      <g>
       <use xlink:href="#m4230e169a1" x="357.048123" y="606.04" style="stroke: #000000; stroke-width: 0.8"/>
      </g>
     </g>
     <g id="text_23">
      <!-- 2 -->
      <g transform="translate(353.866873 620.638438) scale(0.1 -0.1)">
       <use xlink:href="#DejaVuSans-32"/>
      </g>
     </g>
    </g>
    <g id="xtick_14">
     <g id="line2d_64">
      <path d="M 486.541298 606.04 
L 486.541298 422.28 
" clip-path="url(#paf3ad4f026)" style="fill: none; stroke: #b0b0b0; stroke-width: 0.8; stroke-linecap: square"/>
     </g>
     <g id="line2d_65">
      <g>
       <use xlink:href="#m4230e169a1" x="486.541298" y="606.04" style="stroke: #000000; stroke-width: 0.8"/>
      </g>
     </g>
     <g id="text_24">
      <!-- 3 -->
      <g transform="translate(483.360048 620.638438) scale(0.1 -0.1)">
       <defs>
        <path id="DejaVuSans-33" d="M 2597 2516 
Q 3050 2419 3304 2112 
Q 3559 1806 3559 1356 
Q 3559 666 3084 287 
Q 2609 -91 1734 -91 
Q 1441 -91 1130 -33 
Q 819 25 488 141 
L 488 750 
Q 750 597 1062 519 
Q 1375 441 1716 441 
Q 2309 441 2620 675 
Q 2931 909 2931 1356 
Q 2931 1769 2642 2001 
Q 2353 2234 1838 2234 
L 1294 2234 
L 1294 2753 
L 1863 2753 
Q 2328 2753 2575 2939 
Q 2822 3125 2822 3475 
Q 2822 3834 2567 4026 
Q 2313 4219 1838 4219 
Q 1578 4219 1281 4162 
Q 984 4106 628 3988 
L 628 4550 
Q 988 4650 1302 4700 
Q 1616 4750 1894 4750 
Q 2613 4750 3031 4423 
Q 3450 4097 3450 3541 
Q 3450 3153 3228 2886 
Q 3006 2619 2597 2516 
z
" transform="scale(0.015625)"/>
       </defs>
       <use xlink:href="#DejaVuSans-33"/>
      </g>
     </g>
    </g>
    <g id="xtick_15">
     <g id="line2d_66">
      <path d="M 616.034472 606.04 
L 616.034472 422.28 
" clip-path="url(#paf3ad4f026)" style="fill: none; stroke: #b0b0b0; stroke-width: 0.8; stroke-linecap: square"/>
     </g>
     <g id="line2d_67">
      <g>
       <use xlink:href="#m4230e169a1" x="616.034472" y="606.04" style="stroke: #000000; stroke-width: 0.8"/>
      </g>
     </g>
     <g id="text_25">
      <!-- 4 -->
      <g transform="translate(612.853222 620.638438) scale(0.1 -0.1)">
       <use xlink:href="#DejaVuSans-34"/>
      </g>
     </g>
    </g>
    <g id="text_26">
     <!-- time  [s] -->
     <g transform="translate(368.099531 634.316563) scale(0.1 -0.1)">
      <use xlink:href="#DejaVuSans-74"/>
      <use xlink:href="#DejaVuSans-69" transform="translate(39.208984 0)"/>
      <use xlink:href="#DejaVuSans-6d" transform="translate(66.992188 0)"/>
      <use xlink:href="#DejaVuSans-65" transform="translate(164.404297 0)"/>
      <use xlink:href="#DejaVuSans-20" transform="translate(225.927734 0)"/>
      <use xlink:href="#DejaVuSans-20" transform="translate(257.714844 0)"/>
      <use xlink:href="#DejaVuSans-5b" transform="translate(289.501953 0)"/>
      <use xlink:href="#DejaVuSans-73" transform="translate(328.515625 0)"/>
      <use xlink:href="#DejaVuSans-5d" transform="translate(380.615234 0)"/>
     </g>
    </g>
   </g>
   <g id="matplotlib.axis_6">
    <g id="ytick_12">
     <g id="line2d_68">
      <path d="M 68.96 587.570322 
L 709.2 587.570322 
" clip-path="url(#paf3ad4f026)" style="fill: none; stroke: #b0b0b0; stroke-width: 0.8; stroke-linecap: square"/>
     </g>
     <g id="line2d_69">
      <g>
       <use xlink:href="#mb3e9998d06" x="68.96" y="587.570322" style="stroke: #000000; stroke-width: 0.8"/>
      </g>
     </g>
     <g id="text_27">
      <!-- −0.010 -->
      <g transform="translate(24.952188 591.36954) scale(0.1 -0.1)">
       <use xlink:href="#DejaVuSans-2212"/>
       <use xlink:href="#DejaVuSans-30" transform="translate(83.789062 0)"/>
       <use xlink:href="#DejaVuSans-2e" transform="translate(147.412109 0)"/>
       <use xlink:href="#DejaVuSans-30" transform="translate(179.199219 0)"/>
       <use xlink:href="#DejaVuSans-31" transform="translate(242.822266 0)"/>
       <use xlink:href="#DejaVuSans-30" transform="translate(306.445312 0)"/>
      </g>
     </g>
    </g>
    <g id="ytick_13">
     <g id="line2d_70">
      <path d="M 68.96 559.132178 
L 709.2 559.132178 
" clip-path="url(#paf3ad4f026)" style="fill: none; stroke: #b0b0b0; stroke-width: 0.8; stroke-linecap: square"/>
     </g>
     <g id="line2d_71">
      <g>
       <use xlink:href="#mb3e9998d06" x="68.96" y="559.132178" style="stroke: #000000; stroke-width: 0.8"/>
      </g>
     </g>
     <g id="text_28">
      <!-- −0.005 -->
      <g transform="translate(24.952188 562.931397) scale(0.1 -0.1)">
       <use xlink:href="#DejaVuSans-2212"/>
       <use xlink:href="#DejaVuSans-30" transform="translate(83.789062 0)"/>
       <use xlink:href="#DejaVuSans-2e" transform="translate(147.412109 0)"/>
       <use xlink:href="#DejaVuSans-30" transform="translate(179.199219 0)"/>
       <use xlink:href="#DejaVuSans-30" transform="translate(242.822266 0)"/>
       <use xlink:href="#DejaVuSans-35" transform="translate(306.445312 0)"/>
      </g>
     </g>
    </g>
    <g id="ytick_14">
     <g id="line2d_72">
      <path d="M 68.96 530.694034 
L 709.2 530.694034 
" clip-path="url(#paf3ad4f026)" style="fill: none; stroke: #b0b0b0; stroke-width: 0.8; stroke-linecap: square"/>
     </g>
     <g id="line2d_73">
      <g>
       <use xlink:href="#mb3e9998d06" x="68.96" y="530.694034" style="stroke: #000000; stroke-width: 0.8"/>
      </g>
     </g>
     <g id="text_29">
      <!-- 0.000 -->
      <g transform="translate(33.331875 534.493253) scale(0.1 -0.1)">
       <use xlink:href="#DejaVuSans-30"/>
       <use xlink:href="#DejaVuSans-2e" transform="translate(63.623047 0)"/>
       <use xlink:href="#DejaVuSans-30" transform="translate(95.410156 0)"/>
       <use xlink:href="#DejaVuSans-30" transform="translate(159.033203 0)"/>
       <use xlink:href="#DejaVuSans-30" transform="translate(222.65625 0)"/>
      </g>
     </g>
    </g>
    <g id="ytick_15">
     <g id="line2d_74">
      <path d="M 68.96 502.25589 
L 709.2 502.25589 
" clip-path="url(#paf3ad4f026)" style="fill: none; stroke: #b0b0b0; stroke-width: 0.8; stroke-linecap: square"/>
     </g>
     <g id="line2d_75">
      <g>
       <use xlink:href="#mb3e9998d06" x="68.96" y="502.25589" style="stroke: #000000; stroke-width: 0.8"/>
      </g>
     </g>
     <g id="text_30">
      <!-- 0.005 -->
      <g transform="translate(33.331875 506.055109) scale(0.1 -0.1)">
       <use xlink:href="#DejaVuSans-30"/>
       <use xlink:href="#DejaVuSans-2e" transform="translate(63.623047 0)"/>
       <use xlink:href="#DejaVuSans-30" transform="translate(95.410156 0)"/>
       <use xlink:href="#DejaVuSans-30" transform="translate(159.033203 0)"/>
       <use xlink:href="#DejaVuSans-35" transform="translate(222.65625 0)"/>
      </g>
     </g>
    </g>
    <g id="ytick_16">
     <g id="line2d_76">
      <path d="M 68.96 473.817746 
L 709.2 473.817746 
" clip-path="url(#paf3ad4f026)" style="fill: none; stroke: #b0b0b0; stroke-width: 0.8; stroke-linecap: square"/>
     </g>
     <g id="line2d_77">
      <g>
       <use xlink:href="#mb3e9998d06" x="68.96" y="473.817746" style="stroke: #000000; stroke-width: 0.8"/>
      </g>
     </g>
     <g id="text_31">
      <!-- 0.010 -->
      <g transform="translate(33.331875 477.616965) scale(0.1 -0.1)">
       <use xlink:href="#DejaVuSans-30"/>
       <use xlink:href="#DejaVuSans-2e" transform="translate(63.623047 0)"/>
       <use xlink:href="#DejaVuSans-30" transform="translate(95.410156 0)"/>
       <use xlink:href="#DejaVuSans-31" transform="translate(159.033203 0)"/>
       <use xlink:href="#DejaVuSans-30" transform="translate(222.65625 0)"/>
      </g>
     </g>
    </g>
    <g id="ytick_17">
     <g id="line2d_78">
      <path d="M 68.96 445.379602 
L 709.2 445.379602 
" clip-path="url(#paf3ad4f026)" style="fill: none; stroke: #b0b0b0; stroke-width: 0.8; stroke-linecap: square"/>
     </g>
     <g id="line2d_79">
      <g>
       <use xlink:href="#mb3e9998d06" x="68.96" y="445.379602" style="stroke: #000000; stroke-width: 0.8"/>
      </g>
     </g>
     <g id="text_32">
      <!-- 0.015 -->
      <g transform="translate(33.331875 449.178821) scale(0.1 -0.1)">
       <use xlink:href="#DejaVuSans-30"/>
       <use xlink:href="#DejaVuSans-2e" transform="translate(63.623047 0)"/>
       <use xlink:href="#DejaVuSans-30" transform="translate(95.410156 0)"/>
       <use xlink:href="#DejaVuSans-31" transform="translate(159.033203 0)"/>
       <use xlink:href="#DejaVuSans-35" transform="translate(222.65625 0)"/>
      </g>
     </g>
    </g>
    <g id="text_33">
     <!-- feedforward torque  [Nm] -->
     <g transform="translate(18.8725 578.104531) rotate(-90) scale(0.1 -0.1)">
      <defs>
       <path id="DejaVuSans-77" d="M 269 3500 
L 844 3500 
L 1563 769 
L 2278 3500 
L 2956 3500 
L 3675 769 
L 4391 3500 
L 4966 3500 
L 4050 0 
L 3372 0 
L 2619 2869 
L 1863 0 
L 1184 0 
L 269 3500 
z
" transform="scale(0.015625)"/>
       <path id="DejaVuSans-71" d="M 947 1747 
Q 947 1113 1208 752 
Q 1469 391 1925 391 
Q 2381 391 2643 752 
Q 2906 1113 2906 1747 
Q 2906 2381 2643 2742 
Q 2381 3103 1925 3103 
Q 1469 3103 1208 2742 
Q 947 2381 947 1747 
z
M 2906 525 
Q 2725 213 2448 61 
Q 2172 -91 1784 -91 
Q 1150 -91 751 415 
Q 353 922 353 1747 
Q 353 2572 751 3078 
Q 1150 3584 1784 3584 
Q 2172 3584 2448 3432 
Q 2725 3281 2906 2969 
L 2906 3500 
L 3481 3500 
L 3481 -1331 
L 2906 -1331 
L 2906 525 
z
" transform="scale(0.015625)"/>
       <path id="DejaVuSans-4e" d="M 628 4666 
L 1478 4666 
L 3547 763 
L 3547 4666 
L 4159 4666 
L 4159 0 
L 3309 0 
L 1241 3903 
L 1241 0 
L 628 0 
L 628 4666 
z
" transform="scale(0.015625)"/>
      </defs>
      <use xlink:href="#DejaVuSans-66"/>
      <use xlink:href="#DejaVuSans-65" transform="translate(35.205078 0)"/>
      <use xlink:href="#DejaVuSans-65" transform="translate(96.728516 0)"/>
      <use xlink:href="#DejaVuSans-64" transform="translate(158.251953 0)"/>
      <use xlink:href="#DejaVuSans-66" transform="translate(221.728516 0)"/>
      <use xlink:href="#DejaVuSans-6f" transform="translate(256.933594 0)"/>
      <use xlink:href="#DejaVuSans-72" transform="translate(318.115234 0)"/>
      <use xlink:href="#DejaVuSans-77" transform="translate(359.228516 0)"/>
      <use xlink:href="#DejaVuSans-61" transform="translate(441.015625 0)"/>
      <use xlink:href="#DejaVuSans-72" transform="translate(502.294922 0)"/>
      <use xlink:href="#DejaVuSans-64" transform="translate(541.658203 0)"/>
      <use xlink:href="#DejaVuSans-20" transform="translate(605.134766 0)"/>
      <use xlink:href="#DejaVuSans-74" transform="translate(636.921875 0)"/>
      <use xlink:href="#DejaVuSans-6f" transform="translate(676.130859 0)"/>
      <use xlink:href="#DejaVuSans-72" transform="translate(737.3125 0)"/>
      <use xlink:href="#DejaVuSans-71" transform="translate(776.675781 0)"/>
      <use xlink:href="#DejaVuSans-75" transform="translate(840.152344 0)"/>
      <use xlink:href="#DejaVuSans-65" transform="translate(903.53125 0)"/>
      <use xlink:href="#DejaVuSans-20" transform="translate(965.054688 0)"/>
      <use xlink:href="#DejaVuSans-20" transform="translate(996.841797 0)"/>
      <use xlink:href="#DejaVuSans-5b" transform="translate(1028.628906 0)"/>
      <use xlink:href="#DejaVuSans-4e" transform="translate(1067.642578 0)"/>
      <use xlink:href="#DejaVuSans-6d" transform="translate(1142.447266 0)"/>
      <use xlink:href="#DejaVuSans-5d" transform="translate(1239.859375 0)"/>
     </g>
    </g>
   </g>
   <g id="line2d_80">
    <path d="M 98.061888 530.694034 
L 679.903548 530.694034 
L 679.903548 530.694034 
" clip-path="url(#paf3ad4f026)" style="fill: none; stroke: #1f77b4; stroke-linecap: square"/>
   </g>
   <g id="line2d_81">
    <path d="M 98.061818 530.694034 
L 162.648368 530.694034 
L 163.569178 431.600282 
L 208.123295 430.632727 
L 209.108814 596.712652 
L 254.023187 597.687273 
L 255.118721 530.694034 
L 680.098182 530.694034 
L 680.098182 530.694034 
" clip-path="url(#paf3ad4f026)" style="fill: none; stroke: #d62728; stroke-linecap: square"/>
   </g>
   <g id="line2d_82">
    <path d="M 68.96 530.694034 
L 709.2 530.694034 
" clip-path="url(#paf3ad4f026)" style="fill: none; stroke: #000000; stroke-width: 0.5; stroke-linecap: square"/>
   </g>
   <g id="patch_15">
    <path d="M 68.96 606.04 
L 68.96 422.28 
" style="fill: none; stroke: #000000; stroke-width: 0.8; stroke-linejoin: miter; stroke-linecap: square"/>
   </g>
   <g id="patch_16">
    <path d="M 709.2 606.04 
L 709.2 422.28 
" style="fill: none; stroke: #000000; stroke-width: 0.8; stroke-linejoin: miter; stroke-linecap: square"/>
   </g>
   <g id="patch_17">
    <path d="M 68.96 606.04 
L 709.2 606.04 
" style="fill: none; stroke: #000000; stroke-width: 0.8; stroke-linejoin: miter; stroke-linecap: square"/>
   </g>
   <g id="patch_18">
    <path d="M 68.96 422.28 
L 709.2 422.28 
" style="fill: none; stroke: #000000; stroke-width: 0.8; stroke-linejoin: miter; stroke-linecap: square"/>
   </g>
   <g id="legend_3">
    <g id="patch_19">
     <path d="M 655.4075 452.165 
L 703.6 452.165 
Q 705.2 452.165 705.2 450.565 
L 705.2 427.88 
Q 705.2 426.28 703.6 426.28 
L 655.4075 426.28 
Q 653.8075 426.28 653.8075 427.88 
L 653.8075 450.565 
Q 653.8075 452.165 655.4075 452.165 
z
" style="fill: #ffffff; opacity: 0.8; stroke: #cccccc; stroke-linejoin: miter"/>
    </g>
    <g id="line2d_83">
     <path d="M 657.0075 432.75875 
L 665.0075 432.75875 
L 673.0075 432.75875 
" style="fill: none; stroke: #1f77b4; stroke-linecap: square"/>
    </g>
    <g id="text_34">
     <!-- no FF -->
     <g transform="translate(679.4075 435.55875) scale(0.08 -0.08)">
      <use xlink:href="#DejaVuSans-6e"/>
      <use xlink:href="#DejaVuSans-6f" transform="translate(63.378906 0)"/>
      <use xlink:href="#DejaVuSans-20" transform="translate(124.560547 0)"/>
      <use xlink:href="#DejaVuSans-46" transform="translate(156.347656 0)"/>
      <use xlink:href="#DejaVuSans-46" transform="translate(213.867188 0)"/>
     </g>
    </g>
    <g id="line2d_84">
     <path d="M 657.0075 444.50125 
L 665.0075 444.50125 
L 673.0075 444.50125 
" style="fill: none; stroke: #d62728; stroke-linecap: square"/>
    </g>
    <g id="text_35">
     <!-- FF ref -->
     <g transform="translate(679.4075 447.30125) scale(0.08 -0.08)">
      <use xlink:href="#DejaVuSans-46"/>
      <use xlink:href="#DejaVuSans-46" transform="translate(57.519531 0)"/>
      <use xlink:href="#DejaVuSans-20" transform="translate(115.039062 0)"/>
      <use xlink:href="#DejaVuSans-72" transform="translate(146.826172 0)"/>
      <use xlink:href="#DejaVuSans-65" transform="translate(185.689453 0)"/>
      <use xlink:href="#DejaVuSans-66" transform="translate(247.212891 0)"/>
     </g>
    </g>
   </g>
  </g>
 </g>
 <defs>
  <clipPath id="p1e3a196152">
   <rect x="68.96" y="26.16" width="640.24" height="183.76"/>
  </clipPath>
  <clipPath id="p586cc0faed">
   <rect x="68.96" y="224.22" width="640.24" height="183.76"/>
  </clipPath>
  <clipPath id="paf3ad4f026">
   <rect x="68.96" y="422.28" width="640.24" height="183.76"/>
  </clipPath>
 </defs>
</svg>
