<?xml version="1.0" encoding="utf-8" standalone="no"?>
<!DOCTYPE svg PUBLIC "-//W3C//DTD SVG 1.1//EN"
  "http://www.w3.org/Graphics/SVG/1.1/DTD/svg11.dtd">
<svg xmlns:xlink="http://www.w3.org/1999/xlink" width="504pt" height="360pt" viewBox="0 0 504 360" xmlns="http://www.w3.org/2000/svg" version="1.1">
 <metadata>
  <rdf:RDF xmlns:dc="http://purl.org/dc/elements/1.1/" xmlns:cc="http://creativecommons.org/ns#" xmlns:rdf="http://www.w3.org/1999/02/22-rdf-syntax-ns#">
   <cc:Work>
    <dc:type rdf:resource="http://purl.org/dc/dcmitype/StillImage"/>
    <dc:date>2026-06-19T10:18:12.304842</dc:date>
    <dc:format>image/svg+xml</dc:format>
    <dc:creator>
     <cc:Agent>
      <dc:title>Matplotlib v3.10.9, https://matplotlib.org/</dc:title>
     </cc:Agent>
    </dc:creator>
   </cc:Work>
  </rdf:RDF>
 </metadata>
 <defs>
  <style type="text/css">*{stroke-linejoin: round; stroke-linecap: butt}</style>
 </defs>
 <g id="figure_1">
  <g id="patch_1">
   <path d="M 0 360 
L 504 360 
L 504 0 
L 0 0 
z
" style="fill: #ffffff"/>
  </g>
  <g id="axes_1">
   <g id="patch_2">
    <path d="M 62.57 318.04 
L 493.2 318.04 
L 493.2 26.16 
L 62.57 26.16 
z
" style="fill: #ffffff"/>
   </g>
   <g id="patch_3">
    <path d="M 82.144091 304.772727 
L 83.566055 304.772727 
L 83.566055 290.841741 
L 82.144091 290.841741 
z
" clip-path="url(#p4411fcb5e4)" style="fill: #4682b4; opacity: 0.25"/>
   </g>
   <g id="patch_4">
    <path d="M 93.562395 295.496861 
L 94.981155 295.496861 
L 94.981155 280.89919 
L 93.562395 280.89919 
z
" clip-path="url(#p4411fcb5e4)" style="fill: #4682b4; opacity: 0.25"/>
   </g>
   <g id="patch_5">
    <path d="M 104.869185 284.843122 
L 106.205692 284.843122 
L 106.205692 270.853122 
L 104.869185 270.853122 
z
" clip-path="url(#p4411fcb5e4)" style="fill: #4682b4; opacity: 0.25"/>
   </g>
   <g id="patch_6">
    <path d="M 116.32077 276.11988 
L 117.591728 276.11988 
L 117.591728 263.020023 
L 116.32077 263.020023 
z
" clip-path="url(#p4411fcb5e4)" style="fill: #4682b4; opacity: 0.25"/>
   </g>
   <g id="patch_7">
    <path d="M 127.644204 268.372849 
L 128.96598 268.372849 
L 128.96598 254.347066 
L 127.644204 254.347066 
z
" clip-path="url(#p4411fcb5e4)" style="fill: #4682b4; opacity: 0.25"/>
   </g>
   <g id="patch_8">
    <path d="M 139.063313 259.079003 
L 140.285535 259.079003 
L 140.285535 245.822826 
L 139.063313 245.822826 
z
" clip-path="url(#p4411fcb5e4)" style="fill: #4682b4; opacity: 0.25"/>
   </g>
   <g id="patch_9">
    <path d="M 150.399954 251.339385 
L 151.753332 251.339385 
L 151.753332 237.173608 
L 150.399954 237.173608 
z
" clip-path="url(#p4411fcb5e4)" style="fill: #4682b4; opacity: 0.25"/>
   </g>
   <g id="patch_10">
    <path d="M 161.695343 245.557895 
L 163.219396 245.557895 
L 163.219396 228.979765 
L 161.695343 228.979765 
z
" clip-path="url(#p4411fcb5e4)" style="fill: #4682b4; opacity: 0.25"/>
   </g>
   <g id="patch_11">
    <path d="M 173.179458 235.654277 
L 174.249843 235.654277 
L 174.249843 222.806472 
L 173.179458 222.806472 
z
" clip-path="url(#p4411fcb5e4)" style="fill: #4682b4; opacity: 0.25"/>
   </g>
   <g id="patch_12">
    <path d="M 184.633486 230.337 
L 185.704978 230.337 
L 185.704978 217.265718 
L 184.633486 217.265718 
z
" clip-path="url(#p4411fcb5e4)" style="fill: #4682b4; opacity: 0.25"/>
   </g>
   <g id="patch_13">
    <path d="M 196.062634 223.70265 
L 196.973273 223.70265 
L 196.973273 211.458874 
L 196.062634 211.458874 
z
" clip-path="url(#p4411fcb5e4)" style="fill: #4682b4; opacity: 0.25"/>
   </g>
   <g id="patch_14">
    <path d="M 207.462533 218.356659 
L 208.280846 218.356659 
L 208.280846 205.332512 
L 207.462533 205.332512 
z
" clip-path="url(#p4411fcb5e4)" style="fill: #4682b4; opacity: 0.25"/>
   </g>
   <g id="patch_15">
    <path d="M 218.802213 212.378727 
L 219.610929 212.378727 
L 219.610929 199.480481 
L 218.802213 199.480481 
z
" clip-path="url(#p4411fcb5e4)" style="fill: #4682b4; opacity: 0.25"/>
   </g>
   <g id="patch_16">
    <path d="M 230.268366 208.755327 
L 230.85709 208.755327 
L 230.85709 194.932629 
L 230.268366 194.932629 
z
" clip-path="url(#p4411fcb5e4)" style="fill: #4682b4; opacity: 0.25"/>
   </g>
   <g id="patch_17">
    <path d="M 241.644729 204.495921 
L 242.260725 204.495921 
L 242.260725 190.410796 
L 241.644729 190.410796 
z
" clip-path="url(#p4411fcb5e4)" style="fill: #4682b4; opacity: 0.25"/>
   </g>
   <g id="patch_18">
    <path d="M 252.970185 200.459621 
L 253.612203 200.459621 
L 253.612203 185.272165 
L 252.970185 185.272165 
z
" clip-path="url(#p4411fcb5e4)" style="fill: #4682b4; opacity: 0.25"/>
   </g>
   <g id="patch_19">
    <path d="M 264.341958 196.253366 
L 265.073319 196.253366 
L 265.073319 183.069373 
L 264.341958 183.069373 
z
" clip-path="url(#p4411fcb5e4)" style="fill: #4682b4; opacity: 0.25"/>
   </g>
   <g id="patch_20">
    <path d="M 275.405744 195.195548 
L 276.522357 195.195548 
L 276.522357 179.090809 
L 275.405744 179.090809 
z
" clip-path="url(#p4411fcb5e4)" style="fill: #4682b4; opacity: 0.25"/>
   </g>
   <g id="patch_21">
    <path d="M 279.342439 160.31624 
L 280.203771 160.31624 
L 280.203771 146.570338 
L 279.342439 146.570338 
z
" clip-path="url(#p4411fcb5e4)" style="fill: #4682b4; opacity: 0.25"/>
   </g>
   <g id="patch_22">
    <path d="M 290.672172 159.953445 
L 291.377625 159.953445 
L 291.377625 145.985598 
L 290.672172 145.985598 
z
" clip-path="url(#p4411fcb5e4)" style="fill: #4682b4; opacity: 0.25"/>
   </g>
   <g id="patch_23">
    <path d="M 302.11705 157.21793 
L 302.725093 157.21793 
L 302.725093 142.25849 
L 302.11705 142.25849 
z
" clip-path="url(#p4411fcb5e4)" style="fill: #4682b4; opacity: 0.25"/>
   </g>
   <g id="patch_24">
    <path d="M 313.468286 152.82939 
L 314.227059 152.82939 
L 314.227059 139.035939 
L 313.468286 139.035939 
z
" clip-path="url(#p4411fcb5e4)" style="fill: #4682b4; opacity: 0.25"/>
   </g>
   <g id="patch_25">
    <path d="M 324.761688 147.598263 
L 325.49181 147.598263 
L 325.49181 134.831849 
L 324.761688 134.831849 
z
" clip-path="url(#p4411fcb5e4)" style="fill: #4682b4; opacity: 0.25"/>
   </g>
   <g id="patch_26">
    <path d="M 335.656618 143.321462 
L 336.94544 143.321462 
L 336.94544 126.377795 
L 335.656618 126.377795 
z
" clip-path="url(#p4411fcb5e4)" style="fill: #4682b4; opacity: 0.25"/>
   </g>
   <g id="patch_27">
    <path d="M 347.320939 138.11614 
L 348.347296 138.11614 
L 348.347296 124.060719 
L 347.320939 124.060719 
z
" clip-path="url(#p4411fcb5e4)" style="fill: #4682b4; opacity: 0.25"/>
   </g>
   <g id="patch_28">
    <path d="M 358.636572 132.264957 
L 359.746916 132.264957 
L 359.746916 118.929141 
L 358.636572 118.929141 
z
" clip-path="url(#p4411fcb5e4)" style="fill: #4682b4; opacity: 0.25"/>
   </g>
   <g id="patch_29">
    <path d="M 369.889026 125.449126 
L 371.055143 125.449126 
L 371.055143 112.594122 
L 369.889026 112.594122 
z
" clip-path="url(#p4411fcb5e4)" style="fill: #4682b4; opacity: 0.25"/>
   </g>
   <g id="patch_30">
    <path d="M 381.243211 120.458259 
L 382.549356 120.458259 
L 382.549356 105.321431 
L 381.243211 105.321431 
z
" clip-path="url(#p4411fcb5e4)" style="fill: #4682b4; opacity: 0.25"/>
   </g>
   <g id="patch_31">
    <path d="M 392.669261 115.846888 
L 394.121099 115.846888 
L 394.121099 101.216647 
L 392.669261 101.216647 
z
" clip-path="url(#p4411fcb5e4)" style="fill: #4682b4; opacity: 0.25"/>
   </g>
   <g id="patch_32">
    <path d="M 403.864832 106.194984 
L 405.35531 106.194984 
L 405.35531 91.135375 
L 403.864832 91.135375 
z
" clip-path="url(#p4411fcb5e4)" style="fill: #4682b4; opacity: 0.25"/>
   </g>
   <g id="patch_33">
    <path d="M 415.301841 99.813784 
L 416.735668 99.813784 
L 416.735668 85.256222 
L 415.301841 85.256222 
z
" clip-path="url(#p4411fcb5e4)" style="fill: #4682b4; opacity: 0.25"/>
   </g>
   <g id="patch_34">
    <path d="M 426.59092 91.242234 
L 428.151269 91.242234 
L 428.151269 75.395267 
L 426.59092 75.395267 
z
" clip-path="url(#p4411fcb5e4)" style="fill: #4682b4; opacity: 0.25"/>
   </g>
   <g id="patch_35">
    <path d="M 437.970977 83.016596 
L 439.518724 83.016596 
L 439.518724 67.441544 
L 437.970977 67.441544 
z
" clip-path="url(#p4411fcb5e4)" style="fill: #4682b4; opacity: 0.25"/>
   </g>
   <g id="patch_36">
    <path d="M 449.302389 73.58021 
L 450.873618 73.58021 
L 450.873618 57.983174 
L 449.302389 57.983174 
z
" clip-path="url(#p4411fcb5e4)" style="fill: #4682b4; opacity: 0.25"/>
   </g>
   <g id="patch_37">
    <path d="M 460.548799 63.651284 
L 462.281586 63.651284 
L 462.281586 47.021798 
L 460.548799 47.021798 
z
" clip-path="url(#p4411fcb5e4)" style="fill: #4682b4; opacity: 0.25"/>
   </g>
   <g id="patch_38">
    <path d="M 471.984872 55.51114 
L 473.625909 55.51114 
L 473.625909 39.427273 
L 471.984872 39.427273 
z
" clip-path="url(#p4411fcb5e4)" style="fill: #4682b4; opacity: 0.25"/>
   </g>
   <g id="matplotlib.axis_1">
    <g id="xtick_1">
     <g id="line2d_1">
      <path d="M 95.079483 318.04 
L 95.079483 26.16 
" clip-path="url(#p4411fcb5e4)" style="fill: none; stroke: #b0b0b0; stroke-width: 0.8; stroke-linecap: square"/>
     </g>
     <g id="line2d_2">
      <defs>
       <path id="mf84b055ffe" d="M 0 0 
L 0 3.5 
" style="stroke: #000000; stroke-width: 0.8"/>
      </defs>
      <g>
       <use xlink:href="#mf84b055ffe" x="95.079483" y="318.04" style="stroke: #000000; stroke-width: 0.8"/>
      </g>
     </g>
     <g id="text_1">
      <!-- −30 -->
      <g transform="translate(84.527139 332.638438) scale(0.1 -0.1)">
       <defs>
        <path id="DejaVuSans-2212" d="M 678 2272 
L 4684 2272 
L 4684 1741 
L 678 1741 
L 678 2272 
z
" transform="scale(0.015625)"/>
        <path id="DejaVuSans-33" d="M 2597 2516 
Q 3050 2419 3304 2112 
Q 3559 1806 3559 1356 
Q 3559 666 3084 287 
Q 2609 -91 1734 -91 
Q 1441 -91 1130 -33 
Q 819 25 488 141 
L 488 750 
Q 750 597 1062 519 
Q 1375 441 1716 441 
Q 2309 441 2620 675 
Q 2931 909 2931 1356 
Q 2931 1769 2642 2001 
Q 2353 2234 1838 2234 
L 1294 2234 
L 1294 2753 
L 1863 2753 
Q 2328 2753 2575 2939 
Q 2822 3125 2822 3475 
Q 2822 3834 2567 4026 
Q 2313 4219 1838 4219 
Q 1578 4219 1281 4162 
Q 984 4106 628 3988 
L 628 4550 
Q 988 4650 1302 4700 
Q 1616 4750 1894 4750 
Q 2613 4750 3031 4423 
Q 3450 4097 3450 3541 
Q 3450 3153 3228 2886 
Q 3006 2619 2597 2516 
z
" transform="scale(0.015625)"/>
        <path id="DejaVuSans-30" d="M 2034 4250 
Q 1547 4250 1301 3770 
Q 1056 3291 1056 2328 
Q 1056 1369 1301 889 
Q 1547 409 2034 409 
Q 2525 409 2770 889 
Q 3016 1369 3016 2328 
Q 3016 3291 2770 3770 
Q 2525 4250 2034 4250 
z
M 2034 4750 
Q 2819 4750 3233 4129 
Q 3647 3509 3647 2328 
Q 3647 1150 3233 529 
Q 2819 -91 2034 -91 
Q 1250 -91 836 529 
Q 422 1150 422 2328 
Q 422 3509 836 4129 
Q 1250 4750 2034 4750 
z
" transform="scale(0.015625)"/>
       </defs>
       <use xlink:href="#DejaVuSans-2212"/>
       <use xlink:href="#DejaVuSans-33" transform="translate(83.789062 0)"/>
       <use xlink:href="#DejaVuSans-30" transform="translate(147.412109 0)"/>
      </g>
     </g>
    </g>
    <g id="xtick_2">
     <g id="line2d_3">
      <path d="M 155.99811 318.04 
L 155.99811 26.16 
" clip-path="url(#p4411fcb5e4)" style="fill: none; stroke: #b0b0b0; stroke-width: 0.8; stroke-linecap: square"/>
     </g>
     <g id="line2d_4">
      <g>
       <use xlink:href="#mf84b055ffe" x="155.99811" y="318.04" style="stroke: #000000; stroke-width: 0.8"/>
      </g>
     </g>
     <g id="text_2">
      <!-- −20 -->
      <g transform="translate(145.445766 332.638438) scale(0.1 -0.1)">
       <defs>
        <path id="DejaVuSans-32" d="M 1228 531 
L 3431 531 
L 3431 0 
L 469 0 
L 469 531 
Q 828 903 1448 1529 
Q 2069 2156 2228 2338 
Q 2531 2678 2651 2914 
Q 2772 3150 2772 3378 
Q 2772 3750 2511 3984 
Q 2250 4219 1831 4219 
Q 1534 4219 1204 4116 
Q 875 4013 500 3803 
L 500 4441 
Q 881 4594 1212 4672 
Q 1544 4750 1819 4750 
Q 2544 4750 2975 4387 
Q 3406 4025 3406 3419 
Q 3406 3131 3298 2873 
Q 3191 2616 2906 2266 
Q 2828 2175 2409 1742 
Q 1991 1309 1228 531 
z
" transform="scale(0.015625)"/>
       </defs>
       <use xlink:href="#DejaVuSans-2212"/>
       <use xlink:href="#DejaVuSans-32" transform="translate(83.789062 0)"/>
       <use xlink:href="#DejaVuSans-30" transform="translate(147.412109 0)"/>
      </g>
     </g>
    </g>
    <g id="xtick_3">
     <g id="line2d_5">
      <path d="M 216.916737 318.04 
L 216.916737 26.16 
" clip-path="url(#p4411fcb5e4)" style="fill: none; stroke: #b0b0b0; stroke-width: 0.8; stroke-linecap: square"/>
     </g>
     <g id="line2d_6">
      <g>
       <use xlink:href="#mf84b055ffe" x="216.916737" y="318.04" style="stroke: #000000; stroke-width: 0.8"/>
      </g>
     </g>
     <g id="text_3">
      <!-- −10 -->
      <g transform="translate(206.364393 332.638438) scale(0.1 -0.1)">
       <defs>
        <path id="DejaVuSans-31" d="M 794 531 
L 1825 531 
L 1825 4091 
L 703 3866 
L 703 4441 
L 1819 4666 
L 2450 4666 
L 2450 531 
L 3481 531 
L 3481 0 
L 794 0 
L 794 531 
z
" transform="scale(0.015625)"/>
       </defs>
       <use xlink:href="#DejaVuSans-2212"/>
       <use xlink:href="#DejaVuSans-31" transform="translate(83.789062 0)"/>
       <use xlink:href="#DejaVuSans-30" transform="translate(147.412109 0)"/>
      </g>
     </g>
    </g>
    <g id="xtick_4">
     <g id="line2d_7">
      <path d="M 277.835364 318.04 
L 277.835364 26.16 
" clip-path="url(#p4411fcb5e4)" style="fill: none; stroke: #b0b0b0; stroke-width: 0.8; stroke-linecap: square"/>
     </g>
     <g id="line2d_8">
      <g>
       <use xlink:href="#mf84b055ffe" x="277.835364" y="318.04" style="stroke: #000000; stroke-width: 0.8"/>
      </g>
     </g>
     <g id="text_4">
      <!-- 0 -->
      <g transform="translate(274.654114 332.638438) scale(0.1 -0.1)">
       <use xlink:href="#DejaVuSans-30"/>
      </g>
     </g>
    </g>
    <g id="xtick_5">
     <g id="line2d_9">
      <path d="M 338.753991 318.04 
L 338.753991 26.16 
" clip-path="url(#p4411fcb5e4)" style="fill: none; stroke: #b0b0b0; stroke-width: 0.8; stroke-linecap: square"/>
     </g>
     <g id="line2d_10">
      <g>
       <use xlink:href="#mf84b055ffe" x="338.753991" y="318.04" style="stroke: #000000; stroke-width: 0.8"/>
      </g>
     </g>
     <g id="text_5">
      <!-- 10 -->
      <g transform="translate(332.391491 332.638438) scale(0.1 -0.1)">
       <use xlink:href="#DejaVuSans-31"/>
       <use xlink:href="#DejaVuSans-30" transform="translate(63.623047 0)"/>
      </g>
     </g>
    </g>
    <g id="xtick_6">
     <g id="line2d_11">
      <path d="M 399.672618 318.04 
L 399.672618 26.16 
" clip-path="url(#p4411fcb5e4)" style="fill: none; stroke: #b0b0b0; stroke-width: 0.8; stroke-linecap: square"/>
     </g>
     <g id="line2d_12">
      <g>
       <use xlink:href="#mf84b055ffe" x="399.672618" y="318.04" style="stroke: #000000; stroke-width: 0.8"/>
      </g>
     </g>
     <g id="text_6">
      <!-- 20 -->
      <g transform="translate(393.310118 332.638438) scale(0.1 -0.1)">
       <use xlink:href="#DejaVuSans-32"/>
       <use xlink:href="#DejaVuSans-30" transform="translate(63.623047 0)"/>
      </g>
     </g>
    </g>
    <g id="xtick_7">
     <g id="line2d_13">
      <path d="M 460.591245 318.04 
L 460.591245 26.16 
" clip-path="url(#p4411fcb5e4)" style="fill: none; stroke: #b0b0b0; stroke-width: 0.8; stroke-linecap: square"/>
     </g>
     <g id="line2d_14">
      <g>
       <use xlink:href="#mf84b055ffe" x="460.591245" y="318.04" style="stroke: #000000; stroke-width: 0.8"/>
      </g>
     </g>
     <g id="text_7">
      <!-- 30 -->
      <g transform="translate(454.228745 332.638438) scale(0.1 -0.1)">
       <use xlink:href="#DejaVuSans-33"/>
       <use xlink:href="#DejaVuSans-30" transform="translate(63.623047 0)"/>
      </g>
     </g>
    </g>
    <g id="text_8">
     <!-- speed  [rev/s] -->
     <g transform="translate(243.431094 346.316563) scale(0.1 -0.1)">
      <defs>
       <path id="DejaVuSans-73" d="M 2834 3397 
L 2834 2853 
Q 2591 2978 2328 3040 
Q 2066 3103 1784 3103 
Q 1356 3103 1142 2972 
Q 928 2841 928 2578 
Q 928 2378 1081 2264 
Q 1234 2150 1697 2047 
L 1894 2003 
Q 2506 1872 2764 1633 
Q 3022 1394 3022 966 
Q 3022 478 2636 193 
Q 2250 -91 1575 -91 
Q 1294 -91 989 -36 
Q 684 19 347 128 
L 347 722 
Q 666 556 975 473 
Q 1284 391 1588 391 
Q 1994 391 2212 530 
Q 2431 669 2431 922 
Q 2431 1156 2273 1281 
Q 2116 1406 1581 1522 
L 1381 1569 
Q 847 1681 609 1914 
Q 372 2147 372 2553 
Q 372 3047 722 3315 
Q 1072 3584 1716 3584 
Q 2034 3584 2315 3537 
Q 2597 3491 2834 3397 
z
" transform="scale(0.015625)"/>
       <path id="DejaVuSans-70" d="M 1159 525 
L 1159 -1331 
L 581 -1331 
L 581 3500 
L 1159 3500 
L 1159 2969 
Q 1341 3281 1617 3432 
Q 1894 3584 2278 3584 
Q 2916 3584 3314 3078 
Q 3713 2572 3713 1747 
Q 3713 922 3314 415 
Q 2916 -91 2278 -91 
Q 1894 -91 1617 61 
Q 1341 213 1159 525 
z
M 3116 1747 
Q 3116 2381 2855 2742 
Q 2594 3103 2138 3103 
Q 1681 3103 1420 2742 
Q 1159 2381 1159 1747 
Q 1159 1113 1420 752 
Q 1681 391 2138 391 
Q 2594 391 2855 752 
Q 3116 1113 3116 1747 
z
" transform="scale(0.015625)"/>
       <path id="DejaVuSans-65" d="M 3597 1894 
L 3597 1613 
L 953 1613 
Q 991 1019 1311 708 
Q 1631 397 2203 397 
Q 2534 397 2845 478 
Q 3156 559 3463 722 
L 3463 178 
Q 3153 47 2828 -22 
Q 2503 -91 2169 -91 
Q 1331 -91 842 396 
Q 353 884 353 1716 
Q 353 2575 817 3079 
Q 1281 3584 2069 3584 
Q 2775 3584 3186 3129 
Q 3597 2675 3597 1894 
z
M 3022 2063 
Q 3016 2534 2758 2815 
Q 2500 3097 2075 3097 
Q 1594 3097 1305 2825 
Q 1016 2553 972 2059 
L 3022 2063 
z
" transform="scale(0.015625)"/>
       <path id="DejaVuSans-64" d="M 2906 2969 
L 2906 4863 
L 3481 4863 
L 3481 0 
L 2906 0 
L 2906 525 
Q 2725 213 2448 61 
Q 2172 -91 1784 -91 
Q 1150 -91 751 415 
Q 353 922 353 1747 
Q 353 2572 751 3078 
Q 1150 3584 1784 3584 
Q 2172 3584 2448 3432 
Q 2725 3281 2906 2969 
z
M 947 1747 
Q 947 1113 1208 752 
Q 1469 391 1925 391 
Q 2381 391 2643 752 
Q 2906 1113 2906 1747 
Q 2906 2381 2643 2742 
Q 2381 3103 1925 3103 
Q 1469 3103 1208 2742 
Q 947 2381 947 1747 
z
" transform="scale(0.015625)"/>
       <path id="DejaVuSans-20" transform="scale(0.015625)"/>
       <path id="DejaVuSans-5b" d="M 550 4863 
L 1875 4863 
L 1875 4416 
L 1125 4416 
L 1125 -397 
L 1875 -397 
L 1875 -844 
L 550 -844 
L 550 4863 
z
" transform="scale(0.015625)"/>
       <path id="DejaVuSans-72" d="M 2631 2963 
Q 2534 3019 2420 3045 
Q 2306 3072 2169 3072 
Q 1681 3072 1420 2755 
Q 1159 2438 1159 1844 
L 1159 0 
L 581 0 
L 581 3500 
L 1159 3500 
L 1159 2956 
Q 1341 3275 1631 3429 
Q 1922 3584 2338 3584 
Q 2397 3584 2469 3576 
Q 2541 3569 2628 3553 
L 2631 2963 
z
" transform="scale(0.015625)"/>
       <path id="DejaVuSans-76" d="M 191 3500 
L 800 3500 
L 1894 563 
L 2988 3500 
L 3597 3500 
L 2284 0 
L 1503 0 
L 191 3500 
z
" transform="scale(0.015625)"/>
       <path id="DejaVuSans-2f" d="M 1625 4666 
L 2156 4666 
L 531 -594 
L 0 -594 
L 1625 4666 
z
" transform="scale(0.015625)"/>
       <path id="DejaVuSans-5d" d="M 1947 4863 
L 1947 -844 
L 622 -844 
L 622 -397 
L 1369 -397 
L 1369 4416 
L 622 4416 
L 622 4863 
L 1947 4863 
z
" transform="scale(0.015625)"/>
      </defs>
      <use xlink:href="#DejaVuSans-73"/>
      <use xlink:href="#DejaVuSans-70" transform="translate(52.099609 0)"/>
      <use xlink:href="#DejaVuSans-65" transform="translate(115.576172 0)"/>
      <use xlink:href="#DejaVuSans-65" transform="translate(177.099609 0)"/>
      <use xlink:href="#DejaVuSans-64" transform="translate(238.623047 0)"/>
      <use xlink:href="#DejaVuSans-20" transform="translate(302.099609 0)"/>
      <use xlink:href="#DejaVuSans-20" transform="translate(333.886719 0)"/>
      <use xlink:href="#DejaVuSans-5b" transform="translate(365.673828 0)"/>
      <use xlink:href="#DejaVuSans-72" transform="translate(404.6875 0)"/>
      <use xlink:href="#DejaVuSans-65" transform="translate(443.550781 0)"/>
      <use xlink:href="#DejaVuSans-76" transform="translate(505.074219 0)"/>
      <use xlink:href="#DejaVuSans-2f" transform="translate(564.253906 0)"/>
      <use xlink:href="#DejaVuSans-73" transform="translate(597.945312 0)"/>
      <use xlink:href="#DejaVuSans-5d" transform="translate(650.044922 0)"/>
     </g>
    </g>
   </g>
   <g id="matplotlib.axis_2">
    <g id="ytick_1">
     <g id="line2d_15">
      <path d="M 62.57 293.686414 
L 493.2 293.686414 
" clip-path="url(#p4411fcb5e4)" style="fill: none; stroke: #b0b0b0; stroke-width: 0.8; stroke-linecap: square"/>
     </g>
     <g id="line2d_16">
      <defs>
       <path id="mb5358a7607" d="M 0 0 
L -3.5 0 
" style="stroke: #000000; stroke-width: 0.8"/>
      </defs>
      <g>
       <use xlink:href="#mb5358a7607" x="62.57" y="293.686414" style="stroke: #000000; stroke-width: 0.8"/>
      </g>
     </g>
     <g id="text_9">
      <!-- −0.06 -->
      <g transform="translate(24.924688 297.485632) scale(0.1 -0.1)">
       <defs>
        <path id="DejaVuSans-2e" d="M 684 794 
L 1344 794 
L 1344 0 
L 684 0 
L 684 794 
z
" transform="scale(0.015625)"/>
        <path id="DejaVuSans-36" d="M 2113 2584 
Q 1688 2584 1439 2293 
Q 1191 2003 1191 1497 
Q 1191 994 1439 701 
Q 1688 409 2113 409 
Q 2538 409 2786 701 
Q 3034 994 3034 1497 
Q 3034 2003 2786 2293 
Q 2538 2584 2113 2584 
z
M 3366 4563 
L 3366 3988 
Q 3128 4100 2886 4159 
Q 2644 4219 2406 4219 
Q 1781 4219 1451 3797 
Q 1122 3375 1075 2522 
Q 1259 2794 1537 2939 
Q 1816 3084 2150 3084 
Q 2853 3084 3261 2657 
Q 3669 2231 3669 1497 
Q 3669 778 3244 343 
Q 2819 -91 2113 -91 
Q 1303 -91 875 529 
Q 447 1150 447 2328 
Q 447 3434 972 4092 
Q 1497 4750 2381 4750 
Q 2619 4750 2861 4703 
Q 3103 4656 3366 4563 
z
" transform="scale(0.015625)"/>
       </defs>
       <use xlink:href="#DejaVuSans-2212"/>
       <use xlink:href="#DejaVuSans-30" transform="translate(83.789062 0)"/>
       <use xlink:href="#DejaVuSans-2e" transform="translate(147.412109 0)"/>
       <use xlink:href="#DejaVuSans-30" transform="translate(179.199219 0)"/>
       <use xlink:href="#DejaVuSans-36" transform="translate(242.822266 0)"/>
      </g>
     </g>
    </g>
    <g id="ytick_2">
     <g id="line2d_17">
      <path d="M 62.57 252.948533 
L 493.2 252.948533 
" clip-path="url(#p4411fcb5e4)" style="fill: none; stroke: #b0b0b0; stroke-width: 0.8; stroke-linecap: square"/>
     </g>
     <g id="line2d_18">
      <g>
       <use xlink:href="#mb5358a7607" x="62.57" y="252.948533" style="stroke: #000000; stroke-width: 0.8"/>
      </g>
     </g>
     <g id="text_10">
      <!-- −0.04 -->
      <g transform="translate(24.924688 256.747752) scale(0.1 -0.1)">
       <defs>
        <path id="DejaVuSans-34" d="M 2419 4116 
L 825 1625 
L 2419 1625 
L 2419 4116 
z
M 2253 4666 
L 3047 4666 
L 3047 1625 
L 3713 1625 
L 3713 1100 
L 3047 1100 
L 3047 0 
L 2419 0 
L 2419 1100 
L 313 1100 
L 313 1709 
L 2253 4666 
z
" transform="scale(0.015625)"/>
       </defs>
       <use xlink:href="#DejaVuSans-2212"/>
       <use xlink:href="#DejaVuSans-30" transform="translate(83.789062 0)"/>
       <use xlink:href="#DejaVuSans-2e" transform="translate(147.412109 0)"/>
       <use xlink:href="#DejaVuSans-30" transform="translate(179.199219 0)"/>
       <use xlink:href="#DejaVuSans-34" transform="translate(242.822266 0)"/>
      </g>
     </g>
    </g>
    <g id="ytick_3">
     <g id="line2d_19">
      <path d="M 62.57 212.210653 
L 493.2 212.210653 
" clip-path="url(#p4411fcb5e4)" style="fill: none; stroke: #b0b0b0; stroke-width: 0.8; stroke-linecap: square"/>
     </g>
     <g id="line2d_20">
      <g>
       <use xlink:href="#mb5358a7607" x="62.57" y="212.210653" style="stroke: #000000; stroke-width: 0.8"/>
      </g>
     </g>
     <g id="text_11">
      <!-- −0.02 -->
      <g transform="translate(24.924688 216.009872) scale(0.1 -0.1)">
       <use xlink:href="#DejaVuSans-2212"/>
       <use xlink:href="#DejaVuSans-30" transform="translate(83.789062 0)"/>
       <use xlink:href="#DejaVuSans-2e" transform="translate(147.412109 0)"/>
       <use xlink:href="#DejaVuSans-30" transform="translate(179.199219 0)"/>
       <use xlink:href="#DejaVuSans-32" transform="translate(242.822266 0)"/>
      </g>
     </g>
    </g>
    <g id="ytick_4">
     <g id="line2d_21">
      <path d="M 62.57 171.472773 
L 493.2 171.472773 
" clip-path="url(#p4411fcb5e4)" style="fill: none; stroke: #b0b0b0; stroke-width: 0.8; stroke-linecap: square"/>
     </g>
     <g id="line2d_22">
      <g>
       <use xlink:href="#mb5358a7607" x="62.57" y="171.472773" style="stroke: #000000; stroke-width: 0.8"/>
      </g>
     </g>
     <g id="text_12">
      <!-- 0.00 -->
      <g transform="translate(33.304375 175.271991) scale(0.1 -0.1)">
       <use xlink:href="#DejaVuSans-30"/>
       <use xlink:href="#DejaVuSans-2e" transform="translate(63.623047 0)"/>
       <use xlink:href="#DejaVuSans-30" transform="translate(95.410156 0)"/>
       <use xlink:href="#DejaVuSans-30" transform="translate(159.033203 0)"/>
      </g>
     </g>
    </g>
    <g id="ytick_5">
     <g id="line2d_23">
      <path d="M 62.57 130.734892 
L 493.2 130.734892 
" clip-path="url(#p4411fcb5e4)" style="fill: none; stroke: #b0b0b0; stroke-width: 0.8; stroke-linecap: square"/>
     </g>
     <g id="line2d_24">
      <g>
       <use xlink:href="#mb5358a7607" x="62.57" y="130.734892" style="stroke: #000000; stroke-width: 0.8"/>
      </g>
     </g>
     <g id="text_13">
      <!-- 0.02 -->
      <g transform="translate(33.304375 134.534111) scale(0.1 -0.1)">
       <use xlink:href="#DejaVuSans-30"/>
       <use xlink:href="#DejaVuSans-2e" transform="translate(63.623047 0)"/>
       <use xlink:href="#DejaVuSans-30" transform="translate(95.410156 0)"/>
       <use xlink:href="#DejaVuSans-32" transform="translate(159.033203 0)"/>
      </g>
     </g>
    </g>
    <g id="ytick_6">
     <g id="line2d_25">
      <path d="M 62.57 89.997012 
L 493.2 89.997012 
" clip-path="url(#p4411fcb5e4)" style="fill: none; stroke: #b0b0b0; stroke-width: 0.8; stroke-linecap: square"/>
     </g>
     <g id="line2d_26">
      <g>
       <use xlink:href="#mb5358a7607" x="62.57" y="89.997012" style="stroke: #000000; stroke-width: 0.8"/>
      </g>
     </g>
     <g id="text_14">
      <!-- 0.04 -->
      <g transform="translate(33.304375 93.796231) scale(0.1 -0.1)">
       <use xlink:href="#DejaVuSans-30"/>
       <use xlink:href="#DejaVuSans-2e" transform="translate(63.623047 0)"/>
       <use xlink:href="#DejaVuSans-30" transform="translate(95.410156 0)"/>
       <use xlink:href="#DejaVuSans-34" transform="translate(159.033203 0)"/>
      </g>
     </g>
    </g>
    <g id="ytick_7">
     <g id="line2d_27">
      <path d="M 62.57 49.259132 
L 493.2 49.259132 
" clip-path="url(#p4411fcb5e4)" style="fill: none; stroke: #b0b0b0; stroke-width: 0.8; stroke-linecap: square"/>
     </g>
     <g id="line2d_28">
      <g>
       <use xlink:href="#mb5358a7607" x="62.57" y="49.259132" style="stroke: #000000; stroke-width: 0.8"/>
      </g>
     </g>
     <g id="text_15">
      <!-- 0.06 -->
      <g transform="translate(33.304375 53.05835) scale(0.1 -0.1)">
       <use xlink:href="#DejaVuSans-30"/>
       <use xlink:href="#DejaVuSans-2e" transform="translate(63.623047 0)"/>
       <use xlink:href="#DejaVuSans-30" transform="translate(95.410156 0)"/>
       <use xlink:href="#DejaVuSans-36" transform="translate(159.033203 0)"/>
      </g>
     </g>
    </g>
    <g id="text_16">
     <!-- holding torque  [Nm] -->
     <g transform="translate(18.845 224.310156) rotate(-90) scale(0.1 -0.1)">
      <defs>
       <path id="DejaVuSans-68" d="M 3513 2113 
L 3513 0 
L 2938 0 
L 2938 2094 
Q 2938 2591 2744 2837 
Q 2550 3084 2163 3084 
Q 1697 3084 1428 2787 
Q 1159 2491 1159 1978 
L 1159 0 
L 581 0 
L 581 4863 
L 1159 4863 
L 1159 2956 
Q 1366 3272 1645 3428 
Q 1925 3584 2291 3584 
Q 2894 3584 3203 3211 
Q 3513 2838 3513 2113 
z
" transform="scale(0.015625)"/>
       <path id="DejaVuSans-6f" d="M 1959 3097 
Q 1497 3097 1228 2736 
Q 959 2375 959 1747 
Q 959 1119 1226 758 
Q 1494 397 1959 397 
Q 2419 397 2687 759 
Q 2956 1122 2956 1747 
Q 2956 2369 2687 2733 
Q 2419 3097 1959 3097 
z
M 1959 3584 
Q 2709 3584 3137 3096 
Q 3566 2609 3566 1747 
Q 3566 888 3137 398 
Q 2709 -91 1959 -91 
Q 1206 -91 779 398 
Q 353 888 353 1747 
Q 353 2609 779 3096 
Q 1206 3584 1959 3584 
z
" transform="scale(0.015625)"/>
       <path id="DejaVuSans-6c" d="M 603 4863 
L 1178 4863 
L 1178 0 
L 603 0 
L 603 4863 
z
" transform="scale(0.015625)"/>
       <path id="DejaVuSans-69" d="M 603 3500 
L 1178 3500 
L 1178 0 
L 603 0 
L 603 3500 
z
M 603 4863 
L 1178 4863 
L 1178 4134 
L 603 4134 
L 603 4863 
z
" transform="scale(0.015625)"/>
       <path id="DejaVuSans-6e" d="M 3513 2113 
L 3513 0 
L 2938 0 
L 2938 2094 
Q 2938 2591 2744 2837 
Q 2550 3084 2163 3084 
Q 1697 3084 1428 2787 
Q 1159 2491 1159 1978 
L 1159 0 
L 581 0 
L 581 3500 
L 1159 3500 
L 1159 2956 
Q 1366 3272 1645 3428 
Q 1925 3584 2291 3584 
Q 2894 3584 3203 3211 
Q 3513 2838 3513 2113 
z
" transform="scale(0.015625)"/>
       <path id="DejaVuSans-67" d="M 2906 1791 
Q 2906 2416 2648 2759 
Q 2391 3103 1925 3103 
Q 1463 3103 1205 2759 
Q 947 2416 947 1791 
Q 947 1169 1205 825 
Q 1463 481 1925 481 
Q 2391 481 2648 825 
Q 2906 1169 2906 1791 
z
M 3481 434 
Q 3481 -459 3084 -895 
Q 2688 -1331 1869 -1331 
Q 1566 -1331 1297 -1286 
Q 1028 -1241 775 -1147 
L 775 -588 
Q 1028 -725 1275 -790 
Q 1522 -856 1778 -856 
Q 2344 -856 2625 -561 
Q 2906 -266 2906 331 
L 2906 616 
Q 2728 306 2450 153 
Q 2172 0 1784 0 
Q 1141 0 747 490 
Q 353 981 353 1791 
Q 353 2603 747 3093 
Q 1141 3584 1784 3584 
Q 2172 3584 2450 3431 
Q 2728 3278 2906 2969 
L 2906 3500 
L 3481 3500 
L 3481 434 
z
" transform="scale(0.015625)"/>
       <path id="DejaVuSans-74" d="M 1172 4494 
L 1172 3500 
L 2356 3500 
L 2356 3053 
L 1172 3053 
L 1172 1153 
Q 1172 725 1289 603 
Q 1406 481 1766 481 
L 2356 481 
L 2356 0 
L 1766 0 
Q 1100 0 847 248 
Q 594 497 594 1153 
L 594 3053 
L 172 3053 
L 172 3500 
L 594 3500 
L 594 4494 
L 1172 4494 
z
" transform="scale(0.015625)"/>
       <path id="DejaVuSans-71" d="M 947 1747 
Q 947 1113 1208 752 
Q 1469 391 1925 391 
Q 2381 391 2643 752 
Q 2906 1113 2906 1747 
Q 2906 2381 2643 2742 
Q 2381 3103 1925 3103 
Q 1469 3103 1208 2742 
Q 947 2381 947 1747 
z
M 2906 525 
Q 2725 213 2448 61 
Q 2172 -91 1784 -91 
Q 1150 -91 751 415 
Q 353 922 353 1747 
Q 353 2572 751 3078 
Q 1150 3584 1784 3584 
Q 2172 3584 2448 3432 
Q 2725 3281 2906 2969 
L 2906 3500 
L 3481 3500 
L 3481 -1331 
L 2906 -1331 
L 2906 525 
z
" transform="scale(0.015625)"/>
       <path id="DejaVuSans-75" d="M 544 1381 
L 544 3500 
L 1119 3500 
L 1119 1403 
Q 1119 906 1312 657 
Q 1506 409 1894 409 
Q 2359 409 2629 706 
Q 2900 1003 2900 1516 
L 2900 3500 
L 3475 3500 
L 3475 0 
L 2900 0 
L 2900 538 
Q 2691 219 2414 64 
Q 2138 -91 1772 -91 
Q 1169 -91 856 284 
Q 544 659 544 1381 
z
M 1991 3584 
L 1991 3584 
z
" transform="scale(0.015625)"/>
       <path id="DejaVuSans-4e" d="M 628 4666 
L 1478 4666 
L 3547 763 
L 3547 4666 
L 4159 4666 
L 4159 0 
L 3309 0 
L 1241 3903 
L 1241 0 
L 628 0 
L 628 4666 
z
" transform="scale(0.015625)"/>
       <path id="DejaVuSans-6d" d="M 3328 2828 
Q 3544 3216 3844 3400 
Q 4144 3584 4550 3584 
Q 5097 3584 5394 3201 
Q 5691 2819 5691 2113 
L 5691 0 
L 5113 0 
L 5113 2094 
Q 5113 2597 4934 2840 
Q 4756 3084 4391 3084 
Q 3944 3084 3684 2787 
Q 3425 2491 3425 1978 
L 3425 0 
L 2847 0 
L 2847 2094 
Q 2847 2600 2669 2842 
Q 2491 3084 2119 3084 
Q 1678 3084 1418 2786 
Q 1159 2488 1159 1978 
L 1159 0 
L 581 0 
L 581 3500 
L 1159 3500 
L 1159 2956 
Q 1356 3278 1631 3431 
Q 1906 3584 2284 3584 
Q 2666 3584 2933 3390 
Q 3200 3197 3328 2828 
z
" transform="scale(0.015625)"/>
      </defs>
      <use xlink:href="#DejaVuSans-68"/>
      <use xlink:href="#DejaVuSans-6f" transform="translate(63.378906 0)"/>
      <use xlink:href="#DejaVuSans-6c" transform="translate(124.560547 0)"/>
      <use xlink:href="#DejaVuSans-64" transform="translate(152.34375 0)"/>
      <use xlink:href="#DejaVuSans-69" transform="translate(215.820312 0)"/>
      <use xlink:href="#DejaVuSans-6e" transform="translate(243.603516 0)"/>
      <use xlink:href="#DejaVuSans-67" transform="translate(306.982422 0)"/>
      <use xlink:href="#DejaVuSans-20" transform="translate(370.458984 0)"/>
      <use xlink:href="#DejaVuSans-74" transform="translate(402.246094 0)"/>
      <use xlink:href="#DejaVuSans-6f" transform="translate(441.455078 0)"/>
      <use xlink:href="#DejaVuSans-72" transform="translate(502.636719 0)"/>
      <use xlink:href="#DejaVuSans-71" transform="translate(542 0)"/>
      <use xlink:href="#DejaVuSans-75" transform="translate(605.476562 0)"/>
      <use xlink:href="#DejaVuSans-65" transform="translate(668.855469 0)"/>
      <use xlink:href="#DejaVuSans-20" transform="translate(730.378906 0)"/>
      <use xlink:href="#DejaVuSans-20" transform="translate(762.166016 0)"/>
      <use xlink:href="#DejaVuSans-5b" transform="translate(793.953125 0)"/>
      <use xlink:href="#DejaVuSans-4e" transform="translate(832.966797 0)"/>
      <use xlink:href="#DejaVuSans-6d" transform="translate(907.771484 0)"/>
      <use xlink:href="#DejaVuSans-5d" transform="translate(1005.183594 0)"/>
     </g>
    </g>
   </g>
   <g id="line2d_29">
    <path d="M 82.855073 297.185254 
L 92.628264 288.597558 
L 102.401455 280.332995 
L 111.197326 273.171167 
L 119.993198 266.271077 
L 128.78907 259.632725 
L 137.584942 253.256111 
L 146.380814 247.141235 
L 155.176686 241.288097 
L 163.972557 235.696696 
L 172.768429 230.367034 
L 181.564301 225.299109 
L 190.360173 220.492923 
L 199.156045 215.948474 
L 207.951917 211.665763 
L 216.747788 207.64479 
L 225.54366 203.885555 
L 234.339532 200.388058 
L 243.135404 197.152299 
L 251.931276 194.178278 
L 260.727148 191.465994 
L 268.5457 189.274806 
L 276.364253 187.290424 
L 277.341572 187.056917 
L 278.318891 155.891064 
L 286.137444 153.932803 
L 293.955997 151.767738 
L 301.774549 149.395866 
L 310.570421 146.480315 
L 319.366293 143.303025 
L 328.162165 139.863997 
L 336.958037 136.163232 
L 345.753909 132.200728 
L 354.54978 127.976487 
L 363.345652 123.490508 
L 372.141524 118.74279 
L 380.937396 113.733335 
L 389.733268 108.462142 
L 398.529139 102.929211 
L 407.325011 97.134542 
L 416.120883 91.078136 
L 424.916755 84.759991 
L 433.712627 78.180108 
L 442.508499 71.338488 
L 451.30437 64.23513 
L 460.100242 56.870033 
L 469.873433 48.379616 
L 472.80539 45.76948 
L 472.80539 45.76948 
" clip-path="url(#p4411fcb5e4)" style="fill: none; stroke-dasharray: 5.55,2.4; stroke-dashoffset: 0; stroke: #ff0000; stroke-width: 1.5"/>
   </g>
   <g id="line2d_30">
    <path d="M 62.57 171.472773 
L 493.2 171.472773 
" clip-path="url(#p4411fcb5e4)" style="fill: none; stroke: #000000; stroke-width: 0.5; stroke-linecap: square"/>
   </g>
   <g id="line2d_31">
    <path d="M 277.835364 318.04 
L 277.835364 26.16 
" clip-path="url(#p4411fcb5e4)" style="fill: none; stroke: #000000; stroke-width: 0.5; stroke-linecap: square"/>
   </g>
   <g id="patch_39">
    <path d="M 62.57 318.04 
L 62.57 26.16 
" style="fill: none; stroke: #000000; stroke-width: 0.8; stroke-linejoin: miter; stroke-linecap: square"/>
   </g>
   <g id="patch_40">
    <path d="M 493.2 318.04 
L 493.2 26.16 
" style="fill: none; stroke: #000000; stroke-width: 0.8; stroke-linejoin: miter; stroke-linecap: square"/>
   </g>
   <g id="patch_41">
    <path d="M 62.57 318.04 
L 493.2 318.04 
" style="fill: none; stroke: #000000; stroke-width: 0.8; stroke-linejoin: miter; stroke-linecap: square"/>
   </g>
   <g id="patch_42">
    <path d="M 62.57 26.16 
L 493.2 26.16 
" style="fill: none; stroke: #000000; stroke-width: 0.8; stroke-linejoin: miter; stroke-linecap: square"/>
   </g>
   <g id="PathCollection_1">
    <defs>
     <path id="m4b0c3e9496" d="M 0 2.12132 
C 0.562581 2.12132 1.102195 1.897805 1.5 1.5 
C 1.897805 1.102195 2.12132 0.562581 2.12132 0 
C 2.12132 -0.562581 1.897805 -1.102195 1.5 -1.5 
C 1.102195 -1.897805 0.562581 -2.12132 0 -2.12132 
C -0.562581 -2.12132 -1.102195 -1.897805 -1.5 -1.5 
C -1.897805 -1.102195 -2.12132 -0.562581 -2.12132 0 
C -2.12132 0.562581 -1.897805 1.102195 -1.5 1.5 
C -1.102195 1.897805 -0.562581 2.12132 0 2.12132 
z
" style="stroke: #4682b4"/>
    </defs>
    <g clip-path="url(#p4411fcb5e4)">
     <use xlink:href="#m4b0c3e9496" x="82.855073" y="297.807234" style="fill: #4682b4; stroke: #4682b4"/>
     <use xlink:href="#m4b0c3e9496" x="94.271775" y="288.198026" style="fill: #4682b4; stroke: #4682b4"/>
     <use xlink:href="#m4b0c3e9496" x="105.537439" y="277.848122" style="fill: #4682b4; stroke: #4682b4"/>
     <use xlink:href="#m4b0c3e9496" x="116.956249" y="269.569951" style="fill: #4682b4; stroke: #4682b4"/>
     <use xlink:href="#m4b0c3e9496" x="128.305092" y="261.359957" style="fill: #4682b4; stroke: #4682b4"/>
     <use xlink:href="#m4b0c3e9496" x="139.674424" y="252.450914" style="fill: #4682b4; stroke: #4682b4"/>
     <use xlink:href="#m4b0c3e9496" x="151.076643" y="244.256497" style="fill: #4682b4; stroke: #4682b4"/>
     <use xlink:href="#m4b0c3e9496" x="162.457369" y="237.26883" style="fill: #4682b4; stroke: #4682b4"/>
     <use xlink:href="#m4b0c3e9496" x="173.714651" y="229.230374" style="fill: #4682b4; stroke: #4682b4"/>
     <use xlink:href="#m4b0c3e9496" x="185.169232" y="223.801359" style="fill: #4682b4; stroke: #4682b4"/>
     <use xlink:href="#m4b0c3e9496" x="196.517954" y="217.580762" style="fill: #4682b4; stroke: #4682b4"/>
     <use xlink:href="#m4b0c3e9496" x="207.87169" y="211.844585" style="fill: #4682b4; stroke: #4682b4"/>
     <use xlink:href="#m4b0c3e9496" x="219.206571" y="205.929604" style="fill: #4682b4; stroke: #4682b4"/>
     <use xlink:href="#m4b0c3e9496" x="230.562728" y="201.843978" style="fill: #4682b4; stroke: #4682b4"/>
     <use xlink:href="#m4b0c3e9496" x="241.952727" y="197.453358" style="fill: #4682b4; stroke: #4682b4"/>
     <use xlink:href="#m4b0c3e9496" x="253.291194" y="192.865893" style="fill: #4682b4; stroke: #4682b4"/>
     <use xlink:href="#m4b0c3e9496" x="264.707638" y="189.66137" style="fill: #4682b4; stroke: #4682b4"/>
     <use xlink:href="#m4b0c3e9496" x="275.96405" y="187.143179" style="fill: #4682b4; stroke: #4682b4"/>
     <use xlink:href="#m4b0c3e9496" x="279.773105" y="153.443289" style="fill: #4682b4; stroke: #4682b4"/>
     <use xlink:href="#m4b0c3e9496" x="291.024898" y="152.969522" style="fill: #4682b4; stroke: #4682b4"/>
     <use xlink:href="#m4b0c3e9496" x="302.421071" y="149.73821" style="fill: #4682b4; stroke: #4682b4"/>
     <use xlink:href="#m4b0c3e9496" x="313.847673" y="145.932665" style="fill: #4682b4; stroke: #4682b4"/>
     <use xlink:href="#m4b0c3e9496" x="325.126749" y="141.215056" style="fill: #4682b4; stroke: #4682b4"/>
     <use xlink:href="#m4b0c3e9496" x="336.301029" y="134.849629" style="fill: #4682b4; stroke: #4682b4"/>
     <use xlink:href="#m4b0c3e9496" x="347.834117" y="131.088429" style="fill: #4682b4; stroke: #4682b4"/>
     <use xlink:href="#m4b0c3e9496" x="359.191744" y="125.597049" style="fill: #4682b4; stroke: #4682b4"/>
     <use xlink:href="#m4b0c3e9496" x="370.472084" y="119.021624" style="fill: #4682b4; stroke: #4682b4"/>
     <use xlink:href="#m4b0c3e9496" x="381.896283" y="112.889845" style="fill: #4682b4; stroke: #4682b4"/>
     <use xlink:href="#m4b0c3e9496" x="393.39518" y="108.531767" style="fill: #4682b4; stroke: #4682b4"/>
     <use xlink:href="#m4b0c3e9496" x="404.610071" y="98.66518" style="fill: #4682b4; stroke: #4682b4"/>
     <use xlink:href="#m4b0c3e9496" x="416.018754" y="92.535003" style="fill: #4682b4; stroke: #4682b4"/>
     <use xlink:href="#m4b0c3e9496" x="427.371095" y="83.31875" style="fill: #4682b4; stroke: #4682b4"/>
     <use xlink:href="#m4b0c3e9496" x="438.744851" y="75.22907" style="fill: #4682b4; stroke: #4682b4"/>
     <use xlink:href="#m4b0c3e9496" x="450.088003" y="65.781692" style="fill: #4682b4; stroke: #4682b4"/>
     <use xlink:href="#m4b0c3e9496" x="461.415192" y="55.336541" style="fill: #4682b4; stroke: #4682b4"/>
     <use xlink:href="#m4b0c3e9496" x="472.80539" y="47.469206" style="fill: #4682b4; stroke: #4682b4"/>
    </g>
   </g>
   <g id="text_17">
    <!-- Friction map (horn, moteus id=2) -->
    <g transform="translate(177.950312 20.16) scale(0.12 -0.12)">
     <defs>
      <path id="DejaVuSans-46" d="M 628 4666 
L 3309 4666 
L 3309 4134 
L 1259 4134 
L 1259 2759 
L 3109 2759 
L 3109 2228 
L 1259 2228 
L 1259 0 
L 628 0 
L 628 4666 
z
" transform="scale(0.015625)"/>
      <path id="DejaVuSans-63" d="M 3122 3366 
L 3122 2828 
Q 2878 2963 2633 3030 
Q 2388 3097 2138 3097 
Q 1578 3097 1268 2742 
Q 959 2388 959 1747 
Q 959 1106 1268 751 
Q 1578 397 2138 397 
Q 2388 397 2633 464 
Q 2878 531 3122 666 
L 3122 134 
Q 2881 22 2623 -34 
Q 2366 -91 2075 -91 
Q 1284 -91 818 406 
Q 353 903 353 1747 
Q 353 2603 823 3093 
Q 1294 3584 2113 3584 
Q 2378 3584 2631 3529 
Q 2884 3475 3122 3366 
z
" transform="scale(0.015625)"/>
      <path id="DejaVuSans-61" d="M 2194 1759 
Q 1497 1759 1228 1600 
Q 959 1441 959 1056 
Q 959 750 1161 570 
Q 1363 391 1709 391 
Q 2188 391 2477 730 
Q 2766 1069 2766 1631 
L 2766 1759 
L 2194 1759 
z
M 3341 1997 
L 3341 0 
L 2766 0 
L 2766 531 
Q 2569 213 2275 61 
Q 1981 -91 1556 -91 
Q 1019 -91 701 211 
Q 384 513 384 1019 
Q 384 1609 779 1909 
Q 1175 2209 1959 2209 
L 2766 2209 
L 2766 2266 
Q 2766 2663 2505 2880 
Q 2244 3097 1772 3097 
Q 1472 3097 1187 3025 
Q 903 2953 641 2809 
L 641 3341 
Q 956 3463 1253 3523 
Q 1550 3584 1831 3584 
Q 2591 3584 2966 3190 
Q 3341 2797 3341 1997 
z
" transform="scale(0.015625)"/>
      <path id="DejaVuSans-28" d="M 1984 4856 
Q 1566 4138 1362 3434 
Q 1159 2731 1159 2009 
Q 1159 1288 1364 580 
Q 1569 -128 1984 -844 
L 1484 -844 
Q 1016 -109 783 600 
Q 550 1309 550 2009 
Q 550 2706 781 3412 
Q 1013 4119 1484 4856 
L 1984 4856 
z
" transform="scale(0.015625)"/>
      <path id="DejaVuSans-2c" d="M 750 794 
L 1409 794 
L 1409 256 
L 897 -744 
L 494 -744 
L 750 256 
L 750 794 
z
" transform="scale(0.015625)"/>
      <path id="DejaVuSans-3d" d="M 678 2906 
L 4684 2906 
L 4684 2381 
L 678 2381 
L 678 2906 
z
M 678 1631 
L 4684 1631 
L 4684 1100 
L 678 1100 
L 678 1631 
z
" transform="scale(0.015625)"/>
      <path id="DejaVuSans-29" d="M 513 4856 
L 1013 4856 
Q 1481 4119 1714 3412 
Q 1947 2706 1947 2009 
Q 1947 1309 1714 600 
Q 1481 -109 1013 -844 
L 513 -844 
Q 928 -128 1133 580 
Q 1338 1288 1338 2009 
Q 1338 2731 1133 3434 
Q 928 4138 513 4856 
z
" transform="scale(0.015625)"/>
     </defs>
     <use xlink:href="#DejaVuSans-46"/>
     <use xlink:href="#DejaVuSans-72" transform="translate(50.269531 0)"/>
     <use xlink:href="#DejaVuSans-69" transform="translate(91.382812 0)"/>
     <use xlink:href="#DejaVuSans-63" transform="translate(119.166016 0)"/>
     <use xlink:href="#DejaVuSans-74" transform="translate(174.146484 0)"/>
     <use xlink:href="#DejaVuSans-69" transform="translate(213.355469 0)"/>
     <use xlink:href="#DejaVuSans-6f" transform="translate(241.138672 0)"/>
     <use xlink:href="#DejaVuSans-6e" transform="translate(302.320312 0)"/>
     <use xlink:href="#DejaVuSans-20" transform="translate(365.699219 0)"/>
     <use xlink:href="#DejaVuSans-6d" transform="translate(397.486328 0)"/>
     <use xlink:href="#DejaVuSans-61" transform="translate(494.898438 0)"/>
     <use xlink:href="#DejaVuSans-70" transform="translate(556.177734 0)"/>
     <use xlink:href="#DejaVuSans-20" transform="translate(619.654297 0)"/>
     <use xlink:href="#DejaVuSans-28" transform="translate(651.441406 0)"/>
     <use xlink:href="#DejaVuSans-68" transform="translate(690.455078 0)"/>
     <use xlink:href="#DejaVuSans-6f" transform="translate(753.833984 0)"/>
     <use xlink:href="#DejaVuSans-72" transform="translate(815.015625 0)"/>
     <use xlink:href="#DejaVuSans-6e" transform="translate(854.378906 0)"/>
     <use xlink:href="#DejaVuSans-2c" transform="translate(917.757812 0)"/>
     <use xlink:href="#DejaVuSans-20" transform="translate(949.544922 0)"/>
     <use xlink:href="#DejaVuSans-6d" transform="translate(981.332031 0)"/>
     <use xlink:href="#DejaVuSans-6f" transform="translate(1078.744141 0)"/>
     <use xlink:href="#DejaVuSans-74" transform="translate(1139.925781 0)"/>
     <use xlink:href="#DejaVuSans-65" transform="translate(1179.134766 0)"/>
     <use xlink:href="#DejaVuSans-75" transform="translate(1240.658203 0)"/>
     <use xlink:href="#DejaVuSans-73" transform="translate(1304.037109 0)"/>
     <use xlink:href="#DejaVuSans-20" transform="translate(1356.136719 0)"/>
     <use xlink:href="#DejaVuSans-69" transform="translate(1387.923828 0)"/>
     <use xlink:href="#DejaVuSans-64" transform="translate(1415.707031 0)"/>
     <use xlink:href="#DejaVuSans-3d" transform="translate(1479.183594 0)"/>
     <use xlink:href="#DejaVuSans-32" transform="translate(1562.972656 0)"/>
     <use xlink:href="#DejaVuSans-29" transform="translate(1626.595703 0)"/>
    </g>
   </g>
   <g id="legend_1">
    <g id="patch_43">
     <path d="M 69.57 63.51625 
L 295.504375 63.51625 
Q 297.504375 63.51625 297.504375 61.51625 
L 297.504375 33.16 
Q 297.504375 31.16 295.504375 31.16 
L 69.57 31.16 
Q 67.57 31.16 67.57 33.16 
L 67.57 61.51625 
Q 67.57 63.51625 69.57 63.51625 
z
" style="fill: #ffffff; opacity: 0.8; stroke: #cccccc; stroke-linejoin: miter"/>
    </g>
    <g id="PathCollection_2">
     <g>
      <use xlink:href="#m4b0c3e9496" x="81.57" y="40.133437" style="fill: #4682b4; stroke: #4682b4"/>
     </g>
    </g>
    <g id="text_18">
     <!-- measured  (box = ±1σ speed / torque) -->
     <g transform="translate(99.57 42.758437) scale(0.1 -0.1)">
      <defs>
       <path id="DejaVuSans-62" d="M 3116 1747 
Q 3116 2381 2855 2742 
Q 2594 3103 2138 3103 
Q 1681 3103 1420 2742 
Q 1159 2381 1159 1747 
Q 1159 1113 1420 752 
Q 1681 391 2138 391 
Q 2594 391 2855 752 
Q 3116 1113 3116 1747 
z
M 1159 2969 
Q 1341 3281 1617 3432 
Q 1894 3584 2278 3584 
Q 2916 3584 3314 3078 
Q 3713 2572 3713 1747 
Q 3713 922 3314 415 
Q 2916 -91 2278 -91 
Q 1894 -91 1617 61 
Q 1341 213 1159 525 
L 1159 0 
L 581 0 
L 581 4863 
L 1159 4863 
L 1159 2969 
z
" transform="scale(0.015625)"/>
       <path id="DejaVuSans-78" d="M 3513 3500 
L 2247 1797 
L 3578 0 
L 2900 0 
L 1881 1375 
L 863 0 
L 184 0 
L 1544 1831 
L 300 3500 
L 978 3500 
L 1906 2253 
L 2834 3500 
L 3513 3500 
z
" transform="scale(0.015625)"/>
       <path id="DejaVuSans-b1" d="M 2944 4013 
L 2944 2803 
L 4684 2803 
L 4684 2272 
L 2944 2272 
L 2944 1063 
L 2419 1063 
L 2419 2272 
L 678 2272 
L 678 2803 
L 2419 2803 
L 2419 4013 
L 2944 4013 
z
M 678 531 
L 4684 531 
L 4684 0 
L 678 0 
L 678 531 
z
" transform="scale(0.015625)"/>
       <path id="DejaVuSans-3c3" d="M 1959 3044 
Q 1484 3044 1228 2700 
Q 959 2341 959 1747 
Q 959 1119 1226 758 
Q 1494 397 1959 397 
Q 2419 397 2687 759 
Q 2956 1122 2956 1747 
Q 2956 2319 2688 2700 
Q 2441 3044 1959 3044 
z
M 1959 3500 
L 3869 3500 
L 3869 2925 
L 3225 2925 
Q 3566 2438 3566 1747 
Q 3566 888 3138 400 
Q 2709 -91 1959 -91 
Q 1206 -91 781 400 
Q 353 888 353 1747 
Q 353 2613 781 3097 
Q 1134 3500 1959 3500 
z
" transform="scale(0.015625)"/>
      </defs>
      <use xlink:href="#DejaVuSans-6d"/>
      <use xlink:href="#DejaVuSans-65" transform="translate(97.412109 0)"/>
      <use xlink:href="#DejaVuSans-61" transform="translate(158.935547 0)"/>
      <use xlink:href="#DejaVuSans-73" transform="translate(220.214844 0)"/>
      <use xlink:href="#DejaVuSans-75" transform="translate(272.314453 0)"/>
      <use xlink:href="#DejaVuSans-72" transform="translate(335.693359 0)"/>
      <use xlink:href="#DejaVuSans-65" transform="translate(374.556641 0)"/>
      <use xlink:href="#DejaVuSans-64" transform="translate(436.080078 0)"/>
      <use xlink:href="#DejaVuSans-20" transform="translate(499.556641 0)"/>
      <use xlink:href="#DejaVuSans-20" transform="translate(531.34375 0)"/>
      <use xlink:href="#DejaVuSans-28" transform="translate(563.130859 0)"/>
      <use xlink:href="#DejaVuSans-62" transform="translate(602.144531 0)"/>
      <use xlink:href="#DejaVuSans-6f" transform="translate(665.621094 0)"/>
      <use xlink:href="#DejaVuSans-78" transform="translate(723.677734 0)"/>
      <use xlink:href="#DejaVuSans-20" transform="translate(782.857422 0)"/>
      <use xlink:href="#DejaVuSans-3d" transform="translate(814.644531 0)"/>
      <use xlink:href="#DejaVuSans-20" transform="translate(898.433594 0)"/>
      <use xlink:href="#DejaVuSans-b1" transform="translate(930.220703 0)"/>
      <use xlink:href="#DejaVuSans-31" transform="translate(1014.009766 0)"/>
      <use xlink:href="#DejaVuSans-3c3" transform="translate(1077.632812 0)"/>
      <use xlink:href="#DejaVuSans-20" transform="translate(1141.011719 0)"/>
      <use xlink:href="#DejaVuSans-73" transform="translate(1172.798828 0)"/>
      <use xlink:href="#DejaVuSans-70" transform="translate(1224.898438 0)"/>
      <use xlink:href="#DejaVuSans-65" transform="translate(1288.375 0)"/>
      <use xlink:href="#DejaVuSans-65" transform="translate(1349.898438 0)"/>
      <use xlink:href="#DejaVuSans-64" transform="translate(1411.421875 0)"/>
      <use xlink:href="#DejaVuSans-20" transform="translate(1474.898438 0)"/>
      <use xlink:href="#DejaVuSans-2f" transform="translate(1506.685547 0)"/>
      <use xlink:href="#DejaVuSans-20" transform="translate(1540.376953 0)"/>
      <use xlink:href="#DejaVuSans-74" transform="translate(1572.164062 0)"/>
      <use xlink:href="#DejaVuSans-6f" transform="translate(1611.373047 0)"/>
      <use xlink:href="#DejaVuSans-72" transform="translate(1672.554688 0)"/>
      <use xlink:href="#DejaVuSans-71" transform="translate(1711.917969 0)"/>
      <use xlink:href="#DejaVuSans-75" transform="translate(1775.394531 0)"/>
      <use xlink:href="#DejaVuSans-65" transform="translate(1838.773438 0)"/>
      <use xlink:href="#DejaVuSans-29" transform="translate(1900.296875 0)"/>
     </g>
    </g>
    <g id="line2d_32">
     <path d="M 71.57 53.936562 
L 81.57 53.936562 
L 91.57 53.936562 
" style="fill: none; stroke-dasharray: 5.55,2.4; stroke-dashoffset: 0; stroke: #ff0000; stroke-width: 1.5"/>
    </g>
    <g id="text_19">
     <!-- fit -->
     <g transform="translate(99.57 57.436562) scale(0.1 -0.1)">
      <defs>
       <path id="DejaVuSans-66" d="M 2375 4863 
L 2375 4384 
L 1825 4384 
Q 1516 4384 1395 4259 
Q 1275 4134 1275 3809 
L 1275 3500 
L 2222 3500 
L 2222 3053 
L 1275 3053 
L 1275 0 
L 697 0 
L 697 3053 
L 147 3053 
L 147 3500 
L 697 3500 
L 697 3744 
Q 697 4328 969 4595 
Q 1241 4863 1831 4863 
L 2375 4863 
z
" transform="scale(0.015625)"/>
      </defs>
      <use xlink:href="#DejaVuSans-66"/>
      <use xlink:href="#DejaVuSans-69" transform="translate(35.205078 0)"/>
      <use xlink:href="#DejaVuSans-74" transform="translate(62.988281 0)"/>
     </g>
    </g>
   </g>
  </g>
 </g>
 <defs>
  <clipPath id="p4411fcb5e4">
   <rect x="62.57" y="26.16" width="430.63" height="291.88"/>
  </clipPath>
 </defs>
</svg>
