<?xml version="1.0" encoding="utf-8" standalone="no"?>
<!DOCTYPE svg PUBLIC "-//W3C//DTD SVG 1.1//EN"
  "http://www.w3.org/Graphics/SVG/1.1/DTD/svg11.dtd">
<svg xmlns:xlink="http://www.w3.org/1999/xlink" width="576pt" height="360pt" viewBox="0 0 576 360" xmlns="http://www.w3.org/2000/svg" version="1.1">
 <metadata>
  <rdf:RDF xmlns:dc="http://purl.org/dc/elements/1.1/" xmlns:cc="http://creativecommons.org/ns#" xmlns:rdf="http://www.w3.org/1999/02/22-rdf-syntax-ns#">
   <cc:Work>
    <dc:type rdf:resource="http://purl.org/dc/dcmitype/StillImage"/>
    <dc:date>2026-06-19T10:18:12.369905</dc:date>
    <dc:format>image/svg+xml</dc:format>
    <dc:creator>
     <cc:Agent>
      <dc:title>Matplotlib v3.10.9, https://matplotlib.org/</dc:title>
     </cc:Agent>
    </dc:creator>
   </cc:Work>
  </rdf:RDF>
 </metadata>
 <defs>
  <style type="text/css">*{stroke-linejoin: round; stroke-linecap: butt}</style>
 </defs>
 <g id="figure_1">
  <g id="patch_1">
   <path d="M 0 360 
L 576 360 
L 576 0 
L 0 0 
z
" style="fill: #ffffff"/>
  </g>
  <g id="axes_1">
   <g id="patch_2">
    <path d="M 54.245 318.04 
L 565.2 318.04 
L 565.2 26.16 
L 54.245 26.16 
z
" style="fill: #ffffff"/>
   </g>
   <g id="matplotlib.axis_1">
    <g id="xtick_1">
     <g id="line2d_1">
      <path d="M 77.470208 318.04 
L 77.470208 26.16 
" clip-path="url(#p3dc7bc2cf7)" style="fill: none; stroke: #b0b0b0; stroke-width: 0.8; stroke-linecap: square"/>
     </g>
     <g id="line2d_2">
      <defs>
       <path id="m56a8448b64" d="M 0 0 
L 0 3.5 
" style="stroke: #000000; stroke-width: 0.8"/>
      </defs>
      <g>
       <use xlink:href="#m56a8448b64" x="77.470208" y="318.04" style="stroke: #000000; stroke-width: 0.8"/>
      </g>
     </g>
     <g id="text_1">
      <!-- 0.0 -->
      <g transform="translate(69.518645 332.638438) scale(0.1 -0.1)">
       <defs>
        <path id="DejaVuSans-30" d="M 2034 4250 
Q 1547 4250 1301 3770 
Q 1056 3291 1056 2328 
Q 1056 1369 1301 889 
Q 1547 409 2034 409 
Q 2525 409 2770 889 
Q 3016 1369 3016 2328 
Q 3016 3291 2770 3770 
Q 2525 4250 2034 4250 
z
M 2034 4750 
Q 2819 4750 3233 4129 
Q 3647 3509 3647 2328 
Q 3647 1150 3233 529 
Q 2819 -91 2034 -91 
Q 1250 -91 836 529 
Q 422 1150 422 2328 
Q 422 3509 836 4129 
Q 1250 4750 2034 4750 
z
" transform="scale(0.015625)"/>
        <path id="DejaVuSans-2e" d="M 684 794 
L 1344 794 
L 1344 0 
L 684 0 
L 684 794 
z
" transform="scale(0.015625)"/>
       </defs>
       <use xlink:href="#DejaVuSans-30"/>
       <use xlink:href="#DejaVuSans-2e" transform="translate(63.623047 0)"/>
       <use xlink:href="#DejaVuSans-30" transform="translate(95.410156 0)"/>
      </g>
     </g>
    </g>
    <g id="xtick_2">
     <g id="line2d_3">
      <path d="M 154.938766 318.04 
L 154.938766 26.16 
" clip-path="url(#p3dc7bc2cf7)" style="fill: none; stroke: #b0b0b0; stroke-width: 0.8; stroke-linecap: square"/>
     </g>
     <g id="line2d_4">
      <g>
       <use xlink:href="#m56a8448b64" x="154.938766" y="318.04" style="stroke: #000000; stroke-width: 0.8"/>
      </g>
     </g>
     <g id="text_2">
      <!-- 0.5 -->
      <g transform="translate(146.987203 332.638438) scale(0.1 -0.1)">
       <defs>
        <path id="DejaVuSans-35" d="M 691 4666 
L 3169 4666 
L 3169 4134 
L 1269 4134 
L 1269 2991 
Q 1406 3038 1543 3061 
Q 1681 3084 1819 3084 
Q 2600 3084 3056 2656 
Q 3513 2228 3513 1497 
Q 3513 744 3044 326 
Q 2575 -91 1722 -91 
Q 1428 -91 1123 -41 
Q 819 9 494 109 
L 494 744 
Q 775 591 1075 516 
Q 1375 441 1709 441 
Q 2250 441 2565 725 
Q 2881 1009 2881 1497 
Q 2881 1984 2565 2268 
Q 2250 2553 1709 2553 
Q 1456 2553 1204 2497 
Q 953 2441 691 2322 
L 691 4666 
z
" transform="scale(0.015625)"/>
       </defs>
       <use xlink:href="#DejaVuSans-30"/>
       <use xlink:href="#DejaVuSans-2e" transform="translate(63.623047 0)"/>
       <use xlink:href="#DejaVuSans-35" transform="translate(95.410156 0)"/>
      </g>
     </g>
    </g>
    <g id="xtick_3">
     <g id="line2d_5">
      <path d="M 232.407323 318.04 
L 232.407323 26.16 
" clip-path="url(#p3dc7bc2cf7)" style="fill: none; stroke: #b0b0b0; stroke-width: 0.8; stroke-linecap: square"/>
     </g>
     <g id="line2d_6">
      <g>
       <use xlink:href="#m56a8448b64" x="232.407323" y="318.04" style="stroke: #000000; stroke-width: 0.8"/>
      </g>
     </g>
     <g id="text_3">
      <!-- 1.0 -->
      <g transform="translate(224.455761 332.638438) scale(0.1 -0.1)">
       <defs>
        <path id="DejaVuSans-31" d="M 794 531 
L 1825 531 
L 1825 4091 
L 703 3866 
L 703 4441 
L 1819 4666 
L 2450 4666 
L 2450 531 
L 3481 531 
L 3481 0 
L 794 0 
L 794 531 
z
" transform="scale(0.015625)"/>
       </defs>
       <use xlink:href="#DejaVuSans-31"/>
       <use xlink:href="#DejaVuSans-2e" transform="translate(63.623047 0)"/>
       <use xlink:href="#DejaVuSans-30" transform="translate(95.410156 0)"/>
      </g>
     </g>
    </g>
    <g id="xtick_4">
     <g id="line2d_7">
      <path d="M 309.875881 318.04 
L 309.875881 26.16 
" clip-path="url(#p3dc7bc2cf7)" style="fill: none; stroke: #b0b0b0; stroke-width: 0.8; stroke-linecap: square"/>
     </g>
     <g id="line2d_8">
      <g>
       <use xlink:href="#m56a8448b64" x="309.875881" y="318.04" style="stroke: #000000; stroke-width: 0.8"/>
      </g>
     </g>
     <g id="text_4">
      <!-- 1.5 -->
      <g transform="translate(301.924319 332.638438) scale(0.1 -0.1)">
       <use xlink:href="#DejaVuSans-31"/>
       <use xlink:href="#DejaVuSans-2e" transform="translate(63.623047 0)"/>
       <use xlink:href="#DejaVuSans-35" transform="translate(95.410156 0)"/>
      </g>
     </g>
    </g>
    <g id="xtick_5">
     <g id="line2d_9">
      <path d="M 387.344439 318.04 
L 387.344439 26.16 
" clip-path="url(#p3dc7bc2cf7)" style="fill: none; stroke: #b0b0b0; stroke-width: 0.8; stroke-linecap: square"/>
     </g>
     <g id="line2d_10">
      <g>
       <use xlink:href="#m56a8448b64" x="387.344439" y="318.04" style="stroke: #000000; stroke-width: 0.8"/>
      </g>
     </g>
     <g id="text_5">
      <!-- 2.0 -->
      <g transform="translate(379.392877 332.638438) scale(0.1 -0.1)">
       <defs>
        <path id="DejaVuSans-32" d="M 1228 531 
L 3431 531 
L 3431 0 
L 469 0 
L 469 531 
Q 828 903 1448 1529 
Q 2069 2156 2228 2338 
Q 2531 2678 2651 2914 
Q 2772 3150 2772 3378 
Q 2772 3750 2511 3984 
Q 2250 4219 1831 4219 
Q 1534 4219 1204 4116 
Q 875 4013 500 3803 
L 500 4441 
Q 881 4594 1212 4672 
Q 1544 4750 1819 4750 
Q 2544 4750 2975 4387 
Q 3406 4025 3406 3419 
Q 3406 3131 3298 2873 
Q 3191 2616 2906 2266 
Q 2828 2175 2409 1742 
Q 1991 1309 1228 531 
z
" transform="scale(0.015625)"/>
       </defs>
       <use xlink:href="#DejaVuSans-32"/>
       <use xlink:href="#DejaVuSans-2e" transform="translate(63.623047 0)"/>
       <use xlink:href="#DejaVuSans-30" transform="translate(95.410156 0)"/>
      </g>
     </g>
    </g>
    <g id="xtick_6">
     <g id="line2d_11">
      <path d="M 464.812997 318.04 
L 464.812997 26.16 
" clip-path="url(#p3dc7bc2cf7)" style="fill: none; stroke: #b0b0b0; stroke-width: 0.8; stroke-linecap: square"/>
     </g>
     <g id="line2d_12">
      <g>
       <use xlink:href="#m56a8448b64" x="464.812997" y="318.04" style="stroke: #000000; stroke-width: 0.8"/>
      </g>
     </g>
     <g id="text_6">
      <!-- 2.5 -->
      <g transform="translate(456.861434 332.638438) scale(0.1 -0.1)">
       <use xlink:href="#DejaVuSans-32"/>
       <use xlink:href="#DejaVuSans-2e" transform="translate(63.623047 0)"/>
       <use xlink:href="#DejaVuSans-35" transform="translate(95.410156 0)"/>
      </g>
     </g>
    </g>
    <g id="xtick_7">
     <g id="line2d_13">
      <path d="M 542.281555 318.04 
L 542.281555 26.16 
" clip-path="url(#p3dc7bc2cf7)" style="fill: none; stroke: #b0b0b0; stroke-width: 0.8; stroke-linecap: square"/>
     </g>
     <g id="line2d_14">
      <g>
       <use xlink:href="#m56a8448b64" x="542.281555" y="318.04" style="stroke: #000000; stroke-width: 0.8"/>
      </g>
     </g>
     <g id="text_7">
      <!-- 3.0 -->
      <g transform="translate(534.329992 332.638438) scale(0.1 -0.1)">
       <defs>
        <path id="DejaVuSans-33" d="M 2597 2516 
Q 3050 2419 3304 2112 
Q 3559 1806 3559 1356 
Q 3559 666 3084 287 
Q 2609 -91 1734 -91 
Q 1441 -91 1130 -33 
Q 819 25 488 141 
L 488 750 
Q 750 597 1062 519 
Q 1375 441 1716 441 
Q 2309 441 2620 675 
Q 2931 909 2931 1356 
Q 2931 1769 2642 2001 
Q 2353 2234 1838 2234 
L 1294 2234 
L 1294 2753 
L 1863 2753 
Q 2328 2753 2575 2939 
Q 2822 3125 2822 3475 
Q 2822 3834 2567 4026 
Q 2313 4219 1838 4219 
Q 1578 4219 1281 4162 
Q 984 4106 628 3988 
L 628 4550 
Q 988 4650 1302 4700 
Q 1616 4750 1894 4750 
Q 2613 4750 3031 4423 
Q 3450 4097 3450 3541 
Q 3450 3153 3228 2886 
Q 3006 2619 2597 2516 
z
" transform="scale(0.015625)"/>
       </defs>
       <use xlink:href="#DejaVuSans-33"/>
       <use xlink:href="#DejaVuSans-2e" transform="translate(63.623047 0)"/>
       <use xlink:href="#DejaVuSans-30" transform="translate(95.410156 0)"/>
      </g>
     </g>
    </g>
    <g id="text_8">
     <!-- time  [s] -->
     <g transform="translate(288.742031 346.316563) scale(0.1 -0.1)">
      <defs>
       <path id="DejaVuSans-74" d="M 1172 4494 
L 1172 3500 
L 2356 3500 
L 2356 3053 
L 1172 3053 
L 1172 1153 
Q 1172 725 1289 603 
Q 1406 481 1766 481 
L 2356 481 
L 2356 0 
L 1766 0 
Q 1100 0 847 248 
Q 594 497 594 1153 
L 594 3053 
L 172 3053 
L 172 3500 
L 594 3500 
L 594 4494 
L 1172 4494 
z
" transform="scale(0.015625)"/>
       <path id="DejaVuSans-69" d="M 603 3500 
L 1178 3500 
L 1178 0 
L 603 0 
L 603 3500 
z
M 603 4863 
L 1178 4863 
L 1178 4134 
L 603 4134 
L 603 4863 
z
" transform="scale(0.015625)"/>
       <path id="DejaVuSans-6d" d="M 3328 2828 
Q 3544 3216 3844 3400 
Q 4144 3584 4550 3584 
Q 5097 3584 5394 3201 
Q 5691 2819 5691 2113 
L 5691 0 
L 5113 0 
L 5113 2094 
Q 5113 2597 4934 2840 
Q 4756 3084 4391 3084 
Q 3944 3084 3684 2787 
Q 3425 2491 3425 1978 
L 3425 0 
L 2847 0 
L 2847 2094 
Q 2847 2600 2669 2842 
Q 2491 3084 2119 3084 
Q 1678 3084 1418 2786 
Q 1159 2488 1159 1978 
L 1159 0 
L 581 0 
L 581 3500 
L 1159 3500 
L 1159 2956 
Q 1356 3278 1631 3431 
Q 1906 3584 2284 3584 
Q 2666 3584 2933 3390 
Q 3200 3197 3328 2828 
z
" transform="scale(0.015625)"/>
       <path id="DejaVuSans-65" d="M 3597 1894 
L 3597 1613 
L 953 1613 
Q 991 1019 1311 708 
Q 1631 397 2203 397 
Q 2534 397 2845 478 
Q 3156 559 3463 722 
L 3463 178 
Q 3153 47 2828 -22 
Q 2503 -91 2169 -91 
Q 1331 -91 842 396 
Q 353 884 353 1716 
Q 353 2575 817 3079 
Q 1281 3584 2069 3584 
Q 2775 3584 3186 3129 
Q 3597 2675 3597 1894 
z
M 3022 2063 
Q 3016 2534 2758 2815 
Q 2500 3097 2075 3097 
Q 1594 3097 1305 2825 
Q 1016 2553 972 2059 
L 3022 2063 
z
" transform="scale(0.015625)"/>
       <path id="DejaVuSans-20" transform="scale(0.015625)"/>
       <path id="DejaVuSans-5b" d="M 550 4863 
L 1875 4863 
L 1875 4416 
L 1125 4416 
L 1125 -397 
L 1875 -397 
L 1875 -844 
L 550 -844 
L 550 4863 
z
" transform="scale(0.015625)"/>
       <path id="DejaVuSans-73" d="M 2834 3397 
L 2834 2853 
Q 2591 2978 2328 3040 
Q 2066 3103 1784 3103 
Q 1356 3103 1142 2972 
Q 928 2841 928 2578 
Q 928 2378 1081 2264 
Q 1234 2150 1697 2047 
L 1894 2003 
Q 2506 1872 2764 1633 
Q 3022 1394 3022 966 
Q 3022 478 2636 193 
Q 2250 -91 1575 -91 
Q 1294 -91 989 -36 
Q 684 19 347 128 
L 347 722 
Q 666 556 975 473 
Q 1284 391 1588 391 
Q 1994 391 2212 530 
Q 2431 669 2431 922 
Q 2431 1156 2273 1281 
Q 2116 1406 1581 1522 
L 1381 1569 
Q 847 1681 609 1914 
Q 372 2147 372 2553 
Q 372 3047 722 3315 
Q 1072 3584 1716 3584 
Q 2034 3584 2315 3537 
Q 2597 3491 2834 3397 
z
" transform="scale(0.015625)"/>
       <path id="DejaVuSans-5d" d="M 1947 4863 
L 1947 -844 
L 622 -844 
L 622 -397 
L 1369 -397 
L 1369 4416 
L 622 4416 
L 622 4863 
L 1947 4863 
z
" transform="scale(0.015625)"/>
      </defs>
      <use xlink:href="#DejaVuSans-74"/>
      <use xlink:href="#DejaVuSans-69" transform="translate(39.208984 0)"/>
      <use xlink:href="#DejaVuSans-6d" transform="translate(66.992188 0)"/>
      <use xlink:href="#DejaVuSans-65" transform="translate(164.404297 0)"/>
      <use xlink:href="#DejaVuSans-20" transform="translate(225.927734 0)"/>
      <use xlink:href="#DejaVuSans-20" transform="translate(257.714844 0)"/>
      <use xlink:href="#DejaVuSans-5b" transform="translate(289.501953 0)"/>
      <use xlink:href="#DejaVuSans-73" transform="translate(328.515625 0)"/>
      <use xlink:href="#DejaVuSans-5d" transform="translate(380.615234 0)"/>
     </g>
    </g>
   </g>
   <g id="matplotlib.axis_2">
    <g id="ytick_1">
     <g id="line2d_15">
      <path d="M 54.245 307.953734 
L 565.2 307.953734 
" clip-path="url(#p3dc7bc2cf7)" style="fill: none; stroke: #b0b0b0; stroke-width: 0.8; stroke-linecap: square"/>
     </g>
     <g id="line2d_16">
      <defs>
       <path id="mf01166666f" d="M 0 0 
L -3.5 0 
" style="stroke: #000000; stroke-width: 0.8"/>
      </defs>
      <g>
       <use xlink:href="#mf01166666f" x="54.245" y="307.953734" style="stroke: #000000; stroke-width: 0.8"/>
      </g>
     </g>
     <g id="text_9">
      <!-- 0.00 -->
      <g transform="translate(24.979375 311.752952) scale(0.1 -0.1)">
       <use xlink:href="#DejaVuSans-30"/>
       <use xlink:href="#DejaVuSans-2e" transform="translate(63.623047 0)"/>
       <use xlink:href="#DejaVuSans-30" transform="translate(95.410156 0)"/>
       <use xlink:href="#DejaVuSans-30" transform="translate(159.033203 0)"/>
      </g>
     </g>
    </g>
    <g id="ytick_2">
     <g id="line2d_17">
      <path d="M 54.245 270.542024 
L 565.2 270.542024 
" clip-path="url(#p3dc7bc2cf7)" style="fill: none; stroke: #b0b0b0; stroke-width: 0.8; stroke-linecap: square"/>
     </g>
     <g id="line2d_18">
      <g>
       <use xlink:href="#mf01166666f" x="54.245" y="270.542024" style="stroke: #000000; stroke-width: 0.8"/>
      </g>
     </g>
     <g id="text_10">
      <!-- 0.01 -->
      <g transform="translate(24.979375 274.341243) scale(0.1 -0.1)">
       <use xlink:href="#DejaVuSans-30"/>
       <use xlink:href="#DejaVuSans-2e" transform="translate(63.623047 0)"/>
       <use xlink:href="#DejaVuSans-30" transform="translate(95.410156 0)"/>
       <use xlink:href="#DejaVuSans-31" transform="translate(159.033203 0)"/>
      </g>
     </g>
    </g>
    <g id="ytick_3">
     <g id="line2d_19">
      <path d="M 54.245 233.130315 
L 565.2 233.130315 
" clip-path="url(#p3dc7bc2cf7)" style="fill: none; stroke: #b0b0b0; stroke-width: 0.8; stroke-linecap: square"/>
     </g>
     <g id="line2d_20">
      <g>
       <use xlink:href="#mf01166666f" x="54.245" y="233.130315" style="stroke: #000000; stroke-width: 0.8"/>
      </g>
     </g>
     <g id="text_11">
      <!-- 0.02 -->
      <g transform="translate(24.979375 236.929534) scale(0.1 -0.1)">
       <use xlink:href="#DejaVuSans-30"/>
       <use xlink:href="#DejaVuSans-2e" transform="translate(63.623047 0)"/>
       <use xlink:href="#DejaVuSans-30" transform="translate(95.410156 0)"/>
       <use xlink:href="#DejaVuSans-32" transform="translate(159.033203 0)"/>
      </g>
     </g>
    </g>
    <g id="ytick_4">
     <g id="line2d_21">
      <path d="M 54.245 195.718606 
L 565.2 195.718606 
" clip-path="url(#p3dc7bc2cf7)" style="fill: none; stroke: #b0b0b0; stroke-width: 0.8; stroke-linecap: square"/>
     </g>
     <g id="line2d_22">
      <g>
       <use xlink:href="#mf01166666f" x="54.245" y="195.718606" style="stroke: #000000; stroke-width: 0.8"/>
      </g>
     </g>
     <g id="text_12">
      <!-- 0.03 -->
      <g transform="translate(24.979375 199.517825) scale(0.1 -0.1)">
       <use xlink:href="#DejaVuSans-30"/>
       <use xlink:href="#DejaVuSans-2e" transform="translate(63.623047 0)"/>
       <use xlink:href="#DejaVuSans-30" transform="translate(95.410156 0)"/>
       <use xlink:href="#DejaVuSans-33" transform="translate(159.033203 0)"/>
      </g>
     </g>
    </g>
    <g id="ytick_5">
     <g id="line2d_23">
      <path d="M 54.245 158.306897 
L 565.2 158.306897 
" clip-path="url(#p3dc7bc2cf7)" style="fill: none; stroke: #b0b0b0; stroke-width: 0.8; stroke-linecap: square"/>
     </g>
     <g id="line2d_24">
      <g>
       <use xlink:href="#mf01166666f" x="54.245" y="158.306897" style="stroke: #000000; stroke-width: 0.8"/>
      </g>
     </g>
     <g id="text_13">
      <!-- 0.04 -->
      <g transform="translate(24.979375 162.106116) scale(0.1 -0.1)">
       <defs>
        <path id="DejaVuSans-34" d="M 2419 4116 
L 825 1625 
L 2419 1625 
L 2419 4116 
z
M 2253 4666 
L 3047 4666 
L 3047 1625 
L 3713 1625 
L 3713 1100 
L 3047 1100 
L 3047 0 
L 2419 0 
L 2419 1100 
L 313 1100 
L 313 1709 
L 2253 4666 
z
" transform="scale(0.015625)"/>
       </defs>
       <use xlink:href="#DejaVuSans-30"/>
       <use xlink:href="#DejaVuSans-2e" transform="translate(63.623047 0)"/>
       <use xlink:href="#DejaVuSans-30" transform="translate(95.410156 0)"/>
       <use xlink:href="#DejaVuSans-34" transform="translate(159.033203 0)"/>
      </g>
     </g>
    </g>
    <g id="ytick_6">
     <g id="line2d_25">
      <path d="M 54.245 120.895188 
L 565.2 120.895188 
" clip-path="url(#p3dc7bc2cf7)" style="fill: none; stroke: #b0b0b0; stroke-width: 0.8; stroke-linecap: square"/>
     </g>
     <g id="line2d_26">
      <g>
       <use xlink:href="#mf01166666f" x="54.245" y="120.895188" style="stroke: #000000; stroke-width: 0.8"/>
      </g>
     </g>
     <g id="text_14">
      <!-- 0.05 -->
      <g transform="translate(24.979375 124.694407) scale(0.1 -0.1)">
       <use xlink:href="#DejaVuSans-30"/>
       <use xlink:href="#DejaVuSans-2e" transform="translate(63.623047 0)"/>
       <use xlink:href="#DejaVuSans-30" transform="translate(95.410156 0)"/>
       <use xlink:href="#DejaVuSans-35" transform="translate(159.033203 0)"/>
      </g>
     </g>
    </g>
    <g id="ytick_7">
     <g id="line2d_27">
      <path d="M 54.245 83.483479 
L 565.2 83.483479 
" clip-path="url(#p3dc7bc2cf7)" style="fill: none; stroke: #b0b0b0; stroke-width: 0.8; stroke-linecap: square"/>
     </g>
     <g id="line2d_28">
      <g>
       <use xlink:href="#mf01166666f" x="54.245" y="83.483479" style="stroke: #000000; stroke-width: 0.8"/>
      </g>
     </g>
     <g id="text_15">
      <!-- 0.06 -->
      <g transform="translate(24.979375 87.282697) scale(0.1 -0.1)">
       <defs>
        <path id="DejaVuSans-36" d="M 2113 2584 
Q 1688 2584 1439 2293 
Q 1191 2003 1191 1497 
Q 1191 994 1439 701 
Q 1688 409 2113 409 
Q 2538 409 2786 701 
Q 3034 994 3034 1497 
Q 3034 2003 2786 2293 
Q 2538 2584 2113 2584 
z
M 3366 4563 
L 3366 3988 
Q 3128 4100 2886 4159 
Q 2644 4219 2406 4219 
Q 1781 4219 1451 3797 
Q 1122 3375 1075 2522 
Q 1259 2794 1537 2939 
Q 1816 3084 2150 3084 
Q 2853 3084 3261 2657 
Q 3669 2231 3669 1497 
Q 3669 778 3244 343 
Q 2819 -91 2113 -91 
Q 1303 -91 875 529 
Q 447 1150 447 2328 
Q 447 3434 972 4092 
Q 1497 4750 2381 4750 
Q 2619 4750 2861 4703 
Q 3103 4656 3366 4563 
z
" transform="scale(0.015625)"/>
       </defs>
       <use xlink:href="#DejaVuSans-30"/>
       <use xlink:href="#DejaVuSans-2e" transform="translate(63.623047 0)"/>
       <use xlink:href="#DejaVuSans-30" transform="translate(95.410156 0)"/>
       <use xlink:href="#DejaVuSans-36" transform="translate(159.033203 0)"/>
      </g>
     </g>
    </g>
    <g id="ytick_8">
     <g id="line2d_29">
      <path d="M 54.245 46.071769 
L 565.2 46.071769 
" clip-path="url(#p3dc7bc2cf7)" style="fill: none; stroke: #b0b0b0; stroke-width: 0.8; stroke-linecap: square"/>
     </g>
     <g id="line2d_30">
      <g>
       <use xlink:href="#mf01166666f" x="54.245" y="46.071769" style="stroke: #000000; stroke-width: 0.8"/>
      </g>
     </g>
     <g id="text_16">
      <!-- 0.07 -->
      <g transform="translate(24.979375 49.870988) scale(0.1 -0.1)">
       <defs>
        <path id="DejaVuSans-37" d="M 525 4666 
L 3525 4666 
L 3525 4397 
L 1831 0 
L 1172 0 
L 2766 4134 
L 525 4134 
L 525 4666 
z
" transform="scale(0.015625)"/>
       </defs>
       <use xlink:href="#DejaVuSans-30"/>
       <use xlink:href="#DejaVuSans-2e" transform="translate(63.623047 0)"/>
       <use xlink:href="#DejaVuSans-30" transform="translate(95.410156 0)"/>
       <use xlink:href="#DejaVuSans-37" transform="translate(159.033203 0)"/>
      </g>
     </g>
    </g>
    <g id="text_17">
     <!-- commanded torque  [Nm] -->
     <g transform="translate(18.899688 236.99375) rotate(-90) scale(0.1 -0.1)">
      <defs>
       <path id="DejaVuSans-63" d="M 3122 3366 
L 3122 2828 
Q 2878 2963 2633 3030 
Q 2388 3097 2138 3097 
Q 1578 3097 1268 2742 
Q 959 2388 959 1747 
Q 959 1106 1268 751 
Q 1578 397 2138 397 
Q 2388 397 2633 464 
Q 2878 531 3122 666 
L 3122 134 
Q 2881 22 2623 -34 
Q 2366 -91 2075 -91 
Q 1284 -91 818 406 
Q 353 903 353 1747 
Q 353 2603 823 3093 
Q 1294 3584 2113 3584 
Q 2378 3584 2631 3529 
Q 2884 3475 3122 3366 
z
" transform="scale(0.015625)"/>
       <path id="DejaVuSans-6f" d="M 1959 3097 
Q 1497 3097 1228 2736 
Q 959 2375 959 1747 
Q 959 1119 1226 758 
Q 1494 397 1959 397 
Q 2419 397 2687 759 
Q 2956 1122 2956 1747 
Q 2956 2369 2687 2733 
Q 2419 3097 1959 3097 
z
M 1959 3584 
Q 2709 3584 3137 3096 
Q 3566 2609 3566 1747 
Q 3566 888 3137 398 
Q 2709 -91 1959 -91 
Q 1206 -91 779 398 
Q 353 888 353 1747 
Q 353 2609 779 3096 
Q 1206 3584 1959 3584 
z
" transform="scale(0.015625)"/>
       <path id="DejaVuSans-61" d="M 2194 1759 
Q 1497 1759 1228 1600 
Q 959 1441 959 1056 
Q 959 750 1161 570 
Q 1363 391 1709 391 
Q 2188 391 2477 730 
Q 2766 1069 2766 1631 
L 2766 1759 
L 2194 1759 
z
M 3341 1997 
L 3341 0 
L 2766 0 
L 2766 531 
Q 2569 213 2275 61 
Q 1981 -91 1556 -91 
Q 1019 -91 701 211 
Q 384 513 384 1019 
Q 384 1609 779 1909 
Q 1175 2209 1959 2209 
L 2766 2209 
L 2766 2266 
Q 2766 2663 2505 2880 
Q 2244 3097 1772 3097 
Q 1472 3097 1187 3025 
Q 903 2953 641 2809 
L 641 3341 
Q 956 3463 1253 3523 
Q 1550 3584 1831 3584 
Q 2591 3584 2966 3190 
Q 3341 2797 3341 1997 
z
" transform="scale(0.015625)"/>
       <path id="DejaVuSans-6e" d="M 3513 2113 
L 3513 0 
L 2938 0 
L 2938 2094 
Q 2938 2591 2744 2837 
Q 2550 3084 2163 3084 
Q 1697 3084 1428 2787 
Q 1159 2491 1159 1978 
L 1159 0 
L 581 0 
L 581 3500 
L 1159 3500 
L 1159 2956 
Q 1366 3272 1645 3428 
Q 1925 3584 2291 3584 
Q 2894 3584 3203 3211 
Q 3513 2838 3513 2113 
z
" transform="scale(0.015625)"/>
       <path id="DejaVuSans-64" d="M 2906 2969 
L 2906 4863 
L 3481 4863 
L 3481 0 
L 2906 0 
L 2906 525 
Q 2725 213 2448 61 
Q 2172 -91 1784 -91 
Q 1150 -91 751 415 
Q 353 922 353 1747 
Q 353 2572 751 3078 
Q 1150 3584 1784 3584 
Q 2172 3584 2448 3432 
Q 2725 3281 2906 2969 
z
M 947 1747 
Q 947 1113 1208 752 
Q 1469 391 1925 391 
Q 2381 391 2643 752 
Q 2906 1113 2906 1747 
Q 2906 2381 2643 2742 
Q 2381 3103 1925 3103 
Q 1469 3103 1208 2742 
Q 947 2381 947 1747 
z
" transform="scale(0.015625)"/>
       <path id="DejaVuSans-72" d="M 2631 2963 
Q 2534 3019 2420 3045 
Q 2306 3072 2169 3072 
Q 1681 3072 1420 2755 
Q 1159 2438 1159 1844 
L 1159 0 
L 581 0 
L 581 3500 
L 1159 3500 
L 1159 2956 
Q 1341 3275 1631 3429 
Q 1922 3584 2338 3584 
Q 2397 3584 2469 3576 
Q 2541 3569 2628 3553 
L 2631 2963 
z
" transform="scale(0.015625)"/>
       <path id="DejaVuSans-71" d="M 947 1747 
Q 947 1113 1208 752 
Q 1469 391 1925 391 
Q 2381 391 2643 752 
Q 2906 1113 2906 1747 
Q 2906 2381 2643 2742 
Q 2381 3103 1925 3103 
Q 1469 3103 1208 2742 
Q 947 2381 947 1747 
z
M 2906 525 
Q 2725 213 2448 61 
Q 2172 -91 1784 -91 
Q 1150 -91 751 415 
Q 353 922 353 1747 
Q 353 2572 751 3078 
Q 1150 3584 1784 3584 
Q 2172 3584 2448 3432 
Q 2725 3281 2906 2969 
L 2906 3500 
L 3481 3500 
L 3481 -1331 
L 2906 -1331 
L 2906 525 
z
" transform="scale(0.015625)"/>
       <path id="DejaVuSans-75" d="M 544 1381 
L 544 3500 
L 1119 3500 
L 1119 1403 
Q 1119 906 1312 657 
Q 1506 409 1894 409 
Q 2359 409 2629 706 
Q 2900 1003 2900 1516 
L 2900 3500 
L 3475 3500 
L 3475 0 
L 2900 0 
L 2900 538 
Q 2691 219 2414 64 
Q 2138 -91 1772 -91 
Q 1169 -91 856 284 
Q 544 659 544 1381 
z
M 1991 3584 
L 1991 3584 
z
" transform="scale(0.015625)"/>
       <path id="DejaVuSans-4e" d="M 628 4666 
L 1478 4666 
L 3547 763 
L 3547 4666 
L 4159 4666 
L 4159 0 
L 3309 0 
L 1241 3903 
L 1241 0 
L 628 0 
L 628 4666 
z
" transform="scale(0.015625)"/>
      </defs>
      <use xlink:href="#DejaVuSans-63"/>
      <use xlink:href="#DejaVuSans-6f" transform="translate(54.980469 0)"/>
      <use xlink:href="#DejaVuSans-6d" transform="translate(116.162109 0)"/>
      <use xlink:href="#DejaVuSans-6d" transform="translate(213.574219 0)"/>
      <use xlink:href="#DejaVuSans-61" transform="translate(310.986328 0)"/>
      <use xlink:href="#DejaVuSans-6e" transform="translate(372.265625 0)"/>
      <use xlink:href="#DejaVuSans-64" transform="translate(435.644531 0)"/>
      <use xlink:href="#DejaVuSans-65" transform="translate(499.121094 0)"/>
      <use xlink:href="#DejaVuSans-64" transform="translate(560.644531 0)"/>
      <use xlink:href="#DejaVuSans-20" transform="translate(624.121094 0)"/>
      <use xlink:href="#DejaVuSans-74" transform="translate(655.908203 0)"/>
      <use xlink:href="#DejaVuSans-6f" transform="translate(695.117188 0)"/>
      <use xlink:href="#DejaVuSans-72" transform="translate(756.298828 0)"/>
      <use xlink:href="#DejaVuSans-71" transform="translate(795.662109 0)"/>
      <use xlink:href="#DejaVuSans-75" transform="translate(859.138672 0)"/>
      <use xlink:href="#DejaVuSans-65" transform="translate(922.517578 0)"/>
      <use xlink:href="#DejaVuSans-20" transform="translate(984.041016 0)"/>
      <use xlink:href="#DejaVuSans-20" transform="translate(1015.828125 0)"/>
      <use xlink:href="#DejaVuSans-5b" transform="translate(1047.615234 0)"/>
      <use xlink:href="#DejaVuSans-4e" transform="translate(1086.628906 0)"/>
      <use xlink:href="#DejaVuSans-6d" transform="translate(1161.433594 0)"/>
      <use xlink:href="#DejaVuSans-5d" transform="translate(1258.845703 0)"/>
     </g>
    </g>
   </g>
   <g id="line2d_31">
    <path d="M 77.470227 276.392432 
L 79.526701 277.229015 
L 81.611199 289.342409 
L 83.724148 298.244196 
L 85.661481 295.632772 
L 87.616439 292.495096 
L 89.645625 286.852207 
L 91.68922 268.347308 
L 93.715952 268.174999 
L 95.838636 266.659882 
L 97.932165 269.390614 
L 99.999672 277.177051 
L 101.89973 281.182873 
L 103.841028 291.504122 
L 105.935365 293.166054 
L 107.947733 291.294491 
L 109.997183 288.31883 
L 112.138027 272.702054 
L 114.234746 264.307764 
L 116.209839 259.684739 
L 118.417867 266.564699 
L 120.489996 270.588421 
L 122.53698 275.392585 
L 124.553887 277.932914 
L 126.557682 289.907458 
L 128.690482 288.339534 
L 130.683438 289.210483 
L 132.663482 291.400896 
L 134.62385 280.303533 
L 136.518221 274.32875 
L 138.506794 268.652938 
L 140.468478 260.114544 
L 142.595029 255.508139 
L 144.669805 256.489136 
L 146.714052 255.779585 
L 151.044828 259.237903 
L 153.161921 260.866927 
L 155.069345 262.523183 
L 156.884531 269.835136 
L 158.847164 270.579662 
L 160.922986 280.87892 
L 162.915619 275.577643 
L 165.024965 276.040994 
L 167.189379 272.402991 
L 169.289655 265.864427 
L 171.206266 258.815561 
L 173.33057 251.8791 
L 175.447314 251.227057 
L 177.526783 247.589956 
L 181.587407 253.804929 
L 183.590318 257.404525 
L 185.663299 264.945923 
L 187.755531 268.237851 
L 189.83063 273.458687 
L 191.801908 272.025056 
L 193.72877 274.109581 
L 195.713166 273.658891 
L 197.715231 267.047907 
L 199.666012 262.989538 
L 201.569298 254.601948 
L 203.472753 251.000473 
L 205.550595 249.963808 
L 207.724447 253.505567 
L 209.690424 260.243032 
L 211.707512 264.732081 
L 213.761926 264.675553 
L 215.984202 277.950433 
L 217.978056 280.100029 
L 220.114426 276.125606 
L 222.238497 265.446486 
L 224.292847 261.527085 
L 226.225203 260.687318 
L 228.235241 258.90867 
L 230.296518 258.046266 
L 232.264704 257.391216 
L 234.426393 267.444647 
L 238.528811 278.781164 
L 240.461968 282.585135 
L 242.533936 283.596216 
L 244.564032 267.252867 
L 246.615715 259.978254 
L 248.80734 256.158698 
L 250.838578 253.297467 
L 255.017342 277.047367 
L 256.989917 279.324943 
L 259.393541 282.774922 
L 261.462952 287.731247 
L 263.439478 265.736778 
L 265.524196 257.431532 
L 267.658313 256.463708 
L 269.545505 265.742269 
L 271.552973 277.160758 
L 273.479888 281.891783 
L 275.518395 293.924928 
L 277.463592 288.245161 
L 279.453546 274.276086 
L 283.486785 259.684383 
L 285.633465 263.234204 
L 287.935824 270.634507 
L 290.131464 280.254721 
L 292.054711 281.417325 
L 293.991244 287.7376 
L 297.939423 263.091779 
L 300.046128 253.730251 
L 302.060756 262.776337 
L 304.053906 265.444256 
L 306.008916 273.933526 
L 308.098036 284.384343 
L 310.114865 288.84588 
L 312.107738 280.282948 
L 314.002005 278.379541 
L 316.000274 262.724861 
L 318.012042 264.366982 
L 320.369669 260.72802 
L 322.328868 268.319082 
L 324.967479 280.581642 
L 327.018182 283.525423 
L 329.118677 284.284084 
L 331.064623 274.916952 
L 333.193297 272.593774 
L 335.237551 264.49993 
L 337.305044 266.565748 
L 339.387561 266.407389 
L 341.353235 291.154471 
L 343.543568 288.853513 
L 345.580061 295.419049 
L 347.622998 288.440606 
L 349.770323 268.867881 
L 351.736604 269.359838 
L 353.718689 270.768438 
L 355.78156 273.833462 
L 357.926019 291.52655 
L 360.016818 294.280449 
L 362.004764 299.397485 
L 363.943021 282.501836 
L 366.018301 270.606602 
L 367.950844 266.671836 
L 369.910805 276.794718 
L 371.8589 298.446765 
L 373.831799 304.772727 
L 375.878124 302.434932 
L 377.911926 290.816246 
L 380.001801 281.041566 
L 381.960097 273.988859 
L 383.930367 273.994246 
L 385.791524 281.359548 
L 387.838269 288.370697 
L 389.825079 292.58382 
L 391.836163 288.057546 
L 393.956858 285.437227 
L 395.903191 267.180886 
L 397.978826 265.085721 
L 399.988302 267.486001 
L 402.018204 274.458318 
L 404.190235 275.539912 
L 406.125348 288.311118 
L 408.209162 292.462382 
L 410.389411 291.757558 
L 412.481243 281.414972 
L 414.289146 271.386256 
L 416.203013 265.349906 
L 418.434353 263.929748 
L 420.534997 267.188297 
L 422.605861 272.942166 
L 424.566835 280.272743 
L 426.583116 295.288836 
L 428.657666 287.36073 
L 430.603127 288.073977 
L 432.674823 282.633019 
L 434.690917 272.188345 
L 436.709722 270.595428 
L 438.73138 273.466561 
L 440.740985 289.297323 
L 442.775716 286.339853 
L 444.783753 292.630762 
L 446.740647 297.16064 
L 448.738478 286.881543 
L 450.762344 285.304253 
L 452.718715 271.219016 
L 454.648515 271.345473 
L 456.811218 278.672698 
L 458.755711 291.122082 
L 460.846116 296.265346 
L 463.128224 302.400952 
L 465.228409 293.917788 
L 467.205749 273.923599 
L 469.253294 269.021814 
L 471.275527 273.455133 
L 473.330361 284.388372 
L 475.474104 294.768001 
L 477.379185 303.200404 
L 481.646469 295.061541 
L 483.619942 279.77903 
L 485.691477 269.387739 
L 487.862772 265.94292 
L 489.803837 269.78335 
L 491.94379 267.844205 
L 494.035344 273.932707 
L 496.215141 278.051929 
L 498.317548 285.052144 
L 500.406539 284.972972 
L 502.385964 279.699154 
L 506.545057 260.222722 
L 508.524017 263.829615 
L 510.56266 262.009234 
L 512.507347 264.937477 
L 514.429058 268.983892 
L 516.437476 272.306248 
L 518.638041 278.659956 
L 520.691681 286.695826 
L 522.539454 285.069447 
L 524.505606 286.988798 
L 526.504437 282.727278 
L 528.570549 275.684324 
L 530.647481 267.264763 
L 532.7636 261.131732 
L 534.786536 260.194493 
L 536.820422 262.769647 
L 539.127048 262.241719 
L 541.974773 269.080531 
L 541.974773 269.080531 
" clip-path="url(#p3dc7bc2cf7)" style="fill: none; stroke: #1f77b4; stroke-width: 0.9; stroke-linecap: square"/>
   </g>
   <g id="line2d_32">
    <path d="M 77.470253 90.619995 
L 79.485133 82.956555 
L 81.529057 69.685501 
L 83.473886 73.320759 
L 85.487487 53.622388 
L 87.573405 69.397118 
L 89.494122 67.785143 
L 91.481268 86.065721 
L 93.628245 85.882632 
L 95.564926 66.550998 
L 97.629728 85.244152 
L 99.636299 50.29051 
L 101.528456 86.776129 
L 103.499902 103.606569 
L 105.630997 74.45269 
L 107.696858 87.48867 
L 109.656547 59.104097 
L 111.72805 81.834812 
L 113.707352 52.679916 
L 115.721425 79.565153 
L 117.66167 86.699281 
L 119.720933 63.214465 
L 121.929316 99.79735 
L 123.79831 57.998562 
L 125.764359 85.575419 
L 127.769484 86.667616 
L 129.884995 73.606578 
L 131.906627 94.90484 
L 133.858015 62.884772 
L 135.781056 83.338038 
L 137.840041 72.154738 
L 139.844179 81.465037 
L 141.980471 88.863048 
L 143.95211 67.929474 
L 145.981728 87.202391 
L 147.979049 52.666732 
L 150.206734 84.761432 
L 152.372704 65.166836 
L 154.363052 78.00441 
L 156.351508 83.979472 
L 158.438905 47.433715 
L 160.604906 77.677992 
L 162.697855 47.564917 
L 164.754891 88.580685 
L 166.812417 68.092954 
L 168.880311 74.677214 
L 170.659125 81.942364 
L 172.555826 52.224178 
L 174.567897 86.88021 
L 176.557051 81.163943 
L 178.58226 80.601086 
L 180.657714 90.906358 
L 182.650896 59.099609 
L 184.735071 73.793054 
L 186.75866 39.427273 
L 188.898347 74.642107 
L 190.7429 91.567136 
L 192.77315 68.035171 
L 194.783853 78.405487 
L 196.799288 45.790186 
L 198.770469 92.582527 
L 200.67229 93.986409 
L 202.555899 81.466556 
L 204.463291 96.154566 
L 206.404408 65.039118 
L 208.353885 86.360125 
L 210.564851 85.995758 
L 212.758709 92.344734 
L 214.70151 94.431193 
L 216.761696 81.136432 
L 218.791805 111.520901 
L 220.578262 75.297771 
L 222.484576 90.289606 
L 224.405551 100.781563 
L 226.453271 75.729356 
L 228.579989 102.709545 
L 230.635953 47.820465 
L 232.795518 87.917482 
L 234.767468 79.491956 
L 236.796382 83.674099 
L 238.776988 101.177386 
L 240.838123 66.525159 
L 242.906676 106.06913 
L 244.989683 70.528129 
L 247.343249 97.244185 
L 249.385559 76.951794 
L 251.352795 99.312929 
L 253.600875 112.9156 
L 255.678769 80.304494 
L 257.613617 104.386369 
L 259.648496 69.13619 
L 261.773627 90.54344 
L 263.916827 78.766231 
L 265.80848 80.883435 
L 267.840751 94.75361 
L 269.855934 68.529933 
L 271.945875 101.797232 
L 273.996357 61.483635 
L 276.072915 90.225203 
L 278.098602 94.958135 
L 279.96602 74.495894 
L 281.971384 101.74738 
L 283.957807 48.399016 
L 286.039845 84.24904 
L 290.124285 88.403658 
L 292.251352 94.906568 
L 294.131359 70.958168 
L 296.201035 86.014517 
L 298.276107 60.661383 
L 300.294622 90.021027 
L 302.35105 85.744349 
L 304.359158 73.425342 
L 306.357414 92.200375 
L 308.395115 68.691156 
L 310.467683 84.645379 
L 312.49949 73.355239 
L 314.492794 98.050479 
L 316.547758 107.406436 
L 318.539797 76.126489 
L 320.622036 94.913383 
L 322.494709 64.85568 
L 324.452707 92.68081 
L 326.451564 93.868433 
L 328.492195 70.785656 
L 330.44714 97.372865 
L 332.484034 65.889355 
L 334.43253 96.411926 
L 336.468946 86.044858 
L 338.614031 95.16298 
L 340.745352 100.053469 
L 342.716436 65.515093 
L 344.957201 97.434159 
L 347.295209 65.583384 
L 349.214409 91.348493 
L 351.301276 72.903961 
L 353.239746 83.744955 
L 355.193748 84.941706 
L 357.271235 60.115306 
L 359.356811 95.153545 
L 361.337618 66.779675 
L 363.363705 86.247877 
L 365.389901 90.682893 
L 367.326493 71.291177 
L 369.440939 92.011307 
L 371.493488 64.225061 
L 373.352352 91.518301 
L 375.257033 95.992939 
L 377.063122 74.765379 
L 379.013606 107.196378 
L 380.967021 69.093069 
L 382.927382 90.455386 
L 385.071053 97.165413 
L 387.100116 95.751175 
L 389.051265 96.144086 
L 391.109204 61.092843 
L 393.000141 81.683443 
L 395.041857 65.940532 
L 397.165683 86.101539 
L 399.179291 95.56796 
L 401.28468 71.706526 
L 403.428093 103.508829 
L 405.494696 68.189314 
L 407.50709 86.516038 
L 409.72495 47.551928 
L 412.036289 82.009693 
L 414.072841 89.918172 
L 418.207745 95.586566 
L 420.22602 67.722454 
L 422.120462 90.466786 
L 424.200435 64.375831 
L 426.23452 90.799155 
L 428.309277 85.094372 
L 430.471695 77.190102 
L 432.395117 92.305153 
L 434.409842 50.638627 
L 436.491318 81.527558 
L 438.4882 85.662567 
L 440.47186 83.36226 
L 442.558985 90.749093 
L 444.472342 61.598364 
L 446.538319 90.086963 
L 448.622662 57.327387 
L 450.715327 73.326306 
L 452.781678 86.613179 
L 454.722304 73.165278 
L 456.814162 85.938449 
L 458.883295 58.184063 
L 460.974765 72.015424 
L 462.940362 55.842098 
L 465.120883 90.571913 
L 467.121831 90.43147 
L 469.428167 67.050498 
L 471.49497 76.716078 
L 473.464388 57.220908 
L 475.52063 85.874897 
L 477.587646 63.369639 
L 479.703351 91.734477 
L 481.646759 79.947122 
L 483.513933 59.510247 
L 485.405024 97.156661 
L 487.332371 81.243356 
L 489.282616 102.873847 
L 491.352601 90.947932 
L 493.408146 67.679082 
L 495.515755 85.606164 
L 497.776875 59.546455 
L 500.184818 86.671546 
L 502.129304 61.518199 
L 504.144216 87.544905 
L 506.273291 76.810027 
L 508.350016 83.006464 
L 510.36019 96.412679 
L 512.306839 54.810848 
L 514.289498 72.146822 
L 516.377412 71.773005 
L 518.461193 87.370693 
L 520.621843 92.178662 
L 522.566904 74.52657 
L 524.550345 96.924248 
L 526.550066 50.87444 
L 528.699715 78.929544 
L 530.673808 82.104005 
L 532.632626 83.744732 
L 534.682309 101.662169 
L 536.702682 62.722992 
L 538.628583 96.722511 
L 540.732913 63.510959 
L 540.732913 63.510959 
" clip-path="url(#p3dc7bc2cf7)" style="fill: none; stroke: #ff7f0e; stroke-width: 0.9; stroke-linecap: square"/>
   </g>
   <g id="patch_3">
    <path d="M 54.245 318.04 
L 54.245 26.16 
" style="fill: none; stroke: #000000; stroke-width: 0.8; stroke-linejoin: miter; stroke-linecap: square"/>
   </g>
   <g id="patch_4">
    <path d="M 565.2 318.04 
L 565.2 26.16 
" style="fill: none; stroke: #000000; stroke-width: 0.8; stroke-linejoin: miter; stroke-linecap: square"/>
   </g>
   <g id="patch_5">
    <path d="M 54.245 318.04 
L 565.2 318.04 
" style="fill: none; stroke: #000000; stroke-width: 0.8; stroke-linejoin: miter; stroke-linecap: square"/>
   </g>
   <g id="patch_6">
    <path d="M 54.245 26.16 
L 565.2 26.16 
" style="fill: none; stroke: #000000; stroke-width: 0.8; stroke-linejoin: miter; stroke-linecap: square"/>
   </g>
   <g id="text_18">
    <!-- Holding-torque ripple, low vs high speed (horn, id=2) -->
    <g transform="translate(149.888125 20.16) scale(0.12 -0.12)">
     <defs>
      <path id="DejaVuSans-48" d="M 628 4666 
L 1259 4666 
L 1259 2753 
L 3553 2753 
L 3553 4666 
L 4184 4666 
L 4184 0 
L 3553 0 
L 3553 2222 
L 1259 2222 
L 1259 0 
L 628 0 
L 628 4666 
z
" transform="scale(0.015625)"/>
      <path id="DejaVuSans-6c" d="M 603 4863 
L 1178 4863 
L 1178 0 
L 603 0 
L 603 4863 
z
" transform="scale(0.015625)"/>
      <path id="DejaVuSans-67" d="M 2906 1791 
Q 2906 2416 2648 2759 
Q 2391 3103 1925 3103 
Q 1463 3103 1205 2759 
Q 947 2416 947 1791 
Q 947 1169 1205 825 
Q 1463 481 1925 481 
Q 2391 481 2648 825 
Q 2906 1169 2906 1791 
z
M 3481 434 
Q 3481 -459 3084 -895 
Q 2688 -1331 1869 -1331 
Q 1566 -1331 1297 -1286 
Q 1028 -1241 775 -1147 
L 775 -588 
Q 1028 -725 1275 -790 
Q 1522 -856 1778 -856 
Q 2344 -856 2625 -561 
Q 2906 -266 2906 331 
L 2906 616 
Q 2728 306 2450 153 
Q 2172 0 1784 0 
Q 1141 0 747 490 
Q 353 981 353 1791 
Q 353 2603 747 3093 
Q 1141 3584 1784 3584 
Q 2172 3584 2450 3431 
Q 2728 3278 2906 2969 
L 2906 3500 
L 3481 3500 
L 3481 434 
z
" transform="scale(0.015625)"/>
      <path id="DejaVuSans-2d" d="M 313 2009 
L 1997 2009 
L 1997 1497 
L 313 1497 
L 313 2009 
z
" transform="scale(0.015625)"/>
      <path id="DejaVuSans-70" d="M 1159 525 
L 1159 -1331 
L 581 -1331 
L 581 3500 
L 1159 3500 
L 1159 2969 
Q 1341 3281 1617 3432 
Q 1894 3584 2278 3584 
Q 2916 3584 3314 3078 
Q 3713 2572 3713 1747 
Q 3713 922 3314 415 
Q 2916 -91 2278 -91 
Q 1894 -91 1617 61 
Q 1341 213 1159 525 
z
M 3116 1747 
Q 3116 2381 2855 2742 
Q 2594 3103 2138 3103 
Q 1681 3103 1420 2742 
Q 1159 2381 1159 1747 
Q 1159 1113 1420 752 
Q 1681 391 2138 391 
Q 2594 391 2855 752 
Q 3116 1113 3116 1747 
z
" transform="scale(0.015625)"/>
      <path id="DejaVuSans-2c" d="M 750 794 
L 1409 794 
L 1409 256 
L 897 -744 
L 494 -744 
L 750 256 
L 750 794 
z
" transform="scale(0.015625)"/>
      <path id="DejaVuSans-77" d="M 269 3500 
L 844 3500 
L 1563 769 
L 2278 3500 
L 2956 3500 
L 3675 769 
L 4391 3500 
L 4966 3500 
L 4050 0 
L 3372 0 
L 2619 2869 
L 1863 0 
L 1184 0 
L 269 3500 
z
" transform="scale(0.015625)"/>
      <path id="DejaVuSans-76" d="M 191 3500 
L 800 3500 
L 1894 563 
L 2988 3500 
L 3597 3500 
L 2284 0 
L 1503 0 
L 191 3500 
z
" transform="scale(0.015625)"/>
      <path id="DejaVuSans-68" d="M 3513 2113 
L 3513 0 
L 2938 0 
L 2938 2094 
Q 2938 2591 2744 2837 
Q 2550 3084 2163 3084 
Q 1697 3084 1428 2787 
Q 1159 2491 1159 1978 
L 1159 0 
L 581 0 
L 581 4863 
L 1159 4863 
L 1159 2956 
Q 1366 3272 1645 3428 
Q 1925 3584 2291 3584 
Q 2894 3584 3203 3211 
Q 3513 2838 3513 2113 
z
" transform="scale(0.015625)"/>
      <path id="DejaVuSans-28" d="M 1984 4856 
Q 1566 4138 1362 3434 
Q 1159 2731 1159 2009 
Q 1159 1288 1364 580 
Q 1569 -128 1984 -844 
L 1484 -844 
Q 1016 -109 783 600 
Q 550 1309 550 2009 
Q 550 2706 781 3412 
Q 1013 4119 1484 4856 
L 1984 4856 
z
" transform="scale(0.015625)"/>
      <path id="DejaVuSans-3d" d="M 678 2906 
L 4684 2906 
L 4684 2381 
L 678 2381 
L 678 2906 
z
M 678 1631 
L 4684 1631 
L 4684 1100 
L 678 1100 
L 678 1631 
z
" transform="scale(0.015625)"/>
      <path id="DejaVuSans-29" d="M 513 4856 
L 1013 4856 
Q 1481 4119 1714 3412 
Q 1947 2706 1947 2009 
Q 1947 1309 1714 600 
Q 1481 -109 1013 -844 
L 513 -844 
Q 928 -128 1133 580 
Q 1338 1288 1338 2009 
Q 1338 2731 1133 3434 
Q 928 4138 513 4856 
z
" transform="scale(0.015625)"/>
     </defs>
     <use xlink:href="#DejaVuSans-48"/>
     <use xlink:href="#DejaVuSans-6f" transform="translate(75.195312 0)"/>
     <use xlink:href="#DejaVuSans-6c" transform="translate(136.376953 0)"/>
     <use xlink:href="#DejaVuSans-64" transform="translate(164.160156 0)"/>
     <use xlink:href="#DejaVuSans-69" transform="translate(227.636719 0)"/>
     <use xlink:href="#DejaVuSans-6e" transform="translate(255.419922 0)"/>
     <use xlink:href="#DejaVuSans-67" transform="translate(318.798828 0)"/>
     <use xlink:href="#DejaVuSans-2d" transform="translate(382.275391 0)"/>
     <use xlink:href="#DejaVuSans-74" transform="translate(418.359375 0)"/>
     <use xlink:href="#DejaVuSans-6f" transform="translate(457.568359 0)"/>
     <use xlink:href="#DejaVuSans-72" transform="translate(518.75 0)"/>
     <use xlink:href="#DejaVuSans-71" transform="translate(558.113281 0)"/>
     <use xlink:href="#DejaVuSans-75" transform="translate(621.589844 0)"/>
     <use xlink:href="#DejaVuSans-65" transform="translate(684.96875 0)"/>
     <use xlink:href="#DejaVuSans-20" transform="translate(746.492188 0)"/>
     <use xlink:href="#DejaVuSans-72" transform="translate(778.279297 0)"/>
     <use xlink:href="#DejaVuSans-69" transform="translate(819.392578 0)"/>
     <use xlink:href="#DejaVuSans-70" transform="translate(847.175781 0)"/>
     <use xlink:href="#DejaVuSans-70" transform="translate(910.652344 0)"/>
     <use xlink:href="#DejaVuSans-6c" transform="translate(974.128906 0)"/>
     <use xlink:href="#DejaVuSans-65" transform="translate(1001.912109 0)"/>
     <use xlink:href="#DejaVuSans-2c" transform="translate(1063.435547 0)"/>
     <use xlink:href="#DejaVuSans-20" transform="translate(1095.222656 0)"/>
     <use xlink:href="#DejaVuSans-6c" transform="translate(1127.009766 0)"/>
     <use xlink:href="#DejaVuSans-6f" transform="translate(1154.792969 0)"/>
     <use xlink:href="#DejaVuSans-77" transform="translate(1215.974609 0)"/>
     <use xlink:href="#DejaVuSans-20" transform="translate(1297.761719 0)"/>
     <use xlink:href="#DejaVuSans-76" transform="translate(1329.548828 0)"/>
     <use xlink:href="#DejaVuSans-73" transform="translate(1388.728516 0)"/>
     <use xlink:href="#DejaVuSans-20" transform="translate(1440.828125 0)"/>
     <use xlink:href="#DejaVuSans-68" transform="translate(1472.615234 0)"/>
     <use xlink:href="#DejaVuSans-69" transform="translate(1535.994141 0)"/>
     <use xlink:href="#DejaVuSans-67" transform="translate(1563.777344 0)"/>
     <use xlink:href="#DejaVuSans-68" transform="translate(1627.253906 0)"/>
     <use xlink:href="#DejaVuSans-20" transform="translate(1690.632812 0)"/>
     <use xlink:href="#DejaVuSans-73" transform="translate(1722.419922 0)"/>
     <use xlink:href="#DejaVuSans-70" transform="translate(1774.519531 0)"/>
     <use xlink:href="#DejaVuSans-65" transform="translate(1837.996094 0)"/>
     <use xlink:href="#DejaVuSans-65" transform="translate(1899.519531 0)"/>
     <use xlink:href="#DejaVuSans-64" transform="translate(1961.042969 0)"/>
     <use xlink:href="#DejaVuSans-20" transform="translate(2024.519531 0)"/>
     <use xlink:href="#DejaVuSans-28" transform="translate(2056.306641 0)"/>
     <use xlink:href="#DejaVuSans-68" transform="translate(2095.320312 0)"/>
     <use xlink:href="#DejaVuSans-6f" transform="translate(2158.699219 0)"/>
     <use xlink:href="#DejaVuSans-72" transform="translate(2219.880859 0)"/>
     <use xlink:href="#DejaVuSans-6e" transform="translate(2259.244141 0)"/>
     <use xlink:href="#DejaVuSans-2c" transform="translate(2322.623047 0)"/>
     <use xlink:href="#DejaVuSans-20" transform="translate(2354.410156 0)"/>
     <use xlink:href="#DejaVuSans-69" transform="translate(2386.197266 0)"/>
     <use xlink:href="#DejaVuSans-64" transform="translate(2413.980469 0)"/>
     <use xlink:href="#DejaVuSans-3d" transform="translate(2477.457031 0)"/>
     <use xlink:href="#DejaVuSans-32" transform="translate(2561.246094 0)"/>
     <use xlink:href="#DejaVuSans-29" transform="translate(2624.869141 0)"/>
    </g>
   </g>
   <g id="legend_1">
    <g id="patch_7">
     <path d="M 385.590625 188.278125 
L 558.2 188.278125 
Q 560.2 188.278125 560.2 186.278125 
L 560.2 157.921875 
Q 560.2 155.921875 558.2 155.921875 
L 385.590625 155.921875 
Q 383.590625 155.921875 383.590625 157.921875 
L 383.590625 186.278125 
Q 383.590625 188.278125 385.590625 188.278125 
z
" style="fill: #ffffff; opacity: 0.8; stroke: #cccccc; stroke-linejoin: miter"/>
    </g>
    <g id="line2d_33">
     <path d="M 387.590625 164.020312 
L 397.590625 164.020312 
L 407.590625 164.020312 
" style="fill: none; stroke: #1f77b4; stroke-width: 0.9; stroke-linecap: square"/>
    </g>
    <g id="text_19">
     <!-- 0.30 rev/s  (σ=0.0034 Nm) -->
     <g transform="translate(415.590625 167.520312) scale(0.1 -0.1)">
      <defs>
       <path id="DejaVuSans-2f" d="M 1625 4666 
L 2156 4666 
L 531 -594 
L 0 -594 
L 1625 4666 
z
" transform="scale(0.015625)"/>
       <path id="DejaVuSans-3c3" d="M 1959 3044 
Q 1484 3044 1228 2700 
Q 959 2341 959 1747 
Q 959 1119 1226 758 
Q 1494 397 1959 397 
Q 2419 397 2687 759 
Q 2956 1122 2956 1747 
Q 2956 2319 2688 2700 
Q 2441 3044 1959 3044 
z
M 1959 3500 
L 3869 3500 
L 3869 2925 
L 3225 2925 
Q 3566 2438 3566 1747 
Q 3566 888 3138 400 
Q 2709 -91 1959 -91 
Q 1206 -91 781 400 
Q 353 888 353 1747 
Q 353 2613 781 3097 
Q 1134 3500 1959 3500 
z
" transform="scale(0.015625)"/>
      </defs>
      <use xlink:href="#DejaVuSans-30"/>
      <use xlink:href="#DejaVuSans-2e" transform="translate(63.623047 0)"/>
      <use xlink:href="#DejaVuSans-33" transform="translate(95.410156 0)"/>
      <use xlink:href="#DejaVuSans-30" transform="translate(159.033203 0)"/>
      <use xlink:href="#DejaVuSans-20" transform="translate(222.65625 0)"/>
      <use xlink:href="#DejaVuSans-72" transform="translate(254.443359 0)"/>
      <use xlink:href="#DejaVuSans-65" transform="translate(293.306641 0)"/>
      <use xlink:href="#DejaVuSans-76" transform="translate(354.830078 0)"/>
      <use xlink:href="#DejaVuSans-2f" transform="translate(414.009766 0)"/>
      <use xlink:href="#DejaVuSans-73" transform="translate(447.701172 0)"/>
      <use xlink:href="#DejaVuSans-20" transform="translate(499.800781 0)"/>
      <use xlink:href="#DejaVuSans-20" transform="translate(531.587891 0)"/>
      <use xlink:href="#DejaVuSans-28" transform="translate(563.375 0)"/>
      <use xlink:href="#DejaVuSans-3c3" transform="translate(602.388672 0)"/>
      <use xlink:href="#DejaVuSans-3d" transform="translate(665.767578 0)"/>
      <use xlink:href="#DejaVuSans-30" transform="translate(749.556641 0)"/>
      <use xlink:href="#DejaVuSans-2e" transform="translate(813.179688 0)"/>
      <use xlink:href="#DejaVuSans-30" transform="translate(844.966797 0)"/>
      <use xlink:href="#DejaVuSans-30" transform="translate(908.589844 0)"/>
      <use xlink:href="#DejaVuSans-33" transform="translate(972.212891 0)"/>
      <use xlink:href="#DejaVuSans-34" transform="translate(1035.835938 0)"/>
      <use xlink:href="#DejaVuSans-20" transform="translate(1099.458984 0)"/>
      <use xlink:href="#DejaVuSans-4e" transform="translate(1131.246094 0)"/>
      <use xlink:href="#DejaVuSans-6d" transform="translate(1206.050781 0)"/>
      <use xlink:href="#DejaVuSans-29" transform="translate(1303.462891 0)"/>
     </g>
    </g>
    <g id="line2d_34">
     <path d="M 387.590625 178.698437 
L 397.590625 178.698437 
L 407.590625 178.698437 
" style="fill: none; stroke: #ff7f0e; stroke-width: 0.9; stroke-linecap: square"/>
    </g>
    <g id="text_20">
     <!-- 32.00 rev/s  (σ=0.0039 Nm) -->
     <g transform="translate(415.590625 182.198437) scale(0.1 -0.1)">
      <defs>
       <path id="DejaVuSans-39" d="M 703 97 
L 703 672 
Q 941 559 1184 500 
Q 1428 441 1663 441 
Q 2288 441 2617 861 
Q 2947 1281 2994 2138 
Q 2813 1869 2534 1725 
Q 2256 1581 1919 1581 
Q 1219 1581 811 2004 
Q 403 2428 403 3163 
Q 403 3881 828 4315 
Q 1253 4750 1959 4750 
Q 2769 4750 3195 4129 
Q 3622 3509 3622 2328 
Q 3622 1225 3098 567 
Q 2575 -91 1691 -91 
Q 1453 -91 1209 -44 
Q 966 3 703 97 
z
M 1959 2075 
Q 2384 2075 2632 2365 
Q 2881 2656 2881 3163 
Q 2881 3666 2632 3958 
Q 2384 4250 1959 4250 
Q 1534 4250 1286 3958 
Q 1038 3666 1038 3163 
Q 1038 2656 1286 2365 
Q 1534 2075 1959 2075 
z
" transform="scale(0.015625)"/>
      </defs>
      <use xlink:href="#DejaVuSans-33"/>
      <use xlink:href="#DejaVuSans-32" transform="translate(63.623047 0)"/>
      <use xlink:href="#DejaVuSans-2e" transform="translate(127.246094 0)"/>
      <use xlink:href="#DejaVuSans-30" transform="translate(159.033203 0)"/>
      <use xlink:href="#DejaVuSans-30" transform="translate(222.65625 0)"/>
      <use xlink:href="#DejaVuSans-20" transform="translate(286.279297 0)"/>
      <use xlink:href="#DejaVuSans-72" transform="translate(318.066406 0)"/>
      <use xlink:href="#DejaVuSans-65" transform="translate(356.929688 0)"/>
      <use xlink:href="#DejaVuSans-76" transform="translate(418.453125 0)"/>
      <use xlink:href="#DejaVuSans-2f" transform="translate(477.632812 0)"/>
      <use xlink:href="#DejaVuSans-73" transform="translate(511.324219 0)"/>
      <use xlink:href="#DejaVuSans-20" transform="translate(563.423828 0)"/>
      <use xlink:href="#DejaVuSans-20" transform="translate(595.210938 0)"/>
      <use xlink:href="#DejaVuSans-28" transform="translate(626.998047 0)"/>
      <use xlink:href="#DejaVuSans-3c3" transform="translate(666.011719 0)"/>
      <use xlink:href="#DejaVuSans-3d" transform="translate(729.390625 0)"/>
      <use xlink:href="#DejaVuSans-30" transform="translate(813.179688 0)"/>
      <use xlink:href="#DejaVuSans-2e" transform="translate(876.802734 0)"/>
      <use xlink:href="#DejaVuSans-30" transform="translate(908.589844 0)"/>
      <use xlink:href="#DejaVuSans-30" transform="translate(972.212891 0)"/>
      <use xlink:href="#DejaVuSans-33" transform="translate(1035.835938 0)"/>
      <use xlink:href="#DejaVuSans-39" transform="translate(1099.458984 0)"/>
      <use xlink:href="#DejaVuSans-20" transform="translate(1163.082031 0)"/>
      <use xlink:href="#DejaVuSans-4e" transform="translate(1194.869141 0)"/>
      <use xlink:href="#DejaVuSans-6d" transform="translate(1269.673828 0)"/>
      <use xlink:href="#DejaVuSans-29" transform="translate(1367.085938 0)"/>
     </g>
    </g>
   </g>
  </g>
 </g>
 <defs>
  <clipPath id="p3dc7bc2cf7">
   <rect x="54.245" y="26.16" width="510.955" height="291.88"/>
  </clipPath>
 </defs>
</svg>
