<?xml version="1.0" encoding="utf-8" standalone="no"?>
<!DOCTYPE svg PUBLIC "-//W3C//DTD SVG 1.1//EN"
  "http://www.w3.org/Graphics/SVG/1.1/DTD/svg11.dtd">
<svg xmlns:xlink="http://www.w3.org/1999/xlink" width="792pt" height="288pt" viewBox="0 0 792 288" xmlns="http://www.w3.org/2000/svg" version="1.1">
 <metadata>
  <rdf:RDF xmlns:dc="http://purl.org/dc/elements/1.1/" xmlns:cc="http://creativecommons.org/ns#" xmlns:rdf="http://www.w3.org/1999/02/22-rdf-syntax-ns#">
   <cc:Work>
    <dc:type rdf:resource="http://purl.org/dc/dcmitype/StillImage"/>
    <dc:date>2026-06-18T20:59:35.454047</dc:date>
    <dc:format>image/svg+xml</dc:format>
    <dc:creator>
     <cc:Agent>
      <dc:title>Matplotlib v3.10.9, https://matplotlib.org/</dc:title>
     </cc:Agent>
    </dc:creator>
   </cc:Work>
  </rdf:RDF>
 </metadata>
 <defs>
  <style type="text/css">*{stroke-linejoin: round; stroke-linecap: butt}</style>
 </defs>
 <g id="figure_1">
  <g id="patch_1">
   <path d="M 0 288 
L 792 288 
L 792 0 
L 0 0 
z
" style="fill: #ffffff"/>
  </g>
  <g id="axes_1">
   <g id="patch_2">
    <path d="M 44.615 246.04 
L 390.5775 246.04 
L 390.5775 48.84 
L 44.615 48.84 
z
" style="fill: #ffffff"/>
   </g>
   <g id="matplotlib.axis_1">
    <g id="xtick_1">
     <g id="line2d_1">
      <path d="M 60.340568 246.04 
L 60.340568 48.84 
" clip-path="url(#p9db103fb0c)" style="fill: none; stroke: #b0b0b0; stroke-width: 0.8; stroke-linecap: square"/>
     </g>
     <g id="line2d_2">
      <defs>
       <path id="m591b20a41e" d="M 0 0 
L 0 3.5 
" style="stroke: #000000; stroke-width: 0.8"/>
      </defs>
      <g>
       <use xlink:href="#m591b20a41e" x="60.340568" y="246.04" style="stroke: #000000; stroke-width: 0.8"/>
      </g>
     </g>
     <g id="text_1">
      <!-- 0 -->
      <g transform="translate(57.159318 260.638438) scale(0.1 -0.1)">
       <defs>
        <path id="DejaVuSans-30" d="M 2034 4250 
Q 1547 4250 1301 3770 
Q 1056 3291 1056 2328 
Q 1056 1369 1301 889 
Q 1547 409 2034 409 
Q 2525 409 2770 889 
Q 3016 1369 3016 2328 
Q 3016 3291 2770 3770 
Q 2525 4250 2034 4250 
z
M 2034 4750 
Q 2819 4750 3233 4129 
Q 3647 3509 3647 2328 
Q 3647 1150 3233 529 
Q 2819 -91 2034 -91 
Q 1250 -91 836 529 
Q 422 1150 422 2328 
Q 422 3509 836 4129 
Q 1250 4750 2034 4750 
z
" transform="scale(0.015625)"/>
       </defs>
       <use xlink:href="#DejaVuSans-30"/>
      </g>
     </g>
    </g>
    <g id="xtick_2">
     <g id="line2d_3">
      <path d="M 122.670028 246.04 
L 122.670028 48.84 
" clip-path="url(#p9db103fb0c)" style="fill: none; stroke: #b0b0b0; stroke-width: 0.8; stroke-linecap: square"/>
     </g>
     <g id="line2d_4">
      <g>
       <use xlink:href="#m591b20a41e" x="122.670028" y="246.04" style="stroke: #000000; stroke-width: 0.8"/>
      </g>
     </g>
     <g id="text_2">
      <!-- 20 -->
      <g transform="translate(116.307528 260.638438) scale(0.1 -0.1)">
       <defs>
        <path id="DejaVuSans-32" d="M 1228 531 
L 3431 531 
L 3431 0 
L 469 0 
L 469 531 
Q 828 903 1448 1529 
Q 2069 2156 2228 2338 
Q 2531 2678 2651 2914 
Q 2772 3150 2772 3378 
Q 2772 3750 2511 3984 
Q 2250 4219 1831 4219 
Q 1534 4219 1204 4116 
Q 875 4013 500 3803 
L 500 4441 
Q 881 4594 1212 4672 
Q 1544 4750 1819 4750 
Q 2544 4750 2975 4387 
Q 3406 4025 3406 3419 
Q 3406 3131 3298 2873 
Q 3191 2616 2906 2266 
Q 2828 2175 2409 1742 
Q 1991 1309 1228 531 
z
" transform="scale(0.015625)"/>
       </defs>
       <use xlink:href="#DejaVuSans-32"/>
       <use xlink:href="#DejaVuSans-30" transform="translate(63.623047 0)"/>
      </g>
     </g>
    </g>
    <g id="xtick_3">
     <g id="line2d_5">
      <path d="M 184.999488 246.04 
L 184.999488 48.84 
" clip-path="url(#p9db103fb0c)" style="fill: none; stroke: #b0b0b0; stroke-width: 0.8; stroke-linecap: square"/>
     </g>
     <g id="line2d_6">
      <g>
       <use xlink:href="#m591b20a41e" x="184.999488" y="246.04" style="stroke: #000000; stroke-width: 0.8"/>
      </g>
     </g>
     <g id="text_3">
      <!-- 40 -->
      <g transform="translate(178.636988 260.638438) scale(0.1 -0.1)">
       <defs>
        <path id="DejaVuSans-34" d="M 2419 4116 
L 825 1625 
L 2419 1625 
L 2419 4116 
z
M 2253 4666 
L 3047 4666 
L 3047 1625 
L 3713 1625 
L 3713 1100 
L 3047 1100 
L 3047 0 
L 2419 0 
L 2419 1100 
L 313 1100 
L 313 1709 
L 2253 4666 
z
" transform="scale(0.015625)"/>
       </defs>
       <use xlink:href="#DejaVuSans-34"/>
       <use xlink:href="#DejaVuSans-30" transform="translate(63.623047 0)"/>
      </g>
     </g>
    </g>
    <g id="xtick_4">
     <g id="line2d_7">
      <path d="M 247.328948 246.04 
L 247.328948 48.84 
" clip-path="url(#p9db103fb0c)" style="fill: none; stroke: #b0b0b0; stroke-width: 0.8; stroke-linecap: square"/>
     </g>
     <g id="line2d_8">
      <g>
       <use xlink:href="#m591b20a41e" x="247.328948" y="246.04" style="stroke: #000000; stroke-width: 0.8"/>
      </g>
     </g>
     <g id="text_4">
      <!-- 60 -->
      <g transform="translate(240.966448 260.638438) scale(0.1 -0.1)">
       <defs>
        <path id="DejaVuSans-36" d="M 2113 2584 
Q 1688 2584 1439 2293 
Q 1191 2003 1191 1497 
Q 1191 994 1439 701 
Q 1688 409 2113 409 
Q 2538 409 2786 701 
Q 3034 994 3034 1497 
Q 3034 2003 2786 2293 
Q 2538 2584 2113 2584 
z
M 3366 4563 
L 3366 3988 
Q 3128 4100 2886 4159 
Q 2644 4219 2406 4219 
Q 1781 4219 1451 3797 
Q 1122 3375 1075 2522 
Q 1259 2794 1537 2939 
Q 1816 3084 2150 3084 
Q 2853 3084 3261 2657 
Q 3669 2231 3669 1497 
Q 3669 778 3244 343 
Q 2819 -91 2113 -91 
Q 1303 -91 875 529 
Q 447 1150 447 2328 
Q 447 3434 972 4092 
Q 1497 4750 2381 4750 
Q 2619 4750 2861 4703 
Q 3103 4656 3366 4563 
z
" transform="scale(0.015625)"/>
       </defs>
       <use xlink:href="#DejaVuSans-36"/>
       <use xlink:href="#DejaVuSans-30" transform="translate(63.623047 0)"/>
      </g>
     </g>
    </g>
    <g id="xtick_5">
     <g id="line2d_9">
      <path d="M 309.658408 246.04 
L 309.658408 48.84 
" clip-path="url(#p9db103fb0c)" style="fill: none; stroke: #b0b0b0; stroke-width: 0.8; stroke-linecap: square"/>
     </g>
     <g id="line2d_10">
      <g>
       <use xlink:href="#m591b20a41e" x="309.658408" y="246.04" style="stroke: #000000; stroke-width: 0.8"/>
      </g>
     </g>
     <g id="text_5">
      <!-- 80 -->
      <g transform="translate(303.295908 260.638438) scale(0.1 -0.1)">
       <defs>
        <path id="DejaVuSans-38" d="M 2034 2216 
Q 1584 2216 1326 1975 
Q 1069 1734 1069 1313 
Q 1069 891 1326 650 
Q 1584 409 2034 409 
Q 2484 409 2743 651 
Q 3003 894 3003 1313 
Q 3003 1734 2745 1975 
Q 2488 2216 2034 2216 
z
M 1403 2484 
Q 997 2584 770 2862 
Q 544 3141 544 3541 
Q 544 4100 942 4425 
Q 1341 4750 2034 4750 
Q 2731 4750 3128 4425 
Q 3525 4100 3525 3541 
Q 3525 3141 3298 2862 
Q 3072 2584 2669 2484 
Q 3125 2378 3379 2068 
Q 3634 1759 3634 1313 
Q 3634 634 3220 271 
Q 2806 -91 2034 -91 
Q 1263 -91 848 271 
Q 434 634 434 1313 
Q 434 1759 690 2068 
Q 947 2378 1403 2484 
z
M 1172 3481 
Q 1172 3119 1398 2916 
Q 1625 2713 2034 2713 
Q 2441 2713 2670 2916 
Q 2900 3119 2900 3481 
Q 2900 3844 2670 4047 
Q 2441 4250 2034 4250 
Q 1625 4250 1398 4047 
Q 1172 3844 1172 3481 
z
" transform="scale(0.015625)"/>
       </defs>
       <use xlink:href="#DejaVuSans-38"/>
       <use xlink:href="#DejaVuSans-30" transform="translate(63.623047 0)"/>
      </g>
     </g>
    </g>
    <g id="xtick_6">
     <g id="line2d_11">
      <path d="M 371.987867 246.04 
L 371.987867 48.84 
" clip-path="url(#p9db103fb0c)" style="fill: none; stroke: #b0b0b0; stroke-width: 0.8; stroke-linecap: square"/>
     </g>
     <g id="line2d_12">
      <g>
       <use xlink:href="#m591b20a41e" x="371.987867" y="246.04" style="stroke: #000000; stroke-width: 0.8"/>
      </g>
     </g>
     <g id="text_6">
      <!-- 100 -->
      <g transform="translate(362.444117 260.638438) scale(0.1 -0.1)">
       <defs>
        <path id="DejaVuSans-31" d="M 794 531 
L 1825 531 
L 1825 4091 
L 703 3866 
L 703 4441 
L 1819 4666 
L 2450 4666 
L 2450 531 
L 3481 531 
L 3481 0 
L 794 0 
L 794 531 
z
" transform="scale(0.015625)"/>
       </defs>
       <use xlink:href="#DejaVuSans-31"/>
       <use xlink:href="#DejaVuSans-30" transform="translate(63.623047 0)"/>
       <use xlink:href="#DejaVuSans-30" transform="translate(127.246094 0)"/>
      </g>
     </g>
    </g>
    <g id="text_7">
     <!-- time in pulse  [ms] -->
     <g transform="translate(170.59625 274.316562) scale(0.1 -0.1)">
      <defs>
       <path id="DejaVuSans-74" d="M 1172 4494 
L 1172 3500 
L 2356 3500 
L 2356 3053 
L 1172 3053 
L 1172 1153 
Q 1172 725 1289 603 
Q 1406 481 1766 481 
L 2356 481 
L 2356 0 
L 1766 0 
Q 1100 0 847 248 
Q 594 497 594 1153 
L 594 3053 
L 172 3053 
L 172 3500 
L 594 3500 
L 594 4494 
L 1172 4494 
z
" transform="scale(0.015625)"/>
       <path id="DejaVuSans-69" d="M 603 3500 
L 1178 3500 
L 1178 0 
L 603 0 
L 603 3500 
z
M 603 4863 
L 1178 4863 
L 1178 4134 
L 603 4134 
L 603 4863 
z
" transform="scale(0.015625)"/>
       <path id="DejaVuSans-6d" d="M 3328 2828 
Q 3544 3216 3844 3400 
Q 4144 3584 4550 3584 
Q 5097 3584 5394 3201 
Q 5691 2819 5691 2113 
L 5691 0 
L 5113 0 
L 5113 2094 
Q 5113 2597 4934 2840 
Q 4756 3084 4391 3084 
Q 3944 3084 3684 2787 
Q 3425 2491 3425 1978 
L 3425 0 
L 2847 0 
L 2847 2094 
Q 2847 2600 2669 2842 
Q 2491 3084 2119 3084 
Q 1678 3084 1418 2786 
Q 1159 2488 1159 1978 
L 1159 0 
L 581 0 
L 581 3500 
L 1159 3500 
L 1159 2956 
Q 1356 3278 1631 3431 
Q 1906 3584 2284 3584 
Q 2666 3584 2933 3390 
Q 3200 3197 3328 2828 
z
" transform="scale(0.015625)"/>
       <path id="DejaVuSans-65" d="M 3597 1894 
L 3597 1613 
L 953 1613 
Q 991 1019 1311 708 
Q 1631 397 2203 397 
Q 2534 397 2845 478 
Q 3156 559 3463 722 
L 3463 178 
Q 3153 47 2828 -22 
Q 2503 -91 2169 -91 
Q 1331 -91 842 396 
Q 353 884 353 1716 
Q 353 2575 817 3079 
Q 1281 3584 2069 3584 
Q 2775 3584 3186 3129 
Q 3597 2675 3597 1894 
z
M 3022 2063 
Q 3016 2534 2758 2815 
Q 2500 3097 2075 3097 
Q 1594 3097 1305 2825 
Q 1016 2553 972 2059 
L 3022 2063 
z
" transform="scale(0.015625)"/>
       <path id="DejaVuSans-20" transform="scale(0.015625)"/>
       <path id="DejaVuSans-6e" d="M 3513 2113 
L 3513 0 
L 2938 0 
L 2938 2094 
Q 2938 2591 2744 2837 
Q 2550 3084 2163 3084 
Q 1697 3084 1428 2787 
Q 1159 2491 1159 1978 
L 1159 0 
L 581 0 
L 581 3500 
L 1159 3500 
L 1159 2956 
Q 1366 3272 1645 3428 
Q 1925 3584 2291 3584 
Q 2894 3584 3203 3211 
Q 3513 2838 3513 2113 
z
" transform="scale(0.015625)"/>
       <path id="DejaVuSans-70" d="M 1159 525 
L 1159 -1331 
L 581 -1331 
L 581 3500 
L 1159 3500 
L 1159 2969 
Q 1341 3281 1617 3432 
Q 1894 3584 2278 3584 
Q 2916 3584 3314 3078 
Q 3713 2572 3713 1747 
Q 3713 922 3314 415 
Q 2916 -91 2278 -91 
Q 1894 -91 1617 61 
Q 1341 213 1159 525 
z
M 3116 1747 
Q 3116 2381 2855 2742 
Q 2594 3103 2138 3103 
Q 1681 3103 1420 2742 
Q 1159 2381 1159 1747 
Q 1159 1113 1420 752 
Q 1681 391 2138 391 
Q 2594 391 2855 752 
Q 3116 1113 3116 1747 
z
" transform="scale(0.015625)"/>
       <path id="DejaVuSans-75" d="M 544 1381 
L 544 3500 
L 1119 3500 
L 1119 1403 
Q 1119 906 1312 657 
Q 1506 409 1894 409 
Q 2359 409 2629 706 
Q 2900 1003 2900 1516 
L 2900 3500 
L 3475 3500 
L 3475 0 
L 2900 0 
L 2900 538 
Q 2691 219 2414 64 
Q 2138 -91 1772 -91 
Q 1169 -91 856 284 
Q 544 659 544 1381 
z
M 1991 3584 
L 1991 3584 
z
" transform="scale(0.015625)"/>
       <path id="DejaVuSans-6c" d="M 603 4863 
L 1178 4863 
L 1178 0 
L 603 0 
L 603 4863 
z
" transform="scale(0.015625)"/>
       <path id="DejaVuSans-73" d="M 2834 3397 
L 2834 2853 
Q 2591 2978 2328 3040 
Q 2066 3103 1784 3103 
Q 1356 3103 1142 2972 
Q 928 2841 928 2578 
Q 928 2378 1081 2264 
Q 1234 2150 1697 2047 
L 1894 2003 
Q 2506 1872 2764 1633 
Q 3022 1394 3022 966 
Q 3022 478 2636 193 
Q 2250 -91 1575 -91 
Q 1294 -91 989 -36 
Q 684 19 347 128 
L 347 722 
Q 666 556 975 473 
Q 1284 391 1588 391 
Q 1994 391 2212 530 
Q 2431 669 2431 922 
Q 2431 1156 2273 1281 
Q 2116 1406 1581 1522 
L 1381 1569 
Q 847 1681 609 1914 
Q 372 2147 372 2553 
Q 372 3047 722 3315 
Q 1072 3584 1716 3584 
Q 2034 3584 2315 3537 
Q 2597 3491 2834 3397 
z
" transform="scale(0.015625)"/>
       <path id="DejaVuSans-5b" d="M 550 4863 
L 1875 4863 
L 1875 4416 
L 1125 4416 
L 1125 -397 
L 1875 -397 
L 1875 -844 
L 550 -844 
L 550 4863 
z
" transform="scale(0.015625)"/>
       <path id="DejaVuSans-5d" d="M 1947 4863 
L 1947 -844 
L 622 -844 
L 622 -397 
L 1369 -397 
L 1369 4416 
L 622 4416 
L 622 4863 
L 1947 4863 
z
" transform="scale(0.015625)"/>
      </defs>
      <use xlink:href="#DejaVuSans-74"/>
      <use xlink:href="#DejaVuSans-69" transform="translate(39.208984 0)"/>
      <use xlink:href="#DejaVuSans-6d" transform="translate(66.992188 0)"/>
      <use xlink:href="#DejaVuSans-65" transform="translate(164.404297 0)"/>
      <use xlink:href="#DejaVuSans-20" transform="translate(225.927734 0)"/>
      <use xlink:href="#DejaVuSans-69" transform="translate(257.714844 0)"/>
      <use xlink:href="#DejaVuSans-6e" transform="translate(285.498047 0)"/>
      <use xlink:href="#DejaVuSans-20" transform="translate(348.876953 0)"/>
      <use xlink:href="#DejaVuSans-70" transform="translate(380.664062 0)"/>
      <use xlink:href="#DejaVuSans-75" transform="translate(444.140625 0)"/>
      <use xlink:href="#DejaVuSans-6c" transform="translate(507.519531 0)"/>
      <use xlink:href="#DejaVuSans-73" transform="translate(535.302734 0)"/>
      <use xlink:href="#DejaVuSans-65" transform="translate(587.402344 0)"/>
      <use xlink:href="#DejaVuSans-20" transform="translate(648.925781 0)"/>
      <use xlink:href="#DejaVuSans-20" transform="translate(680.712891 0)"/>
      <use xlink:href="#DejaVuSans-5b" transform="translate(712.5 0)"/>
      <use xlink:href="#DejaVuSans-6d" transform="translate(751.513672 0)"/>
      <use xlink:href="#DejaVuSans-73" transform="translate(848.925781 0)"/>
      <use xlink:href="#DejaVuSans-5d" transform="translate(901.025391 0)"/>
     </g>
    </g>
   </g>
   <g id="matplotlib.axis_2">
    <g id="ytick_1">
     <g id="line2d_13">
      <path d="M 44.615 236.453102 
L 390.5775 236.453102 
" clip-path="url(#p9db103fb0c)" style="fill: none; stroke: #b0b0b0; stroke-width: 0.8; stroke-linecap: square"/>
     </g>
     <g id="line2d_14">
      <defs>
       <path id="m26c60f300c" d="M 0 0 
L -3.5 0 
" style="stroke: #000000; stroke-width: 0.8"/>
      </defs>
      <g>
       <use xlink:href="#m26c60f300c" x="44.615" y="236.453102" style="stroke: #000000; stroke-width: 0.8"/>
      </g>
     </g>
     <g id="text_8">
      <!-- 0 -->
      <g transform="translate(31.2525 240.252321) scale(0.1 -0.1)">
       <use xlink:href="#DejaVuSans-30"/>
      </g>
     </g>
    </g>
    <g id="ytick_2">
     <g id="line2d_15">
      <path d="M 44.615 209.42694 
L 390.5775 209.42694 
" clip-path="url(#p9db103fb0c)" style="fill: none; stroke: #b0b0b0; stroke-width: 0.8; stroke-linecap: square"/>
     </g>
     <g id="line2d_16">
      <g>
       <use xlink:href="#m26c60f300c" x="44.615" y="209.42694" style="stroke: #000000; stroke-width: 0.8"/>
      </g>
     </g>
     <g id="text_9">
      <!-- 2 -->
      <g transform="translate(31.2525 213.226159) scale(0.1 -0.1)">
       <use xlink:href="#DejaVuSans-32"/>
      </g>
     </g>
    </g>
    <g id="ytick_3">
     <g id="line2d_17">
      <path d="M 44.615 182.400779 
L 390.5775 182.400779 
" clip-path="url(#p9db103fb0c)" style="fill: none; stroke: #b0b0b0; stroke-width: 0.8; stroke-linecap: square"/>
     </g>
     <g id="line2d_18">
      <g>
       <use xlink:href="#m26c60f300c" x="44.615" y="182.400779" style="stroke: #000000; stroke-width: 0.8"/>
      </g>
     </g>
     <g id="text_10">
      <!-- 4 -->
      <g transform="translate(31.2525 186.199997) scale(0.1 -0.1)">
       <use xlink:href="#DejaVuSans-34"/>
      </g>
     </g>
    </g>
    <g id="ytick_4">
     <g id="line2d_19">
      <path d="M 44.615 155.374617 
L 390.5775 155.374617 
" clip-path="url(#p9db103fb0c)" style="fill: none; stroke: #b0b0b0; stroke-width: 0.8; stroke-linecap: square"/>
     </g>
     <g id="line2d_20">
      <g>
       <use xlink:href="#m26c60f300c" x="44.615" y="155.374617" style="stroke: #000000; stroke-width: 0.8"/>
      </g>
     </g>
     <g id="text_11">
      <!-- 6 -->
      <g transform="translate(31.2525 159.173836) scale(0.1 -0.1)">
       <use xlink:href="#DejaVuSans-36"/>
      </g>
     </g>
    </g>
    <g id="ytick_5">
     <g id="line2d_21">
      <path d="M 44.615 128.348455 
L 390.5775 128.348455 
" clip-path="url(#p9db103fb0c)" style="fill: none; stroke: #b0b0b0; stroke-width: 0.8; stroke-linecap: square"/>
     </g>
     <g id="line2d_22">
      <g>
       <use xlink:href="#m26c60f300c" x="44.615" y="128.348455" style="stroke: #000000; stroke-width: 0.8"/>
      </g>
     </g>
     <g id="text_12">
      <!-- 8 -->
      <g transform="translate(31.2525 132.147674) scale(0.1 -0.1)">
       <use xlink:href="#DejaVuSans-38"/>
      </g>
     </g>
    </g>
    <g id="ytick_6">
     <g id="line2d_23">
      <path d="M 44.615 101.322294 
L 390.5775 101.322294 
" clip-path="url(#p9db103fb0c)" style="fill: none; stroke: #b0b0b0; stroke-width: 0.8; stroke-linecap: square"/>
     </g>
     <g id="line2d_24">
      <g>
       <use xlink:href="#m26c60f300c" x="44.615" y="101.322294" style="stroke: #000000; stroke-width: 0.8"/>
      </g>
     </g>
     <g id="text_13">
      <!-- 10 -->
      <g transform="translate(24.89 105.121513) scale(0.1 -0.1)">
       <use xlink:href="#DejaVuSans-31"/>
       <use xlink:href="#DejaVuSans-30" transform="translate(63.623047 0)"/>
      </g>
     </g>
    </g>
    <g id="ytick_7">
     <g id="line2d_25">
      <path d="M 44.615 74.296132 
L 390.5775 74.296132 
" clip-path="url(#p9db103fb0c)" style="fill: none; stroke: #b0b0b0; stroke-width: 0.8; stroke-linecap: square"/>
     </g>
     <g id="line2d_26">
      <g>
       <use xlink:href="#m26c60f300c" x="44.615" y="74.296132" style="stroke: #000000; stroke-width: 0.8"/>
      </g>
     </g>
     <g id="text_14">
      <!-- 12 -->
      <g transform="translate(24.89 78.095351) scale(0.1 -0.1)">
       <use xlink:href="#DejaVuSans-31"/>
       <use xlink:href="#DejaVuSans-32" transform="translate(63.623047 0)"/>
      </g>
     </g>
    </g>
    <g id="text_15">
     <!-- motor velocity  [rev/s] -->
     <g transform="translate(18.810313 202.923594) rotate(-90) scale(0.1 -0.1)">
      <defs>
       <path id="DejaVuSans-6f" d="M 1959 3097 
Q 1497 3097 1228 2736 
Q 959 2375 959 1747 
Q 959 1119 1226 758 
Q 1494 397 1959 397 
Q 2419 397 2687 759 
Q 2956 1122 2956 1747 
Q 2956 2369 2687 2733 
Q 2419 3097 1959 3097 
z
M 1959 3584 
Q 2709 3584 3137 3096 
Q 3566 2609 3566 1747 
Q 3566 888 3137 398 
Q 2709 -91 1959 -91 
Q 1206 -91 779 398 
Q 353 888 353 1747 
Q 353 2609 779 3096 
Q 1206 3584 1959 3584 
z
" transform="scale(0.015625)"/>
       <path id="DejaVuSans-72" d="M 2631 2963 
Q 2534 3019 2420 3045 
Q 2306 3072 2169 3072 
Q 1681 3072 1420 2755 
Q 1159 2438 1159 1844 
L 1159 0 
L 581 0 
L 581 3500 
L 1159 3500 
L 1159 2956 
Q 1341 3275 1631 3429 
Q 1922 3584 2338 3584 
Q 2397 3584 2469 3576 
Q 2541 3569 2628 3553 
L 2631 2963 
z
" transform="scale(0.015625)"/>
       <path id="DejaVuSans-76" d="M 191 3500 
L 800 3500 
L 1894 563 
L 2988 3500 
L 3597 3500 
L 2284 0 
L 1503 0 
L 191 3500 
z
" transform="scale(0.015625)"/>
       <path id="DejaVuSans-63" d="M 3122 3366 
L 3122 2828 
Q 2878 2963 2633 3030 
Q 2388 3097 2138 3097 
Q 1578 3097 1268 2742 
Q 959 2388 959 1747 
Q 959 1106 1268 751 
Q 1578 397 2138 397 
Q 2388 397 2633 464 
Q 2878 531 3122 666 
L 3122 134 
Q 2881 22 2623 -34 
Q 2366 -91 2075 -91 
Q 1284 -91 818 406 
Q 353 903 353 1747 
Q 353 2603 823 3093 
Q 1294 3584 2113 3584 
Q 2378 3584 2631 3529 
Q 2884 3475 3122 3366 
z
" transform="scale(0.015625)"/>
       <path id="DejaVuSans-79" d="M 2059 -325 
Q 1816 -950 1584 -1140 
Q 1353 -1331 966 -1331 
L 506 -1331 
L 506 -850 
L 844 -850 
Q 1081 -850 1212 -737 
Q 1344 -625 1503 -206 
L 1606 56 
L 191 3500 
L 800 3500 
L 1894 763 
L 2988 3500 
L 3597 3500 
L 2059 -325 
z
" transform="scale(0.015625)"/>
       <path id="DejaVuSans-2f" d="M 1625 4666 
L 2156 4666 
L 531 -594 
L 0 -594 
L 1625 4666 
z
" transform="scale(0.015625)"/>
      </defs>
      <use xlink:href="#DejaVuSans-6d"/>
      <use xlink:href="#DejaVuSans-6f" transform="translate(97.412109 0)"/>
      <use xlink:href="#DejaVuSans-74" transform="translate(158.59375 0)"/>
      <use xlink:href="#DejaVuSans-6f" transform="translate(197.802734 0)"/>
      <use xlink:href="#DejaVuSans-72" transform="translate(258.984375 0)"/>
      <use xlink:href="#DejaVuSans-20" transform="translate(300.097656 0)"/>
      <use xlink:href="#DejaVuSans-76" transform="translate(331.884766 0)"/>
      <use xlink:href="#DejaVuSans-65" transform="translate(391.064453 0)"/>
      <use xlink:href="#DejaVuSans-6c" transform="translate(452.587891 0)"/>
      <use xlink:href="#DejaVuSans-6f" transform="translate(480.371094 0)"/>
      <use xlink:href="#DejaVuSans-63" transform="translate(541.552734 0)"/>
      <use xlink:href="#DejaVuSans-69" transform="translate(596.533203 0)"/>
      <use xlink:href="#DejaVuSans-74" transform="translate(624.316406 0)"/>
      <use xlink:href="#DejaVuSans-79" transform="translate(663.525391 0)"/>
      <use xlink:href="#DejaVuSans-20" transform="translate(722.705078 0)"/>
      <use xlink:href="#DejaVuSans-20" transform="translate(754.492188 0)"/>
      <use xlink:href="#DejaVuSans-5b" transform="translate(786.279297 0)"/>
      <use xlink:href="#DejaVuSans-72" transform="translate(825.292969 0)"/>
      <use xlink:href="#DejaVuSans-65" transform="translate(864.15625 0)"/>
      <use xlink:href="#DejaVuSans-76" transform="translate(925.679688 0)"/>
      <use xlink:href="#DejaVuSans-2f" transform="translate(984.859375 0)"/>
      <use xlink:href="#DejaVuSans-73" transform="translate(1018.550781 0)"/>
      <use xlink:href="#DejaVuSans-5d" transform="translate(1070.650391 0)"/>
     </g>
    </g>
   </g>
   <g id="line2d_27">
    <path d="M 60.340568 236.598736 
L 67.799054 236.573093 
L 75.433636 236.472064 
L 82.62389 235.800211 
L 89.881759 236.646217 
L 97.324641 236.181661 
L 104.467341 235.648999 
L 112.071459 235.17005 
" clip-path="url(#p9db103fb0c)" style="fill: none; stroke-dasharray: 4.44,1.92; stroke-dashoffset: 0; stroke: #463480; stroke-width: 1.2"/>
   </g>
   <g id="line2d_28">
    <path d="M 112.071459 235.17005 
L 120.410429 234.086417 
L 127.812445 233.181294 
L 135.348205 232.59558 
L 142.852758 232.441226 
L 150.534894 232.090549 
L 158.235606 231.5109 
L 166.036626 230.727377 
L 173.334619 229.937456 
" clip-path="url(#p9db103fb0c)" style="fill: none; stroke: #463480; stroke-width: 2; stroke-linecap: square"/>
   </g>
   <g id="line2d_29">
    <path d="M 173.334619 229.937456 
L 180.876323 229.849939 
L 188.412083 229.856333 
L 195.935212 228.970903 
L 204.776467 228.924801 
L 212.633957 229.525348 
L 220.752249 228.550466 
L 229.836473 229.107283 
L 241.039805 229.273497 
L 248.946335 229.642758 
L 256.454603 228.98287 
L 264.341814 229.126141 
L 273.13403 229.192041 
L 280.504095 229.64325 
L 287.993045 229.524627 
" clip-path="url(#p9db103fb0c)" style="fill: none; stroke-dasharray: 4.44,1.92; stroke-dashoffset: 0; stroke: #463480; stroke-width: 1.2"/>
   </g>
   <g id="line2d_30">
    <path d="M 60.340568 236.0599 
L 67.468408 237.076364 
L 74.776059 236.426956 
L 81.726316 236.258262 
L 89.065174 236.249439 
L 96.915977 235.722181 
L 104.245176 235.16895 
L 111.303914 233.655835 
" clip-path="url(#p9db103fb0c)" style="fill: none; stroke-dasharray: 4.44,1.92; stroke-dashoffset: 0; stroke: #3d4e8a; stroke-width: 1.2"/>
   </g>
   <g id="line2d_31">
    <path d="M 111.303914 233.655835 
L 118.728221 232.990931 
L 126.200824 232.223896 
L 133.983268 231.079713 
L 142.294747 230.4565 
L 149.705679 229.773618 
L 157.300138 229.180132 
L 165.272797 228.693848 
L 172.574504 227.940928 
" clip-path="url(#p9db103fb0c)" style="fill: none; stroke: #3d4e8a; stroke-width: 2; stroke-linecap: square"/>
   </g>
   <g id="line2d_32">
    <path d="M 172.574504 227.940928 
L 179.819741 227.092167 
L 187.10956 226.042562 
L 194.735226 225.519937 
L 202.224176 224.992899 
L 209.813434 224.218914 
L 217.569873 224.054575 
L 224.937709 223.071361 
L 232.40734 222.598483 
L 239.88663 221.835197 
L 247.568766 220.672983 
L 254.861557 220.816084 
L 262.322272 219.867013 
L 269.832769 220.150075 
L 277.964436 219.385792 
" clip-path="url(#p9db103fb0c)" style="fill: none; stroke-dasharray: 4.44,1.92; stroke-dashoffset: 0; stroke: #3d4e8a; stroke-width: 1.2"/>
   </g>
   <g id="line2d_33">
    <path d="M 60.340568 236.696388 
L 67.545682 236.10312 
L 75.065839 236.656407 
L 82.894351 236.349846 
L 90.270361 236.321997 
L 98.54766 235.900676 
L 106.295925 234.736199 
L 113.632555 233.530582 
" clip-path="url(#p9db103fb0c)" style="fill: none; stroke-dasharray: 4.44,1.92; stroke-dashoffset: 0; stroke: #31668e; stroke-width: 1.2"/>
   </g>
   <g id="line2d_34">
    <path d="M 113.632555 233.530582 
L 121.130421 232.369136 
L 129.180354 231.634968 
L 136.591286 231.007563 
L 143.752562 230.379386 
L 151.454016 230.212293 
L 159.219371 230.794806 
L 166.431173 229.532664 
L 173.904519 227.922877 
" clip-path="url(#p9db103fb0c)" style="fill: none; stroke: #31668e; stroke-width: 2; stroke-linecap: square"/>
   </g>
   <g id="line2d_35">
    <path d="M 173.904519 227.922877 
L 180.944681 226.665202 
L 188.823719 225.157162 
L 196.638857 224.332276 
L 204.520123 223.47916 
L 212.246841 222.661829 
L 219.651086 222.019536 
L 227.287154 221.395993 
L 235.710086 220.319144 
L 243.268137 220.005409 
L 250.993369 219.455374 
L 258.535816 218.852844 
L 266.585007 217.915952 
L 274.407575 216.776679 
L 282.501347 216.64819 
" clip-path="url(#p9db103fb0c)" style="fill: none; stroke-dasharray: 4.44,1.92; stroke-dashoffset: 0; stroke: #31668e; stroke-width: 1.2"/>
   </g>
   <g id="line2d_36">
    <path d="M 60.340568 236.505411 
L 67.957318 236.509051 
L 77.705807 236.35282 
L 86.133197 236.586863 
L 95.435871 235.210346 
L 103.84097 234.078295 
L 112.469721 231.411953 
L 121.775366 229.96959 
" clip-path="url(#p9db103fb0c)" style="fill: none; stroke-dasharray: 4.44,1.92; stroke-dashoffset: 0; stroke: #297b8e; stroke-width: 1.2"/>
   </g>
   <g id="line2d_37">
    <path d="M 121.775366 229.96959 
L 132.346384 229.224119 
L 142.38168 228.141808 
L 152.130169 226.676231 
L 160.600655 225.241922 
L 169.233863 222.714323 
L 183.098711 219.916236 
L 194.567303 218.030489 
L 208.329613 214.265737 
" clip-path="url(#p9db103fb0c)" style="fill: none; stroke: #297b8e; stroke-width: 2; stroke-linecap: square"/>
   </g>
   <g id="line2d_38">
    <path d="M 208.329613 214.265737 
L 219.567867 212.068529 
L 230.839557 208.379952 
L 244.41834 205.277742 
L 253.888938 201.547719 
L 265.884334 198.38698 
L 276.595784 191.002043 
L 307.296836 182.461435 
L 319.460156 178.881852 
L 329.488766 174.187702 
L 340.249998 170.800301 
L 349.456078 167.857234 
L 359.266238 163.862704 
L 367.064286 159.902466 
L 374.851932 157.535735 
" clip-path="url(#p9db103fb0c)" style="fill: none; stroke-dasharray: 4.44,1.92; stroke-dashoffset: 0; stroke: #297b8e; stroke-width: 1.2"/>
   </g>
   <g id="line2d_39">
    <path d="M 60.340568 236.848953 
L 68.115582 235.859015 
L 75.548062 236.49221 
L 82.542157 236.319766 
L 89.80597 236.438938 
L 97.999307 234.789389 
L 106.881429 231.100462 
L 115.769495 225.618825 
" clip-path="url(#p9db103fb0c)" style="fill: none; stroke-dasharray: 4.44,1.92; stroke-dashoffset: 0; stroke: #21918c; stroke-width: 1.2"/>
   </g>
   <g id="line2d_40">
    <path d="M 115.769495 225.618825 
L 124.118867 221.03773 
L 134.056828 215.34405 
L 143.89225 210.874961 
L 153.575353 205.375075 
L 168.36601 198.897208 
L 179.666678 194.360625 
L 187.451352 190.270167 
L 195.523576 186.286761 
" clip-path="url(#p9db103fb0c)" style="fill: none; stroke: #21918c; stroke-width: 2; stroke-linecap: square"/>
   </g>
   <g id="line2d_41">
    <path d="M 195.523576 186.286761 
L 204.309104 182.118094 
L 216.184874 175.922432 
L 225.241606 172.02469 
L 233.029995 168.42116 
L 242.233104 163.440987 
L 251.139745 158.413854 
L 260.432759 154.579684 
L 278.767646 146.149853 
L 287.244076 143.203655 
L 296.097962 139.038931 
L 304.484486 135.869477 
L 312.677824 131.79841 
L 321.671399 128.112596 
L 330.294948 124.077059 
" clip-path="url(#p9db103fb0c)" style="fill: none; stroke-dasharray: 4.44,1.92; stroke-dashoffset: 0; stroke: #21918c; stroke-width: 1.2"/>
   </g>
   <g id="line2d_42">
    <path d="M 60.340568 236.529843 
L 69.673706 236.698812 
L 77.004391 236.824988 
L 84.465106 236.234753 
L 91.427251 236.041629 
L 98.656885 236.324311 
L 105.772093 236.34295 
L 113.202343 235.510125 
" clip-path="url(#p9db103fb0c)" style="fill: none; stroke-dasharray: 4.44,1.92; stroke-dashoffset: 0; stroke: #21a585; stroke-width: 1.2"/>
   </g>
   <g id="line2d_43">
    <path d="M 113.202343 235.510125 
L 120.964726 233.173229 
L 128.388289 229.643398 
L 136.216802 225.816163 
L 144.107728 222.282859 
L 151.867881 218.698102 
L 160.307903 214.829944 
L 168.114124 211.48149 
L 175.952296 207.817592 
" clip-path="url(#p9db103fb0c)" style="fill: none; stroke: #21a585; stroke-width: 2; stroke-linecap: square"/>
   </g>
   <g id="line2d_44">
    <path d="M 175.952296 207.817592 
L 183.637404 204.014957 
L 191.222947 201.507489 
L 199.070035 198.187159 
L 206.926782 195.327974 
L 214.524956 192.147218 
L 224.824769 187.932354 
L 233.803484 184.7371 
L 241.675092 181.758622 
L 249.20788 178.541427 
L 256.812741 175.940647 
L 265.356786 172.950162 
L 275.224159 168.871286 
L 282.772551 165.987899 
L 290.335803 163.142445 
" clip-path="url(#p9db103fb0c)" style="fill: none; stroke-dasharray: 4.44,1.92; stroke-dashoffset: 0; stroke: #21a585; stroke-width: 1.2"/>
   </g>
   <g id="line2d_45">
    <path d="M 60.340568 236.455504 
L 68.997553 235.960563 
L 77.517822 236.264311 
L 87.319065 236.748278 
L 96.967989 234.41436 
L 106.101996 227.008049 
L 115.457424 219.862141 
L 124.433167 214.47293 
" clip-path="url(#p9db103fb0c)" style="fill: none; stroke-dasharray: 4.44,1.92; stroke-dashoffset: 0; stroke: #38b977; stroke-width: 1.2"/>
   </g>
   <g id="line2d_46">
    <path d="M 124.433167 214.47293 
L 133.243215 207.137148 
L 142.814864 200.27358 
L 152.500196 194.815062 
L 162.149119 189.187884 
L 171.569191 183.854824 
L 180.19274 178.591197 
L 190.543079 172.96698 
L 199.278825 168.834158 
" clip-path="url(#p9db103fb0c)" style="fill: none; stroke: #38b977; stroke-width: 2; stroke-linecap: square"/>
   </g>
   <g id="line2d_47">
    <path d="M 199.278825 168.834158 
L 208.927005 163.595239 
L 217.917608 159.098113 
L 227.825105 152.413224 
L 236.919731 148.128477 
L 246.084945 141.96288 
L 255.474553 137.1947 
L 264.213271 131.078834 
L 272.556699 126.999964 
L 280.343602 120.943991 
L 290.108437 114.283305 
L 299.198606 108.650453 
L 308.68555 101.203797 
L 319.599102 96.27891 
L 326.984771 92.762825 
" clip-path="url(#p9db103fb0c)" style="fill: none; stroke-dasharray: 4.44,1.92; stroke-dashoffset: 0; stroke: #38b977; stroke-width: 1.2"/>
   </g>
   <g id="line2d_48">
    <path d="M 60.340568 236.913833 
L 67.517447 236.266907 
L 74.91872 235.692775 
L 82.473799 236.628173 
L 89.716064 236.468744 
L 97.517084 234.148888 
L 110.016995 226.334324 
L 119.035833 221.392628 
" clip-path="url(#p9db103fb0c)" style="fill: none; stroke-dasharray: 4.44,1.92; stroke-dashoffset: 0; stroke: #65cb5e; stroke-width: 1.2"/>
   </g>
   <g id="line2d_49">
    <path d="M 119.035833 221.392628 
L 126.845769 215.984502 
L 139.187416 208.408123 
L 146.800451 203.507448 
L 154.298316 199.313107 
L 161.663181 194.603927 
L 169.703455 189.599484 
L 179.894787 183.530047 
L 188.660996 178.282088 
" clip-path="url(#p9db103fb0c)" style="fill: none; stroke: #65cb5e; stroke-width: 2; stroke-linecap: square"/>
   </g>
   <g id="line2d_50">
    <path d="M 188.660996 178.282088 
L 198.541001 172.936715 
L 206.515889 168.506704 
L 214.43505 163.357756 
L 221.496017 159.511169 
L 229.150661 154.96466 
L 236.835769 150.497786 
L 244.474067 147.082729 
L 252.015771 143.005477 
L 259.274383 138.993588 
L 266.813116 135.044233 
L 274.479648 131.098268 
L 281.855658 127.842457 
L 289.005045 124.215737 
L 296.503654 120.880059 
" clip-path="url(#p9db103fb0c)" style="fill: none; stroke-dasharray: 4.44,1.92; stroke-dashoffset: 0; stroke: #65cb5e; stroke-width: 1.2"/>
   </g>
   <g id="line2d_51">
    <path d="M 60.340568 236.596399 
L 68.640158 236.623642 
L 79.341948 236.05927 
L 86.581984 236.762225 
L 97.087616 234.09285 
L 106.293696 228.062173 
L 114.212114 222.68934 
L 121.626761 217.147539 
" clip-path="url(#p9db103fb0c)" style="fill: none; stroke-dasharray: 4.44,1.92; stroke-dashoffset: 0; stroke: #9bd93c; stroke-width: 1.2"/>
   </g>
   <g id="line2d_52">
    <path d="M 121.626761 217.147539 
L 130.06604 211.458224 
L 138.12489 205.915927 
L 146.748439 198.65729 
L 157.375183 192.251349 
L 165.755763 185.701076 
L 174.606677 179.962047 
L 184.355166 174.142114 
L 194.012263 166.860187 
" clip-path="url(#p9db103fb0c)" style="fill: none; stroke: #9bd93c; stroke-width: 2; stroke-linecap: square"/>
   </g>
   <g id="line2d_53">
    <path d="M 194.012263 166.860187 
L 206.733595 158.354696 
L 217.265232 149.756663 
L 228.328132 142.010395 
L 237.823993 135.379478 
L 245.980179 129.645714 
L 255.064403 122.095542 
L 265.719383 114.27998 
L 274.642371 106.601021 
L 284.957045 97.270571 
L 295.331904 89.700598 
L 305.607197 81.575901 
L 318.696327 72.737827 
L 329.589074 66.256 
L 339.635516 57.803636 
" clip-path="url(#p9db103fb0c)" style="fill: none; stroke-dasharray: 4.44,1.92; stroke-dashoffset: 0; stroke: #9bd93c; stroke-width: 1.2"/>
   </g>
   <g id="patch_3">
    <path d="M 44.615 246.04 
L 44.615 48.84 
" style="fill: none; stroke: #000000; stroke-width: 0.8; stroke-linejoin: miter; stroke-linecap: square"/>
   </g>
   <g id="patch_4">
    <path d="M 390.5775 246.04 
L 390.5775 48.84 
" style="fill: none; stroke: #000000; stroke-width: 0.8; stroke-linejoin: miter; stroke-linecap: square"/>
   </g>
   <g id="patch_5">
    <path d="M 44.615 246.04 
L 390.5775 246.04 
" style="fill: none; stroke: #000000; stroke-width: 0.8; stroke-linejoin: miter; stroke-linecap: square"/>
   </g>
   <g id="patch_6">
    <path d="M 44.615 48.84 
L 390.5775 48.84 
" style="fill: none; stroke: #000000; stroke-width: 0.8; stroke-linejoin: miter; stroke-linecap: square"/>
   </g>
   <g id="text_16">
    <!-- Velocity traces (shaded = measurement window) -->
    <g transform="translate(69.667188 42.84) scale(0.12 -0.12)">
     <defs>
      <path id="DejaVuSans-56" d="M 1831 0 
L 50 4666 
L 709 4666 
L 2188 738 
L 3669 4666 
L 4325 4666 
L 2547 0 
L 1831 0 
z
" transform="scale(0.015625)"/>
      <path id="DejaVuSans-61" d="M 2194 1759 
Q 1497 1759 1228 1600 
Q 959 1441 959 1056 
Q 959 750 1161 570 
Q 1363 391 1709 391 
Q 2188 391 2477 730 
Q 2766 1069 2766 1631 
L 2766 1759 
L 2194 1759 
z
M 3341 1997 
L 3341 0 
L 2766 0 
L 2766 531 
Q 2569 213 2275 61 
Q 1981 -91 1556 -91 
Q 1019 -91 701 211 
Q 384 513 384 1019 
Q 384 1609 779 1909 
Q 1175 2209 1959 2209 
L 2766 2209 
L 2766 2266 
Q 2766 2663 2505 2880 
Q 2244 3097 1772 3097 
Q 1472 3097 1187 3025 
Q 903 2953 641 2809 
L 641 3341 
Q 956 3463 1253 3523 
Q 1550 3584 1831 3584 
Q 2591 3584 2966 3190 
Q 3341 2797 3341 1997 
z
" transform="scale(0.015625)"/>
      <path id="DejaVuSans-28" d="M 1984 4856 
Q 1566 4138 1362 3434 
Q 1159 2731 1159 2009 
Q 1159 1288 1364 580 
Q 1569 -128 1984 -844 
L 1484 -844 
Q 1016 -109 783 600 
Q 550 1309 550 2009 
Q 550 2706 781 3412 
Q 1013 4119 1484 4856 
L 1984 4856 
z
" transform="scale(0.015625)"/>
      <path id="DejaVuSans-68" d="M 3513 2113 
L 3513 0 
L 2938 0 
L 2938 2094 
Q 2938 2591 2744 2837 
Q 2550 3084 2163 3084 
Q 1697 3084 1428 2787 
Q 1159 2491 1159 1978 
L 1159 0 
L 581 0 
L 581 4863 
L 1159 4863 
L 1159 2956 
Q 1366 3272 1645 3428 
Q 1925 3584 2291 3584 
Q 2894 3584 3203 3211 
Q 3513 2838 3513 2113 
z
" transform="scale(0.015625)"/>
      <path id="DejaVuSans-64" d="M 2906 2969 
L 2906 4863 
L 3481 4863 
L 3481 0 
L 2906 0 
L 2906 525 
Q 2725 213 2448 61 
Q 2172 -91 1784 -91 
Q 1150 -91 751 415 
Q 353 922 353 1747 
Q 353 2572 751 3078 
Q 1150 3584 1784 3584 
Q 2172 3584 2448 3432 
Q 2725 3281 2906 2969 
z
M 947 1747 
Q 947 1113 1208 752 
Q 1469 391 1925 391 
Q 2381 391 2643 752 
Q 2906 1113 2906 1747 
Q 2906 2381 2643 2742 
Q 2381 3103 1925 3103 
Q 1469 3103 1208 2742 
Q 947 2381 947 1747 
z
" transform="scale(0.015625)"/>
      <path id="DejaVuSans-3d" d="M 678 2906 
L 4684 2906 
L 4684 2381 
L 678 2381 
L 678 2906 
z
M 678 1631 
L 4684 1631 
L 4684 1100 
L 678 1100 
L 678 1631 
z
" transform="scale(0.015625)"/>
      <path id="DejaVuSans-77" d="M 269 3500 
L 844 3500 
L 1563 769 
L 2278 3500 
L 2956 3500 
L 3675 769 
L 4391 3500 
L 4966 3500 
L 4050 0 
L 3372 0 
L 2619 2869 
L 1863 0 
L 1184 0 
L 269 3500 
z
" transform="scale(0.015625)"/>
      <path id="DejaVuSans-29" d="M 513 4856 
L 1013 4856 
Q 1481 4119 1714 3412 
Q 1947 2706 1947 2009 
Q 1947 1309 1714 600 
Q 1481 -109 1013 -844 
L 513 -844 
Q 928 -128 1133 580 
Q 1338 1288 1338 2009 
Q 1338 2731 1133 3434 
Q 928 4138 513 4856 
z
" transform="scale(0.015625)"/>
     </defs>
     <use xlink:href="#DejaVuSans-56"/>
     <use xlink:href="#DejaVuSans-65" transform="translate(60.658203 0)"/>
     <use xlink:href="#DejaVuSans-6c" transform="translate(122.181641 0)"/>
     <use xlink:href="#DejaVuSans-6f" transform="translate(149.964844 0)"/>
     <use xlink:href="#DejaVuSans-63" transform="translate(211.146484 0)"/>
     <use xlink:href="#DejaVuSans-69" transform="translate(266.126953 0)"/>
     <use xlink:href="#DejaVuSans-74" transform="translate(293.910156 0)"/>
     <use xlink:href="#DejaVuSans-79" transform="translate(333.119141 0)"/>
     <use xlink:href="#DejaVuSans-20" transform="translate(392.298828 0)"/>
     <use xlink:href="#DejaVuSans-74" transform="translate(424.085938 0)"/>
     <use xlink:href="#DejaVuSans-72" transform="translate(463.294922 0)"/>
     <use xlink:href="#DejaVuSans-61" transform="translate(504.408203 0)"/>
     <use xlink:href="#DejaVuSans-63" transform="translate(565.6875 0)"/>
     <use xlink:href="#DejaVuSans-65" transform="translate(620.667969 0)"/>
     <use xlink:href="#DejaVuSans-73" transform="translate(682.191406 0)"/>
     <use xlink:href="#DejaVuSans-20" transform="translate(734.291016 0)"/>
     <use xlink:href="#DejaVuSans-28" transform="translate(766.078125 0)"/>
     <use xlink:href="#DejaVuSans-73" transform="translate(805.091797 0)"/>
     <use xlink:href="#DejaVuSans-68" transform="translate(857.191406 0)"/>
     <use xlink:href="#DejaVuSans-61" transform="translate(920.570312 0)"/>
     <use xlink:href="#DejaVuSans-64" transform="translate(981.849609 0)"/>
     <use xlink:href="#DejaVuSans-65" transform="translate(1045.326172 0)"/>
     <use xlink:href="#DejaVuSans-64" transform="translate(1106.849609 0)"/>
     <use xlink:href="#DejaVuSans-20" transform="translate(1170.326172 0)"/>
     <use xlink:href="#DejaVuSans-3d" transform="translate(1202.113281 0)"/>
     <use xlink:href="#DejaVuSans-20" transform="translate(1285.902344 0)"/>
     <use xlink:href="#DejaVuSans-6d" transform="translate(1317.689453 0)"/>
     <use xlink:href="#DejaVuSans-65" transform="translate(1415.101562 0)"/>
     <use xlink:href="#DejaVuSans-61" transform="translate(1476.625 0)"/>
     <use xlink:href="#DejaVuSans-73" transform="translate(1537.904297 0)"/>
     <use xlink:href="#DejaVuSans-75" transform="translate(1590.003906 0)"/>
     <use xlink:href="#DejaVuSans-72" transform="translate(1653.382812 0)"/>
     <use xlink:href="#DejaVuSans-65" transform="translate(1692.246094 0)"/>
     <use xlink:href="#DejaVuSans-6d" transform="translate(1753.769531 0)"/>
     <use xlink:href="#DejaVuSans-65" transform="translate(1851.181641 0)"/>
     <use xlink:href="#DejaVuSans-6e" transform="translate(1912.705078 0)"/>
     <use xlink:href="#DejaVuSans-74" transform="translate(1976.083984 0)"/>
     <use xlink:href="#DejaVuSans-20" transform="translate(2015.292969 0)"/>
     <use xlink:href="#DejaVuSans-77" transform="translate(2047.080078 0)"/>
     <use xlink:href="#DejaVuSans-69" transform="translate(2128.867188 0)"/>
     <use xlink:href="#DejaVuSans-6e" transform="translate(2156.650391 0)"/>
     <use xlink:href="#DejaVuSans-64" transform="translate(2220.029297 0)"/>
     <use xlink:href="#DejaVuSans-6f" transform="translate(2283.505859 0)"/>
     <use xlink:href="#DejaVuSans-77" transform="translate(2344.6875 0)"/>
     <use xlink:href="#DejaVuSans-29" transform="translate(2426.474609 0)"/>
    </g>
   </g>
   <g id="legend_1">
    <g id="patch_7">
     <path d="M 49.515 105.813438 
L 174.43 105.813438 
Q 175.83 105.813438 175.83 104.413438 
L 175.83 53.74 
Q 175.83 52.34 174.43 52.34 
L 49.515 52.34 
Q 48.115 52.34 48.115 53.74 
L 48.115 104.413438 
Q 48.115 105.813438 49.515 105.813438 
z
" style="fill: #ffffff; opacity: 0.8; stroke: #cccccc; stroke-linejoin: miter"/>
    </g>
    <g id="line2d_54">
     <path d="M 50.915 58.008906 
L 57.915 58.008906 
L 64.915 58.008906 
" style="fill: none; stroke: #463480; stroke-width: 2; stroke-linecap: square"/>
    </g>
    <g id="text_17">
     <!-- 1.3 mNm -->
     <g transform="translate(70.515 60.458906) scale(0.07 -0.07)">
      <defs>
       <path id="DejaVuSans-2e" d="M 684 794 
L 1344 794 
L 1344 0 
L 684 0 
L 684 794 
z
" transform="scale(0.015625)"/>
       <path id="DejaVuSans-33" d="M 2597 2516 
Q 3050 2419 3304 2112 
Q 3559 1806 3559 1356 
Q 3559 666 3084 287 
Q 2609 -91 1734 -91 
Q 1441 -91 1130 -33 
Q 819 25 488 141 
L 488 750 
Q 750 597 1062 519 
Q 1375 441 1716 441 
Q 2309 441 2620 675 
Q 2931 909 2931 1356 
Q 2931 1769 2642 2001 
Q 2353 2234 1838 2234 
L 1294 2234 
L 1294 2753 
L 1863 2753 
Q 2328 2753 2575 2939 
Q 2822 3125 2822 3475 
Q 2822 3834 2567 4026 
Q 2313 4219 1838 4219 
Q 1578 4219 1281 4162 
Q 984 4106 628 3988 
L 628 4550 
Q 988 4650 1302 4700 
Q 1616 4750 1894 4750 
Q 2613 4750 3031 4423 
Q 3450 4097 3450 3541 
Q 3450 3153 3228 2886 
Q 3006 2619 2597 2516 
z
" transform="scale(0.015625)"/>
       <path id="DejaVuSans-4e" d="M 628 4666 
L 1478 4666 
L 3547 763 
L 3547 4666 
L 4159 4666 
L 4159 0 
L 3309 0 
L 1241 3903 
L 1241 0 
L 628 0 
L 628 4666 
z
" transform="scale(0.015625)"/>
      </defs>
      <use xlink:href="#DejaVuSans-31"/>
      <use xlink:href="#DejaVuSans-2e" transform="translate(63.623047 0)"/>
      <use xlink:href="#DejaVuSans-33" transform="translate(95.410156 0)"/>
      <use xlink:href="#DejaVuSans-20" transform="translate(159.033203 0)"/>
      <use xlink:href="#DejaVuSans-6d" transform="translate(190.820312 0)"/>
      <use xlink:href="#DejaVuSans-4e" transform="translate(288.232422 0)"/>
      <use xlink:href="#DejaVuSans-6d" transform="translate(363.037109 0)"/>
     </g>
    </g>
    <g id="line2d_55">
     <path d="M 50.915 68.283594 
L 57.915 68.283594 
L 64.915 68.283594 
" style="fill: none; stroke: #3d4e8a; stroke-width: 2; stroke-linecap: square"/>
    </g>
    <g id="text_18">
     <!-- 1.8 mNm -->
     <g transform="translate(70.515 70.733594) scale(0.07 -0.07)">
      <use xlink:href="#DejaVuSans-31"/>
      <use xlink:href="#DejaVuSans-2e" transform="translate(63.623047 0)"/>
      <use xlink:href="#DejaVuSans-38" transform="translate(95.410156 0)"/>
      <use xlink:href="#DejaVuSans-20" transform="translate(159.033203 0)"/>
      <use xlink:href="#DejaVuSans-6d" transform="translate(190.820312 0)"/>
      <use xlink:href="#DejaVuSans-4e" transform="translate(288.232422 0)"/>
      <use xlink:href="#DejaVuSans-6d" transform="translate(363.037109 0)"/>
     </g>
    </g>
    <g id="line2d_56">
     <path d="M 50.915 78.558281 
L 57.915 78.558281 
L 64.915 78.558281 
" style="fill: none; stroke: #31668e; stroke-width: 2; stroke-linecap: square"/>
    </g>
    <g id="text_19">
     <!-- 7.4 mNm -->
     <g transform="translate(70.515 81.008281) scale(0.07 -0.07)">
      <defs>
       <path id="DejaVuSans-37" d="M 525 4666 
L 3525 4666 
L 3525 4397 
L 1831 0 
L 1172 0 
L 2766 4134 
L 525 4134 
L 525 4666 
z
" transform="scale(0.015625)"/>
      </defs>
      <use xlink:href="#DejaVuSans-37"/>
      <use xlink:href="#DejaVuSans-2e" transform="translate(63.623047 0)"/>
      <use xlink:href="#DejaVuSans-34" transform="translate(95.410156 0)"/>
      <use xlink:href="#DejaVuSans-20" transform="translate(159.033203 0)"/>
      <use xlink:href="#DejaVuSans-6d" transform="translate(190.820312 0)"/>
      <use xlink:href="#DejaVuSans-4e" transform="translate(288.232422 0)"/>
      <use xlink:href="#DejaVuSans-6d" transform="translate(363.037109 0)"/>
     </g>
    </g>
    <g id="line2d_57">
     <path d="M 50.915 88.832969 
L 57.915 88.832969 
L 64.915 88.832969 
" style="fill: none; stroke: #297b8e; stroke-width: 2; stroke-linecap: square"/>
    </g>
    <g id="text_20">
     <!-- 8.1 mNm -->
     <g transform="translate(70.515 91.282969) scale(0.07 -0.07)">
      <use xlink:href="#DejaVuSans-38"/>
      <use xlink:href="#DejaVuSans-2e" transform="translate(63.623047 0)"/>
      <use xlink:href="#DejaVuSans-31" transform="translate(95.410156 0)"/>
      <use xlink:href="#DejaVuSans-20" transform="translate(159.033203 0)"/>
      <use xlink:href="#DejaVuSans-6d" transform="translate(190.820312 0)"/>
      <use xlink:href="#DejaVuSans-4e" transform="translate(288.232422 0)"/>
      <use xlink:href="#DejaVuSans-6d" transform="translate(363.037109 0)"/>
     </g>
    </g>
    <g id="line2d_58">
     <path d="M 50.915 99.107656 
L 57.915 99.107656 
L 64.915 99.107656 
" style="fill: none; stroke: #21918c; stroke-width: 2; stroke-linecap: square"/>
    </g>
    <g id="text_21">
     <!-- 9.0 mNm -->
     <g transform="translate(70.515 101.557656) scale(0.07 -0.07)">
      <defs>
       <path id="DejaVuSans-39" d="M 703 97 
L 703 672 
Q 941 559 1184 500 
Q 1428 441 1663 441 
Q 2288 441 2617 861 
Q 2947 1281 2994 2138 
Q 2813 1869 2534 1725 
Q 2256 1581 1919 1581 
Q 1219 1581 811 2004 
Q 403 2428 403 3163 
Q 403 3881 828 4315 
Q 1253 4750 1959 4750 
Q 2769 4750 3195 4129 
Q 3622 3509 3622 2328 
Q 3622 1225 3098 567 
Q 2575 -91 1691 -91 
Q 1453 -91 1209 -44 
Q 966 3 703 97 
z
M 1959 2075 
Q 2384 2075 2632 2365 
Q 2881 2656 2881 3163 
Q 2881 3666 2632 3958 
Q 2384 4250 1959 4250 
Q 1534 4250 1286 3958 
Q 1038 3666 1038 3163 
Q 1038 2656 1286 2365 
Q 1534 2075 1959 2075 
z
" transform="scale(0.015625)"/>
      </defs>
      <use xlink:href="#DejaVuSans-39"/>
      <use xlink:href="#DejaVuSans-2e" transform="translate(63.623047 0)"/>
      <use xlink:href="#DejaVuSans-30" transform="translate(95.410156 0)"/>
      <use xlink:href="#DejaVuSans-20" transform="translate(159.033203 0)"/>
      <use xlink:href="#DejaVuSans-6d" transform="translate(190.820312 0)"/>
      <use xlink:href="#DejaVuSans-4e" transform="translate(288.232422 0)"/>
      <use xlink:href="#DejaVuSans-6d" transform="translate(363.037109 0)"/>
     </g>
    </g>
    <g id="line2d_59">
     <path d="M 116.745625 58.008906 
L 123.745625 58.008906 
L 130.745625 58.008906 
" style="fill: none; stroke: #21a585; stroke-width: 2; stroke-linecap: square"/>
    </g>
    <g id="text_22">
     <!-- 9.8 mNm -->
     <g transform="translate(136.345625 60.458906) scale(0.07 -0.07)">
      <use xlink:href="#DejaVuSans-39"/>
      <use xlink:href="#DejaVuSans-2e" transform="translate(63.623047 0)"/>
      <use xlink:href="#DejaVuSans-38" transform="translate(95.410156 0)"/>
      <use xlink:href="#DejaVuSans-20" transform="translate(159.033203 0)"/>
      <use xlink:href="#DejaVuSans-6d" transform="translate(190.820312 0)"/>
      <use xlink:href="#DejaVuSans-4e" transform="translate(288.232422 0)"/>
      <use xlink:href="#DejaVuSans-6d" transform="translate(363.037109 0)"/>
     </g>
    </g>
    <g id="line2d_60">
     <path d="M 116.745625 68.283594 
L 123.745625 68.283594 
L 130.745625 68.283594 
" style="fill: none; stroke: #38b977; stroke-width: 2; stroke-linecap: square"/>
    </g>
    <g id="text_23">
     <!-- 10.8 mNm -->
     <g transform="translate(136.345625 70.733594) scale(0.07 -0.07)">
      <use xlink:href="#DejaVuSans-31"/>
      <use xlink:href="#DejaVuSans-30" transform="translate(63.623047 0)"/>
      <use xlink:href="#DejaVuSans-2e" transform="translate(127.246094 0)"/>
      <use xlink:href="#DejaVuSans-38" transform="translate(159.033203 0)"/>
      <use xlink:href="#DejaVuSans-20" transform="translate(222.65625 0)"/>
      <use xlink:href="#DejaVuSans-6d" transform="translate(254.443359 0)"/>
      <use xlink:href="#DejaVuSans-4e" transform="translate(351.855469 0)"/>
      <use xlink:href="#DejaVuSans-6d" transform="translate(426.660156 0)"/>
     </g>
    </g>
    <g id="line2d_61">
     <path d="M 116.745625 78.558281 
L 123.745625 78.558281 
L 130.745625 78.558281 
" style="fill: none; stroke: #65cb5e; stroke-width: 2; stroke-linecap: square"/>
    </g>
    <g id="text_24">
     <!-- 11.9 mNm -->
     <g transform="translate(136.345625 81.008281) scale(0.07 -0.07)">
      <use xlink:href="#DejaVuSans-31"/>
      <use xlink:href="#DejaVuSans-31" transform="translate(63.623047 0)"/>
      <use xlink:href="#DejaVuSans-2e" transform="translate(127.246094 0)"/>
      <use xlink:href="#DejaVuSans-39" transform="translate(159.033203 0)"/>
      <use xlink:href="#DejaVuSans-20" transform="translate(222.65625 0)"/>
      <use xlink:href="#DejaVuSans-6d" transform="translate(254.443359 0)"/>
      <use xlink:href="#DejaVuSans-4e" transform="translate(351.855469 0)"/>
      <use xlink:href="#DejaVuSans-6d" transform="translate(426.660156 0)"/>
     </g>
    </g>
    <g id="line2d_62">
     <path d="M 116.745625 88.832969 
L 123.745625 88.832969 
L 130.745625 88.832969 
" style="fill: none; stroke: #9bd93c; stroke-width: 2; stroke-linecap: square"/>
    </g>
    <g id="text_25">
     <!-- 13.1 mNm -->
     <g transform="translate(136.345625 91.282969) scale(0.07 -0.07)">
      <use xlink:href="#DejaVuSans-31"/>
      <use xlink:href="#DejaVuSans-33" transform="translate(63.623047 0)"/>
      <use xlink:href="#DejaVuSans-2e" transform="translate(127.246094 0)"/>
      <use xlink:href="#DejaVuSans-31" transform="translate(159.033203 0)"/>
      <use xlink:href="#DejaVuSans-20" transform="translate(222.65625 0)"/>
      <use xlink:href="#DejaVuSans-6d" transform="translate(254.443359 0)"/>
      <use xlink:href="#DejaVuSans-4e" transform="translate(351.855469 0)"/>
      <use xlink:href="#DejaVuSans-6d" transform="translate(426.660156 0)"/>
     </g>
    </g>
   </g>
  </g>
  <g id="axes_2">
   <g id="patch_8">
    <path d="M 435.2375 246.04 
L 781.2 246.04 
L 781.2 48.84 
L 435.2375 48.84 
z
" style="fill: #ffffff"/>
   </g>
   <g id="FillBetweenPolyCollection_1">
    <defs>
     <path id="m4ef53ea19a" d="M 450.963068 -139.659678 
L 450.963068 -50.923636 
L 765.474432 -50.923636 
L 765.474432 -139.659678 
L 765.474432 -139.659678 
L 450.963068 -139.659678 
z
" style="stroke: #ff0000; stroke-opacity: 0.15"/>
    </defs>
    <g clip-path="url(#p7cec19f2a7)">
     <use xlink:href="#m4ef53ea19a" x="0" y="288" style="fill: #ff0000; fill-opacity: 0.15; stroke: #ff0000; stroke-opacity: 0.15"/>
    </g>
   </g>
   <g id="matplotlib.axis_3">
    <g id="xtick_7">
     <g id="line2d_63">
      <path d="M 471.016737 246.04 
L 471.016737 48.84 
" clip-path="url(#p7cec19f2a7)" style="fill: none; stroke: #b0b0b0; stroke-width: 0.8; stroke-linecap: square"/>
     </g>
     <g id="line2d_64">
      <g>
       <use xlink:href="#m591b20a41e" x="471.016737" y="246.04" style="stroke: #000000; stroke-width: 0.8"/>
      </g>
     </g>
     <g id="text_26">
      <!-- 2 -->
      <g transform="translate(467.835487 260.638438) scale(0.1 -0.1)">
       <use xlink:href="#DejaVuSans-32"/>
      </g>
     </g>
    </g>
    <g id="xtick_8">
     <g id="line2d_65">
      <path d="M 513.903111 246.04 
L 513.903111 48.84 
" clip-path="url(#p7cec19f2a7)" style="fill: none; stroke: #b0b0b0; stroke-width: 0.8; stroke-linecap: square"/>
     </g>
     <g id="line2d_66">
      <g>
       <use xlink:href="#m591b20a41e" x="513.903111" y="246.04" style="stroke: #000000; stroke-width: 0.8"/>
      </g>
     </g>
     <g id="text_27">
      <!-- 4 -->
      <g transform="translate(510.721861 260.638438) scale(0.1 -0.1)">
       <use xlink:href="#DejaVuSans-34"/>
      </g>
     </g>
    </g>
    <g id="xtick_9">
     <g id="line2d_67">
      <path d="M 556.789485 246.04 
L 556.789485 48.84 
" clip-path="url(#p7cec19f2a7)" style="fill: none; stroke: #b0b0b0; stroke-width: 0.8; stroke-linecap: square"/>
     </g>
     <g id="line2d_68">
      <g>
       <use xlink:href="#m591b20a41e" x="556.789485" y="246.04" style="stroke: #000000; stroke-width: 0.8"/>
      </g>
     </g>
     <g id="text_28">
      <!-- 6 -->
      <g transform="translate(553.608235 260.638438) scale(0.1 -0.1)">
       <use xlink:href="#DejaVuSans-36"/>
      </g>
     </g>
    </g>
    <g id="xtick_10">
     <g id="line2d_69">
      <path d="M 599.675859 246.04 
L 599.675859 48.84 
" clip-path="url(#p7cec19f2a7)" style="fill: none; stroke: #b0b0b0; stroke-width: 0.8; stroke-linecap: square"/>
     </g>
     <g id="line2d_70">
      <g>
       <use xlink:href="#m591b20a41e" x="599.675859" y="246.04" style="stroke: #000000; stroke-width: 0.8"/>
      </g>
     </g>
     <g id="text_29">
      <!-- 8 -->
      <g transform="translate(596.494609 260.638438) scale(0.1 -0.1)">
       <use xlink:href="#DejaVuSans-38"/>
      </g>
     </g>
    </g>
    <g id="xtick_11">
     <g id="line2d_71">
      <path d="M 642.562233 246.04 
L 642.562233 48.84 
" clip-path="url(#p7cec19f2a7)" style="fill: none; stroke: #b0b0b0; stroke-width: 0.8; stroke-linecap: square"/>
     </g>
     <g id="line2d_72">
      <g>
       <use xlink:href="#m591b20a41e" x="642.562233" y="246.04" style="stroke: #000000; stroke-width: 0.8"/>
      </g>
     </g>
     <g id="text_30">
      <!-- 10 -->
      <g transform="translate(636.199733 260.638438) scale(0.1 -0.1)">
       <use xlink:href="#DejaVuSans-31"/>
       <use xlink:href="#DejaVuSans-30" transform="translate(63.623047 0)"/>
      </g>
     </g>
    </g>
    <g id="xtick_12">
     <g id="line2d_73">
      <path d="M 685.448607 246.04 
L 685.448607 48.84 
" clip-path="url(#p7cec19f2a7)" style="fill: none; stroke: #b0b0b0; stroke-width: 0.8; stroke-linecap: square"/>
     </g>
     <g id="line2d_74">
      <g>
       <use xlink:href="#m591b20a41e" x="685.448607" y="246.04" style="stroke: #000000; stroke-width: 0.8"/>
      </g>
     </g>
     <g id="text_31">
      <!-- 12 -->
      <g transform="translate(679.086107 260.638438) scale(0.1 -0.1)">
       <use xlink:href="#DejaVuSans-31"/>
       <use xlink:href="#DejaVuSans-32" transform="translate(63.623047 0)"/>
      </g>
     </g>
    </g>
    <g id="xtick_13">
     <g id="line2d_75">
      <path d="M 728.334981 246.04 
L 728.334981 48.84 
" clip-path="url(#p7cec19f2a7)" style="fill: none; stroke: #b0b0b0; stroke-width: 0.8; stroke-linecap: square"/>
     </g>
     <g id="line2d_76">
      <g>
       <use xlink:href="#m591b20a41e" x="728.334981" y="246.04" style="stroke: #000000; stroke-width: 0.8"/>
      </g>
     </g>
     <g id="text_32">
      <!-- 14 -->
      <g transform="translate(721.972481 260.638438) scale(0.1 -0.1)">
       <use xlink:href="#DejaVuSans-31"/>
       <use xlink:href="#DejaVuSans-34" transform="translate(63.623047 0)"/>
      </g>
     </g>
    </g>
    <g id="xtick_14">
     <g id="line2d_77">
      <path d="M 771.221355 246.04 
L 771.221355 48.84 
" clip-path="url(#p7cec19f2a7)" style="fill: none; stroke: #b0b0b0; stroke-width: 0.8; stroke-linecap: square"/>
     </g>
     <g id="line2d_78">
      <g>
       <use xlink:href="#m591b20a41e" x="771.221355" y="246.04" style="stroke: #000000; stroke-width: 0.8"/>
      </g>
     </g>
     <g id="text_33">
      <!-- 16 -->
      <g transform="translate(764.858855 260.638438) scale(0.1 -0.1)">
       <use xlink:href="#DejaVuSans-31"/>
       <use xlink:href="#DejaVuSans-36" transform="translate(63.623047 0)"/>
      </g>
     </g>
    </g>
    <g id="text_34">
     <!-- feedforward torque  [mNm] -->
     <g transform="translate(539.403906 274.316562) scale(0.1 -0.1)">
      <defs>
       <path id="DejaVuSans-66" d="M 2375 4863 
L 2375 4384 
L 1825 4384 
Q 1516 4384 1395 4259 
Q 1275 4134 1275 3809 
L 1275 3500 
L 2222 3500 
L 2222 3053 
L 1275 3053 
L 1275 0 
L 697 0 
L 697 3053 
L 147 3053 
L 147 3500 
L 697 3500 
L 697 3744 
Q 697 4328 969 4595 
Q 1241 4863 1831 4863 
L 2375 4863 
z
" transform="scale(0.015625)"/>
       <path id="DejaVuSans-71" d="M 947 1747 
Q 947 1113 1208 752 
Q 1469 391 1925 391 
Q 2381 391 2643 752 
Q 2906 1113 2906 1747 
Q 2906 2381 2643 2742 
Q 2381 3103 1925 3103 
Q 1469 3103 1208 2742 
Q 947 2381 947 1747 
z
M 2906 525 
Q 2725 213 2448 61 
Q 2172 -91 1784 -91 
Q 1150 -91 751 415 
Q 353 922 353 1747 
Q 353 2572 751 3078 
Q 1150 3584 1784 3584 
Q 2172 3584 2448 3432 
Q 2725 3281 2906 2969 
L 2906 3500 
L 3481 3500 
L 3481 -1331 
L 2906 -1331 
L 2906 525 
z
" transform="scale(0.015625)"/>
      </defs>
      <use xlink:href="#DejaVuSans-66"/>
      <use xlink:href="#DejaVuSans-65" transform="translate(35.205078 0)"/>
      <use xlink:href="#DejaVuSans-65" transform="translate(96.728516 0)"/>
      <use xlink:href="#DejaVuSans-64" transform="translate(158.251953 0)"/>
      <use xlink:href="#DejaVuSans-66" transform="translate(221.728516 0)"/>
      <use xlink:href="#DejaVuSans-6f" transform="translate(256.933594 0)"/>
      <use xlink:href="#DejaVuSans-72" transform="translate(318.115234 0)"/>
      <use xlink:href="#DejaVuSans-77" transform="translate(359.228516 0)"/>
      <use xlink:href="#DejaVuSans-61" transform="translate(441.015625 0)"/>
      <use xlink:href="#DejaVuSans-72" transform="translate(502.294922 0)"/>
      <use xlink:href="#DejaVuSans-64" transform="translate(541.658203 0)"/>
      <use xlink:href="#DejaVuSans-20" transform="translate(605.134766 0)"/>
      <use xlink:href="#DejaVuSans-74" transform="translate(636.921875 0)"/>
      <use xlink:href="#DejaVuSans-6f" transform="translate(676.130859 0)"/>
      <use xlink:href="#DejaVuSans-72" transform="translate(737.3125 0)"/>
      <use xlink:href="#DejaVuSans-71" transform="translate(776.675781 0)"/>
      <use xlink:href="#DejaVuSans-75" transform="translate(840.152344 0)"/>
      <use xlink:href="#DejaVuSans-65" transform="translate(903.53125 0)"/>
      <use xlink:href="#DejaVuSans-20" transform="translate(965.054688 0)"/>
      <use xlink:href="#DejaVuSans-20" transform="translate(996.841797 0)"/>
      <use xlink:href="#DejaVuSans-5b" transform="translate(1028.628906 0)"/>
      <use xlink:href="#DejaVuSans-6d" transform="translate(1067.642578 0)"/>
      <use xlink:href="#DejaVuSans-4e" transform="translate(1165.054688 0)"/>
      <use xlink:href="#DejaVuSans-6d" transform="translate(1239.859375 0)"/>
      <use xlink:href="#DejaVuSans-5d" transform="translate(1337.271484 0)"/>
     </g>
    </g>
   </g>
   <g id="matplotlib.axis_4">
    <g id="ytick_8">
     <g id="line2d_79">
      <path d="M 435.2375 235.028476 
L 781.2 235.028476 
" clip-path="url(#p7cec19f2a7)" style="fill: none; stroke: #b0b0b0; stroke-width: 0.8; stroke-linecap: square"/>
     </g>
     <g id="line2d_80">
      <g>
       <use xlink:href="#m26c60f300c" x="435.2375" y="235.028476" style="stroke: #000000; stroke-width: 0.8"/>
      </g>
     </g>
     <g id="text_35">
      <!-- 0 -->
      <g transform="translate(421.875 238.827695) scale(0.1 -0.1)">
       <use xlink:href="#DejaVuSans-30"/>
      </g>
     </g>
    </g>
    <g id="ytick_9">
     <g id="line2d_81">
      <path d="M 435.2375 202.740796 
L 781.2 202.740796 
" clip-path="url(#p7cec19f2a7)" style="fill: none; stroke: #b0b0b0; stroke-width: 0.8; stroke-linecap: square"/>
     </g>
     <g id="line2d_82">
      <g>
       <use xlink:href="#m26c60f300c" x="435.2375" y="202.740796" style="stroke: #000000; stroke-width: 0.8"/>
      </g>
     </g>
     <g id="text_36">
      <!-- 10 -->
      <g transform="translate(415.5125 206.540015) scale(0.1 -0.1)">
       <use xlink:href="#DejaVuSans-31"/>
       <use xlink:href="#DejaVuSans-30" transform="translate(63.623047 0)"/>
      </g>
     </g>
    </g>
    <g id="ytick_10">
     <g id="line2d_83">
      <path d="M 435.2375 170.453116 
L 781.2 170.453116 
" clip-path="url(#p7cec19f2a7)" style="fill: none; stroke: #b0b0b0; stroke-width: 0.8; stroke-linecap: square"/>
     </g>
     <g id="line2d_84">
      <g>
       <use xlink:href="#m26c60f300c" x="435.2375" y="170.453116" style="stroke: #000000; stroke-width: 0.8"/>
      </g>
     </g>
     <g id="text_37">
      <!-- 20 -->
      <g transform="translate(415.5125 174.252334) scale(0.1 -0.1)">
       <use xlink:href="#DejaVuSans-32"/>
       <use xlink:href="#DejaVuSans-30" transform="translate(63.623047 0)"/>
      </g>
     </g>
    </g>
    <g id="ytick_11">
     <g id="line2d_85">
      <path d="M 435.2375 138.165435 
L 781.2 138.165435 
" clip-path="url(#p7cec19f2a7)" style="fill: none; stroke: #b0b0b0; stroke-width: 0.8; stroke-linecap: square"/>
     </g>
     <g id="line2d_86">
      <g>
       <use xlink:href="#m26c60f300c" x="435.2375" y="138.165435" style="stroke: #000000; stroke-width: 0.8"/>
      </g>
     </g>
     <g id="text_38">
      <!-- 30 -->
      <g transform="translate(415.5125 141.964654) scale(0.1 -0.1)">
       <use xlink:href="#DejaVuSans-33"/>
       <use xlink:href="#DejaVuSans-30" transform="translate(63.623047 0)"/>
      </g>
     </g>
    </g>
    <g id="ytick_12">
     <g id="line2d_87">
      <path d="M 435.2375 105.877755 
L 781.2 105.877755 
" clip-path="url(#p7cec19f2a7)" style="fill: none; stroke: #b0b0b0; stroke-width: 0.8; stroke-linecap: square"/>
     </g>
     <g id="line2d_88">
      <g>
       <use xlink:href="#m26c60f300c" x="435.2375" y="105.877755" style="stroke: #000000; stroke-width: 0.8"/>
      </g>
     </g>
     <g id="text_39">
      <!-- 40 -->
      <g transform="translate(415.5125 109.676974) scale(0.1 -0.1)">
       <use xlink:href="#DejaVuSans-34"/>
       <use xlink:href="#DejaVuSans-30" transform="translate(63.623047 0)"/>
      </g>
     </g>
    </g>
    <g id="ytick_13">
     <g id="line2d_89">
      <path d="M 435.2375 73.590075 
L 781.2 73.590075 
" clip-path="url(#p7cec19f2a7)" style="fill: none; stroke: #b0b0b0; stroke-width: 0.8; stroke-linecap: square"/>
     </g>
     <g id="line2d_90">
      <g>
       <use xlink:href="#m26c60f300c" x="435.2375" y="73.590075" style="stroke: #000000; stroke-width: 0.8"/>
      </g>
     </g>
     <g id="text_40">
      <!-- 50 -->
      <g transform="translate(415.5125 77.389294) scale(0.1 -0.1)">
       <defs>
        <path id="DejaVuSans-35" d="M 691 4666 
L 3169 4666 
L 3169 4134 
L 1269 4134 
L 1269 2991 
Q 1406 3038 1543 3061 
Q 1681 3084 1819 3084 
Q 2600 3084 3056 2656 
Q 3513 2228 3513 1497 
Q 3513 744 3044 326 
Q 2575 -91 1722 -91 
Q 1428 -91 1123 -41 
Q 819 9 494 109 
L 494 744 
Q 775 591 1075 516 
Q 1375 441 1709 441 
Q 2250 441 2565 725 
Q 2881 1009 2881 1497 
Q 2881 1984 2565 2268 
Q 2250 2553 1709 2553 
Q 1456 2553 1204 2497 
Q 953 2441 691 2322 
L 691 4666 
z
" transform="scale(0.015625)"/>
       </defs>
       <use xlink:href="#DejaVuSans-35"/>
       <use xlink:href="#DejaVuSans-30" transform="translate(63.623047 0)"/>
      </g>
     </g>
    </g>
    <g id="text_41">
     <!-- inertia estimate  [µkg·m²] -->
     <g transform="translate(409.432812 211.928281) rotate(-90) scale(0.1 -0.1)">
      <defs>
       <path id="DejaVuSans-b5" d="M 544 -1331 
L 544 3500 
L 1119 3500 
L 1119 1325 
Q 1119 872 1334 640 
Q 1550 409 1972 409 
Q 2434 409 2667 671 
Q 2900 934 2900 1459 
L 2900 3500 
L 3475 3500 
L 3475 806 
Q 3475 619 3529 530 
Q 3584 441 3700 441 
Q 3728 441 3778 458 
Q 3828 475 3916 513 
L 3916 50 
Q 3788 -22 3673 -56 
Q 3559 -91 3450 -91 
Q 3234 -91 3106 31 
Q 2978 153 2931 403 
Q 2775 156 2548 32 
Q 2322 -91 2016 -91 
Q 1697 -91 1473 31 
Q 1250 153 1119 397 
L 1119 -1331 
L 544 -1331 
z
" transform="scale(0.015625)"/>
       <path id="DejaVuSans-6b" d="M 581 4863 
L 1159 4863 
L 1159 1991 
L 2875 3500 
L 3609 3500 
L 1753 1863 
L 3688 0 
L 2938 0 
L 1159 1709 
L 1159 0 
L 581 0 
L 581 4863 
z
" transform="scale(0.015625)"/>
       <path id="DejaVuSans-67" d="M 2906 1791 
Q 2906 2416 2648 2759 
Q 2391 3103 1925 3103 
Q 1463 3103 1205 2759 
Q 947 2416 947 1791 
Q 947 1169 1205 825 
Q 1463 481 1925 481 
Q 2391 481 2648 825 
Q 2906 1169 2906 1791 
z
M 3481 434 
Q 3481 -459 3084 -895 
Q 2688 -1331 1869 -1331 
Q 1566 -1331 1297 -1286 
Q 1028 -1241 775 -1147 
L 775 -588 
Q 1028 -725 1275 -790 
Q 1522 -856 1778 -856 
Q 2344 -856 2625 -561 
Q 2906 -266 2906 331 
L 2906 616 
Q 2728 306 2450 153 
Q 2172 0 1784 0 
Q 1141 0 747 490 
Q 353 981 353 1791 
Q 353 2603 747 3093 
Q 1141 3584 1784 3584 
Q 2172 3584 2450 3431 
Q 2728 3278 2906 2969 
L 2906 3500 
L 3481 3500 
L 3481 434 
z
" transform="scale(0.015625)"/>
       <path id="DejaVuSans-b7" d="M 684 2619 
L 1344 2619 
L 1344 1825 
L 684 1825 
L 684 2619 
z
" transform="scale(0.015625)"/>
       <path id="DejaVuSans-b2" d="M 838 2444 
L 2163 2444 
L 2163 2088 
L 294 2088 
L 294 2431 
Q 400 2528 597 2703 
Q 1672 3656 1672 3950 
Q 1672 4156 1509 4282 
Q 1347 4409 1081 4409 
Q 919 4409 728 4354 
Q 538 4300 313 4191 
L 313 4575 
Q 553 4663 761 4706 
Q 969 4750 1147 4750 
Q 1600 4750 1872 4544 
Q 2144 4338 2144 4000 
Q 2144 3566 1109 2678 
Q 934 2528 838 2444 
z
" transform="scale(0.015625)"/>
      </defs>
      <use xlink:href="#DejaVuSans-69"/>
      <use xlink:href="#DejaVuSans-6e" transform="translate(27.783203 0)"/>
      <use xlink:href="#DejaVuSans-65" transform="translate(91.162109 0)"/>
      <use xlink:href="#DejaVuSans-72" transform="translate(152.685547 0)"/>
      <use xlink:href="#DejaVuSans-74" transform="translate(193.798828 0)"/>
      <use xlink:href="#DejaVuSans-69" transform="translate(233.007812 0)"/>
      <use xlink:href="#DejaVuSans-61" transform="translate(260.791016 0)"/>
      <use xlink:href="#DejaVuSans-20" transform="translate(322.070312 0)"/>
      <use xlink:href="#DejaVuSans-65" transform="translate(353.857422 0)"/>
      <use xlink:href="#DejaVuSans-73" transform="translate(415.380859 0)"/>
      <use xlink:href="#DejaVuSans-74" transform="translate(467.480469 0)"/>
      <use xlink:href="#DejaVuSans-69" transform="translate(506.689453 0)"/>
      <use xlink:href="#DejaVuSans-6d" transform="translate(534.472656 0)"/>
      <use xlink:href="#DejaVuSans-61" transform="translate(631.884766 0)"/>
      <use xlink:href="#DejaVuSans-74" transform="translate(693.164062 0)"/>
      <use xlink:href="#DejaVuSans-65" transform="translate(732.373047 0)"/>
      <use xlink:href="#DejaVuSans-20" transform="translate(793.896484 0)"/>
      <use xlink:href="#DejaVuSans-20" transform="translate(825.683594 0)"/>
      <use xlink:href="#DejaVuSans-5b" transform="translate(857.470703 0)"/>
      <use xlink:href="#DejaVuSans-b5" transform="translate(896.484375 0)"/>
      <use xlink:href="#DejaVuSans-6b" transform="translate(960.107422 0)"/>
      <use xlink:href="#DejaVuSans-67" transform="translate(1018.017578 0)"/>
      <use xlink:href="#DejaVuSans-b7" transform="translate(1081.494141 0)"/>
      <use xlink:href="#DejaVuSans-6d" transform="translate(1113.28125 0)"/>
      <use xlink:href="#DejaVuSans-b2" transform="translate(1210.693359 0)"/>
      <use xlink:href="#DejaVuSans-5d" transform="translate(1250.78125 0)"/>
     </g>
    </g>
   </g>
   <g id="line2d_91">
    <path d="M 435.2375 192.708343 
L 781.2 192.708343 
" clip-path="url(#p7cec19f2a7)" style="fill: none; stroke-dasharray: 5.55,2.4; stroke-dashoffset: 0; stroke: #ff0000; stroke-width: 1.5"/>
   </g>
   <g id="patch_9">
    <path d="M 435.2375 246.04 
L 435.2375 48.84 
" style="fill: none; stroke: #000000; stroke-width: 0.8; stroke-linejoin: miter; stroke-linecap: square"/>
   </g>
   <g id="patch_10">
    <path d="M 781.2 246.04 
L 781.2 48.84 
" style="fill: none; stroke: #000000; stroke-width: 0.8; stroke-linejoin: miter; stroke-linecap: square"/>
   </g>
   <g id="patch_11">
    <path d="M 435.2375 246.04 
L 781.2 246.04 
" style="fill: none; stroke: #000000; stroke-width: 0.8; stroke-linejoin: miter; stroke-linecap: square"/>
   </g>
   <g id="patch_12">
    <path d="M 435.2375 48.84 
L 781.2 48.84 
" style="fill: none; stroke: #000000; stroke-width: 0.8; stroke-linejoin: miter; stroke-linecap: square"/>
   </g>
   <g id="PathCollection_1">
    <defs>
     <path id="mee577f3a5c" d="M 0 3.162278 
C 0.838646 3.162278 1.643056 2.82908 2.236068 2.236068 
C 2.82908 1.643056 3.162278 0.838646 3.162278 0 
C 3.162278 -0.838646 2.82908 -1.643056 2.236068 -2.236068 
C 1.643056 -2.82908 0.838646 -3.162278 0 -3.162278 
C -0.838646 -3.162278 -1.643056 -2.82908 -2.236068 -2.236068 
C -2.82908 -1.643056 -3.162278 -0.838646 -3.162278 0 
C -3.162278 0.838646 -2.82908 1.643056 -2.236068 2.236068 
C -1.643056 2.82908 -0.838646 3.162278 0 3.162278 
z
" style="stroke: #1f77b4"/>
    </defs>
    <g clip-path="url(#p7cec19f2a7)">
     <use xlink:href="#mee577f3a5c" x="456.671245" y="200.306186" style="fill: #1f77b4; stroke: #1f77b4"/>
     <use xlink:href="#mee577f3a5c" x="466.118277" y="192.708343" style="fill: #1f77b4; stroke: #1f77b4"/>
     <use xlink:href="#mee577f3a5c" x="586.815306" y="57.803636" style="fill: #1f77b4; stroke: #1f77b4"/>
     <use xlink:href="#mee577f3a5c" x="602.683801" y="135.058589" style="fill: #1f77b4; stroke: #1f77b4"/>
     <use xlink:href="#mee577f3a5c" x="620.139145" y="194.572199" style="fill: #1f77b4; stroke: #1f77b4"/>
     <use xlink:href="#mee577f3a5c" x="639.340023" y="185.297939" style="fill: #1f77b4; stroke: #1f77b4"/>
     <use xlink:href="#mee577f3a5c" x="660.460989" y="195.437358" style="fill: #1f77b4; stroke: #1f77b4"/>
     <use xlink:href="#mee577f3a5c" x="683.694051" y="192.140005" style="fill: #1f77b4; stroke: #1f77b4"/>
     <use xlink:href="#mee577f3a5c" x="709.25042" y="192.980674" style="fill: #1f77b4; stroke: #1f77b4"/>
    </g>
   </g>
   <g id="text_42">
    <!-- J per torque level  (1 run(s)) -->
    <g transform="translate(524.704375 42.84) scale(0.12 -0.12)">
     <defs>
      <path id="DejaVuSans-4a" d="M 628 4666 
L 1259 4666 
L 1259 325 
Q 1259 -519 939 -900 
Q 619 -1281 -91 -1281 
L -331 -1281 
L -331 -750 
L -134 -750 
Q 284 -750 456 -515 
Q 628 -281 628 325 
L 628 4666 
z
" transform="scale(0.015625)"/>
     </defs>
     <use xlink:href="#DejaVuSans-4a"/>
     <use xlink:href="#DejaVuSans-20" transform="translate(29.492188 0)"/>
     <use xlink:href="#DejaVuSans-70" transform="translate(61.279297 0)"/>
     <use xlink:href="#DejaVuSans-65" transform="translate(124.755859 0)"/>
     <use xlink:href="#DejaVuSans-72" transform="translate(186.279297 0)"/>
     <use xlink:href="#DejaVuSans-20" transform="translate(227.392578 0)"/>
     <use xlink:href="#DejaVuSans-74" transform="translate(259.179688 0)"/>
     <use xlink:href="#DejaVuSans-6f" transform="translate(298.388672 0)"/>
     <use xlink:href="#DejaVuSans-72" transform="translate(359.570312 0)"/>
     <use xlink:href="#DejaVuSans-71" transform="translate(398.933594 0)"/>
     <use xlink:href="#DejaVuSans-75" transform="translate(462.410156 0)"/>
     <use xlink:href="#DejaVuSans-65" transform="translate(525.789062 0)"/>
     <use xlink:href="#DejaVuSans-20" transform="translate(587.3125 0)"/>
     <use xlink:href="#DejaVuSans-6c" transform="translate(619.099609 0)"/>
     <use xlink:href="#DejaVuSans-65" transform="translate(646.882812 0)"/>
     <use xlink:href="#DejaVuSans-76" transform="translate(708.40625 0)"/>
     <use xlink:href="#DejaVuSans-65" transform="translate(767.585938 0)"/>
     <use xlink:href="#DejaVuSans-6c" transform="translate(829.109375 0)"/>
     <use xlink:href="#DejaVuSans-20" transform="translate(856.892578 0)"/>
     <use xlink:href="#DejaVuSans-20" transform="translate(888.679688 0)"/>
     <use xlink:href="#DejaVuSans-28" transform="translate(920.466797 0)"/>
     <use xlink:href="#DejaVuSans-31" transform="translate(959.480469 0)"/>
     <use xlink:href="#DejaVuSans-20" transform="translate(1023.103516 0)"/>
     <use xlink:href="#DejaVuSans-72" transform="translate(1054.890625 0)"/>
     <use xlink:href="#DejaVuSans-75" transform="translate(1096.003906 0)"/>
     <use xlink:href="#DejaVuSans-6e" transform="translate(1159.382812 0)"/>
     <use xlink:href="#DejaVuSans-28" transform="translate(1222.761719 0)"/>
     <use xlink:href="#DejaVuSans-73" transform="translate(1261.775391 0)"/>
     <use xlink:href="#DejaVuSans-29" transform="translate(1313.875 0)"/>
     <use xlink:href="#DejaVuSans-29" transform="translate(1352.888672 0)"/>
    </g>
   </g>
   <g id="legend_2">
    <g id="patch_13">
     <path d="M 661.1375 90.4675 
L 775.6 90.4675 
Q 777.2 90.4675 777.2 88.8675 
L 777.2 54.44 
Q 777.2 52.84 775.6 52.84 
L 661.1375 52.84 
Q 659.5375 52.84 659.5375 54.44 
L 659.5375 88.8675 
Q 659.5375 90.4675 661.1375 90.4675 
z
" style="fill: #ffffff; opacity: 0.8; stroke: #cccccc; stroke-linejoin: miter"/>
    </g>
    <g id="PathCollection_2">
     <g>
      <use xlink:href="#mee577f3a5c" x="670.7375" y="60.01875" style="fill: #1f77b4; stroke: #1f77b4"/>
     </g>
    </g>
    <g id="text_43">
     <!-- run 1 -->
     <g transform="translate(685.1375 62.11875) scale(0.08 -0.08)">
      <use xlink:href="#DejaVuSans-72"/>
      <use xlink:href="#DejaVuSans-75" transform="translate(41.113281 0)"/>
      <use xlink:href="#DejaVuSans-6e" transform="translate(104.492188 0)"/>
      <use xlink:href="#DejaVuSans-20" transform="translate(167.871094 0)"/>
      <use xlink:href="#DejaVuSans-31" transform="translate(199.658203 0)"/>
     </g>
    </g>
    <g id="line2d_92">
     <path d="M 662.7375 71.06125 
L 670.7375 71.06125 
L 678.7375 71.06125 
" style="fill: none; stroke-dasharray: 5.55,2.4; stroke-dashoffset: 0; stroke: #ff0000; stroke-width: 1.5"/>
    </g>
    <g id="text_44">
     <!-- median  13.11 µkg·m² -->
     <g transform="translate(685.1375 73.86125) scale(0.08 -0.08)">
      <use xlink:href="#DejaVuSans-6d"/>
      <use xlink:href="#DejaVuSans-65" transform="translate(97.412109 0)"/>
      <use xlink:href="#DejaVuSans-64" transform="translate(158.935547 0)"/>
      <use xlink:href="#DejaVuSans-69" transform="translate(222.412109 0)"/>
      <use xlink:href="#DejaVuSans-61" transform="translate(250.195312 0)"/>
      <use xlink:href="#DejaVuSans-6e" transform="translate(311.474609 0)"/>
      <use xlink:href="#DejaVuSans-20" transform="translate(374.853516 0)"/>
      <use xlink:href="#DejaVuSans-20" transform="translate(406.640625 0)"/>
      <use xlink:href="#DejaVuSans-31" transform="translate(438.427734 0)"/>
      <use xlink:href="#DejaVuSans-33" transform="translate(502.050781 0)"/>
      <use xlink:href="#DejaVuSans-2e" transform="translate(565.673828 0)"/>
      <use xlink:href="#DejaVuSans-31" transform="translate(597.460938 0)"/>
      <use xlink:href="#DejaVuSans-31" transform="translate(661.083984 0)"/>
      <use xlink:href="#DejaVuSans-20" transform="translate(724.707031 0)"/>
      <use xlink:href="#DejaVuSans-b5" transform="translate(756.494141 0)"/>
      <use xlink:href="#DejaVuSans-6b" transform="translate(820.117188 0)"/>
      <use xlink:href="#DejaVuSans-67" transform="translate(878.027344 0)"/>
      <use xlink:href="#DejaVuSans-b7" transform="translate(941.503906 0)"/>
      <use xlink:href="#DejaVuSans-6d" transform="translate(973.291016 0)"/>
      <use xlink:href="#DejaVuSans-b2" transform="translate(1070.703125 0)"/>
     </g>
    </g>
    <g id="patch_14">
     <path d="M 662.7375 85.60375 
L 678.7375 85.60375 
L 678.7375 80.00375 
L 662.7375 80.00375 
z
" style="fill: #ff0000; fill-opacity: 0.15; stroke: #ff0000; stroke-opacity: 0.15; stroke-linejoin: miter"/>
    </g>
    <g id="text_45">
     <!-- ±1σ  (13.74 µkg·m²) -->
     <g transform="translate(685.1375 85.60375) scale(0.08 -0.08)">
      <defs>
       <path id="DejaVuSans-b1" d="M 2944 4013 
L 2944 2803 
L 4684 2803 
L 4684 2272 
L 2944 2272 
L 2944 1063 
L 2419 1063 
L 2419 2272 
L 678 2272 
L 678 2803 
L 2419 2803 
L 2419 4013 
L 2944 4013 
z
M 678 531 
L 4684 531 
L 4684 0 
L 678 0 
L 678 531 
z
" transform="scale(0.015625)"/>
       <path id="DejaVuSans-3c3" d="M 1959 3044 
Q 1484 3044 1228 2700 
Q 959 2341 959 1747 
Q 959 1119 1226 758 
Q 1494 397 1959 397 
Q 2419 397 2687 759 
Q 2956 1122 2956 1747 
Q 2956 2319 2688 2700 
Q 2441 3044 1959 3044 
z
M 1959 3500 
L 3869 3500 
L 3869 2925 
L 3225 2925 
Q 3566 2438 3566 1747 
Q 3566 888 3138 400 
Q 2709 -91 1959 -91 
Q 1206 -91 781 400 
Q 353 888 353 1747 
Q 353 2613 781 3097 
Q 1134 3500 1959 3500 
z
" transform="scale(0.015625)"/>
      </defs>
      <use xlink:href="#DejaVuSans-b1"/>
      <use xlink:href="#DejaVuSans-31" transform="translate(83.789062 0)"/>
      <use xlink:href="#DejaVuSans-3c3" transform="translate(147.412109 0)"/>
      <use xlink:href="#DejaVuSans-20" transform="translate(210.791016 0)"/>
      <use xlink:href="#DejaVuSans-20" transform="translate(242.578125 0)"/>
      <use xlink:href="#DejaVuSans-28" transform="translate(274.365234 0)"/>
      <use xlink:href="#DejaVuSans-31" transform="translate(313.378906 0)"/>
      <use xlink:href="#DejaVuSans-33" transform="translate(377.001953 0)"/>
      <use xlink:href="#DejaVuSans-2e" transform="translate(440.625 0)"/>
      <use xlink:href="#DejaVuSans-37" transform="translate(472.412109 0)"/>
      <use xlink:href="#DejaVuSans-34" transform="translate(536.035156 0)"/>
      <use xlink:href="#DejaVuSans-20" transform="translate(599.658203 0)"/>
      <use xlink:href="#DejaVuSans-b5" transform="translate(631.445312 0)"/>
      <use xlink:href="#DejaVuSans-6b" transform="translate(695.068359 0)"/>
      <use xlink:href="#DejaVuSans-67" transform="translate(752.978516 0)"/>
      <use xlink:href="#DejaVuSans-b7" transform="translate(816.455078 0)"/>
      <use xlink:href="#DejaVuSans-6d" transform="translate(848.242188 0)"/>
      <use xlink:href="#DejaVuSans-b2" transform="translate(945.654297 0)"/>
      <use xlink:href="#DejaVuSans-29" transform="translate(985.742188 0)"/>
     </g>
    </g>
   </g>
  </g>
  <g id="text_46">
   <!-- Motor inertia — drum (belt off),  J = 13.11 ± 13.74 µkg·m² -->
   <g transform="translate(221.091563 14.878125) scale(0.12 -0.12)">
    <defs>
     <path id="DejaVuSans-4d" d="M 628 4666 
L 1569 4666 
L 2759 1491 
L 3956 4666 
L 4897 4666 
L 4897 0 
L 4281 0 
L 4281 4097 
L 3078 897 
L 2444 897 
L 1241 4097 
L 1241 0 
L 628 0 
L 628 4666 
z
" transform="scale(0.015625)"/>
     <path id="DejaVuSans-2014" d="M 313 1978 
L 6088 1978 
L 6088 1528 
L 313 1528 
L 313 1978 
z
" transform="scale(0.015625)"/>
     <path id="DejaVuSans-62" d="M 3116 1747 
Q 3116 2381 2855 2742 
Q 2594 3103 2138 3103 
Q 1681 3103 1420 2742 
Q 1159 2381 1159 1747 
Q 1159 1113 1420 752 
Q 1681 391 2138 391 
Q 2594 391 2855 752 
Q 3116 1113 3116 1747 
z
M 1159 2969 
Q 1341 3281 1617 3432 
Q 1894 3584 2278 3584 
Q 2916 3584 3314 3078 
Q 3713 2572 3713 1747 
Q 3713 922 3314 415 
Q 2916 -91 2278 -91 
Q 1894 -91 1617 61 
Q 1341 213 1159 525 
L 1159 0 
L 581 0 
L 581 4863 
L 1159 4863 
L 1159 2969 
z
" transform="scale(0.015625)"/>
     <path id="DejaVuSans-2c" d="M 750 794 
L 1409 794 
L 1409 256 
L 897 -744 
L 494 -744 
L 750 256 
L 750 794 
z
" transform="scale(0.015625)"/>
    </defs>
    <use xlink:href="#DejaVuSans-4d"/>
    <use xlink:href="#DejaVuSans-6f" transform="translate(86.279297 0)"/>
    <use xlink:href="#DejaVuSans-74" transform="translate(147.460938 0)"/>
    <use xlink:href="#DejaVuSans-6f" transform="translate(186.669922 0)"/>
    <use xlink:href="#DejaVuSans-72" transform="translate(247.851562 0)"/>
    <use xlink:href="#DejaVuSans-20" transform="translate(288.964844 0)"/>
    <use xlink:href="#DejaVuSans-69" transform="translate(320.751953 0)"/>
    <use xlink:href="#DejaVuSans-6e" transform="translate(348.535156 0)"/>
    <use xlink:href="#DejaVuSans-65" transform="translate(411.914062 0)"/>
    <use xlink:href="#DejaVuSans-72" transform="translate(473.4375 0)"/>
    <use xlink:href="#DejaVuSans-74" transform="translate(514.550781 0)"/>
    <use xlink:href="#DejaVuSans-69" transform="translate(553.759766 0)"/>
    <use xlink:href="#DejaVuSans-61" transform="translate(581.542969 0)"/>
    <use xlink:href="#DejaVuSans-20" transform="translate(642.822266 0)"/>
    <use xlink:href="#DejaVuSans-2014" transform="translate(674.609375 0)"/>
    <use xlink:href="#DejaVuSans-20" transform="translate(774.609375 0)"/>
    <use xlink:href="#DejaVuSans-64" transform="translate(806.396484 0)"/>
    <use xlink:href="#DejaVuSans-72" transform="translate(869.873047 0)"/>
    <use xlink:href="#DejaVuSans-75" transform="translate(910.986328 0)"/>
    <use xlink:href="#DejaVuSans-6d" transform="translate(974.365234 0)"/>
    <use xlink:href="#DejaVuSans-20" transform="translate(1071.777344 0)"/>
    <use xlink:href="#DejaVuSans-28" transform="translate(1103.564453 0)"/>
    <use xlink:href="#DejaVuSans-62" transform="translate(1142.578125 0)"/>
    <use xlink:href="#DejaVuSans-65" transform="translate(1206.054688 0)"/>
    <use xlink:href="#DejaVuSans-6c" transform="translate(1267.578125 0)"/>
    <use xlink:href="#DejaVuSans-74" transform="translate(1295.361328 0)"/>
    <use xlink:href="#DejaVuSans-20" transform="translate(1334.570312 0)"/>
    <use xlink:href="#DejaVuSans-6f" transform="translate(1366.357422 0)"/>
    <use xlink:href="#DejaVuSans-66" transform="translate(1427.539062 0)"/>
    <use xlink:href="#DejaVuSans-66" transform="translate(1462.744141 0)"/>
    <use xlink:href="#DejaVuSans-29" transform="translate(1497.949219 0)"/>
    <use xlink:href="#DejaVuSans-2c" transform="translate(1536.962891 0)"/>
    <use xlink:href="#DejaVuSans-20" transform="translate(1568.75 0)"/>
    <use xlink:href="#DejaVuSans-20" transform="translate(1600.537109 0)"/>
    <use xlink:href="#DejaVuSans-4a" transform="translate(1632.324219 0)"/>
    <use xlink:href="#DejaVuSans-20" transform="translate(1661.816406 0)"/>
    <use xlink:href="#DejaVuSans-3d" transform="translate(1693.603516 0)"/>
    <use xlink:href="#DejaVuSans-20" transform="translate(1777.392578 0)"/>
    <use xlink:href="#DejaVuSans-31" transform="translate(1809.179688 0)"/>
    <use xlink:href="#DejaVuSans-33" transform="translate(1872.802734 0)"/>
    <use xlink:href="#DejaVuSans-2e" transform="translate(1936.425781 0)"/>
    <use xlink:href="#DejaVuSans-31" transform="translate(1968.212891 0)"/>
    <use xlink:href="#DejaVuSans-31" transform="translate(2031.835938 0)"/>
    <use xlink:href="#DejaVuSans-20" transform="translate(2095.458984 0)"/>
    <use xlink:href="#DejaVuSans-b1" transform="translate(2127.246094 0)"/>
    <use xlink:href="#DejaVuSans-20" transform="translate(2211.035156 0)"/>
    <use xlink:href="#DejaVuSans-31" transform="translate(2242.822266 0)"/>
    <use xlink:href="#DejaVuSans-33" transform="translate(2306.445312 0)"/>
    <use xlink:href="#DejaVuSans-2e" transform="translate(2370.068359 0)"/>
    <use xlink:href="#DejaVuSans-37" transform="translate(2401.855469 0)"/>
    <use xlink:href="#DejaVuSans-34" transform="translate(2465.478516 0)"/>
    <use xlink:href="#DejaVuSans-20" transform="translate(2529.101562 0)"/>
    <use xlink:href="#DejaVuSans-b5" transform="translate(2560.888672 0)"/>
    <use xlink:href="#DejaVuSans-6b" transform="translate(2624.511719 0)"/>
    <use xlink:href="#DejaVuSans-67" transform="translate(2682.421875 0)"/>
    <use xlink:href="#DejaVuSans-b7" transform="translate(2745.898438 0)"/>
    <use xlink:href="#DejaVuSans-6d" transform="translate(2777.685547 0)"/>
    <use xlink:href="#DejaVuSans-b2" transform="translate(2875.097656 0)"/>
   </g>
  </g>
 </g>
 <defs>
  <clipPath id="p9db103fb0c">
   <rect x="44.615" y="48.84" width="345.9625" height="197.2"/>
  </clipPath>
  <clipPath id="p7cec19f2a7">
   <rect x="435.2375" y="48.84" width="345.9625" height="197.2"/>
  </clipPath>
 </defs>
</svg>
