<?xml version="1.0" encoding="utf-8" standalone="no"?>
<!DOCTYPE svg PUBLIC "-//W3C//DTD SVG 1.1//EN"
  "http://www.w3.org/Graphics/SVG/1.1/DTD/svg11.dtd">
<svg xmlns:xlink="http://www.w3.org/1999/xlink" width="504pt" height="360pt" viewBox="0 0 504 360" xmlns="http://www.w3.org/2000/svg" version="1.1">
 <metadata>
  <rdf:RDF xmlns:dc="http://purl.org/dc/elements/1.1/" xmlns:cc="http://creativecommons.org/ns#" xmlns:rdf="http://www.w3.org/1999/02/22-rdf-syntax-ns#">
   <cc:Work>
    <dc:type rdf:resource="http://purl.org/dc/dcmitype/StillImage"/>
    <dc:date>2026-06-18T18:52:38.371569</dc:date>
    <dc:format>image/svg+xml</dc:format>
    <dc:creator>
     <cc:Agent>
      <dc:title>Matplotlib v3.10.9, https://matplotlib.org/</dc:title>
     </cc:Agent>
    </dc:creator>
   </cc:Work>
  </rdf:RDF>
 </metadata>
 <defs>
  <style type="text/css">*{stroke-linejoin: round; stroke-linecap: butt}</style>
 </defs>
 <g id="figure_1">
  <g id="patch_1">
   <path d="M 0 360 
L 504 360 
L 504 0 
L 0 0 
z
" style="fill: #ffffff"/>
  </g>
  <g id="axes_1">
   <g id="patch_2">
    <path d="M 62.57 318.04 
L 493.2 318.04 
L 493.2 26.16 
L 62.57 26.16 
z
" style="fill: #ffffff"/>
   </g>
   <g id="patch_3">
    <path d="M 82.144091 304.772727 
L 85.33993 304.772727 
L 85.33993 253.774672 
L 82.144091 253.774672 
z
" clip-path="url(#p98f0c7c692)" style="fill: #4682b4; opacity: 0.25"/>
   </g>
   <g id="patch_4">
    <path d="M 93.628303 293.423451 
L 96.983793 293.423451 
L 96.983793 240.209749 
L 93.628303 240.209749 
z
" clip-path="url(#p98f0c7c692)" style="fill: #4682b4; opacity: 0.25"/>
   </g>
   <g id="patch_5">
    <path d="M 105.021952 284.99361 
L 108.349485 284.99361 
L 108.349485 230.937453 
L 105.021952 230.937453 
z
" clip-path="url(#p98f0c7c692)" style="fill: #4682b4; opacity: 0.25"/>
   </g>
   <g id="patch_6">
    <path d="M 116.174348 278.271952 
L 119.80011 278.271952 
L 119.80011 219.141719 
L 116.174348 219.141719 
z
" clip-path="url(#p98f0c7c692)" style="fill: #4682b4; opacity: 0.25"/>
   </g>
   <g id="patch_7">
    <path d="M 127.705646 262.715974 
L 130.724232 262.715974 
L 130.724232 213.507266 
L 127.705646 213.507266 
z
" clip-path="url(#p98f0c7c692)" style="fill: #4682b4; opacity: 0.25"/>
   </g>
   <g id="patch_8">
    <path d="M 139.038698 257.623633 
L 142.308126 257.623633 
L 142.308126 206.723998 
L 139.038698 206.723998 
z
" clip-path="url(#p98f0c7c692)" style="fill: #4682b4; opacity: 0.25"/>
   </g>
   <g id="patch_9">
    <path d="M 150.166911 250.286666 
L 153.723306 250.286666 
L 153.723306 196.641588 
L 150.166911 196.641588 
z
" clip-path="url(#p98f0c7c692)" style="fill: #4682b4; opacity: 0.25"/>
   </g>
   <g id="patch_10">
    <path d="M 161.466844 240.653503 
L 164.748528 240.653503 
L 164.748528 191.476251 
L 161.466844 191.476251 
z
" clip-path="url(#p98f0c7c692)" style="fill: #4682b4; opacity: 0.25"/>
   </g>
   <g id="patch_11">
    <path d="M 173.121652 234.824586 
L 176.049896 234.824586 
L 176.049896 189.466668 
L 173.121652 189.466668 
z
" clip-path="url(#p98f0c7c692)" style="fill: #4682b4; opacity: 0.25"/>
   </g>
   <g id="patch_12">
    <path d="M 184.546498 227.500252 
L 187.301356 227.500252 
L 187.301356 184.867807 
L 184.546498 184.867807 
z
" clip-path="url(#p98f0c7c692)" style="fill: #4682b4; opacity: 0.25"/>
   </g>
   <g id="patch_13">
    <path d="M 195.894731 219.38598 
L 198.421079 219.38598 
L 198.421079 180.976412 
L 195.894731 180.976412 
z
" clip-path="url(#p98f0c7c692)" style="fill: #4682b4; opacity: 0.25"/>
   </g>
   <g id="patch_14">
    <path d="M 207.313199 213.161706 
L 209.621398 213.161706 
L 209.621398 177.139022 
L 207.313199 177.139022 
z
" clip-path="url(#p98f0c7c692)" style="fill: #4682b4; opacity: 0.25"/>
   </g>
   <g id="patch_15">
    <path d="M 218.712904 206.227331 
L 220.713254 206.227331 
L 220.713254 174.689422 
L 218.712904 174.689422 
z
" clip-path="url(#p98f0c7c692)" style="fill: #4682b4; opacity: 0.25"/>
   </g>
   <g id="patch_16">
    <path d="M 230.260826 201.334719 
L 231.934453 201.334719 
L 231.934453 173.764255 
L 230.260826 173.764255 
z
" clip-path="url(#p98f0c7c692)" style="fill: #4682b4; opacity: 0.25"/>
   </g>
   <g id="patch_17">
    <path d="M 241.747746 196.204726 
L 243.109317 196.204726 
L 243.109317 173.543765 
L 241.747746 173.543765 
z
" clip-path="url(#p98f0c7c692)" style="fill: #4682b4; opacity: 0.25"/>
   </g>
   <g id="patch_18">
    <path d="M 253.15084 190.147062 
L 254.185601 190.147062 
L 254.185601 171.639997 
L 253.15084 171.639997 
z
" clip-path="url(#p98f0c7c692)" style="fill: #4682b4; opacity: 0.25"/>
   </g>
   <g id="patch_19">
    <path d="M 264.643861 186.701382 
L 265.323162 186.701382 
L 265.323162 170.690471 
L 264.643861 170.690471 
z
" clip-path="url(#p98f0c7c692)" style="fill: #4682b4; opacity: 0.25"/>
   </g>
   <g id="patch_20">
    <path d="M 275.597143 190.713784 
L 276.653547 190.713784 
L 276.653547 166.976938 
L 275.597143 166.976938 
z
" clip-path="url(#p98f0c7c692)" style="fill: #4682b4; opacity: 0.25"/>
   </g>
   <g id="patch_21">
    <path d="M 279.632199 168.929682 
L 280.452669 168.929682 
L 280.452669 155.183417 
L 279.632199 155.183417 
z
" clip-path="url(#p98f0c7c692)" style="fill: #4682b4; opacity: 0.25"/>
   </g>
   <g id="patch_22">
    <path d="M 290.945073 167.416096 
L 291.628483 167.416096 
L 291.628483 153.32426 
L 290.945073 153.32426 
z
" clip-path="url(#p98f0c7c692)" style="fill: #4682b4; opacity: 0.25"/>
   </g>
   <g id="patch_23">
    <path d="M 302.092496 166.661953 
L 303.059048 166.661953 
L 303.059048 150.326952 
L 302.092496 150.326952 
z
" clip-path="url(#p98f0c7c692)" style="fill: #4682b4; opacity: 0.25"/>
   </g>
   <g id="patch_24">
    <path d="M 313.266261 165.443469 
L 314.458925 165.443469 
L 314.458925 145.451219 
L 313.266261 145.451219 
z
" clip-path="url(#p98f0c7c692)" style="fill: #4682b4; opacity: 0.25"/>
   </g>
   <g id="patch_25">
    <path d="M 324.386003 164.196027 
L 325.929615 164.196027 
L 325.929615 140.065403 
L 324.386003 140.065403 
z
" clip-path="url(#p98f0c7c692)" style="fill: #4682b4; opacity: 0.25"/>
   </g>
   <g id="patch_26">
    <path d="M 335.554846 162.35981 
L 337.376425 162.35981 
L 337.376425 134.405149 
L 335.554846 134.405149 
z
" clip-path="url(#p98f0c7c692)" style="fill: #4682b4; opacity: 0.25"/>
   </g>
   <g id="patch_27">
    <path d="M 346.783156 159.972841 
L 348.827532 159.972841 
L 348.827532 128.998731 
L 346.783156 128.998731 
z
" clip-path="url(#p98f0c7c692)" style="fill: #4682b4; opacity: 0.25"/>
   </g>
   <g id="patch_28">
    <path d="M 357.952809 156.405293 
L 360.184573 156.405293 
L 360.184573 122.35845 
L 357.952809 122.35845 
z
" clip-path="url(#p98f0c7c692)" style="fill: #4682b4; opacity: 0.25"/>
   </g>
   <g id="patch_29">
    <path d="M 369.173819 152.810318 
L 371.63304 152.810318 
L 371.63304 115.038491 
L 369.173819 115.038491 
z
" clip-path="url(#p98f0c7c692)" style="fill: #4682b4; opacity: 0.25"/>
   </g>
   <g id="patch_30">
    <path d="M 380.406761 147.788561 
L 382.955563 147.788561 
L 382.955563 108.441809 
L 380.406761 108.441809 
z
" clip-path="url(#p98f0c7c692)" style="fill: #4682b4; opacity: 0.25"/>
   </g>
   <g id="patch_31">
    <path d="M 391.581091 142.843717 
L 394.3635 142.843717 
L 394.3635 99.427077 
L 391.581091 99.427077 
z
" clip-path="url(#p98f0c7c692)" style="fill: #4682b4; opacity: 0.25"/>
   </g>
   <g id="patch_32">
    <path d="M 402.596703 138.493085 
L 405.885197 138.493085 
L 405.885197 90.1724 
L 402.596703 90.1724 
z
" clip-path="url(#p98f0c7c692)" style="fill: #4682b4; opacity: 0.25"/>
   </g>
   <g id="patch_33">
    <path d="M 414.165601 130.684599 
L 417.12722 130.684599 
L 417.12722 85.9604 
L 414.165601 85.9604 
z
" clip-path="url(#p98f0c7c692)" style="fill: #4682b4; opacity: 0.25"/>
   </g>
   <g id="patch_34">
    <path d="M 425.517001 123.072112 
L 428.408609 123.072112 
L 428.408609 78.943169 
L 425.517001 78.943169 
z
" clip-path="url(#p98f0c7c692)" style="fill: #4682b4; opacity: 0.25"/>
   </g>
   <g id="patch_35">
    <path d="M 436.695384 116.97099 
L 439.931196 116.97099 
L 439.931196 67.272365 
L 436.695384 67.272365 
z
" clip-path="url(#p98f0c7c692)" style="fill: #4682b4; opacity: 0.25"/>
   </g>
   <g id="patch_36">
    <path d="M 448.14749 105.500528 
L 451.041497 105.500528 
L 451.041497 60.348557 
L 448.14749 60.348557 
z
" clip-path="url(#p98f0c7c692)" style="fill: #4682b4; opacity: 0.25"/>
   </g>
   <g id="patch_37">
    <path d="M 459.40302 96.033804 
L 462.330242 96.033804 
L 462.330242 49.85015 
L 459.40302 49.85015 
z
" clip-path="url(#p98f0c7c692)" style="fill: #4682b4; opacity: 0.25"/>
   </g>
   <g id="patch_38">
    <path d="M 470.734845 85.824858 
L 473.625909 85.824858 
L 473.625909 39.427273 
L 470.734845 39.427273 
z
" clip-path="url(#p98f0c7c692)" style="fill: #4682b4; opacity: 0.25"/>
   </g>
   <g id="matplotlib.axis_1">
    <g id="xtick_1">
     <g id="line2d_1">
      <path d="M 96.21769 318.04 
L 96.21769 26.16 
" clip-path="url(#p98f0c7c692)" style="fill: none; stroke: #b0b0b0; stroke-width: 0.8; stroke-linecap: square"/>
     </g>
     <g id="line2d_2">
      <defs>
       <path id="mab378bccdc" d="M 0 0 
L 0 3.5 
" style="stroke: #000000; stroke-width: 0.8"/>
      </defs>
      <g>
       <use xlink:href="#mab378bccdc" x="96.21769" y="318.04" style="stroke: #000000; stroke-width: 0.8"/>
      </g>
     </g>
     <g id="text_1">
      <!-- −30 -->
      <g transform="translate(85.665346 332.638438) scale(0.1 -0.1)">
       <defs>
        <path id="DejaVuSans-2212" d="M 678 2272 
L 4684 2272 
L 4684 1741 
L 678 1741 
L 678 2272 
z
" transform="scale(0.015625)"/>
        <path id="DejaVuSans-33" d="M 2597 2516 
Q 3050 2419 3304 2112 
Q 3559 1806 3559 1356 
Q 3559 666 3084 287 
Q 2609 -91 1734 -91 
Q 1441 -91 1130 -33 
Q 819 25 488 141 
L 488 750 
Q 750 597 1062 519 
Q 1375 441 1716 441 
Q 2309 441 2620 675 
Q 2931 909 2931 1356 
Q 2931 1769 2642 2001 
Q 2353 2234 1838 2234 
L 1294 2234 
L 1294 2753 
L 1863 2753 
Q 2328 2753 2575 2939 
Q 2822 3125 2822 3475 
Q 2822 3834 2567 4026 
Q 2313 4219 1838 4219 
Q 1578 4219 1281 4162 
Q 984 4106 628 3988 
L 628 4550 
Q 988 4650 1302 4700 
Q 1616 4750 1894 4750 
Q 2613 4750 3031 4423 
Q 3450 4097 3450 3541 
Q 3450 3153 3228 2886 
Q 3006 2619 2597 2516 
z
" transform="scale(0.015625)"/>
        <path id="DejaVuSans-30" d="M 2034 4250 
Q 1547 4250 1301 3770 
Q 1056 3291 1056 2328 
Q 1056 1369 1301 889 
Q 1547 409 2034 409 
Q 2525 409 2770 889 
Q 3016 1369 3016 2328 
Q 3016 3291 2770 3770 
Q 2525 4250 2034 4250 
z
M 2034 4750 
Q 2819 4750 3233 4129 
Q 3647 3509 3647 2328 
Q 3647 1150 3233 529 
Q 2819 -91 2034 -91 
Q 1250 -91 836 529 
Q 422 1150 422 2328 
Q 422 3509 836 4129 
Q 1250 4750 2034 4750 
z
" transform="scale(0.015625)"/>
       </defs>
       <use xlink:href="#DejaVuSans-2212"/>
       <use xlink:href="#DejaVuSans-33" transform="translate(83.789062 0)"/>
       <use xlink:href="#DejaVuSans-30" transform="translate(147.412109 0)"/>
      </g>
     </g>
    </g>
    <g id="xtick_2">
     <g id="line2d_3">
      <path d="M 156.850183 318.04 
L 156.850183 26.16 
" clip-path="url(#p98f0c7c692)" style="fill: none; stroke: #b0b0b0; stroke-width: 0.8; stroke-linecap: square"/>
     </g>
     <g id="line2d_4">
      <g>
       <use xlink:href="#mab378bccdc" x="156.850183" y="318.04" style="stroke: #000000; stroke-width: 0.8"/>
      </g>
     </g>
     <g id="text_2">
      <!-- −20 -->
      <g transform="translate(146.297839 332.638438) scale(0.1 -0.1)">
       <defs>
        <path id="DejaVuSans-32" d="M 1228 531 
L 3431 531 
L 3431 0 
L 469 0 
L 469 531 
Q 828 903 1448 1529 
Q 2069 2156 2228 2338 
Q 2531 2678 2651 2914 
Q 2772 3150 2772 3378 
Q 2772 3750 2511 3984 
Q 2250 4219 1831 4219 
Q 1534 4219 1204 4116 
Q 875 4013 500 3803 
L 500 4441 
Q 881 4594 1212 4672 
Q 1544 4750 1819 4750 
Q 2544 4750 2975 4387 
Q 3406 4025 3406 3419 
Q 3406 3131 3298 2873 
Q 3191 2616 2906 2266 
Q 2828 2175 2409 1742 
Q 1991 1309 1228 531 
z
" transform="scale(0.015625)"/>
       </defs>
       <use xlink:href="#DejaVuSans-2212"/>
       <use xlink:href="#DejaVuSans-32" transform="translate(83.789062 0)"/>
       <use xlink:href="#DejaVuSans-30" transform="translate(147.412109 0)"/>
      </g>
     </g>
    </g>
    <g id="xtick_3">
     <g id="line2d_5">
      <path d="M 217.482676 318.04 
L 217.482676 26.16 
" clip-path="url(#p98f0c7c692)" style="fill: none; stroke: #b0b0b0; stroke-width: 0.8; stroke-linecap: square"/>
     </g>
     <g id="line2d_6">
      <g>
       <use xlink:href="#mab378bccdc" x="217.482676" y="318.04" style="stroke: #000000; stroke-width: 0.8"/>
      </g>
     </g>
     <g id="text_3">
      <!-- −10 -->
      <g transform="translate(206.930332 332.638438) scale(0.1 -0.1)">
       <defs>
        <path id="DejaVuSans-31" d="M 794 531 
L 1825 531 
L 1825 4091 
L 703 3866 
L 703 4441 
L 1819 4666 
L 2450 4666 
L 2450 531 
L 3481 531 
L 3481 0 
L 794 0 
L 794 531 
z
" transform="scale(0.015625)"/>
       </defs>
       <use xlink:href="#DejaVuSans-2212"/>
       <use xlink:href="#DejaVuSans-31" transform="translate(83.789062 0)"/>
       <use xlink:href="#DejaVuSans-30" transform="translate(147.412109 0)"/>
      </g>
     </g>
    </g>
    <g id="xtick_4">
     <g id="line2d_7">
      <path d="M 278.115169 318.04 
L 278.115169 26.16 
" clip-path="url(#p98f0c7c692)" style="fill: none; stroke: #b0b0b0; stroke-width: 0.8; stroke-linecap: square"/>
     </g>
     <g id="line2d_8">
      <g>
       <use xlink:href="#mab378bccdc" x="278.115169" y="318.04" style="stroke: #000000; stroke-width: 0.8"/>
      </g>
     </g>
     <g id="text_4">
      <!-- 0 -->
      <g transform="translate(274.933919 332.638438) scale(0.1 -0.1)">
       <use xlink:href="#DejaVuSans-30"/>
      </g>
     </g>
    </g>
    <g id="xtick_5">
     <g id="line2d_9">
      <path d="M 338.747662 318.04 
L 338.747662 26.16 
" clip-path="url(#p98f0c7c692)" style="fill: none; stroke: #b0b0b0; stroke-width: 0.8; stroke-linecap: square"/>
     </g>
     <g id="line2d_10">
      <g>
       <use xlink:href="#mab378bccdc" x="338.747662" y="318.04" style="stroke: #000000; stroke-width: 0.8"/>
      </g>
     </g>
     <g id="text_5">
      <!-- 10 -->
      <g transform="translate(332.385162 332.638438) scale(0.1 -0.1)">
       <use xlink:href="#DejaVuSans-31"/>
       <use xlink:href="#DejaVuSans-30" transform="translate(63.623047 0)"/>
      </g>
     </g>
    </g>
    <g id="xtick_6">
     <g id="line2d_11">
      <path d="M 399.380155 318.04 
L 399.380155 26.16 
" clip-path="url(#p98f0c7c692)" style="fill: none; stroke: #b0b0b0; stroke-width: 0.8; stroke-linecap: square"/>
     </g>
     <g id="line2d_12">
      <g>
       <use xlink:href="#mab378bccdc" x="399.380155" y="318.04" style="stroke: #000000; stroke-width: 0.8"/>
      </g>
     </g>
     <g id="text_6">
      <!-- 20 -->
      <g transform="translate(393.017655 332.638438) scale(0.1 -0.1)">
       <use xlink:href="#DejaVuSans-32"/>
       <use xlink:href="#DejaVuSans-30" transform="translate(63.623047 0)"/>
      </g>
     </g>
    </g>
    <g id="xtick_7">
     <g id="line2d_13">
      <path d="M 460.012648 318.04 
L 460.012648 26.16 
" clip-path="url(#p98f0c7c692)" style="fill: none; stroke: #b0b0b0; stroke-width: 0.8; stroke-linecap: square"/>
     </g>
     <g id="line2d_14">
      <g>
       <use xlink:href="#mab378bccdc" x="460.012648" y="318.04" style="stroke: #000000; stroke-width: 0.8"/>
      </g>
     </g>
     <g id="text_7">
      <!-- 30 -->
      <g transform="translate(453.650148 332.638438) scale(0.1 -0.1)">
       <use xlink:href="#DejaVuSans-33"/>
       <use xlink:href="#DejaVuSans-30" transform="translate(63.623047 0)"/>
      </g>
     </g>
    </g>
    <g id="text_8">
     <!-- speed  [rev/s] -->
     <g transform="translate(243.431094 346.316563) scale(0.1 -0.1)">
      <defs>
       <path id="DejaVuSans-73" d="M 2834 3397 
L 2834 2853 
Q 2591 2978 2328 3040 
Q 2066 3103 1784 3103 
Q 1356 3103 1142 2972 
Q 928 2841 928 2578 
Q 928 2378 1081 2264 
Q 1234 2150 1697 2047 
L 1894 2003 
Q 2506 1872 2764 1633 
Q 3022 1394 3022 966 
Q 3022 478 2636 193 
Q 2250 -91 1575 -91 
Q 1294 -91 989 -36 
Q 684 19 347 128 
L 347 722 
Q 666 556 975 473 
Q 1284 391 1588 391 
Q 1994 391 2212 530 
Q 2431 669 2431 922 
Q 2431 1156 2273 1281 
Q 2116 1406 1581 1522 
L 1381 1569 
Q 847 1681 609 1914 
Q 372 2147 372 2553 
Q 372 3047 722 3315 
Q 1072 3584 1716 3584 
Q 2034 3584 2315 3537 
Q 2597 3491 2834 3397 
z
" transform="scale(0.015625)"/>
       <path id="DejaVuSans-70" d="M 1159 525 
L 1159 -1331 
L 581 -1331 
L 581 3500 
L 1159 3500 
L 1159 2969 
Q 1341 3281 1617 3432 
Q 1894 3584 2278 3584 
Q 2916 3584 3314 3078 
Q 3713 2572 3713 1747 
Q 3713 922 3314 415 
Q 2916 -91 2278 -91 
Q 1894 -91 1617 61 
Q 1341 213 1159 525 
z
M 3116 1747 
Q 3116 2381 2855 2742 
Q 2594 3103 2138 3103 
Q 1681 3103 1420 2742 
Q 1159 2381 1159 1747 
Q 1159 1113 1420 752 
Q 1681 391 2138 391 
Q 2594 391 2855 752 
Q 3116 1113 3116 1747 
z
" transform="scale(0.015625)"/>
       <path id="DejaVuSans-65" d="M 3597 1894 
L 3597 1613 
L 953 1613 
Q 991 1019 1311 708 
Q 1631 397 2203 397 
Q 2534 397 2845 478 
Q 3156 559 3463 722 
L 3463 178 
Q 3153 47 2828 -22 
Q 2503 -91 2169 -91 
Q 1331 -91 842 396 
Q 353 884 353 1716 
Q 353 2575 817 3079 
Q 1281 3584 2069 3584 
Q 2775 3584 3186 3129 
Q 3597 2675 3597 1894 
z
M 3022 2063 
Q 3016 2534 2758 2815 
Q 2500 3097 2075 3097 
Q 1594 3097 1305 2825 
Q 1016 2553 972 2059 
L 3022 2063 
z
" transform="scale(0.015625)"/>
       <path id="DejaVuSans-64" d="M 2906 2969 
L 2906 4863 
L 3481 4863 
L 3481 0 
L 2906 0 
L 2906 525 
Q 2725 213 2448 61 
Q 2172 -91 1784 -91 
Q 1150 -91 751 415 
Q 353 922 353 1747 
Q 353 2572 751 3078 
Q 1150 3584 1784 3584 
Q 2172 3584 2448 3432 
Q 2725 3281 2906 2969 
z
M 947 1747 
Q 947 1113 1208 752 
Q 1469 391 1925 391 
Q 2381 391 2643 752 
Q 2906 1113 2906 1747 
Q 2906 2381 2643 2742 
Q 2381 3103 1925 3103 
Q 1469 3103 1208 2742 
Q 947 2381 947 1747 
z
" transform="scale(0.015625)"/>
       <path id="DejaVuSans-20" transform="scale(0.015625)"/>
       <path id="DejaVuSans-5b" d="M 550 4863 
L 1875 4863 
L 1875 4416 
L 1125 4416 
L 1125 -397 
L 1875 -397 
L 1875 -844 
L 550 -844 
L 550 4863 
z
" transform="scale(0.015625)"/>
       <path id="DejaVuSans-72" d="M 2631 2963 
Q 2534 3019 2420 3045 
Q 2306 3072 2169 3072 
Q 1681 3072 1420 2755 
Q 1159 2438 1159 1844 
L 1159 0 
L 581 0 
L 581 3500 
L 1159 3500 
L 1159 2956 
Q 1341 3275 1631 3429 
Q 1922 3584 2338 3584 
Q 2397 3584 2469 3576 
Q 2541 3569 2628 3553 
L 2631 2963 
z
" transform="scale(0.015625)"/>
       <path id="DejaVuSans-76" d="M 191 3500 
L 800 3500 
L 1894 563 
L 2988 3500 
L 3597 3500 
L 2284 0 
L 1503 0 
L 191 3500 
z
" transform="scale(0.015625)"/>
       <path id="DejaVuSans-2f" d="M 1625 4666 
L 2156 4666 
L 531 -594 
L 0 -594 
L 1625 4666 
z
" transform="scale(0.015625)"/>
       <path id="DejaVuSans-5d" d="M 1947 4863 
L 1947 -844 
L 622 -844 
L 622 -397 
L 1369 -397 
L 1369 4416 
L 622 4416 
L 622 4863 
L 1947 4863 
z
" transform="scale(0.015625)"/>
      </defs>
      <use xlink:href="#DejaVuSans-73"/>
      <use xlink:href="#DejaVuSans-70" transform="translate(52.099609 0)"/>
      <use xlink:href="#DejaVuSans-65" transform="translate(115.576172 0)"/>
      <use xlink:href="#DejaVuSans-65" transform="translate(177.099609 0)"/>
      <use xlink:href="#DejaVuSans-64" transform="translate(238.623047 0)"/>
      <use xlink:href="#DejaVuSans-20" transform="translate(302.099609 0)"/>
      <use xlink:href="#DejaVuSans-20" transform="translate(333.886719 0)"/>
      <use xlink:href="#DejaVuSans-5b" transform="translate(365.673828 0)"/>
      <use xlink:href="#DejaVuSans-72" transform="translate(404.6875 0)"/>
      <use xlink:href="#DejaVuSans-65" transform="translate(443.550781 0)"/>
      <use xlink:href="#DejaVuSans-76" transform="translate(505.074219 0)"/>
      <use xlink:href="#DejaVuSans-2f" transform="translate(564.253906 0)"/>
      <use xlink:href="#DejaVuSans-73" transform="translate(597.945312 0)"/>
      <use xlink:href="#DejaVuSans-5d" transform="translate(650.044922 0)"/>
     </g>
    </g>
   </g>
   <g id="matplotlib.axis_2">
    <g id="ytick_1">
     <g id="line2d_15">
      <path d="M 62.57 281.954533 
L 493.2 281.954533 
" clip-path="url(#p98f0c7c692)" style="fill: none; stroke: #b0b0b0; stroke-width: 0.8; stroke-linecap: square"/>
     </g>
     <g id="line2d_16">
      <defs>
       <path id="m0c41bea829" d="M 0 0 
L -3.5 0 
" style="stroke: #000000; stroke-width: 0.8"/>
      </defs>
      <g>
       <use xlink:href="#m0c41bea829" x="62.57" y="281.954533" style="stroke: #000000; stroke-width: 0.8"/>
      </g>
     </g>
     <g id="text_9">
      <!-- −0.04 -->
      <g transform="translate(24.924688 285.753752) scale(0.1 -0.1)">
       <defs>
        <path id="DejaVuSans-2e" d="M 684 794 
L 1344 794 
L 1344 0 
L 684 0 
L 684 794 
z
" transform="scale(0.015625)"/>
        <path id="DejaVuSans-34" d="M 2419 4116 
L 825 1625 
L 2419 1625 
L 2419 4116 
z
M 2253 4666 
L 3047 4666 
L 3047 1625 
L 3713 1625 
L 3713 1100 
L 3047 1100 
L 3047 0 
L 2419 0 
L 2419 1100 
L 313 1100 
L 313 1709 
L 2253 4666 
z
" transform="scale(0.015625)"/>
       </defs>
       <use xlink:href="#DejaVuSans-2212"/>
       <use xlink:href="#DejaVuSans-30" transform="translate(83.789062 0)"/>
       <use xlink:href="#DejaVuSans-2e" transform="translate(147.412109 0)"/>
       <use xlink:href="#DejaVuSans-30" transform="translate(179.199219 0)"/>
       <use xlink:href="#DejaVuSans-34" transform="translate(242.822266 0)"/>
      </g>
     </g>
    </g>
    <g id="ytick_2">
     <g id="line2d_17">
      <path d="M 62.57 225.89117 
L 493.2 225.89117 
" clip-path="url(#p98f0c7c692)" style="fill: none; stroke: #b0b0b0; stroke-width: 0.8; stroke-linecap: square"/>
     </g>
     <g id="line2d_18">
      <g>
       <use xlink:href="#m0c41bea829" x="62.57" y="225.89117" style="stroke: #000000; stroke-width: 0.8"/>
      </g>
     </g>
     <g id="text_10">
      <!-- −0.02 -->
      <g transform="translate(24.924688 229.690389) scale(0.1 -0.1)">
       <use xlink:href="#DejaVuSans-2212"/>
       <use xlink:href="#DejaVuSans-30" transform="translate(83.789062 0)"/>
       <use xlink:href="#DejaVuSans-2e" transform="translate(147.412109 0)"/>
       <use xlink:href="#DejaVuSans-30" transform="translate(179.199219 0)"/>
       <use xlink:href="#DejaVuSans-32" transform="translate(242.822266 0)"/>
      </g>
     </g>
    </g>
    <g id="ytick_3">
     <g id="line2d_19">
      <path d="M 62.57 169.827807 
L 493.2 169.827807 
" clip-path="url(#p98f0c7c692)" style="fill: none; stroke: #b0b0b0; stroke-width: 0.8; stroke-linecap: square"/>
     </g>
     <g id="line2d_20">
      <g>
       <use xlink:href="#m0c41bea829" x="62.57" y="169.827807" style="stroke: #000000; stroke-width: 0.8"/>
      </g>
     </g>
     <g id="text_11">
      <!-- 0.00 -->
      <g transform="translate(33.304375 173.627026) scale(0.1 -0.1)">
       <use xlink:href="#DejaVuSans-30"/>
       <use xlink:href="#DejaVuSans-2e" transform="translate(63.623047 0)"/>
       <use xlink:href="#DejaVuSans-30" transform="translate(95.410156 0)"/>
       <use xlink:href="#DejaVuSans-30" transform="translate(159.033203 0)"/>
      </g>
     </g>
    </g>
    <g id="ytick_4">
     <g id="line2d_21">
      <path d="M 62.57 113.764444 
L 493.2 113.764444 
" clip-path="url(#p98f0c7c692)" style="fill: none; stroke: #b0b0b0; stroke-width: 0.8; stroke-linecap: square"/>
     </g>
     <g id="line2d_22">
      <g>
       <use xlink:href="#m0c41bea829" x="62.57" y="113.764444" style="stroke: #000000; stroke-width: 0.8"/>
      </g>
     </g>
     <g id="text_12">
      <!-- 0.02 -->
      <g transform="translate(33.304375 117.563663) scale(0.1 -0.1)">
       <use xlink:href="#DejaVuSans-30"/>
       <use xlink:href="#DejaVuSans-2e" transform="translate(63.623047 0)"/>
       <use xlink:href="#DejaVuSans-30" transform="translate(95.410156 0)"/>
       <use xlink:href="#DejaVuSans-32" transform="translate(159.033203 0)"/>
      </g>
     </g>
    </g>
    <g id="ytick_5">
     <g id="line2d_23">
      <path d="M 62.57 57.701081 
L 493.2 57.701081 
" clip-path="url(#p98f0c7c692)" style="fill: none; stroke: #b0b0b0; stroke-width: 0.8; stroke-linecap: square"/>
     </g>
     <g id="line2d_24">
      <g>
       <use xlink:href="#m0c41bea829" x="62.57" y="57.701081" style="stroke: #000000; stroke-width: 0.8"/>
      </g>
     </g>
     <g id="text_13">
      <!-- 0.04 -->
      <g transform="translate(33.304375 61.5003) scale(0.1 -0.1)">
       <use xlink:href="#DejaVuSans-30"/>
       <use xlink:href="#DejaVuSans-2e" transform="translate(63.623047 0)"/>
       <use xlink:href="#DejaVuSans-30" transform="translate(95.410156 0)"/>
       <use xlink:href="#DejaVuSans-34" transform="translate(159.033203 0)"/>
      </g>
     </g>
    </g>
    <g id="text_14">
     <!-- holding torque  [Nm] -->
     <g transform="translate(18.845 224.310156) rotate(-90) scale(0.1 -0.1)">
      <defs>
       <path id="DejaVuSans-68" d="M 3513 2113 
L 3513 0 
L 2938 0 
L 2938 2094 
Q 2938 2591 2744 2837 
Q 2550 3084 2163 3084 
Q 1697 3084 1428 2787 
Q 1159 2491 1159 1978 
L 1159 0 
L 581 0 
L 581 4863 
L 1159 4863 
L 1159 2956 
Q 1366 3272 1645 3428 
Q 1925 3584 2291 3584 
Q 2894 3584 3203 3211 
Q 3513 2838 3513 2113 
z
" transform="scale(0.015625)"/>
       <path id="DejaVuSans-6f" d="M 1959 3097 
Q 1497 3097 1228 2736 
Q 959 2375 959 1747 
Q 959 1119 1226 758 
Q 1494 397 1959 397 
Q 2419 397 2687 759 
Q 2956 1122 2956 1747 
Q 2956 2369 2687 2733 
Q 2419 3097 1959 3097 
z
M 1959 3584 
Q 2709 3584 3137 3096 
Q 3566 2609 3566 1747 
Q 3566 888 3137 398 
Q 2709 -91 1959 -91 
Q 1206 -91 779 398 
Q 353 888 353 1747 
Q 353 2609 779 3096 
Q 1206 3584 1959 3584 
z
" transform="scale(0.015625)"/>
       <path id="DejaVuSans-6c" d="M 603 4863 
L 1178 4863 
L 1178 0 
L 603 0 
L 603 4863 
z
" transform="scale(0.015625)"/>
       <path id="DejaVuSans-69" d="M 603 3500 
L 1178 3500 
L 1178 0 
L 603 0 
L 603 3500 
z
M 603 4863 
L 1178 4863 
L 1178 4134 
L 603 4134 
L 603 4863 
z
" transform="scale(0.015625)"/>
       <path id="DejaVuSans-6e" d="M 3513 2113 
L 3513 0 
L 2938 0 
L 2938 2094 
Q 2938 2591 2744 2837 
Q 2550 3084 2163 3084 
Q 1697 3084 1428 2787 
Q 1159 2491 1159 1978 
L 1159 0 
L 581 0 
L 581 3500 
L 1159 3500 
L 1159 2956 
Q 1366 3272 1645 3428 
Q 1925 3584 2291 3584 
Q 2894 3584 3203 3211 
Q 3513 2838 3513 2113 
z
" transform="scale(0.015625)"/>
       <path id="DejaVuSans-67" d="M 2906 1791 
Q 2906 2416 2648 2759 
Q 2391 3103 1925 3103 
Q 1463 3103 1205 2759 
Q 947 2416 947 1791 
Q 947 1169 1205 825 
Q 1463 481 1925 481 
Q 2391 481 2648 825 
Q 2906 1169 2906 1791 
z
M 3481 434 
Q 3481 -459 3084 -895 
Q 2688 -1331 1869 -1331 
Q 1566 -1331 1297 -1286 
Q 1028 -1241 775 -1147 
L 775 -588 
Q 1028 -725 1275 -790 
Q 1522 -856 1778 -856 
Q 2344 -856 2625 -561 
Q 2906 -266 2906 331 
L 2906 616 
Q 2728 306 2450 153 
Q 2172 0 1784 0 
Q 1141 0 747 490 
Q 353 981 353 1791 
Q 353 2603 747 3093 
Q 1141 3584 1784 3584 
Q 2172 3584 2450 3431 
Q 2728 3278 2906 2969 
L 2906 3500 
L 3481 3500 
L 3481 434 
z
" transform="scale(0.015625)"/>
       <path id="DejaVuSans-74" d="M 1172 4494 
L 1172 3500 
L 2356 3500 
L 2356 3053 
L 1172 3053 
L 1172 1153 
Q 1172 725 1289 603 
Q 1406 481 1766 481 
L 2356 481 
L 2356 0 
L 1766 0 
Q 1100 0 847 248 
Q 594 497 594 1153 
L 594 3053 
L 172 3053 
L 172 3500 
L 594 3500 
L 594 4494 
L 1172 4494 
z
" transform="scale(0.015625)"/>
       <path id="DejaVuSans-71" d="M 947 1747 
Q 947 1113 1208 752 
Q 1469 391 1925 391 
Q 2381 391 2643 752 
Q 2906 1113 2906 1747 
Q 2906 2381 2643 2742 
Q 2381 3103 1925 3103 
Q 1469 3103 1208 2742 
Q 947 2381 947 1747 
z
M 2906 525 
Q 2725 213 2448 61 
Q 2172 -91 1784 -91 
Q 1150 -91 751 415 
Q 353 922 353 1747 
Q 353 2572 751 3078 
Q 1150 3584 1784 3584 
Q 2172 3584 2448 3432 
Q 2725 3281 2906 2969 
L 2906 3500 
L 3481 3500 
L 3481 -1331 
L 2906 -1331 
L 2906 525 
z
" transform="scale(0.015625)"/>
       <path id="DejaVuSans-75" d="M 544 1381 
L 544 3500 
L 1119 3500 
L 1119 1403 
Q 1119 906 1312 657 
Q 1506 409 1894 409 
Q 2359 409 2629 706 
Q 2900 1003 2900 1516 
L 2900 3500 
L 3475 3500 
L 3475 0 
L 2900 0 
L 2900 538 
Q 2691 219 2414 64 
Q 2138 -91 1772 -91 
Q 1169 -91 856 284 
Q 544 659 544 1381 
z
M 1991 3584 
L 1991 3584 
z
" transform="scale(0.015625)"/>
       <path id="DejaVuSans-4e" d="M 628 4666 
L 1478 4666 
L 3547 763 
L 3547 4666 
L 4159 4666 
L 4159 0 
L 3309 0 
L 1241 3903 
L 1241 0 
L 628 0 
L 628 4666 
z
" transform="scale(0.015625)"/>
       <path id="DejaVuSans-6d" d="M 3328 2828 
Q 3544 3216 3844 3400 
Q 4144 3584 4550 3584 
Q 5097 3584 5394 3201 
Q 5691 2819 5691 2113 
L 5691 0 
L 5113 0 
L 5113 2094 
Q 5113 2597 4934 2840 
Q 4756 3084 4391 3084 
Q 3944 3084 3684 2787 
Q 3425 2491 3425 1978 
L 3425 0 
L 2847 0 
L 2847 2094 
Q 2847 2600 2669 2842 
Q 2491 3084 2119 3084 
Q 1678 3084 1418 2786 
Q 1159 2488 1159 1978 
L 1159 0 
L 581 0 
L 581 3500 
L 1159 3500 
L 1159 2956 
Q 1356 3278 1631 3431 
Q 1906 3584 2284 3584 
Q 2666 3584 2933 3390 
Q 3200 3197 3328 2828 
z
" transform="scale(0.015625)"/>
      </defs>
      <use xlink:href="#DejaVuSans-68"/>
      <use xlink:href="#DejaVuSans-6f" transform="translate(63.378906 0)"/>
      <use xlink:href="#DejaVuSans-6c" transform="translate(124.560547 0)"/>
      <use xlink:href="#DejaVuSans-64" transform="translate(152.34375 0)"/>
      <use xlink:href="#DejaVuSans-69" transform="translate(215.820312 0)"/>
      <use xlink:href="#DejaVuSans-6e" transform="translate(243.603516 0)"/>
      <use xlink:href="#DejaVuSans-67" transform="translate(306.982422 0)"/>
      <use xlink:href="#DejaVuSans-20" transform="translate(370.458984 0)"/>
      <use xlink:href="#DejaVuSans-74" transform="translate(402.246094 0)"/>
      <use xlink:href="#DejaVuSans-6f" transform="translate(441.455078 0)"/>
      <use xlink:href="#DejaVuSans-72" transform="translate(502.636719 0)"/>
      <use xlink:href="#DejaVuSans-71" transform="translate(542 0)"/>
      <use xlink:href="#DejaVuSans-75" transform="translate(605.476562 0)"/>
      <use xlink:href="#DejaVuSans-65" transform="translate(668.855469 0)"/>
      <use xlink:href="#DejaVuSans-20" transform="translate(730.378906 0)"/>
      <use xlink:href="#DejaVuSans-20" transform="translate(762.166016 0)"/>
      <use xlink:href="#DejaVuSans-5b" transform="translate(793.953125 0)"/>
      <use xlink:href="#DejaVuSans-4e" transform="translate(832.966797 0)"/>
      <use xlink:href="#DejaVuSans-6d" transform="translate(907.771484 0)"/>
      <use xlink:href="#DejaVuSans-5d" transform="translate(1005.183594 0)"/>
     </g>
    </g>
   </g>
   <g id="line2d_25">
    <path d="M 83.74201 277.362069 
L 92.503778 269.463573 
L 101.265546 261.886788 
L 110.027313 254.631715 
L 117.815551 248.45284 
L 125.603789 242.528156 
L 133.392027 236.857665 
L 141.180265 231.441365 
L 148.968503 226.279257 
L 156.756741 221.371341 
L 164.544979 216.717617 
L 172.333217 212.318084 
L 180.121455 208.172744 
L 187.909693 204.281595 
L 195.697931 200.644638 
L 203.486169 197.261872 
L 211.274406 194.133299 
L 219.062644 191.258917 
L 226.850882 188.638727 
L 234.63912 186.272729 
L 242.427358 184.160923 
L 250.215596 182.303309 
L 258.003834 180.699886 
L 265.792072 179.350655 
L 273.58031 178.255616 
L 277.474429 177.803418 
L 278.447959 161.885244 
L 286.236197 160.927352 
L 294.024435 159.715268 
L 301.812672 158.248992 
L 309.60091 156.528524 
L 317.389148 154.553865 
L 325.177386 152.325013 
L 332.965624 149.84197 
L 340.753862 147.104735 
L 348.5421 144.113309 
L 356.330338 140.86769 
L 364.118576 137.36788 
L 371.906814 133.613877 
L 379.695052 129.605684 
L 387.48329 125.343298 
L 395.271528 120.82672 
L 403.059766 116.055951 
L 410.848004 111.03099 
L 418.636241 105.751837 
L 426.424479 100.218492 
L 434.212717 94.430955 
L 442.000955 88.389227 
L 449.789193 82.093307 
L 458.550961 74.706558 
L 467.312729 66.998097 
L 472.180377 62.576608 
L 472.180377 62.576608 
" clip-path="url(#p98f0c7c692)" style="fill: none; stroke-dasharray: 5.55,2.4; stroke-dashoffset: 0; stroke: #ff0000; stroke-width: 1.5"/>
   </g>
   <g id="line2d_26">
    <path d="M 62.57 169.827807 
L 493.2 169.827807 
" clip-path="url(#p98f0c7c692)" style="fill: none; stroke: #000000; stroke-width: 0.5; stroke-linecap: square"/>
   </g>
   <g id="line2d_27">
    <path d="M 278.115169 318.04 
L 278.115169 26.16 
" clip-path="url(#p98f0c7c692)" style="fill: none; stroke: #000000; stroke-width: 0.5; stroke-linecap: square"/>
   </g>
   <g id="patch_39">
    <path d="M 62.57 318.04 
L 62.57 26.16 
" style="fill: none; stroke: #000000; stroke-width: 0.8; stroke-linejoin: miter; stroke-linecap: square"/>
   </g>
   <g id="patch_40">
    <path d="M 493.2 318.04 
L 493.2 26.16 
" style="fill: none; stroke: #000000; stroke-width: 0.8; stroke-linejoin: miter; stroke-linecap: square"/>
   </g>
   <g id="patch_41">
    <path d="M 62.57 318.04 
L 493.2 318.04 
" style="fill: none; stroke: #000000; stroke-width: 0.8; stroke-linejoin: miter; stroke-linecap: square"/>
   </g>
   <g id="patch_42">
    <path d="M 62.57 26.16 
L 493.2 26.16 
" style="fill: none; stroke: #000000; stroke-width: 0.8; stroke-linejoin: miter; stroke-linecap: square"/>
   </g>
   <g id="PathCollection_1">
    <defs>
     <path id="m1146776d33" d="M 0 2.12132 
C 0.562581 2.12132 1.102195 1.897805 1.5 1.5 
C 1.897805 1.102195 2.12132 0.562581 2.12132 0 
C 2.12132 -0.562581 1.897805 -1.102195 1.5 -1.5 
C 1.102195 -1.897805 0.562581 -2.12132 0 -2.12132 
C -0.562581 -2.12132 -1.102195 -1.897805 -1.5 -1.5 
C -1.897805 -1.102195 -2.12132 -0.562581 -2.12132 0 
C -2.12132 0.562581 -1.897805 1.102195 -1.5 1.5 
C -1.102195 1.897805 -0.562581 2.12132 0 2.12132 
z
" style="stroke: #4682b4"/>
    </defs>
    <g clip-path="url(#p98f0c7c692)">
     <use xlink:href="#m1146776d33" x="83.74201" y="279.2737" style="fill: #4682b4; stroke: #4682b4"/>
     <use xlink:href="#m1146776d33" x="95.306048" y="266.8166" style="fill: #4682b4; stroke: #4682b4"/>
     <use xlink:href="#m1146776d33" x="106.685719" y="257.965531" style="fill: #4682b4; stroke: #4682b4"/>
     <use xlink:href="#m1146776d33" x="117.987229" y="248.706836" style="fill: #4682b4; stroke: #4682b4"/>
     <use xlink:href="#m1146776d33" x="129.214939" y="238.11162" style="fill: #4682b4; stroke: #4682b4"/>
     <use xlink:href="#m1146776d33" x="140.673412" y="232.173815" style="fill: #4682b4; stroke: #4682b4"/>
     <use xlink:href="#m1146776d33" x="151.945109" y="223.464127" style="fill: #4682b4; stroke: #4682b4"/>
     <use xlink:href="#m1146776d33" x="163.107686" y="216.064877" style="fill: #4682b4; stroke: #4682b4"/>
     <use xlink:href="#m1146776d33" x="174.585774" y="212.145627" style="fill: #4682b4; stroke: #4682b4"/>
     <use xlink:href="#m1146776d33" x="185.923927" y="206.184029" style="fill: #4682b4; stroke: #4682b4"/>
     <use xlink:href="#m1146776d33" x="197.157905" y="200.181196" style="fill: #4682b4; stroke: #4682b4"/>
     <use xlink:href="#m1146776d33" x="208.467299" y="195.150364" style="fill: #4682b4; stroke: #4682b4"/>
     <use xlink:href="#m1146776d33" x="219.713079" y="190.458377" style="fill: #4682b4; stroke: #4682b4"/>
     <use xlink:href="#m1146776d33" x="231.097639" y="187.549487" style="fill: #4682b4; stroke: #4682b4"/>
     <use xlink:href="#m1146776d33" x="242.428531" y="184.874246" style="fill: #4682b4; stroke: #4682b4"/>
     <use xlink:href="#m1146776d33" x="253.668221" y="180.893529" style="fill: #4682b4; stroke: #4682b4"/>
     <use xlink:href="#m1146776d33" x="264.983511" y="178.695926" style="fill: #4682b4; stroke: #4682b4"/>
     <use xlink:href="#m1146776d33" x="276.125345" y="178.845361" style="fill: #4682b4; stroke: #4682b4"/>
     <use xlink:href="#m1146776d33" x="280.042434" y="162.056549" style="fill: #4682b4; stroke: #4682b4"/>
     <use xlink:href="#m1146776d33" x="291.286778" y="160.370178" style="fill: #4682b4; stroke: #4682b4"/>
     <use xlink:href="#m1146776d33" x="302.575772" y="158.494452" style="fill: #4682b4; stroke: #4682b4"/>
     <use xlink:href="#m1146776d33" x="313.862593" y="155.447344" style="fill: #4682b4; stroke: #4682b4"/>
     <use xlink:href="#m1146776d33" x="325.157809" y="152.130715" style="fill: #4682b4; stroke: #4682b4"/>
     <use xlink:href="#m1146776d33" x="336.465635" y="148.382479" style="fill: #4682b4; stroke: #4682b4"/>
     <use xlink:href="#m1146776d33" x="347.805344" y="144.485786" style="fill: #4682b4; stroke: #4682b4"/>
     <use xlink:href="#m1146776d33" x="359.068691" y="139.381872" style="fill: #4682b4; stroke: #4682b4"/>
     <use xlink:href="#m1146776d33" x="370.40343" y="133.924404" style="fill: #4682b4; stroke: #4682b4"/>
     <use xlink:href="#m1146776d33" x="381.681162" y="128.115185" style="fill: #4682b4; stroke: #4682b4"/>
     <use xlink:href="#m1146776d33" x="392.972296" y="121.135397" style="fill: #4682b4; stroke: #4682b4"/>
     <use xlink:href="#m1146776d33" x="404.24095" y="114.332742" style="fill: #4682b4; stroke: #4682b4"/>
     <use xlink:href="#m1146776d33" x="415.64641" y="108.322499" style="fill: #4682b4; stroke: #4682b4"/>
     <use xlink:href="#m1146776d33" x="426.962805" y="101.007641" style="fill: #4682b4; stroke: #4682b4"/>
     <use xlink:href="#m1146776d33" x="438.31329" y="92.121678" style="fill: #4682b4; stroke: #4682b4"/>
     <use xlink:href="#m1146776d33" x="449.594493" y="82.924542" style="fill: #4682b4; stroke: #4682b4"/>
     <use xlink:href="#m1146776d33" x="460.866631" y="72.941977" style="fill: #4682b4; stroke: #4682b4"/>
     <use xlink:href="#m1146776d33" x="472.180377" y="62.626065" style="fill: #4682b4; stroke: #4682b4"/>
    </g>
   </g>
   <g id="text_15">
    <!-- Friction map (drum) -->
    <g transform="translate(218.195312 20.16) scale(0.12 -0.12)">
     <defs>
      <path id="DejaVuSans-46" d="M 628 4666 
L 3309 4666 
L 3309 4134 
L 1259 4134 
L 1259 2759 
L 3109 2759 
L 3109 2228 
L 1259 2228 
L 1259 0 
L 628 0 
L 628 4666 
z
" transform="scale(0.015625)"/>
      <path id="DejaVuSans-63" d="M 3122 3366 
L 3122 2828 
Q 2878 2963 2633 3030 
Q 2388 3097 2138 3097 
Q 1578 3097 1268 2742 
Q 959 2388 959 1747 
Q 959 1106 1268 751 
Q 1578 397 2138 397 
Q 2388 397 2633 464 
Q 2878 531 3122 666 
L 3122 134 
Q 2881 22 2623 -34 
Q 2366 -91 2075 -91 
Q 1284 -91 818 406 
Q 353 903 353 1747 
Q 353 2603 823 3093 
Q 1294 3584 2113 3584 
Q 2378 3584 2631 3529 
Q 2884 3475 3122 3366 
z
" transform="scale(0.015625)"/>
      <path id="DejaVuSans-61" d="M 2194 1759 
Q 1497 1759 1228 1600 
Q 959 1441 959 1056 
Q 959 750 1161 570 
Q 1363 391 1709 391 
Q 2188 391 2477 730 
Q 2766 1069 2766 1631 
L 2766 1759 
L 2194 1759 
z
M 3341 1997 
L 3341 0 
L 2766 0 
L 2766 531 
Q 2569 213 2275 61 
Q 1981 -91 1556 -91 
Q 1019 -91 701 211 
Q 384 513 384 1019 
Q 384 1609 779 1909 
Q 1175 2209 1959 2209 
L 2766 2209 
L 2766 2266 
Q 2766 2663 2505 2880 
Q 2244 3097 1772 3097 
Q 1472 3097 1187 3025 
Q 903 2953 641 2809 
L 641 3341 
Q 956 3463 1253 3523 
Q 1550 3584 1831 3584 
Q 2591 3584 2966 3190 
Q 3341 2797 3341 1997 
z
" transform="scale(0.015625)"/>
      <path id="DejaVuSans-28" d="M 1984 4856 
Q 1566 4138 1362 3434 
Q 1159 2731 1159 2009 
Q 1159 1288 1364 580 
Q 1569 -128 1984 -844 
L 1484 -844 
Q 1016 -109 783 600 
Q 550 1309 550 2009 
Q 550 2706 781 3412 
Q 1013 4119 1484 4856 
L 1984 4856 
z
" transform="scale(0.015625)"/>
      <path id="DejaVuSans-29" d="M 513 4856 
L 1013 4856 
Q 1481 4119 1714 3412 
Q 1947 2706 1947 2009 
Q 1947 1309 1714 600 
Q 1481 -109 1013 -844 
L 513 -844 
Q 928 -128 1133 580 
Q 1338 1288 1338 2009 
Q 1338 2731 1133 3434 
Q 928 4138 513 4856 
z
" transform="scale(0.015625)"/>
     </defs>
     <use xlink:href="#DejaVuSans-46"/>
     <use xlink:href="#DejaVuSans-72" transform="translate(50.269531 0)"/>
     <use xlink:href="#DejaVuSans-69" transform="translate(91.382812 0)"/>
     <use xlink:href="#DejaVuSans-63" transform="translate(119.166016 0)"/>
     <use xlink:href="#DejaVuSans-74" transform="translate(174.146484 0)"/>
     <use xlink:href="#DejaVuSans-69" transform="translate(213.355469 0)"/>
     <use xlink:href="#DejaVuSans-6f" transform="translate(241.138672 0)"/>
     <use xlink:href="#DejaVuSans-6e" transform="translate(302.320312 0)"/>
     <use xlink:href="#DejaVuSans-20" transform="translate(365.699219 0)"/>
     <use xlink:href="#DejaVuSans-6d" transform="translate(397.486328 0)"/>
     <use xlink:href="#DejaVuSans-61" transform="translate(494.898438 0)"/>
     <use xlink:href="#DejaVuSans-70" transform="translate(556.177734 0)"/>
     <use xlink:href="#DejaVuSans-20" transform="translate(619.654297 0)"/>
     <use xlink:href="#DejaVuSans-28" transform="translate(651.441406 0)"/>
     <use xlink:href="#DejaVuSans-64" transform="translate(690.455078 0)"/>
     <use xlink:href="#DejaVuSans-72" transform="translate(753.931641 0)"/>
     <use xlink:href="#DejaVuSans-75" transform="translate(795.044922 0)"/>
     <use xlink:href="#DejaVuSans-6d" transform="translate(858.423828 0)"/>
     <use xlink:href="#DejaVuSans-29" transform="translate(955.835938 0)"/>
    </g>
   </g>
   <g id="legend_1">
    <g id="patch_43">
     <path d="M 69.57 77.222187 
L 295.504375 77.222187 
Q 297.504375 77.222187 297.504375 75.222187 
L 297.504375 33.16 
Q 297.504375 31.16 295.504375 31.16 
L 69.57 31.16 
Q 67.57 31.16 67.57 33.16 
L 67.57 75.222187 
Q 67.57 77.222187 69.57 77.222187 
z
" style="fill: #ffffff; opacity: 0.8; stroke: #cccccc; stroke-linejoin: miter"/>
    </g>
    <g id="PathCollection_2">
     <g>
      <use xlink:href="#m1146776d33" x="81.57" y="40.133437" style="fill: #4682b4; stroke: #4682b4"/>
     </g>
    </g>
    <g id="text_16">
     <!-- measured  (box = ±1σ speed / torque) -->
     <g transform="translate(99.57 42.758437) scale(0.1 -0.1)">
      <defs>
       <path id="DejaVuSans-62" d="M 3116 1747 
Q 3116 2381 2855 2742 
Q 2594 3103 2138 3103 
Q 1681 3103 1420 2742 
Q 1159 2381 1159 1747 
Q 1159 1113 1420 752 
Q 1681 391 2138 391 
Q 2594 391 2855 752 
Q 3116 1113 3116 1747 
z
M 1159 2969 
Q 1341 3281 1617 3432 
Q 1894 3584 2278 3584 
Q 2916 3584 3314 3078 
Q 3713 2572 3713 1747 
Q 3713 922 3314 415 
Q 2916 -91 2278 -91 
Q 1894 -91 1617 61 
Q 1341 213 1159 525 
L 1159 0 
L 581 0 
L 581 4863 
L 1159 4863 
L 1159 2969 
z
" transform="scale(0.015625)"/>
       <path id="DejaVuSans-78" d="M 3513 3500 
L 2247 1797 
L 3578 0 
L 2900 0 
L 1881 1375 
L 863 0 
L 184 0 
L 1544 1831 
L 300 3500 
L 978 3500 
L 1906 2253 
L 2834 3500 
L 3513 3500 
z
" transform="scale(0.015625)"/>
       <path id="DejaVuSans-3d" d="M 678 2906 
L 4684 2906 
L 4684 2381 
L 678 2381 
L 678 2906 
z
M 678 1631 
L 4684 1631 
L 4684 1100 
L 678 1100 
L 678 1631 
z
" transform="scale(0.015625)"/>
       <path id="DejaVuSans-b1" d="M 2944 4013 
L 2944 2803 
L 4684 2803 
L 4684 2272 
L 2944 2272 
L 2944 1063 
L 2419 1063 
L 2419 2272 
L 678 2272 
L 678 2803 
L 2419 2803 
L 2419 4013 
L 2944 4013 
z
M 678 531 
L 4684 531 
L 4684 0 
L 678 0 
L 678 531 
z
" transform="scale(0.015625)"/>
       <path id="DejaVuSans-3c3" d="M 1959 3044 
Q 1484 3044 1228 2700 
Q 959 2341 959 1747 
Q 959 1119 1226 758 
Q 1494 397 1959 397 
Q 2419 397 2687 759 
Q 2956 1122 2956 1747 
Q 2956 2319 2688 2700 
Q 2441 3044 1959 3044 
z
M 1959 3500 
L 3869 3500 
L 3869 2925 
L 3225 2925 
Q 3566 2438 3566 1747 
Q 3566 888 3138 400 
Q 2709 -91 1959 -91 
Q 1206 -91 781 400 
Q 353 888 353 1747 
Q 353 2613 781 3097 
Q 1134 3500 1959 3500 
z
" transform="scale(0.015625)"/>
      </defs>
      <use xlink:href="#DejaVuSans-6d"/>
      <use xlink:href="#DejaVuSans-65" transform="translate(97.412109 0)"/>
      <use xlink:href="#DejaVuSans-61" transform="translate(158.935547 0)"/>
      <use xlink:href="#DejaVuSans-73" transform="translate(220.214844 0)"/>
      <use xlink:href="#DejaVuSans-75" transform="translate(272.314453 0)"/>
      <use xlink:href="#DejaVuSans-72" transform="translate(335.693359 0)"/>
      <use xlink:href="#DejaVuSans-65" transform="translate(374.556641 0)"/>
      <use xlink:href="#DejaVuSans-64" transform="translate(436.080078 0)"/>
      <use xlink:href="#DejaVuSans-20" transform="translate(499.556641 0)"/>
      <use xlink:href="#DejaVuSans-20" transform="translate(531.34375 0)"/>
      <use xlink:href="#DejaVuSans-28" transform="translate(563.130859 0)"/>
      <use xlink:href="#DejaVuSans-62" transform="translate(602.144531 0)"/>
      <use xlink:href="#DejaVuSans-6f" transform="translate(665.621094 0)"/>
      <use xlink:href="#DejaVuSans-78" transform="translate(723.677734 0)"/>
      <use xlink:href="#DejaVuSans-20" transform="translate(782.857422 0)"/>
      <use xlink:href="#DejaVuSans-3d" transform="translate(814.644531 0)"/>
      <use xlink:href="#DejaVuSans-20" transform="translate(898.433594 0)"/>
      <use xlink:href="#DejaVuSans-b1" transform="translate(930.220703 0)"/>
      <use xlink:href="#DejaVuSans-31" transform="translate(1014.009766 0)"/>
      <use xlink:href="#DejaVuSans-3c3" transform="translate(1077.632812 0)"/>
      <use xlink:href="#DejaVuSans-20" transform="translate(1141.011719 0)"/>
      <use xlink:href="#DejaVuSans-73" transform="translate(1172.798828 0)"/>
      <use xlink:href="#DejaVuSans-70" transform="translate(1224.898438 0)"/>
      <use xlink:href="#DejaVuSans-65" transform="translate(1288.375 0)"/>
      <use xlink:href="#DejaVuSans-65" transform="translate(1349.898438 0)"/>
      <use xlink:href="#DejaVuSans-64" transform="translate(1411.421875 0)"/>
      <use xlink:href="#DejaVuSans-20" transform="translate(1474.898438 0)"/>
      <use xlink:href="#DejaVuSans-2f" transform="translate(1506.685547 0)"/>
      <use xlink:href="#DejaVuSans-20" transform="translate(1540.376953 0)"/>
      <use xlink:href="#DejaVuSans-74" transform="translate(1572.164062 0)"/>
      <use xlink:href="#DejaVuSans-6f" transform="translate(1611.373047 0)"/>
      <use xlink:href="#DejaVuSans-72" transform="translate(1672.554688 0)"/>
      <use xlink:href="#DejaVuSans-71" transform="translate(1711.917969 0)"/>
      <use xlink:href="#DejaVuSans-75" transform="translate(1775.394531 0)"/>
      <use xlink:href="#DejaVuSans-65" transform="translate(1838.773438 0)"/>
      <use xlink:href="#DejaVuSans-29" transform="translate(1900.296875 0)"/>
     </g>
    </g>
    <g id="line2d_28">
     <path d="M 71.57 61.829375 
L 81.57 61.829375 
L 91.57 61.829375 
" style="fill: none; stroke-dasharray: 5.55,2.4; stroke-dashoffset: 0; stroke: #ff0000; stroke-width: 1.5"/>
    </g>
    <g id="text_17">
     <!-- fit:  $\mathrm{sgn}(\omega)\,(2.82 + 27.48\times10^{-6}\,\omega^2)$ -->
     <g transform="translate(99.57 58.938125) scale(0.1 -0.1)">
      <defs>
       <path id="DejaVuSans-66" d="M 2375 4863 
L 2375 4384 
L 1825 4384 
Q 1516 4384 1395 4259 
Q 1275 4134 1275 3809 
L 1275 3500 
L 2222 3500 
L 2222 3053 
L 1275 3053 
L 1275 0 
L 697 0 
L 697 3053 
L 147 3053 
L 147 3500 
L 697 3500 
L 697 3744 
Q 697 4328 969 4595 
Q 1241 4863 1831 4863 
L 2375 4863 
z
" transform="scale(0.015625)"/>
       <path id="DejaVuSans-3a" d="M 750 794 
L 1409 794 
L 1409 0 
L 750 0 
L 750 794 
z
M 750 3309 
L 1409 3309 
L 1409 2516 
L 750 2516 
L 750 3309 
z
" transform="scale(0.015625)"/>
       <path id="DejaVuSans-Oblique-3c9" d="M 1369 -91 
Q 72 -91 434 1766 
Q 575 2500 1256 3500 
L 1875 3500 
Q 1231 2500 1088 1750 
Q 819 397 1519 397 
Q 2166 397 2478 2078 
L 3009 2078 
Q 2669 388 3316 397 
Q 4013 403 4275 1750 
Q 4419 2500 4169 3500 
L 4788 3500 
Q 5075 2500 4934 1766 
Q 4578 -94 3278 -91 
Q 2428 -88 2503 844 
Q 2194 -91 1369 -91 
z
" transform="scale(0.015625)"/>
       <path id="DejaVuSans-38" d="M 2034 2216 
Q 1584 2216 1326 1975 
Q 1069 1734 1069 1313 
Q 1069 891 1326 650 
Q 1584 409 2034 409 
Q 2484 409 2743 651 
Q 3003 894 3003 1313 
Q 3003 1734 2745 1975 
Q 2488 2216 2034 2216 
z
M 1403 2484 
Q 997 2584 770 2862 
Q 544 3141 544 3541 
Q 544 4100 942 4425 
Q 1341 4750 2034 4750 
Q 2731 4750 3128 4425 
Q 3525 4100 3525 3541 
Q 3525 3141 3298 2862 
Q 3072 2584 2669 2484 
Q 3125 2378 3379 2068 
Q 3634 1759 3634 1313 
Q 3634 634 3220 271 
Q 2806 -91 2034 -91 
Q 1263 -91 848 271 
Q 434 634 434 1313 
Q 434 1759 690 2068 
Q 947 2378 1403 2484 
z
M 1172 3481 
Q 1172 3119 1398 2916 
Q 1625 2713 2034 2713 
Q 2441 2713 2670 2916 
Q 2900 3119 2900 3481 
Q 2900 3844 2670 4047 
Q 2441 4250 2034 4250 
Q 1625 4250 1398 4047 
Q 1172 3844 1172 3481 
z
" transform="scale(0.015625)"/>
       <path id="DejaVuSans-2b" d="M 2944 4013 
L 2944 2272 
L 4684 2272 
L 4684 1741 
L 2944 1741 
L 2944 0 
L 2419 0 
L 2419 1741 
L 678 1741 
L 678 2272 
L 2419 2272 
L 2419 4013 
L 2944 4013 
z
" transform="scale(0.015625)"/>
       <path id="DejaVuSans-37" d="M 525 4666 
L 3525 4666 
L 3525 4397 
L 1831 0 
L 1172 0 
L 2766 4134 
L 525 4134 
L 525 4666 
z
" transform="scale(0.015625)"/>
       <path id="DejaVuSans-d7" d="M 4488 3438 
L 3059 2003 
L 4488 575 
L 4116 197 
L 2681 1631 
L 1247 197 
L 878 575 
L 2303 2003 
L 878 3438 
L 1247 3816 
L 2681 2381 
L 4116 3816 
L 4488 3438 
z
" transform="scale(0.015625)"/>
       <path id="DejaVuSans-36" d="M 2113 2584 
Q 1688 2584 1439 2293 
Q 1191 2003 1191 1497 
Q 1191 994 1439 701 
Q 1688 409 2113 409 
Q 2538 409 2786 701 
Q 3034 994 3034 1497 
Q 3034 2003 2786 2293 
Q 2538 2584 2113 2584 
z
M 3366 4563 
L 3366 3988 
Q 3128 4100 2886 4159 
Q 2644 4219 2406 4219 
Q 1781 4219 1451 3797 
Q 1122 3375 1075 2522 
Q 1259 2794 1537 2939 
Q 1816 3084 2150 3084 
Q 2853 3084 3261 2657 
Q 3669 2231 3669 1497 
Q 3669 778 3244 343 
Q 2819 -91 2113 -91 
Q 1303 -91 875 529 
Q 447 1150 447 2328 
Q 447 3434 972 4092 
Q 1497 4750 2381 4750 
Q 2619 4750 2861 4703 
Q 3103 4656 3366 4563 
z
" transform="scale(0.015625)"/>
      </defs>
      <use xlink:href="#DejaVuSans-66" transform="translate(0 0.765625)"/>
      <use xlink:href="#DejaVuSans-69" transform="translate(35.205078 0.765625)"/>
      <use xlink:href="#DejaVuSans-74" transform="translate(62.988281 0.765625)"/>
      <use xlink:href="#DejaVuSans-3a" transform="translate(102.197266 0.765625)"/>
      <use xlink:href="#DejaVuSans-20" transform="translate(135.888672 0.765625)"/>
      <use xlink:href="#DejaVuSans-20" transform="translate(167.675781 0.765625)"/>
      <use xlink:href="#DejaVuSans-73" transform="translate(199.462891 0.765625)"/>
      <use xlink:href="#DejaVuSans-67" transform="translate(251.5625 0.765625)"/>
      <use xlink:href="#DejaVuSans-6e" transform="translate(315.039062 0.765625)"/>
      <use xlink:href="#DejaVuSans-28" transform="translate(378.417969 0.765625)"/>
      <use xlink:href="#DejaVuSans-Oblique-3c9" transform="translate(417.431641 0.765625)"/>
      <use xlink:href="#DejaVuSans-29" transform="translate(501.171875 0.765625)"/>
      <use xlink:href="#DejaVuSans-28" transform="translate(556.421223 0.765625)"/>
      <use xlink:href="#DejaVuSans-32" transform="translate(595.434895 0.765625)"/>
      <use xlink:href="#DejaVuSans-2e" transform="translate(659.057942 0.765625)"/>
      <use xlink:href="#DejaVuSans-38" transform="translate(688.220051 0.765625)"/>
      <use xlink:href="#DejaVuSans-32" transform="translate(751.843098 0.765625)"/>
      <use xlink:href="#DejaVuSans-2b" transform="translate(834.948567 0.765625)"/>
      <use xlink:href="#DejaVuSans-32" transform="translate(938.220051 0.765625)"/>
      <use xlink:href="#DejaVuSans-37" transform="translate(1001.843098 0.765625)"/>
      <use xlink:href="#DejaVuSans-2e" transform="translate(1065.466145 0.765625)"/>
      <use xlink:href="#DejaVuSans-34" transform="translate(1097.253254 0.765625)"/>
      <use xlink:href="#DejaVuSans-38" transform="translate(1160.876301 0.765625)"/>
      <use xlink:href="#DejaVuSans-d7" transform="translate(1243.98177 0.765625)"/>
      <use xlink:href="#DejaVuSans-31" transform="translate(1347.253254 0.765625)"/>
      <use xlink:href="#DejaVuSans-30" transform="translate(1410.876301 0.765625)"/>
      <use xlink:href="#DejaVuSans-2212" transform="translate(1475.456379 39.046875) scale(0.7)"/>
      <use xlink:href="#DejaVuSans-36" transform="translate(1534.108723 39.046875) scale(0.7)"/>
      <use xlink:href="#DejaVuSans-Oblique-3c9" transform="translate(1597.614907 0.765625)"/>
      <use xlink:href="#DejaVuSans-32" transform="translate(1685.821287 39.046875) scale(0.7)"/>
      <use xlink:href="#DejaVuSans-29" transform="translate(1733.091795 0.765625)"/>
     </g>
     <!-- $\quad+ 0.228\times10^{-3}\,\omega$  [Nm] -->
     <g transform="translate(99.57 71.1425) scale(0.1 -0.1)">
      <use xlink:href="#DejaVuSans-2b" transform="translate(116.894531 0.765625)"/>
      <use xlink:href="#DejaVuSans-30" transform="translate(220.166016 0.765625)"/>
      <use xlink:href="#DejaVuSans-2e" transform="translate(283.789062 0.765625)"/>
      <use xlink:href="#DejaVuSans-32" transform="translate(310.076172 0.765625)"/>
      <use xlink:href="#DejaVuSans-32" transform="translate(373.699219 0.765625)"/>
      <use xlink:href="#DejaVuSans-38" transform="translate(437.322266 0.765625)"/>
      <use xlink:href="#DejaVuSans-d7" transform="translate(520.427734 0.765625)"/>
      <use xlink:href="#DejaVuSans-31" transform="translate(623.699219 0.765625)"/>
      <use xlink:href="#DejaVuSans-30" transform="translate(687.322266 0.765625)"/>
      <use xlink:href="#DejaVuSans-2212" transform="translate(751.902344 39.046875) scale(0.7)"/>
      <use xlink:href="#DejaVuSans-33" transform="translate(810.554688 39.046875) scale(0.7)"/>
      <use xlink:href="#DejaVuSans-Oblique-3c9" transform="translate(874.060872 0.765625)"/>
      <use xlink:href="#DejaVuSans-20" transform="translate(957.801106 0.765625)"/>
      <use xlink:href="#DejaVuSans-20" transform="translate(989.588215 0.765625)"/>
      <use xlink:href="#DejaVuSans-5b" transform="translate(1021.375325 0.765625)"/>
      <use xlink:href="#DejaVuSans-4e" transform="translate(1060.388997 0.765625)"/>
      <use xlink:href="#DejaVuSans-6d" transform="translate(1135.193684 0.765625)"/>
      <use xlink:href="#DejaVuSans-5d" transform="translate(1232.605793 0.765625)"/>
     </g>
    </g>
   </g>
  </g>
 </g>
 <defs>
  <clipPath id="p98f0c7c692">
   <rect x="62.57" y="26.16" width="430.63" height="291.88"/>
  </clipPath>
 </defs>
</svg>
