<?xml version="1.0" encoding="utf-8" standalone="no"?>
<!DOCTYPE svg PUBLIC "-//W3C//DTD SVG 1.1//EN"
  "http://www.w3.org/Graphics/SVG/1.1/DTD/svg11.dtd">
<svg xmlns:xlink="http://www.w3.org/1999/xlink" width="576pt" height="504pt" viewBox="0 0 576 504" xmlns="http://www.w3.org/2000/svg" version="1.1">
 <metadata>
  <rdf:RDF xmlns:dc="http://purl.org/dc/elements/1.1/" xmlns:cc="http://creativecommons.org/ns#" xmlns:rdf="http://www.w3.org/1999/02/22-rdf-syntax-ns#">
   <cc:Work>
    <dc:type rdf:resource="http://purl.org/dc/dcmitype/StillImage"/>
    <dc:date>2026-06-19T10:24:13.566687</dc:date>
    <dc:format>image/svg+xml</dc:format>
    <dc:creator>
     <cc:Agent>
      <dc:title>Matplotlib v3.10.9, https://matplotlib.org/</dc:title>
     </cc:Agent>
    </dc:creator>
   </cc:Work>
  </rdf:RDF>
 </metadata>
 <defs>
  <style type="text/css">*{stroke-linejoin: round; stroke-linecap: butt}</style>
 </defs>
 <g id="figure_1">
  <g id="patch_1">
   <path d="M 0 504 
L 576 504 
L 576 0 
L 0 0 
z
" style="fill: #ffffff"/>
  </g>
  <g id="axes_1">
   <g id="patch_2">
    <path d="M 59.375 236.608 
L 565.2 236.608 
L 565.2 26.16 
L 59.375 26.16 
z
" style="fill: #ffffff"/>
   </g>
   <g id="matplotlib.axis_1">
    <g id="xtick_1">
     <g id="line2d_1">
      <path d="M 148.944169 236.608 
L 148.944169 26.16 
" clip-path="url(#p89279f3dad)" style="fill: none; stroke: #b0b0b0; stroke-width: 0.8; stroke-linecap: square"/>
     </g>
     <g id="line2d_2">
      <defs>
       <path id="m6171655b54" d="M 0 0 
L 0 3.5 
" style="stroke: #000000; stroke-width: 0.8"/>
      </defs>
      <g>
       <use xlink:href="#m6171655b54" x="148.944169" y="236.608" style="stroke: #000000; stroke-width: 0.8"/>
      </g>
     </g>
    </g>
    <g id="xtick_2">
     <g id="line2d_3">
      <path d="M 370.108587 236.608 
L 370.108587 26.16 
" clip-path="url(#p89279f3dad)" style="fill: none; stroke: #b0b0b0; stroke-width: 0.8; stroke-linecap: square"/>
     </g>
     <g id="line2d_4">
      <g>
       <use xlink:href="#m6171655b54" x="370.108587" y="236.608" style="stroke: #000000; stroke-width: 0.8"/>
      </g>
     </g>
    </g>
    <g id="xtick_3">
     <g id="line2d_5">
      <path d="M 60.933999 236.608 
L 60.933999 26.16 
" clip-path="url(#p89279f3dad)" style="fill: none; stroke: #b0b0b0; stroke-width: 0.8; stroke-linecap: square"/>
     </g>
     <g id="line2d_6">
      <defs>
       <path id="maf10c1dc9c" d="M 0 0 
L 0 2 
" style="stroke: #000000; stroke-width: 0.6"/>
      </defs>
      <g>
       <use xlink:href="#maf10c1dc9c" x="60.933999" y="236.608" style="stroke: #000000; stroke-width: 0.6"/>
      </g>
     </g>
    </g>
    <g id="xtick_4">
     <g id="line2d_7">
      <path d="M 82.367045 236.608 
L 82.367045 26.16 
" clip-path="url(#p89279f3dad)" style="fill: none; stroke: #b0b0b0; stroke-width: 0.8; stroke-linecap: square"/>
     </g>
     <g id="line2d_8">
      <g>
       <use xlink:href="#maf10c1dc9c" x="82.367045" y="236.608" style="stroke: #000000; stroke-width: 0.6"/>
      </g>
     </g>
    </g>
    <g id="xtick_5">
     <g id="line2d_9">
      <path d="M 99.87912 236.608 
L 99.87912 26.16 
" clip-path="url(#p89279f3dad)" style="fill: none; stroke: #b0b0b0; stroke-width: 0.8; stroke-linecap: square"/>
     </g>
     <g id="line2d_10">
      <g>
       <use xlink:href="#maf10c1dc9c" x="99.87912" y="236.608" style="stroke: #000000; stroke-width: 0.6"/>
      </g>
     </g>
    </g>
    <g id="xtick_6">
     <g id="line2d_11">
      <path d="M 114.685367 236.608 
L 114.685367 26.16 
" clip-path="url(#p89279f3dad)" style="fill: none; stroke: #b0b0b0; stroke-width: 0.8; stroke-linecap: square"/>
     </g>
     <g id="line2d_12">
      <g>
       <use xlink:href="#maf10c1dc9c" x="114.685367" y="236.608" style="stroke: #000000; stroke-width: 0.6"/>
      </g>
     </g>
    </g>
    <g id="xtick_7">
     <g id="line2d_13">
      <path d="M 127.511123 236.608 
L 127.511123 26.16 
" clip-path="url(#p89279f3dad)" style="fill: none; stroke: #b0b0b0; stroke-width: 0.8; stroke-linecap: square"/>
     </g>
     <g id="line2d_14">
      <g>
       <use xlink:href="#maf10c1dc9c" x="127.511123" y="236.608" style="stroke: #000000; stroke-width: 0.6"/>
      </g>
     </g>
    </g>
    <g id="xtick_8">
     <g id="line2d_15">
      <path d="M 138.82424 236.608 
L 138.82424 26.16 
" clip-path="url(#p89279f3dad)" style="fill: none; stroke: #b0b0b0; stroke-width: 0.8; stroke-linecap: square"/>
     </g>
     <g id="line2d_16">
      <g>
       <use xlink:href="#maf10c1dc9c" x="138.82424" y="236.608" style="stroke: #000000; stroke-width: 0.6"/>
      </g>
     </g>
    </g>
    <g id="xtick_9">
     <g id="line2d_17">
      <path d="M 215.521293 236.608 
L 215.521293 26.16 
" clip-path="url(#p89279f3dad)" style="fill: none; stroke: #b0b0b0; stroke-width: 0.8; stroke-linecap: square"/>
     </g>
     <g id="line2d_18">
      <g>
       <use xlink:href="#maf10c1dc9c" x="215.521293" y="236.608" style="stroke: #000000; stroke-width: 0.6"/>
      </g>
     </g>
    </g>
    <g id="xtick_10">
     <g id="line2d_19">
      <path d="M 254.466413 236.608 
L 254.466413 26.16 
" clip-path="url(#p89279f3dad)" style="fill: none; stroke: #b0b0b0; stroke-width: 0.8; stroke-linecap: square"/>
     </g>
     <g id="line2d_20">
      <g>
       <use xlink:href="#maf10c1dc9c" x="254.466413" y="236.608" style="stroke: #000000; stroke-width: 0.6"/>
      </g>
     </g>
    </g>
    <g id="xtick_11">
     <g id="line2d_21">
      <path d="M 282.098416 236.608 
L 282.098416 26.16 
" clip-path="url(#p89279f3dad)" style="fill: none; stroke: #b0b0b0; stroke-width: 0.8; stroke-linecap: square"/>
     </g>
     <g id="line2d_22">
      <g>
       <use xlink:href="#maf10c1dc9c" x="282.098416" y="236.608" style="stroke: #000000; stroke-width: 0.6"/>
      </g>
     </g>
    </g>
    <g id="xtick_12">
     <g id="line2d_23">
      <path d="M 303.531463 236.608 
L 303.531463 26.16 
" clip-path="url(#p89279f3dad)" style="fill: none; stroke: #b0b0b0; stroke-width: 0.8; stroke-linecap: square"/>
     </g>
     <g id="line2d_24">
      <g>
       <use xlink:href="#maf10c1dc9c" x="303.531463" y="236.608" style="stroke: #000000; stroke-width: 0.6"/>
      </g>
     </g>
    </g>
    <g id="xtick_13">
     <g id="line2d_25">
      <path d="M 321.043537 236.608 
L 321.043537 26.16 
" clip-path="url(#p89279f3dad)" style="fill: none; stroke: #b0b0b0; stroke-width: 0.8; stroke-linecap: square"/>
     </g>
     <g id="line2d_26">
      <g>
       <use xlink:href="#maf10c1dc9c" x="321.043537" y="236.608" style="stroke: #000000; stroke-width: 0.6"/>
      </g>
     </g>
    </g>
    <g id="xtick_14">
     <g id="line2d_27">
      <path d="M 335.849785 236.608 
L 335.849785 26.16 
" clip-path="url(#p89279f3dad)" style="fill: none; stroke: #b0b0b0; stroke-width: 0.8; stroke-linecap: square"/>
     </g>
     <g id="line2d_28">
      <g>
       <use xlink:href="#maf10c1dc9c" x="335.849785" y="236.608" style="stroke: #000000; stroke-width: 0.6"/>
      </g>
     </g>
    </g>
    <g id="xtick_15">
     <g id="line2d_29">
      <path d="M 348.67554 236.608 
L 348.67554 26.16 
" clip-path="url(#p89279f3dad)" style="fill: none; stroke: #b0b0b0; stroke-width: 0.8; stroke-linecap: square"/>
     </g>
     <g id="line2d_30">
      <g>
       <use xlink:href="#maf10c1dc9c" x="348.67554" y="236.608" style="stroke: #000000; stroke-width: 0.6"/>
      </g>
     </g>
    </g>
    <g id="xtick_16">
     <g id="line2d_31">
      <path d="M 359.988658 236.608 
L 359.988658 26.16 
" clip-path="url(#p89279f3dad)" style="fill: none; stroke: #b0b0b0; stroke-width: 0.8; stroke-linecap: square"/>
     </g>
     <g id="line2d_32">
      <g>
       <use xlink:href="#maf10c1dc9c" x="359.988658" y="236.608" style="stroke: #000000; stroke-width: 0.6"/>
      </g>
     </g>
    </g>
    <g id="xtick_17">
     <g id="line2d_33">
      <path d="M 436.68571 236.608 
L 436.68571 26.16 
" clip-path="url(#p89279f3dad)" style="fill: none; stroke: #b0b0b0; stroke-width: 0.8; stroke-linecap: square"/>
     </g>
     <g id="line2d_34">
      <g>
       <use xlink:href="#maf10c1dc9c" x="436.68571" y="236.608" style="stroke: #000000; stroke-width: 0.6"/>
      </g>
     </g>
    </g>
    <g id="xtick_18">
     <g id="line2d_35">
      <path d="M 475.630831 236.608 
L 475.630831 26.16 
" clip-path="url(#p89279f3dad)" style="fill: none; stroke: #b0b0b0; stroke-width: 0.8; stroke-linecap: square"/>
     </g>
     <g id="line2d_36">
      <g>
       <use xlink:href="#maf10c1dc9c" x="475.630831" y="236.608" style="stroke: #000000; stroke-width: 0.6"/>
      </g>
     </g>
    </g>
    <g id="xtick_19">
     <g id="line2d_37">
      <path d="M 503.262834 236.608 
L 503.262834 26.16 
" clip-path="url(#p89279f3dad)" style="fill: none; stroke: #b0b0b0; stroke-width: 0.8; stroke-linecap: square"/>
     </g>
     <g id="line2d_38">
      <g>
       <use xlink:href="#maf10c1dc9c" x="503.262834" y="236.608" style="stroke: #000000; stroke-width: 0.6"/>
      </g>
     </g>
    </g>
    <g id="xtick_20">
     <g id="line2d_39">
      <path d="M 524.69588 236.608 
L 524.69588 26.16 
" clip-path="url(#p89279f3dad)" style="fill: none; stroke: #b0b0b0; stroke-width: 0.8; stroke-linecap: square"/>
     </g>
     <g id="line2d_40">
      <g>
       <use xlink:href="#maf10c1dc9c" x="524.69588" y="236.608" style="stroke: #000000; stroke-width: 0.6"/>
      </g>
     </g>
    </g>
    <g id="xtick_21">
     <g id="line2d_41">
      <path d="M 542.207955 236.608 
L 542.207955 26.16 
" clip-path="url(#p89279f3dad)" style="fill: none; stroke: #b0b0b0; stroke-width: 0.8; stroke-linecap: square"/>
     </g>
     <g id="line2d_42">
      <g>
       <use xlink:href="#maf10c1dc9c" x="542.207955" y="236.608" style="stroke: #000000; stroke-width: 0.6"/>
      </g>
     </g>
    </g>
    <g id="xtick_22">
     <g id="line2d_43">
      <path d="M 557.014202 236.608 
L 557.014202 26.16 
" clip-path="url(#p89279f3dad)" style="fill: none; stroke: #b0b0b0; stroke-width: 0.8; stroke-linecap: square"/>
     </g>
     <g id="line2d_44">
      <g>
       <use xlink:href="#maf10c1dc9c" x="557.014202" y="236.608" style="stroke: #000000; stroke-width: 0.6"/>
      </g>
     </g>
    </g>
   </g>
   <g id="matplotlib.axis_2">
    <g id="ytick_1">
     <g id="line2d_45">
      <path d="M 59.375 232.843363 
L 565.2 232.843363 
" clip-path="url(#p89279f3dad)" style="fill: none; stroke: #b0b0b0; stroke-width: 0.8; stroke-linecap: square"/>
     </g>
     <g id="line2d_46">
      <defs>
       <path id="m7cf70f0dc0" d="M 0 0 
L -3.5 0 
" style="stroke: #000000; stroke-width: 0.8"/>
      </defs>
      <g>
       <use xlink:href="#m7cf70f0dc0" x="59.375" y="232.843363" style="stroke: #000000; stroke-width: 0.8"/>
      </g>
     </g>
     <g id="text_1">
      <!-- 0 -->
      <g transform="translate(46.0125 236.642582) scale(0.1 -0.1)">
       <defs>
        <path id="DejaVuSans-30" d="M 2034 4250 
Q 1547 4250 1301 3770 
Q 1056 3291 1056 2328 
Q 1056 1369 1301 889 
Q 1547 409 2034 409 
Q 2525 409 2770 889 
Q 3016 1369 3016 2328 
Q 3016 3291 2770 3770 
Q 2525 4250 2034 4250 
z
M 2034 4750 
Q 2819 4750 3233 4129 
Q 3647 3509 3647 2328 
Q 3647 1150 3233 529 
Q 2819 -91 2034 -91 
Q 1250 -91 836 529 
Q 422 1150 422 2328 
Q 422 3509 836 4129 
Q 1250 4750 2034 4750 
z
" transform="scale(0.015625)"/>
       </defs>
       <use xlink:href="#DejaVuSans-30"/>
      </g>
     </g>
    </g>
    <g id="ytick_2">
     <g id="line2d_47">
      <path d="M 59.375 187.340583 
L 565.2 187.340583 
" clip-path="url(#p89279f3dad)" style="fill: none; stroke: #b0b0b0; stroke-width: 0.8; stroke-linecap: square"/>
     </g>
     <g id="line2d_48">
      <g>
       <use xlink:href="#m7cf70f0dc0" x="59.375" y="187.340583" style="stroke: #000000; stroke-width: 0.8"/>
      </g>
     </g>
     <g id="text_2">
      <!-- 10 -->
      <g transform="translate(39.65 191.139801) scale(0.1 -0.1)">
       <defs>
        <path id="DejaVuSans-31" d="M 794 531 
L 1825 531 
L 1825 4091 
L 703 3866 
L 703 4441 
L 1819 4666 
L 2450 4666 
L 2450 531 
L 3481 531 
L 3481 0 
L 794 0 
L 794 531 
z
" transform="scale(0.015625)"/>
       </defs>
       <use xlink:href="#DejaVuSans-31"/>
       <use xlink:href="#DejaVuSans-30" transform="translate(63.623047 0)"/>
      </g>
     </g>
    </g>
    <g id="ytick_3">
     <g id="line2d_49">
      <path d="M 59.375 141.837802 
L 565.2 141.837802 
" clip-path="url(#p89279f3dad)" style="fill: none; stroke: #b0b0b0; stroke-width: 0.8; stroke-linecap: square"/>
     </g>
     <g id="line2d_50">
      <g>
       <use xlink:href="#m7cf70f0dc0" x="59.375" y="141.837802" style="stroke: #000000; stroke-width: 0.8"/>
      </g>
     </g>
     <g id="text_3">
      <!-- 20 -->
      <g transform="translate(39.65 145.637021) scale(0.1 -0.1)">
       <defs>
        <path id="DejaVuSans-32" d="M 1228 531 
L 3431 531 
L 3431 0 
L 469 0 
L 469 531 
Q 828 903 1448 1529 
Q 2069 2156 2228 2338 
Q 2531 2678 2651 2914 
Q 2772 3150 2772 3378 
Q 2772 3750 2511 3984 
Q 2250 4219 1831 4219 
Q 1534 4219 1204 4116 
Q 875 4013 500 3803 
L 500 4441 
Q 881 4594 1212 4672 
Q 1544 4750 1819 4750 
Q 2544 4750 2975 4387 
Q 3406 4025 3406 3419 
Q 3406 3131 3298 2873 
Q 3191 2616 2906 2266 
Q 2828 2175 2409 1742 
Q 1991 1309 1228 531 
z
" transform="scale(0.015625)"/>
       </defs>
       <use xlink:href="#DejaVuSans-32"/>
       <use xlink:href="#DejaVuSans-30" transform="translate(63.623047 0)"/>
      </g>
     </g>
    </g>
    <g id="ytick_4">
     <g id="line2d_51">
      <path d="M 59.375 96.335021 
L 565.2 96.335021 
" clip-path="url(#p89279f3dad)" style="fill: none; stroke: #b0b0b0; stroke-width: 0.8; stroke-linecap: square"/>
     </g>
     <g id="line2d_52">
      <g>
       <use xlink:href="#m7cf70f0dc0" x="59.375" y="96.335021" style="stroke: #000000; stroke-width: 0.8"/>
      </g>
     </g>
     <g id="text_4">
      <!-- 30 -->
      <g transform="translate(39.65 100.13424) scale(0.1 -0.1)">
       <defs>
        <path id="DejaVuSans-33" d="M 2597 2516 
Q 3050 2419 3304 2112 
Q 3559 1806 3559 1356 
Q 3559 666 3084 287 
Q 2609 -91 1734 -91 
Q 1441 -91 1130 -33 
Q 819 25 488 141 
L 488 750 
Q 750 597 1062 519 
Q 1375 441 1716 441 
Q 2309 441 2620 675 
Q 2931 909 2931 1356 
Q 2931 1769 2642 2001 
Q 2353 2234 1838 2234 
L 1294 2234 
L 1294 2753 
L 1863 2753 
Q 2328 2753 2575 2939 
Q 2822 3125 2822 3475 
Q 2822 3834 2567 4026 
Q 2313 4219 1838 4219 
Q 1578 4219 1281 4162 
Q 984 4106 628 3988 
L 628 4550 
Q 988 4650 1302 4700 
Q 1616 4750 1894 4750 
Q 2613 4750 3031 4423 
Q 3450 4097 3450 3541 
Q 3450 3153 3228 2886 
Q 3006 2619 2597 2516 
z
" transform="scale(0.015625)"/>
       </defs>
       <use xlink:href="#DejaVuSans-33"/>
       <use xlink:href="#DejaVuSans-30" transform="translate(63.623047 0)"/>
      </g>
     </g>
    </g>
    <g id="ytick_5">
     <g id="line2d_53">
      <path d="M 59.375 50.83224 
L 565.2 50.83224 
" clip-path="url(#p89279f3dad)" style="fill: none; stroke: #b0b0b0; stroke-width: 0.8; stroke-linecap: square"/>
     </g>
     <g id="line2d_54">
      <g>
       <use xlink:href="#m7cf70f0dc0" x="59.375" y="50.83224" style="stroke: #000000; stroke-width: 0.8"/>
      </g>
     </g>
     <g id="text_5">
      <!-- 40 -->
      <g transform="translate(39.65 54.631459) scale(0.1 -0.1)">
       <defs>
        <path id="DejaVuSans-34" d="M 2419 4116 
L 825 1625 
L 2419 1625 
L 2419 4116 
z
M 2253 4666 
L 3047 4666 
L 3047 1625 
L 3713 1625 
L 3713 1100 
L 3047 1100 
L 3047 0 
L 2419 0 
L 2419 1100 
L 313 1100 
L 313 1709 
L 2253 4666 
z
" transform="scale(0.015625)"/>
       </defs>
       <use xlink:href="#DejaVuSans-34"/>
       <use xlink:href="#DejaVuSans-30" transform="translate(63.623047 0)"/>
      </g>
     </g>
    </g>
    <g id="text_6">
     <!-- $|\dot\theta_m / T_m|$  [dB] -->
     <g transform="translate(33.25 163.384) rotate(-90) scale(0.1 -0.1)">
      <defs>
       <path id="DejaVuSans-7c" d="M 1344 4891 
L 1344 -1509 
L 813 -1509 
L 813 4891 
L 1344 4891 
z
" transform="scale(0.015625)"/>
       <path id="DejaVuSans-307" d="M -1894 4863 
L -1319 4863 
L -1319 4134 
L -1894 4134 
L -1894 4863 
z
M -1600 3584 
L -1600 3584 
z
" transform="scale(0.015625)"/>
       <path id="DejaVuSans-Oblique-3b8" d="M 2913 2219 
L 925 2219 
Q 791 1284 928 888 
Q 1100 400 1566 400 
Q 2034 400 2391 891 
Q 2703 1322 2913 2219 
z
M 3009 2750 
Q 3094 3638 2984 3950 
Q 2813 4444 2353 4444 
Q 1875 4444 1525 3956 
Q 1250 3563 1034 2750 
L 3009 2750 
z
M 2444 4913 
Q 3194 4913 3494 4250 
Q 3794 3591 3566 2422 
Q 3341 1256 2781 594 
Q 2225 -72 1475 -72 
Q 722 -72 425 594 
Q 128 1256 353 2422 
Q 581 3591 1134 4250 
Q 1691 4913 2444 4913 
z
" transform="scale(0.015625)"/>
       <path id="DejaVuSans-Oblique-6d" d="M 5747 2113 
L 5338 0 
L 4763 0 
L 5166 2094 
Q 5191 2228 5203 2325 
Q 5216 2422 5216 2491 
Q 5216 2772 5059 2928 
Q 4903 3084 4622 3084 
Q 4203 3084 3875 2770 
Q 3547 2456 3450 1953 
L 3066 0 
L 2491 0 
L 2900 2094 
Q 2925 2209 2937 2307 
Q 2950 2406 2950 2484 
Q 2950 2769 2794 2926 
Q 2638 3084 2363 3084 
Q 1938 3084 1609 2770 
Q 1281 2456 1184 1953 
L 800 0 
L 225 0 
L 909 3500 
L 1484 3500 
L 1375 2956 
Q 1609 3263 1923 3423 
Q 2238 3584 2597 3584 
Q 2978 3584 3223 3384 
Q 3469 3184 3519 2828 
Q 3781 3197 4126 3390 
Q 4472 3584 4856 3584 
Q 5306 3584 5551 3325 
Q 5797 3066 5797 2591 
Q 5797 2488 5784 2364 
Q 5772 2241 5747 2113 
z
" transform="scale(0.015625)"/>
       <path id="DejaVuSans-2f" d="M 1625 4666 
L 2156 4666 
L 531 -594 
L 0 -594 
L 1625 4666 
z
" transform="scale(0.015625)"/>
       <path id="DejaVuSans-Oblique-54" d="M 378 4666 
L 4325 4666 
L 4225 4134 
L 2559 4134 
L 1759 0 
L 1125 0 
L 1925 4134 
L 275 4134 
L 378 4666 
z
" transform="scale(0.015625)"/>
       <path id="DejaVuSans-20" transform="scale(0.015625)"/>
       <path id="DejaVuSans-5b" d="M 550 4863 
L 1875 4863 
L 1875 4416 
L 1125 4416 
L 1125 -397 
L 1875 -397 
L 1875 -844 
L 550 -844 
L 550 4863 
z
" transform="scale(0.015625)"/>
       <path id="DejaVuSans-64" d="M 2906 2969 
L 2906 4863 
L 3481 4863 
L 3481 0 
L 2906 0 
L 2906 525 
Q 2725 213 2448 61 
Q 2172 -91 1784 -91 
Q 1150 -91 751 415 
Q 353 922 353 1747 
Q 353 2572 751 3078 
Q 1150 3584 1784 3584 
Q 2172 3584 2448 3432 
Q 2725 3281 2906 2969 
z
M 947 1747 
Q 947 1113 1208 752 
Q 1469 391 1925 391 
Q 2381 391 2643 752 
Q 2906 1113 2906 1747 
Q 2906 2381 2643 2742 
Q 2381 3103 1925 3103 
Q 1469 3103 1208 2742 
Q 947 2381 947 1747 
z
" transform="scale(0.015625)"/>
       <path id="DejaVuSans-42" d="M 1259 2228 
L 1259 519 
L 2272 519 
Q 2781 519 3026 730 
Q 3272 941 3272 1375 
Q 3272 1813 3026 2020 
Q 2781 2228 2272 2228 
L 1259 2228 
z
M 1259 4147 
L 1259 2741 
L 2194 2741 
Q 2656 2741 2882 2914 
Q 3109 3088 3109 3444 
Q 3109 3797 2882 3972 
Q 2656 4147 2194 4147 
L 1259 4147 
z
M 628 4666 
L 2241 4666 
Q 2963 4666 3353 4366 
Q 3744 4066 3744 3513 
Q 3744 3084 3544 2831 
Q 3344 2578 2956 2516 
Q 3422 2416 3680 2098 
Q 3938 1781 3938 1306 
Q 3938 681 3513 340 
Q 3088 0 2303 0 
L 628 0 
L 628 4666 
z
" transform="scale(0.015625)"/>
       <path id="DejaVuSans-5d" d="M 1947 4863 
L 1947 -844 
L 622 -844 
L 622 -397 
L 1369 -397 
L 1369 4416 
L 622 4416 
L 622 4863 
L 1947 4863 
z
" transform="scale(0.015625)"/>
      </defs>
      <use xlink:href="#DejaVuSans-7c" transform="translate(0 0.75)"/>
      <use xlink:href="#DejaVuSans-307" transform="translate(94.601562 34.015625)"/>
      <use xlink:href="#DejaVuSans-Oblique-3b8" transform="translate(33.691406 0.75)"/>
      <use xlink:href="#DejaVuSans-Oblique-6d" transform="translate(95.830078 -15.65625) scale(0.7)"/>
      <use xlink:href="#DejaVuSans-2f" transform="translate(166.75293 0.75)"/>
      <use xlink:href="#DejaVuSans-Oblique-54" transform="translate(200.444336 0.75)"/>
      <use xlink:href="#DejaVuSans-Oblique-6d" transform="translate(261.52832 -15.65625) scale(0.7)"/>
      <use xlink:href="#DejaVuSans-7c" transform="translate(332.451172 0.75)"/>
      <use xlink:href="#DejaVuSans-20" transform="translate(366.142578 0.75)"/>
      <use xlink:href="#DejaVuSans-20" transform="translate(397.929688 0.75)"/>
      <use xlink:href="#DejaVuSans-5b" transform="translate(429.716797 0.75)"/>
      <use xlink:href="#DejaVuSans-64" transform="translate(468.730469 0.75)"/>
      <use xlink:href="#DejaVuSans-42" transform="translate(532.207031 0.75)"/>
      <use xlink:href="#DejaVuSans-5d" transform="translate(600.810547 0.75)"/>
     </g>
    </g>
   </g>
   <g id="line2d_55">
    <path d="M 82.367045 35.725818 
L 101.527083 47.702571 
L 120.687121 57.630449 
L 139.847159 53.372463 
L 159.007197 61.122871 
L 178.167235 73.628142 
L 197.327273 91.327251 
L 216.487311 100.167561 
L 235.647348 103.578917 
L 254.807386 115.164267 
L 273.967424 127.730549 
L 293.127462 135.873448 
L 312.2875 142.727111 
L 331.447538 166.519377 
L 350.607576 206.406013 
L 369.767614 207.159943 
L 388.927652 167.261868 
L 408.087689 147.716075 
L 427.247727 134.739204 
L 446.407765 122.575041 
L 465.567803 110.626903 
L 484.727841 97.518779 
L 503.887879 76.222101 
L 523.047917 54.362111 
L 542.207955 47.491777 
" clip-path="url(#p89279f3dad)" style="fill: none; stroke: #1f77b4; stroke-width: 1.5; stroke-linecap: square"/>
    <defs>
     <path id="m291aca3598" d="M 0 3 
C 0.795609 3 1.55874 2.683901 2.12132 2.12132 
C 2.683901 1.55874 3 0.795609 3 0 
C 3 -0.795609 2.683901 -1.55874 2.12132 -2.12132 
C 1.55874 -2.683901 0.795609 -3 0 -3 
C -0.795609 -3 -1.55874 -2.683901 -2.12132 -2.12132 
C -2.683901 -1.55874 -3 -0.795609 -3 0 
C -3 0.795609 -2.683901 1.55874 -2.12132 2.12132 
C -1.55874 2.683901 -0.795609 3 0 3 
z
" style="stroke: #1f77b4"/>
    </defs>
    <g clip-path="url(#p89279f3dad)">
     <use xlink:href="#m291aca3598" x="82.367045" y="35.725818" style="fill: #1f77b4; stroke: #1f77b4"/>
     <use xlink:href="#m291aca3598" x="101.527083" y="47.702571" style="fill: #1f77b4; stroke: #1f77b4"/>
     <use xlink:href="#m291aca3598" x="120.687121" y="57.630449" style="fill: #1f77b4; stroke: #1f77b4"/>
     <use xlink:href="#m291aca3598" x="139.847159" y="53.372463" style="fill: #1f77b4; stroke: #1f77b4"/>
     <use xlink:href="#m291aca3598" x="159.007197" y="61.122871" style="fill: #1f77b4; stroke: #1f77b4"/>
     <use xlink:href="#m291aca3598" x="178.167235" y="73.628142" style="fill: #1f77b4; stroke: #1f77b4"/>
     <use xlink:href="#m291aca3598" x="197.327273" y="91.327251" style="fill: #1f77b4; stroke: #1f77b4"/>
     <use xlink:href="#m291aca3598" x="216.487311" y="100.167561" style="fill: #1f77b4; stroke: #1f77b4"/>
     <use xlink:href="#m291aca3598" x="235.647348" y="103.578917" style="fill: #1f77b4; stroke: #1f77b4"/>
     <use xlink:href="#m291aca3598" x="254.807386" y="115.164267" style="fill: #1f77b4; stroke: #1f77b4"/>
     <use xlink:href="#m291aca3598" x="273.967424" y="127.730549" style="fill: #1f77b4; stroke: #1f77b4"/>
     <use xlink:href="#m291aca3598" x="293.127462" y="135.873448" style="fill: #1f77b4; stroke: #1f77b4"/>
     <use xlink:href="#m291aca3598" x="312.2875" y="142.727111" style="fill: #1f77b4; stroke: #1f77b4"/>
     <use xlink:href="#m291aca3598" x="331.447538" y="166.519377" style="fill: #1f77b4; stroke: #1f77b4"/>
     <use xlink:href="#m291aca3598" x="350.607576" y="206.406013" style="fill: #1f77b4; stroke: #1f77b4"/>
     <use xlink:href="#m291aca3598" x="369.767614" y="207.159943" style="fill: #1f77b4; stroke: #1f77b4"/>
     <use xlink:href="#m291aca3598" x="388.927652" y="167.261868" style="fill: #1f77b4; stroke: #1f77b4"/>
     <use xlink:href="#m291aca3598" x="408.087689" y="147.716075" style="fill: #1f77b4; stroke: #1f77b4"/>
     <use xlink:href="#m291aca3598" x="427.247727" y="134.739204" style="fill: #1f77b4; stroke: #1f77b4"/>
     <use xlink:href="#m291aca3598" x="446.407765" y="122.575041" style="fill: #1f77b4; stroke: #1f77b4"/>
     <use xlink:href="#m291aca3598" x="465.567803" y="110.626903" style="fill: #1f77b4; stroke: #1f77b4"/>
     <use xlink:href="#m291aca3598" x="484.727841" y="97.518779" style="fill: #1f77b4; stroke: #1f77b4"/>
     <use xlink:href="#m291aca3598" x="503.887879" y="76.222101" style="fill: #1f77b4; stroke: #1f77b4"/>
     <use xlink:href="#m291aca3598" x="523.047917" y="54.362111" style="fill: #1f77b4; stroke: #1f77b4"/>
     <use xlink:href="#m291aca3598" x="542.207955" y="47.491777" style="fill: #1f77b4; stroke: #1f77b4"/>
    </g>
   </g>
   <g id="line2d_56">
    <path d="M 82.367045 37.825125 
L 101.527083 45.709169 
L 120.687121 53.593213 
L 139.847159 61.477257 
L 159.007197 69.361301 
L 178.167235 77.245345 
L 197.327273 85.129389 
L 216.487311 93.013433 
L 235.647348 100.897477 
L 254.807386 108.781521 
L 273.967424 116.665565 
L 293.127462 124.549609 
L 312.2875 132.433653 
L 331.447538 140.317697 
L 350.607576 148.201741 
L 369.767614 156.085786 
L 388.927652 163.96983 
L 408.087689 171.853874 
L 427.247727 179.737918 
L 446.407765 187.621962 
L 465.567803 195.506006 
L 484.727841 203.39005 
L 503.887879 211.274094 
L 523.047917 219.158138 
L 542.207955 227.042182 
" clip-path="url(#p89279f3dad)" style="fill: none; stroke-dasharray: 5.55,2.4; stroke-dashoffset: 0; stroke: #000000; stroke-width: 1.5"/>
   </g>
   <g id="line2d_57">
    <path d="M 369.767614 236.608 
L 369.767614 26.16 
" clip-path="url(#p89279f3dad)" style="fill: none; stroke-dasharray: 3.7,1.6; stroke-dashoffset: 0; stroke: #ffa500"/>
   </g>
   <g id="line2d_58">
    <path d="M 82.367045 236.608 
L 82.367045 26.16 
" clip-path="url(#p89279f3dad)" style="fill: none; stroke-dasharray: 3.7,1.6; stroke-dashoffset: 0; stroke: #008000"/>
   </g>
   <g id="patch_3">
    <path d="M 59.375 236.608 
L 59.375 26.16 
" style="fill: none; stroke: #000000; stroke-width: 0.8; stroke-linejoin: miter; stroke-linecap: square"/>
   </g>
   <g id="patch_4">
    <path d="M 565.2 236.608 
L 565.2 26.16 
" style="fill: none; stroke: #000000; stroke-width: 0.8; stroke-linejoin: miter; stroke-linecap: square"/>
   </g>
   <g id="patch_5">
    <path d="M 59.375 236.608 
L 565.2 236.608 
" style="fill: none; stroke: #000000; stroke-width: 0.8; stroke-linejoin: miter; stroke-linecap: square"/>
   </g>
   <g id="patch_6">
    <path d="M 59.375 26.16 
L 565.2 26.16 
" style="fill: none; stroke: #000000; stroke-width: 0.8; stroke-linejoin: miter; stroke-linecap: square"/>
   </g>
   <g id="text_7">
    <!-- Drive FRF (horn, moteus id=2) -->
    <g transform="translate(220.556875 20.16) scale(0.12 -0.12)">
     <defs>
      <path id="DejaVuSans-44" d="M 1259 4147 
L 1259 519 
L 2022 519 
Q 2988 519 3436 956 
Q 3884 1394 3884 2338 
Q 3884 3275 3436 3711 
Q 2988 4147 2022 4147 
L 1259 4147 
z
M 628 4666 
L 1925 4666 
Q 3281 4666 3915 4102 
Q 4550 3538 4550 2338 
Q 4550 1131 3912 565 
Q 3275 0 1925 0 
L 628 0 
L 628 4666 
z
" transform="scale(0.015625)"/>
      <path id="DejaVuSans-72" d="M 2631 2963 
Q 2534 3019 2420 3045 
Q 2306 3072 2169 3072 
Q 1681 3072 1420 2755 
Q 1159 2438 1159 1844 
L 1159 0 
L 581 0 
L 581 3500 
L 1159 3500 
L 1159 2956 
Q 1341 3275 1631 3429 
Q 1922 3584 2338 3584 
Q 2397 3584 2469 3576 
Q 2541 3569 2628 3553 
L 2631 2963 
z
" transform="scale(0.015625)"/>
      <path id="DejaVuSans-69" d="M 603 3500 
L 1178 3500 
L 1178 0 
L 603 0 
L 603 3500 
z
M 603 4863 
L 1178 4863 
L 1178 4134 
L 603 4134 
L 603 4863 
z
" transform="scale(0.015625)"/>
      <path id="DejaVuSans-76" d="M 191 3500 
L 800 3500 
L 1894 563 
L 2988 3500 
L 3597 3500 
L 2284 0 
L 1503 0 
L 191 3500 
z
" transform="scale(0.015625)"/>
      <path id="DejaVuSans-65" d="M 3597 1894 
L 3597 1613 
L 953 1613 
Q 991 1019 1311 708 
Q 1631 397 2203 397 
Q 2534 397 2845 478 
Q 3156 559 3463 722 
L 3463 178 
Q 3153 47 2828 -22 
Q 2503 -91 2169 -91 
Q 1331 -91 842 396 
Q 353 884 353 1716 
Q 353 2575 817 3079 
Q 1281 3584 2069 3584 
Q 2775 3584 3186 3129 
Q 3597 2675 3597 1894 
z
M 3022 2063 
Q 3016 2534 2758 2815 
Q 2500 3097 2075 3097 
Q 1594 3097 1305 2825 
Q 1016 2553 972 2059 
L 3022 2063 
z
" transform="scale(0.015625)"/>
      <path id="DejaVuSans-46" d="M 628 4666 
L 3309 4666 
L 3309 4134 
L 1259 4134 
L 1259 2759 
L 3109 2759 
L 3109 2228 
L 1259 2228 
L 1259 0 
L 628 0 
L 628 4666 
z
" transform="scale(0.015625)"/>
      <path id="DejaVuSans-52" d="M 2841 2188 
Q 3044 2119 3236 1894 
Q 3428 1669 3622 1275 
L 4263 0 
L 3584 0 
L 2988 1197 
Q 2756 1666 2539 1819 
Q 2322 1972 1947 1972 
L 1259 1972 
L 1259 0 
L 628 0 
L 628 4666 
L 2053 4666 
Q 2853 4666 3247 4331 
Q 3641 3997 3641 3322 
Q 3641 2881 3436 2590 
Q 3231 2300 2841 2188 
z
M 1259 4147 
L 1259 2491 
L 2053 2491 
Q 2509 2491 2742 2702 
Q 2975 2913 2975 3322 
Q 2975 3731 2742 3939 
Q 2509 4147 2053 4147 
L 1259 4147 
z
" transform="scale(0.015625)"/>
      <path id="DejaVuSans-28" d="M 1984 4856 
Q 1566 4138 1362 3434 
Q 1159 2731 1159 2009 
Q 1159 1288 1364 580 
Q 1569 -128 1984 -844 
L 1484 -844 
Q 1016 -109 783 600 
Q 550 1309 550 2009 
Q 550 2706 781 3412 
Q 1013 4119 1484 4856 
L 1984 4856 
z
" transform="scale(0.015625)"/>
      <path id="DejaVuSans-68" d="M 3513 2113 
L 3513 0 
L 2938 0 
L 2938 2094 
Q 2938 2591 2744 2837 
Q 2550 3084 2163 3084 
Q 1697 3084 1428 2787 
Q 1159 2491 1159 1978 
L 1159 0 
L 581 0 
L 581 4863 
L 1159 4863 
L 1159 2956 
Q 1366 3272 1645 3428 
Q 1925 3584 2291 3584 
Q 2894 3584 3203 3211 
Q 3513 2838 3513 2113 
z
" transform="scale(0.015625)"/>
      <path id="DejaVuSans-6f" d="M 1959 3097 
Q 1497 3097 1228 2736 
Q 959 2375 959 1747 
Q 959 1119 1226 758 
Q 1494 397 1959 397 
Q 2419 397 2687 759 
Q 2956 1122 2956 1747 
Q 2956 2369 2687 2733 
Q 2419 3097 1959 3097 
z
M 1959 3584 
Q 2709 3584 3137 3096 
Q 3566 2609 3566 1747 
Q 3566 888 3137 398 
Q 2709 -91 1959 -91 
Q 1206 -91 779 398 
Q 353 888 353 1747 
Q 353 2609 779 3096 
Q 1206 3584 1959 3584 
z
" transform="scale(0.015625)"/>
      <path id="DejaVuSans-6e" d="M 3513 2113 
L 3513 0 
L 2938 0 
L 2938 2094 
Q 2938 2591 2744 2837 
Q 2550 3084 2163 3084 
Q 1697 3084 1428 2787 
Q 1159 2491 1159 1978 
L 1159 0 
L 581 0 
L 581 3500 
L 1159 3500 
L 1159 2956 
Q 1366 3272 1645 3428 
Q 1925 3584 2291 3584 
Q 2894 3584 3203 3211 
Q 3513 2838 3513 2113 
z
" transform="scale(0.015625)"/>
      <path id="DejaVuSans-2c" d="M 750 794 
L 1409 794 
L 1409 256 
L 897 -744 
L 494 -744 
L 750 256 
L 750 794 
z
" transform="scale(0.015625)"/>
      <path id="DejaVuSans-6d" d="M 3328 2828 
Q 3544 3216 3844 3400 
Q 4144 3584 4550 3584 
Q 5097 3584 5394 3201 
Q 5691 2819 5691 2113 
L 5691 0 
L 5113 0 
L 5113 2094 
Q 5113 2597 4934 2840 
Q 4756 3084 4391 3084 
Q 3944 3084 3684 2787 
Q 3425 2491 3425 1978 
L 3425 0 
L 2847 0 
L 2847 2094 
Q 2847 2600 2669 2842 
Q 2491 3084 2119 3084 
Q 1678 3084 1418 2786 
Q 1159 2488 1159 1978 
L 1159 0 
L 581 0 
L 581 3500 
L 1159 3500 
L 1159 2956 
Q 1356 3278 1631 3431 
Q 1906 3584 2284 3584 
Q 2666 3584 2933 3390 
Q 3200 3197 3328 2828 
z
" transform="scale(0.015625)"/>
      <path id="DejaVuSans-74" d="M 1172 4494 
L 1172 3500 
L 2356 3500 
L 2356 3053 
L 1172 3053 
L 1172 1153 
Q 1172 725 1289 603 
Q 1406 481 1766 481 
L 2356 481 
L 2356 0 
L 1766 0 
Q 1100 0 847 248 
Q 594 497 594 1153 
L 594 3053 
L 172 3053 
L 172 3500 
L 594 3500 
L 594 4494 
L 1172 4494 
z
" transform="scale(0.015625)"/>
      <path id="DejaVuSans-75" d="M 544 1381 
L 544 3500 
L 1119 3500 
L 1119 1403 
Q 1119 906 1312 657 
Q 1506 409 1894 409 
Q 2359 409 2629 706 
Q 2900 1003 2900 1516 
L 2900 3500 
L 3475 3500 
L 3475 0 
L 2900 0 
L 2900 538 
Q 2691 219 2414 64 
Q 2138 -91 1772 -91 
Q 1169 -91 856 284 
Q 544 659 544 1381 
z
M 1991 3584 
L 1991 3584 
z
" transform="scale(0.015625)"/>
      <path id="DejaVuSans-73" d="M 2834 3397 
L 2834 2853 
Q 2591 2978 2328 3040 
Q 2066 3103 1784 3103 
Q 1356 3103 1142 2972 
Q 928 2841 928 2578 
Q 928 2378 1081 2264 
Q 1234 2150 1697 2047 
L 1894 2003 
Q 2506 1872 2764 1633 
Q 3022 1394 3022 966 
Q 3022 478 2636 193 
Q 2250 -91 1575 -91 
Q 1294 -91 989 -36 
Q 684 19 347 128 
L 347 722 
Q 666 556 975 473 
Q 1284 391 1588 391 
Q 1994 391 2212 530 
Q 2431 669 2431 922 
Q 2431 1156 2273 1281 
Q 2116 1406 1581 1522 
L 1381 1569 
Q 847 1681 609 1914 
Q 372 2147 372 2553 
Q 372 3047 722 3315 
Q 1072 3584 1716 3584 
Q 2034 3584 2315 3537 
Q 2597 3491 2834 3397 
z
" transform="scale(0.015625)"/>
      <path id="DejaVuSans-3d" d="M 678 2906 
L 4684 2906 
L 4684 2381 
L 678 2381 
L 678 2906 
z
M 678 1631 
L 4684 1631 
L 4684 1100 
L 678 1100 
L 678 1631 
z
" transform="scale(0.015625)"/>
      <path id="DejaVuSans-29" d="M 513 4856 
L 1013 4856 
Q 1481 4119 1714 3412 
Q 1947 2706 1947 2009 
Q 1947 1309 1714 600 
Q 1481 -109 1013 -844 
L 513 -844 
Q 928 -128 1133 580 
Q 1338 1288 1338 2009 
Q 1338 2731 1133 3434 
Q 928 4138 513 4856 
z
" transform="scale(0.015625)"/>
     </defs>
     <use xlink:href="#DejaVuSans-44"/>
     <use xlink:href="#DejaVuSans-72" transform="translate(77.001953 0)"/>
     <use xlink:href="#DejaVuSans-69" transform="translate(118.115234 0)"/>
     <use xlink:href="#DejaVuSans-76" transform="translate(145.898438 0)"/>
     <use xlink:href="#DejaVuSans-65" transform="translate(205.078125 0)"/>
     <use xlink:href="#DejaVuSans-20" transform="translate(266.601562 0)"/>
     <use xlink:href="#DejaVuSans-46" transform="translate(298.388672 0)"/>
     <use xlink:href="#DejaVuSans-52" transform="translate(355.908203 0)"/>
     <use xlink:href="#DejaVuSans-46" transform="translate(425.390625 0)"/>
     <use xlink:href="#DejaVuSans-20" transform="translate(482.910156 0)"/>
     <use xlink:href="#DejaVuSans-28" transform="translate(514.697266 0)"/>
     <use xlink:href="#DejaVuSans-68" transform="translate(553.710938 0)"/>
     <use xlink:href="#DejaVuSans-6f" transform="translate(617.089844 0)"/>
     <use xlink:href="#DejaVuSans-72" transform="translate(678.271484 0)"/>
     <use xlink:href="#DejaVuSans-6e" transform="translate(717.634766 0)"/>
     <use xlink:href="#DejaVuSans-2c" transform="translate(781.013672 0)"/>
     <use xlink:href="#DejaVuSans-20" transform="translate(812.800781 0)"/>
     <use xlink:href="#DejaVuSans-6d" transform="translate(844.587891 0)"/>
     <use xlink:href="#DejaVuSans-6f" transform="translate(942 0)"/>
     <use xlink:href="#DejaVuSans-74" transform="translate(1003.181641 0)"/>
     <use xlink:href="#DejaVuSans-65" transform="translate(1042.390625 0)"/>
     <use xlink:href="#DejaVuSans-75" transform="translate(1103.914062 0)"/>
     <use xlink:href="#DejaVuSans-73" transform="translate(1167.292969 0)"/>
     <use xlink:href="#DejaVuSans-20" transform="translate(1219.392578 0)"/>
     <use xlink:href="#DejaVuSans-69" transform="translate(1251.179688 0)"/>
     <use xlink:href="#DejaVuSans-64" transform="translate(1278.962891 0)"/>
     <use xlink:href="#DejaVuSans-3d" transform="translate(1342.439453 0)"/>
     <use xlink:href="#DejaVuSans-32" transform="translate(1426.228516 0)"/>
     <use xlink:href="#DejaVuSans-29" transform="translate(1489.851562 0)"/>
    </g>
   </g>
   <g id="legend_1">
    <g id="patch_7">
     <path d="M 64.975 232.608 
L 211.295 232.608 
Q 212.895 232.608 212.895 231.008 
L 212.895 195.203 
Q 212.895 193.603 211.295 193.603 
L 64.975 193.603 
Q 63.375 193.603 63.375 195.203 
L 63.375 231.008 
Q 63.375 232.608 64.975 232.608 
z
" style="fill: #ffffff; opacity: 0.8; stroke: #cccccc; stroke-linejoin: miter"/>
    </g>
    <g id="line2d_59">
     <path d="M 66.575 201.443 
L 74.575 201.443 
L 82.575 201.443 
" style="fill: none; stroke-dasharray: 5.55,2.4; stroke-dashoffset: 0; stroke: #000000; stroke-width: 1.5"/>
    </g>
    <g id="text_8">
     <!-- rigid-body $1/(\bar{J}\omega)$, $\bar{J}$=2.290e-03 -->
     <g transform="translate(88.975 204.243) scale(0.08 -0.08)">
      <defs>
       <path id="DejaVuSans-67" d="M 2906 1791 
Q 2906 2416 2648 2759 
Q 2391 3103 1925 3103 
Q 1463 3103 1205 2759 
Q 947 2416 947 1791 
Q 947 1169 1205 825 
Q 1463 481 1925 481 
Q 2391 481 2648 825 
Q 2906 1169 2906 1791 
z
M 3481 434 
Q 3481 -459 3084 -895 
Q 2688 -1331 1869 -1331 
Q 1566 -1331 1297 -1286 
Q 1028 -1241 775 -1147 
L 775 -588 
Q 1028 -725 1275 -790 
Q 1522 -856 1778 -856 
Q 2344 -856 2625 -561 
Q 2906 -266 2906 331 
L 2906 616 
Q 2728 306 2450 153 
Q 2172 0 1784 0 
Q 1141 0 747 490 
Q 353 981 353 1791 
Q 353 2603 747 3093 
Q 1141 3584 1784 3584 
Q 2172 3584 2450 3431 
Q 2728 3278 2906 2969 
L 2906 3500 
L 3481 3500 
L 3481 434 
z
" transform="scale(0.015625)"/>
       <path id="DejaVuSans-2d" d="M 313 2009 
L 1997 2009 
L 1997 1497 
L 313 1497 
L 313 2009 
z
" transform="scale(0.015625)"/>
       <path id="DejaVuSans-62" d="M 3116 1747 
Q 3116 2381 2855 2742 
Q 2594 3103 2138 3103 
Q 1681 3103 1420 2742 
Q 1159 2381 1159 1747 
Q 1159 1113 1420 752 
Q 1681 391 2138 391 
Q 2594 391 2855 752 
Q 3116 1113 3116 1747 
z
M 1159 2969 
Q 1341 3281 1617 3432 
Q 1894 3584 2278 3584 
Q 2916 3584 3314 3078 
Q 3713 2572 3713 1747 
Q 3713 922 3314 415 
Q 2916 -91 2278 -91 
Q 1894 -91 1617 61 
Q 1341 213 1159 525 
L 1159 0 
L 581 0 
L 581 4863 
L 1159 4863 
L 1159 2969 
z
" transform="scale(0.015625)"/>
       <path id="DejaVuSans-79" d="M 2059 -325 
Q 1816 -950 1584 -1140 
Q 1353 -1331 966 -1331 
L 506 -1331 
L 506 -850 
L 844 -850 
Q 1081 -850 1212 -737 
Q 1344 -625 1503 -206 
L 1606 56 
L 191 3500 
L 800 3500 
L 1894 763 
L 2988 3500 
L 3597 3500 
L 2059 -325 
z
" transform="scale(0.015625)"/>
       <path id="DejaVuSans-304" d="M -2518 4769 
L -650 4769 
L -650 4306 
L -2518 4306 
L -2518 4769 
z
" transform="scale(0.015625)"/>
       <path id="DejaVuSans-Oblique-4a" d="M 1069 4666 
L 1703 4666 
L 856 325 
Q 691 -522 298 -901 
Q -94 -1281 -800 -1281 
L -1050 -1281 
L -947 -750 
L -750 -750 
Q -328 -750 -109 -509 
Q 109 -269 225 325 
L 1069 4666 
z
" transform="scale(0.015625)"/>
       <path id="DejaVuSans-Oblique-3c9" d="M 1369 -91 
Q 72 -91 434 1766 
Q 575 2500 1256 3500 
L 1875 3500 
Q 1231 2500 1088 1750 
Q 819 397 1519 397 
Q 2166 397 2478 2078 
L 3009 2078 
Q 2669 388 3316 397 
Q 4013 403 4275 1750 
Q 4419 2500 4169 3500 
L 4788 3500 
Q 5075 2500 4934 1766 
Q 4578 -94 3278 -91 
Q 2428 -88 2503 844 
Q 2194 -91 1369 -91 
z
" transform="scale(0.015625)"/>
       <path id="DejaVuSans-2e" d="M 684 794 
L 1344 794 
L 1344 0 
L 684 0 
L 684 794 
z
" transform="scale(0.015625)"/>
       <path id="DejaVuSans-39" d="M 703 97 
L 703 672 
Q 941 559 1184 500 
Q 1428 441 1663 441 
Q 2288 441 2617 861 
Q 2947 1281 2994 2138 
Q 2813 1869 2534 1725 
Q 2256 1581 1919 1581 
Q 1219 1581 811 2004 
Q 403 2428 403 3163 
Q 403 3881 828 4315 
Q 1253 4750 1959 4750 
Q 2769 4750 3195 4129 
Q 3622 3509 3622 2328 
Q 3622 1225 3098 567 
Q 2575 -91 1691 -91 
Q 1453 -91 1209 -44 
Q 966 3 703 97 
z
M 1959 2075 
Q 2384 2075 2632 2365 
Q 2881 2656 2881 3163 
Q 2881 3666 2632 3958 
Q 2384 4250 1959 4250 
Q 1534 4250 1286 3958 
Q 1038 3666 1038 3163 
Q 1038 2656 1286 2365 
Q 1534 2075 1959 2075 
z
" transform="scale(0.015625)"/>
      </defs>
      <use xlink:href="#DejaVuSans-72" transform="translate(0 0.359375)"/>
      <use xlink:href="#DejaVuSans-69" transform="translate(41.113281 0.359375)"/>
      <use xlink:href="#DejaVuSans-67" transform="translate(68.896484 0.359375)"/>
      <use xlink:href="#DejaVuSans-69" transform="translate(132.373047 0.359375)"/>
      <use xlink:href="#DejaVuSans-64" transform="translate(160.15625 0.359375)"/>
      <use xlink:href="#DejaVuSans-2d" transform="translate(223.632812 0.359375)"/>
      <use xlink:href="#DejaVuSans-62" transform="translate(259.716797 0.359375)"/>
      <use xlink:href="#DejaVuSans-6f" transform="translate(323.193359 0.359375)"/>
      <use xlink:href="#DejaVuSans-64" transform="translate(384.375 0.359375)"/>
      <use xlink:href="#DejaVuSans-79" transform="translate(447.851562 0.359375)"/>
      <use xlink:href="#DejaVuSans-20" transform="translate(507.03125 0.359375)"/>
      <use xlink:href="#DejaVuSans-31" transform="translate(538.818359 0.359375)"/>
      <use xlink:href="#DejaVuSans-2f" transform="translate(602.441406 0.359375)"/>
      <use xlink:href="#DejaVuSans-28" transform="translate(636.132812 0.359375)"/>
      <use xlink:href="#DejaVuSans-304" transform="translate(717.863281 18.484375)"/>
      <use xlink:href="#DejaVuSans-Oblique-4a" transform="translate(675.146484 0.359375)"/>
      <use xlink:href="#DejaVuSans-Oblique-3c9" transform="translate(704.638672 0.359375)"/>
      <use xlink:href="#DejaVuSans-29" transform="translate(788.378906 0.359375)"/>
      <use xlink:href="#DejaVuSans-2c" transform="translate(827.392578 0.359375)"/>
      <use xlink:href="#DejaVuSans-20" transform="translate(859.179688 0.359375)"/>
      <use xlink:href="#DejaVuSans-304" transform="translate(933.683594 18.484375)"/>
      <use xlink:href="#DejaVuSans-Oblique-4a" transform="translate(890.966797 0.359375)"/>
      <use xlink:href="#DejaVuSans-3d" transform="translate(920.458984 0.359375)"/>
      <use xlink:href="#DejaVuSans-32" transform="translate(1004.248047 0.359375)"/>
      <use xlink:href="#DejaVuSans-2e" transform="translate(1067.871094 0.359375)"/>
      <use xlink:href="#DejaVuSans-32" transform="translate(1094.158203 0.359375)"/>
      <use xlink:href="#DejaVuSans-39" transform="translate(1156.03125 0.359375)"/>
      <use xlink:href="#DejaVuSans-30" transform="translate(1219.654297 0.359375)"/>
      <use xlink:href="#DejaVuSans-65" transform="translate(1283.277344 0.359375)"/>
      <use xlink:href="#DejaVuSans-2d" transform="translate(1344.800781 0.359375)"/>
      <use xlink:href="#DejaVuSans-30" transform="translate(1380.884766 0.359375)"/>
      <use xlink:href="#DejaVuSans-33" transform="translate(1444.507812 0.359375)"/>
     </g>
    </g>
    <g id="line2d_60">
     <path d="M 66.575 213.20175 
L 74.575 213.20175 
L 82.575 213.20175 
" style="fill: none; stroke-dasharray: 3.7,1.6; stroke-dashoffset: 0; stroke: #ffa500"/>
    </g>
    <g id="text_9">
     <!-- $\omega_a$ = 9.96 Hz -->
     <g transform="translate(88.975 216.00175) scale(0.08 -0.08)">
      <defs>
       <path id="DejaVuSans-Oblique-61" d="M 3438 1997 
L 3047 0 
L 2472 0 
L 2578 531 
Q 2325 219 2001 64 
Q 1678 -91 1281 -91 
Q 834 -91 548 182 
Q 263 456 263 884 
Q 263 1497 752 1853 
Q 1241 2209 2100 2209 
L 2900 2209 
L 2931 2363 
Q 2938 2388 2941 2417 
Q 2944 2447 2944 2509 
Q 2944 2788 2717 2942 
Q 2491 3097 2081 3097 
Q 1800 3097 1504 3025 
Q 1209 2953 897 2809 
L 997 3341 
Q 1322 3463 1633 3523 
Q 1944 3584 2234 3584 
Q 2853 3584 3176 3315 
Q 3500 3047 3500 2534 
Q 3500 2431 3484 2292 
Q 3469 2153 3438 1997 
z
M 2816 1759 
L 2241 1759 
Q 1534 1759 1195 1570 
Q 856 1381 856 984 
Q 856 709 1029 553 
Q 1203 397 1509 397 
Q 1978 397 2328 733 
Q 2678 1069 2791 1631 
L 2816 1759 
z
" transform="scale(0.015625)"/>
       <path id="DejaVuSans-36" d="M 2113 2584 
Q 1688 2584 1439 2293 
Q 1191 2003 1191 1497 
Q 1191 994 1439 701 
Q 1688 409 2113 409 
Q 2538 409 2786 701 
Q 3034 994 3034 1497 
Q 3034 2003 2786 2293 
Q 2538 2584 2113 2584 
z
M 3366 4563 
L 3366 3988 
Q 3128 4100 2886 4159 
Q 2644 4219 2406 4219 
Q 1781 4219 1451 3797 
Q 1122 3375 1075 2522 
Q 1259 2794 1537 2939 
Q 1816 3084 2150 3084 
Q 2853 3084 3261 2657 
Q 3669 2231 3669 1497 
Q 3669 778 3244 343 
Q 2819 -91 2113 -91 
Q 1303 -91 875 529 
Q 447 1150 447 2328 
Q 447 3434 972 4092 
Q 1497 4750 2381 4750 
Q 2619 4750 2861 4703 
Q 3103 4656 3366 4563 
z
" transform="scale(0.015625)"/>
       <path id="DejaVuSans-48" d="M 628 4666 
L 1259 4666 
L 1259 2753 
L 3553 2753 
L 3553 4666 
L 4184 4666 
L 4184 0 
L 3553 0 
L 3553 2222 
L 1259 2222 
L 1259 0 
L 628 0 
L 628 4666 
z
" transform="scale(0.015625)"/>
       <path id="DejaVuSans-7a" d="M 353 3500 
L 3084 3500 
L 3084 2975 
L 922 459 
L 3084 459 
L 3084 0 
L 275 0 
L 275 525 
L 2438 3041 
L 353 3041 
L 353 3500 
z
" transform="scale(0.015625)"/>
      </defs>
      <use xlink:href="#DejaVuSans-Oblique-3c9" transform="translate(0 0.78125)"/>
      <use xlink:href="#DejaVuSans-Oblique-61" transform="translate(83.740234 -15.625) scale(0.7)"/>
      <use xlink:href="#DejaVuSans-20" transform="translate(129.370117 0.78125)"/>
      <use xlink:href="#DejaVuSans-3d" transform="translate(161.157227 0.78125)"/>
      <use xlink:href="#DejaVuSans-20" transform="translate(244.946289 0.78125)"/>
      <use xlink:href="#DejaVuSans-39" transform="translate(276.733398 0.78125)"/>
      <use xlink:href="#DejaVuSans-2e" transform="translate(340.356445 0.78125)"/>
      <use xlink:href="#DejaVuSans-39" transform="translate(372.143555 0.78125)"/>
      <use xlink:href="#DejaVuSans-36" transform="translate(435.766602 0.78125)"/>
      <use xlink:href="#DejaVuSans-20" transform="translate(499.389648 0.78125)"/>
      <use xlink:href="#DejaVuSans-48" transform="translate(531.176758 0.78125)"/>
      <use xlink:href="#DejaVuSans-7a" transform="translate(606.37207 0.78125)"/>
     </g>
    </g>
    <g id="line2d_61">
     <path d="M 66.575 224.94425 
L 74.575 224.94425 
L 82.575 224.94425 
" style="fill: none; stroke-dasharray: 3.7,1.6; stroke-dashoffset: 0; stroke: #008000"/>
    </g>
    <g id="text_10">
     <!-- $\omega_1$ = 0.50 Hz -->
     <g transform="translate(88.975 227.74425) scale(0.08 -0.08)">
      <defs>
       <path id="DejaVuSans-35" d="M 691 4666 
L 3169 4666 
L 3169 4134 
L 1269 4134 
L 1269 2991 
Q 1406 3038 1543 3061 
Q 1681 3084 1819 3084 
Q 2600 3084 3056 2656 
Q 3513 2228 3513 1497 
Q 3513 744 3044 326 
Q 2575 -91 1722 -91 
Q 1428 -91 1123 -41 
Q 819 9 494 109 
L 494 744 
Q 775 591 1075 516 
Q 1375 441 1709 441 
Q 2250 441 2565 725 
Q 2881 1009 2881 1497 
Q 2881 1984 2565 2268 
Q 2250 2553 1709 2553 
Q 1456 2553 1204 2497 
Q 953 2441 691 2322 
L 691 4666 
z
" transform="scale(0.015625)"/>
      </defs>
      <use xlink:href="#DejaVuSans-Oblique-3c9" transform="translate(0 0.78125)"/>
      <use xlink:href="#DejaVuSans-31" transform="translate(83.740234 -15.625) scale(0.7)"/>
      <use xlink:href="#DejaVuSans-20" transform="translate(131.010742 0.78125)"/>
      <use xlink:href="#DejaVuSans-3d" transform="translate(162.797852 0.78125)"/>
      <use xlink:href="#DejaVuSans-20" transform="translate(246.586914 0.78125)"/>
      <use xlink:href="#DejaVuSans-30" transform="translate(278.374023 0.78125)"/>
      <use xlink:href="#DejaVuSans-2e" transform="translate(341.99707 0.78125)"/>
      <use xlink:href="#DejaVuSans-35" transform="translate(373.78418 0.78125)"/>
      <use xlink:href="#DejaVuSans-30" transform="translate(437.407227 0.78125)"/>
      <use xlink:href="#DejaVuSans-20" transform="translate(501.030273 0.78125)"/>
      <use xlink:href="#DejaVuSans-48" transform="translate(532.817383 0.78125)"/>
      <use xlink:href="#DejaVuSans-7a" transform="translate(608.012695 0.78125)"/>
     </g>
    </g>
   </g>
  </g>
  <g id="axes_2">
   <g id="patch_8">
    <path d="M 59.375 461.356 
L 565.2 461.356 
L 565.2 250.908 
L 59.375 250.908 
z
" style="fill: #ffffff"/>
   </g>
   <g id="matplotlib.axis_3">
    <g id="xtick_23">
     <g id="line2d_62">
      <path d="M 148.944169 461.356 
L 148.944169 250.908 
" clip-path="url(#p992c75402a)" style="fill: none; stroke: #b0b0b0; stroke-width: 0.8; stroke-linecap: square"/>
     </g>
     <g id="line2d_63">
      <g>
       <use xlink:href="#m6171655b54" x="148.944169" y="461.356" style="stroke: #000000; stroke-width: 0.8"/>
      </g>
     </g>
     <g id="text_11">
      <!-- $\mathdefault{10^{0}}$ -->
      <g transform="translate(140.144169 475.954438) scale(0.1 -0.1)">
       <use xlink:href="#DejaVuSans-31" transform="translate(0 0.765625)"/>
       <use xlink:href="#DejaVuSans-30" transform="translate(63.623047 0.765625)"/>
       <use xlink:href="#DejaVuSans-30" transform="translate(128.203125 39.046875) scale(0.7)"/>
      </g>
     </g>
    </g>
    <g id="xtick_24">
     <g id="line2d_64">
      <path d="M 370.108587 461.356 
L 370.108587 250.908 
" clip-path="url(#p992c75402a)" style="fill: none; stroke: #b0b0b0; stroke-width: 0.8; stroke-linecap: square"/>
     </g>
     <g id="line2d_65">
      <g>
       <use xlink:href="#m6171655b54" x="370.108587" y="461.356" style="stroke: #000000; stroke-width: 0.8"/>
      </g>
     </g>
     <g id="text_12">
      <!-- $\mathdefault{10^{1}}$ -->
      <g transform="translate(361.308587 475.954438) scale(0.1 -0.1)">
       <use xlink:href="#DejaVuSans-31" transform="translate(0 0.684375)"/>
       <use xlink:href="#DejaVuSans-30" transform="translate(63.623047 0.684375)"/>
       <use xlink:href="#DejaVuSans-31" transform="translate(128.203125 38.965625) scale(0.7)"/>
      </g>
     </g>
    </g>
    <g id="xtick_25">
     <g id="line2d_66">
      <path d="M 60.933999 461.356 
L 60.933999 250.908 
" clip-path="url(#p992c75402a)" style="fill: none; stroke: #b0b0b0; stroke-width: 0.8; stroke-linecap: square"/>
     </g>
     <g id="line2d_67">
      <g>
       <use xlink:href="#maf10c1dc9c" x="60.933999" y="461.356" style="stroke: #000000; stroke-width: 0.6"/>
      </g>
     </g>
    </g>
    <g id="xtick_26">
     <g id="line2d_68">
      <path d="M 82.367045 461.356 
L 82.367045 250.908 
" clip-path="url(#p992c75402a)" style="fill: none; stroke: #b0b0b0; stroke-width: 0.8; stroke-linecap: square"/>
     </g>
     <g id="line2d_69">
      <g>
       <use xlink:href="#maf10c1dc9c" x="82.367045" y="461.356" style="stroke: #000000; stroke-width: 0.6"/>
      </g>
     </g>
    </g>
    <g id="xtick_27">
     <g id="line2d_70">
      <path d="M 99.87912 461.356 
L 99.87912 250.908 
" clip-path="url(#p992c75402a)" style="fill: none; stroke: #b0b0b0; stroke-width: 0.8; stroke-linecap: square"/>
     </g>
     <g id="line2d_71">
      <g>
       <use xlink:href="#maf10c1dc9c" x="99.87912" y="461.356" style="stroke: #000000; stroke-width: 0.6"/>
      </g>
     </g>
    </g>
    <g id="xtick_28">
     <g id="line2d_72">
      <path d="M 114.685367 461.356 
L 114.685367 250.908 
" clip-path="url(#p992c75402a)" style="fill: none; stroke: #b0b0b0; stroke-width: 0.8; stroke-linecap: square"/>
     </g>
     <g id="line2d_73">
      <g>
       <use xlink:href="#maf10c1dc9c" x="114.685367" y="461.356" style="stroke: #000000; stroke-width: 0.6"/>
      </g>
     </g>
    </g>
    <g id="xtick_29">
     <g id="line2d_74">
      <path d="M 127.511123 461.356 
L 127.511123 250.908 
" clip-path="url(#p992c75402a)" style="fill: none; stroke: #b0b0b0; stroke-width: 0.8; stroke-linecap: square"/>
     </g>
     <g id="line2d_75">
      <g>
       <use xlink:href="#maf10c1dc9c" x="127.511123" y="461.356" style="stroke: #000000; stroke-width: 0.6"/>
      </g>
     </g>
    </g>
    <g id="xtick_30">
     <g id="line2d_76">
      <path d="M 138.82424 461.356 
L 138.82424 250.908 
" clip-path="url(#p992c75402a)" style="fill: none; stroke: #b0b0b0; stroke-width: 0.8; stroke-linecap: square"/>
     </g>
     <g id="line2d_77">
      <g>
       <use xlink:href="#maf10c1dc9c" x="138.82424" y="461.356" style="stroke: #000000; stroke-width: 0.6"/>
      </g>
     </g>
    </g>
    <g id="xtick_31">
     <g id="line2d_78">
      <path d="M 215.521293 461.356 
L 215.521293 250.908 
" clip-path="url(#p992c75402a)" style="fill: none; stroke: #b0b0b0; stroke-width: 0.8; stroke-linecap: square"/>
     </g>
     <g id="line2d_79">
      <g>
       <use xlink:href="#maf10c1dc9c" x="215.521293" y="461.356" style="stroke: #000000; stroke-width: 0.6"/>
      </g>
     </g>
    </g>
    <g id="xtick_32">
     <g id="line2d_80">
      <path d="M 254.466413 461.356 
L 254.466413 250.908 
" clip-path="url(#p992c75402a)" style="fill: none; stroke: #b0b0b0; stroke-width: 0.8; stroke-linecap: square"/>
     </g>
     <g id="line2d_81">
      <g>
       <use xlink:href="#maf10c1dc9c" x="254.466413" y="461.356" style="stroke: #000000; stroke-width: 0.6"/>
      </g>
     </g>
    </g>
    <g id="xtick_33">
     <g id="line2d_82">
      <path d="M 282.098416 461.356 
L 282.098416 250.908 
" clip-path="url(#p992c75402a)" style="fill: none; stroke: #b0b0b0; stroke-width: 0.8; stroke-linecap: square"/>
     </g>
     <g id="line2d_83">
      <g>
       <use xlink:href="#maf10c1dc9c" x="282.098416" y="461.356" style="stroke: #000000; stroke-width: 0.6"/>
      </g>
     </g>
    </g>
    <g id="xtick_34">
     <g id="line2d_84">
      <path d="M 303.531463 461.356 
L 303.531463 250.908 
" clip-path="url(#p992c75402a)" style="fill: none; stroke: #b0b0b0; stroke-width: 0.8; stroke-linecap: square"/>
     </g>
     <g id="line2d_85">
      <g>
       <use xlink:href="#maf10c1dc9c" x="303.531463" y="461.356" style="stroke: #000000; stroke-width: 0.6"/>
      </g>
     </g>
    </g>
    <g id="xtick_35">
     <g id="line2d_86">
      <path d="M 321.043537 461.356 
L 321.043537 250.908 
" clip-path="url(#p992c75402a)" style="fill: none; stroke: #b0b0b0; stroke-width: 0.8; stroke-linecap: square"/>
     </g>
     <g id="line2d_87">
      <g>
       <use xlink:href="#maf10c1dc9c" x="321.043537" y="461.356" style="stroke: #000000; stroke-width: 0.6"/>
      </g>
     </g>
    </g>
    <g id="xtick_36">
     <g id="line2d_88">
      <path d="M 335.849785 461.356 
L 335.849785 250.908 
" clip-path="url(#p992c75402a)" style="fill: none; stroke: #b0b0b0; stroke-width: 0.8; stroke-linecap: square"/>
     </g>
     <g id="line2d_89">
      <g>
       <use xlink:href="#maf10c1dc9c" x="335.849785" y="461.356" style="stroke: #000000; stroke-width: 0.6"/>
      </g>
     </g>
    </g>
    <g id="xtick_37">
     <g id="line2d_90">
      <path d="M 348.67554 461.356 
L 348.67554 250.908 
" clip-path="url(#p992c75402a)" style="fill: none; stroke: #b0b0b0; stroke-width: 0.8; stroke-linecap: square"/>
     </g>
     <g id="line2d_91">
      <g>
       <use xlink:href="#maf10c1dc9c" x="348.67554" y="461.356" style="stroke: #000000; stroke-width: 0.6"/>
      </g>
     </g>
    </g>
    <g id="xtick_38">
     <g id="line2d_92">
      <path d="M 359.988658 461.356 
L 359.988658 250.908 
" clip-path="url(#p992c75402a)" style="fill: none; stroke: #b0b0b0; stroke-width: 0.8; stroke-linecap: square"/>
     </g>
     <g id="line2d_93">
      <g>
       <use xlink:href="#maf10c1dc9c" x="359.988658" y="461.356" style="stroke: #000000; stroke-width: 0.6"/>
      </g>
     </g>
    </g>
    <g id="xtick_39">
     <g id="line2d_94">
      <path d="M 436.68571 461.356 
L 436.68571 250.908 
" clip-path="url(#p992c75402a)" style="fill: none; stroke: #b0b0b0; stroke-width: 0.8; stroke-linecap: square"/>
     </g>
     <g id="line2d_95">
      <g>
       <use xlink:href="#maf10c1dc9c" x="436.68571" y="461.356" style="stroke: #000000; stroke-width: 0.6"/>
      </g>
     </g>
    </g>
    <g id="xtick_40">
     <g id="line2d_96">
      <path d="M 475.630831 461.356 
L 475.630831 250.908 
" clip-path="url(#p992c75402a)" style="fill: none; stroke: #b0b0b0; stroke-width: 0.8; stroke-linecap: square"/>
     </g>
     <g id="line2d_97">
      <g>
       <use xlink:href="#maf10c1dc9c" x="475.630831" y="461.356" style="stroke: #000000; stroke-width: 0.6"/>
      </g>
     </g>
    </g>
    <g id="xtick_41">
     <g id="line2d_98">
      <path d="M 503.262834 461.356 
L 503.262834 250.908 
" clip-path="url(#p992c75402a)" style="fill: none; stroke: #b0b0b0; stroke-width: 0.8; stroke-linecap: square"/>
     </g>
     <g id="line2d_99">
      <g>
       <use xlink:href="#maf10c1dc9c" x="503.262834" y="461.356" style="stroke: #000000; stroke-width: 0.6"/>
      </g>
     </g>
    </g>
    <g id="xtick_42">
     <g id="line2d_100">
      <path d="M 524.69588 461.356 
L 524.69588 250.908 
" clip-path="url(#p992c75402a)" style="fill: none; stroke: #b0b0b0; stroke-width: 0.8; stroke-linecap: square"/>
     </g>
     <g id="line2d_101">
      <g>
       <use xlink:href="#maf10c1dc9c" x="524.69588" y="461.356" style="stroke: #000000; stroke-width: 0.6"/>
      </g>
     </g>
    </g>
    <g id="xtick_43">
     <g id="line2d_102">
      <path d="M 542.207955 461.356 
L 542.207955 250.908 
" clip-path="url(#p992c75402a)" style="fill: none; stroke: #b0b0b0; stroke-width: 0.8; stroke-linecap: square"/>
     </g>
     <g id="line2d_103">
      <g>
       <use xlink:href="#maf10c1dc9c" x="542.207955" y="461.356" style="stroke: #000000; stroke-width: 0.6"/>
      </g>
     </g>
    </g>
    <g id="xtick_44">
     <g id="line2d_104">
      <path d="M 557.014202 461.356 
L 557.014202 250.908 
" clip-path="url(#p992c75402a)" style="fill: none; stroke: #b0b0b0; stroke-width: 0.8; stroke-linecap: square"/>
     </g>
     <g id="line2d_105">
      <g>
       <use xlink:href="#maf10c1dc9c" x="557.014202" y="461.356" style="stroke: #000000; stroke-width: 0.6"/>
      </g>
     </g>
    </g>
    <g id="text_13">
     <!-- frequency  [Hz] -->
     <g transform="translate(273.746875 489.632563) scale(0.1 -0.1)">
      <defs>
       <path id="DejaVuSans-66" d="M 2375 4863 
L 2375 4384 
L 1825 4384 
Q 1516 4384 1395 4259 
Q 1275 4134 1275 3809 
L 1275 3500 
L 2222 3500 
L 2222 3053 
L 1275 3053 
L 1275 0 
L 697 0 
L 697 3053 
L 147 3053 
L 147 3500 
L 697 3500 
L 697 3744 
Q 697 4328 969 4595 
Q 1241 4863 1831 4863 
L 2375 4863 
z
" transform="scale(0.015625)"/>
       <path id="DejaVuSans-71" d="M 947 1747 
Q 947 1113 1208 752 
Q 1469 391 1925 391 
Q 2381 391 2643 752 
Q 2906 1113 2906 1747 
Q 2906 2381 2643 2742 
Q 2381 3103 1925 3103 
Q 1469 3103 1208 2742 
Q 947 2381 947 1747 
z
M 2906 525 
Q 2725 213 2448 61 
Q 2172 -91 1784 -91 
Q 1150 -91 751 415 
Q 353 922 353 1747 
Q 353 2572 751 3078 
Q 1150 3584 1784 3584 
Q 2172 3584 2448 3432 
Q 2725 3281 2906 2969 
L 2906 3500 
L 3481 3500 
L 3481 -1331 
L 2906 -1331 
L 2906 525 
z
" transform="scale(0.015625)"/>
       <path id="DejaVuSans-63" d="M 3122 3366 
L 3122 2828 
Q 2878 2963 2633 3030 
Q 2388 3097 2138 3097 
Q 1578 3097 1268 2742 
Q 959 2388 959 1747 
Q 959 1106 1268 751 
Q 1578 397 2138 397 
Q 2388 397 2633 464 
Q 2878 531 3122 666 
L 3122 134 
Q 2881 22 2623 -34 
Q 2366 -91 2075 -91 
Q 1284 -91 818 406 
Q 353 903 353 1747 
Q 353 2603 823 3093 
Q 1294 3584 2113 3584 
Q 2378 3584 2631 3529 
Q 2884 3475 3122 3366 
z
" transform="scale(0.015625)"/>
      </defs>
      <use xlink:href="#DejaVuSans-66"/>
      <use xlink:href="#DejaVuSans-72" transform="translate(35.205078 0)"/>
      <use xlink:href="#DejaVuSans-65" transform="translate(74.068359 0)"/>
      <use xlink:href="#DejaVuSans-71" transform="translate(135.591797 0)"/>
      <use xlink:href="#DejaVuSans-75" transform="translate(199.068359 0)"/>
      <use xlink:href="#DejaVuSans-65" transform="translate(262.447266 0)"/>
      <use xlink:href="#DejaVuSans-6e" transform="translate(323.970703 0)"/>
      <use xlink:href="#DejaVuSans-63" transform="translate(387.349609 0)"/>
      <use xlink:href="#DejaVuSans-79" transform="translate(442.330078 0)"/>
      <use xlink:href="#DejaVuSans-20" transform="translate(501.509766 0)"/>
      <use xlink:href="#DejaVuSans-20" transform="translate(533.296875 0)"/>
      <use xlink:href="#DejaVuSans-5b" transform="translate(565.083984 0)"/>
      <use xlink:href="#DejaVuSans-48" transform="translate(604.097656 0)"/>
      <use xlink:href="#DejaVuSans-7a" transform="translate(679.292969 0)"/>
      <use xlink:href="#DejaVuSans-5d" transform="translate(731.783203 0)"/>
     </g>
    </g>
   </g>
   <g id="matplotlib.axis_4">
    <g id="ytick_6">
     <g id="line2d_106">
      <path d="M 59.375 440.961614 
L 565.2 440.961614 
" clip-path="url(#p992c75402a)" style="fill: none; stroke: #b0b0b0; stroke-width: 0.8; stroke-linecap: square"/>
     </g>
     <g id="line2d_107">
      <g>
       <use xlink:href="#m7cf70f0dc0" x="59.375" y="440.961614" style="stroke: #000000; stroke-width: 0.8"/>
      </g>
     </g>
     <g id="text_14">
      <!-- −150 -->
      <g transform="translate(24.907812 444.760833) scale(0.1 -0.1)">
       <defs>
        <path id="DejaVuSans-2212" d="M 678 2272 
L 4684 2272 
L 4684 1741 
L 678 1741 
L 678 2272 
z
" transform="scale(0.015625)"/>
       </defs>
       <use xlink:href="#DejaVuSans-2212"/>
       <use xlink:href="#DejaVuSans-31" transform="translate(83.789062 0)"/>
       <use xlink:href="#DejaVuSans-35" transform="translate(147.412109 0)"/>
       <use xlink:href="#DejaVuSans-30" transform="translate(211.035156 0)"/>
      </g>
     </g>
    </g>
    <g id="ytick_7">
     <g id="line2d_108">
      <path d="M 59.375 413.611899 
L 565.2 413.611899 
" clip-path="url(#p992c75402a)" style="fill: none; stroke: #b0b0b0; stroke-width: 0.8; stroke-linecap: square"/>
     </g>
     <g id="line2d_109">
      <g>
       <use xlink:href="#m7cf70f0dc0" x="59.375" y="413.611899" style="stroke: #000000; stroke-width: 0.8"/>
      </g>
     </g>
     <g id="text_15">
      <!-- −100 -->
      <g transform="translate(24.907812 417.411118) scale(0.1 -0.1)">
       <use xlink:href="#DejaVuSans-2212"/>
       <use xlink:href="#DejaVuSans-31" transform="translate(83.789062 0)"/>
       <use xlink:href="#DejaVuSans-30" transform="translate(147.412109 0)"/>
       <use xlink:href="#DejaVuSans-30" transform="translate(211.035156 0)"/>
      </g>
     </g>
    </g>
    <g id="ytick_8">
     <g id="line2d_110">
      <path d="M 59.375 386.262184 
L 565.2 386.262184 
" clip-path="url(#p992c75402a)" style="fill: none; stroke: #b0b0b0; stroke-width: 0.8; stroke-linecap: square"/>
     </g>
     <g id="line2d_111">
      <g>
       <use xlink:href="#m7cf70f0dc0" x="59.375" y="386.262184" style="stroke: #000000; stroke-width: 0.8"/>
      </g>
     </g>
     <g id="text_16">
      <!-- −50 -->
      <g transform="translate(31.270312 390.061403) scale(0.1 -0.1)">
       <use xlink:href="#DejaVuSans-2212"/>
       <use xlink:href="#DejaVuSans-35" transform="translate(83.789062 0)"/>
       <use xlink:href="#DejaVuSans-30" transform="translate(147.412109 0)"/>
      </g>
     </g>
    </g>
    <g id="ytick_9">
     <g id="line2d_112">
      <path d="M 59.375 358.912469 
L 565.2 358.912469 
" clip-path="url(#p992c75402a)" style="fill: none; stroke: #b0b0b0; stroke-width: 0.8; stroke-linecap: square"/>
     </g>
     <g id="line2d_113">
      <g>
       <use xlink:href="#m7cf70f0dc0" x="59.375" y="358.912469" style="stroke: #000000; stroke-width: 0.8"/>
      </g>
     </g>
     <g id="text_17">
      <!-- 0 -->
      <g transform="translate(46.0125 362.711688) scale(0.1 -0.1)">
       <use xlink:href="#DejaVuSans-30"/>
      </g>
     </g>
    </g>
    <g id="ytick_10">
     <g id="line2d_114">
      <path d="M 59.375 331.562754 
L 565.2 331.562754 
" clip-path="url(#p992c75402a)" style="fill: none; stroke: #b0b0b0; stroke-width: 0.8; stroke-linecap: square"/>
     </g>
     <g id="line2d_115">
      <g>
       <use xlink:href="#m7cf70f0dc0" x="59.375" y="331.562754" style="stroke: #000000; stroke-width: 0.8"/>
      </g>
     </g>
     <g id="text_18">
      <!-- 50 -->
      <g transform="translate(39.65 335.361973) scale(0.1 -0.1)">
       <use xlink:href="#DejaVuSans-35"/>
       <use xlink:href="#DejaVuSans-30" transform="translate(63.623047 0)"/>
      </g>
     </g>
    </g>
    <g id="ytick_11">
     <g id="line2d_116">
      <path d="M 59.375 304.213039 
L 565.2 304.213039 
" clip-path="url(#p992c75402a)" style="fill: none; stroke: #b0b0b0; stroke-width: 0.8; stroke-linecap: square"/>
     </g>
     <g id="line2d_117">
      <g>
       <use xlink:href="#m7cf70f0dc0" x="59.375" y="304.213039" style="stroke: #000000; stroke-width: 0.8"/>
      </g>
     </g>
     <g id="text_19">
      <!-- 100 -->
      <g transform="translate(33.2875 308.012258) scale(0.1 -0.1)">
       <use xlink:href="#DejaVuSans-31"/>
       <use xlink:href="#DejaVuSans-30" transform="translate(63.623047 0)"/>
       <use xlink:href="#DejaVuSans-30" transform="translate(127.246094 0)"/>
      </g>
     </g>
    </g>
    <g id="ytick_12">
     <g id="line2d_118">
      <path d="M 59.375 276.863324 
L 565.2 276.863324 
" clip-path="url(#p992c75402a)" style="fill: none; stroke: #b0b0b0; stroke-width: 0.8; stroke-linecap: square"/>
     </g>
     <g id="line2d_119">
      <g>
       <use xlink:href="#m7cf70f0dc0" x="59.375" y="276.863324" style="stroke: #000000; stroke-width: 0.8"/>
      </g>
     </g>
     <g id="text_20">
      <!-- 150 -->
      <g transform="translate(33.2875 280.662543) scale(0.1 -0.1)">
       <use xlink:href="#DejaVuSans-31"/>
       <use xlink:href="#DejaVuSans-35" transform="translate(63.623047 0)"/>
       <use xlink:href="#DejaVuSans-30" transform="translate(127.246094 0)"/>
      </g>
     </g>
    </g>
    <g id="text_21">
     <!-- phase  [deg] -->
     <g transform="translate(18.828125 387.724969) rotate(-90) scale(0.1 -0.1)">
      <defs>
       <path id="DejaVuSans-70" d="M 1159 525 
L 1159 -1331 
L 581 -1331 
L 581 3500 
L 1159 3500 
L 1159 2969 
Q 1341 3281 1617 3432 
Q 1894 3584 2278 3584 
Q 2916 3584 3314 3078 
Q 3713 2572 3713 1747 
Q 3713 922 3314 415 
Q 2916 -91 2278 -91 
Q 1894 -91 1617 61 
Q 1341 213 1159 525 
z
M 3116 1747 
Q 3116 2381 2855 2742 
Q 2594 3103 2138 3103 
Q 1681 3103 1420 2742 
Q 1159 2381 1159 1747 
Q 1159 1113 1420 752 
Q 1681 391 2138 391 
Q 2594 391 2855 752 
Q 3116 1113 3116 1747 
z
" transform="scale(0.015625)"/>
       <path id="DejaVuSans-61" d="M 2194 1759 
Q 1497 1759 1228 1600 
Q 959 1441 959 1056 
Q 959 750 1161 570 
Q 1363 391 1709 391 
Q 2188 391 2477 730 
Q 2766 1069 2766 1631 
L 2766 1759 
L 2194 1759 
z
M 3341 1997 
L 3341 0 
L 2766 0 
L 2766 531 
Q 2569 213 2275 61 
Q 1981 -91 1556 -91 
Q 1019 -91 701 211 
Q 384 513 384 1019 
Q 384 1609 779 1909 
Q 1175 2209 1959 2209 
L 2766 2209 
L 2766 2266 
Q 2766 2663 2505 2880 
Q 2244 3097 1772 3097 
Q 1472 3097 1187 3025 
Q 903 2953 641 2809 
L 641 3341 
Q 956 3463 1253 3523 
Q 1550 3584 1831 3584 
Q 2591 3584 2966 3190 
Q 3341 2797 3341 1997 
z
" transform="scale(0.015625)"/>
      </defs>
      <use xlink:href="#DejaVuSans-70"/>
      <use xlink:href="#DejaVuSans-68" transform="translate(63.476562 0)"/>
      <use xlink:href="#DejaVuSans-61" transform="translate(126.855469 0)"/>
      <use xlink:href="#DejaVuSans-73" transform="translate(188.134766 0)"/>
      <use xlink:href="#DejaVuSans-65" transform="translate(240.234375 0)"/>
      <use xlink:href="#DejaVuSans-20" transform="translate(301.757812 0)"/>
      <use xlink:href="#DejaVuSans-20" transform="translate(333.544922 0)"/>
      <use xlink:href="#DejaVuSans-5b" transform="translate(365.332031 0)"/>
      <use xlink:href="#DejaVuSans-64" transform="translate(404.345703 0)"/>
      <use xlink:href="#DejaVuSans-65" transform="translate(467.822266 0)"/>
      <use xlink:href="#DejaVuSans-67" transform="translate(529.345703 0)"/>
      <use xlink:href="#DejaVuSans-5d" transform="translate(592.822266 0)"/>
     </g>
    </g>
   </g>
   <g id="line2d_120">
    <path d="M 82.367045 271.940341 
L 101.527083 268.748676 
L 120.687121 269.411214 
L 139.847159 273.471832 
L 159.007197 445.350109 
L 178.167235 450.784323 
L 197.327273 270.175871 
L 216.487311 268.278254 
L 235.647348 273.171069 
L 254.807386 268.389155 
L 273.967424 260.473818 
L 293.127462 451.790182 
L 312.2875 265.937086 
L 331.447538 448.840727 
L 350.607576 280.87567 
L 369.767614 335.664143 
L 388.927652 339.393807 
L 408.087689 336.097792 
L 427.247727 335.425263 
L 446.407765 331.295786 
L 465.567803 322.645166 
L 484.727841 316.280467 
L 503.887879 308.73259 
L 523.047917 291.1507 
L 542.207955 429.323731 
" clip-path="url(#p992c75402a)" style="fill: none; stroke: #1f77b4; stroke-width: 1.5; stroke-linecap: square"/>
    <g clip-path="url(#p992c75402a)">
     <use xlink:href="#m291aca3598" x="82.367045" y="271.940341" style="fill: #1f77b4; stroke: #1f77b4"/>
     <use xlink:href="#m291aca3598" x="101.527083" y="268.748676" style="fill: #1f77b4; stroke: #1f77b4"/>
     <use xlink:href="#m291aca3598" x="120.687121" y="269.411214" style="fill: #1f77b4; stroke: #1f77b4"/>
     <use xlink:href="#m291aca3598" x="139.847159" y="273.471832" style="fill: #1f77b4; stroke: #1f77b4"/>
     <use xlink:href="#m291aca3598" x="159.007197" y="445.350109" style="fill: #1f77b4; stroke: #1f77b4"/>
     <use xlink:href="#m291aca3598" x="178.167235" y="450.784323" style="fill: #1f77b4; stroke: #1f77b4"/>
     <use xlink:href="#m291aca3598" x="197.327273" y="270.175871" style="fill: #1f77b4; stroke: #1f77b4"/>
     <use xlink:href="#m291aca3598" x="216.487311" y="268.278254" style="fill: #1f77b4; stroke: #1f77b4"/>
     <use xlink:href="#m291aca3598" x="235.647348" y="273.171069" style="fill: #1f77b4; stroke: #1f77b4"/>
     <use xlink:href="#m291aca3598" x="254.807386" y="268.389155" style="fill: #1f77b4; stroke: #1f77b4"/>
     <use xlink:href="#m291aca3598" x="273.967424" y="260.473818" style="fill: #1f77b4; stroke: #1f77b4"/>
     <use xlink:href="#m291aca3598" x="293.127462" y="451.790182" style="fill: #1f77b4; stroke: #1f77b4"/>
     <use xlink:href="#m291aca3598" x="312.2875" y="265.937086" style="fill: #1f77b4; stroke: #1f77b4"/>
     <use xlink:href="#m291aca3598" x="331.447538" y="448.840727" style="fill: #1f77b4; stroke: #1f77b4"/>
     <use xlink:href="#m291aca3598" x="350.607576" y="280.87567" style="fill: #1f77b4; stroke: #1f77b4"/>
     <use xlink:href="#m291aca3598" x="369.767614" y="335.664143" style="fill: #1f77b4; stroke: #1f77b4"/>
     <use xlink:href="#m291aca3598" x="388.927652" y="339.393807" style="fill: #1f77b4; stroke: #1f77b4"/>
     <use xlink:href="#m291aca3598" x="408.087689" y="336.097792" style="fill: #1f77b4; stroke: #1f77b4"/>
     <use xlink:href="#m291aca3598" x="427.247727" y="335.425263" style="fill: #1f77b4; stroke: #1f77b4"/>
     <use xlink:href="#m291aca3598" x="446.407765" y="331.295786" style="fill: #1f77b4; stroke: #1f77b4"/>
     <use xlink:href="#m291aca3598" x="465.567803" y="322.645166" style="fill: #1f77b4; stroke: #1f77b4"/>
     <use xlink:href="#m291aca3598" x="484.727841" y="316.280467" style="fill: #1f77b4; stroke: #1f77b4"/>
     <use xlink:href="#m291aca3598" x="503.887879" y="308.73259" style="fill: #1f77b4; stroke: #1f77b4"/>
     <use xlink:href="#m291aca3598" x="523.047917" y="291.1507" style="fill: #1f77b4; stroke: #1f77b4"/>
     <use xlink:href="#m291aca3598" x="542.207955" y="429.323731" style="fill: #1f77b4; stroke: #1f77b4"/>
    </g>
   </g>
   <g id="line2d_121">
    <path d="M 369.767614 461.356 
L 369.767614 250.908 
" clip-path="url(#p992c75402a)" style="fill: none; stroke-dasharray: 3.7,1.6; stroke-dashoffset: 0; stroke: #ffa500"/>
   </g>
   <g id="line2d_122">
    <path d="M 82.367045 461.356 
L 82.367045 250.908 
" clip-path="url(#p992c75402a)" style="fill: none; stroke-dasharray: 3.7,1.6; stroke-dashoffset: 0; stroke: #008000"/>
   </g>
   <g id="patch_9">
    <path d="M 59.375 461.356 
L 59.375 250.908 
" style="fill: none; stroke: #000000; stroke-width: 0.8; stroke-linejoin: miter; stroke-linecap: square"/>
   </g>
   <g id="patch_10">
    <path d="M 565.2 461.356 
L 565.2 250.908 
" style="fill: none; stroke: #000000; stroke-width: 0.8; stroke-linejoin: miter; stroke-linecap: square"/>
   </g>
   <g id="patch_11">
    <path d="M 59.375 461.356 
L 565.2 461.356 
" style="fill: none; stroke: #000000; stroke-width: 0.8; stroke-linejoin: miter; stroke-linecap: square"/>
   </g>
   <g id="patch_12">
    <path d="M 59.375 250.908 
L 565.2 250.908 
" style="fill: none; stroke: #000000; stroke-width: 0.8; stroke-linejoin: miter; stroke-linecap: square"/>
   </g>
  </g>
 </g>
 <defs>
  <clipPath id="p89279f3dad">
   <rect x="59.375" y="26.16" width="505.825" height="210.448"/>
  </clipPath>
  <clipPath id="p992c75402a">
   <rect x="59.375" y="250.908" width="505.825" height="210.448"/>
  </clipPath>
 </defs>
</svg>
