<?xml version="1.0" encoding="utf-8" standalone="no"?>
<!DOCTYPE svg PUBLIC "-//W3C//DTD SVG 1.1//EN"
  "http://www.w3.org/Graphics/SVG/1.1/DTD/svg11.dtd">
<svg xmlns:xlink="http://www.w3.org/1999/xlink" width="504pt" height="540pt" viewBox="0 0 504 540" xmlns="http://www.w3.org/2000/svg" version="1.1">
 <metadata>
  <rdf:RDF xmlns:dc="http://purl.org/dc/elements/1.1/" xmlns:cc="http://creativecommons.org/ns#" xmlns:rdf="http://www.w3.org/1999/02/22-rdf-syntax-ns#">
   <cc:Work>
    <dc:type rdf:resource="http://purl.org/dc/dcmitype/StillImage"/>
    <dc:date>2026-06-20T13:15:38.966525</dc:date>
    <dc:format>image/svg+xml</dc:format>
    <dc:creator>
     <cc:Agent>
      <dc:title>Matplotlib v3.10.9, https://matplotlib.org/</dc:title>
     </cc:Agent>
    </dc:creator>
   </cc:Work>
  </rdf:RDF>
 </metadata>
 <defs>
  <style type="text/css">*{stroke-linejoin: round; stroke-linecap: butt}</style>
 </defs>
 <g id="figure_1">
  <g id="patch_1">
   <path d="M 0 540 
L 504 540 
L 504 0 
L 0 0 
z
" style="fill: #ffffff"/>
  </g>
  <g id="axes_1">
   <g id="patch_2">
    <path d="M 59.375 253.888 
L 493.2 253.888 
L 493.2 24.72 
L 59.375 24.72 
z
" style="fill: #ffffff"/>
   </g>
   <g id="matplotlib.axis_1">
    <g id="xtick_1">
     <g id="line2d_1">
      <path d="M 79.094318 253.888 
L 79.094318 24.72 
" clip-path="url(#p6d39f9b75f)" style="fill: none; stroke: #b0b0b0; stroke-width: 0.8; stroke-linecap: square"/>
     </g>
     <g id="line2d_2">
      <defs>
       <path id="m911a2d9224" d="M 0 0 
L 0 3.5 
" style="stroke: #000000; stroke-width: 0.8"/>
      </defs>
      <g>
       <use xlink:href="#m911a2d9224" x="79.094318" y="253.888" style="stroke: #000000; stroke-width: 0.8"/>
      </g>
     </g>
    </g>
    <g id="xtick_2">
     <g id="line2d_3">
      <path d="M 208.767269 253.888 
L 208.767269 24.72 
" clip-path="url(#p6d39f9b75f)" style="fill: none; stroke: #b0b0b0; stroke-width: 0.8; stroke-linecap: square"/>
     </g>
     <g id="line2d_4">
      <g>
       <use xlink:href="#m911a2d9224" x="208.767269" y="253.888" style="stroke: #000000; stroke-width: 0.8"/>
      </g>
     </g>
    </g>
    <g id="xtick_3">
     <g id="line2d_5">
      <path d="M 338.44022 253.888 
L 338.44022 24.72 
" clip-path="url(#p6d39f9b75f)" style="fill: none; stroke: #b0b0b0; stroke-width: 0.8; stroke-linecap: square"/>
     </g>
     <g id="line2d_6">
      <g>
       <use xlink:href="#m911a2d9224" x="338.44022" y="253.888" style="stroke: #000000; stroke-width: 0.8"/>
      </g>
     </g>
    </g>
    <g id="xtick_4">
     <g id="line2d_7">
      <path d="M 468.11317 253.888 
L 468.11317 24.72 
" clip-path="url(#p6d39f9b75f)" style="fill: none; stroke: #b0b0b0; stroke-width: 0.8; stroke-linecap: square"/>
     </g>
     <g id="line2d_8">
      <g>
       <use xlink:href="#m911a2d9224" x="468.11317" y="253.888" style="stroke: #000000; stroke-width: 0.8"/>
      </g>
     </g>
    </g>
    <g id="xtick_5">
     <g id="line2d_9">
      <path d="M 66.527711 253.888 
L 66.527711 24.72 
" clip-path="url(#p6d39f9b75f)" style="fill: none; stroke: #b0b0b0; stroke-width: 0.8; stroke-linecap: square"/>
     </g>
     <g id="line2d_10">
      <defs>
       <path id="m9a15792856" d="M 0 0 
L 0 2 
" style="stroke: #000000; stroke-width: 0.6"/>
      </defs>
      <g>
       <use xlink:href="#m9a15792856" x="66.527711" y="253.888" style="stroke: #000000; stroke-width: 0.6"/>
      </g>
     </g>
    </g>
    <g id="xtick_6">
     <g id="line2d_11">
      <path d="M 73.160809 253.888 
L 73.160809 24.72 
" clip-path="url(#p6d39f9b75f)" style="fill: none; stroke: #b0b0b0; stroke-width: 0.8; stroke-linecap: square"/>
     </g>
     <g id="line2d_12">
      <g>
       <use xlink:href="#m9a15792856" x="73.160809" y="253.888" style="stroke: #000000; stroke-width: 0.6"/>
      </g>
     </g>
    </g>
    <g id="xtick_7">
     <g id="line2d_13">
      <path d="M 118.129766 253.888 
L 118.129766 24.72 
" clip-path="url(#p6d39f9b75f)" style="fill: none; stroke: #b0b0b0; stroke-width: 0.8; stroke-linecap: square"/>
     </g>
     <g id="line2d_14">
      <g>
       <use xlink:href="#m9a15792856" x="118.129766" y="253.888" style="stroke: #000000; stroke-width: 0.6"/>
      </g>
     </g>
    </g>
    <g id="xtick_8">
     <g id="line2d_15">
      <path d="M 140.964039 253.888 
L 140.964039 24.72 
" clip-path="url(#p6d39f9b75f)" style="fill: none; stroke: #b0b0b0; stroke-width: 0.8; stroke-linecap: square"/>
     </g>
     <g id="line2d_16">
      <g>
       <use xlink:href="#m9a15792856" x="140.964039" y="253.888" style="stroke: #000000; stroke-width: 0.6"/>
      </g>
     </g>
    </g>
    <g id="xtick_9">
     <g id="line2d_17">
      <path d="M 157.165214 253.888 
L 157.165214 24.72 
" clip-path="url(#p6d39f9b75f)" style="fill: none; stroke: #b0b0b0; stroke-width: 0.8; stroke-linecap: square"/>
     </g>
     <g id="line2d_18">
      <g>
       <use xlink:href="#m9a15792856" x="157.165214" y="253.888" style="stroke: #000000; stroke-width: 0.6"/>
      </g>
     </g>
    </g>
    <g id="xtick_10">
     <g id="line2d_19">
      <path d="M 169.731821 253.888 
L 169.731821 24.72 
" clip-path="url(#p6d39f9b75f)" style="fill: none; stroke: #b0b0b0; stroke-width: 0.8; stroke-linecap: square"/>
     </g>
     <g id="line2d_20">
      <g>
       <use xlink:href="#m9a15792856" x="169.731821" y="253.888" style="stroke: #000000; stroke-width: 0.6"/>
      </g>
     </g>
    </g>
    <g id="xtick_11">
     <g id="line2d_21">
      <path d="M 179.999487 253.888 
L 179.999487 24.72 
" clip-path="url(#p6d39f9b75f)" style="fill: none; stroke: #b0b0b0; stroke-width: 0.8; stroke-linecap: square"/>
     </g>
     <g id="line2d_22">
      <g>
       <use xlink:href="#m9a15792856" x="179.999487" y="253.888" style="stroke: #000000; stroke-width: 0.6"/>
      </g>
     </g>
    </g>
    <g id="xtick_12">
     <g id="line2d_23">
      <path d="M 188.680675 253.888 
L 188.680675 24.72 
" clip-path="url(#p6d39f9b75f)" style="fill: none; stroke: #b0b0b0; stroke-width: 0.8; stroke-linecap: square"/>
     </g>
     <g id="line2d_24">
      <g>
       <use xlink:href="#m9a15792856" x="188.680675" y="253.888" style="stroke: #000000; stroke-width: 0.6"/>
      </g>
     </g>
    </g>
    <g id="xtick_13">
     <g id="line2d_25">
      <path d="M 196.200662 253.888 
L 196.200662 24.72 
" clip-path="url(#p6d39f9b75f)" style="fill: none; stroke: #b0b0b0; stroke-width: 0.8; stroke-linecap: square"/>
     </g>
     <g id="line2d_26">
      <g>
       <use xlink:href="#m9a15792856" x="196.200662" y="253.888" style="stroke: #000000; stroke-width: 0.6"/>
      </g>
     </g>
    </g>
    <g id="xtick_14">
     <g id="line2d_27">
      <path d="M 202.83376 253.888 
L 202.83376 24.72 
" clip-path="url(#p6d39f9b75f)" style="fill: none; stroke: #b0b0b0; stroke-width: 0.8; stroke-linecap: square"/>
     </g>
     <g id="line2d_28">
      <g>
       <use xlink:href="#m9a15792856" x="202.83376" y="253.888" style="stroke: #000000; stroke-width: 0.6"/>
      </g>
     </g>
    </g>
    <g id="xtick_15">
     <g id="line2d_29">
      <path d="M 247.802717 253.888 
L 247.802717 24.72 
" clip-path="url(#p6d39f9b75f)" style="fill: none; stroke: #b0b0b0; stroke-width: 0.8; stroke-linecap: square"/>
     </g>
     <g id="line2d_30">
      <g>
       <use xlink:href="#m9a15792856" x="247.802717" y="253.888" style="stroke: #000000; stroke-width: 0.6"/>
      </g>
     </g>
    </g>
    <g id="xtick_16">
     <g id="line2d_31">
      <path d="M 270.63699 253.888 
L 270.63699 24.72 
" clip-path="url(#p6d39f9b75f)" style="fill: none; stroke: #b0b0b0; stroke-width: 0.8; stroke-linecap: square"/>
     </g>
     <g id="line2d_32">
      <g>
       <use xlink:href="#m9a15792856" x="270.63699" y="253.888" style="stroke: #000000; stroke-width: 0.6"/>
      </g>
     </g>
    </g>
    <g id="xtick_17">
     <g id="line2d_33">
      <path d="M 286.838164 253.888 
L 286.838164 24.72 
" clip-path="url(#p6d39f9b75f)" style="fill: none; stroke: #b0b0b0; stroke-width: 0.8; stroke-linecap: square"/>
     </g>
     <g id="line2d_34">
      <g>
       <use xlink:href="#m9a15792856" x="286.838164" y="253.888" style="stroke: #000000; stroke-width: 0.6"/>
      </g>
     </g>
    </g>
    <g id="xtick_18">
     <g id="line2d_35">
      <path d="M 299.404772 253.888 
L 299.404772 24.72 
" clip-path="url(#p6d39f9b75f)" style="fill: none; stroke: #b0b0b0; stroke-width: 0.8; stroke-linecap: square"/>
     </g>
     <g id="line2d_36">
      <g>
       <use xlink:href="#m9a15792856" x="299.404772" y="253.888" style="stroke: #000000; stroke-width: 0.6"/>
      </g>
     </g>
    </g>
    <g id="xtick_19">
     <g id="line2d_37">
      <path d="M 309.672438 253.888 
L 309.672438 24.72 
" clip-path="url(#p6d39f9b75f)" style="fill: none; stroke: #b0b0b0; stroke-width: 0.8; stroke-linecap: square"/>
     </g>
     <g id="line2d_38">
      <g>
       <use xlink:href="#m9a15792856" x="309.672438" y="253.888" style="stroke: #000000; stroke-width: 0.6"/>
      </g>
     </g>
    </g>
    <g id="xtick_20">
     <g id="line2d_39">
      <path d="M 318.353625 253.888 
L 318.353625 24.72 
" clip-path="url(#p6d39f9b75f)" style="fill: none; stroke: #b0b0b0; stroke-width: 0.8; stroke-linecap: square"/>
     </g>
     <g id="line2d_40">
      <g>
       <use xlink:href="#m9a15792856" x="318.353625" y="253.888" style="stroke: #000000; stroke-width: 0.6"/>
      </g>
     </g>
    </g>
    <g id="xtick_21">
     <g id="line2d_41">
      <path d="M 325.873612 253.888 
L 325.873612 24.72 
" clip-path="url(#p6d39f9b75f)" style="fill: none; stroke: #b0b0b0; stroke-width: 0.8; stroke-linecap: square"/>
     </g>
     <g id="line2d_42">
      <g>
       <use xlink:href="#m9a15792856" x="325.873612" y="253.888" style="stroke: #000000; stroke-width: 0.6"/>
      </g>
     </g>
    </g>
    <g id="xtick_22">
     <g id="line2d_43">
      <path d="M 332.506711 253.888 
L 332.506711 24.72 
" clip-path="url(#p6d39f9b75f)" style="fill: none; stroke: #b0b0b0; stroke-width: 0.8; stroke-linecap: square"/>
     </g>
     <g id="line2d_44">
      <g>
       <use xlink:href="#m9a15792856" x="332.506711" y="253.888" style="stroke: #000000; stroke-width: 0.6"/>
      </g>
     </g>
    </g>
    <g id="xtick_23">
     <g id="line2d_45">
      <path d="M 377.475667 253.888 
L 377.475667 24.72 
" clip-path="url(#p6d39f9b75f)" style="fill: none; stroke: #b0b0b0; stroke-width: 0.8; stroke-linecap: square"/>
     </g>
     <g id="line2d_46">
      <g>
       <use xlink:href="#m9a15792856" x="377.475667" y="253.888" style="stroke: #000000; stroke-width: 0.6"/>
      </g>
     </g>
    </g>
    <g id="xtick_24">
     <g id="line2d_47">
      <path d="M 400.30994 253.888 
L 400.30994 24.72 
" clip-path="url(#p6d39f9b75f)" style="fill: none; stroke: #b0b0b0; stroke-width: 0.8; stroke-linecap: square"/>
     </g>
     <g id="line2d_48">
      <g>
       <use xlink:href="#m9a15792856" x="400.30994" y="253.888" style="stroke: #000000; stroke-width: 0.6"/>
      </g>
     </g>
    </g>
    <g id="xtick_25">
     <g id="line2d_49">
      <path d="M 416.511115 253.888 
L 416.511115 24.72 
" clip-path="url(#p6d39f9b75f)" style="fill: none; stroke: #b0b0b0; stroke-width: 0.8; stroke-linecap: square"/>
     </g>
     <g id="line2d_50">
      <g>
       <use xlink:href="#m9a15792856" x="416.511115" y="253.888" style="stroke: #000000; stroke-width: 0.6"/>
      </g>
     </g>
    </g>
    <g id="xtick_26">
     <g id="line2d_51">
      <path d="M 429.077722 253.888 
L 429.077722 24.72 
" clip-path="url(#p6d39f9b75f)" style="fill: none; stroke: #b0b0b0; stroke-width: 0.8; stroke-linecap: square"/>
     </g>
     <g id="line2d_52">
      <g>
       <use xlink:href="#m9a15792856" x="429.077722" y="253.888" style="stroke: #000000; stroke-width: 0.6"/>
      </g>
     </g>
    </g>
    <g id="xtick_27">
     <g id="line2d_53">
      <path d="M 439.345388 253.888 
L 439.345388 24.72 
" clip-path="url(#p6d39f9b75f)" style="fill: none; stroke: #b0b0b0; stroke-width: 0.8; stroke-linecap: square"/>
     </g>
     <g id="line2d_54">
      <g>
       <use xlink:href="#m9a15792856" x="439.345388" y="253.888" style="stroke: #000000; stroke-width: 0.6"/>
      </g>
     </g>
    </g>
    <g id="xtick_28">
     <g id="line2d_55">
      <path d="M 448.026576 253.888 
L 448.026576 24.72 
" clip-path="url(#p6d39f9b75f)" style="fill: none; stroke: #b0b0b0; stroke-width: 0.8; stroke-linecap: square"/>
     </g>
     <g id="line2d_56">
      <g>
       <use xlink:href="#m9a15792856" x="448.026576" y="253.888" style="stroke: #000000; stroke-width: 0.6"/>
      </g>
     </g>
    </g>
    <g id="xtick_29">
     <g id="line2d_57">
      <path d="M 455.546563 253.888 
L 455.546563 24.72 
" clip-path="url(#p6d39f9b75f)" style="fill: none; stroke: #b0b0b0; stroke-width: 0.8; stroke-linecap: square"/>
     </g>
     <g id="line2d_58">
      <g>
       <use xlink:href="#m9a15792856" x="455.546563" y="253.888" style="stroke: #000000; stroke-width: 0.6"/>
      </g>
     </g>
    </g>
    <g id="xtick_30">
     <g id="line2d_59">
      <path d="M 462.179661 253.888 
L 462.179661 24.72 
" clip-path="url(#p6d39f9b75f)" style="fill: none; stroke: #b0b0b0; stroke-width: 0.8; stroke-linecap: square"/>
     </g>
     <g id="line2d_60">
      <g>
       <use xlink:href="#m9a15792856" x="462.179661" y="253.888" style="stroke: #000000; stroke-width: 0.6"/>
      </g>
     </g>
    </g>
   </g>
   <g id="matplotlib.axis_2">
    <g id="ytick_1">
     <g id="line2d_61">
      <path d="M 59.375 228.805423 
L 493.2 228.805423 
" clip-path="url(#p6d39f9b75f)" style="fill: none; stroke: #b0b0b0; stroke-width: 0.8; stroke-linecap: square"/>
     </g>
     <g id="line2d_62">
      <defs>
       <path id="m993bcba3f9" d="M 0 0 
L -3.5 0 
" style="stroke: #000000; stroke-width: 0.8"/>
      </defs>
      <g>
       <use xlink:href="#m993bcba3f9" x="59.375" y="228.805423" style="stroke: #000000; stroke-width: 0.8"/>
      </g>
     </g>
     <g id="text_1">
      <!-- 0 -->
      <g transform="translate(46.0125 232.604642) scale(0.1 -0.1)">
       <defs>
        <path id="DejaVuSans-30" d="M 2034 4250 
Q 1547 4250 1301 3770 
Q 1056 3291 1056 2328 
Q 1056 1369 1301 889 
Q 1547 409 2034 409 
Q 2525 409 2770 889 
Q 3016 1369 3016 2328 
Q 3016 3291 2770 3770 
Q 2525 4250 2034 4250 
z
M 2034 4750 
Q 2819 4750 3233 4129 
Q 3647 3509 3647 2328 
Q 3647 1150 3233 529 
Q 2819 -91 2034 -91 
Q 1250 -91 836 529 
Q 422 1150 422 2328 
Q 422 3509 836 4129 
Q 1250 4750 2034 4750 
z
" transform="scale(0.015625)"/>
       </defs>
       <use xlink:href="#DejaVuSans-30"/>
      </g>
     </g>
    </g>
    <g id="ytick_2">
     <g id="line2d_63">
      <path d="M 59.375 196.688423 
L 493.2 196.688423 
" clip-path="url(#p6d39f9b75f)" style="fill: none; stroke: #b0b0b0; stroke-width: 0.8; stroke-linecap: square"/>
     </g>
     <g id="line2d_64">
      <g>
       <use xlink:href="#m993bcba3f9" x="59.375" y="196.688423" style="stroke: #000000; stroke-width: 0.8"/>
      </g>
     </g>
     <g id="text_2">
      <!-- 10 -->
      <g transform="translate(39.65 200.487642) scale(0.1 -0.1)">
       <defs>
        <path id="DejaVuSans-31" d="M 794 531 
L 1825 531 
L 1825 4091 
L 703 3866 
L 703 4441 
L 1819 4666 
L 2450 4666 
L 2450 531 
L 3481 531 
L 3481 0 
L 794 0 
L 794 531 
z
" transform="scale(0.015625)"/>
       </defs>
       <use xlink:href="#DejaVuSans-31"/>
       <use xlink:href="#DejaVuSans-30" transform="translate(63.623047 0)"/>
      </g>
     </g>
    </g>
    <g id="ytick_3">
     <g id="line2d_65">
      <path d="M 59.375 164.571423 
L 493.2 164.571423 
" clip-path="url(#p6d39f9b75f)" style="fill: none; stroke: #b0b0b0; stroke-width: 0.8; stroke-linecap: square"/>
     </g>
     <g id="line2d_66">
      <g>
       <use xlink:href="#m993bcba3f9" x="59.375" y="164.571423" style="stroke: #000000; stroke-width: 0.8"/>
      </g>
     </g>
     <g id="text_3">
      <!-- 20 -->
      <g transform="translate(39.65 168.370642) scale(0.1 -0.1)">
       <defs>
        <path id="DejaVuSans-32" d="M 1228 531 
L 3431 531 
L 3431 0 
L 469 0 
L 469 531 
Q 828 903 1448 1529 
Q 2069 2156 2228 2338 
Q 2531 2678 2651 2914 
Q 2772 3150 2772 3378 
Q 2772 3750 2511 3984 
Q 2250 4219 1831 4219 
Q 1534 4219 1204 4116 
Q 875 4013 500 3803 
L 500 4441 
Q 881 4594 1212 4672 
Q 1544 4750 1819 4750 
Q 2544 4750 2975 4387 
Q 3406 4025 3406 3419 
Q 3406 3131 3298 2873 
Q 3191 2616 2906 2266 
Q 2828 2175 2409 1742 
Q 1991 1309 1228 531 
z
" transform="scale(0.015625)"/>
       </defs>
       <use xlink:href="#DejaVuSans-32"/>
       <use xlink:href="#DejaVuSans-30" transform="translate(63.623047 0)"/>
      </g>
     </g>
    </g>
    <g id="ytick_4">
     <g id="line2d_67">
      <path d="M 59.375 132.454423 
L 493.2 132.454423 
" clip-path="url(#p6d39f9b75f)" style="fill: none; stroke: #b0b0b0; stroke-width: 0.8; stroke-linecap: square"/>
     </g>
     <g id="line2d_68">
      <g>
       <use xlink:href="#m993bcba3f9" x="59.375" y="132.454423" style="stroke: #000000; stroke-width: 0.8"/>
      </g>
     </g>
     <g id="text_4">
      <!-- 30 -->
      <g transform="translate(39.65 136.253642) scale(0.1 -0.1)">
       <defs>
        <path id="DejaVuSans-33" d="M 2597 2516 
Q 3050 2419 3304 2112 
Q 3559 1806 3559 1356 
Q 3559 666 3084 287 
Q 2609 -91 1734 -91 
Q 1441 -91 1130 -33 
Q 819 25 488 141 
L 488 750 
Q 750 597 1062 519 
Q 1375 441 1716 441 
Q 2309 441 2620 675 
Q 2931 909 2931 1356 
Q 2931 1769 2642 2001 
Q 2353 2234 1838 2234 
L 1294 2234 
L 1294 2753 
L 1863 2753 
Q 2328 2753 2575 2939 
Q 2822 3125 2822 3475 
Q 2822 3834 2567 4026 
Q 2313 4219 1838 4219 
Q 1578 4219 1281 4162 
Q 984 4106 628 3988 
L 628 4550 
Q 988 4650 1302 4700 
Q 1616 4750 1894 4750 
Q 2613 4750 3031 4423 
Q 3450 4097 3450 3541 
Q 3450 3153 3228 2886 
Q 3006 2619 2597 2516 
z
" transform="scale(0.015625)"/>
       </defs>
       <use xlink:href="#DejaVuSans-33"/>
       <use xlink:href="#DejaVuSans-30" transform="translate(63.623047 0)"/>
      </g>
     </g>
    </g>
    <g id="ytick_5">
     <g id="line2d_69">
      <path d="M 59.375 100.337423 
L 493.2 100.337423 
" clip-path="url(#p6d39f9b75f)" style="fill: none; stroke: #b0b0b0; stroke-width: 0.8; stroke-linecap: square"/>
     </g>
     <g id="line2d_70">
      <g>
       <use xlink:href="#m993bcba3f9" x="59.375" y="100.337423" style="stroke: #000000; stroke-width: 0.8"/>
      </g>
     </g>
     <g id="text_5">
      <!-- 40 -->
      <g transform="translate(39.65 104.136642) scale(0.1 -0.1)">
       <defs>
        <path id="DejaVuSans-34" d="M 2419 4116 
L 825 1625 
L 2419 1625 
L 2419 4116 
z
M 2253 4666 
L 3047 4666 
L 3047 1625 
L 3713 1625 
L 3713 1100 
L 3047 1100 
L 3047 0 
L 2419 0 
L 2419 1100 
L 313 1100 
L 313 1709 
L 2253 4666 
z
" transform="scale(0.015625)"/>
       </defs>
       <use xlink:href="#DejaVuSans-34"/>
       <use xlink:href="#DejaVuSans-30" transform="translate(63.623047 0)"/>
      </g>
     </g>
    </g>
    <g id="ytick_6">
     <g id="line2d_71">
      <path d="M 59.375 68.220423 
L 493.2 68.220423 
" clip-path="url(#p6d39f9b75f)" style="fill: none; stroke: #b0b0b0; stroke-width: 0.8; stroke-linecap: square"/>
     </g>
     <g id="line2d_72">
      <g>
       <use xlink:href="#m993bcba3f9" x="59.375" y="68.220423" style="stroke: #000000; stroke-width: 0.8"/>
      </g>
     </g>
     <g id="text_6">
      <!-- 50 -->
      <g transform="translate(39.65 72.019641) scale(0.1 -0.1)">
       <defs>
        <path id="DejaVuSans-35" d="M 691 4666 
L 3169 4666 
L 3169 4134 
L 1269 4134 
L 1269 2991 
Q 1406 3038 1543 3061 
Q 1681 3084 1819 3084 
Q 2600 3084 3056 2656 
Q 3513 2228 3513 1497 
Q 3513 744 3044 326 
Q 2575 -91 1722 -91 
Q 1428 -91 1123 -41 
Q 819 9 494 109 
L 494 744 
Q 775 591 1075 516 
Q 1375 441 1709 441 
Q 2250 441 2565 725 
Q 2881 1009 2881 1497 
Q 2881 1984 2565 2268 
Q 2250 2553 1709 2553 
Q 1456 2553 1204 2497 
Q 953 2441 691 2322 
L 691 4666 
z
" transform="scale(0.015625)"/>
       </defs>
       <use xlink:href="#DejaVuSans-35"/>
       <use xlink:href="#DejaVuSans-30" transform="translate(63.623047 0)"/>
      </g>
     </g>
    </g>
    <g id="ytick_7">
     <g id="line2d_73">
      <path d="M 59.375 36.103423 
L 493.2 36.103423 
" clip-path="url(#p6d39f9b75f)" style="fill: none; stroke: #b0b0b0; stroke-width: 0.8; stroke-linecap: square"/>
     </g>
     <g id="line2d_74">
      <g>
       <use xlink:href="#m993bcba3f9" x="59.375" y="36.103423" style="stroke: #000000; stroke-width: 0.8"/>
      </g>
     </g>
     <g id="text_7">
      <!-- 60 -->
      <g transform="translate(39.65 39.902641) scale(0.1 -0.1)">
       <defs>
        <path id="DejaVuSans-36" d="M 2113 2584 
Q 1688 2584 1439 2293 
Q 1191 2003 1191 1497 
Q 1191 994 1439 701 
Q 1688 409 2113 409 
Q 2538 409 2786 701 
Q 3034 994 3034 1497 
Q 3034 2003 2786 2293 
Q 2538 2584 2113 2584 
z
M 3366 4563 
L 3366 3988 
Q 3128 4100 2886 4159 
Q 2644 4219 2406 4219 
Q 1781 4219 1451 3797 
Q 1122 3375 1075 2522 
Q 1259 2794 1537 2939 
Q 1816 3084 2150 3084 
Q 2853 3084 3261 2657 
Q 3669 2231 3669 1497 
Q 3669 778 3244 343 
Q 2819 -91 2113 -91 
Q 1303 -91 875 529 
Q 447 1150 447 2328 
Q 447 3434 972 4092 
Q 1497 4750 2381 4750 
Q 2619 4750 2861 4703 
Q 3103 4656 3366 4563 
z
" transform="scale(0.015625)"/>
       </defs>
       <use xlink:href="#DejaVuSans-36"/>
       <use xlink:href="#DejaVuSans-30" transform="translate(63.623047 0)"/>
      </g>
     </g>
    </g>
    <g id="text_8">
     <!-- magnitude  [dB] -->
     <g transform="translate(33.570313 180.034469) rotate(-90) scale(0.1 -0.1)">
      <defs>
       <path id="DejaVuSans-6d" d="M 3328 2828 
Q 3544 3216 3844 3400 
Q 4144 3584 4550 3584 
Q 5097 3584 5394 3201 
Q 5691 2819 5691 2113 
L 5691 0 
L 5113 0 
L 5113 2094 
Q 5113 2597 4934 2840 
Q 4756 3084 4391 3084 
Q 3944 3084 3684 2787 
Q 3425 2491 3425 1978 
L 3425 0 
L 2847 0 
L 2847 2094 
Q 2847 2600 2669 2842 
Q 2491 3084 2119 3084 
Q 1678 3084 1418 2786 
Q 1159 2488 1159 1978 
L 1159 0 
L 581 0 
L 581 3500 
L 1159 3500 
L 1159 2956 
Q 1356 3278 1631 3431 
Q 1906 3584 2284 3584 
Q 2666 3584 2933 3390 
Q 3200 3197 3328 2828 
z
" transform="scale(0.015625)"/>
       <path id="DejaVuSans-61" d="M 2194 1759 
Q 1497 1759 1228 1600 
Q 959 1441 959 1056 
Q 959 750 1161 570 
Q 1363 391 1709 391 
Q 2188 391 2477 730 
Q 2766 1069 2766 1631 
L 2766 1759 
L 2194 1759 
z
M 3341 1997 
L 3341 0 
L 2766 0 
L 2766 531 
Q 2569 213 2275 61 
Q 1981 -91 1556 -91 
Q 1019 -91 701 211 
Q 384 513 384 1019 
Q 384 1609 779 1909 
Q 1175 2209 1959 2209 
L 2766 2209 
L 2766 2266 
Q 2766 2663 2505 2880 
Q 2244 3097 1772 3097 
Q 1472 3097 1187 3025 
Q 903 2953 641 2809 
L 641 3341 
Q 956 3463 1253 3523 
Q 1550 3584 1831 3584 
Q 2591 3584 2966 3190 
Q 3341 2797 3341 1997 
z
" transform="scale(0.015625)"/>
       <path id="DejaVuSans-67" d="M 2906 1791 
Q 2906 2416 2648 2759 
Q 2391 3103 1925 3103 
Q 1463 3103 1205 2759 
Q 947 2416 947 1791 
Q 947 1169 1205 825 
Q 1463 481 1925 481 
Q 2391 481 2648 825 
Q 2906 1169 2906 1791 
z
M 3481 434 
Q 3481 -459 3084 -895 
Q 2688 -1331 1869 -1331 
Q 1566 -1331 1297 -1286 
Q 1028 -1241 775 -1147 
L 775 -588 
Q 1028 -725 1275 -790 
Q 1522 -856 1778 -856 
Q 2344 -856 2625 -561 
Q 2906 -266 2906 331 
L 2906 616 
Q 2728 306 2450 153 
Q 2172 0 1784 0 
Q 1141 0 747 490 
Q 353 981 353 1791 
Q 353 2603 747 3093 
Q 1141 3584 1784 3584 
Q 2172 3584 2450 3431 
Q 2728 3278 2906 2969 
L 2906 3500 
L 3481 3500 
L 3481 434 
z
" transform="scale(0.015625)"/>
       <path id="DejaVuSans-6e" d="M 3513 2113 
L 3513 0 
L 2938 0 
L 2938 2094 
Q 2938 2591 2744 2837 
Q 2550 3084 2163 3084 
Q 1697 3084 1428 2787 
Q 1159 2491 1159 1978 
L 1159 0 
L 581 0 
L 581 3500 
L 1159 3500 
L 1159 2956 
Q 1366 3272 1645 3428 
Q 1925 3584 2291 3584 
Q 2894 3584 3203 3211 
Q 3513 2838 3513 2113 
z
" transform="scale(0.015625)"/>
       <path id="DejaVuSans-69" d="M 603 3500 
L 1178 3500 
L 1178 0 
L 603 0 
L 603 3500 
z
M 603 4863 
L 1178 4863 
L 1178 4134 
L 603 4134 
L 603 4863 
z
" transform="scale(0.015625)"/>
       <path id="DejaVuSans-74" d="M 1172 4494 
L 1172 3500 
L 2356 3500 
L 2356 3053 
L 1172 3053 
L 1172 1153 
Q 1172 725 1289 603 
Q 1406 481 1766 481 
L 2356 481 
L 2356 0 
L 1766 0 
Q 1100 0 847 248 
Q 594 497 594 1153 
L 594 3053 
L 172 3053 
L 172 3500 
L 594 3500 
L 594 4494 
L 1172 4494 
z
" transform="scale(0.015625)"/>
       <path id="DejaVuSans-75" d="M 544 1381 
L 544 3500 
L 1119 3500 
L 1119 1403 
Q 1119 906 1312 657 
Q 1506 409 1894 409 
Q 2359 409 2629 706 
Q 2900 1003 2900 1516 
L 2900 3500 
L 3475 3500 
L 3475 0 
L 2900 0 
L 2900 538 
Q 2691 219 2414 64 
Q 2138 -91 1772 -91 
Q 1169 -91 856 284 
Q 544 659 544 1381 
z
M 1991 3584 
L 1991 3584 
z
" transform="scale(0.015625)"/>
       <path id="DejaVuSans-64" d="M 2906 2969 
L 2906 4863 
L 3481 4863 
L 3481 0 
L 2906 0 
L 2906 525 
Q 2725 213 2448 61 
Q 2172 -91 1784 -91 
Q 1150 -91 751 415 
Q 353 922 353 1747 
Q 353 2572 751 3078 
Q 1150 3584 1784 3584 
Q 2172 3584 2448 3432 
Q 2725 3281 2906 2969 
z
M 947 1747 
Q 947 1113 1208 752 
Q 1469 391 1925 391 
Q 2381 391 2643 752 
Q 2906 1113 2906 1747 
Q 2906 2381 2643 2742 
Q 2381 3103 1925 3103 
Q 1469 3103 1208 2742 
Q 947 2381 947 1747 
z
" transform="scale(0.015625)"/>
       <path id="DejaVuSans-65" d="M 3597 1894 
L 3597 1613 
L 953 1613 
Q 991 1019 1311 708 
Q 1631 397 2203 397 
Q 2534 397 2845 478 
Q 3156 559 3463 722 
L 3463 178 
Q 3153 47 2828 -22 
Q 2503 -91 2169 -91 
Q 1331 -91 842 396 
Q 353 884 353 1716 
Q 353 2575 817 3079 
Q 1281 3584 2069 3584 
Q 2775 3584 3186 3129 
Q 3597 2675 3597 1894 
z
M 3022 2063 
Q 3016 2534 2758 2815 
Q 2500 3097 2075 3097 
Q 1594 3097 1305 2825 
Q 1016 2553 972 2059 
L 3022 2063 
z
" transform="scale(0.015625)"/>
       <path id="DejaVuSans-20" transform="scale(0.015625)"/>
       <path id="DejaVuSans-5b" d="M 550 4863 
L 1875 4863 
L 1875 4416 
L 1125 4416 
L 1125 -397 
L 1875 -397 
L 1875 -844 
L 550 -844 
L 550 4863 
z
" transform="scale(0.015625)"/>
       <path id="DejaVuSans-42" d="M 1259 2228 
L 1259 519 
L 2272 519 
Q 2781 519 3026 730 
Q 3272 941 3272 1375 
Q 3272 1813 3026 2020 
Q 2781 2228 2272 2228 
L 1259 2228 
z
M 1259 4147 
L 1259 2741 
L 2194 2741 
Q 2656 2741 2882 2914 
Q 3109 3088 3109 3444 
Q 3109 3797 2882 3972 
Q 2656 4147 2194 4147 
L 1259 4147 
z
M 628 4666 
L 2241 4666 
Q 2963 4666 3353 4366 
Q 3744 4066 3744 3513 
Q 3744 3084 3544 2831 
Q 3344 2578 2956 2516 
Q 3422 2416 3680 2098 
Q 3938 1781 3938 1306 
Q 3938 681 3513 340 
Q 3088 0 2303 0 
L 628 0 
L 628 4666 
z
" transform="scale(0.015625)"/>
       <path id="DejaVuSans-5d" d="M 1947 4863 
L 1947 -844 
L 622 -844 
L 622 -397 
L 1369 -397 
L 1369 4416 
L 622 4416 
L 622 4863 
L 1947 4863 
z
" transform="scale(0.015625)"/>
      </defs>
      <use xlink:href="#DejaVuSans-6d"/>
      <use xlink:href="#DejaVuSans-61" transform="translate(97.412109 0)"/>
      <use xlink:href="#DejaVuSans-67" transform="translate(158.691406 0)"/>
      <use xlink:href="#DejaVuSans-6e" transform="translate(222.167969 0)"/>
      <use xlink:href="#DejaVuSans-69" transform="translate(285.546875 0)"/>
      <use xlink:href="#DejaVuSans-74" transform="translate(313.330078 0)"/>
      <use xlink:href="#DejaVuSans-75" transform="translate(352.539062 0)"/>
      <use xlink:href="#DejaVuSans-64" transform="translate(415.917969 0)"/>
      <use xlink:href="#DejaVuSans-65" transform="translate(479.394531 0)"/>
      <use xlink:href="#DejaVuSans-20" transform="translate(540.917969 0)"/>
      <use xlink:href="#DejaVuSans-20" transform="translate(572.705078 0)"/>
      <use xlink:href="#DejaVuSans-5b" transform="translate(604.492188 0)"/>
      <use xlink:href="#DejaVuSans-64" transform="translate(643.505859 0)"/>
      <use xlink:href="#DejaVuSans-42" transform="translate(706.982422 0)"/>
      <use xlink:href="#DejaVuSans-5d" transform="translate(775.585938 0)"/>
     </g>
    </g>
   </g>
   <g id="line2d_75">
    <path d="M 79.094318 49.27908 
L 182.277944 100.528641 
L 212.660886 115.854354 
L 231.600901 125.64171 
L 245.411329 133.015985 
L 256.262379 139.052154 
L 265.140512 144.236835 
L 272.637601 148.866333 
L 279.148232 153.14798 
L 284.672403 157.039482 
L 289.604698 160.780711 
L 293.945119 164.344918 
L 297.890955 167.871156 
L 301.442208 171.34428 
L 304.598877 174.736285 
L 307.558255 178.249102 
L 310.123048 181.625062 
L 312.49055 185.088855 
L 314.66076 188.63594 
L 316.633679 192.252984 
L 318.606597 196.34894 
L 320.382223 200.562956 
L 321.960558 204.849716 
L 323.538893 209.787514 
L 325.117227 215.53908 
L 326.695562 222.211396 
L 329.260356 233.376451 
L 329.852231 234.977614 
L 330.246815 235.549818 
L 330.641399 235.658041 
L 331.035982 235.290739 
L 331.430566 234.482848 
L 332.022441 232.605217 
L 333.0089 228.423195 
L 335.968278 215.291941 
L 337.546613 209.476516 
L 339.124947 204.473336 
L 340.900574 199.613679 
L 342.6762 195.384119 
L 344.649118 191.2521 
L 346.819328 187.238191 
L 349.18683 183.347353 
L 351.751624 179.574526 
L 354.51371 175.908297 
L 357.670379 172.105689 
L 361.02434 168.411808 
L 364.970177 164.40943 
L 369.507889 160.14173 
L 374.834768 155.445356 
L 382.134566 149.328685 
L 398.509787 135.707795 
L 404.23125 130.594586 
L 408.966254 126.065179 
L 413.109383 121.801758 
L 417.055219 117.41758 
L 420.803764 112.920229 
L 425.144184 107.335456 
L 430.668355 100.203225 
L 432.641273 98.028998 
L 434.022316 96.785433 
L 435.206067 95.968676 
L 436.389818 95.427984 
L 437.376277 95.211444 
L 438.362736 95.217497 
L 439.349196 95.444827 
L 440.335655 95.882232 
L 441.519406 96.656582 
L 442.900449 97.847705 
L 444.676075 99.716215 
L 447.240869 102.80535 
L 456.119001 113.791259 
L 459.867546 117.945656 
L 463.61609 121.764844 
L 467.561927 125.465558 
L 471.902347 129.217715 
L 473.480682 130.511173 
L 473.480682 130.511173 
" clip-path="url(#p6d39f9b75f)" style="fill: none; stroke: #1f77b4; stroke-width: 1.2; stroke-linecap: square"/>
   </g>
   <g id="line2d_76">
    <path d="M 79.094318 153.656466 
L 83.829322 155.677997 
L 88.564326 157.452009 
L 93.29933 158.992863 
L 98.231625 160.370153 
L 103.558505 161.624086 
L 109.279968 162.736196 
L 115.396014 163.698539 
L 122.301228 164.55608 
L 130.192902 165.303482 
L 139.268326 165.934337 
L 150.316668 166.471186 
L 164.324388 166.918841 
L 184.645446 167.32592 
L 228.838815 168.158607 
L 243.043827 168.682893 
L 253.894878 169.29971 
L 262.575718 170.005854 
L 269.875516 170.812046 
L 276.188854 171.725605 
L 281.713025 172.745626 
L 286.448029 173.834467 
L 290.788449 175.056601 
L 294.536994 176.33079 
L 298.088247 177.773648 
L 301.244916 179.297153 
L 304.007002 180.861781 
L 306.571796 182.553932 
L 308.939297 184.367892 
L 311.109508 186.292522 
L 313.279718 188.527587 
L 315.252636 190.895196 
L 317.028262 193.368253 
L 318.803889 196.248882 
L 320.382223 199.240168 
L 321.960558 202.745227 
L 323.341601 206.340717 
L 324.722644 210.543812 
L 326.103687 215.448067 
L 329.457648 228.178209 
L 329.852231 228.964517 
L 330.246815 229.341287 
L 330.444107 229.357522 
L 330.83869 229.030992 
L 331.233274 228.240961 
L 331.82515 226.314973 
L 332.614317 222.812308 
L 336.757445 202.839355 
L 338.533072 195.952267 
L 340.308698 189.962954 
L 342.281616 184.108128 
L 344.451826 178.398146 
L 346.819328 172.821166 
L 349.384122 167.354852 
L 352.146208 161.972417 
L 355.302877 156.303807 
L 358.85413 150.387857 
L 362.997258 143.940196 
L 367.732262 137.000483 
L 373.453725 129.028001 
L 381.148106 118.721238 
L 400.285414 93.254046 
L 406.204169 84.91331 
L 411.136464 77.595628 
L 415.674176 70.467698 
L 420.014597 63.220845 
L 424.552309 55.193329 
L 431.260231 43.268245 
L 433.233149 40.240618 
L 434.811484 38.20885 
L 436.192526 36.809928 
L 437.376277 35.937598 
L 438.362736 35.455007 
L 439.349196 35.193692 
L 440.335655 35.142451 
L 441.519406 35.330427 
L 442.703157 35.748735 
L 444.084199 36.463156 
L 446.057118 37.767938 
L 449.411079 40.32474 
L 454.146083 43.88416 
L 457.500044 46.120258 
L 460.854005 48.078267 
L 464.207966 49.774632 
L 467.759219 51.318768 
L 471.507764 52.707818 
L 473.480682 53.352899 
L 473.480682 53.352899 
" clip-path="url(#p6d39f9b75f)" style="fill: none; stroke: #ff7f0e; stroke-width: 1.5; stroke-linecap: square"/>
   </g>
   <g id="line2d_77">
    <path d="M 79.094318 229.007453 
L 129.601026 231.020635 
L 148.738333 231.36725 
L 174.780855 231.600321 
L 226.668605 231.788141 
L 265.140512 232.030099 
L 283.094068 232.349353 
L 294.339702 232.753355 
L 302.034084 233.233781 
L 307.755547 233.80513 
L 311.898675 234.427036 
L 315.252636 235.150736 
L 317.81743 235.919122 
L 319.98764 236.794197 
L 321.763266 237.734439 
L 323.341601 238.804877 
L 324.919936 240.156206 
L 326.892854 242.200129 
L 327.879313 243.127716 
L 328.471188 243.44288 
L 328.865772 243.447414 
L 329.260356 243.203859 
L 329.654939 242.630347 
L 330.049523 241.649543 
L 330.641399 239.310624 
L 331.430566 234.685273 
L 333.403484 221.881348 
L 333.99536 219.591088 
L 334.587235 218.287017 
L 334.981819 217.873219 
L 335.376402 217.734834 
L 335.770986 217.79806 
L 336.362862 218.138236 
L 337.546613 219.211314 
L 339.914114 221.393453 
L 341.492449 222.539048 
L 343.268076 223.551286 
L 345.240994 224.417018 
L 347.608496 225.202643 
L 350.370581 225.883067 
L 353.921834 226.515942 
L 358.459546 227.07898 
L 364.378301 227.569812 
L 372.269974 227.985228 
L 383.318317 228.327679 
L 399.496246 228.589797 
L 425.73606 228.768402 
L 473.480682 228.855263 
L 473.480682 228.855263 
" clip-path="url(#p6d39f9b75f)" style="fill: none; stroke: #2ca02c; stroke-width: 1.5; stroke-linecap: square"/>
   </g>
   <g id="line2d_78">
    <path d="M 59.375 228.805423 
L 493.2 228.805423 
" clip-path="url(#p6d39f9b75f)" style="fill: none; stroke: #000000; stroke-width: 0.6; stroke-linecap: square"/>
   </g>
   <g id="line2d_79">
    <path d="M 330.540041 253.888 
L 330.540041 24.72 
" clip-path="url(#p6d39f9b75f)" style="fill: none; stroke-dasharray: 3.7,1.6; stroke-dashoffset: 0; stroke: #ffa500"/>
   </g>
   <g id="line2d_80">
    <path d="M 437.745522 253.888 
L 437.745522 24.72 
" clip-path="url(#p6d39f9b75f)" style="fill: none; stroke-dasharray: 3.7,1.6; stroke-dashoffset: 0; stroke: #008000"/>
   </g>
   <g id="line2d_81">
    <path d="M 330.969524 253.888 
L 330.969524 24.72 
" clip-path="url(#p6d39f9b75f)" style="fill: none; stroke-dasharray: 1,1.65; stroke-dashoffset: 0; stroke: #808080"/>
   </g>
   <g id="patch_3">
    <path d="M 59.375 253.888 
L 59.375 24.72 
" style="fill: none; stroke: #000000; stroke-width: 0.8; stroke-linejoin: miter; stroke-linecap: square"/>
   </g>
   <g id="patch_4">
    <path d="M 493.2 253.888 
L 493.2 24.72 
" style="fill: none; stroke: #000000; stroke-width: 0.8; stroke-linejoin: miter; stroke-linecap: square"/>
   </g>
   <g id="patch_5">
    <path d="M 59.375 253.888 
L 493.2 253.888 
" style="fill: none; stroke: #000000; stroke-width: 0.8; stroke-linejoin: miter; stroke-linecap: square"/>
   </g>
   <g id="patch_6">
    <path d="M 59.375 24.72 
L 493.2 24.72 
" style="fill: none; stroke: #000000; stroke-width: 0.8; stroke-linejoin: miter; stroke-linecap: square"/>
   </g>
   <g id="text_9">
    <!-- PM 86°, GM - -, Mp 3.4 dB, BW 110 Hz -->
    <g transform="translate(183.065625 18.72) scale(0.1 -0.1)">
     <defs>
      <path id="DejaVuSans-50" d="M 1259 4147 
L 1259 2394 
L 2053 2394 
Q 2494 2394 2734 2622 
Q 2975 2850 2975 3272 
Q 2975 3691 2734 3919 
Q 2494 4147 2053 4147 
L 1259 4147 
z
M 628 4666 
L 2053 4666 
Q 2838 4666 3239 4311 
Q 3641 3956 3641 3272 
Q 3641 2581 3239 2228 
Q 2838 1875 2053 1875 
L 1259 1875 
L 1259 0 
L 628 0 
L 628 4666 
z
" transform="scale(0.015625)"/>
      <path id="DejaVuSans-4d" d="M 628 4666 
L 1569 4666 
L 2759 1491 
L 3956 4666 
L 4897 4666 
L 4897 0 
L 4281 0 
L 4281 4097 
L 3078 897 
L 2444 897 
L 1241 4097 
L 1241 0 
L 628 0 
L 628 4666 
z
" transform="scale(0.015625)"/>
      <path id="DejaVuSans-38" d="M 2034 2216 
Q 1584 2216 1326 1975 
Q 1069 1734 1069 1313 
Q 1069 891 1326 650 
Q 1584 409 2034 409 
Q 2484 409 2743 651 
Q 3003 894 3003 1313 
Q 3003 1734 2745 1975 
Q 2488 2216 2034 2216 
z
M 1403 2484 
Q 997 2584 770 2862 
Q 544 3141 544 3541 
Q 544 4100 942 4425 
Q 1341 4750 2034 4750 
Q 2731 4750 3128 4425 
Q 3525 4100 3525 3541 
Q 3525 3141 3298 2862 
Q 3072 2584 2669 2484 
Q 3125 2378 3379 2068 
Q 3634 1759 3634 1313 
Q 3634 634 3220 271 
Q 2806 -91 2034 -91 
Q 1263 -91 848 271 
Q 434 634 434 1313 
Q 434 1759 690 2068 
Q 947 2378 1403 2484 
z
M 1172 3481 
Q 1172 3119 1398 2916 
Q 1625 2713 2034 2713 
Q 2441 2713 2670 2916 
Q 2900 3119 2900 3481 
Q 2900 3844 2670 4047 
Q 2441 4250 2034 4250 
Q 1625 4250 1398 4047 
Q 1172 3844 1172 3481 
z
" transform="scale(0.015625)"/>
      <path id="DejaVuSans-b0" d="M 1600 4347 
Q 1350 4347 1178 4173 
Q 1006 4000 1006 3750 
Q 1006 3503 1178 3333 
Q 1350 3163 1600 3163 
Q 1850 3163 2022 3333 
Q 2194 3503 2194 3750 
Q 2194 3997 2020 4172 
Q 1847 4347 1600 4347 
z
M 1600 4750 
Q 1800 4750 1984 4673 
Q 2169 4597 2303 4453 
Q 2447 4313 2519 4134 
Q 2591 3956 2591 3750 
Q 2591 3338 2302 3052 
Q 2013 2766 1594 2766 
Q 1172 2766 890 3047 
Q 609 3328 609 3750 
Q 609 4169 896 4459 
Q 1184 4750 1600 4750 
z
" transform="scale(0.015625)"/>
      <path id="DejaVuSans-2c" d="M 750 794 
L 1409 794 
L 1409 256 
L 897 -744 
L 494 -744 
L 750 256 
L 750 794 
z
" transform="scale(0.015625)"/>
      <path id="DejaVuSans-47" d="M 3809 666 
L 3809 1919 
L 2778 1919 
L 2778 2438 
L 4434 2438 
L 4434 434 
Q 4069 175 3628 42 
Q 3188 -91 2688 -91 
Q 1594 -91 976 548 
Q 359 1188 359 2328 
Q 359 3472 976 4111 
Q 1594 4750 2688 4750 
Q 3144 4750 3555 4637 
Q 3966 4525 4313 4306 
L 4313 3634 
Q 3963 3931 3569 4081 
Q 3175 4231 2741 4231 
Q 1884 4231 1454 3753 
Q 1025 3275 1025 2328 
Q 1025 1384 1454 906 
Q 1884 428 2741 428 
Q 3075 428 3337 486 
Q 3600 544 3809 666 
z
" transform="scale(0.015625)"/>
      <path id="DejaVuSans-2d" d="M 313 2009 
L 1997 2009 
L 1997 1497 
L 313 1497 
L 313 2009 
z
" transform="scale(0.015625)"/>
      <path id="DejaVuSans-70" d="M 1159 525 
L 1159 -1331 
L 581 -1331 
L 581 3500 
L 1159 3500 
L 1159 2969 
Q 1341 3281 1617 3432 
Q 1894 3584 2278 3584 
Q 2916 3584 3314 3078 
Q 3713 2572 3713 1747 
Q 3713 922 3314 415 
Q 2916 -91 2278 -91 
Q 1894 -91 1617 61 
Q 1341 213 1159 525 
z
M 3116 1747 
Q 3116 2381 2855 2742 
Q 2594 3103 2138 3103 
Q 1681 3103 1420 2742 
Q 1159 2381 1159 1747 
Q 1159 1113 1420 752 
Q 1681 391 2138 391 
Q 2594 391 2855 752 
Q 3116 1113 3116 1747 
z
" transform="scale(0.015625)"/>
      <path id="DejaVuSans-2e" d="M 684 794 
L 1344 794 
L 1344 0 
L 684 0 
L 684 794 
z
" transform="scale(0.015625)"/>
      <path id="DejaVuSans-57" d="M 213 4666 
L 850 4666 
L 1831 722 
L 2809 4666 
L 3519 4666 
L 4500 722 
L 5478 4666 
L 6119 4666 
L 4947 0 
L 4153 0 
L 3169 4050 
L 2175 0 
L 1381 0 
L 213 4666 
z
" transform="scale(0.015625)"/>
      <path id="DejaVuSans-48" d="M 628 4666 
L 1259 4666 
L 1259 2753 
L 3553 2753 
L 3553 4666 
L 4184 4666 
L 4184 0 
L 3553 0 
L 3553 2222 
L 1259 2222 
L 1259 0 
L 628 0 
L 628 4666 
z
" transform="scale(0.015625)"/>
      <path id="DejaVuSans-7a" d="M 353 3500 
L 3084 3500 
L 3084 2975 
L 922 459 
L 3084 459 
L 3084 0 
L 275 0 
L 275 525 
L 2438 3041 
L 353 3041 
L 353 3500 
z
" transform="scale(0.015625)"/>
     </defs>
     <use xlink:href="#DejaVuSans-50"/>
     <use xlink:href="#DejaVuSans-4d" transform="translate(60.302734 0)"/>
     <use xlink:href="#DejaVuSans-20" transform="translate(146.582031 0)"/>
     <use xlink:href="#DejaVuSans-38" transform="translate(178.369141 0)"/>
     <use xlink:href="#DejaVuSans-36" transform="translate(241.992188 0)"/>
     <use xlink:href="#DejaVuSans-b0" transform="translate(305.615234 0)"/>
     <use xlink:href="#DejaVuSans-2c" transform="translate(355.615234 0)"/>
     <use xlink:href="#DejaVuSans-20" transform="translate(387.402344 0)"/>
     <use xlink:href="#DejaVuSans-47" transform="translate(419.189453 0)"/>
     <use xlink:href="#DejaVuSans-4d" transform="translate(496.679688 0)"/>
     <use xlink:href="#DejaVuSans-20" transform="translate(582.958984 0)"/>
     <use xlink:href="#DejaVuSans-2d" transform="translate(614.746094 0)"/>
     <use xlink:href="#DejaVuSans-2d" transform="translate(650.830078 0)"/>
     <use xlink:href="#DejaVuSans-2c" transform="translate(686.914062 0)"/>
     <use xlink:href="#DejaVuSans-20" transform="translate(718.701172 0)"/>
     <use xlink:href="#DejaVuSans-4d" transform="translate(750.488281 0)"/>
     <use xlink:href="#DejaVuSans-70" transform="translate(836.767578 0)"/>
     <use xlink:href="#DejaVuSans-20" transform="translate(900.244141 0)"/>
     <use xlink:href="#DejaVuSans-33" transform="translate(932.03125 0)"/>
     <use xlink:href="#DejaVuSans-2e" transform="translate(995.654297 0)"/>
     <use xlink:href="#DejaVuSans-34" transform="translate(1027.441406 0)"/>
     <use xlink:href="#DejaVuSans-20" transform="translate(1091.064453 0)"/>
     <use xlink:href="#DejaVuSans-64" transform="translate(1122.851562 0)"/>
     <use xlink:href="#DejaVuSans-42" transform="translate(1186.328125 0)"/>
     <use xlink:href="#DejaVuSans-2c" transform="translate(1254.931641 0)"/>
     <use xlink:href="#DejaVuSans-20" transform="translate(1286.71875 0)"/>
     <use xlink:href="#DejaVuSans-42" transform="translate(1318.505859 0)"/>
     <use xlink:href="#DejaVuSans-57" transform="translate(1383.484375 0)"/>
     <use xlink:href="#DejaVuSans-20" transform="translate(1482.361328 0)"/>
     <use xlink:href="#DejaVuSans-31" transform="translate(1514.148438 0)"/>
     <use xlink:href="#DejaVuSans-31" transform="translate(1577.771484 0)"/>
     <use xlink:href="#DejaVuSans-30" transform="translate(1641.394531 0)"/>
     <use xlink:href="#DejaVuSans-20" transform="translate(1705.017578 0)"/>
     <use xlink:href="#DejaVuSans-48" transform="translate(1736.804688 0)"/>
     <use xlink:href="#DejaVuSans-7a" transform="translate(1812 0)"/>
    </g>
   </g>
   <g id="legend_1">
    <g id="patch_7">
     <path d="M 217.3675 66.4 
L 335.2075 66.4 
Q 336.8075 66.4 336.8075 64.8 
L 336.8075 30.32 
Q 336.8075 28.72 335.2075 28.72 
L 217.3675 28.72 
Q 215.7675 28.72 215.7675 30.32 
L 215.7675 64.8 
Q 215.7675 66.4 217.3675 66.4 
z
" style="fill: #ffffff; opacity: 0.8; stroke: #cccccc; stroke-linejoin: miter"/>
    </g>
    <g id="line2d_82">
     <path d="M 218.9675 35.2 
L 226.9675 35.2 
L 234.9675 35.2 
" style="fill: none; stroke: #1f77b4; stroke-width: 1.2; stroke-linecap: square"/>
    </g>
    <g id="text_10">
     <!-- plant $P$ -->
     <g transform="translate(241.3675 38) scale(0.08 -0.08)">
      <defs>
       <path id="DejaVuSans-6c" d="M 603 4863 
L 1178 4863 
L 1178 0 
L 603 0 
L 603 4863 
z
" transform="scale(0.015625)"/>
       <path id="DejaVuSans-Oblique-50" d="M 1081 4666 
L 2541 4666 
Q 3178 4666 3512 4369 
Q 3847 4072 3847 3500 
Q 3847 2731 3353 2303 
Q 2859 1875 1966 1875 
L 1172 1875 
L 806 0 
L 172 0 
L 1081 4666 
z
M 1613 4147 
L 1275 2394 
L 2069 2394 
Q 2606 2394 2893 2669 
Q 3181 2944 3181 3456 
Q 3181 3784 2986 3965 
Q 2791 4147 2438 4147 
L 1613 4147 
z
" transform="scale(0.015625)"/>
      </defs>
      <use xlink:href="#DejaVuSans-70" transform="translate(0 0.015625)"/>
      <use xlink:href="#DejaVuSans-6c" transform="translate(63.476562 0.015625)"/>
      <use xlink:href="#DejaVuSans-61" transform="translate(91.259766 0.015625)"/>
      <use xlink:href="#DejaVuSans-6e" transform="translate(152.539062 0.015625)"/>
      <use xlink:href="#DejaVuSans-74" transform="translate(215.917969 0.015625)"/>
      <use xlink:href="#DejaVuSans-20" transform="translate(255.126953 0.015625)"/>
      <use xlink:href="#DejaVuSans-Oblique-50" transform="translate(286.914062 0.015625)"/>
     </g>
    </g>
    <g id="line2d_83">
     <path d="M 218.9675 46.96 
L 226.9675 46.96 
L 234.9675 46.96 
" style="fill: none; stroke: #ff7f0e; stroke-width: 1.5; stroke-linecap: square"/>
    </g>
    <g id="text_11">
     <!-- open loop $L=CP$ -->
     <g transform="translate(241.3675 49.76) scale(0.08 -0.08)">
      <defs>
       <path id="DejaVuSans-6f" d="M 1959 3097 
Q 1497 3097 1228 2736 
Q 959 2375 959 1747 
Q 959 1119 1226 758 
Q 1494 397 1959 397 
Q 2419 397 2687 759 
Q 2956 1122 2956 1747 
Q 2956 2369 2687 2733 
Q 2419 3097 1959 3097 
z
M 1959 3584 
Q 2709 3584 3137 3096 
Q 3566 2609 3566 1747 
Q 3566 888 3137 398 
Q 2709 -91 1959 -91 
Q 1206 -91 779 398 
Q 353 888 353 1747 
Q 353 2609 779 3096 
Q 1206 3584 1959 3584 
z
" transform="scale(0.015625)"/>
       <path id="DejaVuSans-Oblique-4c" d="M 1075 4666 
L 1709 4666 
L 909 525 
L 3181 525 
L 3078 0 
L 172 0 
L 1075 4666 
z
" transform="scale(0.015625)"/>
       <path id="DejaVuSans-3d" d="M 678 2906 
L 4684 2906 
L 4684 2381 
L 678 2381 
L 678 2906 
z
M 678 1631 
L 4684 1631 
L 4684 1100 
L 678 1100 
L 678 1631 
z
" transform="scale(0.015625)"/>
       <path id="DejaVuSans-Oblique-43" d="M 4447 4306 
L 4319 3641 
Q 4019 3944 3683 4091 
Q 3347 4238 2956 4238 
Q 2422 4238 2017 3981 
Q 1613 3725 1319 3200 
Q 1131 2863 1032 2486 
Q 934 2109 934 1728 
Q 934 1091 1264 756 
Q 1594 422 2222 422 
Q 2656 422 3056 561 
Q 3456 700 3834 978 
L 3688 231 
Q 3316 72 2936 -9 
Q 2556 -91 2175 -91 
Q 1278 -91 773 396 
Q 269 884 269 1753 
Q 269 2309 461 2846 
Q 653 3384 1013 3828 
Q 1394 4300 1883 4525 
Q 2372 4750 3022 4750 
Q 3422 4750 3780 4639 
Q 4138 4528 4447 4306 
z
" transform="scale(0.015625)"/>
      </defs>
      <use xlink:href="#DejaVuSans-6f" transform="translate(0 0.015625)"/>
      <use xlink:href="#DejaVuSans-70" transform="translate(61.181641 0.015625)"/>
      <use xlink:href="#DejaVuSans-65" transform="translate(124.658203 0.015625)"/>
      <use xlink:href="#DejaVuSans-6e" transform="translate(186.181641 0.015625)"/>
      <use xlink:href="#DejaVuSans-20" transform="translate(249.560547 0.015625)"/>
      <use xlink:href="#DejaVuSans-6c" transform="translate(281.347656 0.015625)"/>
      <use xlink:href="#DejaVuSans-6f" transform="translate(309.130859 0.015625)"/>
      <use xlink:href="#DejaVuSans-6f" transform="translate(370.3125 0.015625)"/>
      <use xlink:href="#DejaVuSans-70" transform="translate(431.494141 0.015625)"/>
      <use xlink:href="#DejaVuSans-20" transform="translate(494.970703 0.015625)"/>
      <use xlink:href="#DejaVuSans-Oblique-4c" transform="translate(526.757812 0.015625)"/>
      <use xlink:href="#DejaVuSans-3d" transform="translate(601.953125 0.015625)"/>
      <use xlink:href="#DejaVuSans-Oblique-43" transform="translate(705.224609 0.015625)"/>
      <use xlink:href="#DejaVuSans-Oblique-50" transform="translate(775.048828 0.015625)"/>
     </g>
    </g>
    <g id="line2d_84">
     <path d="M 218.9675 58.72 
L 226.9675 58.72 
L 234.9675 58.72 
" style="fill: none; stroke: #2ca02c; stroke-width: 1.5; stroke-linecap: square"/>
    </g>
    <g id="text_12">
     <!-- closed loop $T=L/(1{+}L)$ -->
     <g transform="translate(241.3675 61.52) scale(0.08 -0.08)">
      <defs>
       <path id="DejaVuSans-63" d="M 3122 3366 
L 3122 2828 
Q 2878 2963 2633 3030 
Q 2388 3097 2138 3097 
Q 1578 3097 1268 2742 
Q 959 2388 959 1747 
Q 959 1106 1268 751 
Q 1578 397 2138 397 
Q 2388 397 2633 464 
Q 2878 531 3122 666 
L 3122 134 
Q 2881 22 2623 -34 
Q 2366 -91 2075 -91 
Q 1284 -91 818 406 
Q 353 903 353 1747 
Q 353 2603 823 3093 
Q 1294 3584 2113 3584 
Q 2378 3584 2631 3529 
Q 2884 3475 3122 3366 
z
" transform="scale(0.015625)"/>
       <path id="DejaVuSans-73" d="M 2834 3397 
L 2834 2853 
Q 2591 2978 2328 3040 
Q 2066 3103 1784 3103 
Q 1356 3103 1142 2972 
Q 928 2841 928 2578 
Q 928 2378 1081 2264 
Q 1234 2150 1697 2047 
L 1894 2003 
Q 2506 1872 2764 1633 
Q 3022 1394 3022 966 
Q 3022 478 2636 193 
Q 2250 -91 1575 -91 
Q 1294 -91 989 -36 
Q 684 19 347 128 
L 347 722 
Q 666 556 975 473 
Q 1284 391 1588 391 
Q 1994 391 2212 530 
Q 2431 669 2431 922 
Q 2431 1156 2273 1281 
Q 2116 1406 1581 1522 
L 1381 1569 
Q 847 1681 609 1914 
Q 372 2147 372 2553 
Q 372 3047 722 3315 
Q 1072 3584 1716 3584 
Q 2034 3584 2315 3537 
Q 2597 3491 2834 3397 
z
" transform="scale(0.015625)"/>
       <path id="DejaVuSans-Oblique-54" d="M 378 4666 
L 4325 4666 
L 4225 4134 
L 2559 4134 
L 1759 0 
L 1125 0 
L 1925 4134 
L 275 4134 
L 378 4666 
z
" transform="scale(0.015625)"/>
       <path id="DejaVuSans-2f" d="M 1625 4666 
L 2156 4666 
L 531 -594 
L 0 -594 
L 1625 4666 
z
" transform="scale(0.015625)"/>
       <path id="DejaVuSans-28" d="M 1984 4856 
Q 1566 4138 1362 3434 
Q 1159 2731 1159 2009 
Q 1159 1288 1364 580 
Q 1569 -128 1984 -844 
L 1484 -844 
Q 1016 -109 783 600 
Q 550 1309 550 2009 
Q 550 2706 781 3412 
Q 1013 4119 1484 4856 
L 1984 4856 
z
" transform="scale(0.015625)"/>
       <path id="DejaVuSans-2b" d="M 2944 4013 
L 2944 2272 
L 4684 2272 
L 4684 1741 
L 2944 1741 
L 2944 0 
L 2419 0 
L 2419 1741 
L 678 1741 
L 678 2272 
L 2419 2272 
L 2419 4013 
L 2944 4013 
z
" transform="scale(0.015625)"/>
       <path id="DejaVuSans-29" d="M 513 4856 
L 1013 4856 
Q 1481 4119 1714 3412 
Q 1947 2706 1947 2009 
Q 1947 1309 1714 600 
Q 1481 -109 1013 -844 
L 513 -844 
Q 928 -128 1133 580 
Q 1338 1288 1338 2009 
Q 1338 2731 1133 3434 
Q 928 4138 513 4856 
z
" transform="scale(0.015625)"/>
      </defs>
      <use xlink:href="#DejaVuSans-63" transform="translate(0 0.015625)"/>
      <use xlink:href="#DejaVuSans-6c" transform="translate(54.980469 0.015625)"/>
      <use xlink:href="#DejaVuSans-6f" transform="translate(82.763672 0.015625)"/>
      <use xlink:href="#DejaVuSans-73" transform="translate(143.945312 0.015625)"/>
      <use xlink:href="#DejaVuSans-65" transform="translate(196.044922 0.015625)"/>
      <use xlink:href="#DejaVuSans-64" transform="translate(257.568359 0.015625)"/>
      <use xlink:href="#DejaVuSans-20" transform="translate(321.044922 0.015625)"/>
      <use xlink:href="#DejaVuSans-6c" transform="translate(352.832031 0.015625)"/>
      <use xlink:href="#DejaVuSans-6f" transform="translate(380.615234 0.015625)"/>
      <use xlink:href="#DejaVuSans-6f" transform="translate(441.796875 0.015625)"/>
      <use xlink:href="#DejaVuSans-70" transform="translate(502.978516 0.015625)"/>
      <use xlink:href="#DejaVuSans-20" transform="translate(566.455078 0.015625)"/>
      <use xlink:href="#DejaVuSans-Oblique-54" transform="translate(598.242188 0.015625)"/>
      <use xlink:href="#DejaVuSans-3d" transform="translate(678.808594 0.015625)"/>
      <use xlink:href="#DejaVuSans-Oblique-4c" transform="translate(782.080078 0.015625)"/>
      <use xlink:href="#DejaVuSans-2f" transform="translate(837.792969 0.015625)"/>
      <use xlink:href="#DejaVuSans-28" transform="translate(871.484375 0.015625)"/>
      <use xlink:href="#DejaVuSans-31" transform="translate(910.498047 0.015625)"/>
      <use xlink:href="#DejaVuSans-2b" transform="translate(974.121094 0.015625)"/>
      <use xlink:href="#DejaVuSans-Oblique-4c" transform="translate(1057.910156 0.015625)"/>
      <use xlink:href="#DejaVuSans-29" transform="translate(1113.623047 0.015625)"/>
     </g>
    </g>
   </g>
  </g>
  <g id="axes_2">
   <g id="patch_8">
    <path d="M 59.375 497.356 
L 493.2 497.356 
L 493.2 268.188 
L 59.375 268.188 
z
" style="fill: #ffffff"/>
   </g>
   <g id="matplotlib.axis_3">
    <g id="xtick_31">
     <g id="line2d_85">
      <path d="M 79.094318 497.356 
L 79.094318 268.188 
" clip-path="url(#p1e819cf739)" style="fill: none; stroke: #b0b0b0; stroke-width: 0.8; stroke-linecap: square"/>
     </g>
     <g id="line2d_86">
      <g>
       <use xlink:href="#m911a2d9224" x="79.094318" y="497.356" style="stroke: #000000; stroke-width: 0.8"/>
      </g>
     </g>
     <g id="text_13">
      <!-- $\mathdefault{10^{-1}}$ -->
      <g transform="translate(67.344318 511.954438) scale(0.1 -0.1)">
       <defs>
        <path id="DejaVuSans-2212" d="M 678 2272 
L 4684 2272 
L 4684 1741 
L 678 1741 
L 678 2272 
z
" transform="scale(0.015625)"/>
       </defs>
       <use xlink:href="#DejaVuSans-31" transform="translate(0 0.684375)"/>
       <use xlink:href="#DejaVuSans-30" transform="translate(63.623047 0.684375)"/>
       <use xlink:href="#DejaVuSans-2212" transform="translate(128.203125 38.965625) scale(0.7)"/>
       <use xlink:href="#DejaVuSans-31" transform="translate(186.855469 38.965625) scale(0.7)"/>
      </g>
     </g>
    </g>
    <g id="xtick_32">
     <g id="line2d_87">
      <path d="M 208.767269 497.356 
L 208.767269 268.188 
" clip-path="url(#p1e819cf739)" style="fill: none; stroke: #b0b0b0; stroke-width: 0.8; stroke-linecap: square"/>
     </g>
     <g id="line2d_88">
      <g>
       <use xlink:href="#m911a2d9224" x="208.767269" y="497.356" style="stroke: #000000; stroke-width: 0.8"/>
      </g>
     </g>
     <g id="text_14">
      <!-- $\mathdefault{10^{0}}$ -->
      <g transform="translate(199.967269 511.954438) scale(0.1 -0.1)">
       <use xlink:href="#DejaVuSans-31" transform="translate(0 0.765625)"/>
       <use xlink:href="#DejaVuSans-30" transform="translate(63.623047 0.765625)"/>
       <use xlink:href="#DejaVuSans-30" transform="translate(128.203125 39.046875) scale(0.7)"/>
      </g>
     </g>
    </g>
    <g id="xtick_33">
     <g id="line2d_89">
      <path d="M 338.44022 497.356 
L 338.44022 268.188 
" clip-path="url(#p1e819cf739)" style="fill: none; stroke: #b0b0b0; stroke-width: 0.8; stroke-linecap: square"/>
     </g>
     <g id="line2d_90">
      <g>
       <use xlink:href="#m911a2d9224" x="338.44022" y="497.356" style="stroke: #000000; stroke-width: 0.8"/>
      </g>
     </g>
     <g id="text_15">
      <!-- $\mathdefault{10^{1}}$ -->
      <g transform="translate(329.64022 511.954438) scale(0.1 -0.1)">
       <use xlink:href="#DejaVuSans-31" transform="translate(0 0.684375)"/>
       <use xlink:href="#DejaVuSans-30" transform="translate(63.623047 0.684375)"/>
       <use xlink:href="#DejaVuSans-31" transform="translate(128.203125 38.965625) scale(0.7)"/>
      </g>
     </g>
    </g>
    <g id="xtick_34">
     <g id="line2d_91">
      <path d="M 468.11317 497.356 
L 468.11317 268.188 
" clip-path="url(#p1e819cf739)" style="fill: none; stroke: #b0b0b0; stroke-width: 0.8; stroke-linecap: square"/>
     </g>
     <g id="line2d_92">
      <g>
       <use xlink:href="#m911a2d9224" x="468.11317" y="497.356" style="stroke: #000000; stroke-width: 0.8"/>
      </g>
     </g>
     <g id="text_16">
      <!-- $\mathdefault{10^{2}}$ -->
      <g transform="translate(459.31317 511.954438) scale(0.1 -0.1)">
       <use xlink:href="#DejaVuSans-31" transform="translate(0 0.765625)"/>
       <use xlink:href="#DejaVuSans-30" transform="translate(63.623047 0.765625)"/>
       <use xlink:href="#DejaVuSans-32" transform="translate(128.203125 39.046875) scale(0.7)"/>
      </g>
     </g>
    </g>
    <g id="xtick_35">
     <g id="line2d_93">
      <path d="M 66.527711 497.356 
L 66.527711 268.188 
" clip-path="url(#p1e819cf739)" style="fill: none; stroke: #b0b0b0; stroke-width: 0.8; stroke-linecap: square"/>
     </g>
     <g id="line2d_94">
      <g>
       <use xlink:href="#m9a15792856" x="66.527711" y="497.356" style="stroke: #000000; stroke-width: 0.6"/>
      </g>
     </g>
    </g>
    <g id="xtick_36">
     <g id="line2d_95">
      <path d="M 73.160809 497.356 
L 73.160809 268.188 
" clip-path="url(#p1e819cf739)" style="fill: none; stroke: #b0b0b0; stroke-width: 0.8; stroke-linecap: square"/>
     </g>
     <g id="line2d_96">
      <g>
       <use xlink:href="#m9a15792856" x="73.160809" y="497.356" style="stroke: #000000; stroke-width: 0.6"/>
      </g>
     </g>
    </g>
    <g id="xtick_37">
     <g id="line2d_97">
      <path d="M 118.129766 497.356 
L 118.129766 268.188 
" clip-path="url(#p1e819cf739)" style="fill: none; stroke: #b0b0b0; stroke-width: 0.8; stroke-linecap: square"/>
     </g>
     <g id="line2d_98">
      <g>
       <use xlink:href="#m9a15792856" x="118.129766" y="497.356" style="stroke: #000000; stroke-width: 0.6"/>
      </g>
     </g>
    </g>
    <g id="xtick_38">
     <g id="line2d_99">
      <path d="M 140.964039 497.356 
L 140.964039 268.188 
" clip-path="url(#p1e819cf739)" style="fill: none; stroke: #b0b0b0; stroke-width: 0.8; stroke-linecap: square"/>
     </g>
     <g id="line2d_100">
      <g>
       <use xlink:href="#m9a15792856" x="140.964039" y="497.356" style="stroke: #000000; stroke-width: 0.6"/>
      </g>
     </g>
    </g>
    <g id="xtick_39">
     <g id="line2d_101">
      <path d="M 157.165214 497.356 
L 157.165214 268.188 
" clip-path="url(#p1e819cf739)" style="fill: none; stroke: #b0b0b0; stroke-width: 0.8; stroke-linecap: square"/>
     </g>
     <g id="line2d_102">
      <g>
       <use xlink:href="#m9a15792856" x="157.165214" y="497.356" style="stroke: #000000; stroke-width: 0.6"/>
      </g>
     </g>
    </g>
    <g id="xtick_40">
     <g id="line2d_103">
      <path d="M 169.731821 497.356 
L 169.731821 268.188 
" clip-path="url(#p1e819cf739)" style="fill: none; stroke: #b0b0b0; stroke-width: 0.8; stroke-linecap: square"/>
     </g>
     <g id="line2d_104">
      <g>
       <use xlink:href="#m9a15792856" x="169.731821" y="497.356" style="stroke: #000000; stroke-width: 0.6"/>
      </g>
     </g>
    </g>
    <g id="xtick_41">
     <g id="line2d_105">
      <path d="M 179.999487 497.356 
L 179.999487 268.188 
" clip-path="url(#p1e819cf739)" style="fill: none; stroke: #b0b0b0; stroke-width: 0.8; stroke-linecap: square"/>
     </g>
     <g id="line2d_106">
      <g>
       <use xlink:href="#m9a15792856" x="179.999487" y="497.356" style="stroke: #000000; stroke-width: 0.6"/>
      </g>
     </g>
    </g>
    <g id="xtick_42">
     <g id="line2d_107">
      <path d="M 188.680675 497.356 
L 188.680675 268.188 
" clip-path="url(#p1e819cf739)" style="fill: none; stroke: #b0b0b0; stroke-width: 0.8; stroke-linecap: square"/>
     </g>
     <g id="line2d_108">
      <g>
       <use xlink:href="#m9a15792856" x="188.680675" y="497.356" style="stroke: #000000; stroke-width: 0.6"/>
      </g>
     </g>
    </g>
    <g id="xtick_43">
     <g id="line2d_109">
      <path d="M 196.200662 497.356 
L 196.200662 268.188 
" clip-path="url(#p1e819cf739)" style="fill: none; stroke: #b0b0b0; stroke-width: 0.8; stroke-linecap: square"/>
     </g>
     <g id="line2d_110">
      <g>
       <use xlink:href="#m9a15792856" x="196.200662" y="497.356" style="stroke: #000000; stroke-width: 0.6"/>
      </g>
     </g>
    </g>
    <g id="xtick_44">
     <g id="line2d_111">
      <path d="M 202.83376 497.356 
L 202.83376 268.188 
" clip-path="url(#p1e819cf739)" style="fill: none; stroke: #b0b0b0; stroke-width: 0.8; stroke-linecap: square"/>
     </g>
     <g id="line2d_112">
      <g>
       <use xlink:href="#m9a15792856" x="202.83376" y="497.356" style="stroke: #000000; stroke-width: 0.6"/>
      </g>
     </g>
    </g>
    <g id="xtick_45">
     <g id="line2d_113">
      <path d="M 247.802717 497.356 
L 247.802717 268.188 
" clip-path="url(#p1e819cf739)" style="fill: none; stroke: #b0b0b0; stroke-width: 0.8; stroke-linecap: square"/>
     </g>
     <g id="line2d_114">
      <g>
       <use xlink:href="#m9a15792856" x="247.802717" y="497.356" style="stroke: #000000; stroke-width: 0.6"/>
      </g>
     </g>
    </g>
    <g id="xtick_46">
     <g id="line2d_115">
      <path d="M 270.63699 497.356 
L 270.63699 268.188 
" clip-path="url(#p1e819cf739)" style="fill: none; stroke: #b0b0b0; stroke-width: 0.8; stroke-linecap: square"/>
     </g>
     <g id="line2d_116">
      <g>
       <use xlink:href="#m9a15792856" x="270.63699" y="497.356" style="stroke: #000000; stroke-width: 0.6"/>
      </g>
     </g>
    </g>
    <g id="xtick_47">
     <g id="line2d_117">
      <path d="M 286.838164 497.356 
L 286.838164 268.188 
" clip-path="url(#p1e819cf739)" style="fill: none; stroke: #b0b0b0; stroke-width: 0.8; stroke-linecap: square"/>
     </g>
     <g id="line2d_118">
      <g>
       <use xlink:href="#m9a15792856" x="286.838164" y="497.356" style="stroke: #000000; stroke-width: 0.6"/>
      </g>
     </g>
    </g>
    <g id="xtick_48">
     <g id="line2d_119">
      <path d="M 299.404772 497.356 
L 299.404772 268.188 
" clip-path="url(#p1e819cf739)" style="fill: none; stroke: #b0b0b0; stroke-width: 0.8; stroke-linecap: square"/>
     </g>
     <g id="line2d_120">
      <g>
       <use xlink:href="#m9a15792856" x="299.404772" y="497.356" style="stroke: #000000; stroke-width: 0.6"/>
      </g>
     </g>
    </g>
    <g id="xtick_49">
     <g id="line2d_121">
      <path d="M 309.672438 497.356 
L 309.672438 268.188 
" clip-path="url(#p1e819cf739)" style="fill: none; stroke: #b0b0b0; stroke-width: 0.8; stroke-linecap: square"/>
     </g>
     <g id="line2d_122">
      <g>
       <use xlink:href="#m9a15792856" x="309.672438" y="497.356" style="stroke: #000000; stroke-width: 0.6"/>
      </g>
     </g>
    </g>
    <g id="xtick_50">
     <g id="line2d_123">
      <path d="M 318.353625 497.356 
L 318.353625 268.188 
" clip-path="url(#p1e819cf739)" style="fill: none; stroke: #b0b0b0; stroke-width: 0.8; stroke-linecap: square"/>
     </g>
     <g id="line2d_124">
      <g>
       <use xlink:href="#m9a15792856" x="318.353625" y="497.356" style="stroke: #000000; stroke-width: 0.6"/>
      </g>
     </g>
    </g>
    <g id="xtick_51">
     <g id="line2d_125">
      <path d="M 325.873612 497.356 
L 325.873612 268.188 
" clip-path="url(#p1e819cf739)" style="fill: none; stroke: #b0b0b0; stroke-width: 0.8; stroke-linecap: square"/>
     </g>
     <g id="line2d_126">
      <g>
       <use xlink:href="#m9a15792856" x="325.873612" y="497.356" style="stroke: #000000; stroke-width: 0.6"/>
      </g>
     </g>
    </g>
    <g id="xtick_52">
     <g id="line2d_127">
      <path d="M 332.506711 497.356 
L 332.506711 268.188 
" clip-path="url(#p1e819cf739)" style="fill: none; stroke: #b0b0b0; stroke-width: 0.8; stroke-linecap: square"/>
     </g>
     <g id="line2d_128">
      <g>
       <use xlink:href="#m9a15792856" x="332.506711" y="497.356" style="stroke: #000000; stroke-width: 0.6"/>
      </g>
     </g>
    </g>
    <g id="xtick_53">
     <g id="line2d_129">
      <path d="M 377.475667 497.356 
L 377.475667 268.188 
" clip-path="url(#p1e819cf739)" style="fill: none; stroke: #b0b0b0; stroke-width: 0.8; stroke-linecap: square"/>
     </g>
     <g id="line2d_130">
      <g>
       <use xlink:href="#m9a15792856" x="377.475667" y="497.356" style="stroke: #000000; stroke-width: 0.6"/>
      </g>
     </g>
    </g>
    <g id="xtick_54">
     <g id="line2d_131">
      <path d="M 400.30994 497.356 
L 400.30994 268.188 
" clip-path="url(#p1e819cf739)" style="fill: none; stroke: #b0b0b0; stroke-width: 0.8; stroke-linecap: square"/>
     </g>
     <g id="line2d_132">
      <g>
       <use xlink:href="#m9a15792856" x="400.30994" y="497.356" style="stroke: #000000; stroke-width: 0.6"/>
      </g>
     </g>
    </g>
    <g id="xtick_55">
     <g id="line2d_133">
      <path d="M 416.511115 497.356 
L 416.511115 268.188 
" clip-path="url(#p1e819cf739)" style="fill: none; stroke: #b0b0b0; stroke-width: 0.8; stroke-linecap: square"/>
     </g>
     <g id="line2d_134">
      <g>
       <use xlink:href="#m9a15792856" x="416.511115" y="497.356" style="stroke: #000000; stroke-width: 0.6"/>
      </g>
     </g>
    </g>
    <g id="xtick_56">
     <g id="line2d_135">
      <path d="M 429.077722 497.356 
L 429.077722 268.188 
" clip-path="url(#p1e819cf739)" style="fill: none; stroke: #b0b0b0; stroke-width: 0.8; stroke-linecap: square"/>
     </g>
     <g id="line2d_136">
      <g>
       <use xlink:href="#m9a15792856" x="429.077722" y="497.356" style="stroke: #000000; stroke-width: 0.6"/>
      </g>
     </g>
    </g>
    <g id="xtick_57">
     <g id="line2d_137">
      <path d="M 439.345388 497.356 
L 439.345388 268.188 
" clip-path="url(#p1e819cf739)" style="fill: none; stroke: #b0b0b0; stroke-width: 0.8; stroke-linecap: square"/>
     </g>
     <g id="line2d_138">
      <g>
       <use xlink:href="#m9a15792856" x="439.345388" y="497.356" style="stroke: #000000; stroke-width: 0.6"/>
      </g>
     </g>
    </g>
    <g id="xtick_58">
     <g id="line2d_139">
      <path d="M 448.026576 497.356 
L 448.026576 268.188 
" clip-path="url(#p1e819cf739)" style="fill: none; stroke: #b0b0b0; stroke-width: 0.8; stroke-linecap: square"/>
     </g>
     <g id="line2d_140">
      <g>
       <use xlink:href="#m9a15792856" x="448.026576" y="497.356" style="stroke: #000000; stroke-width: 0.6"/>
      </g>
     </g>
    </g>
    <g id="xtick_59">
     <g id="line2d_141">
      <path d="M 455.546563 497.356 
L 455.546563 268.188 
" clip-path="url(#p1e819cf739)" style="fill: none; stroke: #b0b0b0; stroke-width: 0.8; stroke-linecap: square"/>
     </g>
     <g id="line2d_142">
      <g>
       <use xlink:href="#m9a15792856" x="455.546563" y="497.356" style="stroke: #000000; stroke-width: 0.6"/>
      </g>
     </g>
    </g>
    <g id="xtick_60">
     <g id="line2d_143">
      <path d="M 462.179661 497.356 
L 462.179661 268.188 
" clip-path="url(#p1e819cf739)" style="fill: none; stroke: #b0b0b0; stroke-width: 0.8; stroke-linecap: square"/>
     </g>
     <g id="line2d_144">
      <g>
       <use xlink:href="#m9a15792856" x="462.179661" y="497.356" style="stroke: #000000; stroke-width: 0.6"/>
      </g>
     </g>
    </g>
    <g id="text_17">
     <!-- frequency  [Hz] -->
     <g transform="translate(237.746875 525.632563) scale(0.1 -0.1)">
      <defs>
       <path id="DejaVuSans-66" d="M 2375 4863 
L 2375 4384 
L 1825 4384 
Q 1516 4384 1395 4259 
Q 1275 4134 1275 3809 
L 1275 3500 
L 2222 3500 
L 2222 3053 
L 1275 3053 
L 1275 0 
L 697 0 
L 697 3053 
L 147 3053 
L 147 3500 
L 697 3500 
L 697 3744 
Q 697 4328 969 4595 
Q 1241 4863 1831 4863 
L 2375 4863 
z
" transform="scale(0.015625)"/>
       <path id="DejaVuSans-72" d="M 2631 2963 
Q 2534 3019 2420 3045 
Q 2306 3072 2169 3072 
Q 1681 3072 1420 2755 
Q 1159 2438 1159 1844 
L 1159 0 
L 581 0 
L 581 3500 
L 1159 3500 
L 1159 2956 
Q 1341 3275 1631 3429 
Q 1922 3584 2338 3584 
Q 2397 3584 2469 3576 
Q 2541 3569 2628 3553 
L 2631 2963 
z
" transform="scale(0.015625)"/>
       <path id="DejaVuSans-71" d="M 947 1747 
Q 947 1113 1208 752 
Q 1469 391 1925 391 
Q 2381 391 2643 752 
Q 2906 1113 2906 1747 
Q 2906 2381 2643 2742 
Q 2381 3103 1925 3103 
Q 1469 3103 1208 2742 
Q 947 2381 947 1747 
z
M 2906 525 
Q 2725 213 2448 61 
Q 2172 -91 1784 -91 
Q 1150 -91 751 415 
Q 353 922 353 1747 
Q 353 2572 751 3078 
Q 1150 3584 1784 3584 
Q 2172 3584 2448 3432 
Q 2725 3281 2906 2969 
L 2906 3500 
L 3481 3500 
L 3481 -1331 
L 2906 -1331 
L 2906 525 
z
" transform="scale(0.015625)"/>
       <path id="DejaVuSans-79" d="M 2059 -325 
Q 1816 -950 1584 -1140 
Q 1353 -1331 966 -1331 
L 506 -1331 
L 506 -850 
L 844 -850 
Q 1081 -850 1212 -737 
Q 1344 -625 1503 -206 
L 1606 56 
L 191 3500 
L 800 3500 
L 1894 763 
L 2988 3500 
L 3597 3500 
L 2059 -325 
z
" transform="scale(0.015625)"/>
      </defs>
      <use xlink:href="#DejaVuSans-66"/>
      <use xlink:href="#DejaVuSans-72" transform="translate(35.205078 0)"/>
      <use xlink:href="#DejaVuSans-65" transform="translate(74.068359 0)"/>
      <use xlink:href="#DejaVuSans-71" transform="translate(135.591797 0)"/>
      <use xlink:href="#DejaVuSans-75" transform="translate(199.068359 0)"/>
      <use xlink:href="#DejaVuSans-65" transform="translate(262.447266 0)"/>
      <use xlink:href="#DejaVuSans-6e" transform="translate(323.970703 0)"/>
      <use xlink:href="#DejaVuSans-63" transform="translate(387.349609 0)"/>
      <use xlink:href="#DejaVuSans-79" transform="translate(442.330078 0)"/>
      <use xlink:href="#DejaVuSans-20" transform="translate(501.509766 0)"/>
      <use xlink:href="#DejaVuSans-20" transform="translate(533.296875 0)"/>
      <use xlink:href="#DejaVuSans-5b" transform="translate(565.083984 0)"/>
      <use xlink:href="#DejaVuSans-48" transform="translate(604.097656 0)"/>
      <use xlink:href="#DejaVuSans-7a" transform="translate(679.292969 0)"/>
      <use xlink:href="#DejaVuSans-5d" transform="translate(731.783203 0)"/>
     </g>
    </g>
   </g>
   <g id="matplotlib.axis_4">
    <g id="ytick_8">
     <g id="line2d_145">
      <path d="M 59.375 468.985618 
L 493.2 468.985618 
" clip-path="url(#p1e819cf739)" style="fill: none; stroke: #b0b0b0; stroke-width: 0.8; stroke-linecap: square"/>
     </g>
     <g id="line2d_146">
      <g>
       <use xlink:href="#m993bcba3f9" x="59.375" y="468.985618" style="stroke: #000000; stroke-width: 0.8"/>
      </g>
     </g>
     <g id="text_18">
      <!-- −150 -->
      <g transform="translate(24.907813 472.784837) scale(0.1 -0.1)">
       <use xlink:href="#DejaVuSans-2212"/>
       <use xlink:href="#DejaVuSans-31" transform="translate(83.789062 0)"/>
       <use xlink:href="#DejaVuSans-35" transform="translate(147.412109 0)"/>
       <use xlink:href="#DejaVuSans-30" transform="translate(211.035156 0)"/>
      </g>
     </g>
    </g>
    <g id="ytick_9">
     <g id="line2d_147">
      <path d="M 59.375 439.06286 
L 493.2 439.06286 
" clip-path="url(#p1e819cf739)" style="fill: none; stroke: #b0b0b0; stroke-width: 0.8; stroke-linecap: square"/>
     </g>
     <g id="line2d_148">
      <g>
       <use xlink:href="#m993bcba3f9" x="59.375" y="439.06286" style="stroke: #000000; stroke-width: 0.8"/>
      </g>
     </g>
     <g id="text_19">
      <!-- −100 -->
      <g transform="translate(24.907813 442.862078) scale(0.1 -0.1)">
       <use xlink:href="#DejaVuSans-2212"/>
       <use xlink:href="#DejaVuSans-31" transform="translate(83.789062 0)"/>
       <use xlink:href="#DejaVuSans-30" transform="translate(147.412109 0)"/>
       <use xlink:href="#DejaVuSans-30" transform="translate(211.035156 0)"/>
      </g>
     </g>
    </g>
    <g id="ytick_10">
     <g id="line2d_149">
      <path d="M 59.375 409.140101 
L 493.2 409.140101 
" clip-path="url(#p1e819cf739)" style="fill: none; stroke: #b0b0b0; stroke-width: 0.8; stroke-linecap: square"/>
     </g>
     <g id="line2d_150">
      <g>
       <use xlink:href="#m993bcba3f9" x="59.375" y="409.140101" style="stroke: #000000; stroke-width: 0.8"/>
      </g>
     </g>
     <g id="text_20">
      <!-- −50 -->
      <g transform="translate(31.270313 412.93932) scale(0.1 -0.1)">
       <use xlink:href="#DejaVuSans-2212"/>
       <use xlink:href="#DejaVuSans-35" transform="translate(83.789062 0)"/>
       <use xlink:href="#DejaVuSans-30" transform="translate(147.412109 0)"/>
      </g>
     </g>
    </g>
    <g id="ytick_11">
     <g id="line2d_151">
      <path d="M 59.375 379.217343 
L 493.2 379.217343 
" clip-path="url(#p1e819cf739)" style="fill: none; stroke: #b0b0b0; stroke-width: 0.8; stroke-linecap: square"/>
     </g>
     <g id="line2d_152">
      <g>
       <use xlink:href="#m993bcba3f9" x="59.375" y="379.217343" style="stroke: #000000; stroke-width: 0.8"/>
      </g>
     </g>
     <g id="text_21">
      <!-- 0 -->
      <g transform="translate(46.0125 383.016562) scale(0.1 -0.1)">
       <use xlink:href="#DejaVuSans-30"/>
      </g>
     </g>
    </g>
    <g id="ytick_12">
     <g id="line2d_153">
      <path d="M 59.375 349.294585 
L 493.2 349.294585 
" clip-path="url(#p1e819cf739)" style="fill: none; stroke: #b0b0b0; stroke-width: 0.8; stroke-linecap: square"/>
     </g>
     <g id="line2d_154">
      <g>
       <use xlink:href="#m993bcba3f9" x="59.375" y="349.294585" style="stroke: #000000; stroke-width: 0.8"/>
      </g>
     </g>
     <g id="text_22">
      <!-- 50 -->
      <g transform="translate(39.65 353.093804) scale(0.1 -0.1)">
       <use xlink:href="#DejaVuSans-35"/>
       <use xlink:href="#DejaVuSans-30" transform="translate(63.623047 0)"/>
      </g>
     </g>
    </g>
    <g id="ytick_13">
     <g id="line2d_155">
      <path d="M 59.375 319.371827 
L 493.2 319.371827 
" clip-path="url(#p1e819cf739)" style="fill: none; stroke: #b0b0b0; stroke-width: 0.8; stroke-linecap: square"/>
     </g>
     <g id="line2d_156">
      <g>
       <use xlink:href="#m993bcba3f9" x="59.375" y="319.371827" style="stroke: #000000; stroke-width: 0.8"/>
      </g>
     </g>
     <g id="text_23">
      <!-- 100 -->
      <g transform="translate(33.2875 323.171046) scale(0.1 -0.1)">
       <use xlink:href="#DejaVuSans-31"/>
       <use xlink:href="#DejaVuSans-30" transform="translate(63.623047 0)"/>
       <use xlink:href="#DejaVuSans-30" transform="translate(127.246094 0)"/>
      </g>
     </g>
    </g>
    <g id="ytick_14">
     <g id="line2d_157">
      <path d="M 59.375 289.449069 
L 493.2 289.449069 
" clip-path="url(#p1e819cf739)" style="fill: none; stroke: #b0b0b0; stroke-width: 0.8; stroke-linecap: square"/>
     </g>
     <g id="line2d_158">
      <g>
       <use xlink:href="#m993bcba3f9" x="59.375" y="289.449069" style="stroke: #000000; stroke-width: 0.8"/>
      </g>
     </g>
     <g id="text_24">
      <!-- 150 -->
      <g transform="translate(33.2875 293.248288) scale(0.1 -0.1)">
       <use xlink:href="#DejaVuSans-31"/>
       <use xlink:href="#DejaVuSans-35" transform="translate(63.623047 0)"/>
       <use xlink:href="#DejaVuSans-30" transform="translate(127.246094 0)"/>
      </g>
     </g>
    </g>
    <g id="text_25">
     <!-- phase  [deg] -->
     <g transform="translate(18.828125 414.364969) rotate(-90) scale(0.1 -0.1)">
      <defs>
       <path id="DejaVuSans-68" d="M 3513 2113 
L 3513 0 
L 2938 0 
L 2938 2094 
Q 2938 2591 2744 2837 
Q 2550 3084 2163 3084 
Q 1697 3084 1428 2787 
Q 1159 2491 1159 1978 
L 1159 0 
L 581 0 
L 581 4863 
L 1159 4863 
L 1159 2956 
Q 1366 3272 1645 3428 
Q 1925 3584 2291 3584 
Q 2894 3584 3203 3211 
Q 3513 2838 3513 2113 
z
" transform="scale(0.015625)"/>
      </defs>
      <use xlink:href="#DejaVuSans-70"/>
      <use xlink:href="#DejaVuSans-68" transform="translate(63.476562 0)"/>
      <use xlink:href="#DejaVuSans-61" transform="translate(126.855469 0)"/>
      <use xlink:href="#DejaVuSans-73" transform="translate(188.134766 0)"/>
      <use xlink:href="#DejaVuSans-65" transform="translate(240.234375 0)"/>
      <use xlink:href="#DejaVuSans-20" transform="translate(301.757812 0)"/>
      <use xlink:href="#DejaVuSans-20" transform="translate(333.544922 0)"/>
      <use xlink:href="#DejaVuSans-5b" transform="translate(365.332031 0)"/>
      <use xlink:href="#DejaVuSans-64" transform="translate(404.345703 0)"/>
      <use xlink:href="#DejaVuSans-65" transform="translate(467.822266 0)"/>
      <use xlink:href="#DejaVuSans-67" transform="translate(529.345703 0)"/>
      <use xlink:href="#DejaVuSans-5d" transform="translate(592.822266 0)"/>
     </g>
    </g>
   </g>
   <g id="line2d_159">
    <path d="M 79.094318 433.059221 
L 201.415251 432.9071 
L 247.976123 432.648693 
L 271.651142 432.316978 
L 285.658862 431.916887 
L 294.931578 431.444121 
L 301.442208 430.903616 
L 306.374504 430.277111 
L 310.123048 429.58123 
L 313.082426 428.808903 
L 315.449928 427.966303 
L 317.422846 427.030274 
L 319.001181 426.054775 
L 320.382223 424.962456 
L 321.565974 423.775924 
L 322.749725 422.263039 
L 323.736185 420.652365 
L 324.722644 418.591138 
L 325.511811 416.491863 
L 326.300978 413.840211 
L 327.090146 410.437151 
L 327.879313 406.020408 
L 328.66848 400.295653 
L 329.654939 391.050851 
L 332.614317 360.619436 
L 333.403484 355.25975 
L 334.192651 351.135359 
L 334.981819 347.952724 
L 335.968278 344.929285 
L 336.954737 342.651126 
L 337.941196 340.891164 
L 339.124947 339.257605 
L 340.308698 337.9925 
L 341.689741 336.843514 
L 343.268076 335.834044 
L 345.043702 334.968706 
L 347.213912 334.179317 
L 349.778706 333.505824 
L 352.738083 332.964572 
L 356.289336 332.540288 
L 360.629756 332.248586 
L 365.759344 332.128163 
L 371.678099 332.213513 
L 377.991437 332.525511 
L 384.304776 333.058357 
L 390.223531 333.781266 
L 395.353118 334.621772 
L 399.89083 335.578045 
L 403.836667 336.621529 
L 407.38792 337.781822 
L 410.544589 339.043317 
L 413.306674 340.377885 
L 415.871468 341.865496 
L 418.23897 343.509798 
L 420.40918 345.306919 
L 422.382098 347.241881 
L 424.157725 349.285062 
L 425.933351 351.674271 
L 427.708978 354.475646 
L 429.287312 357.367413 
L 431.062939 361.127112 
L 432.838565 365.45227 
L 434.811484 370.88296 
L 437.573569 379.241925 
L 441.322114 390.503421 
L 443.295032 395.734364 
L 445.070659 399.859148 
L 446.846285 403.425938 
L 448.621912 406.479882 
L 450.397538 409.086586 
L 452.173164 411.314575 
L 454.146083 413.422053 
L 456.119001 415.212683 
L 458.289211 416.887261 
L 460.656713 418.432209 
L 463.221507 419.843666 
L 466.180884 421.208047 
L 469.534845 422.491332 
L 473.28339 423.675221 
L 473.480682 423.731508 
L 473.480682 423.731508 
" clip-path="url(#p1e819cf739)" style="fill: none; stroke: #1f77b4; stroke-width: 1.2; stroke-linecap: square"/>
   </g>
   <g id="line2d_160">
    <path d="M 79.094318 430.53621 
L 89.550785 423.396878 
L 96.850583 418.684312 
L 103.163921 414.866412 
L 109.279968 411.428532 
L 115.198723 408.35829 
L 121.117477 405.541082 
L 127.036232 402.969474 
L 133.152279 400.55686 
L 139.465617 398.309476 
L 145.976248 396.229282 
L 152.881462 394.261782 
L 159.983968 392.467987 
L 167.678349 390.757934 
L 175.767314 389.189582 
L 184.448154 387.733087 
L 193.918162 386.372909 
L 204.177337 385.125824 
L 215.620263 383.963256 
L 228.444232 382.888266 
L 243.438411 381.860333 
L 263.562177 380.7219 
L 289.012823 379.262763 
L 297.693663 378.540169 
L 303.612418 377.839435 
L 307.952838 377.117488 
L 311.306799 376.349675 
L 314.068885 375.492045 
L 316.239095 374.594369 
L 318.014722 373.638351 
L 319.593056 372.542327 
L 320.974099 371.307811 
L 322.15785 369.95621 
L 323.144309 368.539137 
L 324.130768 366.753623 
L 325.117227 364.45063 
L 325.906395 362.086324 
L 326.695562 359.078083 
L 327.484729 355.194911 
L 328.273897 350.1499 
L 329.063064 343.675025 
L 330.049523 333.581768 
L 332.022441 312.36894 
L 333.0089 304.524027 
L 333.798068 299.810594 
L 334.587235 296.183354 
L 335.573694 292.762666 
L 336.560153 290.20904 
L 337.546613 288.253174 
L 338.730363 286.452008 
L 339.914114 285.066552 
L 341.295157 283.81493 
L 342.873492 282.719659 
L 344.649118 281.782822 
L 346.622037 280.995476 
L 348.989539 280.293544 
L 351.751624 279.704619 
L 355.105585 279.216247 
L 359.248714 278.84637 
L 364.181009 278.638088 
L 369.902472 278.625799 
L 376.215811 278.841804 
L 382.529149 279.28088 
L 388.447904 279.909238 
L 393.774783 280.68804 
L 398.509787 281.594656 
L 402.652916 282.602848 
L 406.40146 283.741937 
L 409.55813 284.919877 
L 412.517507 286.260827 
L 415.082301 287.661493 
L 417.449803 289.205706 
L 419.620013 290.888889 
L 421.592931 292.696546 
L 423.368558 294.601214 
L 425.144184 296.825012 
L 426.91981 299.430949 
L 428.498145 302.12358 
L 430.07648 305.218915 
L 431.852106 309.225443 
L 433.627733 313.794087 
L 435.797943 320.037023 
L 442.505865 339.947765 
L 444.478783 344.771808 
L 446.25441 348.518655 
L 448.030036 351.734237 
L 449.805662 354.479813 
L 451.581289 356.824264 
L 453.554207 359.037869 
L 455.527125 360.914185 
L 457.697336 362.664147 
L 460.064838 364.273825 
L 462.629631 365.739829 
L 465.391717 367.066033 
L 468.548386 368.333448 
L 472.099639 369.517001 
L 473.480682 369.921572 
L 473.480682 369.921572 
" clip-path="url(#p1e819cf739)" style="fill: none; stroke: #ff7f0e; stroke-width: 1.5; stroke-linecap: square"/>
   </g>
   <g id="line2d_161">
    <path d="M 59.375 486.939273 
L 493.2 486.939273 
" clip-path="url(#p1e819cf739)" style="fill: none; stroke-dasharray: 2.96,1.28; stroke-dashoffset: 0; stroke: #ff0000; stroke-width: 0.8"/>
   </g>
   <g id="patch_9">
    <path d="M 59.375 497.356 
L 59.375 268.188 
" style="fill: none; stroke: #000000; stroke-width: 0.8; stroke-linejoin: miter; stroke-linecap: square"/>
   </g>
   <g id="patch_10">
    <path d="M 493.2 497.356 
L 493.2 268.188 
" style="fill: none; stroke: #000000; stroke-width: 0.8; stroke-linejoin: miter; stroke-linecap: square"/>
   </g>
   <g id="patch_11">
    <path d="M 59.375 497.356 
L 493.2 497.356 
" style="fill: none; stroke: #000000; stroke-width: 0.8; stroke-linejoin: miter; stroke-linecap: square"/>
   </g>
   <g id="patch_12">
    <path d="M 59.375 268.188 
L 493.2 268.188 
" style="fill: none; stroke: #000000; stroke-width: 0.8; stroke-linejoin: miter; stroke-linecap: square"/>
   </g>
  </g>
 </g>
 <defs>
  <clipPath id="p6d39f9b75f">
   <rect x="59.375" y="24.72" width="433.825" height="229.168"/>
  </clipPath>
  <clipPath id="p1e819cf739">
   <rect x="59.375" y="268.188" width="433.825" height="229.168"/>
  </clipPath>
 </defs>
</svg>
