<?xml version="1.0" encoding="utf-8" standalone="no"?>
<!DOCTYPE svg PUBLIC "-//W3C//DTD SVG 1.1//EN"
  "http://www.w3.org/Graphics/SVG/1.1/DTD/svg11.dtd">
<svg xmlns:xlink="http://www.w3.org/1999/xlink" width="504pt" height="540pt" viewBox="0 0 504 540" xmlns="http://www.w3.org/2000/svg" version="1.1">
 <metadata>
  <rdf:RDF xmlns:dc="http://purl.org/dc/elements/1.1/" xmlns:cc="http://creativecommons.org/ns#" xmlns:rdf="http://www.w3.org/1999/02/22-rdf-syntax-ns#">
   <cc:Work>
    <dc:type rdf:resource="http://purl.org/dc/dcmitype/StillImage"/>
    <dc:date>2026-06-20T20:06:49.175055</dc:date>
    <dc:format>image/svg+xml</dc:format>
    <dc:creator>
     <cc:Agent>
      <dc:title>Matplotlib v3.10.9, https://matplotlib.org/</dc:title>
     </cc:Agent>
    </dc:creator>
   </cc:Work>
  </rdf:RDF>
 </metadata>
 <defs>
  <style type="text/css">*{stroke-linejoin: round; stroke-linecap: butt}</style>
 </defs>
 <g id="figure_1">
  <g id="patch_1">
   <path d="M 0 540 
L 504 540 
L 504 0 
L 0 0 
z
" style="fill: #ffffff"/>
  </g>
  <g id="axes_1">
   <g id="patch_2">
    <path d="M 59.375 251.498 
L 493.2 251.498 
L 493.2 22.56 
L 59.375 22.56 
z
" style="fill: #ffffff"/>
   </g>
   <g id="matplotlib.axis_1">
    <g id="xtick_1">
     <g id="line2d_1">
      <path d="M 108.77485 251.498 
L 108.77485 22.56 
" clip-path="url(#pc7a3b6c993)" style="fill: none; stroke: #b0b0b0; stroke-width: 0.8; stroke-linecap: square"/>
     </g>
     <g id="line2d_2">
      <defs>
       <path id="m51056c22f0" d="M 0 0 
L 0 3.5 
" style="stroke: #000000; stroke-width: 0.8"/>
      </defs>
      <g>
       <use xlink:href="#m51056c22f0" x="108.77485" y="251.498" style="stroke: #000000; stroke-width: 0.8"/>
      </g>
     </g>
    </g>
    <g id="xtick_2">
     <g id="line2d_3">
      <path d="M 207.37144 251.498 
L 207.37144 22.56 
" clip-path="url(#pc7a3b6c993)" style="fill: none; stroke: #b0b0b0; stroke-width: 0.8; stroke-linecap: square"/>
     </g>
     <g id="line2d_4">
      <g>
       <use xlink:href="#m51056c22f0" x="207.37144" y="251.498" style="stroke: #000000; stroke-width: 0.8"/>
      </g>
     </g>
    </g>
    <g id="xtick_3">
     <g id="line2d_5">
      <path d="M 305.968031 251.498 
L 305.968031 22.56 
" clip-path="url(#pc7a3b6c993)" style="fill: none; stroke: #b0b0b0; stroke-width: 0.8; stroke-linecap: square"/>
     </g>
     <g id="line2d_6">
      <g>
       <use xlink:href="#m51056c22f0" x="305.968031" y="251.498" style="stroke: #000000; stroke-width: 0.8"/>
      </g>
     </g>
    </g>
    <g id="xtick_4">
     <g id="line2d_7">
      <path d="M 404.564622 251.498 
L 404.564622 22.56 
" clip-path="url(#pc7a3b6c993)" style="fill: none; stroke: #b0b0b0; stroke-width: 0.8; stroke-linecap: square"/>
     </g>
     <g id="line2d_8">
      <g>
       <use xlink:href="#m51056c22f0" x="404.564622" y="251.498" style="stroke: #000000; stroke-width: 0.8"/>
      </g>
     </g>
    </g>
    <g id="xtick_5">
     <g id="line2d_9">
      <path d="M 69.539321 251.498 
L 69.539321 22.56 
" clip-path="url(#pc7a3b6c993)" style="fill: none; stroke: #b0b0b0; stroke-width: 0.8; stroke-linecap: square"/>
     </g>
     <g id="line2d_10">
      <defs>
       <path id="mf9a3423fe8" d="M 0 0 
L 0 2 
" style="stroke: #000000; stroke-width: 0.6"/>
      </defs>
      <g>
       <use xlink:href="#mf9a3423fe8" x="69.539321" y="251.498" style="stroke: #000000; stroke-width: 0.6"/>
      </g>
     </g>
    </g>
    <g id="xtick_6">
     <g id="line2d_11">
      <path d="M 79.094318 251.498 
L 79.094318 22.56 
" clip-path="url(#pc7a3b6c993)" style="fill: none; stroke: #b0b0b0; stroke-width: 0.8; stroke-linecap: square"/>
     </g>
     <g id="line2d_12">
      <g>
       <use xlink:href="#mf9a3423fe8" x="79.094318" y="251.498" style="stroke: #000000; stroke-width: 0.6"/>
      </g>
     </g>
    </g>
    <g id="xtick_7">
     <g id="line2d_13">
      <path d="M 86.901319 251.498 
L 86.901319 22.56 
" clip-path="url(#pc7a3b6c993)" style="fill: none; stroke: #b0b0b0; stroke-width: 0.8; stroke-linecap: square"/>
     </g>
     <g id="line2d_14">
      <g>
       <use xlink:href="#mf9a3423fe8" x="86.901319" y="251.498" style="stroke: #000000; stroke-width: 0.6"/>
      </g>
     </g>
    </g>
    <g id="xtick_8">
     <g id="line2d_15">
      <path d="M 93.502044 251.498 
L 93.502044 22.56 
" clip-path="url(#pc7a3b6c993)" style="fill: none; stroke: #b0b0b0; stroke-width: 0.8; stroke-linecap: square"/>
     </g>
     <g id="line2d_16">
      <g>
       <use xlink:href="#mf9a3423fe8" x="93.502044" y="251.498" style="stroke: #000000; stroke-width: 0.6"/>
      </g>
     </g>
    </g>
    <g id="xtick_9">
     <g id="line2d_17">
      <path d="M 99.219853 251.498 
L 99.219853 22.56 
" clip-path="url(#pc7a3b6c993)" style="fill: none; stroke: #b0b0b0; stroke-width: 0.8; stroke-linecap: square"/>
     </g>
     <g id="line2d_18">
      <g>
       <use xlink:href="#mf9a3423fe8" x="99.219853" y="251.498" style="stroke: #000000; stroke-width: 0.6"/>
      </g>
     </g>
    </g>
    <g id="xtick_10">
     <g id="line2d_19">
      <path d="M 104.263317 251.498 
L 104.263317 22.56 
" clip-path="url(#pc7a3b6c993)" style="fill: none; stroke: #b0b0b0; stroke-width: 0.8; stroke-linecap: square"/>
     </g>
     <g id="line2d_20">
      <g>
       <use xlink:href="#mf9a3423fe8" x="104.263317" y="251.498" style="stroke: #000000; stroke-width: 0.6"/>
      </g>
     </g>
    </g>
    <g id="xtick_11">
     <g id="line2d_21">
      <path d="M 138.455381 251.498 
L 138.455381 22.56 
" clip-path="url(#pc7a3b6c993)" style="fill: none; stroke: #b0b0b0; stroke-width: 0.8; stroke-linecap: square"/>
     </g>
     <g id="line2d_22">
      <g>
       <use xlink:href="#mf9a3423fe8" x="138.455381" y="251.498" style="stroke: #000000; stroke-width: 0.6"/>
      </g>
     </g>
    </g>
    <g id="xtick_12">
     <g id="line2d_23">
      <path d="M 155.817379 251.498 
L 155.817379 22.56 
" clip-path="url(#pc7a3b6c993)" style="fill: none; stroke: #b0b0b0; stroke-width: 0.8; stroke-linecap: square"/>
     </g>
     <g id="line2d_24">
      <g>
       <use xlink:href="#mf9a3423fe8" x="155.817379" y="251.498" style="stroke: #000000; stroke-width: 0.6"/>
      </g>
     </g>
    </g>
    <g id="xtick_13">
     <g id="line2d_25">
      <path d="M 168.135912 251.498 
L 168.135912 22.56 
" clip-path="url(#pc7a3b6c993)" style="fill: none; stroke: #b0b0b0; stroke-width: 0.8; stroke-linecap: square"/>
     </g>
     <g id="line2d_26">
      <g>
       <use xlink:href="#mf9a3423fe8" x="168.135912" y="251.498" style="stroke: #000000; stroke-width: 0.6"/>
      </g>
     </g>
    </g>
    <g id="xtick_14">
     <g id="line2d_27">
      <path d="M 177.690909 251.498 
L 177.690909 22.56 
" clip-path="url(#pc7a3b6c993)" style="fill: none; stroke: #b0b0b0; stroke-width: 0.8; stroke-linecap: square"/>
     </g>
     <g id="line2d_28">
      <g>
       <use xlink:href="#mf9a3423fe8" x="177.690909" y="251.498" style="stroke: #000000; stroke-width: 0.6"/>
      </g>
     </g>
    </g>
    <g id="xtick_15">
     <g id="line2d_29">
      <path d="M 185.49791 251.498 
L 185.49791 22.56 
" clip-path="url(#pc7a3b6c993)" style="fill: none; stroke: #b0b0b0; stroke-width: 0.8; stroke-linecap: square"/>
     </g>
     <g id="line2d_30">
      <g>
       <use xlink:href="#mf9a3423fe8" x="185.49791" y="251.498" style="stroke: #000000; stroke-width: 0.6"/>
      </g>
     </g>
    </g>
    <g id="xtick_16">
     <g id="line2d_31">
      <path d="M 192.098635 251.498 
L 192.098635 22.56 
" clip-path="url(#pc7a3b6c993)" style="fill: none; stroke: #b0b0b0; stroke-width: 0.8; stroke-linecap: square"/>
     </g>
     <g id="line2d_32">
      <g>
       <use xlink:href="#mf9a3423fe8" x="192.098635" y="251.498" style="stroke: #000000; stroke-width: 0.6"/>
      </g>
     </g>
    </g>
    <g id="xtick_17">
     <g id="line2d_33">
      <path d="M 197.816444 251.498 
L 197.816444 22.56 
" clip-path="url(#pc7a3b6c993)" style="fill: none; stroke: #b0b0b0; stroke-width: 0.8; stroke-linecap: square"/>
     </g>
     <g id="line2d_34">
      <g>
       <use xlink:href="#mf9a3423fe8" x="197.816444" y="251.498" style="stroke: #000000; stroke-width: 0.6"/>
      </g>
     </g>
    </g>
    <g id="xtick_18">
     <g id="line2d_35">
      <path d="M 202.859908 251.498 
L 202.859908 22.56 
" clip-path="url(#pc7a3b6c993)" style="fill: none; stroke: #b0b0b0; stroke-width: 0.8; stroke-linecap: square"/>
     </g>
     <g id="line2d_36">
      <g>
       <use xlink:href="#mf9a3423fe8" x="202.859908" y="251.498" style="stroke: #000000; stroke-width: 0.6"/>
      </g>
     </g>
    </g>
    <g id="xtick_19">
     <g id="line2d_37">
      <path d="M 237.051972 251.498 
L 237.051972 22.56 
" clip-path="url(#pc7a3b6c993)" style="fill: none; stroke: #b0b0b0; stroke-width: 0.8; stroke-linecap: square"/>
     </g>
     <g id="line2d_38">
      <g>
       <use xlink:href="#mf9a3423fe8" x="237.051972" y="251.498" style="stroke: #000000; stroke-width: 0.6"/>
      </g>
     </g>
    </g>
    <g id="xtick_20">
     <g id="line2d_39">
      <path d="M 254.41397 251.498 
L 254.41397 22.56 
" clip-path="url(#pc7a3b6c993)" style="fill: none; stroke: #b0b0b0; stroke-width: 0.8; stroke-linecap: square"/>
     </g>
     <g id="line2d_40">
      <g>
       <use xlink:href="#mf9a3423fe8" x="254.41397" y="251.498" style="stroke: #000000; stroke-width: 0.6"/>
      </g>
     </g>
    </g>
    <g id="xtick_21">
     <g id="line2d_41">
      <path d="M 266.732503 251.498 
L 266.732503 22.56 
" clip-path="url(#pc7a3b6c993)" style="fill: none; stroke: #b0b0b0; stroke-width: 0.8; stroke-linecap: square"/>
     </g>
     <g id="line2d_42">
      <g>
       <use xlink:href="#mf9a3423fe8" x="266.732503" y="251.498" style="stroke: #000000; stroke-width: 0.6"/>
      </g>
     </g>
    </g>
    <g id="xtick_22">
     <g id="line2d_43">
      <path d="M 276.2875 251.498 
L 276.2875 22.56 
" clip-path="url(#pc7a3b6c993)" style="fill: none; stroke: #b0b0b0; stroke-width: 0.8; stroke-linecap: square"/>
     </g>
     <g id="line2d_44">
      <g>
       <use xlink:href="#mf9a3423fe8" x="276.2875" y="251.498" style="stroke: #000000; stroke-width: 0.6"/>
      </g>
     </g>
    </g>
    <g id="xtick_23">
     <g id="line2d_45">
      <path d="M 284.094501 251.498 
L 284.094501 22.56 
" clip-path="url(#pc7a3b6c993)" style="fill: none; stroke: #b0b0b0; stroke-width: 0.8; stroke-linecap: square"/>
     </g>
     <g id="line2d_46">
      <g>
       <use xlink:href="#mf9a3423fe8" x="284.094501" y="251.498" style="stroke: #000000; stroke-width: 0.6"/>
      </g>
     </g>
    </g>
    <g id="xtick_24">
     <g id="line2d_47">
      <path d="M 290.695226 251.498 
L 290.695226 22.56 
" clip-path="url(#pc7a3b6c993)" style="fill: none; stroke: #b0b0b0; stroke-width: 0.8; stroke-linecap: square"/>
     </g>
     <g id="line2d_48">
      <g>
       <use xlink:href="#mf9a3423fe8" x="290.695226" y="251.498" style="stroke: #000000; stroke-width: 0.6"/>
      </g>
     </g>
    </g>
    <g id="xtick_25">
     <g id="line2d_49">
      <path d="M 296.413034 251.498 
L 296.413034 22.56 
" clip-path="url(#pc7a3b6c993)" style="fill: none; stroke: #b0b0b0; stroke-width: 0.8; stroke-linecap: square"/>
     </g>
     <g id="line2d_50">
      <g>
       <use xlink:href="#mf9a3423fe8" x="296.413034" y="251.498" style="stroke: #000000; stroke-width: 0.6"/>
      </g>
     </g>
    </g>
    <g id="xtick_26">
     <g id="line2d_51">
      <path d="M 301.456499 251.498 
L 301.456499 22.56 
" clip-path="url(#pc7a3b6c993)" style="fill: none; stroke: #b0b0b0; stroke-width: 0.8; stroke-linecap: square"/>
     </g>
     <g id="line2d_52">
      <g>
       <use xlink:href="#mf9a3423fe8" x="301.456499" y="251.498" style="stroke: #000000; stroke-width: 0.6"/>
      </g>
     </g>
    </g>
    <g id="xtick_27">
     <g id="line2d_53">
      <path d="M 335.648563 251.498 
L 335.648563 22.56 
" clip-path="url(#pc7a3b6c993)" style="fill: none; stroke: #b0b0b0; stroke-width: 0.8; stroke-linecap: square"/>
     </g>
     <g id="line2d_54">
      <g>
       <use xlink:href="#mf9a3423fe8" x="335.648563" y="251.498" style="stroke: #000000; stroke-width: 0.6"/>
      </g>
     </g>
    </g>
    <g id="xtick_28">
     <g id="line2d_55">
      <path d="M 353.01056 251.498 
L 353.01056 22.56 
" clip-path="url(#pc7a3b6c993)" style="fill: none; stroke: #b0b0b0; stroke-width: 0.8; stroke-linecap: square"/>
     </g>
     <g id="line2d_56">
      <g>
       <use xlink:href="#mf9a3423fe8" x="353.01056" y="251.498" style="stroke: #000000; stroke-width: 0.6"/>
      </g>
     </g>
    </g>
    <g id="xtick_29">
     <g id="line2d_57">
      <path d="M 365.329094 251.498 
L 365.329094 22.56 
" clip-path="url(#pc7a3b6c993)" style="fill: none; stroke: #b0b0b0; stroke-width: 0.8; stroke-linecap: square"/>
     </g>
     <g id="line2d_58">
      <g>
       <use xlink:href="#mf9a3423fe8" x="365.329094" y="251.498" style="stroke: #000000; stroke-width: 0.6"/>
      </g>
     </g>
    </g>
    <g id="xtick_30">
     <g id="line2d_59">
      <path d="M 374.884091 251.498 
L 374.884091 22.56 
" clip-path="url(#pc7a3b6c993)" style="fill: none; stroke: #b0b0b0; stroke-width: 0.8; stroke-linecap: square"/>
     </g>
     <g id="line2d_60">
      <g>
       <use xlink:href="#mf9a3423fe8" x="374.884091" y="251.498" style="stroke: #000000; stroke-width: 0.6"/>
      </g>
     </g>
    </g>
    <g id="xtick_31">
     <g id="line2d_61">
      <path d="M 382.691092 251.498 
L 382.691092 22.56 
" clip-path="url(#pc7a3b6c993)" style="fill: none; stroke: #b0b0b0; stroke-width: 0.8; stroke-linecap: square"/>
     </g>
     <g id="line2d_62">
      <g>
       <use xlink:href="#mf9a3423fe8" x="382.691092" y="251.498" style="stroke: #000000; stroke-width: 0.6"/>
      </g>
     </g>
    </g>
    <g id="xtick_32">
     <g id="line2d_63">
      <path d="M 389.291817 251.498 
L 389.291817 22.56 
" clip-path="url(#pc7a3b6c993)" style="fill: none; stroke: #b0b0b0; stroke-width: 0.8; stroke-linecap: square"/>
     </g>
     <g id="line2d_64">
      <g>
       <use xlink:href="#mf9a3423fe8" x="389.291817" y="251.498" style="stroke: #000000; stroke-width: 0.6"/>
      </g>
     </g>
    </g>
    <g id="xtick_33">
     <g id="line2d_65">
      <path d="M 395.009625 251.498 
L 395.009625 22.56 
" clip-path="url(#pc7a3b6c993)" style="fill: none; stroke: #b0b0b0; stroke-width: 0.8; stroke-linecap: square"/>
     </g>
     <g id="line2d_66">
      <g>
       <use xlink:href="#mf9a3423fe8" x="395.009625" y="251.498" style="stroke: #000000; stroke-width: 0.6"/>
      </g>
     </g>
    </g>
    <g id="xtick_34">
     <g id="line2d_67">
      <path d="M 400.05309 251.498 
L 400.05309 22.56 
" clip-path="url(#pc7a3b6c993)" style="fill: none; stroke: #b0b0b0; stroke-width: 0.8; stroke-linecap: square"/>
     </g>
     <g id="line2d_68">
      <g>
       <use xlink:href="#mf9a3423fe8" x="400.05309" y="251.498" style="stroke: #000000; stroke-width: 0.6"/>
      </g>
     </g>
    </g>
    <g id="xtick_35">
     <g id="line2d_69">
      <path d="M 434.245154 251.498 
L 434.245154 22.56 
" clip-path="url(#pc7a3b6c993)" style="fill: none; stroke: #b0b0b0; stroke-width: 0.8; stroke-linecap: square"/>
     </g>
     <g id="line2d_70">
      <g>
       <use xlink:href="#mf9a3423fe8" x="434.245154" y="251.498" style="stroke: #000000; stroke-width: 0.6"/>
      </g>
     </g>
    </g>
    <g id="xtick_36">
     <g id="line2d_71">
      <path d="M 451.607151 251.498 
L 451.607151 22.56 
" clip-path="url(#pc7a3b6c993)" style="fill: none; stroke: #b0b0b0; stroke-width: 0.8; stroke-linecap: square"/>
     </g>
     <g id="line2d_72">
      <g>
       <use xlink:href="#mf9a3423fe8" x="451.607151" y="251.498" style="stroke: #000000; stroke-width: 0.6"/>
      </g>
     </g>
    </g>
    <g id="xtick_37">
     <g id="line2d_73">
      <path d="M 463.925685 251.498 
L 463.925685 22.56 
" clip-path="url(#pc7a3b6c993)" style="fill: none; stroke: #b0b0b0; stroke-width: 0.8; stroke-linecap: square"/>
     </g>
     <g id="line2d_74">
      <g>
       <use xlink:href="#mf9a3423fe8" x="463.925685" y="251.498" style="stroke: #000000; stroke-width: 0.6"/>
      </g>
     </g>
    </g>
    <g id="xtick_38">
     <g id="line2d_75">
      <path d="M 473.480682 251.498 
L 473.480682 22.56 
" clip-path="url(#pc7a3b6c993)" style="fill: none; stroke: #b0b0b0; stroke-width: 0.8; stroke-linecap: square"/>
     </g>
     <g id="line2d_76">
      <g>
       <use xlink:href="#mf9a3423fe8" x="473.480682" y="251.498" style="stroke: #000000; stroke-width: 0.6"/>
      </g>
     </g>
    </g>
    <g id="xtick_39">
     <g id="line2d_77">
      <path d="M 481.287683 251.498 
L 481.287683 22.56 
" clip-path="url(#pc7a3b6c993)" style="fill: none; stroke: #b0b0b0; stroke-width: 0.8; stroke-linecap: square"/>
     </g>
     <g id="line2d_78">
      <g>
       <use xlink:href="#mf9a3423fe8" x="481.287683" y="251.498" style="stroke: #000000; stroke-width: 0.6"/>
      </g>
     </g>
    </g>
    <g id="xtick_40">
     <g id="line2d_79">
      <path d="M 487.888408 251.498 
L 487.888408 22.56 
" clip-path="url(#pc7a3b6c993)" style="fill: none; stroke: #b0b0b0; stroke-width: 0.8; stroke-linecap: square"/>
     </g>
     <g id="line2d_80">
      <g>
       <use xlink:href="#mf9a3423fe8" x="487.888408" y="251.498" style="stroke: #000000; stroke-width: 0.6"/>
      </g>
     </g>
    </g>
   </g>
   <g id="matplotlib.axis_2">
    <g id="ytick_1">
     <g id="line2d_81">
      <path d="M 59.375 251.498 
L 493.2 251.498 
" clip-path="url(#pc7a3b6c993)" style="fill: none; stroke: #b0b0b0; stroke-width: 0.8; stroke-linecap: square"/>
     </g>
     <g id="line2d_82">
      <defs>
       <path id="m27347b7aef" d="M 0 0 
L -3.5 0 
" style="stroke: #000000; stroke-width: 0.8"/>
      </defs>
      <g>
       <use xlink:href="#m27347b7aef" x="59.375" y="251.498" style="stroke: #000000; stroke-width: 0.8"/>
      </g>
     </g>
     <g id="text_1">
      <!-- −60 -->
      <g transform="translate(31.270313 255.297219) scale(0.1 -0.1)">
       <defs>
        <path id="DejaVuSans-2212" d="M 678 2272 
L 4684 2272 
L 4684 1741 
L 678 1741 
L 678 2272 
z
" transform="scale(0.015625)"/>
        <path id="DejaVuSans-36" d="M 2113 2584 
Q 1688 2584 1439 2293 
Q 1191 2003 1191 1497 
Q 1191 994 1439 701 
Q 1688 409 2113 409 
Q 2538 409 2786 701 
Q 3034 994 3034 1497 
Q 3034 2003 2786 2293 
Q 2538 2584 2113 2584 
z
M 3366 4563 
L 3366 3988 
Q 3128 4100 2886 4159 
Q 2644 4219 2406 4219 
Q 1781 4219 1451 3797 
Q 1122 3375 1075 2522 
Q 1259 2794 1537 2939 
Q 1816 3084 2150 3084 
Q 2853 3084 3261 2657 
Q 3669 2231 3669 1497 
Q 3669 778 3244 343 
Q 2819 -91 2113 -91 
Q 1303 -91 875 529 
Q 447 1150 447 2328 
Q 447 3434 972 4092 
Q 1497 4750 2381 4750 
Q 2619 4750 2861 4703 
Q 3103 4656 3366 4563 
z
" transform="scale(0.015625)"/>
        <path id="DejaVuSans-30" d="M 2034 4250 
Q 1547 4250 1301 3770 
Q 1056 3291 1056 2328 
Q 1056 1369 1301 889 
Q 1547 409 2034 409 
Q 2525 409 2770 889 
Q 3016 1369 3016 2328 
Q 3016 3291 2770 3770 
Q 2525 4250 2034 4250 
z
M 2034 4750 
Q 2819 4750 3233 4129 
Q 3647 3509 3647 2328 
Q 3647 1150 3233 529 
Q 2819 -91 2034 -91 
Q 1250 -91 836 529 
Q 422 1150 422 2328 
Q 422 3509 836 4129 
Q 1250 4750 2034 4750 
z
" transform="scale(0.015625)"/>
       </defs>
       <use xlink:href="#DejaVuSans-2212"/>
       <use xlink:href="#DejaVuSans-36" transform="translate(83.789062 0)"/>
       <use xlink:href="#DejaVuSans-30" transform="translate(147.412109 0)"/>
      </g>
     </g>
    </g>
    <g id="ytick_2">
     <g id="line2d_83">
      <path d="M 59.375 226.060444 
L 493.2 226.060444 
" clip-path="url(#pc7a3b6c993)" style="fill: none; stroke: #b0b0b0; stroke-width: 0.8; stroke-linecap: square"/>
     </g>
     <g id="line2d_84">
      <g>
       <use xlink:href="#m27347b7aef" x="59.375" y="226.060444" style="stroke: #000000; stroke-width: 0.8"/>
      </g>
     </g>
     <g id="text_2">
      <!-- −50 -->
      <g transform="translate(31.270313 229.859663) scale(0.1 -0.1)">
       <defs>
        <path id="DejaVuSans-35" d="M 691 4666 
L 3169 4666 
L 3169 4134 
L 1269 4134 
L 1269 2991 
Q 1406 3038 1543 3061 
Q 1681 3084 1819 3084 
Q 2600 3084 3056 2656 
Q 3513 2228 3513 1497 
Q 3513 744 3044 326 
Q 2575 -91 1722 -91 
Q 1428 -91 1123 -41 
Q 819 9 494 109 
L 494 744 
Q 775 591 1075 516 
Q 1375 441 1709 441 
Q 2250 441 2565 725 
Q 2881 1009 2881 1497 
Q 2881 1984 2565 2268 
Q 2250 2553 1709 2553 
Q 1456 2553 1204 2497 
Q 953 2441 691 2322 
L 691 4666 
z
" transform="scale(0.015625)"/>
       </defs>
       <use xlink:href="#DejaVuSans-2212"/>
       <use xlink:href="#DejaVuSans-35" transform="translate(83.789062 0)"/>
       <use xlink:href="#DejaVuSans-30" transform="translate(147.412109 0)"/>
      </g>
     </g>
    </g>
    <g id="ytick_3">
     <g id="line2d_85">
      <path d="M 59.375 200.622889 
L 493.2 200.622889 
" clip-path="url(#pc7a3b6c993)" style="fill: none; stroke: #b0b0b0; stroke-width: 0.8; stroke-linecap: square"/>
     </g>
     <g id="line2d_86">
      <g>
       <use xlink:href="#m27347b7aef" x="59.375" y="200.622889" style="stroke: #000000; stroke-width: 0.8"/>
      </g>
     </g>
     <g id="text_3">
      <!-- −40 -->
      <g transform="translate(31.270313 204.422108) scale(0.1 -0.1)">
       <defs>
        <path id="DejaVuSans-34" d="M 2419 4116 
L 825 1625 
L 2419 1625 
L 2419 4116 
z
M 2253 4666 
L 3047 4666 
L 3047 1625 
L 3713 1625 
L 3713 1100 
L 3047 1100 
L 3047 0 
L 2419 0 
L 2419 1100 
L 313 1100 
L 313 1709 
L 2253 4666 
z
" transform="scale(0.015625)"/>
       </defs>
       <use xlink:href="#DejaVuSans-2212"/>
       <use xlink:href="#DejaVuSans-34" transform="translate(83.789062 0)"/>
       <use xlink:href="#DejaVuSans-30" transform="translate(147.412109 0)"/>
      </g>
     </g>
    </g>
    <g id="ytick_4">
     <g id="line2d_87">
      <path d="M 59.375 175.185333 
L 493.2 175.185333 
" clip-path="url(#pc7a3b6c993)" style="fill: none; stroke: #b0b0b0; stroke-width: 0.8; stroke-linecap: square"/>
     </g>
     <g id="line2d_88">
      <g>
       <use xlink:href="#m27347b7aef" x="59.375" y="175.185333" style="stroke: #000000; stroke-width: 0.8"/>
      </g>
     </g>
     <g id="text_4">
      <!-- −30 -->
      <g transform="translate(31.270313 178.984552) scale(0.1 -0.1)">
       <defs>
        <path id="DejaVuSans-33" d="M 2597 2516 
Q 3050 2419 3304 2112 
Q 3559 1806 3559 1356 
Q 3559 666 3084 287 
Q 2609 -91 1734 -91 
Q 1441 -91 1130 -33 
Q 819 25 488 141 
L 488 750 
Q 750 597 1062 519 
Q 1375 441 1716 441 
Q 2309 441 2620 675 
Q 2931 909 2931 1356 
Q 2931 1769 2642 2001 
Q 2353 2234 1838 2234 
L 1294 2234 
L 1294 2753 
L 1863 2753 
Q 2328 2753 2575 2939 
Q 2822 3125 2822 3475 
Q 2822 3834 2567 4026 
Q 2313 4219 1838 4219 
Q 1578 4219 1281 4162 
Q 984 4106 628 3988 
L 628 4550 
Q 988 4650 1302 4700 
Q 1616 4750 1894 4750 
Q 2613 4750 3031 4423 
Q 3450 4097 3450 3541 
Q 3450 3153 3228 2886 
Q 3006 2619 2597 2516 
z
" transform="scale(0.015625)"/>
       </defs>
       <use xlink:href="#DejaVuSans-2212"/>
       <use xlink:href="#DejaVuSans-33" transform="translate(83.789062 0)"/>
       <use xlink:href="#DejaVuSans-30" transform="translate(147.412109 0)"/>
      </g>
     </g>
    </g>
    <g id="ytick_5">
     <g id="line2d_89">
      <path d="M 59.375 149.747778 
L 493.2 149.747778 
" clip-path="url(#pc7a3b6c993)" style="fill: none; stroke: #b0b0b0; stroke-width: 0.8; stroke-linecap: square"/>
     </g>
     <g id="line2d_90">
      <g>
       <use xlink:href="#m27347b7aef" x="59.375" y="149.747778" style="stroke: #000000; stroke-width: 0.8"/>
      </g>
     </g>
     <g id="text_5">
      <!-- −20 -->
      <g transform="translate(31.270313 153.546997) scale(0.1 -0.1)">
       <defs>
        <path id="DejaVuSans-32" d="M 1228 531 
L 3431 531 
L 3431 0 
L 469 0 
L 469 531 
Q 828 903 1448 1529 
Q 2069 2156 2228 2338 
Q 2531 2678 2651 2914 
Q 2772 3150 2772 3378 
Q 2772 3750 2511 3984 
Q 2250 4219 1831 4219 
Q 1534 4219 1204 4116 
Q 875 4013 500 3803 
L 500 4441 
Q 881 4594 1212 4672 
Q 1544 4750 1819 4750 
Q 2544 4750 2975 4387 
Q 3406 4025 3406 3419 
Q 3406 3131 3298 2873 
Q 3191 2616 2906 2266 
Q 2828 2175 2409 1742 
Q 1991 1309 1228 531 
z
" transform="scale(0.015625)"/>
       </defs>
       <use xlink:href="#DejaVuSans-2212"/>
       <use xlink:href="#DejaVuSans-32" transform="translate(83.789062 0)"/>
       <use xlink:href="#DejaVuSans-30" transform="translate(147.412109 0)"/>
      </g>
     </g>
    </g>
    <g id="ytick_6">
     <g id="line2d_91">
      <path d="M 59.375 124.310222 
L 493.2 124.310222 
" clip-path="url(#pc7a3b6c993)" style="fill: none; stroke: #b0b0b0; stroke-width: 0.8; stroke-linecap: square"/>
     </g>
     <g id="line2d_92">
      <g>
       <use xlink:href="#m27347b7aef" x="59.375" y="124.310222" style="stroke: #000000; stroke-width: 0.8"/>
      </g>
     </g>
     <g id="text_6">
      <!-- −10 -->
      <g transform="translate(31.270313 128.109441) scale(0.1 -0.1)">
       <defs>
        <path id="DejaVuSans-31" d="M 794 531 
L 1825 531 
L 1825 4091 
L 703 3866 
L 703 4441 
L 1819 4666 
L 2450 4666 
L 2450 531 
L 3481 531 
L 3481 0 
L 794 0 
L 794 531 
z
" transform="scale(0.015625)"/>
       </defs>
       <use xlink:href="#DejaVuSans-2212"/>
       <use xlink:href="#DejaVuSans-31" transform="translate(83.789062 0)"/>
       <use xlink:href="#DejaVuSans-30" transform="translate(147.412109 0)"/>
      </g>
     </g>
    </g>
    <g id="ytick_7">
     <g id="line2d_93">
      <path d="M 59.375 98.872667 
L 493.2 98.872667 
" clip-path="url(#pc7a3b6c993)" style="fill: none; stroke: #b0b0b0; stroke-width: 0.8; stroke-linecap: square"/>
     </g>
     <g id="line2d_94">
      <g>
       <use xlink:href="#m27347b7aef" x="59.375" y="98.872667" style="stroke: #000000; stroke-width: 0.8"/>
      </g>
     </g>
     <g id="text_7">
      <!-- 0 -->
      <g transform="translate(46.0125 102.671885) scale(0.1 -0.1)">
       <use xlink:href="#DejaVuSans-30"/>
      </g>
     </g>
    </g>
    <g id="ytick_8">
     <g id="line2d_95">
      <path d="M 59.375 73.435111 
L 493.2 73.435111 
" clip-path="url(#pc7a3b6c993)" style="fill: none; stroke: #b0b0b0; stroke-width: 0.8; stroke-linecap: square"/>
     </g>
     <g id="line2d_96">
      <g>
       <use xlink:href="#m27347b7aef" x="59.375" y="73.435111" style="stroke: #000000; stroke-width: 0.8"/>
      </g>
     </g>
     <g id="text_8">
      <!-- 10 -->
      <g transform="translate(39.65 77.23433) scale(0.1 -0.1)">
       <use xlink:href="#DejaVuSans-31"/>
       <use xlink:href="#DejaVuSans-30" transform="translate(63.623047 0)"/>
      </g>
     </g>
    </g>
    <g id="ytick_9">
     <g id="line2d_97">
      <path d="M 59.375 47.997556 
L 493.2 47.997556 
" clip-path="url(#pc7a3b6c993)" style="fill: none; stroke: #b0b0b0; stroke-width: 0.8; stroke-linecap: square"/>
     </g>
     <g id="line2d_98">
      <g>
       <use xlink:href="#m27347b7aef" x="59.375" y="47.997556" style="stroke: #000000; stroke-width: 0.8"/>
      </g>
     </g>
     <g id="text_9">
      <!-- 20 -->
      <g transform="translate(39.65 51.796774) scale(0.1 -0.1)">
       <use xlink:href="#DejaVuSans-32"/>
       <use xlink:href="#DejaVuSans-30" transform="translate(63.623047 0)"/>
      </g>
     </g>
    </g>
    <g id="ytick_10">
     <g id="line2d_99">
      <path d="M 59.375 22.56 
L 493.2 22.56 
" clip-path="url(#pc7a3b6c993)" style="fill: none; stroke: #b0b0b0; stroke-width: 0.8; stroke-linecap: square"/>
     </g>
     <g id="line2d_100">
      <g>
       <use xlink:href="#m27347b7aef" x="59.375" y="22.56" style="stroke: #000000; stroke-width: 0.8"/>
      </g>
     </g>
     <g id="text_10">
      <!-- 30 -->
      <g transform="translate(39.65 26.359219) scale(0.1 -0.1)">
       <use xlink:href="#DejaVuSans-33"/>
       <use xlink:href="#DejaVuSans-30" transform="translate(63.623047 0)"/>
      </g>
     </g>
    </g>
    <g id="text_11">
     <!-- magnitude [dB] -->
     <g transform="translate(25.190625 176.170406) rotate(-90) scale(0.1 -0.1)">
      <defs>
       <path id="DejaVuSans-6d" d="M 3328 2828 
Q 3544 3216 3844 3400 
Q 4144 3584 4550 3584 
Q 5097 3584 5394 3201 
Q 5691 2819 5691 2113 
L 5691 0 
L 5113 0 
L 5113 2094 
Q 5113 2597 4934 2840 
Q 4756 3084 4391 3084 
Q 3944 3084 3684 2787 
Q 3425 2491 3425 1978 
L 3425 0 
L 2847 0 
L 2847 2094 
Q 2847 2600 2669 2842 
Q 2491 3084 2119 3084 
Q 1678 3084 1418 2786 
Q 1159 2488 1159 1978 
L 1159 0 
L 581 0 
L 581 3500 
L 1159 3500 
L 1159 2956 
Q 1356 3278 1631 3431 
Q 1906 3584 2284 3584 
Q 2666 3584 2933 3390 
Q 3200 3197 3328 2828 
z
" transform="scale(0.015625)"/>
       <path id="DejaVuSans-61" d="M 2194 1759 
Q 1497 1759 1228 1600 
Q 959 1441 959 1056 
Q 959 750 1161 570 
Q 1363 391 1709 391 
Q 2188 391 2477 730 
Q 2766 1069 2766 1631 
L 2766 1759 
L 2194 1759 
z
M 3341 1997 
L 3341 0 
L 2766 0 
L 2766 531 
Q 2569 213 2275 61 
Q 1981 -91 1556 -91 
Q 1019 -91 701 211 
Q 384 513 384 1019 
Q 384 1609 779 1909 
Q 1175 2209 1959 2209 
L 2766 2209 
L 2766 2266 
Q 2766 2663 2505 2880 
Q 2244 3097 1772 3097 
Q 1472 3097 1187 3025 
Q 903 2953 641 2809 
L 641 3341 
Q 956 3463 1253 3523 
Q 1550 3584 1831 3584 
Q 2591 3584 2966 3190 
Q 3341 2797 3341 1997 
z
" transform="scale(0.015625)"/>
       <path id="DejaVuSans-67" d="M 2906 1791 
Q 2906 2416 2648 2759 
Q 2391 3103 1925 3103 
Q 1463 3103 1205 2759 
Q 947 2416 947 1791 
Q 947 1169 1205 825 
Q 1463 481 1925 481 
Q 2391 481 2648 825 
Q 2906 1169 2906 1791 
z
M 3481 434 
Q 3481 -459 3084 -895 
Q 2688 -1331 1869 -1331 
Q 1566 -1331 1297 -1286 
Q 1028 -1241 775 -1147 
L 775 -588 
Q 1028 -725 1275 -790 
Q 1522 -856 1778 -856 
Q 2344 -856 2625 -561 
Q 2906 -266 2906 331 
L 2906 616 
Q 2728 306 2450 153 
Q 2172 0 1784 0 
Q 1141 0 747 490 
Q 353 981 353 1791 
Q 353 2603 747 3093 
Q 1141 3584 1784 3584 
Q 2172 3584 2450 3431 
Q 2728 3278 2906 2969 
L 2906 3500 
L 3481 3500 
L 3481 434 
z
" transform="scale(0.015625)"/>
       <path id="DejaVuSans-6e" d="M 3513 2113 
L 3513 0 
L 2938 0 
L 2938 2094 
Q 2938 2591 2744 2837 
Q 2550 3084 2163 3084 
Q 1697 3084 1428 2787 
Q 1159 2491 1159 1978 
L 1159 0 
L 581 0 
L 581 3500 
L 1159 3500 
L 1159 2956 
Q 1366 3272 1645 3428 
Q 1925 3584 2291 3584 
Q 2894 3584 3203 3211 
Q 3513 2838 3513 2113 
z
" transform="scale(0.015625)"/>
       <path id="DejaVuSans-69" d="M 603 3500 
L 1178 3500 
L 1178 0 
L 603 0 
L 603 3500 
z
M 603 4863 
L 1178 4863 
L 1178 4134 
L 603 4134 
L 603 4863 
z
" transform="scale(0.015625)"/>
       <path id="DejaVuSans-74" d="M 1172 4494 
L 1172 3500 
L 2356 3500 
L 2356 3053 
L 1172 3053 
L 1172 1153 
Q 1172 725 1289 603 
Q 1406 481 1766 481 
L 2356 481 
L 2356 0 
L 1766 0 
Q 1100 0 847 248 
Q 594 497 594 1153 
L 594 3053 
L 172 3053 
L 172 3500 
L 594 3500 
L 594 4494 
L 1172 4494 
z
" transform="scale(0.015625)"/>
       <path id="DejaVuSans-75" d="M 544 1381 
L 544 3500 
L 1119 3500 
L 1119 1403 
Q 1119 906 1312 657 
Q 1506 409 1894 409 
Q 2359 409 2629 706 
Q 2900 1003 2900 1516 
L 2900 3500 
L 3475 3500 
L 3475 0 
L 2900 0 
L 2900 538 
Q 2691 219 2414 64 
Q 2138 -91 1772 -91 
Q 1169 -91 856 284 
Q 544 659 544 1381 
z
M 1991 3584 
L 1991 3584 
z
" transform="scale(0.015625)"/>
       <path id="DejaVuSans-64" d="M 2906 2969 
L 2906 4863 
L 3481 4863 
L 3481 0 
L 2906 0 
L 2906 525 
Q 2725 213 2448 61 
Q 2172 -91 1784 -91 
Q 1150 -91 751 415 
Q 353 922 353 1747 
Q 353 2572 751 3078 
Q 1150 3584 1784 3584 
Q 2172 3584 2448 3432 
Q 2725 3281 2906 2969 
z
M 947 1747 
Q 947 1113 1208 752 
Q 1469 391 1925 391 
Q 2381 391 2643 752 
Q 2906 1113 2906 1747 
Q 2906 2381 2643 2742 
Q 2381 3103 1925 3103 
Q 1469 3103 1208 2742 
Q 947 2381 947 1747 
z
" transform="scale(0.015625)"/>
       <path id="DejaVuSans-65" d="M 3597 1894 
L 3597 1613 
L 953 1613 
Q 991 1019 1311 708 
Q 1631 397 2203 397 
Q 2534 397 2845 478 
Q 3156 559 3463 722 
L 3463 178 
Q 3153 47 2828 -22 
Q 2503 -91 2169 -91 
Q 1331 -91 842 396 
Q 353 884 353 1716 
Q 353 2575 817 3079 
Q 1281 3584 2069 3584 
Q 2775 3584 3186 3129 
Q 3597 2675 3597 1894 
z
M 3022 2063 
Q 3016 2534 2758 2815 
Q 2500 3097 2075 3097 
Q 1594 3097 1305 2825 
Q 1016 2553 972 2059 
L 3022 2063 
z
" transform="scale(0.015625)"/>
       <path id="DejaVuSans-20" transform="scale(0.015625)"/>
       <path id="DejaVuSans-5b" d="M 550 4863 
L 1875 4863 
L 1875 4416 
L 1125 4416 
L 1125 -397 
L 1875 -397 
L 1875 -844 
L 550 -844 
L 550 4863 
z
" transform="scale(0.015625)"/>
       <path id="DejaVuSans-42" d="M 1259 2228 
L 1259 519 
L 2272 519 
Q 2781 519 3026 730 
Q 3272 941 3272 1375 
Q 3272 1813 3026 2020 
Q 2781 2228 2272 2228 
L 1259 2228 
z
M 1259 4147 
L 1259 2741 
L 2194 2741 
Q 2656 2741 2882 2914 
Q 3109 3088 3109 3444 
Q 3109 3797 2882 3972 
Q 2656 4147 2194 4147 
L 1259 4147 
z
M 628 4666 
L 2241 4666 
Q 2963 4666 3353 4366 
Q 3744 4066 3744 3513 
Q 3744 3084 3544 2831 
Q 3344 2578 2956 2516 
Q 3422 2416 3680 2098 
Q 3938 1781 3938 1306 
Q 3938 681 3513 340 
Q 3088 0 2303 0 
L 628 0 
L 628 4666 
z
" transform="scale(0.015625)"/>
       <path id="DejaVuSans-5d" d="M 1947 4863 
L 1947 -844 
L 622 -844 
L 622 -397 
L 1369 -397 
L 1369 4416 
L 622 4416 
L 622 4863 
L 1947 4863 
z
" transform="scale(0.015625)"/>
      </defs>
      <use xlink:href="#DejaVuSans-6d"/>
      <use xlink:href="#DejaVuSans-61" transform="translate(97.412109 0)"/>
      <use xlink:href="#DejaVuSans-67" transform="translate(158.691406 0)"/>
      <use xlink:href="#DejaVuSans-6e" transform="translate(222.167969 0)"/>
      <use xlink:href="#DejaVuSans-69" transform="translate(285.546875 0)"/>
      <use xlink:href="#DejaVuSans-74" transform="translate(313.330078 0)"/>
      <use xlink:href="#DejaVuSans-75" transform="translate(352.539062 0)"/>
      <use xlink:href="#DejaVuSans-64" transform="translate(415.917969 0)"/>
      <use xlink:href="#DejaVuSans-65" transform="translate(479.394531 0)"/>
      <use xlink:href="#DejaVuSans-20" transform="translate(540.917969 0)"/>
      <use xlink:href="#DejaVuSans-5b" transform="translate(572.705078 0)"/>
      <use xlink:href="#DejaVuSans-64" transform="translate(611.71875 0)"/>
      <use xlink:href="#DejaVuSans-42" transform="translate(675.195312 0)"/>
      <use xlink:href="#DejaVuSans-5d" transform="translate(743.798828 0)"/>
     </g>
    </g>
   </g>
   <g id="line2d_101">
    <path d="M 123.81674 -1 
L 132.485737 11.447369 
L 139.587058 21.268414 
L 145.636332 29.268457 
L 151.028076 36.041269 
L 156.025303 41.964614 
L 160.759517 47.228058 
L 165.23072 51.871974 
L 169.701922 56.197275 
L 174.173125 60.216965 
L 178.775833 64.061514 
L 183.641554 67.84083 
L 189.033298 71.741505 
L 195.082572 75.832311 
L 202.052388 80.268351 
L 210.731781 85.516513 
L 223.882376 93.176314 
L 241.767186 103.62753 
L 250.183568 108.807815 
L 256.758865 113.106144 
L 262.15061 116.885163 
L 266.753318 120.371986 
L 270.830003 123.738662 
L 274.380664 126.960503 
L 277.536807 130.128362 
L 280.298432 133.212233 
L 282.797045 136.334296 
L 285.032646 139.480143 
L 287.005235 142.619852 
L 288.846319 145.956325 
L 290.555896 149.52003 
L 292.133968 153.341896 
L 293.580533 157.447669 
L 294.895593 161.843776 
L 296.210652 167.044682 
L 297.788724 174.356234 
L 298.972278 179.555984 
L 299.498301 180.998534 
L 299.892819 181.424998 
L 300.155831 181.349488 
L 300.418843 180.989149 
L 300.813361 179.976032 
L 301.470891 177.396628 
L 305.153057 161.172192 
L 306.599623 156.386441 
L 308.046189 152.332997 
L 309.62426 148.534387 
L 311.333837 144.967242 
L 313.306427 141.378122 
L 315.410522 138.013374 
L 317.777629 134.653653 
L 320.407748 131.313931 
L 323.432385 127.849857 
L 326.85154 124.284233 
L 330.928225 120.369123 
L 336.056957 115.76952 
L 346.182916 107.076058 
L 352.758214 101.257213 
L 357.360922 96.888882 
L 361.174595 92.971376 
L 364.59375 89.149219 
L 367.881399 85.139017 
L 371.43206 80.434443 
L 376.560792 73.585578 
L 378.138863 71.892142 
L 379.322417 70.939359 
L 380.242959 70.446261 
L 381.1635 70.203169 
L 381.952536 70.205518 
L 382.873078 70.452587 
L 383.793619 70.945134 
L 384.845667 71.767645 
L 386.160727 73.098096 
L 388.00181 75.318901 
L 397.601745 87.430884 
L 400.757888 90.834338 
L 404.177043 94.191591 
L 407.85921 97.489942 
L 411.935894 100.836121 
L 416.538603 104.314826 
L 421.667335 107.907981 
L 427.585103 111.7802 
L 434.554919 116.071608 
L 443.102806 121.062846 
L 453.754788 127.013918 
L 467.957432 134.679237 
L 473.480682 137.609909 
L 473.480682 137.609909 
" clip-path="url(#pc7a3b6c993)" style="fill: none; stroke: #1f77b4; stroke-width: 1.4; stroke-linecap: square"/>
   </g>
   <g id="line2d_102">
    <path d="M 79.094318 266.356655 
L 103.42292 229.140702 
L 118.546105 206.392314 
L 129.592605 190.157283 
L 138.535011 177.397902 
L 146.03085 167.08173 
L 152.474642 158.578691 
L 158.260904 151.300892 
L 163.521142 145.032569 
L 168.386863 139.570715 
L 172.989571 134.732624 
L 177.329268 130.485253 
L 181.537458 126.672152 
L 185.614143 123.272919 
L 189.690828 120.16613 
L 193.636006 117.435624 
L 197.581185 114.970224 
L 201.526364 112.760036 
L 205.603048 110.730711 
L 209.811239 108.889905 
L 214.150936 107.240729 
L 218.622138 105.781854 
L 223.356352 104.474565 
L 228.353579 103.327008 
L 233.745323 102.318706 
L 239.663091 101.44222 
L 246.238389 100.698476 
L 253.602722 100.092481 
L 262.15061 99.61889 
L 272.013556 99.30214 
L 283.060057 99.172585 
L 294.369569 99.258517 
L 304.627034 99.549969 
L 313.437933 100.016091 
L 320.802266 100.620561 
L 327.114552 101.354759 
L 332.637802 102.217485 
L 337.503523 103.200313 
L 341.843219 104.301439 
L 345.788398 105.531868 
L 349.339059 106.868293 
L 352.626708 108.339441 
L 355.651345 109.929369 
L 358.544476 111.700045 
L 361.306101 113.655688 
L 363.93622 115.794737 
L 366.434833 118.10607 
L 369.064952 120.851822 
L 371.958083 124.217314 
L 377.218322 130.453896 
L 378.664887 131.754779 
L 379.716935 132.429925 
L 380.637477 132.784955 
L 381.558018 132.89454 
L 382.47856 132.751255 
L 383.399102 132.365714 
L 384.451149 131.662763 
L 385.766209 130.472871 
L 387.475786 128.59062 
L 395.629156 119.166184 
L 398.259275 116.661687 
L 400.889394 114.464637 
L 403.651019 112.456088 
L 406.54415 110.63845 
L 409.568787 109.007388 
L 412.72493 107.554617 
L 416.144085 106.22245 
L 419.957758 104.983068 
L 424.034442 103.893984 
L 428.637151 102.900476 
L 433.765883 102.026895 
L 439.552145 101.269441 
L 446.258949 100.61818 
L 454.280812 100.068799 
L 464.143759 99.625236 
L 473.480682 99.358448 
L 473.480682 99.358448 
" clip-path="url(#pc7a3b6c993)" style="fill: none; stroke: #ff7f0e; stroke-width: 1.4; stroke-linecap: square"/>
   </g>
   <g id="line2d_103">
    <path d="M 79.094318 98.869966 
L 121.439236 98.74877 
L 134.721338 98.496961 
L 143.926755 98.110401 
L 151.685606 97.567293 
L 159.181446 96.818564 
L 168.386863 95.655729 
L 180.485411 94.144525 
L 186.271673 93.657041 
L 191.268899 93.453406 
L 195.871608 93.481539 
L 200.34281 93.726858 
L 204.814013 94.196273 
L 209.285215 94.891113 
L 213.887924 95.836915 
L 218.622138 97.043668 
L 223.487858 98.517349 
L 228.485085 100.26146 
L 233.745323 102.33381 
L 239.137067 104.696794 
L 244.660317 107.362513 
L 250.052062 110.210196 
L 255.180794 113.163793 
L 260.046514 116.220349 
L 264.517717 119.293099 
L 268.462896 122.266149 
L 272.013556 125.207847 
L 275.301205 128.219152 
L 278.194336 131.163424 
L 280.824456 134.149162 
L 283.191563 137.162131 
L 285.427164 140.377193 
L 287.399753 143.604522 
L 289.240837 147.053153 
L 290.950414 150.757518 
L 292.528486 154.753432 
L 293.975051 159.071019 
L 295.290111 163.715458 
L 296.60517 169.208838 
L 299.235289 180.881254 
L 299.629807 181.716892 
L 299.892819 181.939149 
L 300.155831 181.87134 
L 300.418843 181.518856 
L 300.813361 180.517812 
L 301.470891 177.959312 
L 305.021552 162.344616 
L 306.468117 157.543888 
L 307.914683 153.500398 
L 309.492754 149.735668 
L 311.202331 146.226991 
L 313.043415 142.946764 
L 315.016004 139.867814 
L 317.251605 136.794976 
L 319.618713 133.913712 
L 322.248832 131.060997 
L 325.141963 128.255157 
L 328.298106 125.507692 
L 331.717261 122.826518 
L 335.399427 120.218805 
L 339.344606 117.693613 
L 343.552797 115.264513 
L 347.892493 113.016577 
L 352.23219 111.014402 
L 356.571886 109.253779 
L 360.780077 107.78081 
L 364.856762 106.581725 
L 368.933446 105.616595 
L 372.878625 104.91441 
L 376.692298 104.458983 
L 380.505971 104.226533 
L 384.319643 104.216609 
L 388.133316 104.424498 
L 392.078495 104.859251 
L 396.155179 105.528491 
L 400.494876 106.465584 
L 405.22909 107.722884 
L 410.357823 109.323509 
L 416.012579 111.327693 
L 422.456371 113.856395 
L 429.95221 117.04818 
L 438.894615 121.108647 
L 450.072622 126.44061 
L 464.932795 133.78976 
L 473.480682 138.09569 
L 473.480682 138.09569 
" clip-path="url(#pc7a3b6c993)" style="fill: none; stroke: #2ca02c; stroke-width: 1.4; stroke-linecap: square"/>
   </g>
   <g id="line2d_104">
    <path d="M 59.375 88.48804 
L 493.2 88.48804 
" clip-path="url(#pc7a3b6c993)" style="fill: none; stroke-dasharray: 2.96,1.28; stroke-dashoffset: 0; stroke: #ff0000; stroke-width: 0.8"/>
   </g>
   <g id="line2d_105">
    <path d="M 59.375 98.872667 
L 493.2 98.872667 
" clip-path="url(#pc7a3b6c993)" style="fill: none; stroke: #000000; stroke-width: 0.6; stroke-linecap: square"/>
   </g>
   <g id="line2d_106">
    <path d="M 299.961145 251.498 
L 299.961145 22.56 
" clip-path="url(#pc7a3b6c993)" style="fill: none; stroke-dasharray: 3.7,1.6; stroke-dashoffset: 0; stroke: #ffa500"/>
   </g>
   <g id="line2d_107">
    <path d="M 381.474636 251.498 
L 381.474636 22.56 
" clip-path="url(#pc7a3b6c993)" style="fill: none; stroke-dasharray: 3.7,1.6; stroke-dashoffset: 0; stroke: #008000"/>
   </g>
   <g id="patch_3">
    <path d="M 59.375 251.498 
L 59.375 22.56 
" style="fill: none; stroke: #000000; stroke-width: 0.8; stroke-linejoin: miter; stroke-linecap: square"/>
   </g>
   <g id="patch_4">
    <path d="M 493.2 251.498 
L 493.2 22.56 
" style="fill: none; stroke: #000000; stroke-width: 0.8; stroke-linejoin: miter; stroke-linecap: square"/>
   </g>
   <g id="patch_5">
    <path d="M 59.375 251.498 
L 493.2 251.498 
" style="fill: none; stroke: #000000; stroke-width: 0.8; stroke-linejoin: miter; stroke-linecap: square"/>
   </g>
   <g id="patch_6">
    <path d="M 59.375 22.56 
L 493.2 22.56 
" style="fill: none; stroke: #000000; stroke-width: 0.8; stroke-linejoin: miter; stroke-linecap: square"/>
   </g>
   <g id="text_12">
    <!-- Ms 0.99  Mt 1.28  PM 72°  GM -19dB  BW 2.3Hz  | kp 0.1176 ki 0.1535 kd 0.03 @ PLL 200Hz -->
    <g transform="translate(93.07 16.56) scale(0.08 -0.08)">
     <defs>
      <path id="DejaVuSans-4d" d="M 628 4666 
L 1569 4666 
L 2759 1491 
L 3956 4666 
L 4897 4666 
L 4897 0 
L 4281 0 
L 4281 4097 
L 3078 897 
L 2444 897 
L 1241 4097 
L 1241 0 
L 628 0 
L 628 4666 
z
" transform="scale(0.015625)"/>
      <path id="DejaVuSans-73" d="M 2834 3397 
L 2834 2853 
Q 2591 2978 2328 3040 
Q 2066 3103 1784 3103 
Q 1356 3103 1142 2972 
Q 928 2841 928 2578 
Q 928 2378 1081 2264 
Q 1234 2150 1697 2047 
L 1894 2003 
Q 2506 1872 2764 1633 
Q 3022 1394 3022 966 
Q 3022 478 2636 193 
Q 2250 -91 1575 -91 
Q 1294 -91 989 -36 
Q 684 19 347 128 
L 347 722 
Q 666 556 975 473 
Q 1284 391 1588 391 
Q 1994 391 2212 530 
Q 2431 669 2431 922 
Q 2431 1156 2273 1281 
Q 2116 1406 1581 1522 
L 1381 1569 
Q 847 1681 609 1914 
Q 372 2147 372 2553 
Q 372 3047 722 3315 
Q 1072 3584 1716 3584 
Q 2034 3584 2315 3537 
Q 2597 3491 2834 3397 
z
" transform="scale(0.015625)"/>
      <path id="DejaVuSans-2e" d="M 684 794 
L 1344 794 
L 1344 0 
L 684 0 
L 684 794 
z
" transform="scale(0.015625)"/>
      <path id="DejaVuSans-39" d="M 703 97 
L 703 672 
Q 941 559 1184 500 
Q 1428 441 1663 441 
Q 2288 441 2617 861 
Q 2947 1281 2994 2138 
Q 2813 1869 2534 1725 
Q 2256 1581 1919 1581 
Q 1219 1581 811 2004 
Q 403 2428 403 3163 
Q 403 3881 828 4315 
Q 1253 4750 1959 4750 
Q 2769 4750 3195 4129 
Q 3622 3509 3622 2328 
Q 3622 1225 3098 567 
Q 2575 -91 1691 -91 
Q 1453 -91 1209 -44 
Q 966 3 703 97 
z
M 1959 2075 
Q 2384 2075 2632 2365 
Q 2881 2656 2881 3163 
Q 2881 3666 2632 3958 
Q 2384 4250 1959 4250 
Q 1534 4250 1286 3958 
Q 1038 3666 1038 3163 
Q 1038 2656 1286 2365 
Q 1534 2075 1959 2075 
z
" transform="scale(0.015625)"/>
      <path id="DejaVuSans-38" d="M 2034 2216 
Q 1584 2216 1326 1975 
Q 1069 1734 1069 1313 
Q 1069 891 1326 650 
Q 1584 409 2034 409 
Q 2484 409 2743 651 
Q 3003 894 3003 1313 
Q 3003 1734 2745 1975 
Q 2488 2216 2034 2216 
z
M 1403 2484 
Q 997 2584 770 2862 
Q 544 3141 544 3541 
Q 544 4100 942 4425 
Q 1341 4750 2034 4750 
Q 2731 4750 3128 4425 
Q 3525 4100 3525 3541 
Q 3525 3141 3298 2862 
Q 3072 2584 2669 2484 
Q 3125 2378 3379 2068 
Q 3634 1759 3634 1313 
Q 3634 634 3220 271 
Q 2806 -91 2034 -91 
Q 1263 -91 848 271 
Q 434 634 434 1313 
Q 434 1759 690 2068 
Q 947 2378 1403 2484 
z
M 1172 3481 
Q 1172 3119 1398 2916 
Q 1625 2713 2034 2713 
Q 2441 2713 2670 2916 
Q 2900 3119 2900 3481 
Q 2900 3844 2670 4047 
Q 2441 4250 2034 4250 
Q 1625 4250 1398 4047 
Q 1172 3844 1172 3481 
z
" transform="scale(0.015625)"/>
      <path id="DejaVuSans-50" d="M 1259 4147 
L 1259 2394 
L 2053 2394 
Q 2494 2394 2734 2622 
Q 2975 2850 2975 3272 
Q 2975 3691 2734 3919 
Q 2494 4147 2053 4147 
L 1259 4147 
z
M 628 4666 
L 2053 4666 
Q 2838 4666 3239 4311 
Q 3641 3956 3641 3272 
Q 3641 2581 3239 2228 
Q 2838 1875 2053 1875 
L 1259 1875 
L 1259 0 
L 628 0 
L 628 4666 
z
" transform="scale(0.015625)"/>
      <path id="DejaVuSans-37" d="M 525 4666 
L 3525 4666 
L 3525 4397 
L 1831 0 
L 1172 0 
L 2766 4134 
L 525 4134 
L 525 4666 
z
" transform="scale(0.015625)"/>
      <path id="DejaVuSans-b0" d="M 1600 4347 
Q 1350 4347 1178 4173 
Q 1006 4000 1006 3750 
Q 1006 3503 1178 3333 
Q 1350 3163 1600 3163 
Q 1850 3163 2022 3333 
Q 2194 3503 2194 3750 
Q 2194 3997 2020 4172 
Q 1847 4347 1600 4347 
z
M 1600 4750 
Q 1800 4750 1984 4673 
Q 2169 4597 2303 4453 
Q 2447 4313 2519 4134 
Q 2591 3956 2591 3750 
Q 2591 3338 2302 3052 
Q 2013 2766 1594 2766 
Q 1172 2766 890 3047 
Q 609 3328 609 3750 
Q 609 4169 896 4459 
Q 1184 4750 1600 4750 
z
" transform="scale(0.015625)"/>
      <path id="DejaVuSans-47" d="M 3809 666 
L 3809 1919 
L 2778 1919 
L 2778 2438 
L 4434 2438 
L 4434 434 
Q 4069 175 3628 42 
Q 3188 -91 2688 -91 
Q 1594 -91 976 548 
Q 359 1188 359 2328 
Q 359 3472 976 4111 
Q 1594 4750 2688 4750 
Q 3144 4750 3555 4637 
Q 3966 4525 4313 4306 
L 4313 3634 
Q 3963 3931 3569 4081 
Q 3175 4231 2741 4231 
Q 1884 4231 1454 3753 
Q 1025 3275 1025 2328 
Q 1025 1384 1454 906 
Q 1884 428 2741 428 
Q 3075 428 3337 486 
Q 3600 544 3809 666 
z
" transform="scale(0.015625)"/>
      <path id="DejaVuSans-2d" d="M 313 2009 
L 1997 2009 
L 1997 1497 
L 313 1497 
L 313 2009 
z
" transform="scale(0.015625)"/>
      <path id="DejaVuSans-57" d="M 213 4666 
L 850 4666 
L 1831 722 
L 2809 4666 
L 3519 4666 
L 4500 722 
L 5478 4666 
L 6119 4666 
L 4947 0 
L 4153 0 
L 3169 4050 
L 2175 0 
L 1381 0 
L 213 4666 
z
" transform="scale(0.015625)"/>
      <path id="DejaVuSans-48" d="M 628 4666 
L 1259 4666 
L 1259 2753 
L 3553 2753 
L 3553 4666 
L 4184 4666 
L 4184 0 
L 3553 0 
L 3553 2222 
L 1259 2222 
L 1259 0 
L 628 0 
L 628 4666 
z
" transform="scale(0.015625)"/>
      <path id="DejaVuSans-7a" d="M 353 3500 
L 3084 3500 
L 3084 2975 
L 922 459 
L 3084 459 
L 3084 0 
L 275 0 
L 275 525 
L 2438 3041 
L 353 3041 
L 353 3500 
z
" transform="scale(0.015625)"/>
      <path id="DejaVuSans-7c" d="M 1344 4891 
L 1344 -1509 
L 813 -1509 
L 813 4891 
L 1344 4891 
z
" transform="scale(0.015625)"/>
      <path id="DejaVuSans-6b" d="M 581 4863 
L 1159 4863 
L 1159 1991 
L 2875 3500 
L 3609 3500 
L 1753 1863 
L 3688 0 
L 2938 0 
L 1159 1709 
L 1159 0 
L 581 0 
L 581 4863 
z
" transform="scale(0.015625)"/>
      <path id="DejaVuSans-70" d="M 1159 525 
L 1159 -1331 
L 581 -1331 
L 581 3500 
L 1159 3500 
L 1159 2969 
Q 1341 3281 1617 3432 
Q 1894 3584 2278 3584 
Q 2916 3584 3314 3078 
Q 3713 2572 3713 1747 
Q 3713 922 3314 415 
Q 2916 -91 2278 -91 
Q 1894 -91 1617 61 
Q 1341 213 1159 525 
z
M 3116 1747 
Q 3116 2381 2855 2742 
Q 2594 3103 2138 3103 
Q 1681 3103 1420 2742 
Q 1159 2381 1159 1747 
Q 1159 1113 1420 752 
Q 1681 391 2138 391 
Q 2594 391 2855 752 
Q 3116 1113 3116 1747 
z
" transform="scale(0.015625)"/>
      <path id="DejaVuSans-40" d="M 2381 1678 
Q 2381 1231 2603 976 
Q 2825 722 3213 722 
Q 3597 722 3817 978 
Q 4038 1234 4038 1678 
Q 4038 2116 3813 2373 
Q 3588 2631 3206 2631 
Q 2828 2631 2604 2375 
Q 2381 2119 2381 1678 
z
M 4084 744 
Q 3897 503 3655 389 
Q 3413 275 3091 275 
Q 2553 275 2217 664 
Q 1881 1053 1881 1678 
Q 1881 2303 2218 2693 
Q 2556 3084 3091 3084 
Q 3413 3084 3656 2967 
Q 3900 2850 4084 2613 
L 4084 3022 
L 4531 3022 
L 4531 722 
Q 4988 791 5245 1139 
Q 5503 1488 5503 2041 
Q 5503 2375 5404 2669 
Q 5306 2963 5106 3213 
Q 4781 3622 4314 3839 
Q 3847 4056 3297 4056 
Q 2913 4056 2559 3954 
Q 2206 3853 1906 3653 
Q 1416 3334 1139 2817 
Q 863 2300 863 1697 
Q 863 1200 1042 765 
Q 1222 331 1563 0 
Q 1891 -325 2322 -495 
Q 2753 -666 3244 -666 
Q 3647 -666 4036 -530 
Q 4425 -394 4750 -141 
L 5031 -488 
Q 4641 -791 4180 -952 
Q 3719 -1113 3244 -1113 
Q 2666 -1113 2153 -908 
Q 1641 -703 1241 -313 
Q 841 78 631 592 
Q 422 1106 422 1697 
Q 422 2266 634 2781 
Q 847 3297 1241 3688 
Q 1644 4084 2172 4295 
Q 2700 4506 3291 4506 
Q 3953 4506 4520 4234 
Q 5088 3963 5472 3463 
Q 5706 3156 5829 2797 
Q 5953 2438 5953 2053 
Q 5953 1231 5456 756 
Q 4959 281 4084 263 
L 4084 744 
z
" transform="scale(0.015625)"/>
      <path id="DejaVuSans-4c" d="M 628 4666 
L 1259 4666 
L 1259 531 
L 3531 531 
L 3531 0 
L 628 0 
L 628 4666 
z
" transform="scale(0.015625)"/>
     </defs>
     <use xlink:href="#DejaVuSans-4d"/>
     <use xlink:href="#DejaVuSans-73" transform="translate(86.279297 0)"/>
     <use xlink:href="#DejaVuSans-20" transform="translate(138.378906 0)"/>
     <use xlink:href="#DejaVuSans-30" transform="translate(170.166016 0)"/>
     <use xlink:href="#DejaVuSans-2e" transform="translate(233.789062 0)"/>
     <use xlink:href="#DejaVuSans-39" transform="translate(265.576172 0)"/>
     <use xlink:href="#DejaVuSans-39" transform="translate(329.199219 0)"/>
     <use xlink:href="#DejaVuSans-20" transform="translate(392.822266 0)"/>
     <use xlink:href="#DejaVuSans-20" transform="translate(424.609375 0)"/>
     <use xlink:href="#DejaVuSans-4d" transform="translate(456.396484 0)"/>
     <use xlink:href="#DejaVuSans-74" transform="translate(542.675781 0)"/>
     <use xlink:href="#DejaVuSans-20" transform="translate(581.884766 0)"/>
     <use xlink:href="#DejaVuSans-31" transform="translate(613.671875 0)"/>
     <use xlink:href="#DejaVuSans-2e" transform="translate(677.294922 0)"/>
     <use xlink:href="#DejaVuSans-32" transform="translate(709.082031 0)"/>
     <use xlink:href="#DejaVuSans-38" transform="translate(772.705078 0)"/>
     <use xlink:href="#DejaVuSans-20" transform="translate(836.328125 0)"/>
     <use xlink:href="#DejaVuSans-20" transform="translate(868.115234 0)"/>
     <use xlink:href="#DejaVuSans-50" transform="translate(899.902344 0)"/>
     <use xlink:href="#DejaVuSans-4d" transform="translate(960.205078 0)"/>
     <use xlink:href="#DejaVuSans-20" transform="translate(1046.484375 0)"/>
     <use xlink:href="#DejaVuSans-37" transform="translate(1078.271484 0)"/>
     <use xlink:href="#DejaVuSans-32" transform="translate(1141.894531 0)"/>
     <use xlink:href="#DejaVuSans-b0" transform="translate(1205.517578 0)"/>
     <use xlink:href="#DejaVuSans-20" transform="translate(1255.517578 0)"/>
     <use xlink:href="#DejaVuSans-20" transform="translate(1287.304688 0)"/>
     <use xlink:href="#DejaVuSans-47" transform="translate(1319.091797 0)"/>
     <use xlink:href="#DejaVuSans-4d" transform="translate(1396.582031 0)"/>
     <use xlink:href="#DejaVuSans-20" transform="translate(1482.861328 0)"/>
     <use xlink:href="#DejaVuSans-2d" transform="translate(1514.648438 0)"/>
     <use xlink:href="#DejaVuSans-31" transform="translate(1550.732422 0)"/>
     <use xlink:href="#DejaVuSans-39" transform="translate(1614.355469 0)"/>
     <use xlink:href="#DejaVuSans-64" transform="translate(1677.978516 0)"/>
     <use xlink:href="#DejaVuSans-42" transform="translate(1741.455078 0)"/>
     <use xlink:href="#DejaVuSans-20" transform="translate(1810.058594 0)"/>
     <use xlink:href="#DejaVuSans-20" transform="translate(1841.845703 0)"/>
     <use xlink:href="#DejaVuSans-42" transform="translate(1873.632812 0)"/>
     <use xlink:href="#DejaVuSans-57" transform="translate(1938.611328 0)"/>
     <use xlink:href="#DejaVuSans-20" transform="translate(2037.488281 0)"/>
     <use xlink:href="#DejaVuSans-32" transform="translate(2069.275391 0)"/>
     <use xlink:href="#DejaVuSans-2e" transform="translate(2132.898438 0)"/>
     <use xlink:href="#DejaVuSans-33" transform="translate(2164.685547 0)"/>
     <use xlink:href="#DejaVuSans-48" transform="translate(2228.308594 0)"/>
     <use xlink:href="#DejaVuSans-7a" transform="translate(2303.503906 0)"/>
     <use xlink:href="#DejaVuSans-20" transform="translate(2355.994141 0)"/>
     <use xlink:href="#DejaVuSans-20" transform="translate(2387.78125 0)"/>
     <use xlink:href="#DejaVuSans-7c" transform="translate(2419.568359 0)"/>
     <use xlink:href="#DejaVuSans-20" transform="translate(2453.259766 0)"/>
     <use xlink:href="#DejaVuSans-6b" transform="translate(2485.046875 0)"/>
     <use xlink:href="#DejaVuSans-70" transform="translate(2542.957031 0)"/>
     <use xlink:href="#DejaVuSans-20" transform="translate(2606.433594 0)"/>
     <use xlink:href="#DejaVuSans-30" transform="translate(2638.220703 0)"/>
     <use xlink:href="#DejaVuSans-2e" transform="translate(2701.84375 0)"/>
     <use xlink:href="#DejaVuSans-31" transform="translate(2733.630859 0)"/>
     <use xlink:href="#DejaVuSans-31" transform="translate(2797.253906 0)"/>
     <use xlink:href="#DejaVuSans-37" transform="translate(2860.876953 0)"/>
     <use xlink:href="#DejaVuSans-36" transform="translate(2924.5 0)"/>
     <use xlink:href="#DejaVuSans-20" transform="translate(2988.123047 0)"/>
     <use xlink:href="#DejaVuSans-6b" transform="translate(3019.910156 0)"/>
     <use xlink:href="#DejaVuSans-69" transform="translate(3077.820312 0)"/>
     <use xlink:href="#DejaVuSans-20" transform="translate(3105.603516 0)"/>
     <use xlink:href="#DejaVuSans-30" transform="translate(3137.390625 0)"/>
     <use xlink:href="#DejaVuSans-2e" transform="translate(3201.013672 0)"/>
     <use xlink:href="#DejaVuSans-31" transform="translate(3232.800781 0)"/>
     <use xlink:href="#DejaVuSans-35" transform="translate(3296.423828 0)"/>
     <use xlink:href="#DejaVuSans-33" transform="translate(3360.046875 0)"/>
     <use xlink:href="#DejaVuSans-35" transform="translate(3423.669922 0)"/>
     <use xlink:href="#DejaVuSans-20" transform="translate(3487.292969 0)"/>
     <use xlink:href="#DejaVuSans-6b" transform="translate(3519.080078 0)"/>
     <use xlink:href="#DejaVuSans-64" transform="translate(3576.990234 0)"/>
     <use xlink:href="#DejaVuSans-20" transform="translate(3640.466797 0)"/>
     <use xlink:href="#DejaVuSans-30" transform="translate(3672.253906 0)"/>
     <use xlink:href="#DejaVuSans-2e" transform="translate(3735.876953 0)"/>
     <use xlink:href="#DejaVuSans-30" transform="translate(3767.664062 0)"/>
     <use xlink:href="#DejaVuSans-33" transform="translate(3831.287109 0)"/>
     <use xlink:href="#DejaVuSans-20" transform="translate(3894.910156 0)"/>
     <use xlink:href="#DejaVuSans-40" transform="translate(3926.697266 0)"/>
     <use xlink:href="#DejaVuSans-20" transform="translate(4026.697266 0)"/>
     <use xlink:href="#DejaVuSans-50" transform="translate(4058.484375 0)"/>
     <use xlink:href="#DejaVuSans-4c" transform="translate(4118.787109 0)"/>
     <use xlink:href="#DejaVuSans-4c" transform="translate(4174.5 0)"/>
     <use xlink:href="#DejaVuSans-20" transform="translate(4230.212891 0)"/>
     <use xlink:href="#DejaVuSans-32" transform="translate(4262 0)"/>
     <use xlink:href="#DejaVuSans-30" transform="translate(4325.623047 0)"/>
     <use xlink:href="#DejaVuSans-30" transform="translate(4389.246094 0)"/>
     <use xlink:href="#DejaVuSans-48" transform="translate(4452.869141 0)"/>
     <use xlink:href="#DejaVuSans-7a" transform="translate(4528.064453 0)"/>
    </g>
   </g>
   <g id="legend_1">
    <g id="patch_7">
     <path d="M 408.7975 75.9825 
L 487.6 75.9825 
Q 489.2 75.9825 489.2 74.3825 
L 489.2 28.16 
Q 489.2 26.56 487.6 26.56 
L 408.7975 26.56 
Q 407.1975 26.56 407.1975 28.16 
L 407.1975 74.3825 
Q 407.1975 75.9825 408.7975 75.9825 
z
" style="fill: #ffffff; opacity: 0.8; stroke: #cccccc; stroke-linejoin: miter"/>
    </g>
    <g id="line2d_108">
     <path d="M 410.3975 33.04 
L 418.3975 33.04 
L 426.3975 33.04 
" style="fill: none; stroke: #1f77b4; stroke-width: 1.4; stroke-linecap: square"/>
    </g>
    <g id="text_13">
     <!-- open loop $L$ -->
     <g transform="translate(432.7975 35.84) scale(0.08 -0.08)">
      <defs>
       <path id="DejaVuSans-6f" d="M 1959 3097 
Q 1497 3097 1228 2736 
Q 959 2375 959 1747 
Q 959 1119 1226 758 
Q 1494 397 1959 397 
Q 2419 397 2687 759 
Q 2956 1122 2956 1747 
Q 2956 2369 2687 2733 
Q 2419 3097 1959 3097 
z
M 1959 3584 
Q 2709 3584 3137 3096 
Q 3566 2609 3566 1747 
Q 3566 888 3137 398 
Q 2709 -91 1959 -91 
Q 1206 -91 779 398 
Q 353 888 353 1747 
Q 353 2609 779 3096 
Q 1206 3584 1959 3584 
z
" transform="scale(0.015625)"/>
       <path id="DejaVuSans-6c" d="M 603 4863 
L 1178 4863 
L 1178 0 
L 603 0 
L 603 4863 
z
" transform="scale(0.015625)"/>
       <path id="DejaVuSans-Oblique-4c" d="M 1075 4666 
L 1709 4666 
L 909 525 
L 3181 525 
L 3078 0 
L 172 0 
L 1075 4666 
z
" transform="scale(0.015625)"/>
      </defs>
      <use xlink:href="#DejaVuSans-6f" transform="translate(0 0.015625)"/>
      <use xlink:href="#DejaVuSans-70" transform="translate(61.181641 0.015625)"/>
      <use xlink:href="#DejaVuSans-65" transform="translate(124.658203 0.015625)"/>
      <use xlink:href="#DejaVuSans-6e" transform="translate(186.181641 0.015625)"/>
      <use xlink:href="#DejaVuSans-20" transform="translate(249.560547 0.015625)"/>
      <use xlink:href="#DejaVuSans-6c" transform="translate(281.347656 0.015625)"/>
      <use xlink:href="#DejaVuSans-6f" transform="translate(309.130859 0.015625)"/>
      <use xlink:href="#DejaVuSans-6f" transform="translate(370.3125 0.015625)"/>
      <use xlink:href="#DejaVuSans-70" transform="translate(431.494141 0.015625)"/>
      <use xlink:href="#DejaVuSans-20" transform="translate(494.970703 0.015625)"/>
      <use xlink:href="#DejaVuSans-Oblique-4c" transform="translate(526.757812 0.015625)"/>
     </g>
    </g>
    <g id="line2d_109">
     <path d="M 410.3975 44.8 
L 418.3975 44.8 
L 426.3975 44.8 
" style="fill: none; stroke: #ff7f0e; stroke-width: 1.4; stroke-linecap: square"/>
    </g>
    <g id="text_14">
     <!-- sensitivity $S$ -->
     <g transform="translate(432.7975 47.6) scale(0.08 -0.08)">
      <defs>
       <path id="DejaVuSans-76" d="M 191 3500 
L 800 3500 
L 1894 563 
L 2988 3500 
L 3597 3500 
L 2284 0 
L 1503 0 
L 191 3500 
z
" transform="scale(0.015625)"/>
       <path id="DejaVuSans-79" d="M 2059 -325 
Q 1816 -950 1584 -1140 
Q 1353 -1331 966 -1331 
L 506 -1331 
L 506 -850 
L 844 -850 
Q 1081 -850 1212 -737 
Q 1344 -625 1503 -206 
L 1606 56 
L 191 3500 
L 800 3500 
L 1894 763 
L 2988 3500 
L 3597 3500 
L 2059 -325 
z
" transform="scale(0.015625)"/>
       <path id="DejaVuSans-Oblique-53" d="M 3859 4513 
L 3738 3897 
Q 3422 4066 3111 4152 
Q 2800 4238 2509 4238 
Q 1944 4238 1609 3991 
Q 1275 3744 1275 3334 
Q 1275 3109 1398 2989 
Q 1522 2869 2034 2731 
L 2413 2638 
Q 3053 2472 3303 2217 
Q 3553 1963 3553 1503 
Q 3553 797 2998 353 
Q 2444 -91 1538 -91 
Q 1166 -91 791 -17 
Q 416 56 38 206 
L 166 856 
Q 513 641 861 531 
Q 1209 422 1556 422 
Q 2147 422 2503 684 
Q 2859 947 2859 1369 
Q 2859 1650 2717 1795 
Q 2575 1941 2106 2059 
L 1728 2156 
Q 1081 2325 845 2545 
Q 609 2766 609 3163 
Q 609 3859 1145 4304 
Q 1681 4750 2541 4750 
Q 2875 4750 3203 4690 
Q 3531 4631 3859 4513 
z
" transform="scale(0.015625)"/>
      </defs>
      <use xlink:href="#DejaVuSans-73" transform="translate(0 0.015625)"/>
      <use xlink:href="#DejaVuSans-65" transform="translate(52.099609 0.015625)"/>
      <use xlink:href="#DejaVuSans-6e" transform="translate(113.623047 0.015625)"/>
      <use xlink:href="#DejaVuSans-73" transform="translate(177.001953 0.015625)"/>
      <use xlink:href="#DejaVuSans-69" transform="translate(229.101562 0.015625)"/>
      <use xlink:href="#DejaVuSans-74" transform="translate(256.884766 0.015625)"/>
      <use xlink:href="#DejaVuSans-69" transform="translate(296.09375 0.015625)"/>
      <use xlink:href="#DejaVuSans-76" transform="translate(323.876953 0.015625)"/>
      <use xlink:href="#DejaVuSans-69" transform="translate(383.056641 0.015625)"/>
      <use xlink:href="#DejaVuSans-74" transform="translate(410.839844 0.015625)"/>
      <use xlink:href="#DejaVuSans-79" transform="translate(450.048828 0.015625)"/>
      <use xlink:href="#DejaVuSans-20" transform="translate(509.228516 0.015625)"/>
      <use xlink:href="#DejaVuSans-Oblique-53" transform="translate(541.015625 0.015625)"/>
     </g>
    </g>
    <g id="line2d_110">
     <path d="M 410.3975 56.56 
L 418.3975 56.56 
L 426.3975 56.56 
" style="fill: none; stroke: #2ca02c; stroke-width: 1.4; stroke-linecap: square"/>
    </g>
    <g id="text_15">
     <!-- compl. $T$ -->
     <g transform="translate(432.7975 59.36) scale(0.08 -0.08)">
      <defs>
       <path id="DejaVuSans-63" d="M 3122 3366 
L 3122 2828 
Q 2878 2963 2633 3030 
Q 2388 3097 2138 3097 
Q 1578 3097 1268 2742 
Q 959 2388 959 1747 
Q 959 1106 1268 751 
Q 1578 397 2138 397 
Q 2388 397 2633 464 
Q 2878 531 3122 666 
L 3122 134 
Q 2881 22 2623 -34 
Q 2366 -91 2075 -91 
Q 1284 -91 818 406 
Q 353 903 353 1747 
Q 353 2603 823 3093 
Q 1294 3584 2113 3584 
Q 2378 3584 2631 3529 
Q 2884 3475 3122 3366 
z
" transform="scale(0.015625)"/>
       <path id="DejaVuSans-Oblique-54" d="M 378 4666 
L 4325 4666 
L 4225 4134 
L 2559 4134 
L 1759 0 
L 1125 0 
L 1925 4134 
L 275 4134 
L 378 4666 
z
" transform="scale(0.015625)"/>
      </defs>
      <use xlink:href="#DejaVuSans-63" transform="translate(0 0.015625)"/>
      <use xlink:href="#DejaVuSans-6f" transform="translate(54.980469 0.015625)"/>
      <use xlink:href="#DejaVuSans-6d" transform="translate(116.162109 0.015625)"/>
      <use xlink:href="#DejaVuSans-70" transform="translate(213.574219 0.015625)"/>
      <use xlink:href="#DejaVuSans-6c" transform="translate(277.050781 0.015625)"/>
      <use xlink:href="#DejaVuSans-2e" transform="translate(304.833984 0.015625)"/>
      <use xlink:href="#DejaVuSans-20" transform="translate(336.621094 0.015625)"/>
      <use xlink:href="#DejaVuSans-Oblique-54" transform="translate(368.408203 0.015625)"/>
     </g>
    </g>
    <g id="line2d_111">
     <path d="M 410.3975 68.31875 
L 418.3975 68.31875 
L 426.3975 68.31875 
" style="fill: none; stroke-dasharray: 2.96,1.28; stroke-dashoffset: 0; stroke: #ff0000; stroke-width: 0.8"/>
    </g>
    <g id="text_16">
     <!-- Ms target 1.6 -->
     <g transform="translate(432.7975 71.11875) scale(0.08 -0.08)">
      <defs>
       <path id="DejaVuSans-72" d="M 2631 2963 
Q 2534 3019 2420 3045 
Q 2306 3072 2169 3072 
Q 1681 3072 1420 2755 
Q 1159 2438 1159 1844 
L 1159 0 
L 581 0 
L 581 3500 
L 1159 3500 
L 1159 2956 
Q 1341 3275 1631 3429 
Q 1922 3584 2338 3584 
Q 2397 3584 2469 3576 
Q 2541 3569 2628 3553 
L 2631 2963 
z
" transform="scale(0.015625)"/>
      </defs>
      <use xlink:href="#DejaVuSans-4d"/>
      <use xlink:href="#DejaVuSans-73" transform="translate(86.279297 0)"/>
      <use xlink:href="#DejaVuSans-20" transform="translate(138.378906 0)"/>
      <use xlink:href="#DejaVuSans-74" transform="translate(170.166016 0)"/>
      <use xlink:href="#DejaVuSans-61" transform="translate(209.375 0)"/>
      <use xlink:href="#DejaVuSans-72" transform="translate(270.654297 0)"/>
      <use xlink:href="#DejaVuSans-67" transform="translate(310.017578 0)"/>
      <use xlink:href="#DejaVuSans-65" transform="translate(373.494141 0)"/>
      <use xlink:href="#DejaVuSans-74" transform="translate(435.017578 0)"/>
      <use xlink:href="#DejaVuSans-20" transform="translate(474.226562 0)"/>
      <use xlink:href="#DejaVuSans-31" transform="translate(506.013672 0)"/>
      <use xlink:href="#DejaVuSans-2e" transform="translate(569.636719 0)"/>
      <use xlink:href="#DejaVuSans-36" transform="translate(601.423828 0)"/>
     </g>
    </g>
   </g>
  </g>
  <g id="axes_2">
   <g id="patch_8">
    <path d="M 59.375 497.356 
L 493.2 497.356 
L 493.2 268.418 
L 59.375 268.418 
z
" style="fill: #ffffff"/>
   </g>
   <g id="matplotlib.axis_3">
    <g id="xtick_41">
     <g id="line2d_112">
      <path d="M 108.77485 497.356 
L 108.77485 268.418 
" clip-path="url(#pbc9c59a34c)" style="fill: none; stroke: #b0b0b0; stroke-width: 0.8; stroke-linecap: square"/>
     </g>
     <g id="line2d_113">
      <g>
       <use xlink:href="#m51056c22f0" x="108.77485" y="497.356" style="stroke: #000000; stroke-width: 0.8"/>
      </g>
     </g>
     <g id="text_17">
      <!-- $\mathdefault{10^{-1}}$ -->
      <g transform="translate(97.02485 511.954438) scale(0.1 -0.1)">
       <use xlink:href="#DejaVuSans-31" transform="translate(0 0.684375)"/>
       <use xlink:href="#DejaVuSans-30" transform="translate(63.623047 0.684375)"/>
       <use xlink:href="#DejaVuSans-2212" transform="translate(128.203125 38.965625) scale(0.7)"/>
       <use xlink:href="#DejaVuSans-31" transform="translate(186.855469 38.965625) scale(0.7)"/>
      </g>
     </g>
    </g>
    <g id="xtick_42">
     <g id="line2d_114">
      <path d="M 207.37144 497.356 
L 207.37144 268.418 
" clip-path="url(#pbc9c59a34c)" style="fill: none; stroke: #b0b0b0; stroke-width: 0.8; stroke-linecap: square"/>
     </g>
     <g id="line2d_115">
      <g>
       <use xlink:href="#m51056c22f0" x="207.37144" y="497.356" style="stroke: #000000; stroke-width: 0.8"/>
      </g>
     </g>
     <g id="text_18">
      <!-- $\mathdefault{10^{0}}$ -->
      <g transform="translate(198.57144 511.954438) scale(0.1 -0.1)">
       <use xlink:href="#DejaVuSans-31" transform="translate(0 0.765625)"/>
       <use xlink:href="#DejaVuSans-30" transform="translate(63.623047 0.765625)"/>
       <use xlink:href="#DejaVuSans-30" transform="translate(128.203125 39.046875) scale(0.7)"/>
      </g>
     </g>
    </g>
    <g id="xtick_43">
     <g id="line2d_116">
      <path d="M 305.968031 497.356 
L 305.968031 268.418 
" clip-path="url(#pbc9c59a34c)" style="fill: none; stroke: #b0b0b0; stroke-width: 0.8; stroke-linecap: square"/>
     </g>
     <g id="line2d_117">
      <g>
       <use xlink:href="#m51056c22f0" x="305.968031" y="497.356" style="stroke: #000000; stroke-width: 0.8"/>
      </g>
     </g>
     <g id="text_19">
      <!-- $\mathdefault{10^{1}}$ -->
      <g transform="translate(297.168031 511.954438) scale(0.1 -0.1)">
       <use xlink:href="#DejaVuSans-31" transform="translate(0 0.684375)"/>
       <use xlink:href="#DejaVuSans-30" transform="translate(63.623047 0.684375)"/>
       <use xlink:href="#DejaVuSans-31" transform="translate(128.203125 38.965625) scale(0.7)"/>
      </g>
     </g>
    </g>
    <g id="xtick_44">
     <g id="line2d_118">
      <path d="M 404.564622 497.356 
L 404.564622 268.418 
" clip-path="url(#pbc9c59a34c)" style="fill: none; stroke: #b0b0b0; stroke-width: 0.8; stroke-linecap: square"/>
     </g>
     <g id="line2d_119">
      <g>
       <use xlink:href="#m51056c22f0" x="404.564622" y="497.356" style="stroke: #000000; stroke-width: 0.8"/>
      </g>
     </g>
     <g id="text_20">
      <!-- $\mathdefault{10^{2}}$ -->
      <g transform="translate(395.764622 511.954438) scale(0.1 -0.1)">
       <use xlink:href="#DejaVuSans-31" transform="translate(0 0.765625)"/>
       <use xlink:href="#DejaVuSans-30" transform="translate(63.623047 0.765625)"/>
       <use xlink:href="#DejaVuSans-32" transform="translate(128.203125 39.046875) scale(0.7)"/>
      </g>
     </g>
    </g>
    <g id="xtick_45">
     <g id="line2d_120">
      <path d="M 69.539321 497.356 
L 69.539321 268.418 
" clip-path="url(#pbc9c59a34c)" style="fill: none; stroke: #b0b0b0; stroke-width: 0.8; stroke-linecap: square"/>
     </g>
     <g id="line2d_121">
      <g>
       <use xlink:href="#mf9a3423fe8" x="69.539321" y="497.356" style="stroke: #000000; stroke-width: 0.6"/>
      </g>
     </g>
    </g>
    <g id="xtick_46">
     <g id="line2d_122">
      <path d="M 79.094318 497.356 
L 79.094318 268.418 
" clip-path="url(#pbc9c59a34c)" style="fill: none; stroke: #b0b0b0; stroke-width: 0.8; stroke-linecap: square"/>
     </g>
     <g id="line2d_123">
      <g>
       <use xlink:href="#mf9a3423fe8" x="79.094318" y="497.356" style="stroke: #000000; stroke-width: 0.6"/>
      </g>
     </g>
    </g>
    <g id="xtick_47">
     <g id="line2d_124">
      <path d="M 86.901319 497.356 
L 86.901319 268.418 
" clip-path="url(#pbc9c59a34c)" style="fill: none; stroke: #b0b0b0; stroke-width: 0.8; stroke-linecap: square"/>
     </g>
     <g id="line2d_125">
      <g>
       <use xlink:href="#mf9a3423fe8" x="86.901319" y="497.356" style="stroke: #000000; stroke-width: 0.6"/>
      </g>
     </g>
    </g>
    <g id="xtick_48">
     <g id="line2d_126">
      <path d="M 93.502044 497.356 
L 93.502044 268.418 
" clip-path="url(#pbc9c59a34c)" style="fill: none; stroke: #b0b0b0; stroke-width: 0.8; stroke-linecap: square"/>
     </g>
     <g id="line2d_127">
      <g>
       <use xlink:href="#mf9a3423fe8" x="93.502044" y="497.356" style="stroke: #000000; stroke-width: 0.6"/>
      </g>
     </g>
    </g>
    <g id="xtick_49">
     <g id="line2d_128">
      <path d="M 99.219853 497.356 
L 99.219853 268.418 
" clip-path="url(#pbc9c59a34c)" style="fill: none; stroke: #b0b0b0; stroke-width: 0.8; stroke-linecap: square"/>
     </g>
     <g id="line2d_129">
      <g>
       <use xlink:href="#mf9a3423fe8" x="99.219853" y="497.356" style="stroke: #000000; stroke-width: 0.6"/>
      </g>
     </g>
    </g>
    <g id="xtick_50">
     <g id="line2d_130">
      <path d="M 104.263317 497.356 
L 104.263317 268.418 
" clip-path="url(#pbc9c59a34c)" style="fill: none; stroke: #b0b0b0; stroke-width: 0.8; stroke-linecap: square"/>
     </g>
     <g id="line2d_131">
      <g>
       <use xlink:href="#mf9a3423fe8" x="104.263317" y="497.356" style="stroke: #000000; stroke-width: 0.6"/>
      </g>
     </g>
    </g>
    <g id="xtick_51">
     <g id="line2d_132">
      <path d="M 138.455381 497.356 
L 138.455381 268.418 
" clip-path="url(#pbc9c59a34c)" style="fill: none; stroke: #b0b0b0; stroke-width: 0.8; stroke-linecap: square"/>
     </g>
     <g id="line2d_133">
      <g>
       <use xlink:href="#mf9a3423fe8" x="138.455381" y="497.356" style="stroke: #000000; stroke-width: 0.6"/>
      </g>
     </g>
    </g>
    <g id="xtick_52">
     <g id="line2d_134">
      <path d="M 155.817379 497.356 
L 155.817379 268.418 
" clip-path="url(#pbc9c59a34c)" style="fill: none; stroke: #b0b0b0; stroke-width: 0.8; stroke-linecap: square"/>
     </g>
     <g id="line2d_135">
      <g>
       <use xlink:href="#mf9a3423fe8" x="155.817379" y="497.356" style="stroke: #000000; stroke-width: 0.6"/>
      </g>
     </g>
    </g>
    <g id="xtick_53">
     <g id="line2d_136">
      <path d="M 168.135912 497.356 
L 168.135912 268.418 
" clip-path="url(#pbc9c59a34c)" style="fill: none; stroke: #b0b0b0; stroke-width: 0.8; stroke-linecap: square"/>
     </g>
     <g id="line2d_137">
      <g>
       <use xlink:href="#mf9a3423fe8" x="168.135912" y="497.356" style="stroke: #000000; stroke-width: 0.6"/>
      </g>
     </g>
    </g>
    <g id="xtick_54">
     <g id="line2d_138">
      <path d="M 177.690909 497.356 
L 177.690909 268.418 
" clip-path="url(#pbc9c59a34c)" style="fill: none; stroke: #b0b0b0; stroke-width: 0.8; stroke-linecap: square"/>
     </g>
     <g id="line2d_139">
      <g>
       <use xlink:href="#mf9a3423fe8" x="177.690909" y="497.356" style="stroke: #000000; stroke-width: 0.6"/>
      </g>
     </g>
    </g>
    <g id="xtick_55">
     <g id="line2d_140">
      <path d="M 185.49791 497.356 
L 185.49791 268.418 
" clip-path="url(#pbc9c59a34c)" style="fill: none; stroke: #b0b0b0; stroke-width: 0.8; stroke-linecap: square"/>
     </g>
     <g id="line2d_141">
      <g>
       <use xlink:href="#mf9a3423fe8" x="185.49791" y="497.356" style="stroke: #000000; stroke-width: 0.6"/>
      </g>
     </g>
    </g>
    <g id="xtick_56">
     <g id="line2d_142">
      <path d="M 192.098635 497.356 
L 192.098635 268.418 
" clip-path="url(#pbc9c59a34c)" style="fill: none; stroke: #b0b0b0; stroke-width: 0.8; stroke-linecap: square"/>
     </g>
     <g id="line2d_143">
      <g>
       <use xlink:href="#mf9a3423fe8" x="192.098635" y="497.356" style="stroke: #000000; stroke-width: 0.6"/>
      </g>
     </g>
    </g>
    <g id="xtick_57">
     <g id="line2d_144">
      <path d="M 197.816444 497.356 
L 197.816444 268.418 
" clip-path="url(#pbc9c59a34c)" style="fill: none; stroke: #b0b0b0; stroke-width: 0.8; stroke-linecap: square"/>
     </g>
     <g id="line2d_145">
      <g>
       <use xlink:href="#mf9a3423fe8" x="197.816444" y="497.356" style="stroke: #000000; stroke-width: 0.6"/>
      </g>
     </g>
    </g>
    <g id="xtick_58">
     <g id="line2d_146">
      <path d="M 202.859908 497.356 
L 202.859908 268.418 
" clip-path="url(#pbc9c59a34c)" style="fill: none; stroke: #b0b0b0; stroke-width: 0.8; stroke-linecap: square"/>
     </g>
     <g id="line2d_147">
      <g>
       <use xlink:href="#mf9a3423fe8" x="202.859908" y="497.356" style="stroke: #000000; stroke-width: 0.6"/>
      </g>
     </g>
    </g>
    <g id="xtick_59">
     <g id="line2d_148">
      <path d="M 237.051972 497.356 
L 237.051972 268.418 
" clip-path="url(#pbc9c59a34c)" style="fill: none; stroke: #b0b0b0; stroke-width: 0.8; stroke-linecap: square"/>
     </g>
     <g id="line2d_149">
      <g>
       <use xlink:href="#mf9a3423fe8" x="237.051972" y="497.356" style="stroke: #000000; stroke-width: 0.6"/>
      </g>
     </g>
    </g>
    <g id="xtick_60">
     <g id="line2d_150">
      <path d="M 254.41397 497.356 
L 254.41397 268.418 
" clip-path="url(#pbc9c59a34c)" style="fill: none; stroke: #b0b0b0; stroke-width: 0.8; stroke-linecap: square"/>
     </g>
     <g id="line2d_151">
      <g>
       <use xlink:href="#mf9a3423fe8" x="254.41397" y="497.356" style="stroke: #000000; stroke-width: 0.6"/>
      </g>
     </g>
    </g>
    <g id="xtick_61">
     <g id="line2d_152">
      <path d="M 266.732503 497.356 
L 266.732503 268.418 
" clip-path="url(#pbc9c59a34c)" style="fill: none; stroke: #b0b0b0; stroke-width: 0.8; stroke-linecap: square"/>
     </g>
     <g id="line2d_153">
      <g>
       <use xlink:href="#mf9a3423fe8" x="266.732503" y="497.356" style="stroke: #000000; stroke-width: 0.6"/>
      </g>
     </g>
    </g>
    <g id="xtick_62">
     <g id="line2d_154">
      <path d="M 276.2875 497.356 
L 276.2875 268.418 
" clip-path="url(#pbc9c59a34c)" style="fill: none; stroke: #b0b0b0; stroke-width: 0.8; stroke-linecap: square"/>
     </g>
     <g id="line2d_155">
      <g>
       <use xlink:href="#mf9a3423fe8" x="276.2875" y="497.356" style="stroke: #000000; stroke-width: 0.6"/>
      </g>
     </g>
    </g>
    <g id="xtick_63">
     <g id="line2d_156">
      <path d="M 284.094501 497.356 
L 284.094501 268.418 
" clip-path="url(#pbc9c59a34c)" style="fill: none; stroke: #b0b0b0; stroke-width: 0.8; stroke-linecap: square"/>
     </g>
     <g id="line2d_157">
      <g>
       <use xlink:href="#mf9a3423fe8" x="284.094501" y="497.356" style="stroke: #000000; stroke-width: 0.6"/>
      </g>
     </g>
    </g>
    <g id="xtick_64">
     <g id="line2d_158">
      <path d="M 290.695226 497.356 
L 290.695226 268.418 
" clip-path="url(#pbc9c59a34c)" style="fill: none; stroke: #b0b0b0; stroke-width: 0.8; stroke-linecap: square"/>
     </g>
     <g id="line2d_159">
      <g>
       <use xlink:href="#mf9a3423fe8" x="290.695226" y="497.356" style="stroke: #000000; stroke-width: 0.6"/>
      </g>
     </g>
    </g>
    <g id="xtick_65">
     <g id="line2d_160">
      <path d="M 296.413034 497.356 
L 296.413034 268.418 
" clip-path="url(#pbc9c59a34c)" style="fill: none; stroke: #b0b0b0; stroke-width: 0.8; stroke-linecap: square"/>
     </g>
     <g id="line2d_161">
      <g>
       <use xlink:href="#mf9a3423fe8" x="296.413034" y="497.356" style="stroke: #000000; stroke-width: 0.6"/>
      </g>
     </g>
    </g>
    <g id="xtick_66">
     <g id="line2d_162">
      <path d="M 301.456499 497.356 
L 301.456499 268.418 
" clip-path="url(#pbc9c59a34c)" style="fill: none; stroke: #b0b0b0; stroke-width: 0.8; stroke-linecap: square"/>
     </g>
     <g id="line2d_163">
      <g>
       <use xlink:href="#mf9a3423fe8" x="301.456499" y="497.356" style="stroke: #000000; stroke-width: 0.6"/>
      </g>
     </g>
    </g>
    <g id="xtick_67">
     <g id="line2d_164">
      <path d="M 335.648563 497.356 
L 335.648563 268.418 
" clip-path="url(#pbc9c59a34c)" style="fill: none; stroke: #b0b0b0; stroke-width: 0.8; stroke-linecap: square"/>
     </g>
     <g id="line2d_165">
      <g>
       <use xlink:href="#mf9a3423fe8" x="335.648563" y="497.356" style="stroke: #000000; stroke-width: 0.6"/>
      </g>
     </g>
    </g>
    <g id="xtick_68">
     <g id="line2d_166">
      <path d="M 353.01056 497.356 
L 353.01056 268.418 
" clip-path="url(#pbc9c59a34c)" style="fill: none; stroke: #b0b0b0; stroke-width: 0.8; stroke-linecap: square"/>
     </g>
     <g id="line2d_167">
      <g>
       <use xlink:href="#mf9a3423fe8" x="353.01056" y="497.356" style="stroke: #000000; stroke-width: 0.6"/>
      </g>
     </g>
    </g>
    <g id="xtick_69">
     <g id="line2d_168">
      <path d="M 365.329094 497.356 
L 365.329094 268.418 
" clip-path="url(#pbc9c59a34c)" style="fill: none; stroke: #b0b0b0; stroke-width: 0.8; stroke-linecap: square"/>
     </g>
     <g id="line2d_169">
      <g>
       <use xlink:href="#mf9a3423fe8" x="365.329094" y="497.356" style="stroke: #000000; stroke-width: 0.6"/>
      </g>
     </g>
    </g>
    <g id="xtick_70">
     <g id="line2d_170">
      <path d="M 374.884091 497.356 
L 374.884091 268.418 
" clip-path="url(#pbc9c59a34c)" style="fill: none; stroke: #b0b0b0; stroke-width: 0.8; stroke-linecap: square"/>
     </g>
     <g id="line2d_171">
      <g>
       <use xlink:href="#mf9a3423fe8" x="374.884091" y="497.356" style="stroke: #000000; stroke-width: 0.6"/>
      </g>
     </g>
    </g>
    <g id="xtick_71">
     <g id="line2d_172">
      <path d="M 382.691092 497.356 
L 382.691092 268.418 
" clip-path="url(#pbc9c59a34c)" style="fill: none; stroke: #b0b0b0; stroke-width: 0.8; stroke-linecap: square"/>
     </g>
     <g id="line2d_173">
      <g>
       <use xlink:href="#mf9a3423fe8" x="382.691092" y="497.356" style="stroke: #000000; stroke-width: 0.6"/>
      </g>
     </g>
    </g>
    <g id="xtick_72">
     <g id="line2d_174">
      <path d="M 389.291817 497.356 
L 389.291817 268.418 
" clip-path="url(#pbc9c59a34c)" style="fill: none; stroke: #b0b0b0; stroke-width: 0.8; stroke-linecap: square"/>
     </g>
     <g id="line2d_175">
      <g>
       <use xlink:href="#mf9a3423fe8" x="389.291817" y="497.356" style="stroke: #000000; stroke-width: 0.6"/>
      </g>
     </g>
    </g>
    <g id="xtick_73">
     <g id="line2d_176">
      <path d="M 395.009625 497.356 
L 395.009625 268.418 
" clip-path="url(#pbc9c59a34c)" style="fill: none; stroke: #b0b0b0; stroke-width: 0.8; stroke-linecap: square"/>
     </g>
     <g id="line2d_177">
      <g>
       <use xlink:href="#mf9a3423fe8" x="395.009625" y="497.356" style="stroke: #000000; stroke-width: 0.6"/>
      </g>
     </g>
    </g>
    <g id="xtick_74">
     <g id="line2d_178">
      <path d="M 400.05309 497.356 
L 400.05309 268.418 
" clip-path="url(#pbc9c59a34c)" style="fill: none; stroke: #b0b0b0; stroke-width: 0.8; stroke-linecap: square"/>
     </g>
     <g id="line2d_179">
      <g>
       <use xlink:href="#mf9a3423fe8" x="400.05309" y="497.356" style="stroke: #000000; stroke-width: 0.6"/>
      </g>
     </g>
    </g>
    <g id="xtick_75">
     <g id="line2d_180">
      <path d="M 434.245154 497.356 
L 434.245154 268.418 
" clip-path="url(#pbc9c59a34c)" style="fill: none; stroke: #b0b0b0; stroke-width: 0.8; stroke-linecap: square"/>
     </g>
     <g id="line2d_181">
      <g>
       <use xlink:href="#mf9a3423fe8" x="434.245154" y="497.356" style="stroke: #000000; stroke-width: 0.6"/>
      </g>
     </g>
    </g>
    <g id="xtick_76">
     <g id="line2d_182">
      <path d="M 451.607151 497.356 
L 451.607151 268.418 
" clip-path="url(#pbc9c59a34c)" style="fill: none; stroke: #b0b0b0; stroke-width: 0.8; stroke-linecap: square"/>
     </g>
     <g id="line2d_183">
      <g>
       <use xlink:href="#mf9a3423fe8" x="451.607151" y="497.356" style="stroke: #000000; stroke-width: 0.6"/>
      </g>
     </g>
    </g>
    <g id="xtick_77">
     <g id="line2d_184">
      <path d="M 463.925685 497.356 
L 463.925685 268.418 
" clip-path="url(#pbc9c59a34c)" style="fill: none; stroke: #b0b0b0; stroke-width: 0.8; stroke-linecap: square"/>
     </g>
     <g id="line2d_185">
      <g>
       <use xlink:href="#mf9a3423fe8" x="463.925685" y="497.356" style="stroke: #000000; stroke-width: 0.6"/>
      </g>
     </g>
    </g>
    <g id="xtick_78">
     <g id="line2d_186">
      <path d="M 473.480682 497.356 
L 473.480682 268.418 
" clip-path="url(#pbc9c59a34c)" style="fill: none; stroke: #b0b0b0; stroke-width: 0.8; stroke-linecap: square"/>
     </g>
     <g id="line2d_187">
      <g>
       <use xlink:href="#mf9a3423fe8" x="473.480682" y="497.356" style="stroke: #000000; stroke-width: 0.6"/>
      </g>
     </g>
    </g>
    <g id="xtick_79">
     <g id="line2d_188">
      <path d="M 481.287683 497.356 
L 481.287683 268.418 
" clip-path="url(#pbc9c59a34c)" style="fill: none; stroke: #b0b0b0; stroke-width: 0.8; stroke-linecap: square"/>
     </g>
     <g id="line2d_189">
      <g>
       <use xlink:href="#mf9a3423fe8" x="481.287683" y="497.356" style="stroke: #000000; stroke-width: 0.6"/>
      </g>
     </g>
    </g>
    <g id="xtick_80">
     <g id="line2d_190">
      <path d="M 487.888408 497.356 
L 487.888408 268.418 
" clip-path="url(#pbc9c59a34c)" style="fill: none; stroke: #b0b0b0; stroke-width: 0.8; stroke-linecap: square"/>
     </g>
     <g id="line2d_191">
      <g>
       <use xlink:href="#mf9a3423fe8" x="487.888408" y="497.356" style="stroke: #000000; stroke-width: 0.6"/>
      </g>
     </g>
    </g>
    <g id="text_21">
     <!-- frequency [Hz] -->
     <g transform="translate(239.335938 525.632563) scale(0.1 -0.1)">
      <defs>
       <path id="DejaVuSans-66" d="M 2375 4863 
L 2375 4384 
L 1825 4384 
Q 1516 4384 1395 4259 
Q 1275 4134 1275 3809 
L 1275 3500 
L 2222 3500 
L 2222 3053 
L 1275 3053 
L 1275 0 
L 697 0 
L 697 3053 
L 147 3053 
L 147 3500 
L 697 3500 
L 697 3744 
Q 697 4328 969 4595 
Q 1241 4863 1831 4863 
L 2375 4863 
z
" transform="scale(0.015625)"/>
       <path id="DejaVuSans-71" d="M 947 1747 
Q 947 1113 1208 752 
Q 1469 391 1925 391 
Q 2381 391 2643 752 
Q 2906 1113 2906 1747 
Q 2906 2381 2643 2742 
Q 2381 3103 1925 3103 
Q 1469 3103 1208 2742 
Q 947 2381 947 1747 
z
M 2906 525 
Q 2725 213 2448 61 
Q 2172 -91 1784 -91 
Q 1150 -91 751 415 
Q 353 922 353 1747 
Q 353 2572 751 3078 
Q 1150 3584 1784 3584 
Q 2172 3584 2448 3432 
Q 2725 3281 2906 2969 
L 2906 3500 
L 3481 3500 
L 3481 -1331 
L 2906 -1331 
L 2906 525 
z
" transform="scale(0.015625)"/>
      </defs>
      <use xlink:href="#DejaVuSans-66"/>
      <use xlink:href="#DejaVuSans-72" transform="translate(35.205078 0)"/>
      <use xlink:href="#DejaVuSans-65" transform="translate(74.068359 0)"/>
      <use xlink:href="#DejaVuSans-71" transform="translate(135.591797 0)"/>
      <use xlink:href="#DejaVuSans-75" transform="translate(199.068359 0)"/>
      <use xlink:href="#DejaVuSans-65" transform="translate(262.447266 0)"/>
      <use xlink:href="#DejaVuSans-6e" transform="translate(323.970703 0)"/>
      <use xlink:href="#DejaVuSans-63" transform="translate(387.349609 0)"/>
      <use xlink:href="#DejaVuSans-79" transform="translate(442.330078 0)"/>
      <use xlink:href="#DejaVuSans-20" transform="translate(501.509766 0)"/>
      <use xlink:href="#DejaVuSans-5b" transform="translate(533.296875 0)"/>
      <use xlink:href="#DejaVuSans-48" transform="translate(572.310547 0)"/>
      <use xlink:href="#DejaVuSans-7a" transform="translate(647.505859 0)"/>
      <use xlink:href="#DejaVuSans-5d" transform="translate(699.996094 0)"/>
     </g>
    </g>
   </g>
   <g id="matplotlib.axis_4">
    <g id="ytick_11">
     <g id="line2d_192">
      <path d="M 59.375 493.700485 
L 493.2 493.700485 
" clip-path="url(#pbc9c59a34c)" style="fill: none; stroke: #b0b0b0; stroke-width: 0.8; stroke-linecap: square"/>
     </g>
     <g id="line2d_193">
      <g>
       <use xlink:href="#m27347b7aef" x="59.375" y="493.700485" style="stroke: #000000; stroke-width: 0.8"/>
      </g>
     </g>
     <g id="text_22">
      <!-- −200 -->
      <g transform="translate(24.907813 497.499704) scale(0.1 -0.1)">
       <use xlink:href="#DejaVuSans-2212"/>
       <use xlink:href="#DejaVuSans-32" transform="translate(83.789062 0)"/>
       <use xlink:href="#DejaVuSans-30" transform="translate(147.412109 0)"/>
       <use xlink:href="#DejaVuSans-30" transform="translate(211.035156 0)"/>
      </g>
     </g>
    </g>
    <g id="ytick_12">
     <g id="line2d_194">
      <path d="M 59.375 459.946697 
L 493.2 459.946697 
" clip-path="url(#pbc9c59a34c)" style="fill: none; stroke: #b0b0b0; stroke-width: 0.8; stroke-linecap: square"/>
     </g>
     <g id="line2d_195">
      <g>
       <use xlink:href="#m27347b7aef" x="59.375" y="459.946697" style="stroke: #000000; stroke-width: 0.8"/>
      </g>
     </g>
     <g id="text_23">
      <!-- −100 -->
      <g transform="translate(24.907813 463.745916) scale(0.1 -0.1)">
       <use xlink:href="#DejaVuSans-2212"/>
       <use xlink:href="#DejaVuSans-31" transform="translate(83.789062 0)"/>
       <use xlink:href="#DejaVuSans-30" transform="translate(147.412109 0)"/>
       <use xlink:href="#DejaVuSans-30" transform="translate(211.035156 0)"/>
      </g>
     </g>
    </g>
    <g id="ytick_13">
     <g id="line2d_196">
      <path d="M 59.375 426.192909 
L 493.2 426.192909 
" clip-path="url(#pbc9c59a34c)" style="fill: none; stroke: #b0b0b0; stroke-width: 0.8; stroke-linecap: square"/>
     </g>
     <g id="line2d_197">
      <g>
       <use xlink:href="#m27347b7aef" x="59.375" y="426.192909" style="stroke: #000000; stroke-width: 0.8"/>
      </g>
     </g>
     <g id="text_24">
      <!-- 0 -->
      <g transform="translate(46.0125 429.992128) scale(0.1 -0.1)">
       <use xlink:href="#DejaVuSans-30"/>
      </g>
     </g>
    </g>
    <g id="ytick_14">
     <g id="line2d_198">
      <path d="M 59.375 392.439121 
L 493.2 392.439121 
" clip-path="url(#pbc9c59a34c)" style="fill: none; stroke: #b0b0b0; stroke-width: 0.8; stroke-linecap: square"/>
     </g>
     <g id="line2d_199">
      <g>
       <use xlink:href="#m27347b7aef" x="59.375" y="392.439121" style="stroke: #000000; stroke-width: 0.8"/>
      </g>
     </g>
     <g id="text_25">
      <!-- 100 -->
      <g transform="translate(33.2875 396.23834) scale(0.1 -0.1)">
       <use xlink:href="#DejaVuSans-31"/>
       <use xlink:href="#DejaVuSans-30" transform="translate(63.623047 0)"/>
       <use xlink:href="#DejaVuSans-30" transform="translate(127.246094 0)"/>
      </g>
     </g>
    </g>
    <g id="ytick_15">
     <g id="line2d_200">
      <path d="M 59.375 358.685334 
L 493.2 358.685334 
" clip-path="url(#pbc9c59a34c)" style="fill: none; stroke: #b0b0b0; stroke-width: 0.8; stroke-linecap: square"/>
     </g>
     <g id="line2d_201">
      <g>
       <use xlink:href="#m27347b7aef" x="59.375" y="358.685334" style="stroke: #000000; stroke-width: 0.8"/>
      </g>
     </g>
     <g id="text_26">
      <!-- 200 -->
      <g transform="translate(33.2875 362.484552) scale(0.1 -0.1)">
       <use xlink:href="#DejaVuSans-32"/>
       <use xlink:href="#DejaVuSans-30" transform="translate(63.623047 0)"/>
       <use xlink:href="#DejaVuSans-30" transform="translate(127.246094 0)"/>
      </g>
     </g>
    </g>
    <g id="ytick_16">
     <g id="line2d_202">
      <path d="M 59.375 324.931546 
L 493.2 324.931546 
" clip-path="url(#pbc9c59a34c)" style="fill: none; stroke: #b0b0b0; stroke-width: 0.8; stroke-linecap: square"/>
     </g>
     <g id="line2d_203">
      <g>
       <use xlink:href="#m27347b7aef" x="59.375" y="324.931546" style="stroke: #000000; stroke-width: 0.8"/>
      </g>
     </g>
     <g id="text_27">
      <!-- 300 -->
      <g transform="translate(33.2875 328.730765) scale(0.1 -0.1)">
       <use xlink:href="#DejaVuSans-33"/>
       <use xlink:href="#DejaVuSans-30" transform="translate(63.623047 0)"/>
       <use xlink:href="#DejaVuSans-30" transform="translate(127.246094 0)"/>
      </g>
     </g>
    </g>
    <g id="ytick_17">
     <g id="line2d_204">
      <path d="M 59.375 291.177758 
L 493.2 291.177758 
" clip-path="url(#pbc9c59a34c)" style="fill: none; stroke: #b0b0b0; stroke-width: 0.8; stroke-linecap: square"/>
     </g>
     <g id="line2d_205">
      <g>
       <use xlink:href="#m27347b7aef" x="59.375" y="291.177758" style="stroke: #000000; stroke-width: 0.8"/>
      </g>
     </g>
     <g id="text_28">
      <!-- 400 -->
      <g transform="translate(33.2875 294.976977) scale(0.1 -0.1)">
       <use xlink:href="#DejaVuSans-34"/>
       <use xlink:href="#DejaVuSans-30" transform="translate(63.623047 0)"/>
       <use xlink:href="#DejaVuSans-30" transform="translate(127.246094 0)"/>
      </g>
     </g>
    </g>
    <g id="text_29">
     <!-- phase [deg] -->
     <g transform="translate(18.828125 412.890906) rotate(-90) scale(0.1 -0.1)">
      <defs>
       <path id="DejaVuSans-68" d="M 3513 2113 
L 3513 0 
L 2938 0 
L 2938 2094 
Q 2938 2591 2744 2837 
Q 2550 3084 2163 3084 
Q 1697 3084 1428 2787 
Q 1159 2491 1159 1978 
L 1159 0 
L 581 0 
L 581 4863 
L 1159 4863 
L 1159 2956 
Q 1366 3272 1645 3428 
Q 1925 3584 2291 3584 
Q 2894 3584 3203 3211 
Q 3513 2838 3513 2113 
z
" transform="scale(0.015625)"/>
      </defs>
      <use xlink:href="#DejaVuSans-70"/>
      <use xlink:href="#DejaVuSans-68" transform="translate(63.476562 0)"/>
      <use xlink:href="#DejaVuSans-61" transform="translate(126.855469 0)"/>
      <use xlink:href="#DejaVuSans-73" transform="translate(188.134766 0)"/>
      <use xlink:href="#DejaVuSans-65" transform="translate(240.234375 0)"/>
      <use xlink:href="#DejaVuSans-20" transform="translate(301.757812 0)"/>
      <use xlink:href="#DejaVuSans-5b" transform="translate(333.544922 0)"/>
      <use xlink:href="#DejaVuSans-64" transform="translate(372.558594 0)"/>
      <use xlink:href="#DejaVuSans-65" transform="translate(436.035156 0)"/>
      <use xlink:href="#DejaVuSans-67" transform="translate(497.558594 0)"/>
      <use xlink:href="#DejaVuSans-5d" transform="translate(561.035156 0)"/>
     </g>
    </g>
   </g>
   <g id="line2d_206">
    <path d="M 79.094318 391.133459 
L 88.168229 390.028853 
L 96.321598 388.81624 
L 103.817438 387.479723 
L 110.787254 386.011733 
L 117.231046 384.430685 
L 123.411826 382.684666 
L 129.329594 380.779455 
L 135.115856 378.678867 
L 140.902118 376.335526 
L 146.819886 373.69521 
L 153.395184 370.510105 
L 162.337589 365.903043 
L 175.093666 359.34652 
L 181.80047 356.167128 
L 187.718238 353.602817 
L 193.5045 351.336602 
L 199.290762 349.309836 
L 205.20853 347.472729 
L 211.38931 345.787438 
L 217.964608 344.228037 
L 225.06593 342.778811 
L 232.693275 341.452367 
L 241.241163 340.197702 
L 251.104109 338.984426 
L 264.517717 337.582331 
L 277.536807 336.17294 
L 282.665539 335.402646 
L 286.084694 334.680084 
L 288.583307 333.936588 
L 290.42439 333.178198 
L 292.002462 332.285887 
L 293.186015 331.379596 
L 294.238063 330.30556 
L 295.158605 329.04871 
L 295.947641 327.616152 
L 296.736676 325.691854 
L 297.394206 323.539807 
L 298.051736 320.682691 
L 298.709266 316.907301 
L 299.498301 311.073307 
L 301.339385 296.702039 
L 302.12842 292.516606 
L 302.917456 289.538363 
L 303.706492 287.404462 
L 304.495528 285.835892 
L 305.416069 284.47944 
L 306.468117 283.339798 
L 307.651671 282.397231 
L 309.098236 281.557855 
L 310.807814 280.846637 
L 312.911909 280.230908 
L 315.542028 279.708248 
L 318.829677 279.288973 
L 323.037868 278.983134 
L 328.298106 278.831839 
L 334.34738 278.883611 
L 340.52816 279.153956 
L 346.314422 279.624608 
L 351.311648 280.248761 
L 355.519839 280.992499 
L 359.0705 281.841604 
L 362.095137 282.792855 
L 364.59375 283.800009 
L 366.829351 284.933866 
L 368.80194 286.178788 
L 370.643024 287.612829 
L 372.352601 289.247281 
L 373.930673 291.079825 
L 375.377238 293.086758 
L 376.95531 295.67985 
L 378.533381 298.705058 
L 380.505971 302.985386 
L 384.845667 312.560246 
L 386.555245 315.697694 
L 388.133316 318.143101 
L 389.711388 320.185606 
L 391.289459 321.88246 
L 392.999036 323.401542 
L 394.84012 324.743046 
L 396.944215 325.988315 
L 399.311322 327.113634 
L 401.941441 328.112532 
L 405.097584 329.060131 
L 408.779751 329.922226 
L 413.250954 330.728014 
L 418.642698 331.464975 
L 425.349502 332.149072 
L 433.765883 332.776565 
L 444.549371 333.348792 
L 458.489003 333.855768 
L 473.480682 334.222789 
L 473.480682 334.222789 
" clip-path="url(#pbc9c59a34c)" style="fill: none; stroke: #1f77b4; stroke-width: 1.4; stroke-linecap: square"/>
   </g>
   <g id="line2d_207">
    <path d="M 59.375 486.949727 
L 493.2 486.949727 
" clip-path="url(#pbc9c59a34c)" style="fill: none; stroke-dasharray: 2.96,1.28; stroke-dashoffset: 0; stroke: #ff0000; stroke-width: 0.8"/>
   </g>
   <g id="line2d_208">
    <path d="M 299.961145 497.356 
L 299.961145 268.418 
" clip-path="url(#pbc9c59a34c)" style="fill: none; stroke-dasharray: 3.7,1.6; stroke-dashoffset: 0; stroke: #ffa500"/>
   </g>
   <g id="line2d_209">
    <path d="M 381.474636 497.356 
L 381.474636 268.418 
" clip-path="url(#pbc9c59a34c)" style="fill: none; stroke-dasharray: 3.7,1.6; stroke-dashoffset: 0; stroke: #008000"/>
   </g>
   <g id="patch_9">
    <path d="M 59.375 497.356 
L 59.375 268.418 
" style="fill: none; stroke: #000000; stroke-width: 0.8; stroke-linejoin: miter; stroke-linecap: square"/>
   </g>
   <g id="patch_10">
    <path d="M 493.2 497.356 
L 493.2 268.418 
" style="fill: none; stroke: #000000; stroke-width: 0.8; stroke-linejoin: miter; stroke-linecap: square"/>
   </g>
   <g id="patch_11">
    <path d="M 59.375 497.356 
L 493.2 497.356 
" style="fill: none; stroke: #000000; stroke-width: 0.8; stroke-linejoin: miter; stroke-linecap: square"/>
   </g>
   <g id="patch_12">
    <path d="M 59.375 268.418 
L 493.2 268.418 
" style="fill: none; stroke: #000000; stroke-width: 0.8; stroke-linejoin: miter; stroke-linecap: square"/>
   </g>
  </g>
 </g>
 <defs>
  <clipPath id="pc7a3b6c993">
   <rect x="59.375" y="22.56" width="433.825" height="228.938"/>
  </clipPath>
  <clipPath id="pbc9c59a34c">
   <rect x="59.375" y="268.418" width="433.825" height="228.938"/>
  </clipPath>
 </defs>
</svg>
