<?xml version="1.0" encoding="utf-8" standalone="no"?>
<!DOCTYPE svg PUBLIC "-//W3C//DTD SVG 1.1//EN"
  "http://www.w3.org/Graphics/SVG/1.1/DTD/svg11.dtd">
<svg xmlns:xlink="http://www.w3.org/1999/xlink" width="1008pt" height="288pt" viewBox="0 0 1008 288" xmlns="http://www.w3.org/2000/svg" version="1.1">
 <metadata>
  <rdf:RDF xmlns:dc="http://purl.org/dc/elements/1.1/" xmlns:cc="http://creativecommons.org/ns#" xmlns:rdf="http://www.w3.org/1999/02/22-rdf-syntax-ns#">
   <cc:Work>
    <dc:type rdf:resource="http://purl.org/dc/dcmitype/StillImage"/>
    <dc:date>2026-06-19T10:41:20.066038</dc:date>
    <dc:format>image/svg+xml</dc:format>
    <dc:creator>
     <cc:Agent>
      <dc:title>Matplotlib v3.10.9, https://matplotlib.org/</dc:title>
     </cc:Agent>
    </dc:creator>
   </cc:Work>
  </rdf:RDF>
 </metadata>
 <defs>
  <style type="text/css">*{stroke-linejoin: round; stroke-linecap: butt}</style>
 </defs>
 <g id="figure_1">
  <g id="patch_1">
   <path d="M 0 288 
L 1008 288 
L 1008 0 
L 0 0 
z
" style="fill: #ffffff"/>
  </g>
  <g id="axes_1">
   <g id="patch_2">
    <path d="M 38.63 245.68 
L 326.28 245.68 
L 326.28 26.16 
L 38.63 26.16 
z
" style="fill: #ffffff"/>
   </g>
   <g id="matplotlib.axis_1">
    <g id="xtick_1">
     <g id="line2d_1">
      <path d="M 51.705 245.68 
L 51.705 26.16 
" clip-path="url(#p8a61e9377c)" style="fill: none; stroke: #b0b0b0; stroke-width: 0.8; stroke-linecap: square"/>
     </g>
     <g id="line2d_2">
      <defs>
       <path id="mf4d6063fd8" d="M 0 0 
L 0 3.5 
" style="stroke: #000000; stroke-width: 0.8"/>
      </defs>
      <g>
       <use xlink:href="#mf4d6063fd8" x="51.705" y="245.68" style="stroke: #000000; stroke-width: 0.8"/>
      </g>
     </g>
     <g id="text_1">
      <!-- 0 -->
      <g transform="translate(48.52375 260.278437) scale(0.1 -0.1)">
       <defs>
        <path id="DejaVuSans-30" d="M 2034 4250 
Q 1547 4250 1301 3770 
Q 1056 3291 1056 2328 
Q 1056 1369 1301 889 
Q 1547 409 2034 409 
Q 2525 409 2770 889 
Q 3016 1369 3016 2328 
Q 3016 3291 2770 3770 
Q 2525 4250 2034 4250 
z
M 2034 4750 
Q 2819 4750 3233 4129 
Q 3647 3509 3647 2328 
Q 3647 1150 3233 529 
Q 2819 -91 2034 -91 
Q 1250 -91 836 529 
Q 422 1150 422 2328 
Q 422 3509 836 4129 
Q 1250 4750 2034 4750 
z
" transform="scale(0.015625)"/>
       </defs>
       <use xlink:href="#DejaVuSans-30"/>
      </g>
     </g>
    </g>
    <g id="xtick_2">
     <g id="line2d_3">
      <path d="M 90.628159 245.68 
L 90.628159 26.16 
" clip-path="url(#p8a61e9377c)" style="fill: none; stroke: #b0b0b0; stroke-width: 0.8; stroke-linecap: square"/>
     </g>
     <g id="line2d_4">
      <g>
       <use xlink:href="#mf4d6063fd8" x="90.628159" y="245.68" style="stroke: #000000; stroke-width: 0.8"/>
      </g>
     </g>
     <g id="text_2">
      <!-- 5 -->
      <g transform="translate(87.446909 260.278437) scale(0.1 -0.1)">
       <defs>
        <path id="DejaVuSans-35" d="M 691 4666 
L 3169 4666 
L 3169 4134 
L 1269 4134 
L 1269 2991 
Q 1406 3038 1543 3061 
Q 1681 3084 1819 3084 
Q 2600 3084 3056 2656 
Q 3513 2228 3513 1497 
Q 3513 744 3044 326 
Q 2575 -91 1722 -91 
Q 1428 -91 1123 -41 
Q 819 9 494 109 
L 494 744 
Q 775 591 1075 516 
Q 1375 441 1709 441 
Q 2250 441 2565 725 
Q 2881 1009 2881 1497 
Q 2881 1984 2565 2268 
Q 2250 2553 1709 2553 
Q 1456 2553 1204 2497 
Q 953 2441 691 2322 
L 691 4666 
z
" transform="scale(0.015625)"/>
       </defs>
       <use xlink:href="#DejaVuSans-35"/>
      </g>
     </g>
    </g>
    <g id="xtick_3">
     <g id="line2d_5">
      <path d="M 129.551319 245.68 
L 129.551319 26.16 
" clip-path="url(#p8a61e9377c)" style="fill: none; stroke: #b0b0b0; stroke-width: 0.8; stroke-linecap: square"/>
     </g>
     <g id="line2d_6">
      <g>
       <use xlink:href="#mf4d6063fd8" x="129.551319" y="245.68" style="stroke: #000000; stroke-width: 0.8"/>
      </g>
     </g>
     <g id="text_3">
      <!-- 10 -->
      <g transform="translate(123.188819 260.278437) scale(0.1 -0.1)">
       <defs>
        <path id="DejaVuSans-31" d="M 794 531 
L 1825 531 
L 1825 4091 
L 703 3866 
L 703 4441 
L 1819 4666 
L 2450 4666 
L 2450 531 
L 3481 531 
L 3481 0 
L 794 0 
L 794 531 
z
" transform="scale(0.015625)"/>
       </defs>
       <use xlink:href="#DejaVuSans-31"/>
       <use xlink:href="#DejaVuSans-30" transform="translate(63.623047 0)"/>
      </g>
     </g>
    </g>
    <g id="xtick_4">
     <g id="line2d_7">
      <path d="M 168.474478 245.68 
L 168.474478 26.16 
" clip-path="url(#p8a61e9377c)" style="fill: none; stroke: #b0b0b0; stroke-width: 0.8; stroke-linecap: square"/>
     </g>
     <g id="line2d_8">
      <g>
       <use xlink:href="#mf4d6063fd8" x="168.474478" y="245.68" style="stroke: #000000; stroke-width: 0.8"/>
      </g>
     </g>
     <g id="text_4">
      <!-- 15 -->
      <g transform="translate(162.111978 260.278437) scale(0.1 -0.1)">
       <use xlink:href="#DejaVuSans-31"/>
       <use xlink:href="#DejaVuSans-35" transform="translate(63.623047 0)"/>
      </g>
     </g>
    </g>
    <g id="xtick_5">
     <g id="line2d_9">
      <path d="M 207.397637 245.68 
L 207.397637 26.16 
" clip-path="url(#p8a61e9377c)" style="fill: none; stroke: #b0b0b0; stroke-width: 0.8; stroke-linecap: square"/>
     </g>
     <g id="line2d_10">
      <g>
       <use xlink:href="#mf4d6063fd8" x="207.397637" y="245.68" style="stroke: #000000; stroke-width: 0.8"/>
      </g>
     </g>
     <g id="text_5">
      <!-- 20 -->
      <g transform="translate(201.035137 260.278437) scale(0.1 -0.1)">
       <defs>
        <path id="DejaVuSans-32" d="M 1228 531 
L 3431 531 
L 3431 0 
L 469 0 
L 469 531 
Q 828 903 1448 1529 
Q 2069 2156 2228 2338 
Q 2531 2678 2651 2914 
Q 2772 3150 2772 3378 
Q 2772 3750 2511 3984 
Q 2250 4219 1831 4219 
Q 1534 4219 1204 4116 
Q 875 4013 500 3803 
L 500 4441 
Q 881 4594 1212 4672 
Q 1544 4750 1819 4750 
Q 2544 4750 2975 4387 
Q 3406 4025 3406 3419 
Q 3406 3131 3298 2873 
Q 3191 2616 2906 2266 
Q 2828 2175 2409 1742 
Q 1991 1309 1228 531 
z
" transform="scale(0.015625)"/>
       </defs>
       <use xlink:href="#DejaVuSans-32"/>
       <use xlink:href="#DejaVuSans-30" transform="translate(63.623047 0)"/>
      </g>
     </g>
    </g>
    <g id="xtick_6">
     <g id="line2d_11">
      <path d="M 246.320796 245.68 
L 246.320796 26.16 
" clip-path="url(#p8a61e9377c)" style="fill: none; stroke: #b0b0b0; stroke-width: 0.8; stroke-linecap: square"/>
     </g>
     <g id="line2d_12">
      <g>
       <use xlink:href="#mf4d6063fd8" x="246.320796" y="245.68" style="stroke: #000000; stroke-width: 0.8"/>
      </g>
     </g>
     <g id="text_6">
      <!-- 25 -->
      <g transform="translate(239.958296 260.278437) scale(0.1 -0.1)">
       <use xlink:href="#DejaVuSans-32"/>
       <use xlink:href="#DejaVuSans-35" transform="translate(63.623047 0)"/>
      </g>
     </g>
    </g>
    <g id="xtick_7">
     <g id="line2d_13">
      <path d="M 285.243956 245.68 
L 285.243956 26.16 
" clip-path="url(#p8a61e9377c)" style="fill: none; stroke: #b0b0b0; stroke-width: 0.8; stroke-linecap: square"/>
     </g>
     <g id="line2d_14">
      <g>
       <use xlink:href="#mf4d6063fd8" x="285.243956" y="245.68" style="stroke: #000000; stroke-width: 0.8"/>
      </g>
     </g>
     <g id="text_7">
      <!-- 30 -->
      <g transform="translate(278.881456 260.278437) scale(0.1 -0.1)">
       <defs>
        <path id="DejaVuSans-33" d="M 2597 2516 
Q 3050 2419 3304 2112 
Q 3559 1806 3559 1356 
Q 3559 666 3084 287 
Q 2609 -91 1734 -91 
Q 1441 -91 1130 -33 
Q 819 25 488 141 
L 488 750 
Q 750 597 1062 519 
Q 1375 441 1716 441 
Q 2309 441 2620 675 
Q 2931 909 2931 1356 
Q 2931 1769 2642 2001 
Q 2353 2234 1838 2234 
L 1294 2234 
L 1294 2753 
L 1863 2753 
Q 2328 2753 2575 2939 
Q 2822 3125 2822 3475 
Q 2822 3834 2567 4026 
Q 2313 4219 1838 4219 
Q 1578 4219 1281 4162 
Q 984 4106 628 3988 
L 628 4550 
Q 988 4650 1302 4700 
Q 1616 4750 1894 4750 
Q 2613 4750 3031 4423 
Q 3450 4097 3450 3541 
Q 3450 3153 3228 2886 
Q 3006 2619 2597 2516 
z
" transform="scale(0.015625)"/>
       </defs>
       <use xlink:href="#DejaVuSans-33"/>
       <use xlink:href="#DejaVuSans-30" transform="translate(63.623047 0)"/>
      </g>
     </g>
    </g>
    <g id="xtick_8">
     <g id="line2d_15">
      <path d="M 324.167115 245.68 
L 324.167115 26.16 
" clip-path="url(#p8a61e9377c)" style="fill: none; stroke: #b0b0b0; stroke-width: 0.8; stroke-linecap: square"/>
     </g>
     <g id="line2d_16">
      <g>
       <use xlink:href="#mf4d6063fd8" x="324.167115" y="245.68" style="stroke: #000000; stroke-width: 0.8"/>
      </g>
     </g>
     <g id="text_8">
      <!-- 35 -->
      <g transform="translate(317.804615 260.278437) scale(0.1 -0.1)">
       <use xlink:href="#DejaVuSans-33"/>
       <use xlink:href="#DejaVuSans-35" transform="translate(63.623047 0)"/>
      </g>
     </g>
    </g>
    <g id="text_9">
     <!-- Motor ω_m  [rev/s] -->
     <g transform="translate(135.512813 273.956563) scale(0.1 -0.1)">
      <defs>
       <path id="DejaVuSans-4d" d="M 628 4666 
L 1569 4666 
L 2759 1491 
L 3956 4666 
L 4897 4666 
L 4897 0 
L 4281 0 
L 4281 4097 
L 3078 897 
L 2444 897 
L 1241 4097 
L 1241 0 
L 628 0 
L 628 4666 
z
" transform="scale(0.015625)"/>
       <path id="DejaVuSans-6f" d="M 1959 3097 
Q 1497 3097 1228 2736 
Q 959 2375 959 1747 
Q 959 1119 1226 758 
Q 1494 397 1959 397 
Q 2419 397 2687 759 
Q 2956 1122 2956 1747 
Q 2956 2369 2687 2733 
Q 2419 3097 1959 3097 
z
M 1959 3584 
Q 2709 3584 3137 3096 
Q 3566 2609 3566 1747 
Q 3566 888 3137 398 
Q 2709 -91 1959 -91 
Q 1206 -91 779 398 
Q 353 888 353 1747 
Q 353 2609 779 3096 
Q 1206 3584 1959 3584 
z
" transform="scale(0.015625)"/>
       <path id="DejaVuSans-74" d="M 1172 4494 
L 1172 3500 
L 2356 3500 
L 2356 3053 
L 1172 3053 
L 1172 1153 
Q 1172 725 1289 603 
Q 1406 481 1766 481 
L 2356 481 
L 2356 0 
L 1766 0 
Q 1100 0 847 248 
Q 594 497 594 1153 
L 594 3053 
L 172 3053 
L 172 3500 
L 594 3500 
L 594 4494 
L 1172 4494 
z
" transform="scale(0.015625)"/>
       <path id="DejaVuSans-72" d="M 2631 2963 
Q 2534 3019 2420 3045 
Q 2306 3072 2169 3072 
Q 1681 3072 1420 2755 
Q 1159 2438 1159 1844 
L 1159 0 
L 581 0 
L 581 3500 
L 1159 3500 
L 1159 2956 
Q 1341 3275 1631 3429 
Q 1922 3584 2338 3584 
Q 2397 3584 2469 3576 
Q 2541 3569 2628 3553 
L 2631 2963 
z
" transform="scale(0.015625)"/>
       <path id="DejaVuSans-20" transform="scale(0.015625)"/>
       <path id="DejaVuSans-3c9" d="M 1719 -91 
Q 422 -91 422 1766 
Q 422 2500 906 3500 
L 1525 3500 
Q 1078 2500 1078 1750 
Q 1078 397 1772 397 
Q 2406 397 2406 2078 
L 2938 2078 
Q 2938 397 3572 397 
Q 4266 397 4266 1750 
Q 4266 2500 3819 3500 
L 4438 3500 
Q 4922 2500 4922 1766 
Q 4922 -91 3625 -91 
Q 2775 -91 2672 844 
Q 2544 -91 1719 -91 
z
" transform="scale(0.015625)"/>
       <path id="DejaVuSans-5f" d="M 3263 -1063 
L 3263 -1509 
L -63 -1509 
L -63 -1063 
L 3263 -1063 
z
" transform="scale(0.015625)"/>
       <path id="DejaVuSans-6d" d="M 3328 2828 
Q 3544 3216 3844 3400 
Q 4144 3584 4550 3584 
Q 5097 3584 5394 3201 
Q 5691 2819 5691 2113 
L 5691 0 
L 5113 0 
L 5113 2094 
Q 5113 2597 4934 2840 
Q 4756 3084 4391 3084 
Q 3944 3084 3684 2787 
Q 3425 2491 3425 1978 
L 3425 0 
L 2847 0 
L 2847 2094 
Q 2847 2600 2669 2842 
Q 2491 3084 2119 3084 
Q 1678 3084 1418 2786 
Q 1159 2488 1159 1978 
L 1159 0 
L 581 0 
L 581 3500 
L 1159 3500 
L 1159 2956 
Q 1356 3278 1631 3431 
Q 1906 3584 2284 3584 
Q 2666 3584 2933 3390 
Q 3200 3197 3328 2828 
z
" transform="scale(0.015625)"/>
       <path id="DejaVuSans-5b" d="M 550 4863 
L 1875 4863 
L 1875 4416 
L 1125 4416 
L 1125 -397 
L 1875 -397 
L 1875 -844 
L 550 -844 
L 550 4863 
z
" transform="scale(0.015625)"/>
       <path id="DejaVuSans-65" d="M 3597 1894 
L 3597 1613 
L 953 1613 
Q 991 1019 1311 708 
Q 1631 397 2203 397 
Q 2534 397 2845 478 
Q 3156 559 3463 722 
L 3463 178 
Q 3153 47 2828 -22 
Q 2503 -91 2169 -91 
Q 1331 -91 842 396 
Q 353 884 353 1716 
Q 353 2575 817 3079 
Q 1281 3584 2069 3584 
Q 2775 3584 3186 3129 
Q 3597 2675 3597 1894 
z
M 3022 2063 
Q 3016 2534 2758 2815 
Q 2500 3097 2075 3097 
Q 1594 3097 1305 2825 
Q 1016 2553 972 2059 
L 3022 2063 
z
" transform="scale(0.015625)"/>
       <path id="DejaVuSans-76" d="M 191 3500 
L 800 3500 
L 1894 563 
L 2988 3500 
L 3597 3500 
L 2284 0 
L 1503 0 
L 191 3500 
z
" transform="scale(0.015625)"/>
       <path id="DejaVuSans-2f" d="M 1625 4666 
L 2156 4666 
L 531 -594 
L 0 -594 
L 1625 4666 
z
" transform="scale(0.015625)"/>
       <path id="DejaVuSans-73" d="M 2834 3397 
L 2834 2853 
Q 2591 2978 2328 3040 
Q 2066 3103 1784 3103 
Q 1356 3103 1142 2972 
Q 928 2841 928 2578 
Q 928 2378 1081 2264 
Q 1234 2150 1697 2047 
L 1894 2003 
Q 2506 1872 2764 1633 
Q 3022 1394 3022 966 
Q 3022 478 2636 193 
Q 2250 -91 1575 -91 
Q 1294 -91 989 -36 
Q 684 19 347 128 
L 347 722 
Q 666 556 975 473 
Q 1284 391 1588 391 
Q 1994 391 2212 530 
Q 2431 669 2431 922 
Q 2431 1156 2273 1281 
Q 2116 1406 1581 1522 
L 1381 1569 
Q 847 1681 609 1914 
Q 372 2147 372 2553 
Q 372 3047 722 3315 
Q 1072 3584 1716 3584 
Q 2034 3584 2315 3537 
Q 2597 3491 2834 3397 
z
" transform="scale(0.015625)"/>
       <path id="DejaVuSans-5d" d="M 1947 4863 
L 1947 -844 
L 622 -844 
L 622 -397 
L 1369 -397 
L 1369 4416 
L 622 4416 
L 622 4863 
L 1947 4863 
z
" transform="scale(0.015625)"/>
      </defs>
      <use xlink:href="#DejaVuSans-4d"/>
      <use xlink:href="#DejaVuSans-6f" transform="translate(86.279297 0)"/>
      <use xlink:href="#DejaVuSans-74" transform="translate(147.460938 0)"/>
      <use xlink:href="#DejaVuSans-6f" transform="translate(186.669922 0)"/>
      <use xlink:href="#DejaVuSans-72" transform="translate(247.851562 0)"/>
      <use xlink:href="#DejaVuSans-20" transform="translate(288.964844 0)"/>
      <use xlink:href="#DejaVuSans-3c9" transform="translate(320.751953 0)"/>
      <use xlink:href="#DejaVuSans-5f" transform="translate(404.492188 0)"/>
      <use xlink:href="#DejaVuSans-6d" transform="translate(454.492188 0)"/>
      <use xlink:href="#DejaVuSans-20" transform="translate(551.904297 0)"/>
      <use xlink:href="#DejaVuSans-20" transform="translate(583.691406 0)"/>
      <use xlink:href="#DejaVuSans-5b" transform="translate(615.478516 0)"/>
      <use xlink:href="#DejaVuSans-72" transform="translate(654.492188 0)"/>
      <use xlink:href="#DejaVuSans-65" transform="translate(693.355469 0)"/>
      <use xlink:href="#DejaVuSans-76" transform="translate(754.878906 0)"/>
      <use xlink:href="#DejaVuSans-2f" transform="translate(814.058594 0)"/>
      <use xlink:href="#DejaVuSans-73" transform="translate(847.75 0)"/>
      <use xlink:href="#DejaVuSans-5d" transform="translate(899.849609 0)"/>
     </g>
    </g>
   </g>
   <g id="matplotlib.axis_2">
    <g id="ytick_1">
     <g id="line2d_17">
      <path d="M 38.63 235.701818 
L 326.28 235.701818 
" clip-path="url(#p8a61e9377c)" style="fill: none; stroke: #b0b0b0; stroke-width: 0.8; stroke-linecap: square"/>
     </g>
     <g id="line2d_18">
      <defs>
       <path id="me10ef19a13" d="M 0 0 
L -3.5 0 
" style="stroke: #000000; stroke-width: 0.8"/>
      </defs>
      <g>
       <use xlink:href="#me10ef19a13" x="38.63" y="235.701818" style="stroke: #000000; stroke-width: 0.8"/>
      </g>
     </g>
     <g id="text_10">
      <!-- 0 -->
      <g transform="translate(25.2675 239.501037) scale(0.1 -0.1)">
       <use xlink:href="#DejaVuSans-30"/>
      </g>
     </g>
    </g>
    <g id="ytick_2">
     <g id="line2d_19">
      <path d="M 38.63 192.037124 
L 326.28 192.037124 
" clip-path="url(#p8a61e9377c)" style="fill: none; stroke: #b0b0b0; stroke-width: 0.8; stroke-linecap: square"/>
     </g>
     <g id="line2d_20">
      <g>
       <use xlink:href="#me10ef19a13" x="38.63" y="192.037124" style="stroke: #000000; stroke-width: 0.8"/>
      </g>
     </g>
     <g id="text_11">
      <!-- 2 -->
      <g transform="translate(25.2675 195.836343) scale(0.1 -0.1)">
       <use xlink:href="#DejaVuSans-32"/>
      </g>
     </g>
    </g>
    <g id="ytick_3">
     <g id="line2d_21">
      <path d="M 38.63 148.372431 
L 326.28 148.372431 
" clip-path="url(#p8a61e9377c)" style="fill: none; stroke: #b0b0b0; stroke-width: 0.8; stroke-linecap: square"/>
     </g>
     <g id="line2d_22">
      <g>
       <use xlink:href="#me10ef19a13" x="38.63" y="148.372431" style="stroke: #000000; stroke-width: 0.8"/>
      </g>
     </g>
     <g id="text_12">
      <!-- 4 -->
      <g transform="translate(25.2675 152.171649) scale(0.1 -0.1)">
       <defs>
        <path id="DejaVuSans-34" d="M 2419 4116 
L 825 1625 
L 2419 1625 
L 2419 4116 
z
M 2253 4666 
L 3047 4666 
L 3047 1625 
L 3713 1625 
L 3713 1100 
L 3047 1100 
L 3047 0 
L 2419 0 
L 2419 1100 
L 313 1100 
L 313 1709 
L 2253 4666 
z
" transform="scale(0.015625)"/>
       </defs>
       <use xlink:href="#DejaVuSans-34"/>
      </g>
     </g>
    </g>
    <g id="ytick_4">
     <g id="line2d_23">
      <path d="M 38.63 104.707737 
L 326.28 104.707737 
" clip-path="url(#p8a61e9377c)" style="fill: none; stroke: #b0b0b0; stroke-width: 0.8; stroke-linecap: square"/>
     </g>
     <g id="line2d_24">
      <g>
       <use xlink:href="#me10ef19a13" x="38.63" y="104.707737" style="stroke: #000000; stroke-width: 0.8"/>
      </g>
     </g>
     <g id="text_13">
      <!-- 6 -->
      <g transform="translate(25.2675 108.506956) scale(0.1 -0.1)">
       <defs>
        <path id="DejaVuSans-36" d="M 2113 2584 
Q 1688 2584 1439 2293 
Q 1191 2003 1191 1497 
Q 1191 994 1439 701 
Q 1688 409 2113 409 
Q 2538 409 2786 701 
Q 3034 994 3034 1497 
Q 3034 2003 2786 2293 
Q 2538 2584 2113 2584 
z
M 3366 4563 
L 3366 3988 
Q 3128 4100 2886 4159 
Q 2644 4219 2406 4219 
Q 1781 4219 1451 3797 
Q 1122 3375 1075 2522 
Q 1259 2794 1537 2939 
Q 1816 3084 2150 3084 
Q 2853 3084 3261 2657 
Q 3669 2231 3669 1497 
Q 3669 778 3244 343 
Q 2819 -91 2113 -91 
Q 1303 -91 875 529 
Q 447 1150 447 2328 
Q 447 3434 972 4092 
Q 1497 4750 2381 4750 
Q 2619 4750 2861 4703 
Q 3103 4656 3366 4563 
z
" transform="scale(0.015625)"/>
       </defs>
       <use xlink:href="#DejaVuSans-36"/>
      </g>
     </g>
    </g>
    <g id="ytick_5">
     <g id="line2d_25">
      <path d="M 38.63 61.043043 
L 326.28 61.043043 
" clip-path="url(#p8a61e9377c)" style="fill: none; stroke: #b0b0b0; stroke-width: 0.8; stroke-linecap: square"/>
     </g>
     <g id="line2d_26">
      <g>
       <use xlink:href="#me10ef19a13" x="38.63" y="61.043043" style="stroke: #000000; stroke-width: 0.8"/>
      </g>
     </g>
     <g id="text_14">
      <!-- 8 -->
      <g transform="translate(25.2675 64.842262) scale(0.1 -0.1)">
       <defs>
        <path id="DejaVuSans-38" d="M 2034 2216 
Q 1584 2216 1326 1975 
Q 1069 1734 1069 1313 
Q 1069 891 1326 650 
Q 1584 409 2034 409 
Q 2484 409 2743 651 
Q 3003 894 3003 1313 
Q 3003 1734 2745 1975 
Q 2488 2216 2034 2216 
z
M 1403 2484 
Q 997 2584 770 2862 
Q 544 3141 544 3541 
Q 544 4100 942 4425 
Q 1341 4750 2034 4750 
Q 2731 4750 3128 4425 
Q 3525 4100 3525 3541 
Q 3525 3141 3298 2862 
Q 3072 2584 2669 2484 
Q 3125 2378 3379 2068 
Q 3634 1759 3634 1313 
Q 3634 634 3220 271 
Q 2806 -91 2034 -91 
Q 1263 -91 848 271 
Q 434 634 434 1313 
Q 434 1759 690 2068 
Q 947 2378 1403 2484 
z
M 1172 3481 
Q 1172 3119 1398 2916 
Q 1625 2713 2034 2713 
Q 2441 2713 2670 2916 
Q 2900 3119 2900 3481 
Q 2900 3844 2670 4047 
Q 2441 4250 2034 4250 
Q 1625 4250 1398 4047 
Q 1172 3844 1172 3481 
z
" transform="scale(0.015625)"/>
       </defs>
       <use xlink:href="#DejaVuSans-38"/>
      </g>
     </g>
    </g>
    <g id="text_15">
     <!-- Load ω_L  [rev/s] -->
     <g transform="translate(18.909688 178.325469) rotate(-90) scale(0.1 -0.1)">
      <defs>
       <path id="DejaVuSans-4c" d="M 628 4666 
L 1259 4666 
L 1259 531 
L 3531 531 
L 3531 0 
L 628 0 
L 628 4666 
z
" transform="scale(0.015625)"/>
       <path id="DejaVuSans-61" d="M 2194 1759 
Q 1497 1759 1228 1600 
Q 959 1441 959 1056 
Q 959 750 1161 570 
Q 1363 391 1709 391 
Q 2188 391 2477 730 
Q 2766 1069 2766 1631 
L 2766 1759 
L 2194 1759 
z
M 3341 1997 
L 3341 0 
L 2766 0 
L 2766 531 
Q 2569 213 2275 61 
Q 1981 -91 1556 -91 
Q 1019 -91 701 211 
Q 384 513 384 1019 
Q 384 1609 779 1909 
Q 1175 2209 1959 2209 
L 2766 2209 
L 2766 2266 
Q 2766 2663 2505 2880 
Q 2244 3097 1772 3097 
Q 1472 3097 1187 3025 
Q 903 2953 641 2809 
L 641 3341 
Q 956 3463 1253 3523 
Q 1550 3584 1831 3584 
Q 2591 3584 2966 3190 
Q 3341 2797 3341 1997 
z
" transform="scale(0.015625)"/>
       <path id="DejaVuSans-64" d="M 2906 2969 
L 2906 4863 
L 3481 4863 
L 3481 0 
L 2906 0 
L 2906 525 
Q 2725 213 2448 61 
Q 2172 -91 1784 -91 
Q 1150 -91 751 415 
Q 353 922 353 1747 
Q 353 2572 751 3078 
Q 1150 3584 1784 3584 
Q 2172 3584 2448 3432 
Q 2725 3281 2906 2969 
z
M 947 1747 
Q 947 1113 1208 752 
Q 1469 391 1925 391 
Q 2381 391 2643 752 
Q 2906 1113 2906 1747 
Q 2906 2381 2643 2742 
Q 2381 3103 1925 3103 
Q 1469 3103 1208 2742 
Q 947 2381 947 1747 
z
" transform="scale(0.015625)"/>
      </defs>
      <use xlink:href="#DejaVuSans-4c"/>
      <use xlink:href="#DejaVuSans-6f" transform="translate(53.962891 0)"/>
      <use xlink:href="#DejaVuSans-61" transform="translate(115.144531 0)"/>
      <use xlink:href="#DejaVuSans-64" transform="translate(176.423828 0)"/>
      <use xlink:href="#DejaVuSans-20" transform="translate(239.900391 0)"/>
      <use xlink:href="#DejaVuSans-3c9" transform="translate(271.6875 0)"/>
      <use xlink:href="#DejaVuSans-5f" transform="translate(355.427734 0)"/>
      <use xlink:href="#DejaVuSans-4c" transform="translate(405.427734 0)"/>
      <use xlink:href="#DejaVuSans-20" transform="translate(461.140625 0)"/>
      <use xlink:href="#DejaVuSans-20" transform="translate(492.927734 0)"/>
      <use xlink:href="#DejaVuSans-5b" transform="translate(524.714844 0)"/>
      <use xlink:href="#DejaVuSans-72" transform="translate(563.728516 0)"/>
      <use xlink:href="#DejaVuSans-65" transform="translate(602.591797 0)"/>
      <use xlink:href="#DejaVuSans-76" transform="translate(664.115234 0)"/>
      <use xlink:href="#DejaVuSans-2f" transform="translate(723.294922 0)"/>
      <use xlink:href="#DejaVuSans-73" transform="translate(756.986328 0)"/>
      <use xlink:href="#DejaVuSans-5d" transform="translate(809.085938 0)"/>
     </g>
    </g>
   </g>
   <g id="line2d_27">
    <path d="M 51.705 235.701818 
L 313.205 36.138182 
" clip-path="url(#p8a61e9377c)" style="fill: none; stroke-dasharray: 5.55,2.4; stroke-dashoffset: 0; stroke: #1f77b4; stroke-width: 1.5"/>
   </g>
   <g id="line2d_28">
    <path d="M 51.705 235.234107 
L 313.205 36.370904 
" clip-path="url(#p8a61e9377c)" style="fill: none; stroke-dasharray: 1.5,2.475; stroke-dashoffset: 0; stroke: #ff7f0e; stroke-width: 1.5"/>
   </g>
   <g id="patch_3">
    <path d="M 38.63 245.68 
L 38.63 26.16 
" style="fill: none; stroke: #000000; stroke-width: 0.8; stroke-linejoin: miter; stroke-linecap: square"/>
   </g>
   <g id="patch_4">
    <path d="M 326.28 245.68 
L 326.28 26.16 
" style="fill: none; stroke: #000000; stroke-width: 0.8; stroke-linejoin: miter; stroke-linecap: square"/>
   </g>
   <g id="patch_5">
    <path d="M 38.63 245.68 
L 326.28 245.68 
" style="fill: none; stroke: #000000; stroke-width: 0.8; stroke-linejoin: miter; stroke-linecap: square"/>
   </g>
   <g id="patch_6">
    <path d="M 38.63 26.16 
L 326.28 26.16 
" style="fill: none; stroke: #000000; stroke-width: 0.8; stroke-linejoin: miter; stroke-linecap: square"/>
   </g>
   <g id="PathCollection_1">
    <defs>
     <path id="mc1e2ee09cf" d="M 0 3 
C 0.795609 3 1.55874 2.683901 2.12132 2.12132 
C 2.683901 1.55874 3 0.795609 3 0 
C 3 -0.795609 2.683901 -1.55874 2.12132 -2.12132 
C 1.55874 -2.683901 0.795609 -3 0 -3 
C -0.795609 -3 -1.55874 -2.683901 -2.12132 -2.12132 
C -2.683901 -1.55874 -3 -0.795609 -3 0 
C -3 0.795609 -2.683901 1.55874 -2.12132 2.12132 
C -1.55874 2.683901 -0.795609 3 0 3 
z
" style="stroke: #1f77b4"/>
    </defs>
    <g clip-path="url(#p8a61e9377c)">
     <use xlink:href="#mc1e2ee09cf" x="59.475116" y="229.730926" style="fill: #1f77b4; stroke: #1f77b4"/>
     <use xlink:href="#mc1e2ee09cf" x="86.296166" y="209.083707" style="fill: #1f77b4; stroke: #1f77b4"/>
     <use xlink:href="#mc1e2ee09cf" x="113.103674" y="188.495244" style="fill: #1f77b4; stroke: #1f77b4"/>
     <use xlink:href="#mc1e2ee09cf" x="139.922391" y="167.862754" style="fill: #1f77b4; stroke: #1f77b4"/>
     <use xlink:href="#mc1e2ee09cf" x="166.764017" y="147.487134" style="fill: #1f77b4; stroke: #1f77b4"/>
     <use xlink:href="#mc1e2ee09cf" x="193.719161" y="127.044965" style="fill: #1f77b4; stroke: #1f77b4"/>
     <use xlink:href="#mc1e2ee09cf" x="220.33233" y="106.710121" style="fill: #1f77b4; stroke: #1f77b4"/>
     <use xlink:href="#mc1e2ee09cf" x="247.179669" y="86.536352" style="fill: #1f77b4; stroke: #1f77b4"/>
     <use xlink:href="#mc1e2ee09cf" x="273.969783" y="66.307223" style="fill: #1f77b4; stroke: #1f77b4"/>
     <use xlink:href="#mc1e2ee09cf" x="300.752619" y="46.284137" style="fill: #1f77b4; stroke: #1f77b4"/>
    </g>
   </g>
   <g id="text_16">
    <!-- Linearity check -->
    <g transform="translate(136.763125 20.16) scale(0.12 -0.12)">
     <defs>
      <path id="DejaVuSans-69" d="M 603 3500 
L 1178 3500 
L 1178 0 
L 603 0 
L 603 3500 
z
M 603 4863 
L 1178 4863 
L 1178 4134 
L 603 4134 
L 603 4863 
z
" transform="scale(0.015625)"/>
      <path id="DejaVuSans-6e" d="M 3513 2113 
L 3513 0 
L 2938 0 
L 2938 2094 
Q 2938 2591 2744 2837 
Q 2550 3084 2163 3084 
Q 1697 3084 1428 2787 
Q 1159 2491 1159 1978 
L 1159 0 
L 581 0 
L 581 3500 
L 1159 3500 
L 1159 2956 
Q 1366 3272 1645 3428 
Q 1925 3584 2291 3584 
Q 2894 3584 3203 3211 
Q 3513 2838 3513 2113 
z
" transform="scale(0.015625)"/>
      <path id="DejaVuSans-79" d="M 2059 -325 
Q 1816 -950 1584 -1140 
Q 1353 -1331 966 -1331 
L 506 -1331 
L 506 -850 
L 844 -850 
Q 1081 -850 1212 -737 
Q 1344 -625 1503 -206 
L 1606 56 
L 191 3500 
L 800 3500 
L 1894 763 
L 2988 3500 
L 3597 3500 
L 2059 -325 
z
" transform="scale(0.015625)"/>
      <path id="DejaVuSans-63" d="M 3122 3366 
L 3122 2828 
Q 2878 2963 2633 3030 
Q 2388 3097 2138 3097 
Q 1578 3097 1268 2742 
Q 959 2388 959 1747 
Q 959 1106 1268 751 
Q 1578 397 2138 397 
Q 2388 397 2633 464 
Q 2878 531 3122 666 
L 3122 134 
Q 2881 22 2623 -34 
Q 2366 -91 2075 -91 
Q 1284 -91 818 406 
Q 353 903 353 1747 
Q 353 2603 823 3093 
Q 1294 3584 2113 3584 
Q 2378 3584 2631 3529 
Q 2884 3475 3122 3366 
z
" transform="scale(0.015625)"/>
      <path id="DejaVuSans-68" d="M 3513 2113 
L 3513 0 
L 2938 0 
L 2938 2094 
Q 2938 2591 2744 2837 
Q 2550 3084 2163 3084 
Q 1697 3084 1428 2787 
Q 1159 2491 1159 1978 
L 1159 0 
L 581 0 
L 581 4863 
L 1159 4863 
L 1159 2956 
Q 1366 3272 1645 3428 
Q 1925 3584 2291 3584 
Q 2894 3584 3203 3211 
Q 3513 2838 3513 2113 
z
" transform="scale(0.015625)"/>
      <path id="DejaVuSans-6b" d="M 581 4863 
L 1159 4863 
L 1159 1991 
L 2875 3500 
L 3609 3500 
L 1753 1863 
L 3688 0 
L 2938 0 
L 1159 1709 
L 1159 0 
L 581 0 
L 581 4863 
z
" transform="scale(0.015625)"/>
     </defs>
     <use xlink:href="#DejaVuSans-4c"/>
     <use xlink:href="#DejaVuSans-69" transform="translate(55.712891 0)"/>
     <use xlink:href="#DejaVuSans-6e" transform="translate(83.496094 0)"/>
     <use xlink:href="#DejaVuSans-65" transform="translate(146.875 0)"/>
     <use xlink:href="#DejaVuSans-61" transform="translate(208.398438 0)"/>
     <use xlink:href="#DejaVuSans-72" transform="translate(269.677734 0)"/>
     <use xlink:href="#DejaVuSans-69" transform="translate(310.791016 0)"/>
     <use xlink:href="#DejaVuSans-74" transform="translate(338.574219 0)"/>
     <use xlink:href="#DejaVuSans-79" transform="translate(377.783203 0)"/>
     <use xlink:href="#DejaVuSans-20" transform="translate(436.962891 0)"/>
     <use xlink:href="#DejaVuSans-63" transform="translate(468.75 0)"/>
     <use xlink:href="#DejaVuSans-68" transform="translate(523.730469 0)"/>
     <use xlink:href="#DejaVuSans-65" transform="translate(587.109375 0)"/>
     <use xlink:href="#DejaVuSans-63" transform="translate(648.632812 0)"/>
     <use xlink:href="#DejaVuSans-6b" transform="translate(703.613281 0)"/>
    </g>
   </g>
   <g id="legend_1">
    <g id="patch_7">
     <path d="M 44.23 67.7875 
L 186.37125 67.7875 
Q 187.97125 67.7875 187.97125 66.1875 
L 187.97125 31.76 
Q 187.97125 30.16 186.37125 30.16 
L 44.23 30.16 
Q 42.63 30.16 42.63 31.76 
L 42.63 66.1875 
Q 42.63 67.7875 44.23 67.7875 
z
" style="fill: #ffffff; opacity: 0.8; stroke: #cccccc; stroke-linejoin: miter"/>
    </g>
    <g id="PathCollection_2">
     <g>
      <use xlink:href="#mc1e2ee09cf" x="53.83" y="37.33875" style="fill: #1f77b4; stroke: #1f77b4"/>
     </g>
    </g>
    <g id="text_17">
     <!-- measured -->
     <g transform="translate(68.23 39.43875) scale(0.08 -0.08)">
      <defs>
       <path id="DejaVuSans-75" d="M 544 1381 
L 544 3500 
L 1119 3500 
L 1119 1403 
Q 1119 906 1312 657 
Q 1506 409 1894 409 
Q 2359 409 2629 706 
Q 2900 1003 2900 1516 
L 2900 3500 
L 3475 3500 
L 3475 0 
L 2900 0 
L 2900 538 
Q 2691 219 2414 64 
Q 2138 -91 1772 -91 
Q 1169 -91 856 284 
Q 544 659 544 1381 
z
M 1991 3584 
L 1991 3584 
z
" transform="scale(0.015625)"/>
      </defs>
      <use xlink:href="#DejaVuSans-6d"/>
      <use xlink:href="#DejaVuSans-65" transform="translate(97.412109 0)"/>
      <use xlink:href="#DejaVuSans-61" transform="translate(158.935547 0)"/>
      <use xlink:href="#DejaVuSans-73" transform="translate(220.214844 0)"/>
      <use xlink:href="#DejaVuSans-75" transform="translate(272.314453 0)"/>
      <use xlink:href="#DejaVuSans-72" transform="translate(335.693359 0)"/>
      <use xlink:href="#DejaVuSans-65" transform="translate(374.556641 0)"/>
      <use xlink:href="#DejaVuSans-64" transform="translate(436.080078 0)"/>
     </g>
    </g>
    <g id="line2d_29">
     <path d="M 45.83 48.38125 
L 53.83 48.38125 
L 61.83 48.38125 
" style="fill: none; stroke-dasharray: 5.55,2.4; stroke-dashoffset: 0; stroke: #1f77b4; stroke-width: 1.5"/>
    </g>
    <g id="text_18">
     <!-- forced-origin fit  (R²=1.0000) -->
     <g transform="translate(68.23 51.18125) scale(0.08 -0.08)">
      <defs>
       <path id="DejaVuSans-66" d="M 2375 4863 
L 2375 4384 
L 1825 4384 
Q 1516 4384 1395 4259 
Q 1275 4134 1275 3809 
L 1275 3500 
L 2222 3500 
L 2222 3053 
L 1275 3053 
L 1275 0 
L 697 0 
L 697 3053 
L 147 3053 
L 147 3500 
L 697 3500 
L 697 3744 
Q 697 4328 969 4595 
Q 1241 4863 1831 4863 
L 2375 4863 
z
" transform="scale(0.015625)"/>
       <path id="DejaVuSans-2d" d="M 313 2009 
L 1997 2009 
L 1997 1497 
L 313 1497 
L 313 2009 
z
" transform="scale(0.015625)"/>
       <path id="DejaVuSans-67" d="M 2906 1791 
Q 2906 2416 2648 2759 
Q 2391 3103 1925 3103 
Q 1463 3103 1205 2759 
Q 947 2416 947 1791 
Q 947 1169 1205 825 
Q 1463 481 1925 481 
Q 2391 481 2648 825 
Q 2906 1169 2906 1791 
z
M 3481 434 
Q 3481 -459 3084 -895 
Q 2688 -1331 1869 -1331 
Q 1566 -1331 1297 -1286 
Q 1028 -1241 775 -1147 
L 775 -588 
Q 1028 -725 1275 -790 
Q 1522 -856 1778 -856 
Q 2344 -856 2625 -561 
Q 2906 -266 2906 331 
L 2906 616 
Q 2728 306 2450 153 
Q 2172 0 1784 0 
Q 1141 0 747 490 
Q 353 981 353 1791 
Q 353 2603 747 3093 
Q 1141 3584 1784 3584 
Q 2172 3584 2450 3431 
Q 2728 3278 2906 2969 
L 2906 3500 
L 3481 3500 
L 3481 434 
z
" transform="scale(0.015625)"/>
       <path id="DejaVuSans-28" d="M 1984 4856 
Q 1566 4138 1362 3434 
Q 1159 2731 1159 2009 
Q 1159 1288 1364 580 
Q 1569 -128 1984 -844 
L 1484 -844 
Q 1016 -109 783 600 
Q 550 1309 550 2009 
Q 550 2706 781 3412 
Q 1013 4119 1484 4856 
L 1984 4856 
z
" transform="scale(0.015625)"/>
       <path id="DejaVuSans-52" d="M 2841 2188 
Q 3044 2119 3236 1894 
Q 3428 1669 3622 1275 
L 4263 0 
L 3584 0 
L 2988 1197 
Q 2756 1666 2539 1819 
Q 2322 1972 1947 1972 
L 1259 1972 
L 1259 0 
L 628 0 
L 628 4666 
L 2053 4666 
Q 2853 4666 3247 4331 
Q 3641 3997 3641 3322 
Q 3641 2881 3436 2590 
Q 3231 2300 2841 2188 
z
M 1259 4147 
L 1259 2491 
L 2053 2491 
Q 2509 2491 2742 2702 
Q 2975 2913 2975 3322 
Q 2975 3731 2742 3939 
Q 2509 4147 2053 4147 
L 1259 4147 
z
" transform="scale(0.015625)"/>
       <path id="DejaVuSans-b2" d="M 838 2444 
L 2163 2444 
L 2163 2088 
L 294 2088 
L 294 2431 
Q 400 2528 597 2703 
Q 1672 3656 1672 3950 
Q 1672 4156 1509 4282 
Q 1347 4409 1081 4409 
Q 919 4409 728 4354 
Q 538 4300 313 4191 
L 313 4575 
Q 553 4663 761 4706 
Q 969 4750 1147 4750 
Q 1600 4750 1872 4544 
Q 2144 4338 2144 4000 
Q 2144 3566 1109 2678 
Q 934 2528 838 2444 
z
" transform="scale(0.015625)"/>
       <path id="DejaVuSans-3d" d="M 678 2906 
L 4684 2906 
L 4684 2381 
L 678 2381 
L 678 2906 
z
M 678 1631 
L 4684 1631 
L 4684 1100 
L 678 1100 
L 678 1631 
z
" transform="scale(0.015625)"/>
       <path id="DejaVuSans-2e" d="M 684 794 
L 1344 794 
L 1344 0 
L 684 0 
L 684 794 
z
" transform="scale(0.015625)"/>
       <path id="DejaVuSans-29" d="M 513 4856 
L 1013 4856 
Q 1481 4119 1714 3412 
Q 1947 2706 1947 2009 
Q 1947 1309 1714 600 
Q 1481 -109 1013 -844 
L 513 -844 
Q 928 -128 1133 580 
Q 1338 1288 1338 2009 
Q 1338 2731 1133 3434 
Q 928 4138 513 4856 
z
" transform="scale(0.015625)"/>
      </defs>
      <use xlink:href="#DejaVuSans-66"/>
      <use xlink:href="#DejaVuSans-6f" transform="translate(35.205078 0)"/>
      <use xlink:href="#DejaVuSans-72" transform="translate(96.386719 0)"/>
      <use xlink:href="#DejaVuSans-63" transform="translate(135.25 0)"/>
      <use xlink:href="#DejaVuSans-65" transform="translate(190.230469 0)"/>
      <use xlink:href="#DejaVuSans-64" transform="translate(251.753906 0)"/>
      <use xlink:href="#DejaVuSans-2d" transform="translate(315.230469 0)"/>
      <use xlink:href="#DejaVuSans-6f" transform="translate(353.189453 0)"/>
      <use xlink:href="#DejaVuSans-72" transform="translate(414.371094 0)"/>
      <use xlink:href="#DejaVuSans-69" transform="translate(455.484375 0)"/>
      <use xlink:href="#DejaVuSans-67" transform="translate(483.267578 0)"/>
      <use xlink:href="#DejaVuSans-69" transform="translate(546.744141 0)"/>
      <use xlink:href="#DejaVuSans-6e" transform="translate(574.527344 0)"/>
      <use xlink:href="#DejaVuSans-20" transform="translate(637.90625 0)"/>
      <use xlink:href="#DejaVuSans-66" transform="translate(669.693359 0)"/>
      <use xlink:href="#DejaVuSans-69" transform="translate(704.898438 0)"/>
      <use xlink:href="#DejaVuSans-74" transform="translate(732.681641 0)"/>
      <use xlink:href="#DejaVuSans-20" transform="translate(771.890625 0)"/>
      <use xlink:href="#DejaVuSans-20" transform="translate(803.677734 0)"/>
      <use xlink:href="#DejaVuSans-28" transform="translate(835.464844 0)"/>
      <use xlink:href="#DejaVuSans-52" transform="translate(874.478516 0)"/>
      <use xlink:href="#DejaVuSans-b2" transform="translate(943.960938 0)"/>
      <use xlink:href="#DejaVuSans-3d" transform="translate(984.048828 0)"/>
      <use xlink:href="#DejaVuSans-31" transform="translate(1067.837891 0)"/>
      <use xlink:href="#DejaVuSans-2e" transform="translate(1131.460938 0)"/>
      <use xlink:href="#DejaVuSans-30" transform="translate(1163.248047 0)"/>
      <use xlink:href="#DejaVuSans-30" transform="translate(1226.871094 0)"/>
      <use xlink:href="#DejaVuSans-30" transform="translate(1290.494141 0)"/>
      <use xlink:href="#DejaVuSans-30" transform="translate(1354.117188 0)"/>
      <use xlink:href="#DejaVuSans-29" transform="translate(1417.740234 0)"/>
     </g>
    </g>
    <g id="line2d_30">
     <path d="M 45.83 60.12375 
L 53.83 60.12375 
L 61.83 60.12375 
" style="fill: none; stroke-dasharray: 1.5,2.475; stroke-dashoffset: 0; stroke: #ff7f0e; stroke-width: 1.5"/>
    </g>
    <g id="text_19">
     <!-- free fit  (R²=1.0000) -->
     <g transform="translate(68.23 62.92375) scale(0.08 -0.08)">
      <use xlink:href="#DejaVuSans-66"/>
      <use xlink:href="#DejaVuSans-72" transform="translate(35.205078 0)"/>
      <use xlink:href="#DejaVuSans-65" transform="translate(74.068359 0)"/>
      <use xlink:href="#DejaVuSans-65" transform="translate(135.591797 0)"/>
      <use xlink:href="#DejaVuSans-20" transform="translate(197.115234 0)"/>
      <use xlink:href="#DejaVuSans-66" transform="translate(228.902344 0)"/>
      <use xlink:href="#DejaVuSans-69" transform="translate(264.107422 0)"/>
      <use xlink:href="#DejaVuSans-74" transform="translate(291.890625 0)"/>
      <use xlink:href="#DejaVuSans-20" transform="translate(331.099609 0)"/>
      <use xlink:href="#DejaVuSans-20" transform="translate(362.886719 0)"/>
      <use xlink:href="#DejaVuSans-28" transform="translate(394.673828 0)"/>
      <use xlink:href="#DejaVuSans-52" transform="translate(433.6875 0)"/>
      <use xlink:href="#DejaVuSans-b2" transform="translate(503.169922 0)"/>
      <use xlink:href="#DejaVuSans-3d" transform="translate(543.257812 0)"/>
      <use xlink:href="#DejaVuSans-31" transform="translate(627.046875 0)"/>
      <use xlink:href="#DejaVuSans-2e" transform="translate(690.669922 0)"/>
      <use xlink:href="#DejaVuSans-30" transform="translate(722.457031 0)"/>
      <use xlink:href="#DejaVuSans-30" transform="translate(786.080078 0)"/>
      <use xlink:href="#DejaVuSans-30" transform="translate(849.703125 0)"/>
      <use xlink:href="#DejaVuSans-30" transform="translate(913.326172 0)"/>
      <use xlink:href="#DejaVuSans-29" transform="translate(976.949219 0)"/>
     </g>
    </g>
   </g>
  </g>
  <g id="axes_2">
   <g id="patch_8">
    <path d="M 374.09 245.68 
L 661.74 245.68 
L 661.74 26.16 
L 374.09 26.16 
z
" style="fill: #ffffff"/>
   </g>
   <g id="matplotlib.axis_3">
    <g id="xtick_9">
     <g id="line2d_31">
      <path d="M 378.743638 245.68 
L 378.743638 26.16 
" clip-path="url(#p16ecbac10f)" style="fill: none; stroke: #b0b0b0; stroke-width: 0.8; stroke-linecap: square"/>
     </g>
     <g id="line2d_32">
      <g>
       <use xlink:href="#mf4d6063fd8" x="378.743638" y="245.68" style="stroke: #000000; stroke-width: 0.8"/>
      </g>
     </g>
     <g id="text_20">
      <!-- 0 -->
      <g transform="translate(375.562388 260.278437) scale(0.1 -0.1)">
       <use xlink:href="#DejaVuSans-30"/>
      </g>
     </g>
    </g>
    <g id="xtick_10">
     <g id="line2d_33">
      <path d="M 420.929113 245.68 
L 420.929113 26.16 
" clip-path="url(#p16ecbac10f)" style="fill: none; stroke: #b0b0b0; stroke-width: 0.8; stroke-linecap: square"/>
     </g>
     <g id="line2d_34">
      <g>
       <use xlink:href="#mf4d6063fd8" x="420.929113" y="245.68" style="stroke: #000000; stroke-width: 0.8"/>
      </g>
     </g>
     <g id="text_21">
      <!-- 5 -->
      <g transform="translate(417.747863 260.278437) scale(0.1 -0.1)">
       <use xlink:href="#DejaVuSans-35"/>
      </g>
     </g>
    </g>
    <g id="xtick_11">
     <g id="line2d_35">
      <path d="M 463.114588 245.68 
L 463.114588 26.16 
" clip-path="url(#p16ecbac10f)" style="fill: none; stroke: #b0b0b0; stroke-width: 0.8; stroke-linecap: square"/>
     </g>
     <g id="line2d_36">
      <g>
       <use xlink:href="#mf4d6063fd8" x="463.114588" y="245.68" style="stroke: #000000; stroke-width: 0.8"/>
      </g>
     </g>
     <g id="text_22">
      <!-- 10 -->
      <g transform="translate(456.752088 260.278437) scale(0.1 -0.1)">
       <use xlink:href="#DejaVuSans-31"/>
       <use xlink:href="#DejaVuSans-30" transform="translate(63.623047 0)"/>
      </g>
     </g>
    </g>
    <g id="xtick_12">
     <g id="line2d_37">
      <path d="M 505.300064 245.68 
L 505.300064 26.16 
" clip-path="url(#p16ecbac10f)" style="fill: none; stroke: #b0b0b0; stroke-width: 0.8; stroke-linecap: square"/>
     </g>
     <g id="line2d_38">
      <g>
       <use xlink:href="#mf4d6063fd8" x="505.300064" y="245.68" style="stroke: #000000; stroke-width: 0.8"/>
      </g>
     </g>
     <g id="text_23">
      <!-- 15 -->
      <g transform="translate(498.937564 260.278437) scale(0.1 -0.1)">
       <use xlink:href="#DejaVuSans-31"/>
       <use xlink:href="#DejaVuSans-35" transform="translate(63.623047 0)"/>
      </g>
     </g>
    </g>
    <g id="xtick_13">
     <g id="line2d_39">
      <path d="M 547.485539 245.68 
L 547.485539 26.16 
" clip-path="url(#p16ecbac10f)" style="fill: none; stroke: #b0b0b0; stroke-width: 0.8; stroke-linecap: square"/>
     </g>
     <g id="line2d_40">
      <g>
       <use xlink:href="#mf4d6063fd8" x="547.485539" y="245.68" style="stroke: #000000; stroke-width: 0.8"/>
      </g>
     </g>
     <g id="text_24">
      <!-- 20 -->
      <g transform="translate(541.123039 260.278437) scale(0.1 -0.1)">
       <use xlink:href="#DejaVuSans-32"/>
       <use xlink:href="#DejaVuSans-30" transform="translate(63.623047 0)"/>
      </g>
     </g>
    </g>
    <g id="xtick_14">
     <g id="line2d_41">
      <path d="M 589.671014 245.68 
L 589.671014 26.16 
" clip-path="url(#p16ecbac10f)" style="fill: none; stroke: #b0b0b0; stroke-width: 0.8; stroke-linecap: square"/>
     </g>
     <g id="line2d_42">
      <g>
       <use xlink:href="#mf4d6063fd8" x="589.671014" y="245.68" style="stroke: #000000; stroke-width: 0.8"/>
      </g>
     </g>
     <g id="text_25">
      <!-- 25 -->
      <g transform="translate(583.308514 260.278437) scale(0.1 -0.1)">
       <use xlink:href="#DejaVuSans-32"/>
       <use xlink:href="#DejaVuSans-35" transform="translate(63.623047 0)"/>
      </g>
     </g>
    </g>
    <g id="xtick_15">
     <g id="line2d_43">
      <path d="M 631.856489 245.68 
L 631.856489 26.16 
" clip-path="url(#p16ecbac10f)" style="fill: none; stroke: #b0b0b0; stroke-width: 0.8; stroke-linecap: square"/>
     </g>
     <g id="line2d_44">
      <g>
       <use xlink:href="#mf4d6063fd8" x="631.856489" y="245.68" style="stroke: #000000; stroke-width: 0.8"/>
      </g>
     </g>
     <g id="text_26">
      <!-- 30 -->
      <g transform="translate(625.493989 260.278437) scale(0.1 -0.1)">
       <use xlink:href="#DejaVuSans-33"/>
       <use xlink:href="#DejaVuSans-30" transform="translate(63.623047 0)"/>
      </g>
     </g>
    </g>
    <g id="text_27">
     <!-- Motor ω_m  [rev/s] -->
     <g transform="translate(470.972812 273.956563) scale(0.1 -0.1)">
      <use xlink:href="#DejaVuSans-4d"/>
      <use xlink:href="#DejaVuSans-6f" transform="translate(86.279297 0)"/>
      <use xlink:href="#DejaVuSans-74" transform="translate(147.460938 0)"/>
      <use xlink:href="#DejaVuSans-6f" transform="translate(186.669922 0)"/>
      <use xlink:href="#DejaVuSans-72" transform="translate(247.851562 0)"/>
      <use xlink:href="#DejaVuSans-20" transform="translate(288.964844 0)"/>
      <use xlink:href="#DejaVuSans-3c9" transform="translate(320.751953 0)"/>
      <use xlink:href="#DejaVuSans-5f" transform="translate(404.492188 0)"/>
      <use xlink:href="#DejaVuSans-6d" transform="translate(454.492188 0)"/>
      <use xlink:href="#DejaVuSans-20" transform="translate(551.904297 0)"/>
      <use xlink:href="#DejaVuSans-20" transform="translate(583.691406 0)"/>
      <use xlink:href="#DejaVuSans-5b" transform="translate(615.478516 0)"/>
      <use xlink:href="#DejaVuSans-72" transform="translate(654.492188 0)"/>
      <use xlink:href="#DejaVuSans-65" transform="translate(693.355469 0)"/>
      <use xlink:href="#DejaVuSans-76" transform="translate(754.878906 0)"/>
      <use xlink:href="#DejaVuSans-2f" transform="translate(814.058594 0)"/>
      <use xlink:href="#DejaVuSans-73" transform="translate(847.75 0)"/>
      <use xlink:href="#DejaVuSans-5d" transform="translate(899.849609 0)"/>
     </g>
    </g>
   </g>
   <g id="matplotlib.axis_4">
    <g id="ytick_6">
     <g id="line2d_45">
      <path d="M 374.09 213.43272 
L 661.74 213.43272 
" clip-path="url(#p16ecbac10f)" style="fill: none; stroke: #b0b0b0; stroke-width: 0.8; stroke-linecap: square"/>
     </g>
     <g id="line2d_46">
      <g>
       <use xlink:href="#me10ef19a13" x="374.09" y="213.43272" style="stroke: #000000; stroke-width: 0.8"/>
      </g>
     </g>
     <g id="text_28">
      <!-- 4.0 -->
      <g transform="translate(351.186875 217.231939) scale(0.1 -0.1)">
       <use xlink:href="#DejaVuSans-34"/>
       <use xlink:href="#DejaVuSans-2e" transform="translate(63.623047 0)"/>
       <use xlink:href="#DejaVuSans-30" transform="translate(95.410156 0)"/>
      </g>
     </g>
    </g>
    <g id="ytick_7">
     <g id="line2d_47">
      <path d="M 374.09 180.692532 
L 661.74 180.692532 
" clip-path="url(#p16ecbac10f)" style="fill: none; stroke: #b0b0b0; stroke-width: 0.8; stroke-linecap: square"/>
     </g>
     <g id="line2d_48">
      <g>
       <use xlink:href="#me10ef19a13" x="374.09" y="180.692532" style="stroke: #000000; stroke-width: 0.8"/>
      </g>
     </g>
     <g id="text_29">
      <!-- 4.2 -->
      <g transform="translate(351.186875 184.491751) scale(0.1 -0.1)">
       <use xlink:href="#DejaVuSans-34"/>
       <use xlink:href="#DejaVuSans-2e" transform="translate(63.623047 0)"/>
       <use xlink:href="#DejaVuSans-32" transform="translate(95.410156 0)"/>
      </g>
     </g>
    </g>
    <g id="ytick_8">
     <g id="line2d_49">
      <path d="M 374.09 147.952344 
L 661.74 147.952344 
" clip-path="url(#p16ecbac10f)" style="fill: none; stroke: #b0b0b0; stroke-width: 0.8; stroke-linecap: square"/>
     </g>
     <g id="line2d_50">
      <g>
       <use xlink:href="#me10ef19a13" x="374.09" y="147.952344" style="stroke: #000000; stroke-width: 0.8"/>
      </g>
     </g>
     <g id="text_30">
      <!-- 4.4 -->
      <g transform="translate(351.186875 151.751563) scale(0.1 -0.1)">
       <use xlink:href="#DejaVuSans-34"/>
       <use xlink:href="#DejaVuSans-2e" transform="translate(63.623047 0)"/>
       <use xlink:href="#DejaVuSans-34" transform="translate(95.410156 0)"/>
      </g>
     </g>
    </g>
    <g id="ytick_9">
     <g id="line2d_51">
      <path d="M 374.09 115.212157 
L 661.74 115.212157 
" clip-path="url(#p16ecbac10f)" style="fill: none; stroke: #b0b0b0; stroke-width: 0.8; stroke-linecap: square"/>
     </g>
     <g id="line2d_52">
      <g>
       <use xlink:href="#me10ef19a13" x="374.09" y="115.212157" style="stroke: #000000; stroke-width: 0.8"/>
      </g>
     </g>
     <g id="text_31">
      <!-- 4.6 -->
      <g transform="translate(351.186875 119.011375) scale(0.1 -0.1)">
       <use xlink:href="#DejaVuSans-34"/>
       <use xlink:href="#DejaVuSans-2e" transform="translate(63.623047 0)"/>
       <use xlink:href="#DejaVuSans-36" transform="translate(95.410156 0)"/>
      </g>
     </g>
    </g>
    <g id="ytick_10">
     <g id="line2d_53">
      <path d="M 374.09 82.471969 
L 661.74 82.471969 
" clip-path="url(#p16ecbac10f)" style="fill: none; stroke: #b0b0b0; stroke-width: 0.8; stroke-linecap: square"/>
     </g>
     <g id="line2d_54">
      <g>
       <use xlink:href="#me10ef19a13" x="374.09" y="82.471969" style="stroke: #000000; stroke-width: 0.8"/>
      </g>
     </g>
     <g id="text_32">
      <!-- 4.8 -->
      <g transform="translate(351.186875 86.271188) scale(0.1 -0.1)">
       <use xlink:href="#DejaVuSans-34"/>
       <use xlink:href="#DejaVuSans-2e" transform="translate(63.623047 0)"/>
       <use xlink:href="#DejaVuSans-38" transform="translate(95.410156 0)"/>
      </g>
     </g>
    </g>
    <g id="ytick_11">
     <g id="line2d_55">
      <path d="M 374.09 49.731781 
L 661.74 49.731781 
" clip-path="url(#p16ecbac10f)" style="fill: none; stroke: #b0b0b0; stroke-width: 0.8; stroke-linecap: square"/>
     </g>
     <g id="line2d_56">
      <g>
       <use xlink:href="#me10ef19a13" x="374.09" y="49.731781" style="stroke: #000000; stroke-width: 0.8"/>
      </g>
     </g>
     <g id="text_33">
      <!-- 5.0 -->
      <g transform="translate(351.186875 53.531) scale(0.1 -0.1)">
       <use xlink:href="#DejaVuSans-35"/>
       <use xlink:href="#DejaVuSans-2e" transform="translate(63.623047 0)"/>
       <use xlink:href="#DejaVuSans-30" transform="translate(95.410156 0)"/>
      </g>
     </g>
    </g>
    <g id="text_34">
     <!-- Slip  s  [%] -->
     <g transform="translate(345.107188 162.659844) rotate(-90) scale(0.1 -0.1)">
      <defs>
       <path id="DejaVuSans-53" d="M 3425 4513 
L 3425 3897 
Q 3066 4069 2747 4153 
Q 2428 4238 2131 4238 
Q 1616 4238 1336 4038 
Q 1056 3838 1056 3469 
Q 1056 3159 1242 3001 
Q 1428 2844 1947 2747 
L 2328 2669 
Q 3034 2534 3370 2195 
Q 3706 1856 3706 1288 
Q 3706 609 3251 259 
Q 2797 -91 1919 -91 
Q 1588 -91 1214 -16 
Q 841 59 441 206 
L 441 856 
Q 825 641 1194 531 
Q 1563 422 1919 422 
Q 2459 422 2753 634 
Q 3047 847 3047 1241 
Q 3047 1584 2836 1778 
Q 2625 1972 2144 2069 
L 1759 2144 
Q 1053 2284 737 2584 
Q 422 2884 422 3419 
Q 422 4038 858 4394 
Q 1294 4750 2059 4750 
Q 2388 4750 2728 4690 
Q 3069 4631 3425 4513 
z
" transform="scale(0.015625)"/>
       <path id="DejaVuSans-6c" d="M 603 4863 
L 1178 4863 
L 1178 0 
L 603 0 
L 603 4863 
z
" transform="scale(0.015625)"/>
       <path id="DejaVuSans-70" d="M 1159 525 
L 1159 -1331 
L 581 -1331 
L 581 3500 
L 1159 3500 
L 1159 2969 
Q 1341 3281 1617 3432 
Q 1894 3584 2278 3584 
Q 2916 3584 3314 3078 
Q 3713 2572 3713 1747 
Q 3713 922 3314 415 
Q 2916 -91 2278 -91 
Q 1894 -91 1617 61 
Q 1341 213 1159 525 
z
M 3116 1747 
Q 3116 2381 2855 2742 
Q 2594 3103 2138 3103 
Q 1681 3103 1420 2742 
Q 1159 2381 1159 1747 
Q 1159 1113 1420 752 
Q 1681 391 2138 391 
Q 2594 391 2855 752 
Q 3116 1113 3116 1747 
z
" transform="scale(0.015625)"/>
       <path id="DejaVuSans-25" d="M 4653 2053 
Q 4381 2053 4226 1822 
Q 4072 1591 4072 1178 
Q 4072 772 4226 539 
Q 4381 306 4653 306 
Q 4919 306 5073 539 
Q 5228 772 5228 1178 
Q 5228 1588 5073 1820 
Q 4919 2053 4653 2053 
z
M 4653 2450 
Q 5147 2450 5437 2106 
Q 5728 1763 5728 1178 
Q 5728 594 5436 251 
Q 5144 -91 4653 -91 
Q 4153 -91 3862 251 
Q 3572 594 3572 1178 
Q 3572 1766 3864 2108 
Q 4156 2450 4653 2450 
z
M 1428 4353 
Q 1159 4353 1004 4120 
Q 850 3888 850 3481 
Q 850 3069 1003 2837 
Q 1156 2606 1428 2606 
Q 1700 2606 1854 2837 
Q 2009 3069 2009 3481 
Q 2009 3884 1853 4118 
Q 1697 4353 1428 4353 
z
M 4250 4750 
L 4750 4750 
L 1831 -91 
L 1331 -91 
L 4250 4750 
z
M 1428 4750 
Q 1922 4750 2215 4408 
Q 2509 4066 2509 3481 
Q 2509 2891 2217 2550 
Q 1925 2209 1428 2209 
Q 931 2209 642 2551 
Q 353 2894 353 3481 
Q 353 4063 643 4406 
Q 934 4750 1428 4750 
z
" transform="scale(0.015625)"/>
      </defs>
      <use xlink:href="#DejaVuSans-53"/>
      <use xlink:href="#DejaVuSans-6c" transform="translate(63.476562 0)"/>
      <use xlink:href="#DejaVuSans-69" transform="translate(91.259766 0)"/>
      <use xlink:href="#DejaVuSans-70" transform="translate(119.042969 0)"/>
      <use xlink:href="#DejaVuSans-20" transform="translate(182.519531 0)"/>
      <use xlink:href="#DejaVuSans-20" transform="translate(214.306641 0)"/>
      <use xlink:href="#DejaVuSans-73" transform="translate(246.09375 0)"/>
      <use xlink:href="#DejaVuSans-20" transform="translate(298.193359 0)"/>
      <use xlink:href="#DejaVuSans-20" transform="translate(329.980469 0)"/>
      <use xlink:href="#DejaVuSans-5b" transform="translate(361.767578 0)"/>
      <use xlink:href="#DejaVuSans-25" transform="translate(400.78125 0)"/>
      <use xlink:href="#DejaVuSans-5d" transform="translate(495.800781 0)"/>
     </g>
    </g>
   </g>
   <g id="line2d_57">
    <path d="M 374.09 143.732515 
L 661.74 143.732515 
" clip-path="url(#p16ecbac10f)" style="fill: none; stroke-dasharray: 5.55,2.4; stroke-dashoffset: 0; stroke: #ff0000; stroke-width: 1.5"/>
   </g>
   <g id="line2d_58">
    <path d="M 387.165 235.701818 
L 416.234037 215.261088 
L 445.288397 194.830678 
L 474.354905 174.391725 
L 503.446242 153.935314 
L 532.660611 133.392389 
L 561.504343 113.110088 
L 590.601872 92.649322 
L 619.637381 72.232168 
L 648.665 51.820562 
" clip-path="url(#p16ecbac10f)" style="fill: none; stroke-dasharray: 1.5,2.475; stroke-dashoffset: 0; stroke: #808080; stroke-width: 1.5"/>
   </g>
   <g id="patch_9">
    <path d="M 374.09 245.68 
L 374.09 26.16 
" style="fill: none; stroke: #000000; stroke-width: 0.8; stroke-linejoin: miter; stroke-linecap: square"/>
   </g>
   <g id="patch_10">
    <path d="M 661.74 245.68 
L 661.74 26.16 
" style="fill: none; stroke: #000000; stroke-width: 0.8; stroke-linejoin: miter; stroke-linecap: square"/>
   </g>
   <g id="patch_11">
    <path d="M 374.09 245.68 
L 661.74 245.68 
" style="fill: none; stroke: #000000; stroke-width: 0.8; stroke-linejoin: miter; stroke-linecap: square"/>
   </g>
   <g id="patch_12">
    <path d="M 374.09 26.16 
L 661.74 26.16 
" style="fill: none; stroke: #000000; stroke-width: 0.8; stroke-linejoin: miter; stroke-linecap: square"/>
   </g>
   <g id="PathCollection_3">
    <g clip-path="url(#p16ecbac10f)">
     <use xlink:href="#mc1e2ee09cf" x="387.165" y="197.020386" style="fill: #1f77b4; stroke: #1f77b4"/>
     <use xlink:href="#mc1e2ee09cf" x="416.234037" y="218.735113" style="fill: #1f77b4; stroke: #1f77b4"/>
     <use xlink:href="#mc1e2ee09cf" x="445.288397" y="205.399886" style="fill: #1f77b4; stroke: #1f77b4"/>
     <use xlink:href="#mc1e2ee09cf" x="474.354905" y="208.371205" style="fill: #1f77b4; stroke: #1f77b4"/>
     <use xlink:href="#mc1e2ee09cf" x="503.446242" y="161.22013" style="fill: #1f77b4; stroke: #1f77b4"/>
     <use xlink:href="#mc1e2ee09cf" x="532.660611" y="128.98356" style="fill: #1f77b4; stroke: #1f77b4"/>
     <use xlink:href="#mc1e2ee09cf" x="561.504343" y="125.684246" style="fill: #1f77b4; stroke: #1f77b4"/>
     <use xlink:href="#mc1e2ee09cf" x="590.601872" y="87.731941" style="fill: #1f77b4; stroke: #1f77b4"/>
     <use xlink:href="#mc1e2ee09cf" x="619.637381" y="68.040504" style="fill: #1f77b4; stroke: #1f77b4"/>
     <use xlink:href="#mc1e2ee09cf" x="648.665" y="36.138182" style="fill: #1f77b4; stroke: #1f77b4"/>
    </g>
   </g>
   <g id="text_35">
    <!-- Slip vs speed -->
    <g transform="translate(478.345 20.16) scale(0.12 -0.12)">
     <use xlink:href="#DejaVuSans-53"/>
     <use xlink:href="#DejaVuSans-6c" transform="translate(63.476562 0)"/>
     <use xlink:href="#DejaVuSans-69" transform="translate(91.259766 0)"/>
     <use xlink:href="#DejaVuSans-70" transform="translate(119.042969 0)"/>
     <use xlink:href="#DejaVuSans-20" transform="translate(182.519531 0)"/>
     <use xlink:href="#DejaVuSans-76" transform="translate(214.306641 0)"/>
     <use xlink:href="#DejaVuSans-73" transform="translate(273.486328 0)"/>
     <use xlink:href="#DejaVuSans-20" transform="translate(325.585938 0)"/>
     <use xlink:href="#DejaVuSans-73" transform="translate(357.373047 0)"/>
     <use xlink:href="#DejaVuSans-70" transform="translate(409.472656 0)"/>
     <use xlink:href="#DejaVuSans-65" transform="translate(472.949219 0)"/>
     <use xlink:href="#DejaVuSans-65" transform="translate(534.472656 0)"/>
     <use xlink:href="#DejaVuSans-64" transform="translate(595.996094 0)"/>
    </g>
   </g>
   <g id="legend_2">
    <g id="patch_13">
     <path d="M 379.69 56.045 
L 482.09375 56.045 
Q 483.69375 56.045 483.69375 54.445 
L 483.69375 31.76 
Q 483.69375 30.16 482.09375 30.16 
L 379.69 30.16 
Q 378.09 30.16 378.09 31.76 
L 378.09 54.445 
Q 378.09 56.045 379.69 56.045 
z
" style="fill: #ffffff; opacity: 0.8; stroke: #cccccc; stroke-linejoin: miter"/>
    </g>
    <g id="line2d_59">
     <path d="M 381.29 36.63875 
L 389.29 36.63875 
L 397.29 36.63875 
" style="fill: none; stroke-dasharray: 5.55,2.4; stroke-dashoffset: 0; stroke: #ff0000; stroke-width: 1.5"/>
    </g>
    <g id="text_36">
     <!-- mean s = 4.426% -->
     <g transform="translate(403.69 39.43875) scale(0.08 -0.08)">
      <use xlink:href="#DejaVuSans-6d"/>
      <use xlink:href="#DejaVuSans-65" transform="translate(97.412109 0)"/>
      <use xlink:href="#DejaVuSans-61" transform="translate(158.935547 0)"/>
      <use xlink:href="#DejaVuSans-6e" transform="translate(220.214844 0)"/>
      <use xlink:href="#DejaVuSans-20" transform="translate(283.59375 0)"/>
      <use xlink:href="#DejaVuSans-73" transform="translate(315.380859 0)"/>
      <use xlink:href="#DejaVuSans-20" transform="translate(367.480469 0)"/>
      <use xlink:href="#DejaVuSans-3d" transform="translate(399.267578 0)"/>
      <use xlink:href="#DejaVuSans-20" transform="translate(483.056641 0)"/>
      <use xlink:href="#DejaVuSans-34" transform="translate(514.84375 0)"/>
      <use xlink:href="#DejaVuSans-2e" transform="translate(578.466797 0)"/>
      <use xlink:href="#DejaVuSans-34" transform="translate(610.253906 0)"/>
      <use xlink:href="#DejaVuSans-32" transform="translate(673.876953 0)"/>
      <use xlink:href="#DejaVuSans-36" transform="translate(737.5 0)"/>
      <use xlink:href="#DejaVuSans-25" transform="translate(801.123047 0)"/>
     </g>
    </g>
    <g id="line2d_60">
     <path d="M 381.29 48.38125 
L 389.29 48.38125 
L 397.29 48.38125 
" style="fill: none; stroke-dasharray: 1.5,2.475; stroke-dashoffset: 0; stroke: #808080; stroke-width: 1.5"/>
    </g>
    <g id="text_37">
     <!-- linear fit  R²=0.913 -->
     <g transform="translate(403.69 51.18125) scale(0.08 -0.08)">
      <defs>
       <path id="DejaVuSans-39" d="M 703 97 
L 703 672 
Q 941 559 1184 500 
Q 1428 441 1663 441 
Q 2288 441 2617 861 
Q 2947 1281 2994 2138 
Q 2813 1869 2534 1725 
Q 2256 1581 1919 1581 
Q 1219 1581 811 2004 
Q 403 2428 403 3163 
Q 403 3881 828 4315 
Q 1253 4750 1959 4750 
Q 2769 4750 3195 4129 
Q 3622 3509 3622 2328 
Q 3622 1225 3098 567 
Q 2575 -91 1691 -91 
Q 1453 -91 1209 -44 
Q 966 3 703 97 
z
M 1959 2075 
Q 2384 2075 2632 2365 
Q 2881 2656 2881 3163 
Q 2881 3666 2632 3958 
Q 2384 4250 1959 4250 
Q 1534 4250 1286 3958 
Q 1038 3666 1038 3163 
Q 1038 2656 1286 2365 
Q 1534 2075 1959 2075 
z
" transform="scale(0.015625)"/>
      </defs>
      <use xlink:href="#DejaVuSans-6c"/>
      <use xlink:href="#DejaVuSans-69" transform="translate(27.783203 0)"/>
      <use xlink:href="#DejaVuSans-6e" transform="translate(55.566406 0)"/>
      <use xlink:href="#DejaVuSans-65" transform="translate(118.945312 0)"/>
      <use xlink:href="#DejaVuSans-61" transform="translate(180.46875 0)"/>
      <use xlink:href="#DejaVuSans-72" transform="translate(241.748047 0)"/>
      <use xlink:href="#DejaVuSans-20" transform="translate(282.861328 0)"/>
      <use xlink:href="#DejaVuSans-66" transform="translate(314.648438 0)"/>
      <use xlink:href="#DejaVuSans-69" transform="translate(349.853516 0)"/>
      <use xlink:href="#DejaVuSans-74" transform="translate(377.636719 0)"/>
      <use xlink:href="#DejaVuSans-20" transform="translate(416.845703 0)"/>
      <use xlink:href="#DejaVuSans-20" transform="translate(448.632812 0)"/>
      <use xlink:href="#DejaVuSans-52" transform="translate(480.419922 0)"/>
      <use xlink:href="#DejaVuSans-b2" transform="translate(549.902344 0)"/>
      <use xlink:href="#DejaVuSans-3d" transform="translate(589.990234 0)"/>
      <use xlink:href="#DejaVuSans-30" transform="translate(673.779297 0)"/>
      <use xlink:href="#DejaVuSans-2e" transform="translate(737.402344 0)"/>
      <use xlink:href="#DejaVuSans-39" transform="translate(769.189453 0)"/>
      <use xlink:href="#DejaVuSans-31" transform="translate(832.8125 0)"/>
      <use xlink:href="#DejaVuSans-33" transform="translate(896.435547 0)"/>
     </g>
    </g>
   </g>
  </g>
  <g id="axes_3">
   <g id="patch_14">
    <path d="M 709.55 245.68 
L 997.2 245.68 
L 997.2 26.16 
L 709.55 26.16 
z
" style="fill: #ffffff"/>
   </g>
   <g id="matplotlib.axis_5">
    <g id="xtick_16">
     <g id="line2d_61">
      <path d="M 728.206884 245.68 
L 728.206884 26.16 
" clip-path="url(#p600ec28265)" style="fill: none; stroke: #b0b0b0; stroke-width: 0.8; stroke-linecap: square"/>
     </g>
     <g id="line2d_62">
      <g>
       <use xlink:href="#mf4d6063fd8" x="728.206884" y="245.68" style="stroke: #000000; stroke-width: 0.8"/>
      </g>
     </g>
     <g id="text_38">
      <!-- 0.25 -->
      <g transform="translate(717.074071 260.278437) scale(0.1 -0.1)">
       <use xlink:href="#DejaVuSans-30"/>
       <use xlink:href="#DejaVuSans-2e" transform="translate(63.623047 0)"/>
       <use xlink:href="#DejaVuSans-32" transform="translate(95.410156 0)"/>
       <use xlink:href="#DejaVuSans-35" transform="translate(159.033203 0)"/>
      </g>
     </g>
    </g>
    <g id="xtick_17">
     <g id="line2d_63">
      <path d="M 766.880102 245.68 
L 766.880102 26.16 
" clip-path="url(#p600ec28265)" style="fill: none; stroke: #b0b0b0; stroke-width: 0.8; stroke-linecap: square"/>
     </g>
     <g id="line2d_64">
      <g>
       <use xlink:href="#mf4d6063fd8" x="766.880102" y="245.68" style="stroke: #000000; stroke-width: 0.8"/>
      </g>
     </g>
     <g id="text_39">
      <!-- 0.50 -->
      <g transform="translate(755.747289 260.278437) scale(0.1 -0.1)">
       <use xlink:href="#DejaVuSans-30"/>
       <use xlink:href="#DejaVuSans-2e" transform="translate(63.623047 0)"/>
       <use xlink:href="#DejaVuSans-35" transform="translate(95.410156 0)"/>
       <use xlink:href="#DejaVuSans-30" transform="translate(159.033203 0)"/>
      </g>
     </g>
    </g>
    <g id="xtick_18">
     <g id="line2d_65">
      <path d="M 805.55332 245.68 
L 805.55332 26.16 
" clip-path="url(#p600ec28265)" style="fill: none; stroke: #b0b0b0; stroke-width: 0.8; stroke-linecap: square"/>
     </g>
     <g id="line2d_66">
      <g>
       <use xlink:href="#mf4d6063fd8" x="805.55332" y="245.68" style="stroke: #000000; stroke-width: 0.8"/>
      </g>
     </g>
     <g id="text_40">
      <!-- 0.75 -->
      <g transform="translate(794.420507 260.278437) scale(0.1 -0.1)">
       <defs>
        <path id="DejaVuSans-37" d="M 525 4666 
L 3525 4666 
L 3525 4397 
L 1831 0 
L 1172 0 
L 2766 4134 
L 525 4134 
L 525 4666 
z
" transform="scale(0.015625)"/>
       </defs>
       <use xlink:href="#DejaVuSans-30"/>
       <use xlink:href="#DejaVuSans-2e" transform="translate(63.623047 0)"/>
       <use xlink:href="#DejaVuSans-37" transform="translate(95.410156 0)"/>
       <use xlink:href="#DejaVuSans-35" transform="translate(159.033203 0)"/>
      </g>
     </g>
    </g>
    <g id="xtick_19">
     <g id="line2d_67">
      <path d="M 844.226538 245.68 
L 844.226538 26.16 
" clip-path="url(#p600ec28265)" style="fill: none; stroke: #b0b0b0; stroke-width: 0.8; stroke-linecap: square"/>
     </g>
     <g id="line2d_68">
      <g>
       <use xlink:href="#mf4d6063fd8" x="844.226538" y="245.68" style="stroke: #000000; stroke-width: 0.8"/>
      </g>
     </g>
     <g id="text_41">
      <!-- 1.00 -->
      <g transform="translate(833.093725 260.278437) scale(0.1 -0.1)">
       <use xlink:href="#DejaVuSans-31"/>
       <use xlink:href="#DejaVuSans-2e" transform="translate(63.623047 0)"/>
       <use xlink:href="#DejaVuSans-30" transform="translate(95.410156 0)"/>
       <use xlink:href="#DejaVuSans-30" transform="translate(159.033203 0)"/>
      </g>
     </g>
    </g>
    <g id="xtick_20">
     <g id="line2d_69">
      <path d="M 882.899756 245.68 
L 882.899756 26.16 
" clip-path="url(#p600ec28265)" style="fill: none; stroke: #b0b0b0; stroke-width: 0.8; stroke-linecap: square"/>
     </g>
     <g id="line2d_70">
      <g>
       <use xlink:href="#mf4d6063fd8" x="882.899756" y="245.68" style="stroke: #000000; stroke-width: 0.8"/>
      </g>
     </g>
     <g id="text_42">
      <!-- 1.25 -->
      <g transform="translate(871.766943 260.278437) scale(0.1 -0.1)">
       <use xlink:href="#DejaVuSans-31"/>
       <use xlink:href="#DejaVuSans-2e" transform="translate(63.623047 0)"/>
       <use xlink:href="#DejaVuSans-32" transform="translate(95.410156 0)"/>
       <use xlink:href="#DejaVuSans-35" transform="translate(159.033203 0)"/>
      </g>
     </g>
    </g>
    <g id="xtick_21">
     <g id="line2d_71">
      <path d="M 921.572974 245.68 
L 921.572974 26.16 
" clip-path="url(#p600ec28265)" style="fill: none; stroke: #b0b0b0; stroke-width: 0.8; stroke-linecap: square"/>
     </g>
     <g id="line2d_72">
      <g>
       <use xlink:href="#mf4d6063fd8" x="921.572974" y="245.68" style="stroke: #000000; stroke-width: 0.8"/>
      </g>
     </g>
     <g id="text_43">
      <!-- 1.50 -->
      <g transform="translate(910.440161 260.278437) scale(0.1 -0.1)">
       <use xlink:href="#DejaVuSans-31"/>
       <use xlink:href="#DejaVuSans-2e" transform="translate(63.623047 0)"/>
       <use xlink:href="#DejaVuSans-35" transform="translate(95.410156 0)"/>
       <use xlink:href="#DejaVuSans-30" transform="translate(159.033203 0)"/>
      </g>
     </g>
    </g>
    <g id="xtick_22">
     <g id="line2d_73">
      <path d="M 960.246192 245.68 
L 960.246192 26.16 
" clip-path="url(#p600ec28265)" style="fill: none; stroke: #b0b0b0; stroke-width: 0.8; stroke-linecap: square"/>
     </g>
     <g id="line2d_74">
      <g>
       <use xlink:href="#mf4d6063fd8" x="960.246192" y="245.68" style="stroke: #000000; stroke-width: 0.8"/>
      </g>
     </g>
     <g id="text_44">
      <!-- 1.75 -->
      <g transform="translate(949.113379 260.278437) scale(0.1 -0.1)">
       <use xlink:href="#DejaVuSans-31"/>
       <use xlink:href="#DejaVuSans-2e" transform="translate(63.623047 0)"/>
       <use xlink:href="#DejaVuSans-37" transform="translate(95.410156 0)"/>
       <use xlink:href="#DejaVuSans-35" transform="translate(159.033203 0)"/>
      </g>
     </g>
    </g>
    <g id="text_45">
     <!-- q-current  [A]  (∝ torque) -->
     <g transform="translate(791.214844 273.956563) scale(0.1 -0.1)">
      <defs>
       <path id="DejaVuSans-71" d="M 947 1747 
Q 947 1113 1208 752 
Q 1469 391 1925 391 
Q 2381 391 2643 752 
Q 2906 1113 2906 1747 
Q 2906 2381 2643 2742 
Q 2381 3103 1925 3103 
Q 1469 3103 1208 2742 
Q 947 2381 947 1747 
z
M 2906 525 
Q 2725 213 2448 61 
Q 2172 -91 1784 -91 
Q 1150 -91 751 415 
Q 353 922 353 1747 
Q 353 2572 751 3078 
Q 1150 3584 1784 3584 
Q 2172 3584 2448 3432 
Q 2725 3281 2906 2969 
L 2906 3500 
L 3481 3500 
L 3481 -1331 
L 2906 -1331 
L 2906 525 
z
" transform="scale(0.015625)"/>
       <path id="DejaVuSans-41" d="M 2188 4044 
L 1331 1722 
L 3047 1722 
L 2188 4044 
z
M 1831 4666 
L 2547 4666 
L 4325 0 
L 3669 0 
L 3244 1197 
L 1141 1197 
L 716 0 
L 50 0 
L 1831 4666 
z
" transform="scale(0.015625)"/>
       <path id="DejaVuSans-221d" d="M 1647 1134 
Q 2163 1134 2472 1884 
Q 2075 2703 1647 2703 
Q 1334 2703 1175 2478 
Q 1006 2238 1006 1919 
Q 1006 1569 1175 1353 
Q 1350 1134 1647 1134 
z
M 3884 1128 
L 3884 716 
L 3644 716 
Q 3416 716 3247 809 
Q 3078 894 2916 1091 
Q 2819 1203 2666 1466 
Q 2456 1091 2272 925 
Q 2044 725 1681 725 
Q 1259 725 981 1041 
Q 688 1372 688 1919 
Q 688 2444 981 2800 
Q 1241 3116 1688 3116 
Q 1916 3116 2084 3022 
Q 2281 2919 2416 2741 
Q 2541 2581 2666 2366 
Q 2875 2741 3059 2906 
Q 3288 3106 3650 3106 
L 3884 3106 
L 3884 2697 
L 3684 2697 
Q 3222 2697 2859 1947 
Q 3256 1128 3684 1128 
L 3884 1128 
z
" transform="scale(0.015625)"/>
      </defs>
      <use xlink:href="#DejaVuSans-71"/>
      <use xlink:href="#DejaVuSans-2d" transform="translate(63.476562 0)"/>
      <use xlink:href="#DejaVuSans-63" transform="translate(99.560547 0)"/>
      <use xlink:href="#DejaVuSans-75" transform="translate(154.541016 0)"/>
      <use xlink:href="#DejaVuSans-72" transform="translate(217.919922 0)"/>
      <use xlink:href="#DejaVuSans-72" transform="translate(257.283203 0)"/>
      <use xlink:href="#DejaVuSans-65" transform="translate(296.146484 0)"/>
      <use xlink:href="#DejaVuSans-6e" transform="translate(357.669922 0)"/>
      <use xlink:href="#DejaVuSans-74" transform="translate(421.048828 0)"/>
      <use xlink:href="#DejaVuSans-20" transform="translate(460.257812 0)"/>
      <use xlink:href="#DejaVuSans-20" transform="translate(492.044922 0)"/>
      <use xlink:href="#DejaVuSans-5b" transform="translate(523.832031 0)"/>
      <use xlink:href="#DejaVuSans-41" transform="translate(562.845703 0)"/>
      <use xlink:href="#DejaVuSans-5d" transform="translate(631.253906 0)"/>
      <use xlink:href="#DejaVuSans-20" transform="translate(670.267578 0)"/>
      <use xlink:href="#DejaVuSans-20" transform="translate(702.054688 0)"/>
      <use xlink:href="#DejaVuSans-28" transform="translate(733.841797 0)"/>
      <use xlink:href="#DejaVuSans-221d" transform="translate(772.855469 0)"/>
      <use xlink:href="#DejaVuSans-20" transform="translate(844.291016 0)"/>
      <use xlink:href="#DejaVuSans-74" transform="translate(876.078125 0)"/>
      <use xlink:href="#DejaVuSans-6f" transform="translate(915.287109 0)"/>
      <use xlink:href="#DejaVuSans-72" transform="translate(976.46875 0)"/>
      <use xlink:href="#DejaVuSans-71" transform="translate(1015.832031 0)"/>
      <use xlink:href="#DejaVuSans-75" transform="translate(1079.308594 0)"/>
      <use xlink:href="#DejaVuSans-65" transform="translate(1142.6875 0)"/>
      <use xlink:href="#DejaVuSans-29" transform="translate(1204.210938 0)"/>
     </g>
    </g>
   </g>
   <g id="matplotlib.axis_6">
    <g id="ytick_12">
     <g id="line2d_75">
      <path d="M 709.55 229.906733 
L 997.2 229.906733 
" clip-path="url(#p600ec28265)" style="fill: none; stroke: #b0b0b0; stroke-width: 0.8; stroke-linecap: square"/>
     </g>
     <g id="line2d_76">
      <g>
       <use xlink:href="#me10ef19a13" x="709.55" y="229.906733" style="stroke: #000000; stroke-width: 0.8"/>
      </g>
     </g>
     <g id="text_46">
      <!-- 4.0 -->
      <g transform="translate(686.646875 233.705952) scale(0.1 -0.1)">
       <use xlink:href="#DejaVuSans-34"/>
       <use xlink:href="#DejaVuSans-2e" transform="translate(63.623047 0)"/>
       <use xlink:href="#DejaVuSans-30" transform="translate(95.410156 0)"/>
      </g>
     </g>
    </g>
    <g id="ytick_13">
     <g id="line2d_77">
      <path d="M 709.55 194.124363 
L 997.2 194.124363 
" clip-path="url(#p600ec28265)" style="fill: none; stroke: #b0b0b0; stroke-width: 0.8; stroke-linecap: square"/>
     </g>
     <g id="line2d_78">
      <g>
       <use xlink:href="#me10ef19a13" x="709.55" y="194.124363" style="stroke: #000000; stroke-width: 0.8"/>
      </g>
     </g>
     <g id="text_47">
      <!-- 4.2 -->
      <g transform="translate(686.646875 197.923582) scale(0.1 -0.1)">
       <use xlink:href="#DejaVuSans-34"/>
       <use xlink:href="#DejaVuSans-2e" transform="translate(63.623047 0)"/>
       <use xlink:href="#DejaVuSans-32" transform="translate(95.410156 0)"/>
      </g>
     </g>
    </g>
    <g id="ytick_14">
     <g id="line2d_79">
      <path d="M 709.55 158.341993 
L 997.2 158.341993 
" clip-path="url(#p600ec28265)" style="fill: none; stroke: #b0b0b0; stroke-width: 0.8; stroke-linecap: square"/>
     </g>
     <g id="line2d_80">
      <g>
       <use xlink:href="#me10ef19a13" x="709.55" y="158.341993" style="stroke: #000000; stroke-width: 0.8"/>
      </g>
     </g>
     <g id="text_48">
      <!-- 4.4 -->
      <g transform="translate(686.646875 162.141212) scale(0.1 -0.1)">
       <use xlink:href="#DejaVuSans-34"/>
       <use xlink:href="#DejaVuSans-2e" transform="translate(63.623047 0)"/>
       <use xlink:href="#DejaVuSans-34" transform="translate(95.410156 0)"/>
      </g>
     </g>
    </g>
    <g id="ytick_15">
     <g id="line2d_81">
      <path d="M 709.55 122.559623 
L 997.2 122.559623 
" clip-path="url(#p600ec28265)" style="fill: none; stroke: #b0b0b0; stroke-width: 0.8; stroke-linecap: square"/>
     </g>
     <g id="line2d_82">
      <g>
       <use xlink:href="#me10ef19a13" x="709.55" y="122.559623" style="stroke: #000000; stroke-width: 0.8"/>
      </g>
     </g>
     <g id="text_49">
      <!-- 4.6 -->
      <g transform="translate(686.646875 126.358842) scale(0.1 -0.1)">
       <use xlink:href="#DejaVuSans-34"/>
       <use xlink:href="#DejaVuSans-2e" transform="translate(63.623047 0)"/>
       <use xlink:href="#DejaVuSans-36" transform="translate(95.410156 0)"/>
      </g>
     </g>
    </g>
    <g id="ytick_16">
     <g id="line2d_83">
      <path d="M 709.55 86.777253 
L 997.2 86.777253 
" clip-path="url(#p600ec28265)" style="fill: none; stroke: #b0b0b0; stroke-width: 0.8; stroke-linecap: square"/>
     </g>
     <g id="line2d_84">
      <g>
       <use xlink:href="#me10ef19a13" x="709.55" y="86.777253" style="stroke: #000000; stroke-width: 0.8"/>
      </g>
     </g>
     <g id="text_50">
      <!-- 4.8 -->
      <g transform="translate(686.646875 90.576472) scale(0.1 -0.1)">
       <use xlink:href="#DejaVuSans-34"/>
       <use xlink:href="#DejaVuSans-2e" transform="translate(63.623047 0)"/>
       <use xlink:href="#DejaVuSans-38" transform="translate(95.410156 0)"/>
      </g>
     </g>
    </g>
    <g id="ytick_17">
     <g id="line2d_85">
      <path d="M 709.55 50.994883 
L 997.2 50.994883 
" clip-path="url(#p600ec28265)" style="fill: none; stroke: #b0b0b0; stroke-width: 0.8; stroke-linecap: square"/>
     </g>
     <g id="line2d_86">
      <g>
       <use xlink:href="#me10ef19a13" x="709.55" y="50.994883" style="stroke: #000000; stroke-width: 0.8"/>
      </g>
     </g>
     <g id="text_51">
      <!-- 5.0 -->
      <g transform="translate(686.646875 54.794102) scale(0.1 -0.1)">
       <use xlink:href="#DejaVuSans-35"/>
       <use xlink:href="#DejaVuSans-2e" transform="translate(63.623047 0)"/>
       <use xlink:href="#DejaVuSans-30" transform="translate(95.410156 0)"/>
      </g>
     </g>
    </g>
    <g id="text_52">
     <!-- Slip  s  [%] -->
     <g transform="translate(680.567187 162.659844) rotate(-90) scale(0.1 -0.1)">
      <use xlink:href="#DejaVuSans-53"/>
      <use xlink:href="#DejaVuSans-6c" transform="translate(63.476562 0)"/>
      <use xlink:href="#DejaVuSans-69" transform="translate(91.259766 0)"/>
      <use xlink:href="#DejaVuSans-70" transform="translate(119.042969 0)"/>
      <use xlink:href="#DejaVuSans-20" transform="translate(182.519531 0)"/>
      <use xlink:href="#DejaVuSans-20" transform="translate(214.306641 0)"/>
      <use xlink:href="#DejaVuSans-73" transform="translate(246.09375 0)"/>
      <use xlink:href="#DejaVuSans-20" transform="translate(298.193359 0)"/>
      <use xlink:href="#DejaVuSans-20" transform="translate(329.980469 0)"/>
      <use xlink:href="#DejaVuSans-5b" transform="translate(361.767578 0)"/>
      <use xlink:href="#DejaVuSans-25" transform="translate(400.78125 0)"/>
      <use xlink:href="#DejaVuSans-5d" transform="translate(495.800781 0)"/>
     </g>
    </g>
   </g>
   <g id="patch_15">
    <path d="M 709.55 245.68 
L 709.55 26.16 
" style="fill: none; stroke: #000000; stroke-width: 0.8; stroke-linejoin: miter; stroke-linecap: square"/>
   </g>
   <g id="patch_16">
    <path d="M 997.2 245.68 
L 997.2 26.16 
" style="fill: none; stroke: #000000; stroke-width: 0.8; stroke-linejoin: miter; stroke-linecap: square"/>
   </g>
   <g id="patch_17">
    <path d="M 709.55 245.68 
L 997.2 245.68 
" style="fill: none; stroke: #000000; stroke-width: 0.8; stroke-linejoin: miter; stroke-linecap: square"/>
   </g>
   <g id="patch_18">
    <path d="M 709.55 26.16 
L 997.2 26.16 
" style="fill: none; stroke: #000000; stroke-width: 0.8; stroke-linejoin: miter; stroke-linecap: square"/>
   </g>
   <g id="PathCollection_4">
    <g clip-path="url(#p600ec28265)">
     <use xlink:href="#mc1e2ee09cf" x="722.625" y="211.969383" style="fill: #1f77b4; stroke: #1f77b4"/>
     <use xlink:href="#mc1e2ee09cf" x="740.947154" y="235.701818" style="fill: #1f77b4; stroke: #1f77b4"/>
     <use xlink:href="#mc1e2ee09cf" x="761.773521" y="221.127497" style="fill: #1f77b4; stroke: #1f77b4"/>
     <use xlink:href="#mc1e2ee09cf" x="783.782813" y="224.374907" style="fill: #1f77b4; stroke: #1f77b4"/>
     <use xlink:href="#mc1e2ee09cf" x="805.526256" y="172.842606" style="fill: #1f77b4; stroke: #1f77b4"/>
     <use xlink:href="#mc1e2ee09cf" x="833.258218" y="137.61065" style="fill: #1f77b4; stroke: #1f77b4"/>
     <use xlink:href="#mc1e2ee09cf" x="866.482986" y="134.004768" style="fill: #1f77b4; stroke: #1f77b4"/>
     <use xlink:href="#mc1e2ee09cf" x="901.216399" y="92.525976" style="fill: #1f77b4; stroke: #1f77b4"/>
     <use xlink:href="#mc1e2ee09cf" x="940.885131" y="71.004833" style="fill: #1f77b4; stroke: #1f77b4"/>
     <use xlink:href="#mc1e2ee09cf" x="984.125" y="36.138182" style="fill: #1f77b4; stroke: #1f77b4"/>
    </g>
   </g>
   <g id="text_53">
    <!-- Slip vs torque -->
    <g transform="translate(812.244063 20.16) scale(0.12 -0.12)">
     <use xlink:href="#DejaVuSans-53"/>
     <use xlink:href="#DejaVuSans-6c" transform="translate(63.476562 0)"/>
     <use xlink:href="#DejaVuSans-69" transform="translate(91.259766 0)"/>
     <use xlink:href="#DejaVuSans-70" transform="translate(119.042969 0)"/>
     <use xlink:href="#DejaVuSans-20" transform="translate(182.519531 0)"/>
     <use xlink:href="#DejaVuSans-76" transform="translate(214.306641 0)"/>
     <use xlink:href="#DejaVuSans-73" transform="translate(273.486328 0)"/>
     <use xlink:href="#DejaVuSans-20" transform="translate(325.585938 0)"/>
     <use xlink:href="#DejaVuSans-74" transform="translate(357.373047 0)"/>
     <use xlink:href="#DejaVuSans-6f" transform="translate(396.582031 0)"/>
     <use xlink:href="#DejaVuSans-72" transform="translate(457.763672 0)"/>
     <use xlink:href="#DejaVuSans-71" transform="translate(497.126953 0)"/>
     <use xlink:href="#DejaVuSans-75" transform="translate(560.603516 0)"/>
     <use xlink:href="#DejaVuSans-65" transform="translate(623.982422 0)"/>
    </g>
   </g>
  </g>
 </g>
 <defs>
  <clipPath id="p8a61e9377c">
   <rect x="38.63" y="26.16" width="287.65" height="219.52"/>
  </clipPath>
  <clipPath id="p16ecbac10f">
   <rect x="374.09" y="26.16" width="287.65" height="219.52"/>
  </clipPath>
  <clipPath id="p600ec28265">
   <rect x="709.55" y="26.16" width="287.65" height="219.52"/>
  </clipPath>
 </defs>
</svg>
