<?xml version="1.0" encoding="utf-8" standalone="no"?>
<!DOCTYPE svg PUBLIC "-//W3C//DTD SVG 1.1//EN"
  "http://www.w3.org/Graphics/SVG/1.1/DTD/svg11.dtd">
<svg xmlns:xlink="http://www.w3.org/1999/xlink" width="792pt" height="288pt" viewBox="0 0 792 288" xmlns="http://www.w3.org/2000/svg" version="1.1">
 <metadata>
  <rdf:RDF xmlns:dc="http://purl.org/dc/elements/1.1/" xmlns:cc="http://creativecommons.org/ns#" xmlns:rdf="http://www.w3.org/1999/02/22-rdf-syntax-ns#">
   <cc:Work>
    <dc:type rdf:resource="http://purl.org/dc/dcmitype/StillImage"/>
    <dc:date>2026-06-18T20:55:52.598945</dc:date>
    <dc:format>image/svg+xml</dc:format>
    <dc:creator>
     <cc:Agent>
      <dc:title>Matplotlib v3.10.9, https://matplotlib.org/</dc:title>
     </cc:Agent>
    </dc:creator>
   </cc:Work>
  </rdf:RDF>
 </metadata>
 <defs>
  <style type="text/css">*{stroke-linejoin: round; stroke-linecap: butt}</style>
 </defs>
 <g id="figure_1">
  <g id="patch_1">
   <path d="M 0 288 
L 792 288 
L 792 0 
L 0 0 
z
" style="fill: #ffffff"/>
  </g>
  <g id="axes_1">
   <g id="patch_2">
    <path d="M 44.615 246.04 
L 390.6 246.04 
L 390.6 48.84 
L 44.615 48.84 
z
" style="fill: #ffffff"/>
   </g>
   <g id="patch_3">
    <path d="M 108.453978 246.04 
L 166.837479 246.04 
L 166.837479 48.84 
L 108.453978 48.84 
z
" clip-path="url(#p0a2ca1cafe)" style="fill: #463480; opacity: 0.08; stroke: #463480; stroke-linejoin: miter"/>
   </g>
   <g id="patch_4">
    <path d="M 107.871923 246.04 
L 166.858416 246.04 
L 166.858416 48.84 
L 107.871923 48.84 
z
" clip-path="url(#p0a2ca1cafe)" style="fill: #31668e; opacity: 0.08; stroke: #31668e; stroke-linejoin: miter"/>
   </g>
   <g id="patch_5">
    <path d="M 110.850595 246.04 
L 169.106378 246.04 
L 169.106378 48.84 
L 110.850595 48.84 
z
" clip-path="url(#p0a2ca1cafe)" style="fill: #21918c; opacity: 0.08; stroke: #21918c; stroke-linejoin: miter"/>
   </g>
   <g id="patch_6">
    <path d="M 133.57518 246.04 
L 196.352709 246.04 
L 196.352709 48.84 
L 133.57518 48.84 
z
" clip-path="url(#p0a2ca1cafe)" style="fill: #38b977; opacity: 0.08; stroke: #38b977; stroke-linejoin: miter"/>
   </g>
   <g id="patch_7">
    <path d="M 134.903997 246.04 
L 227.651095 246.04 
L 227.651095 48.84 
L 134.903997 48.84 
z
" clip-path="url(#p0a2ca1cafe)" style="fill: #9bd93c; opacity: 0.08; stroke: #9bd93c; stroke-linejoin: miter"/>
   </g>
   <g id="matplotlib.axis_1">
    <g id="xtick_1">
     <g id="line2d_1">
      <path d="M 60.341591 246.04 
L 60.341591 48.84 
" clip-path="url(#p0a2ca1cafe)" style="fill: none; stroke: #b0b0b0; stroke-width: 0.8; stroke-linecap: square"/>
     </g>
     <g id="line2d_2">
      <defs>
       <path id="m6f0f2945b5" d="M 0 0 
L 0 3.5 
" style="stroke: #000000; stroke-width: 0.8"/>
      </defs>
      <g>
       <use xlink:href="#m6f0f2945b5" x="60.341591" y="246.04" style="stroke: #000000; stroke-width: 0.8"/>
      </g>
     </g>
     <g id="text_1">
      <!-- 0 -->
      <g transform="translate(57.160341 260.638438) scale(0.1 -0.1)">
       <defs>
        <path id="DejaVuSans-30" d="M 2034 4250 
Q 1547 4250 1301 3770 
Q 1056 3291 1056 2328 
Q 1056 1369 1301 889 
Q 1547 409 2034 409 
Q 2525 409 2770 889 
Q 3016 1369 3016 2328 
Q 3016 3291 2770 3770 
Q 2525 4250 2034 4250 
z
M 2034 4750 
Q 2819 4750 3233 4129 
Q 3647 3509 3647 2328 
Q 3647 1150 3233 529 
Q 2819 -91 2034 -91 
Q 1250 -91 836 529 
Q 422 1150 422 2328 
Q 422 3509 836 4129 
Q 1250 4750 2034 4750 
z
" transform="scale(0.015625)"/>
       </defs>
       <use xlink:href="#DejaVuSans-30"/>
      </g>
     </g>
    </g>
    <g id="xtick_2">
     <g id="line2d_3">
      <path d="M 118.886364 246.04 
L 118.886364 48.84 
" clip-path="url(#p0a2ca1cafe)" style="fill: none; stroke: #b0b0b0; stroke-width: 0.8; stroke-linecap: square"/>
     </g>
     <g id="line2d_4">
      <g>
       <use xlink:href="#m6f0f2945b5" x="118.886364" y="246.04" style="stroke: #000000; stroke-width: 0.8"/>
      </g>
     </g>
     <g id="text_2">
      <!-- 20 -->
      <g transform="translate(112.523864 260.638438) scale(0.1 -0.1)">
       <defs>
        <path id="DejaVuSans-32" d="M 1228 531 
L 3431 531 
L 3431 0 
L 469 0 
L 469 531 
Q 828 903 1448 1529 
Q 2069 2156 2228 2338 
Q 2531 2678 2651 2914 
Q 2772 3150 2772 3378 
Q 2772 3750 2511 3984 
Q 2250 4219 1831 4219 
Q 1534 4219 1204 4116 
Q 875 4013 500 3803 
L 500 4441 
Q 881 4594 1212 4672 
Q 1544 4750 1819 4750 
Q 2544 4750 2975 4387 
Q 3406 4025 3406 3419 
Q 3406 3131 3298 2873 
Q 3191 2616 2906 2266 
Q 2828 2175 2409 1742 
Q 1991 1309 1228 531 
z
" transform="scale(0.015625)"/>
       </defs>
       <use xlink:href="#DejaVuSans-32"/>
       <use xlink:href="#DejaVuSans-30" transform="translate(63.623047 0)"/>
      </g>
     </g>
    </g>
    <g id="xtick_3">
     <g id="line2d_5">
      <path d="M 177.431137 246.04 
L 177.431137 48.84 
" clip-path="url(#p0a2ca1cafe)" style="fill: none; stroke: #b0b0b0; stroke-width: 0.8; stroke-linecap: square"/>
     </g>
     <g id="line2d_6">
      <g>
       <use xlink:href="#m6f0f2945b5" x="177.431137" y="246.04" style="stroke: #000000; stroke-width: 0.8"/>
      </g>
     </g>
     <g id="text_3">
      <!-- 40 -->
      <g transform="translate(171.068637 260.638438) scale(0.1 -0.1)">
       <defs>
        <path id="DejaVuSans-34" d="M 2419 4116 
L 825 1625 
L 2419 1625 
L 2419 4116 
z
M 2253 4666 
L 3047 4666 
L 3047 1625 
L 3713 1625 
L 3713 1100 
L 3047 1100 
L 3047 0 
L 2419 0 
L 2419 1100 
L 313 1100 
L 313 1709 
L 2253 4666 
z
" transform="scale(0.015625)"/>
       </defs>
       <use xlink:href="#DejaVuSans-34"/>
       <use xlink:href="#DejaVuSans-30" transform="translate(63.623047 0)"/>
      </g>
     </g>
    </g>
    <g id="xtick_4">
     <g id="line2d_7">
      <path d="M 235.97591 246.04 
L 235.97591 48.84 
" clip-path="url(#p0a2ca1cafe)" style="fill: none; stroke: #b0b0b0; stroke-width: 0.8; stroke-linecap: square"/>
     </g>
     <g id="line2d_8">
      <g>
       <use xlink:href="#m6f0f2945b5" x="235.97591" y="246.04" style="stroke: #000000; stroke-width: 0.8"/>
      </g>
     </g>
     <g id="text_4">
      <!-- 60 -->
      <g transform="translate(229.61341 260.638438) scale(0.1 -0.1)">
       <defs>
        <path id="DejaVuSans-36" d="M 2113 2584 
Q 1688 2584 1439 2293 
Q 1191 2003 1191 1497 
Q 1191 994 1439 701 
Q 1688 409 2113 409 
Q 2538 409 2786 701 
Q 3034 994 3034 1497 
Q 3034 2003 2786 2293 
Q 2538 2584 2113 2584 
z
M 3366 4563 
L 3366 3988 
Q 3128 4100 2886 4159 
Q 2644 4219 2406 4219 
Q 1781 4219 1451 3797 
Q 1122 3375 1075 2522 
Q 1259 2794 1537 2939 
Q 1816 3084 2150 3084 
Q 2853 3084 3261 2657 
Q 3669 2231 3669 1497 
Q 3669 778 3244 343 
Q 2819 -91 2113 -91 
Q 1303 -91 875 529 
Q 447 1150 447 2328 
Q 447 3434 972 4092 
Q 1497 4750 2381 4750 
Q 2619 4750 2861 4703 
Q 3103 4656 3366 4563 
z
" transform="scale(0.015625)"/>
       </defs>
       <use xlink:href="#DejaVuSans-36"/>
       <use xlink:href="#DejaVuSans-30" transform="translate(63.623047 0)"/>
      </g>
     </g>
    </g>
    <g id="xtick_5">
     <g id="line2d_9">
      <path d="M 294.520683 246.04 
L 294.520683 48.84 
" clip-path="url(#p0a2ca1cafe)" style="fill: none; stroke: #b0b0b0; stroke-width: 0.8; stroke-linecap: square"/>
     </g>
     <g id="line2d_10">
      <g>
       <use xlink:href="#m6f0f2945b5" x="294.520683" y="246.04" style="stroke: #000000; stroke-width: 0.8"/>
      </g>
     </g>
     <g id="text_5">
      <!-- 80 -->
      <g transform="translate(288.158183 260.638438) scale(0.1 -0.1)">
       <defs>
        <path id="DejaVuSans-38" d="M 2034 2216 
Q 1584 2216 1326 1975 
Q 1069 1734 1069 1313 
Q 1069 891 1326 650 
Q 1584 409 2034 409 
Q 2484 409 2743 651 
Q 3003 894 3003 1313 
Q 3003 1734 2745 1975 
Q 2488 2216 2034 2216 
z
M 1403 2484 
Q 997 2584 770 2862 
Q 544 3141 544 3541 
Q 544 4100 942 4425 
Q 1341 4750 2034 4750 
Q 2731 4750 3128 4425 
Q 3525 4100 3525 3541 
Q 3525 3141 3298 2862 
Q 3072 2584 2669 2484 
Q 3125 2378 3379 2068 
Q 3634 1759 3634 1313 
Q 3634 634 3220 271 
Q 2806 -91 2034 -91 
Q 1263 -91 848 271 
Q 434 634 434 1313 
Q 434 1759 690 2068 
Q 947 2378 1403 2484 
z
M 1172 3481 
Q 1172 3119 1398 2916 
Q 1625 2713 2034 2713 
Q 2441 2713 2670 2916 
Q 2900 3119 2900 3481 
Q 2900 3844 2670 4047 
Q 2441 4250 2034 4250 
Q 1625 4250 1398 4047 
Q 1172 3844 1172 3481 
z
" transform="scale(0.015625)"/>
       </defs>
       <use xlink:href="#DejaVuSans-38"/>
       <use xlink:href="#DejaVuSans-30" transform="translate(63.623047 0)"/>
      </g>
     </g>
    </g>
    <g id="xtick_6">
     <g id="line2d_11">
      <path d="M 353.065457 246.04 
L 353.065457 48.84 
" clip-path="url(#p0a2ca1cafe)" style="fill: none; stroke: #b0b0b0; stroke-width: 0.8; stroke-linecap: square"/>
     </g>
     <g id="line2d_12">
      <g>
       <use xlink:href="#m6f0f2945b5" x="353.065457" y="246.04" style="stroke: #000000; stroke-width: 0.8"/>
      </g>
     </g>
     <g id="text_6">
      <!-- 100 -->
      <g transform="translate(343.521707 260.638438) scale(0.1 -0.1)">
       <defs>
        <path id="DejaVuSans-31" d="M 794 531 
L 1825 531 
L 1825 4091 
L 703 3866 
L 703 4441 
L 1819 4666 
L 2450 4666 
L 2450 531 
L 3481 531 
L 3481 0 
L 794 0 
L 794 531 
z
" transform="scale(0.015625)"/>
       </defs>
       <use xlink:href="#DejaVuSans-31"/>
       <use xlink:href="#DejaVuSans-30" transform="translate(63.623047 0)"/>
       <use xlink:href="#DejaVuSans-30" transform="translate(127.246094 0)"/>
      </g>
     </g>
    </g>
    <g id="text_7">
     <!-- time in pulse  [ms] -->
     <g transform="translate(170.6075 274.316562) scale(0.1 -0.1)">
      <defs>
       <path id="DejaVuSans-74" d="M 1172 4494 
L 1172 3500 
L 2356 3500 
L 2356 3053 
L 1172 3053 
L 1172 1153 
Q 1172 725 1289 603 
Q 1406 481 1766 481 
L 2356 481 
L 2356 0 
L 1766 0 
Q 1100 0 847 248 
Q 594 497 594 1153 
L 594 3053 
L 172 3053 
L 172 3500 
L 594 3500 
L 594 4494 
L 1172 4494 
z
" transform="scale(0.015625)"/>
       <path id="DejaVuSans-69" d="M 603 3500 
L 1178 3500 
L 1178 0 
L 603 0 
L 603 3500 
z
M 603 4863 
L 1178 4863 
L 1178 4134 
L 603 4134 
L 603 4863 
z
" transform="scale(0.015625)"/>
       <path id="DejaVuSans-6d" d="M 3328 2828 
Q 3544 3216 3844 3400 
Q 4144 3584 4550 3584 
Q 5097 3584 5394 3201 
Q 5691 2819 5691 2113 
L 5691 0 
L 5113 0 
L 5113 2094 
Q 5113 2597 4934 2840 
Q 4756 3084 4391 3084 
Q 3944 3084 3684 2787 
Q 3425 2491 3425 1978 
L 3425 0 
L 2847 0 
L 2847 2094 
Q 2847 2600 2669 2842 
Q 2491 3084 2119 3084 
Q 1678 3084 1418 2786 
Q 1159 2488 1159 1978 
L 1159 0 
L 581 0 
L 581 3500 
L 1159 3500 
L 1159 2956 
Q 1356 3278 1631 3431 
Q 1906 3584 2284 3584 
Q 2666 3584 2933 3390 
Q 3200 3197 3328 2828 
z
" transform="scale(0.015625)"/>
       <path id="DejaVuSans-65" d="M 3597 1894 
L 3597 1613 
L 953 1613 
Q 991 1019 1311 708 
Q 1631 397 2203 397 
Q 2534 397 2845 478 
Q 3156 559 3463 722 
L 3463 178 
Q 3153 47 2828 -22 
Q 2503 -91 2169 -91 
Q 1331 -91 842 396 
Q 353 884 353 1716 
Q 353 2575 817 3079 
Q 1281 3584 2069 3584 
Q 2775 3584 3186 3129 
Q 3597 2675 3597 1894 
z
M 3022 2063 
Q 3016 2534 2758 2815 
Q 2500 3097 2075 3097 
Q 1594 3097 1305 2825 
Q 1016 2553 972 2059 
L 3022 2063 
z
" transform="scale(0.015625)"/>
       <path id="DejaVuSans-20" transform="scale(0.015625)"/>
       <path id="DejaVuSans-6e" d="M 3513 2113 
L 3513 0 
L 2938 0 
L 2938 2094 
Q 2938 2591 2744 2837 
Q 2550 3084 2163 3084 
Q 1697 3084 1428 2787 
Q 1159 2491 1159 1978 
L 1159 0 
L 581 0 
L 581 3500 
L 1159 3500 
L 1159 2956 
Q 1366 3272 1645 3428 
Q 1925 3584 2291 3584 
Q 2894 3584 3203 3211 
Q 3513 2838 3513 2113 
z
" transform="scale(0.015625)"/>
       <path id="DejaVuSans-70" d="M 1159 525 
L 1159 -1331 
L 581 -1331 
L 581 3500 
L 1159 3500 
L 1159 2969 
Q 1341 3281 1617 3432 
Q 1894 3584 2278 3584 
Q 2916 3584 3314 3078 
Q 3713 2572 3713 1747 
Q 3713 922 3314 415 
Q 2916 -91 2278 -91 
Q 1894 -91 1617 61 
Q 1341 213 1159 525 
z
M 3116 1747 
Q 3116 2381 2855 2742 
Q 2594 3103 2138 3103 
Q 1681 3103 1420 2742 
Q 1159 2381 1159 1747 
Q 1159 1113 1420 752 
Q 1681 391 2138 391 
Q 2594 391 2855 752 
Q 3116 1113 3116 1747 
z
" transform="scale(0.015625)"/>
       <path id="DejaVuSans-75" d="M 544 1381 
L 544 3500 
L 1119 3500 
L 1119 1403 
Q 1119 906 1312 657 
Q 1506 409 1894 409 
Q 2359 409 2629 706 
Q 2900 1003 2900 1516 
L 2900 3500 
L 3475 3500 
L 3475 0 
L 2900 0 
L 2900 538 
Q 2691 219 2414 64 
Q 2138 -91 1772 -91 
Q 1169 -91 856 284 
Q 544 659 544 1381 
z
M 1991 3584 
L 1991 3584 
z
" transform="scale(0.015625)"/>
       <path id="DejaVuSans-6c" d="M 603 4863 
L 1178 4863 
L 1178 0 
L 603 0 
L 603 4863 
z
" transform="scale(0.015625)"/>
       <path id="DejaVuSans-73" d="M 2834 3397 
L 2834 2853 
Q 2591 2978 2328 3040 
Q 2066 3103 1784 3103 
Q 1356 3103 1142 2972 
Q 928 2841 928 2578 
Q 928 2378 1081 2264 
Q 1234 2150 1697 2047 
L 1894 2003 
Q 2506 1872 2764 1633 
Q 3022 1394 3022 966 
Q 3022 478 2636 193 
Q 2250 -91 1575 -91 
Q 1294 -91 989 -36 
Q 684 19 347 128 
L 347 722 
Q 666 556 975 473 
Q 1284 391 1588 391 
Q 1994 391 2212 530 
Q 2431 669 2431 922 
Q 2431 1156 2273 1281 
Q 2116 1406 1581 1522 
L 1381 1569 
Q 847 1681 609 1914 
Q 372 2147 372 2553 
Q 372 3047 722 3315 
Q 1072 3584 1716 3584 
Q 2034 3584 2315 3537 
Q 2597 3491 2834 3397 
z
" transform="scale(0.015625)"/>
       <path id="DejaVuSans-5b" d="M 550 4863 
L 1875 4863 
L 1875 4416 
L 1125 4416 
L 1125 -397 
L 1875 -397 
L 1875 -844 
L 550 -844 
L 550 4863 
z
" transform="scale(0.015625)"/>
       <path id="DejaVuSans-5d" d="M 1947 4863 
L 1947 -844 
L 622 -844 
L 622 -397 
L 1369 -397 
L 1369 4416 
L 622 4416 
L 622 4863 
L 1947 4863 
z
" transform="scale(0.015625)"/>
      </defs>
      <use xlink:href="#DejaVuSans-74"/>
      <use xlink:href="#DejaVuSans-69" transform="translate(39.208984 0)"/>
      <use xlink:href="#DejaVuSans-6d" transform="translate(66.992188 0)"/>
      <use xlink:href="#DejaVuSans-65" transform="translate(164.404297 0)"/>
      <use xlink:href="#DejaVuSans-20" transform="translate(225.927734 0)"/>
      <use xlink:href="#DejaVuSans-69" transform="translate(257.714844 0)"/>
      <use xlink:href="#DejaVuSans-6e" transform="translate(285.498047 0)"/>
      <use xlink:href="#DejaVuSans-20" transform="translate(348.876953 0)"/>
      <use xlink:href="#DejaVuSans-70" transform="translate(380.664062 0)"/>
      <use xlink:href="#DejaVuSans-75" transform="translate(444.140625 0)"/>
      <use xlink:href="#DejaVuSans-6c" transform="translate(507.519531 0)"/>
      <use xlink:href="#DejaVuSans-73" transform="translate(535.302734 0)"/>
      <use xlink:href="#DejaVuSans-65" transform="translate(587.402344 0)"/>
      <use xlink:href="#DejaVuSans-20" transform="translate(648.925781 0)"/>
      <use xlink:href="#DejaVuSans-20" transform="translate(680.712891 0)"/>
      <use xlink:href="#DejaVuSans-5b" transform="translate(712.5 0)"/>
      <use xlink:href="#DejaVuSans-6d" transform="translate(751.513672 0)"/>
      <use xlink:href="#DejaVuSans-73" transform="translate(848.925781 0)"/>
      <use xlink:href="#DejaVuSans-5d" transform="translate(901.025391 0)"/>
     </g>
    </g>
   </g>
   <g id="matplotlib.axis_2">
    <g id="ytick_1">
     <g id="line2d_13">
      <path d="M 44.615 236.716953 
L 390.6 236.716953 
" clip-path="url(#p0a2ca1cafe)" style="fill: none; stroke: #b0b0b0; stroke-width: 0.8; stroke-linecap: square"/>
     </g>
     <g id="line2d_14">
      <defs>
       <path id="med35e8ac61" d="M 0 0 
L -3.5 0 
" style="stroke: #000000; stroke-width: 0.8"/>
      </defs>
      <g>
       <use xlink:href="#med35e8ac61" x="44.615" y="236.716953" style="stroke: #000000; stroke-width: 0.8"/>
      </g>
     </g>
     <g id="text_8">
      <!-- 0 -->
      <g transform="translate(31.2525 240.516171) scale(0.1 -0.1)">
       <use xlink:href="#DejaVuSans-30"/>
      </g>
     </g>
    </g>
    <g id="ytick_2">
     <g id="line2d_15">
      <path d="M 44.615 195.282768 
L 390.6 195.282768 
" clip-path="url(#p0a2ca1cafe)" style="fill: none; stroke: #b0b0b0; stroke-width: 0.8; stroke-linecap: square"/>
     </g>
     <g id="line2d_16">
      <g>
       <use xlink:href="#med35e8ac61" x="44.615" y="195.282768" style="stroke: #000000; stroke-width: 0.8"/>
      </g>
     </g>
     <g id="text_9">
      <!-- 5 -->
      <g transform="translate(31.2525 199.081987) scale(0.1 -0.1)">
       <defs>
        <path id="DejaVuSans-35" d="M 691 4666 
L 3169 4666 
L 3169 4134 
L 1269 4134 
L 1269 2991 
Q 1406 3038 1543 3061 
Q 1681 3084 1819 3084 
Q 2600 3084 3056 2656 
Q 3513 2228 3513 1497 
Q 3513 744 3044 326 
Q 2575 -91 1722 -91 
Q 1428 -91 1123 -41 
Q 819 9 494 109 
L 494 744 
Q 775 591 1075 516 
Q 1375 441 1709 441 
Q 2250 441 2565 725 
Q 2881 1009 2881 1497 
Q 2881 1984 2565 2268 
Q 2250 2553 1709 2553 
Q 1456 2553 1204 2497 
Q 953 2441 691 2322 
L 691 4666 
z
" transform="scale(0.015625)"/>
       </defs>
       <use xlink:href="#DejaVuSans-35"/>
      </g>
     </g>
    </g>
    <g id="ytick_3">
     <g id="line2d_17">
      <path d="M 44.615 153.848583 
L 390.6 153.848583 
" clip-path="url(#p0a2ca1cafe)" style="fill: none; stroke: #b0b0b0; stroke-width: 0.8; stroke-linecap: square"/>
     </g>
     <g id="line2d_18">
      <g>
       <use xlink:href="#med35e8ac61" x="44.615" y="153.848583" style="stroke: #000000; stroke-width: 0.8"/>
      </g>
     </g>
     <g id="text_10">
      <!-- 10 -->
      <g transform="translate(24.89 157.647802) scale(0.1 -0.1)">
       <use xlink:href="#DejaVuSans-31"/>
       <use xlink:href="#DejaVuSans-30" transform="translate(63.623047 0)"/>
      </g>
     </g>
    </g>
    <g id="ytick_4">
     <g id="line2d_19">
      <path d="M 44.615 112.414399 
L 390.6 112.414399 
" clip-path="url(#p0a2ca1cafe)" style="fill: none; stroke: #b0b0b0; stroke-width: 0.8; stroke-linecap: square"/>
     </g>
     <g id="line2d_20">
      <g>
       <use xlink:href="#med35e8ac61" x="44.615" y="112.414399" style="stroke: #000000; stroke-width: 0.8"/>
      </g>
     </g>
     <g id="text_11">
      <!-- 15 -->
      <g transform="translate(24.89 116.213617) scale(0.1 -0.1)">
       <use xlink:href="#DejaVuSans-31"/>
       <use xlink:href="#DejaVuSans-35" transform="translate(63.623047 0)"/>
      </g>
     </g>
    </g>
    <g id="ytick_5">
     <g id="line2d_21">
      <path d="M 44.615 70.980214 
L 390.6 70.980214 
" clip-path="url(#p0a2ca1cafe)" style="fill: none; stroke: #b0b0b0; stroke-width: 0.8; stroke-linecap: square"/>
     </g>
     <g id="line2d_22">
      <g>
       <use xlink:href="#med35e8ac61" x="44.615" y="70.980214" style="stroke: #000000; stroke-width: 0.8"/>
      </g>
     </g>
     <g id="text_12">
      <!-- 20 -->
      <g transform="translate(24.89 74.779433) scale(0.1 -0.1)">
       <use xlink:href="#DejaVuSans-32"/>
       <use xlink:href="#DejaVuSans-30" transform="translate(63.623047 0)"/>
      </g>
     </g>
    </g>
    <g id="text_13">
     <!-- motor velocity  [rev/s] -->
     <g transform="translate(18.810313 202.923594) rotate(-90) scale(0.1 -0.1)">
      <defs>
       <path id="DejaVuSans-6f" d="M 1959 3097 
Q 1497 3097 1228 2736 
Q 959 2375 959 1747 
Q 959 1119 1226 758 
Q 1494 397 1959 397 
Q 2419 397 2687 759 
Q 2956 1122 2956 1747 
Q 2956 2369 2687 2733 
Q 2419 3097 1959 3097 
z
M 1959 3584 
Q 2709 3584 3137 3096 
Q 3566 2609 3566 1747 
Q 3566 888 3137 398 
Q 2709 -91 1959 -91 
Q 1206 -91 779 398 
Q 353 888 353 1747 
Q 353 2609 779 3096 
Q 1206 3584 1959 3584 
z
" transform="scale(0.015625)"/>
       <path id="DejaVuSans-72" d="M 2631 2963 
Q 2534 3019 2420 3045 
Q 2306 3072 2169 3072 
Q 1681 3072 1420 2755 
Q 1159 2438 1159 1844 
L 1159 0 
L 581 0 
L 581 3500 
L 1159 3500 
L 1159 2956 
Q 1341 3275 1631 3429 
Q 1922 3584 2338 3584 
Q 2397 3584 2469 3576 
Q 2541 3569 2628 3553 
L 2631 2963 
z
" transform="scale(0.015625)"/>
       <path id="DejaVuSans-76" d="M 191 3500 
L 800 3500 
L 1894 563 
L 2988 3500 
L 3597 3500 
L 2284 0 
L 1503 0 
L 191 3500 
z
" transform="scale(0.015625)"/>
       <path id="DejaVuSans-63" d="M 3122 3366 
L 3122 2828 
Q 2878 2963 2633 3030 
Q 2388 3097 2138 3097 
Q 1578 3097 1268 2742 
Q 959 2388 959 1747 
Q 959 1106 1268 751 
Q 1578 397 2138 397 
Q 2388 397 2633 464 
Q 2878 531 3122 666 
L 3122 134 
Q 2881 22 2623 -34 
Q 2366 -91 2075 -91 
Q 1284 -91 818 406 
Q 353 903 353 1747 
Q 353 2603 823 3093 
Q 1294 3584 2113 3584 
Q 2378 3584 2631 3529 
Q 2884 3475 3122 3366 
z
" transform="scale(0.015625)"/>
       <path id="DejaVuSans-79" d="M 2059 -325 
Q 1816 -950 1584 -1140 
Q 1353 -1331 966 -1331 
L 506 -1331 
L 506 -850 
L 844 -850 
Q 1081 -850 1212 -737 
Q 1344 -625 1503 -206 
L 1606 56 
L 191 3500 
L 800 3500 
L 1894 763 
L 2988 3500 
L 3597 3500 
L 2059 -325 
z
" transform="scale(0.015625)"/>
       <path id="DejaVuSans-2f" d="M 1625 4666 
L 2156 4666 
L 531 -594 
L 0 -594 
L 1625 4666 
z
" transform="scale(0.015625)"/>
      </defs>
      <use xlink:href="#DejaVuSans-6d"/>
      <use xlink:href="#DejaVuSans-6f" transform="translate(97.412109 0)"/>
      <use xlink:href="#DejaVuSans-74" transform="translate(158.59375 0)"/>
      <use xlink:href="#DejaVuSans-6f" transform="translate(197.802734 0)"/>
      <use xlink:href="#DejaVuSans-72" transform="translate(258.984375 0)"/>
      <use xlink:href="#DejaVuSans-20" transform="translate(300.097656 0)"/>
      <use xlink:href="#DejaVuSans-76" transform="translate(331.884766 0)"/>
      <use xlink:href="#DejaVuSans-65" transform="translate(391.064453 0)"/>
      <use xlink:href="#DejaVuSans-6c" transform="translate(452.587891 0)"/>
      <use xlink:href="#DejaVuSans-6f" transform="translate(480.371094 0)"/>
      <use xlink:href="#DejaVuSans-63" transform="translate(541.552734 0)"/>
      <use xlink:href="#DejaVuSans-69" transform="translate(596.533203 0)"/>
      <use xlink:href="#DejaVuSans-74" transform="translate(624.316406 0)"/>
      <use xlink:href="#DejaVuSans-79" transform="translate(663.525391 0)"/>
      <use xlink:href="#DejaVuSans-20" transform="translate(722.705078 0)"/>
      <use xlink:href="#DejaVuSans-20" transform="translate(754.492188 0)"/>
      <use xlink:href="#DejaVuSans-5b" transform="translate(786.279297 0)"/>
      <use xlink:href="#DejaVuSans-72" transform="translate(825.292969 0)"/>
      <use xlink:href="#DejaVuSans-65" transform="translate(864.15625 0)"/>
      <use xlink:href="#DejaVuSans-76" transform="translate(925.679688 0)"/>
      <use xlink:href="#DejaVuSans-2f" transform="translate(984.859375 0)"/>
      <use xlink:href="#DejaVuSans-73" transform="translate(1018.550781 0)"/>
      <use xlink:href="#DejaVuSans-5d" transform="translate(1070.650391 0)"/>
     </g>
    </g>
   </g>
   <g id="line2d_23">
    <path d="M 60.341591 236.934295 
L 66.892854 236.872915 
L 73.16286 236.489853 
L 80.007245 236.819583 
L 86.636674 236.613121 
L 93.34357 236.493809 
L 101.153162 235.153009 
L 108.453978 234.119788 
L 115.959282 233.226033 
L 123.174953 231.844786 
L 130.481353 230.746465 
L 137.553954 230.137664 
L 145.740415 229.142758 
L 152.65808 228.345961 
L 159.709743 227.62948 
L 166.837479 227.037455 
L 174.061525 226.392266 
L 181.09923 225.265772 
L 188.238132 224.593392 
L 195.451012 223.024487 
L 202.139763 221.95992 
L 209.045564 220.633696 
L 215.74269 219.440513 
L 222.820873 218.375837 
L 229.995368 217.162391 
L 237.041448 216.022141 
L 244.114049 214.405927 
L 251.546072 212.489061 
L 258.597735 211.263711 
L 265.526567 209.709987 
" clip-path="url(#p0a2ca1cafe)" style="fill: none; stroke: #463480; stroke-width: 1.4; stroke-linecap: square"/>
   </g>
   <g id="line2d_24">
    <path d="M 60.341591 237.026803 
L 66.788168 236.996704 
L 73.409222 236.702889 
L 80.227086 236.207077 
L 87.085429 236.988081 
L 93.999604 236.117018 
L 101.084069 234.393832 
L 107.871923 232.420355 
L 115.248113 230.543735 
L 122.476347 228.661838 
L 129.996307 226.430059 
L 137.433913 224.737175 
L 144.49116 223.193226 
L 151.829663 220.908993 
L 159.683921 219.065386 
L 166.858416 217.010277 
L 173.854944 215.202548 
L 181.122959 213.601301 
L 188.07552 212.03652 
L 195.182318 210.427716 
L 202.410552 207.964513 
L 209.476173 206.31458 
L 216.80351 204.217765 
L 224.042213 201.487499 
L 231.450507 199.830762 
L 238.690605 197.95908 
L 246.6991 195.219868 
L 253.894533 193.234048 
L 261.481492 191.703292 
L 268.73485 189.790645 
" clip-path="url(#p0a2ca1cafe)" style="fill: none; stroke: #31668e; stroke-width: 1.4; stroke-linecap: square"/>
   </g>
   <g id="line2d_25">
    <path d="M 60.341591 236.896382 
L 67.097341 236.678354 
L 73.595563 236.695061 
L 81.116221 236.948462 
L 88.10926 236.800642 
L 95.139986 235.272588 
L 102.361939 232.136807 
L 110.850595 228.630778 
L 117.642636 225.768485 
L 124.641258 223.040792 
L 132.219842 220.018811 
L 139.713281 217.427373 
L 146.703528 214.94653 
L 153.679818 212.40234 
L 160.789407 209.577946 
L 169.106378 206.385441 
L 176.061032 204.262249 
L 183.522367 200.964301 
L 190.416303 198.862074 
L 198.261488 196.282846 
L 205.30687 193.964727 
L 212.39971 191.374106 
L 219.357853 188.322555 
L 227.23235 185.827599 
L 234.017413 183.618663 
L 240.639165 181.453865 
L 247.997907 179.022426 
L 256.238108 176.519959 
L 264.270332 173.258023 
L 273.397574 170.009763 
" clip-path="url(#p0a2ca1cafe)" style="fill: none; stroke: #21918c; stroke-width: 1.4; stroke-linecap: square"/>
   </g>
   <g id="line2d_26">
    <path d="M 60.341591 236.763585 
L 70.288875 236.585125 
L 81.71363 236.946137 
L 89.92731 236.630543 
L 96.680967 236.949181 
L 115.414913 231.885135 
L 123.950329 227.551163 
L 133.57518 222.609376 
L 141.02814 219.280356 
L 148.071428 215.365021 
L 156.123892 212.061094 
L 164.118429 207.992468 
L 171.97478 204.622354 
L 180.499029 199.986268 
L 188.171133 196.832978 
L 196.352709 192.78833 
L 205.515545 188.575326 
L 213.755745 184.754704 
L 223.994755 180.365851 
L 233.836655 176.608796 
L 243.203279 173.501959 
L 253.202906 169.626415 
L 263.094357 166.430251 
L 273.553208 161.632192 
L 281.743857 158.754992 
L 289.717457 155.612995 
L 296.874504 151.98921 
L 303.847304 148.220344 
L 310.816614 144.184224 
L 318.050431 141.211626 
" clip-path="url(#p0a2ca1cafe)" style="fill: none; stroke: #38b977; stroke-width: 1.4; stroke-linecap: square"/>
   </g>
   <g id="line2d_27">
    <path d="M 60.341591 236.765234 
L 69.498145 236.808623 
L 82.662087 236.891782 
L 93.686243 237.076364 
L 102.189555 236.340102 
L 111.158372 228.844813 
L 126.058012 221.879058 
L 134.903997 215.072515 
L 149.479109 204.978652 
L 158.281126 199.480519 
L 166.559711 191.234691 
L 178.985965 184.779752 
L 187.515099 176.318564 
L 202.640163 166.317626 
L 214.636505 158.692898 
L 227.651095 150.549112 
L 237.319216 144.757195 
L 245.729706 138.14123 
L 258.278791 128.51324 
L 271.656293 122.58167 
L 282.820729 116.58803 
L 294.412284 109.29208 
L 317.555614 98.645891 
L 327.100903 94.646242 
L 336.034824 88.473048 
L 344.014007 81.247529 
L 352.664578 75.677281 
L 360.319234 69.689079 
L 367.763122 64.447277 
L 374.873409 57.803636 
" clip-path="url(#p0a2ca1cafe)" style="fill: none; stroke: #9bd93c; stroke-width: 1.4; stroke-linecap: square"/>
   </g>
   <g id="patch_8">
    <path d="M 44.615 246.04 
L 44.615 48.84 
" style="fill: none; stroke: #000000; stroke-width: 0.8; stroke-linejoin: miter; stroke-linecap: square"/>
   </g>
   <g id="patch_9">
    <path d="M 390.6 246.04 
L 390.6 48.84 
" style="fill: none; stroke: #000000; stroke-width: 0.8; stroke-linejoin: miter; stroke-linecap: square"/>
   </g>
   <g id="patch_10">
    <path d="M 44.615 246.04 
L 390.6 246.04 
" style="fill: none; stroke: #000000; stroke-width: 0.8; stroke-linejoin: miter; stroke-linecap: square"/>
   </g>
   <g id="patch_11">
    <path d="M 44.615 48.84 
L 390.6 48.84 
" style="fill: none; stroke: #000000; stroke-width: 0.8; stroke-linejoin: miter; stroke-linecap: square"/>
   </g>
   <g id="text_14">
    <!-- Velocity traces (shaded = measurement window) -->
    <g transform="translate(69.678438 42.84) scale(0.12 -0.12)">
     <defs>
      <path id="DejaVuSans-56" d="M 1831 0 
L 50 4666 
L 709 4666 
L 2188 738 
L 3669 4666 
L 4325 4666 
L 2547 0 
L 1831 0 
z
" transform="scale(0.015625)"/>
      <path id="DejaVuSans-61" d="M 2194 1759 
Q 1497 1759 1228 1600 
Q 959 1441 959 1056 
Q 959 750 1161 570 
Q 1363 391 1709 391 
Q 2188 391 2477 730 
Q 2766 1069 2766 1631 
L 2766 1759 
L 2194 1759 
z
M 3341 1997 
L 3341 0 
L 2766 0 
L 2766 531 
Q 2569 213 2275 61 
Q 1981 -91 1556 -91 
Q 1019 -91 701 211 
Q 384 513 384 1019 
Q 384 1609 779 1909 
Q 1175 2209 1959 2209 
L 2766 2209 
L 2766 2266 
Q 2766 2663 2505 2880 
Q 2244 3097 1772 3097 
Q 1472 3097 1187 3025 
Q 903 2953 641 2809 
L 641 3341 
Q 956 3463 1253 3523 
Q 1550 3584 1831 3584 
Q 2591 3584 2966 3190 
Q 3341 2797 3341 1997 
z
" transform="scale(0.015625)"/>
      <path id="DejaVuSans-28" d="M 1984 4856 
Q 1566 4138 1362 3434 
Q 1159 2731 1159 2009 
Q 1159 1288 1364 580 
Q 1569 -128 1984 -844 
L 1484 -844 
Q 1016 -109 783 600 
Q 550 1309 550 2009 
Q 550 2706 781 3412 
Q 1013 4119 1484 4856 
L 1984 4856 
z
" transform="scale(0.015625)"/>
      <path id="DejaVuSans-68" d="M 3513 2113 
L 3513 0 
L 2938 0 
L 2938 2094 
Q 2938 2591 2744 2837 
Q 2550 3084 2163 3084 
Q 1697 3084 1428 2787 
Q 1159 2491 1159 1978 
L 1159 0 
L 581 0 
L 581 4863 
L 1159 4863 
L 1159 2956 
Q 1366 3272 1645 3428 
Q 1925 3584 2291 3584 
Q 2894 3584 3203 3211 
Q 3513 2838 3513 2113 
z
" transform="scale(0.015625)"/>
      <path id="DejaVuSans-64" d="M 2906 2969 
L 2906 4863 
L 3481 4863 
L 3481 0 
L 2906 0 
L 2906 525 
Q 2725 213 2448 61 
Q 2172 -91 1784 -91 
Q 1150 -91 751 415 
Q 353 922 353 1747 
Q 353 2572 751 3078 
Q 1150 3584 1784 3584 
Q 2172 3584 2448 3432 
Q 2725 3281 2906 2969 
z
M 947 1747 
Q 947 1113 1208 752 
Q 1469 391 1925 391 
Q 2381 391 2643 752 
Q 2906 1113 2906 1747 
Q 2906 2381 2643 2742 
Q 2381 3103 1925 3103 
Q 1469 3103 1208 2742 
Q 947 2381 947 1747 
z
" transform="scale(0.015625)"/>
      <path id="DejaVuSans-3d" d="M 678 2906 
L 4684 2906 
L 4684 2381 
L 678 2381 
L 678 2906 
z
M 678 1631 
L 4684 1631 
L 4684 1100 
L 678 1100 
L 678 1631 
z
" transform="scale(0.015625)"/>
      <path id="DejaVuSans-77" d="M 269 3500 
L 844 3500 
L 1563 769 
L 2278 3500 
L 2956 3500 
L 3675 769 
L 4391 3500 
L 4966 3500 
L 4050 0 
L 3372 0 
L 2619 2869 
L 1863 0 
L 1184 0 
L 269 3500 
z
" transform="scale(0.015625)"/>
      <path id="DejaVuSans-29" d="M 513 4856 
L 1013 4856 
Q 1481 4119 1714 3412 
Q 1947 2706 1947 2009 
Q 1947 1309 1714 600 
Q 1481 -109 1013 -844 
L 513 -844 
Q 928 -128 1133 580 
Q 1338 1288 1338 2009 
Q 1338 2731 1133 3434 
Q 928 4138 513 4856 
z
" transform="scale(0.015625)"/>
     </defs>
     <use xlink:href="#DejaVuSans-56"/>
     <use xlink:href="#DejaVuSans-65" transform="translate(60.658203 0)"/>
     <use xlink:href="#DejaVuSans-6c" transform="translate(122.181641 0)"/>
     <use xlink:href="#DejaVuSans-6f" transform="translate(149.964844 0)"/>
     <use xlink:href="#DejaVuSans-63" transform="translate(211.146484 0)"/>
     <use xlink:href="#DejaVuSans-69" transform="translate(266.126953 0)"/>
     <use xlink:href="#DejaVuSans-74" transform="translate(293.910156 0)"/>
     <use xlink:href="#DejaVuSans-79" transform="translate(333.119141 0)"/>
     <use xlink:href="#DejaVuSans-20" transform="translate(392.298828 0)"/>
     <use xlink:href="#DejaVuSans-74" transform="translate(424.085938 0)"/>
     <use xlink:href="#DejaVuSans-72" transform="translate(463.294922 0)"/>
     <use xlink:href="#DejaVuSans-61" transform="translate(504.408203 0)"/>
     <use xlink:href="#DejaVuSans-63" transform="translate(565.6875 0)"/>
     <use xlink:href="#DejaVuSans-65" transform="translate(620.667969 0)"/>
     <use xlink:href="#DejaVuSans-73" transform="translate(682.191406 0)"/>
     <use xlink:href="#DejaVuSans-20" transform="translate(734.291016 0)"/>
     <use xlink:href="#DejaVuSans-28" transform="translate(766.078125 0)"/>
     <use xlink:href="#DejaVuSans-73" transform="translate(805.091797 0)"/>
     <use xlink:href="#DejaVuSans-68" transform="translate(857.191406 0)"/>
     <use xlink:href="#DejaVuSans-61" transform="translate(920.570312 0)"/>
     <use xlink:href="#DejaVuSans-64" transform="translate(981.849609 0)"/>
     <use xlink:href="#DejaVuSans-65" transform="translate(1045.326172 0)"/>
     <use xlink:href="#DejaVuSans-64" transform="translate(1106.849609 0)"/>
     <use xlink:href="#DejaVuSans-20" transform="translate(1170.326172 0)"/>
     <use xlink:href="#DejaVuSans-3d" transform="translate(1202.113281 0)"/>
     <use xlink:href="#DejaVuSans-20" transform="translate(1285.902344 0)"/>
     <use xlink:href="#DejaVuSans-6d" transform="translate(1317.689453 0)"/>
     <use xlink:href="#DejaVuSans-65" transform="translate(1415.101562 0)"/>
     <use xlink:href="#DejaVuSans-61" transform="translate(1476.625 0)"/>
     <use xlink:href="#DejaVuSans-73" transform="translate(1537.904297 0)"/>
     <use xlink:href="#DejaVuSans-75" transform="translate(1590.003906 0)"/>
     <use xlink:href="#DejaVuSans-72" transform="translate(1653.382812 0)"/>
     <use xlink:href="#DejaVuSans-65" transform="translate(1692.246094 0)"/>
     <use xlink:href="#DejaVuSans-6d" transform="translate(1753.769531 0)"/>
     <use xlink:href="#DejaVuSans-65" transform="translate(1851.181641 0)"/>
     <use xlink:href="#DejaVuSans-6e" transform="translate(1912.705078 0)"/>
     <use xlink:href="#DejaVuSans-74" transform="translate(1976.083984 0)"/>
     <use xlink:href="#DejaVuSans-20" transform="translate(2015.292969 0)"/>
     <use xlink:href="#DejaVuSans-77" transform="translate(2047.080078 0)"/>
     <use xlink:href="#DejaVuSans-69" transform="translate(2128.867188 0)"/>
     <use xlink:href="#DejaVuSans-6e" transform="translate(2156.650391 0)"/>
     <use xlink:href="#DejaVuSans-64" transform="translate(2220.029297 0)"/>
     <use xlink:href="#DejaVuSans-6f" transform="translate(2283.505859 0)"/>
     <use xlink:href="#DejaVuSans-77" transform="translate(2344.6875 0)"/>
     <use xlink:href="#DejaVuSans-29" transform="translate(2426.474609 0)"/>
    </g>
   </g>
   <g id="legend_1">
    <g id="patch_12">
     <path d="M 49.515 85.264063 
L 178.88375 85.264063 
Q 180.28375 85.264063 180.28375 83.864063 
L 180.28375 53.74 
Q 180.28375 52.34 178.88375 52.34 
L 49.515 52.34 
Q 48.115 52.34 48.115 53.74 
L 48.115 83.864063 
Q 48.115 85.264063 49.515 85.264063 
z
" style="fill: #ffffff; opacity: 0.8; stroke: #cccccc; stroke-linejoin: miter"/>
    </g>
    <g id="line2d_28">
     <path d="M 50.915 58.008906 
L 57.915 58.008906 
L 64.915 58.008906 
" style="fill: none; stroke: #463480; stroke-width: 1.4; stroke-linecap: square"/>
    </g>
    <g id="text_15">
     <!-- 6.3 mNm -->
     <g transform="translate(70.515 60.458906) scale(0.07 -0.07)">
      <defs>
       <path id="DejaVuSans-2e" d="M 684 794 
L 1344 794 
L 1344 0 
L 684 0 
L 684 794 
z
" transform="scale(0.015625)"/>
       <path id="DejaVuSans-33" d="M 2597 2516 
Q 3050 2419 3304 2112 
Q 3559 1806 3559 1356 
Q 3559 666 3084 287 
Q 2609 -91 1734 -91 
Q 1441 -91 1130 -33 
Q 819 25 488 141 
L 488 750 
Q 750 597 1062 519 
Q 1375 441 1716 441 
Q 2309 441 2620 675 
Q 2931 909 2931 1356 
Q 2931 1769 2642 2001 
Q 2353 2234 1838 2234 
L 1294 2234 
L 1294 2753 
L 1863 2753 
Q 2328 2753 2575 2939 
Q 2822 3125 2822 3475 
Q 2822 3834 2567 4026 
Q 2313 4219 1838 4219 
Q 1578 4219 1281 4162 
Q 984 4106 628 3988 
L 628 4550 
Q 988 4650 1302 4700 
Q 1616 4750 1894 4750 
Q 2613 4750 3031 4423 
Q 3450 4097 3450 3541 
Q 3450 3153 3228 2886 
Q 3006 2619 2597 2516 
z
" transform="scale(0.015625)"/>
       <path id="DejaVuSans-4e" d="M 628 4666 
L 1478 4666 
L 3547 763 
L 3547 4666 
L 4159 4666 
L 4159 0 
L 3309 0 
L 1241 3903 
L 1241 0 
L 628 0 
L 628 4666 
z
" transform="scale(0.015625)"/>
      </defs>
      <use xlink:href="#DejaVuSans-36"/>
      <use xlink:href="#DejaVuSans-2e" transform="translate(63.623047 0)"/>
      <use xlink:href="#DejaVuSans-33" transform="translate(95.410156 0)"/>
      <use xlink:href="#DejaVuSans-20" transform="translate(159.033203 0)"/>
      <use xlink:href="#DejaVuSans-6d" transform="translate(190.820312 0)"/>
      <use xlink:href="#DejaVuSans-4e" transform="translate(288.232422 0)"/>
      <use xlink:href="#DejaVuSans-6d" transform="translate(363.037109 0)"/>
     </g>
    </g>
    <g id="line2d_29">
     <path d="M 50.915 68.283594 
L 57.915 68.283594 
L 64.915 68.283594 
" style="fill: none; stroke: #31668e; stroke-width: 1.4; stroke-linecap: square"/>
    </g>
    <g id="text_16">
     <!-- 8.2 mNm -->
     <g transform="translate(70.515 70.733594) scale(0.07 -0.07)">
      <use xlink:href="#DejaVuSans-38"/>
      <use xlink:href="#DejaVuSans-2e" transform="translate(63.623047 0)"/>
      <use xlink:href="#DejaVuSans-32" transform="translate(95.410156 0)"/>
      <use xlink:href="#DejaVuSans-20" transform="translate(159.033203 0)"/>
      <use xlink:href="#DejaVuSans-6d" transform="translate(190.820312 0)"/>
      <use xlink:href="#DejaVuSans-4e" transform="translate(288.232422 0)"/>
      <use xlink:href="#DejaVuSans-6d" transform="translate(363.037109 0)"/>
     </g>
    </g>
    <g id="line2d_30">
     <path d="M 50.915 78.558281 
L 57.915 78.558281 
L 64.915 78.558281 
" style="fill: none; stroke: #21918c; stroke-width: 1.4; stroke-linecap: square"/>
    </g>
    <g id="text_17">
     <!-- 10.6 mNm -->
     <g transform="translate(70.515 81.008281) scale(0.07 -0.07)">
      <use xlink:href="#DejaVuSans-31"/>
      <use xlink:href="#DejaVuSans-30" transform="translate(63.623047 0)"/>
      <use xlink:href="#DejaVuSans-2e" transform="translate(127.246094 0)"/>
      <use xlink:href="#DejaVuSans-36" transform="translate(159.033203 0)"/>
      <use xlink:href="#DejaVuSans-20" transform="translate(222.65625 0)"/>
      <use xlink:href="#DejaVuSans-6d" transform="translate(254.443359 0)"/>
      <use xlink:href="#DejaVuSans-4e" transform="translate(351.855469 0)"/>
      <use xlink:href="#DejaVuSans-6d" transform="translate(426.660156 0)"/>
     </g>
    </g>
    <g id="line2d_31">
     <path d="M 121.199375 58.008906 
L 128.199375 58.008906 
L 135.199375 58.008906 
" style="fill: none; stroke: #38b977; stroke-width: 1.4; stroke-linecap: square"/>
    </g>
    <g id="text_18">
     <!-- 13.8 mNm -->
     <g transform="translate(140.799375 60.458906) scale(0.07 -0.07)">
      <use xlink:href="#DejaVuSans-31"/>
      <use xlink:href="#DejaVuSans-33" transform="translate(63.623047 0)"/>
      <use xlink:href="#DejaVuSans-2e" transform="translate(127.246094 0)"/>
      <use xlink:href="#DejaVuSans-38" transform="translate(159.033203 0)"/>
      <use xlink:href="#DejaVuSans-20" transform="translate(222.65625 0)"/>
      <use xlink:href="#DejaVuSans-6d" transform="translate(254.443359 0)"/>
      <use xlink:href="#DejaVuSans-4e" transform="translate(351.855469 0)"/>
      <use xlink:href="#DejaVuSans-6d" transform="translate(426.660156 0)"/>
     </g>
    </g>
    <g id="line2d_32">
     <path d="M 121.199375 68.283594 
L 128.199375 68.283594 
L 135.199375 68.283594 
" style="fill: none; stroke: #9bd93c; stroke-width: 1.4; stroke-linecap: square"/>
    </g>
    <g id="text_19">
     <!-- 17.9 mNm -->
     <g transform="translate(140.799375 70.733594) scale(0.07 -0.07)">
      <defs>
       <path id="DejaVuSans-37" d="M 525 4666 
L 3525 4666 
L 3525 4397 
L 1831 0 
L 1172 0 
L 2766 4134 
L 525 4134 
L 525 4666 
z
" transform="scale(0.015625)"/>
       <path id="DejaVuSans-39" d="M 703 97 
L 703 672 
Q 941 559 1184 500 
Q 1428 441 1663 441 
Q 2288 441 2617 861 
Q 2947 1281 2994 2138 
Q 2813 1869 2534 1725 
Q 2256 1581 1919 1581 
Q 1219 1581 811 2004 
Q 403 2428 403 3163 
Q 403 3881 828 4315 
Q 1253 4750 1959 4750 
Q 2769 4750 3195 4129 
Q 3622 3509 3622 2328 
Q 3622 1225 3098 567 
Q 2575 -91 1691 -91 
Q 1453 -91 1209 -44 
Q 966 3 703 97 
z
M 1959 2075 
Q 2384 2075 2632 2365 
Q 2881 2656 2881 3163 
Q 2881 3666 2632 3958 
Q 2384 4250 1959 4250 
Q 1534 4250 1286 3958 
Q 1038 3666 1038 3163 
Q 1038 2656 1286 2365 
Q 1534 2075 1959 2075 
z
" transform="scale(0.015625)"/>
      </defs>
      <use xlink:href="#DejaVuSans-31"/>
      <use xlink:href="#DejaVuSans-37" transform="translate(63.623047 0)"/>
      <use xlink:href="#DejaVuSans-2e" transform="translate(127.246094 0)"/>
      <use xlink:href="#DejaVuSans-39" transform="translate(159.033203 0)"/>
      <use xlink:href="#DejaVuSans-20" transform="translate(222.65625 0)"/>
      <use xlink:href="#DejaVuSans-6d" transform="translate(254.443359 0)"/>
      <use xlink:href="#DejaVuSans-4e" transform="translate(351.855469 0)"/>
      <use xlink:href="#DejaVuSans-6d" transform="translate(426.660156 0)"/>
     </g>
    </g>
   </g>
  </g>
  <g id="axes_2">
   <g id="patch_13">
    <path d="M 435.215 246.04 
L 781.2 246.04 
L 781.2 48.84 
L 435.215 48.84 
z
" style="fill: #ffffff"/>
   </g>
   <g id="FillBetweenPolyCollection_1">
    <defs>
     <path id="m8ac062c2fa" d="M 450.941591 -156.53195 
L 450.941591 -50.923636 
L 765.473409 -50.923636 
L 765.473409 -156.53195 
L 765.473409 -156.53195 
L 450.941591 -156.53195 
z
" style="stroke: #ff0000; stroke-opacity: 0.15"/>
    </defs>
    <g clip-path="url(#p7adde20a27)">
     <use xlink:href="#m8ac062c2fa" x="0" y="288" style="fill: #ff0000; fill-opacity: 0.15; stroke: #ff0000; stroke-opacity: 0.15"/>
    </g>
   </g>
   <g id="matplotlib.axis_3">
    <g id="xtick_7">
     <g id="line2d_33">
      <path d="M 450.562281 246.04 
L 450.562281 48.84 
" clip-path="url(#p7adde20a27)" style="fill: none; stroke: #b0b0b0; stroke-width: 0.8; stroke-linecap: square"/>
     </g>
     <g id="line2d_34">
      <g>
       <use xlink:href="#m6f0f2945b5" x="450.562281" y="246.04" style="stroke: #000000; stroke-width: 0.8"/>
      </g>
     </g>
     <g id="text_20">
      <!-- 5.0 -->
      <g transform="translate(442.610718 260.638438) scale(0.1 -0.1)">
       <use xlink:href="#DejaVuSans-35"/>
       <use xlink:href="#DejaVuSans-2e" transform="translate(63.623047 0)"/>
       <use xlink:href="#DejaVuSans-30" transform="translate(95.410156 0)"/>
      </g>
     </g>
    </g>
    <g id="xtick_8">
     <g id="line2d_35">
      <path d="M 498.258962 246.04 
L 498.258962 48.84 
" clip-path="url(#p7adde20a27)" style="fill: none; stroke: #b0b0b0; stroke-width: 0.8; stroke-linecap: square"/>
     </g>
     <g id="line2d_36">
      <g>
       <use xlink:href="#m6f0f2945b5" x="498.258962" y="246.04" style="stroke: #000000; stroke-width: 0.8"/>
      </g>
     </g>
     <g id="text_21">
      <!-- 7.5 -->
      <g transform="translate(490.307399 260.638438) scale(0.1 -0.1)">
       <use xlink:href="#DejaVuSans-37"/>
       <use xlink:href="#DejaVuSans-2e" transform="translate(63.623047 0)"/>
       <use xlink:href="#DejaVuSans-35" transform="translate(95.410156 0)"/>
      </g>
     </g>
    </g>
    <g id="xtick_9">
     <g id="line2d_37">
      <path d="M 545.955642 246.04 
L 545.955642 48.84 
" clip-path="url(#p7adde20a27)" style="fill: none; stroke: #b0b0b0; stroke-width: 0.8; stroke-linecap: square"/>
     </g>
     <g id="line2d_38">
      <g>
       <use xlink:href="#m6f0f2945b5" x="545.955642" y="246.04" style="stroke: #000000; stroke-width: 0.8"/>
      </g>
     </g>
     <g id="text_22">
      <!-- 10.0 -->
      <g transform="translate(534.82283 260.638438) scale(0.1 -0.1)">
       <use xlink:href="#DejaVuSans-31"/>
       <use xlink:href="#DejaVuSans-30" transform="translate(63.623047 0)"/>
       <use xlink:href="#DejaVuSans-2e" transform="translate(127.246094 0)"/>
       <use xlink:href="#DejaVuSans-30" transform="translate(159.033203 0)"/>
      </g>
     </g>
    </g>
    <g id="xtick_10">
     <g id="line2d_39">
      <path d="M 593.652323 246.04 
L 593.652323 48.84 
" clip-path="url(#p7adde20a27)" style="fill: none; stroke: #b0b0b0; stroke-width: 0.8; stroke-linecap: square"/>
     </g>
     <g id="line2d_40">
      <g>
       <use xlink:href="#m6f0f2945b5" x="593.652323" y="246.04" style="stroke: #000000; stroke-width: 0.8"/>
      </g>
     </g>
     <g id="text_23">
      <!-- 12.5 -->
      <g transform="translate(582.51951 260.638438) scale(0.1 -0.1)">
       <use xlink:href="#DejaVuSans-31"/>
       <use xlink:href="#DejaVuSans-32" transform="translate(63.623047 0)"/>
       <use xlink:href="#DejaVuSans-2e" transform="translate(127.246094 0)"/>
       <use xlink:href="#DejaVuSans-35" transform="translate(159.033203 0)"/>
      </g>
     </g>
    </g>
    <g id="xtick_11">
     <g id="line2d_41">
      <path d="M 641.349003 246.04 
L 641.349003 48.84 
" clip-path="url(#p7adde20a27)" style="fill: none; stroke: #b0b0b0; stroke-width: 0.8; stroke-linecap: square"/>
     </g>
     <g id="line2d_42">
      <g>
       <use xlink:href="#m6f0f2945b5" x="641.349003" y="246.04" style="stroke: #000000; stroke-width: 0.8"/>
      </g>
     </g>
     <g id="text_24">
      <!-- 15.0 -->
      <g transform="translate(630.216191 260.638438) scale(0.1 -0.1)">
       <use xlink:href="#DejaVuSans-31"/>
       <use xlink:href="#DejaVuSans-35" transform="translate(63.623047 0)"/>
       <use xlink:href="#DejaVuSans-2e" transform="translate(127.246094 0)"/>
       <use xlink:href="#DejaVuSans-30" transform="translate(159.033203 0)"/>
      </g>
     </g>
    </g>
    <g id="xtick_12">
     <g id="line2d_43">
      <path d="M 689.045684 246.04 
L 689.045684 48.84 
" clip-path="url(#p7adde20a27)" style="fill: none; stroke: #b0b0b0; stroke-width: 0.8; stroke-linecap: square"/>
     </g>
     <g id="line2d_44">
      <g>
       <use xlink:href="#m6f0f2945b5" x="689.045684" y="246.04" style="stroke: #000000; stroke-width: 0.8"/>
      </g>
     </g>
     <g id="text_25">
      <!-- 17.5 -->
      <g transform="translate(677.912872 260.638438) scale(0.1 -0.1)">
       <use xlink:href="#DejaVuSans-31"/>
       <use xlink:href="#DejaVuSans-37" transform="translate(63.623047 0)"/>
       <use xlink:href="#DejaVuSans-2e" transform="translate(127.246094 0)"/>
       <use xlink:href="#DejaVuSans-35" transform="translate(159.033203 0)"/>
      </g>
     </g>
    </g>
    <g id="xtick_13">
     <g id="line2d_45">
      <path d="M 736.742365 246.04 
L 736.742365 48.84 
" clip-path="url(#p7adde20a27)" style="fill: none; stroke: #b0b0b0; stroke-width: 0.8; stroke-linecap: square"/>
     </g>
     <g id="line2d_46">
      <g>
       <use xlink:href="#m6f0f2945b5" x="736.742365" y="246.04" style="stroke: #000000; stroke-width: 0.8"/>
      </g>
     </g>
     <g id="text_26">
      <!-- 20.0 -->
      <g transform="translate(725.609552 260.638438) scale(0.1 -0.1)">
       <use xlink:href="#DejaVuSans-32"/>
       <use xlink:href="#DejaVuSans-30" transform="translate(63.623047 0)"/>
       <use xlink:href="#DejaVuSans-2e" transform="translate(127.246094 0)"/>
       <use xlink:href="#DejaVuSans-30" transform="translate(159.033203 0)"/>
      </g>
     </g>
    </g>
    <g id="text_27">
     <!-- feedforward torque  [mNm] -->
     <g transform="translate(539.392656 274.316562) scale(0.1 -0.1)">
      <defs>
       <path id="DejaVuSans-66" d="M 2375 4863 
L 2375 4384 
L 1825 4384 
Q 1516 4384 1395 4259 
Q 1275 4134 1275 3809 
L 1275 3500 
L 2222 3500 
L 2222 3053 
L 1275 3053 
L 1275 0 
L 697 0 
L 697 3053 
L 147 3053 
L 147 3500 
L 697 3500 
L 697 3744 
Q 697 4328 969 4595 
Q 1241 4863 1831 4863 
L 2375 4863 
z
" transform="scale(0.015625)"/>
       <path id="DejaVuSans-71" d="M 947 1747 
Q 947 1113 1208 752 
Q 1469 391 1925 391 
Q 2381 391 2643 752 
Q 2906 1113 2906 1747 
Q 2906 2381 2643 2742 
Q 2381 3103 1925 3103 
Q 1469 3103 1208 2742 
Q 947 2381 947 1747 
z
M 2906 525 
Q 2725 213 2448 61 
Q 2172 -91 1784 -91 
Q 1150 -91 751 415 
Q 353 922 353 1747 
Q 353 2572 751 3078 
Q 1150 3584 1784 3584 
Q 2172 3584 2448 3432 
Q 2725 3281 2906 2969 
L 2906 3500 
L 3481 3500 
L 3481 -1331 
L 2906 -1331 
L 2906 525 
z
" transform="scale(0.015625)"/>
      </defs>
      <use xlink:href="#DejaVuSans-66"/>
      <use xlink:href="#DejaVuSans-65" transform="translate(35.205078 0)"/>
      <use xlink:href="#DejaVuSans-65" transform="translate(96.728516 0)"/>
      <use xlink:href="#DejaVuSans-64" transform="translate(158.251953 0)"/>
      <use xlink:href="#DejaVuSans-66" transform="translate(221.728516 0)"/>
      <use xlink:href="#DejaVuSans-6f" transform="translate(256.933594 0)"/>
      <use xlink:href="#DejaVuSans-72" transform="translate(318.115234 0)"/>
      <use xlink:href="#DejaVuSans-77" transform="translate(359.228516 0)"/>
      <use xlink:href="#DejaVuSans-61" transform="translate(441.015625 0)"/>
      <use xlink:href="#DejaVuSans-72" transform="translate(502.294922 0)"/>
      <use xlink:href="#DejaVuSans-64" transform="translate(541.658203 0)"/>
      <use xlink:href="#DejaVuSans-20" transform="translate(605.134766 0)"/>
      <use xlink:href="#DejaVuSans-74" transform="translate(636.921875 0)"/>
      <use xlink:href="#DejaVuSans-6f" transform="translate(676.130859 0)"/>
      <use xlink:href="#DejaVuSans-72" transform="translate(737.3125 0)"/>
      <use xlink:href="#DejaVuSans-71" transform="translate(776.675781 0)"/>
      <use xlink:href="#DejaVuSans-75" transform="translate(840.152344 0)"/>
      <use xlink:href="#DejaVuSans-65" transform="translate(903.53125 0)"/>
      <use xlink:href="#DejaVuSans-20" transform="translate(965.054688 0)"/>
      <use xlink:href="#DejaVuSans-20" transform="translate(996.841797 0)"/>
      <use xlink:href="#DejaVuSans-5b" transform="translate(1028.628906 0)"/>
      <use xlink:href="#DejaVuSans-6d" transform="translate(1067.642578 0)"/>
      <use xlink:href="#DejaVuSans-4e" transform="translate(1165.054688 0)"/>
      <use xlink:href="#DejaVuSans-6d" transform="translate(1239.859375 0)"/>
      <use xlink:href="#DejaVuSans-5d" transform="translate(1337.271484 0)"/>
     </g>
    </g>
   </g>
   <g id="matplotlib.axis_4">
    <g id="ytick_6">
     <g id="line2d_47">
      <path d="M 435.215 222.294778 
L 781.2 222.294778 
" clip-path="url(#p7adde20a27)" style="fill: none; stroke: #b0b0b0; stroke-width: 0.8; stroke-linecap: square"/>
     </g>
     <g id="line2d_48">
      <g>
       <use xlink:href="#med35e8ac61" x="435.215" y="222.294778" style="stroke: #000000; stroke-width: 0.8"/>
      </g>
     </g>
     <g id="text_28">
      <!-- 10 -->
      <g transform="translate(415.49 226.093997) scale(0.1 -0.1)">
       <use xlink:href="#DejaVuSans-31"/>
       <use xlink:href="#DejaVuSans-30" transform="translate(63.623047 0)"/>
      </g>
     </g>
    </g>
    <g id="ytick_7">
     <g id="line2d_49">
      <path d="M 435.215 197.570455 
L 781.2 197.570455 
" clip-path="url(#p7adde20a27)" style="fill: none; stroke: #b0b0b0; stroke-width: 0.8; stroke-linecap: square"/>
     </g>
     <g id="line2d_50">
      <g>
       <use xlink:href="#med35e8ac61" x="435.215" y="197.570455" style="stroke: #000000; stroke-width: 0.8"/>
      </g>
     </g>
     <g id="text_29">
      <!-- 12 -->
      <g transform="translate(415.49 201.369674) scale(0.1 -0.1)">
       <use xlink:href="#DejaVuSans-31"/>
       <use xlink:href="#DejaVuSans-32" transform="translate(63.623047 0)"/>
      </g>
     </g>
    </g>
    <g id="ytick_8">
     <g id="line2d_51">
      <path d="M 435.215 172.846132 
L 781.2 172.846132 
" clip-path="url(#p7adde20a27)" style="fill: none; stroke: #b0b0b0; stroke-width: 0.8; stroke-linecap: square"/>
     </g>
     <g id="line2d_52">
      <g>
       <use xlink:href="#med35e8ac61" x="435.215" y="172.846132" style="stroke: #000000; stroke-width: 0.8"/>
      </g>
     </g>
     <g id="text_30">
      <!-- 14 -->
      <g transform="translate(415.49 176.645351) scale(0.1 -0.1)">
       <use xlink:href="#DejaVuSans-31"/>
       <use xlink:href="#DejaVuSans-34" transform="translate(63.623047 0)"/>
      </g>
     </g>
    </g>
    <g id="ytick_9">
     <g id="line2d_53">
      <path d="M 435.215 148.12181 
L 781.2 148.12181 
" clip-path="url(#p7adde20a27)" style="fill: none; stroke: #b0b0b0; stroke-width: 0.8; stroke-linecap: square"/>
     </g>
     <g id="line2d_54">
      <g>
       <use xlink:href="#med35e8ac61" x="435.215" y="148.12181" style="stroke: #000000; stroke-width: 0.8"/>
      </g>
     </g>
     <g id="text_31">
      <!-- 16 -->
      <g transform="translate(415.49 151.921028) scale(0.1 -0.1)">
       <use xlink:href="#DejaVuSans-31"/>
       <use xlink:href="#DejaVuSans-36" transform="translate(63.623047 0)"/>
      </g>
     </g>
    </g>
    <g id="ytick_10">
     <g id="line2d_55">
      <path d="M 435.215 123.397487 
L 781.2 123.397487 
" clip-path="url(#p7adde20a27)" style="fill: none; stroke: #b0b0b0; stroke-width: 0.8; stroke-linecap: square"/>
     </g>
     <g id="line2d_56">
      <g>
       <use xlink:href="#med35e8ac61" x="435.215" y="123.397487" style="stroke: #000000; stroke-width: 0.8"/>
      </g>
     </g>
     <g id="text_32">
      <!-- 18 -->
      <g transform="translate(415.49 127.196706) scale(0.1 -0.1)">
       <use xlink:href="#DejaVuSans-31"/>
       <use xlink:href="#DejaVuSans-38" transform="translate(63.623047 0)"/>
      </g>
     </g>
    </g>
    <g id="ytick_11">
     <g id="line2d_57">
      <path d="M 435.215 98.673164 
L 781.2 98.673164 
" clip-path="url(#p7adde20a27)" style="fill: none; stroke: #b0b0b0; stroke-width: 0.8; stroke-linecap: square"/>
     </g>
     <g id="line2d_58">
      <g>
       <use xlink:href="#med35e8ac61" x="435.215" y="98.673164" style="stroke: #000000; stroke-width: 0.8"/>
      </g>
     </g>
     <g id="text_33">
      <!-- 20 -->
      <g transform="translate(415.49 102.472383) scale(0.1 -0.1)">
       <use xlink:href="#DejaVuSans-32"/>
       <use xlink:href="#DejaVuSans-30" transform="translate(63.623047 0)"/>
      </g>
     </g>
    </g>
    <g id="ytick_12">
     <g id="line2d_59">
      <path d="M 435.215 73.948841 
L 781.2 73.948841 
" clip-path="url(#p7adde20a27)" style="fill: none; stroke: #b0b0b0; stroke-width: 0.8; stroke-linecap: square"/>
     </g>
     <g id="line2d_60">
      <g>
       <use xlink:href="#med35e8ac61" x="435.215" y="73.948841" style="stroke: #000000; stroke-width: 0.8"/>
      </g>
     </g>
     <g id="text_34">
      <!-- 22 -->
      <g transform="translate(415.49 77.74806) scale(0.1 -0.1)">
       <use xlink:href="#DejaVuSans-32"/>
       <use xlink:href="#DejaVuSans-32" transform="translate(63.623047 0)"/>
      </g>
     </g>
    </g>
    <g id="ytick_13">
     <g id="line2d_61">
      <path d="M 435.215 49.224518 
L 781.2 49.224518 
" clip-path="url(#p7adde20a27)" style="fill: none; stroke: #b0b0b0; stroke-width: 0.8; stroke-linecap: square"/>
     </g>
     <g id="line2d_62">
      <g>
       <use xlink:href="#med35e8ac61" x="435.215" y="49.224518" style="stroke: #000000; stroke-width: 0.8"/>
      </g>
     </g>
     <g id="text_35">
      <!-- 24 -->
      <g transform="translate(415.49 53.023737) scale(0.1 -0.1)">
       <use xlink:href="#DejaVuSans-32"/>
       <use xlink:href="#DejaVuSans-34" transform="translate(63.623047 0)"/>
      </g>
     </g>
    </g>
    <g id="text_36">
     <!-- inertia estimate  [µkg·m²] -->
     <g transform="translate(409.410312 211.928281) rotate(-90) scale(0.1 -0.1)">
      <defs>
       <path id="DejaVuSans-b5" d="M 544 -1331 
L 544 3500 
L 1119 3500 
L 1119 1325 
Q 1119 872 1334 640 
Q 1550 409 1972 409 
Q 2434 409 2667 671 
Q 2900 934 2900 1459 
L 2900 3500 
L 3475 3500 
L 3475 806 
Q 3475 619 3529 530 
Q 3584 441 3700 441 
Q 3728 441 3778 458 
Q 3828 475 3916 513 
L 3916 50 
Q 3788 -22 3673 -56 
Q 3559 -91 3450 -91 
Q 3234 -91 3106 31 
Q 2978 153 2931 403 
Q 2775 156 2548 32 
Q 2322 -91 2016 -91 
Q 1697 -91 1473 31 
Q 1250 153 1119 397 
L 1119 -1331 
L 544 -1331 
z
" transform="scale(0.015625)"/>
       <path id="DejaVuSans-6b" d="M 581 4863 
L 1159 4863 
L 1159 1991 
L 2875 3500 
L 3609 3500 
L 1753 1863 
L 3688 0 
L 2938 0 
L 1159 1709 
L 1159 0 
L 581 0 
L 581 4863 
z
" transform="scale(0.015625)"/>
       <path id="DejaVuSans-67" d="M 2906 1791 
Q 2906 2416 2648 2759 
Q 2391 3103 1925 3103 
Q 1463 3103 1205 2759 
Q 947 2416 947 1791 
Q 947 1169 1205 825 
Q 1463 481 1925 481 
Q 2391 481 2648 825 
Q 2906 1169 2906 1791 
z
M 3481 434 
Q 3481 -459 3084 -895 
Q 2688 -1331 1869 -1331 
Q 1566 -1331 1297 -1286 
Q 1028 -1241 775 -1147 
L 775 -588 
Q 1028 -725 1275 -790 
Q 1522 -856 1778 -856 
Q 2344 -856 2625 -561 
Q 2906 -266 2906 331 
L 2906 616 
Q 2728 306 2450 153 
Q 2172 0 1784 0 
Q 1141 0 747 490 
Q 353 981 353 1791 
Q 353 2603 747 3093 
Q 1141 3584 1784 3584 
Q 2172 3584 2450 3431 
Q 2728 3278 2906 2969 
L 2906 3500 
L 3481 3500 
L 3481 434 
z
" transform="scale(0.015625)"/>
       <path id="DejaVuSans-b7" d="M 684 2619 
L 1344 2619 
L 1344 1825 
L 684 1825 
L 684 2619 
z
" transform="scale(0.015625)"/>
       <path id="DejaVuSans-b2" d="M 838 2444 
L 2163 2444 
L 2163 2088 
L 294 2088 
L 294 2431 
Q 400 2528 597 2703 
Q 1672 3656 1672 3950 
Q 1672 4156 1509 4282 
Q 1347 4409 1081 4409 
Q 919 4409 728 4354 
Q 538 4300 313 4191 
L 313 4575 
Q 553 4663 761 4706 
Q 969 4750 1147 4750 
Q 1600 4750 1872 4544 
Q 2144 4338 2144 4000 
Q 2144 3566 1109 2678 
Q 934 2528 838 2444 
z
" transform="scale(0.015625)"/>
      </defs>
      <use xlink:href="#DejaVuSans-69"/>
      <use xlink:href="#DejaVuSans-6e" transform="translate(27.783203 0)"/>
      <use xlink:href="#DejaVuSans-65" transform="translate(91.162109 0)"/>
      <use xlink:href="#DejaVuSans-72" transform="translate(152.685547 0)"/>
      <use xlink:href="#DejaVuSans-74" transform="translate(193.798828 0)"/>
      <use xlink:href="#DejaVuSans-69" transform="translate(233.007812 0)"/>
      <use xlink:href="#DejaVuSans-61" transform="translate(260.791016 0)"/>
      <use xlink:href="#DejaVuSans-20" transform="translate(322.070312 0)"/>
      <use xlink:href="#DejaVuSans-65" transform="translate(353.857422 0)"/>
      <use xlink:href="#DejaVuSans-73" transform="translate(415.380859 0)"/>
      <use xlink:href="#DejaVuSans-74" transform="translate(467.480469 0)"/>
      <use xlink:href="#DejaVuSans-69" transform="translate(506.689453 0)"/>
      <use xlink:href="#DejaVuSans-6d" transform="translate(534.472656 0)"/>
      <use xlink:href="#DejaVuSans-61" transform="translate(631.884766 0)"/>
      <use xlink:href="#DejaVuSans-74" transform="translate(693.164062 0)"/>
      <use xlink:href="#DejaVuSans-65" transform="translate(732.373047 0)"/>
      <use xlink:href="#DejaVuSans-20" transform="translate(793.896484 0)"/>
      <use xlink:href="#DejaVuSans-20" transform="translate(825.683594 0)"/>
      <use xlink:href="#DejaVuSans-5b" transform="translate(857.470703 0)"/>
      <use xlink:href="#DejaVuSans-b5" transform="translate(896.484375 0)"/>
      <use xlink:href="#DejaVuSans-6b" transform="translate(960.107422 0)"/>
      <use xlink:href="#DejaVuSans-67" transform="translate(1018.017578 0)"/>
      <use xlink:href="#DejaVuSans-b7" transform="translate(1081.494141 0)"/>
      <use xlink:href="#DejaVuSans-6d" transform="translate(1113.28125 0)"/>
      <use xlink:href="#DejaVuSans-b2" transform="translate(1210.693359 0)"/>
      <use xlink:href="#DejaVuSans-5d" transform="translate(1250.78125 0)"/>
     </g>
    </g>
   </g>
   <g id="line2d_63">
    <path d="M 435.215 184.272207 
L 781.2 184.272207 
" clip-path="url(#p7adde20a27)" style="fill: none; stroke-dasharray: 5.55,2.4; stroke-dashoffset: 0; stroke: #ff0000; stroke-width: 1.5"/>
   </g>
   <g id="patch_14">
    <path d="M 435.215 246.04 
L 435.215 48.84 
" style="fill: none; stroke: #000000; stroke-width: 0.8; stroke-linejoin: miter; stroke-linecap: square"/>
   </g>
   <g id="patch_15">
    <path d="M 781.2 246.04 
L 781.2 48.84 
" style="fill: none; stroke: #000000; stroke-width: 0.8; stroke-linejoin: miter; stroke-linecap: square"/>
   </g>
   <g id="patch_16">
    <path d="M 435.215 246.04 
L 781.2 246.04 
" style="fill: none; stroke: #000000; stroke-width: 0.8; stroke-linejoin: miter; stroke-linecap: square"/>
   </g>
   <g id="patch_17">
    <path d="M 435.215 48.84 
L 781.2 48.84 
" style="fill: none; stroke: #000000; stroke-width: 0.8; stroke-linejoin: miter; stroke-linecap: square"/>
   </g>
   <g id="PathCollection_1">
    <defs>
     <path id="mdc3a4ef844" d="M 0 3.535534 
C 0.937635 3.535534 1.836992 3.163008 2.5 2.5 
C 3.163008 1.836992 3.535534 0.937635 3.535534 0 
C 3.535534 -0.937635 3.163008 -1.836992 2.5 -2.5 
C 1.836992 -3.163008 0.937635 -3.535534 0 -3.535534 
C -0.937635 -3.535534 -1.836992 -3.163008 -2.5 -2.5 
C -3.163008 -1.836992 -3.535534 -0.937635 -3.535534 0 
C -3.535534 0.937635 -3.163008 1.836992 -2.5 2.5 
C -1.836992 3.163008 -0.937635 3.535534 0 3.535534 
z
" style="stroke: #4682b4"/>
    </defs>
    <g clip-path="url(#p7adde20a27)">
     <use xlink:href="#mdc3a4ef844" x="474.884759" y="57.803636" style="fill: #4682b4; stroke: #4682b4"/>
     <use xlink:href="#mdc3a4ef844" x="510.79951" y="172.000298" style="fill: #4682b4; stroke: #4682b4"/>
     <use xlink:href="#mdc3a4ef844" x="557.488688" y="191.235937" style="fill: #4682b4; stroke: #4682b4"/>
     <use xlink:href="#mdc3a4ef844" x="618.184618" y="184.272207" style="fill: #4682b4; stroke: #4682b4"/>
     <use xlink:href="#mdc3a4ef844" x="697.089328" y="202.43184" style="fill: #4682b4; stroke: #4682b4"/>
    </g>
   </g>
   <g id="text_37">
    <!-- J per torque level -->
    <g transform="translate(556.792187 42.84) scale(0.12 -0.12)">
     <defs>
      <path id="DejaVuSans-4a" d="M 628 4666 
L 1259 4666 
L 1259 325 
Q 1259 -519 939 -900 
Q 619 -1281 -91 -1281 
L -331 -1281 
L -331 -750 
L -134 -750 
Q 284 -750 456 -515 
Q 628 -281 628 325 
L 628 4666 
z
" transform="scale(0.015625)"/>
     </defs>
     <use xlink:href="#DejaVuSans-4a"/>
     <use xlink:href="#DejaVuSans-20" transform="translate(29.492188 0)"/>
     <use xlink:href="#DejaVuSans-70" transform="translate(61.279297 0)"/>
     <use xlink:href="#DejaVuSans-65" transform="translate(124.755859 0)"/>
     <use xlink:href="#DejaVuSans-72" transform="translate(186.279297 0)"/>
     <use xlink:href="#DejaVuSans-20" transform="translate(227.392578 0)"/>
     <use xlink:href="#DejaVuSans-74" transform="translate(259.179688 0)"/>
     <use xlink:href="#DejaVuSans-6f" transform="translate(298.388672 0)"/>
     <use xlink:href="#DejaVuSans-72" transform="translate(359.570312 0)"/>
     <use xlink:href="#DejaVuSans-71" transform="translate(398.933594 0)"/>
     <use xlink:href="#DejaVuSans-75" transform="translate(462.410156 0)"/>
     <use xlink:href="#DejaVuSans-65" transform="translate(525.789062 0)"/>
     <use xlink:href="#DejaVuSans-20" transform="translate(587.3125 0)"/>
     <use xlink:href="#DejaVuSans-6c" transform="translate(619.099609 0)"/>
     <use xlink:href="#DejaVuSans-65" transform="translate(646.882812 0)"/>
     <use xlink:href="#DejaVuSans-76" transform="translate(708.40625 0)"/>
     <use xlink:href="#DejaVuSans-65" transform="translate(767.585938 0)"/>
     <use xlink:href="#DejaVuSans-6c" transform="translate(829.109375 0)"/>
    </g>
   </g>
   <g id="legend_2">
    <g id="patch_18">
     <path d="M 661.1375 78.725 
L 775.6 78.725 
Q 777.2 78.725 777.2 77.125 
L 777.2 54.44 
Q 777.2 52.84 775.6 52.84 
L 661.1375 52.84 
Q 659.5375 52.84 659.5375 54.44 
L 659.5375 77.125 
Q 659.5375 78.725 661.1375 78.725 
z
" style="fill: #ffffff; opacity: 0.8; stroke: #cccccc; stroke-linejoin: miter"/>
    </g>
    <g id="line2d_64">
     <path d="M 662.7375 59.31875 
L 670.7375 59.31875 
L 678.7375 59.31875 
" style="fill: none; stroke-dasharray: 5.55,2.4; stroke-dashoffset: 0; stroke: #ff0000; stroke-width: 1.5"/>
    </g>
    <g id="text_38">
     <!-- median  13.08 µkg·m² -->
     <g transform="translate(685.1375 62.11875) scale(0.08 -0.08)">
      <use xlink:href="#DejaVuSans-6d"/>
      <use xlink:href="#DejaVuSans-65" transform="translate(97.412109 0)"/>
      <use xlink:href="#DejaVuSans-64" transform="translate(158.935547 0)"/>
      <use xlink:href="#DejaVuSans-69" transform="translate(222.412109 0)"/>
      <use xlink:href="#DejaVuSans-61" transform="translate(250.195312 0)"/>
      <use xlink:href="#DejaVuSans-6e" transform="translate(311.474609 0)"/>
      <use xlink:href="#DejaVuSans-20" transform="translate(374.853516 0)"/>
      <use xlink:href="#DejaVuSans-20" transform="translate(406.640625 0)"/>
      <use xlink:href="#DejaVuSans-31" transform="translate(438.427734 0)"/>
      <use xlink:href="#DejaVuSans-33" transform="translate(502.050781 0)"/>
      <use xlink:href="#DejaVuSans-2e" transform="translate(565.673828 0)"/>
      <use xlink:href="#DejaVuSans-30" transform="translate(597.460938 0)"/>
      <use xlink:href="#DejaVuSans-38" transform="translate(661.083984 0)"/>
      <use xlink:href="#DejaVuSans-20" transform="translate(724.707031 0)"/>
      <use xlink:href="#DejaVuSans-b5" transform="translate(756.494141 0)"/>
      <use xlink:href="#DejaVuSans-6b" transform="translate(820.117188 0)"/>
      <use xlink:href="#DejaVuSans-67" transform="translate(878.027344 0)"/>
      <use xlink:href="#DejaVuSans-b7" transform="translate(941.503906 0)"/>
      <use xlink:href="#DejaVuSans-6d" transform="translate(973.291016 0)"/>
      <use xlink:href="#DejaVuSans-b2" transform="translate(1070.703125 0)"/>
     </g>
    </g>
    <g id="patch_19">
     <path d="M 662.7375 73.86125 
L 678.7375 73.86125 
L 678.7375 68.26125 
L 662.7375 68.26125 
z
" style="fill: #ff0000; fill-opacity: 0.15; stroke: #ff0000; stroke-opacity: 0.15; stroke-linejoin: miter"/>
    </g>
    <g id="text_39">
     <!-- ±1σ  (4.27 µkg·m²) -->
     <g transform="translate(685.1375 73.86125) scale(0.08 -0.08)">
      <defs>
       <path id="DejaVuSans-b1" d="M 2944 4013 
L 2944 2803 
L 4684 2803 
L 4684 2272 
L 2944 2272 
L 2944 1063 
L 2419 1063 
L 2419 2272 
L 678 2272 
L 678 2803 
L 2419 2803 
L 2419 4013 
L 2944 4013 
z
M 678 531 
L 4684 531 
L 4684 0 
L 678 0 
L 678 531 
z
" transform="scale(0.015625)"/>
       <path id="DejaVuSans-3c3" d="M 1959 3044 
Q 1484 3044 1228 2700 
Q 959 2341 959 1747 
Q 959 1119 1226 758 
Q 1494 397 1959 397 
Q 2419 397 2687 759 
Q 2956 1122 2956 1747 
Q 2956 2319 2688 2700 
Q 2441 3044 1959 3044 
z
M 1959 3500 
L 3869 3500 
L 3869 2925 
L 3225 2925 
Q 3566 2438 3566 1747 
Q 3566 888 3138 400 
Q 2709 -91 1959 -91 
Q 1206 -91 781 400 
Q 353 888 353 1747 
Q 353 2613 781 3097 
Q 1134 3500 1959 3500 
z
" transform="scale(0.015625)"/>
      </defs>
      <use xlink:href="#DejaVuSans-b1"/>
      <use xlink:href="#DejaVuSans-31" transform="translate(83.789062 0)"/>
      <use xlink:href="#DejaVuSans-3c3" transform="translate(147.412109 0)"/>
      <use xlink:href="#DejaVuSans-20" transform="translate(210.791016 0)"/>
      <use xlink:href="#DejaVuSans-20" transform="translate(242.578125 0)"/>
      <use xlink:href="#DejaVuSans-28" transform="translate(274.365234 0)"/>
      <use xlink:href="#DejaVuSans-34" transform="translate(313.378906 0)"/>
      <use xlink:href="#DejaVuSans-2e" transform="translate(377.001953 0)"/>
      <use xlink:href="#DejaVuSans-32" transform="translate(408.789062 0)"/>
      <use xlink:href="#DejaVuSans-37" transform="translate(472.412109 0)"/>
      <use xlink:href="#DejaVuSans-20" transform="translate(536.035156 0)"/>
      <use xlink:href="#DejaVuSans-b5" transform="translate(567.822266 0)"/>
      <use xlink:href="#DejaVuSans-6b" transform="translate(631.445312 0)"/>
      <use xlink:href="#DejaVuSans-67" transform="translate(689.355469 0)"/>
      <use xlink:href="#DejaVuSans-b7" transform="translate(752.832031 0)"/>
      <use xlink:href="#DejaVuSans-6d" transform="translate(784.619141 0)"/>
      <use xlink:href="#DejaVuSans-b2" transform="translate(882.03125 0)"/>
      <use xlink:href="#DejaVuSans-29" transform="translate(922.119141 0)"/>
     </g>
    </g>
   </g>
  </g>
  <g id="text_40">
   <!-- Motor inertia — drum (belt off),  J = 13.08 ± 4.27 µkg·m² -->
   <g transform="translate(224.909063 14.878125) scale(0.12 -0.12)">
    <defs>
     <path id="DejaVuSans-4d" d="M 628 4666 
L 1569 4666 
L 2759 1491 
L 3956 4666 
L 4897 4666 
L 4897 0 
L 4281 0 
L 4281 4097 
L 3078 897 
L 2444 897 
L 1241 4097 
L 1241 0 
L 628 0 
L 628 4666 
z
" transform="scale(0.015625)"/>
     <path id="DejaVuSans-2014" d="M 313 1978 
L 6088 1978 
L 6088 1528 
L 313 1528 
L 313 1978 
z
" transform="scale(0.015625)"/>
     <path id="DejaVuSans-62" d="M 3116 1747 
Q 3116 2381 2855 2742 
Q 2594 3103 2138 3103 
Q 1681 3103 1420 2742 
Q 1159 2381 1159 1747 
Q 1159 1113 1420 752 
Q 1681 391 2138 391 
Q 2594 391 2855 752 
Q 3116 1113 3116 1747 
z
M 1159 2969 
Q 1341 3281 1617 3432 
Q 1894 3584 2278 3584 
Q 2916 3584 3314 3078 
Q 3713 2572 3713 1747 
Q 3713 922 3314 415 
Q 2916 -91 2278 -91 
Q 1894 -91 1617 61 
Q 1341 213 1159 525 
L 1159 0 
L 581 0 
L 581 4863 
L 1159 4863 
L 1159 2969 
z
" transform="scale(0.015625)"/>
     <path id="DejaVuSans-2c" d="M 750 794 
L 1409 794 
L 1409 256 
L 897 -744 
L 494 -744 
L 750 256 
L 750 794 
z
" transform="scale(0.015625)"/>
    </defs>
    <use xlink:href="#DejaVuSans-4d"/>
    <use xlink:href="#DejaVuSans-6f" transform="translate(86.279297 0)"/>
    <use xlink:href="#DejaVuSans-74" transform="translate(147.460938 0)"/>
    <use xlink:href="#DejaVuSans-6f" transform="translate(186.669922 0)"/>
    <use xlink:href="#DejaVuSans-72" transform="translate(247.851562 0)"/>
    <use xlink:href="#DejaVuSans-20" transform="translate(288.964844 0)"/>
    <use xlink:href="#DejaVuSans-69" transform="translate(320.751953 0)"/>
    <use xlink:href="#DejaVuSans-6e" transform="translate(348.535156 0)"/>
    <use xlink:href="#DejaVuSans-65" transform="translate(411.914062 0)"/>
    <use xlink:href="#DejaVuSans-72" transform="translate(473.4375 0)"/>
    <use xlink:href="#DejaVuSans-74" transform="translate(514.550781 0)"/>
    <use xlink:href="#DejaVuSans-69" transform="translate(553.759766 0)"/>
    <use xlink:href="#DejaVuSans-61" transform="translate(581.542969 0)"/>
    <use xlink:href="#DejaVuSans-20" transform="translate(642.822266 0)"/>
    <use xlink:href="#DejaVuSans-2014" transform="translate(674.609375 0)"/>
    <use xlink:href="#DejaVuSans-20" transform="translate(774.609375 0)"/>
    <use xlink:href="#DejaVuSans-64" transform="translate(806.396484 0)"/>
    <use xlink:href="#DejaVuSans-72" transform="translate(869.873047 0)"/>
    <use xlink:href="#DejaVuSans-75" transform="translate(910.986328 0)"/>
    <use xlink:href="#DejaVuSans-6d" transform="translate(974.365234 0)"/>
    <use xlink:href="#DejaVuSans-20" transform="translate(1071.777344 0)"/>
    <use xlink:href="#DejaVuSans-28" transform="translate(1103.564453 0)"/>
    <use xlink:href="#DejaVuSans-62" transform="translate(1142.578125 0)"/>
    <use xlink:href="#DejaVuSans-65" transform="translate(1206.054688 0)"/>
    <use xlink:href="#DejaVuSans-6c" transform="translate(1267.578125 0)"/>
    <use xlink:href="#DejaVuSans-74" transform="translate(1295.361328 0)"/>
    <use xlink:href="#DejaVuSans-20" transform="translate(1334.570312 0)"/>
    <use xlink:href="#DejaVuSans-6f" transform="translate(1366.357422 0)"/>
    <use xlink:href="#DejaVuSans-66" transform="translate(1427.539062 0)"/>
    <use xlink:href="#DejaVuSans-66" transform="translate(1462.744141 0)"/>
    <use xlink:href="#DejaVuSans-29" transform="translate(1497.949219 0)"/>
    <use xlink:href="#DejaVuSans-2c" transform="translate(1536.962891 0)"/>
    <use xlink:href="#DejaVuSans-20" transform="translate(1568.75 0)"/>
    <use xlink:href="#DejaVuSans-20" transform="translate(1600.537109 0)"/>
    <use xlink:href="#DejaVuSans-4a" transform="translate(1632.324219 0)"/>
    <use xlink:href="#DejaVuSans-20" transform="translate(1661.816406 0)"/>
    <use xlink:href="#DejaVuSans-3d" transform="translate(1693.603516 0)"/>
    <use xlink:href="#DejaVuSans-20" transform="translate(1777.392578 0)"/>
    <use xlink:href="#DejaVuSans-31" transform="translate(1809.179688 0)"/>
    <use xlink:href="#DejaVuSans-33" transform="translate(1872.802734 0)"/>
    <use xlink:href="#DejaVuSans-2e" transform="translate(1936.425781 0)"/>
    <use xlink:href="#DejaVuSans-30" transform="translate(1968.212891 0)"/>
    <use xlink:href="#DejaVuSans-38" transform="translate(2031.835938 0)"/>
    <use xlink:href="#DejaVuSans-20" transform="translate(2095.458984 0)"/>
    <use xlink:href="#DejaVuSans-b1" transform="translate(2127.246094 0)"/>
    <use xlink:href="#DejaVuSans-20" transform="translate(2211.035156 0)"/>
    <use xlink:href="#DejaVuSans-34" transform="translate(2242.822266 0)"/>
    <use xlink:href="#DejaVuSans-2e" transform="translate(2306.445312 0)"/>
    <use xlink:href="#DejaVuSans-32" transform="translate(2338.232422 0)"/>
    <use xlink:href="#DejaVuSans-37" transform="translate(2401.855469 0)"/>
    <use xlink:href="#DejaVuSans-20" transform="translate(2465.478516 0)"/>
    <use xlink:href="#DejaVuSans-b5" transform="translate(2497.265625 0)"/>
    <use xlink:href="#DejaVuSans-6b" transform="translate(2560.888672 0)"/>
    <use xlink:href="#DejaVuSans-67" transform="translate(2618.798828 0)"/>
    <use xlink:href="#DejaVuSans-b7" transform="translate(2682.275391 0)"/>
    <use xlink:href="#DejaVuSans-6d" transform="translate(2714.0625 0)"/>
    <use xlink:href="#DejaVuSans-b2" transform="translate(2811.474609 0)"/>
   </g>
  </g>
 </g>
 <defs>
  <clipPath id="p0a2ca1cafe">
   <rect x="44.615" y="48.84" width="345.985" height="197.2"/>
  </clipPath>
  <clipPath id="p7adde20a27">
   <rect x="435.215" y="48.84" width="345.985" height="197.2"/>
  </clipPath>
 </defs>
</svg>
