<?xml version="1.0" encoding="utf-8" standalone="no"?>
<!DOCTYPE svg PUBLIC "-//W3C//DTD SVG 1.1//EN"
  "http://www.w3.org/Graphics/SVG/1.1/DTD/svg11.dtd">
<svg xmlns:xlink="http://www.w3.org/1999/xlink" width="504pt" height="540pt" viewBox="0 0 504 540" xmlns="http://www.w3.org/2000/svg" version="1.1">
 <metadata>
  <rdf:RDF xmlns:dc="http://purl.org/dc/elements/1.1/" xmlns:cc="http://creativecommons.org/ns#" xmlns:rdf="http://www.w3.org/1999/02/22-rdf-syntax-ns#">
   <cc:Work>
    <dc:type rdf:resource="http://purl.org/dc/dcmitype/StillImage"/>
    <dc:date>2026-06-20T20:06:49.176158</dc:date>
    <dc:format>image/svg+xml</dc:format>
    <dc:creator>
     <cc:Agent>
      <dc:title>Matplotlib v3.10.9, https://matplotlib.org/</dc:title>
     </cc:Agent>
    </dc:creator>
   </cc:Work>
  </rdf:RDF>
 </metadata>
 <defs>
  <style type="text/css">*{stroke-linejoin: round; stroke-linecap: butt}</style>
 </defs>
 <g id="figure_1">
  <g id="patch_1">
   <path d="M 0 540 
L 504 540 
L 504 0 
L 0 0 
z
" style="fill: #ffffff"/>
  </g>
  <g id="axes_1">
   <g id="patch_2">
    <path d="M 59.375 251.498 
L 493.2 251.498 
L 493.2 22.56 
L 59.375 22.56 
z
" style="fill: #ffffff"/>
   </g>
   <g id="matplotlib.axis_1">
    <g id="xtick_1">
     <g id="line2d_1">
      <path d="M 108.77485 251.498 
L 108.77485 22.56 
" clip-path="url(#p0dc2c6fe35)" style="fill: none; stroke: #b0b0b0; stroke-width: 0.8; stroke-linecap: square"/>
     </g>
     <g id="line2d_2">
      <defs>
       <path id="mf32a1d9b54" d="M 0 0 
L 0 3.5 
" style="stroke: #000000; stroke-width: 0.8"/>
      </defs>
      <g>
       <use xlink:href="#mf32a1d9b54" x="108.77485" y="251.498" style="stroke: #000000; stroke-width: 0.8"/>
      </g>
     </g>
    </g>
    <g id="xtick_2">
     <g id="line2d_3">
      <path d="M 207.37144 251.498 
L 207.37144 22.56 
" clip-path="url(#p0dc2c6fe35)" style="fill: none; stroke: #b0b0b0; stroke-width: 0.8; stroke-linecap: square"/>
     </g>
     <g id="line2d_4">
      <g>
       <use xlink:href="#mf32a1d9b54" x="207.37144" y="251.498" style="stroke: #000000; stroke-width: 0.8"/>
      </g>
     </g>
    </g>
    <g id="xtick_3">
     <g id="line2d_5">
      <path d="M 305.968031 251.498 
L 305.968031 22.56 
" clip-path="url(#p0dc2c6fe35)" style="fill: none; stroke: #b0b0b0; stroke-width: 0.8; stroke-linecap: square"/>
     </g>
     <g id="line2d_6">
      <g>
       <use xlink:href="#mf32a1d9b54" x="305.968031" y="251.498" style="stroke: #000000; stroke-width: 0.8"/>
      </g>
     </g>
    </g>
    <g id="xtick_4">
     <g id="line2d_7">
      <path d="M 404.564622 251.498 
L 404.564622 22.56 
" clip-path="url(#p0dc2c6fe35)" style="fill: none; stroke: #b0b0b0; stroke-width: 0.8; stroke-linecap: square"/>
     </g>
     <g id="line2d_8">
      <g>
       <use xlink:href="#mf32a1d9b54" x="404.564622" y="251.498" style="stroke: #000000; stroke-width: 0.8"/>
      </g>
     </g>
    </g>
    <g id="xtick_5">
     <g id="line2d_9">
      <path d="M 69.539321 251.498 
L 69.539321 22.56 
" clip-path="url(#p0dc2c6fe35)" style="fill: none; stroke: #b0b0b0; stroke-width: 0.8; stroke-linecap: square"/>
     </g>
     <g id="line2d_10">
      <defs>
       <path id="md8f4b93e84" d="M 0 0 
L 0 2 
" style="stroke: #000000; stroke-width: 0.6"/>
      </defs>
      <g>
       <use xlink:href="#md8f4b93e84" x="69.539321" y="251.498" style="stroke: #000000; stroke-width: 0.6"/>
      </g>
     </g>
    </g>
    <g id="xtick_6">
     <g id="line2d_11">
      <path d="M 79.094318 251.498 
L 79.094318 22.56 
" clip-path="url(#p0dc2c6fe35)" style="fill: none; stroke: #b0b0b0; stroke-width: 0.8; stroke-linecap: square"/>
     </g>
     <g id="line2d_12">
      <g>
       <use xlink:href="#md8f4b93e84" x="79.094318" y="251.498" style="stroke: #000000; stroke-width: 0.6"/>
      </g>
     </g>
    </g>
    <g id="xtick_7">
     <g id="line2d_13">
      <path d="M 86.901319 251.498 
L 86.901319 22.56 
" clip-path="url(#p0dc2c6fe35)" style="fill: none; stroke: #b0b0b0; stroke-width: 0.8; stroke-linecap: square"/>
     </g>
     <g id="line2d_14">
      <g>
       <use xlink:href="#md8f4b93e84" x="86.901319" y="251.498" style="stroke: #000000; stroke-width: 0.6"/>
      </g>
     </g>
    </g>
    <g id="xtick_8">
     <g id="line2d_15">
      <path d="M 93.502044 251.498 
L 93.502044 22.56 
" clip-path="url(#p0dc2c6fe35)" style="fill: none; stroke: #b0b0b0; stroke-width: 0.8; stroke-linecap: square"/>
     </g>
     <g id="line2d_16">
      <g>
       <use xlink:href="#md8f4b93e84" x="93.502044" y="251.498" style="stroke: #000000; stroke-width: 0.6"/>
      </g>
     </g>
    </g>
    <g id="xtick_9">
     <g id="line2d_17">
      <path d="M 99.219853 251.498 
L 99.219853 22.56 
" clip-path="url(#p0dc2c6fe35)" style="fill: none; stroke: #b0b0b0; stroke-width: 0.8; stroke-linecap: square"/>
     </g>
     <g id="line2d_18">
      <g>
       <use xlink:href="#md8f4b93e84" x="99.219853" y="251.498" style="stroke: #000000; stroke-width: 0.6"/>
      </g>
     </g>
    </g>
    <g id="xtick_10">
     <g id="line2d_19">
      <path d="M 104.263317 251.498 
L 104.263317 22.56 
" clip-path="url(#p0dc2c6fe35)" style="fill: none; stroke: #b0b0b0; stroke-width: 0.8; stroke-linecap: square"/>
     </g>
     <g id="line2d_20">
      <g>
       <use xlink:href="#md8f4b93e84" x="104.263317" y="251.498" style="stroke: #000000; stroke-width: 0.6"/>
      </g>
     </g>
    </g>
    <g id="xtick_11">
     <g id="line2d_21">
      <path d="M 138.455381 251.498 
L 138.455381 22.56 
" clip-path="url(#p0dc2c6fe35)" style="fill: none; stroke: #b0b0b0; stroke-width: 0.8; stroke-linecap: square"/>
     </g>
     <g id="line2d_22">
      <g>
       <use xlink:href="#md8f4b93e84" x="138.455381" y="251.498" style="stroke: #000000; stroke-width: 0.6"/>
      </g>
     </g>
    </g>
    <g id="xtick_12">
     <g id="line2d_23">
      <path d="M 155.817379 251.498 
L 155.817379 22.56 
" clip-path="url(#p0dc2c6fe35)" style="fill: none; stroke: #b0b0b0; stroke-width: 0.8; stroke-linecap: square"/>
     </g>
     <g id="line2d_24">
      <g>
       <use xlink:href="#md8f4b93e84" x="155.817379" y="251.498" style="stroke: #000000; stroke-width: 0.6"/>
      </g>
     </g>
    </g>
    <g id="xtick_13">
     <g id="line2d_25">
      <path d="M 168.135912 251.498 
L 168.135912 22.56 
" clip-path="url(#p0dc2c6fe35)" style="fill: none; stroke: #b0b0b0; stroke-width: 0.8; stroke-linecap: square"/>
     </g>
     <g id="line2d_26">
      <g>
       <use xlink:href="#md8f4b93e84" x="168.135912" y="251.498" style="stroke: #000000; stroke-width: 0.6"/>
      </g>
     </g>
    </g>
    <g id="xtick_14">
     <g id="line2d_27">
      <path d="M 177.690909 251.498 
L 177.690909 22.56 
" clip-path="url(#p0dc2c6fe35)" style="fill: none; stroke: #b0b0b0; stroke-width: 0.8; stroke-linecap: square"/>
     </g>
     <g id="line2d_28">
      <g>
       <use xlink:href="#md8f4b93e84" x="177.690909" y="251.498" style="stroke: #000000; stroke-width: 0.6"/>
      </g>
     </g>
    </g>
    <g id="xtick_15">
     <g id="line2d_29">
      <path d="M 185.49791 251.498 
L 185.49791 22.56 
" clip-path="url(#p0dc2c6fe35)" style="fill: none; stroke: #b0b0b0; stroke-width: 0.8; stroke-linecap: square"/>
     </g>
     <g id="line2d_30">
      <g>
       <use xlink:href="#md8f4b93e84" x="185.49791" y="251.498" style="stroke: #000000; stroke-width: 0.6"/>
      </g>
     </g>
    </g>
    <g id="xtick_16">
     <g id="line2d_31">
      <path d="M 192.098635 251.498 
L 192.098635 22.56 
" clip-path="url(#p0dc2c6fe35)" style="fill: none; stroke: #b0b0b0; stroke-width: 0.8; stroke-linecap: square"/>
     </g>
     <g id="line2d_32">
      <g>
       <use xlink:href="#md8f4b93e84" x="192.098635" y="251.498" style="stroke: #000000; stroke-width: 0.6"/>
      </g>
     </g>
    </g>
    <g id="xtick_17">
     <g id="line2d_33">
      <path d="M 197.816444 251.498 
L 197.816444 22.56 
" clip-path="url(#p0dc2c6fe35)" style="fill: none; stroke: #b0b0b0; stroke-width: 0.8; stroke-linecap: square"/>
     </g>
     <g id="line2d_34">
      <g>
       <use xlink:href="#md8f4b93e84" x="197.816444" y="251.498" style="stroke: #000000; stroke-width: 0.6"/>
      </g>
     </g>
    </g>
    <g id="xtick_18">
     <g id="line2d_35">
      <path d="M 202.859908 251.498 
L 202.859908 22.56 
" clip-path="url(#p0dc2c6fe35)" style="fill: none; stroke: #b0b0b0; stroke-width: 0.8; stroke-linecap: square"/>
     </g>
     <g id="line2d_36">
      <g>
       <use xlink:href="#md8f4b93e84" x="202.859908" y="251.498" style="stroke: #000000; stroke-width: 0.6"/>
      </g>
     </g>
    </g>
    <g id="xtick_19">
     <g id="line2d_37">
      <path d="M 237.051972 251.498 
L 237.051972 22.56 
" clip-path="url(#p0dc2c6fe35)" style="fill: none; stroke: #b0b0b0; stroke-width: 0.8; stroke-linecap: square"/>
     </g>
     <g id="line2d_38">
      <g>
       <use xlink:href="#md8f4b93e84" x="237.051972" y="251.498" style="stroke: #000000; stroke-width: 0.6"/>
      </g>
     </g>
    </g>
    <g id="xtick_20">
     <g id="line2d_39">
      <path d="M 254.41397 251.498 
L 254.41397 22.56 
" clip-path="url(#p0dc2c6fe35)" style="fill: none; stroke: #b0b0b0; stroke-width: 0.8; stroke-linecap: square"/>
     </g>
     <g id="line2d_40">
      <g>
       <use xlink:href="#md8f4b93e84" x="254.41397" y="251.498" style="stroke: #000000; stroke-width: 0.6"/>
      </g>
     </g>
    </g>
    <g id="xtick_21">
     <g id="line2d_41">
      <path d="M 266.732503 251.498 
L 266.732503 22.56 
" clip-path="url(#p0dc2c6fe35)" style="fill: none; stroke: #b0b0b0; stroke-width: 0.8; stroke-linecap: square"/>
     </g>
     <g id="line2d_42">
      <g>
       <use xlink:href="#md8f4b93e84" x="266.732503" y="251.498" style="stroke: #000000; stroke-width: 0.6"/>
      </g>
     </g>
    </g>
    <g id="xtick_22">
     <g id="line2d_43">
      <path d="M 276.2875 251.498 
L 276.2875 22.56 
" clip-path="url(#p0dc2c6fe35)" style="fill: none; stroke: #b0b0b0; stroke-width: 0.8; stroke-linecap: square"/>
     </g>
     <g id="line2d_44">
      <g>
       <use xlink:href="#md8f4b93e84" x="276.2875" y="251.498" style="stroke: #000000; stroke-width: 0.6"/>
      </g>
     </g>
    </g>
    <g id="xtick_23">
     <g id="line2d_45">
      <path d="M 284.094501 251.498 
L 284.094501 22.56 
" clip-path="url(#p0dc2c6fe35)" style="fill: none; stroke: #b0b0b0; stroke-width: 0.8; stroke-linecap: square"/>
     </g>
     <g id="line2d_46">
      <g>
       <use xlink:href="#md8f4b93e84" x="284.094501" y="251.498" style="stroke: #000000; stroke-width: 0.6"/>
      </g>
     </g>
    </g>
    <g id="xtick_24">
     <g id="line2d_47">
      <path d="M 290.695226 251.498 
L 290.695226 22.56 
" clip-path="url(#p0dc2c6fe35)" style="fill: none; stroke: #b0b0b0; stroke-width: 0.8; stroke-linecap: square"/>
     </g>
     <g id="line2d_48">
      <g>
       <use xlink:href="#md8f4b93e84" x="290.695226" y="251.498" style="stroke: #000000; stroke-width: 0.6"/>
      </g>
     </g>
    </g>
    <g id="xtick_25">
     <g id="line2d_49">
      <path d="M 296.413034 251.498 
L 296.413034 22.56 
" clip-path="url(#p0dc2c6fe35)" style="fill: none; stroke: #b0b0b0; stroke-width: 0.8; stroke-linecap: square"/>
     </g>
     <g id="line2d_50">
      <g>
       <use xlink:href="#md8f4b93e84" x="296.413034" y="251.498" style="stroke: #000000; stroke-width: 0.6"/>
      </g>
     </g>
    </g>
    <g id="xtick_26">
     <g id="line2d_51">
      <path d="M 301.456499 251.498 
L 301.456499 22.56 
" clip-path="url(#p0dc2c6fe35)" style="fill: none; stroke: #b0b0b0; stroke-width: 0.8; stroke-linecap: square"/>
     </g>
     <g id="line2d_52">
      <g>
       <use xlink:href="#md8f4b93e84" x="301.456499" y="251.498" style="stroke: #000000; stroke-width: 0.6"/>
      </g>
     </g>
    </g>
    <g id="xtick_27">
     <g id="line2d_53">
      <path d="M 335.648563 251.498 
L 335.648563 22.56 
" clip-path="url(#p0dc2c6fe35)" style="fill: none; stroke: #b0b0b0; stroke-width: 0.8; stroke-linecap: square"/>
     </g>
     <g id="line2d_54">
      <g>
       <use xlink:href="#md8f4b93e84" x="335.648563" y="251.498" style="stroke: #000000; stroke-width: 0.6"/>
      </g>
     </g>
    </g>
    <g id="xtick_28">
     <g id="line2d_55">
      <path d="M 353.01056 251.498 
L 353.01056 22.56 
" clip-path="url(#p0dc2c6fe35)" style="fill: none; stroke: #b0b0b0; stroke-width: 0.8; stroke-linecap: square"/>
     </g>
     <g id="line2d_56">
      <g>
       <use xlink:href="#md8f4b93e84" x="353.01056" y="251.498" style="stroke: #000000; stroke-width: 0.6"/>
      </g>
     </g>
    </g>
    <g id="xtick_29">
     <g id="line2d_57">
      <path d="M 365.329094 251.498 
L 365.329094 22.56 
" clip-path="url(#p0dc2c6fe35)" style="fill: none; stroke: #b0b0b0; stroke-width: 0.8; stroke-linecap: square"/>
     </g>
     <g id="line2d_58">
      <g>
       <use xlink:href="#md8f4b93e84" x="365.329094" y="251.498" style="stroke: #000000; stroke-width: 0.6"/>
      </g>
     </g>
    </g>
    <g id="xtick_30">
     <g id="line2d_59">
      <path d="M 374.884091 251.498 
L 374.884091 22.56 
" clip-path="url(#p0dc2c6fe35)" style="fill: none; stroke: #b0b0b0; stroke-width: 0.8; stroke-linecap: square"/>
     </g>
     <g id="line2d_60">
      <g>
       <use xlink:href="#md8f4b93e84" x="374.884091" y="251.498" style="stroke: #000000; stroke-width: 0.6"/>
      </g>
     </g>
    </g>
    <g id="xtick_31">
     <g id="line2d_61">
      <path d="M 382.691092 251.498 
L 382.691092 22.56 
" clip-path="url(#p0dc2c6fe35)" style="fill: none; stroke: #b0b0b0; stroke-width: 0.8; stroke-linecap: square"/>
     </g>
     <g id="line2d_62">
      <g>
       <use xlink:href="#md8f4b93e84" x="382.691092" y="251.498" style="stroke: #000000; stroke-width: 0.6"/>
      </g>
     </g>
    </g>
    <g id="xtick_32">
     <g id="line2d_63">
      <path d="M 389.291817 251.498 
L 389.291817 22.56 
" clip-path="url(#p0dc2c6fe35)" style="fill: none; stroke: #b0b0b0; stroke-width: 0.8; stroke-linecap: square"/>
     </g>
     <g id="line2d_64">
      <g>
       <use xlink:href="#md8f4b93e84" x="389.291817" y="251.498" style="stroke: #000000; stroke-width: 0.6"/>
      </g>
     </g>
    </g>
    <g id="xtick_33">
     <g id="line2d_65">
      <path d="M 395.009625 251.498 
L 395.009625 22.56 
" clip-path="url(#p0dc2c6fe35)" style="fill: none; stroke: #b0b0b0; stroke-width: 0.8; stroke-linecap: square"/>
     </g>
     <g id="line2d_66">
      <g>
       <use xlink:href="#md8f4b93e84" x="395.009625" y="251.498" style="stroke: #000000; stroke-width: 0.6"/>
      </g>
     </g>
    </g>
    <g id="xtick_34">
     <g id="line2d_67">
      <path d="M 400.05309 251.498 
L 400.05309 22.56 
" clip-path="url(#p0dc2c6fe35)" style="fill: none; stroke: #b0b0b0; stroke-width: 0.8; stroke-linecap: square"/>
     </g>
     <g id="line2d_68">
      <g>
       <use xlink:href="#md8f4b93e84" x="400.05309" y="251.498" style="stroke: #000000; stroke-width: 0.6"/>
      </g>
     </g>
    </g>
    <g id="xtick_35">
     <g id="line2d_69">
      <path d="M 434.245154 251.498 
L 434.245154 22.56 
" clip-path="url(#p0dc2c6fe35)" style="fill: none; stroke: #b0b0b0; stroke-width: 0.8; stroke-linecap: square"/>
     </g>
     <g id="line2d_70">
      <g>
       <use xlink:href="#md8f4b93e84" x="434.245154" y="251.498" style="stroke: #000000; stroke-width: 0.6"/>
      </g>
     </g>
    </g>
    <g id="xtick_36">
     <g id="line2d_71">
      <path d="M 451.607151 251.498 
L 451.607151 22.56 
" clip-path="url(#p0dc2c6fe35)" style="fill: none; stroke: #b0b0b0; stroke-width: 0.8; stroke-linecap: square"/>
     </g>
     <g id="line2d_72">
      <g>
       <use xlink:href="#md8f4b93e84" x="451.607151" y="251.498" style="stroke: #000000; stroke-width: 0.6"/>
      </g>
     </g>
    </g>
    <g id="xtick_37">
     <g id="line2d_73">
      <path d="M 463.925685 251.498 
L 463.925685 22.56 
" clip-path="url(#p0dc2c6fe35)" style="fill: none; stroke: #b0b0b0; stroke-width: 0.8; stroke-linecap: square"/>
     </g>
     <g id="line2d_74">
      <g>
       <use xlink:href="#md8f4b93e84" x="463.925685" y="251.498" style="stroke: #000000; stroke-width: 0.6"/>
      </g>
     </g>
    </g>
    <g id="xtick_38">
     <g id="line2d_75">
      <path d="M 473.480682 251.498 
L 473.480682 22.56 
" clip-path="url(#p0dc2c6fe35)" style="fill: none; stroke: #b0b0b0; stroke-width: 0.8; stroke-linecap: square"/>
     </g>
     <g id="line2d_76">
      <g>
       <use xlink:href="#md8f4b93e84" x="473.480682" y="251.498" style="stroke: #000000; stroke-width: 0.6"/>
      </g>
     </g>
    </g>
    <g id="xtick_39">
     <g id="line2d_77">
      <path d="M 481.287683 251.498 
L 481.287683 22.56 
" clip-path="url(#p0dc2c6fe35)" style="fill: none; stroke: #b0b0b0; stroke-width: 0.8; stroke-linecap: square"/>
     </g>
     <g id="line2d_78">
      <g>
       <use xlink:href="#md8f4b93e84" x="481.287683" y="251.498" style="stroke: #000000; stroke-width: 0.6"/>
      </g>
     </g>
    </g>
    <g id="xtick_40">
     <g id="line2d_79">
      <path d="M 487.888408 251.498 
L 487.888408 22.56 
" clip-path="url(#p0dc2c6fe35)" style="fill: none; stroke: #b0b0b0; stroke-width: 0.8; stroke-linecap: square"/>
     </g>
     <g id="line2d_80">
      <g>
       <use xlink:href="#md8f4b93e84" x="487.888408" y="251.498" style="stroke: #000000; stroke-width: 0.6"/>
      </g>
     </g>
    </g>
   </g>
   <g id="matplotlib.axis_2">
    <g id="ytick_1">
     <g id="line2d_81">
      <path d="M 59.375 251.498 
L 493.2 251.498 
" clip-path="url(#p0dc2c6fe35)" style="fill: none; stroke: #b0b0b0; stroke-width: 0.8; stroke-linecap: square"/>
     </g>
     <g id="line2d_82">
      <defs>
       <path id="m8ce19526e3" d="M 0 0 
L -3.5 0 
" style="stroke: #000000; stroke-width: 0.8"/>
      </defs>
      <g>
       <use xlink:href="#m8ce19526e3" x="59.375" y="251.498" style="stroke: #000000; stroke-width: 0.8"/>
      </g>
     </g>
     <g id="text_1">
      <!-- −60 -->
      <g transform="translate(31.270313 255.297219) scale(0.1 -0.1)">
       <defs>
        <path id="DejaVuSans-2212" d="M 678 2272 
L 4684 2272 
L 4684 1741 
L 678 1741 
L 678 2272 
z
" transform="scale(0.015625)"/>
        <path id="DejaVuSans-36" d="M 2113 2584 
Q 1688 2584 1439 2293 
Q 1191 2003 1191 1497 
Q 1191 994 1439 701 
Q 1688 409 2113 409 
Q 2538 409 2786 701 
Q 3034 994 3034 1497 
Q 3034 2003 2786 2293 
Q 2538 2584 2113 2584 
z
M 3366 4563 
L 3366 3988 
Q 3128 4100 2886 4159 
Q 2644 4219 2406 4219 
Q 1781 4219 1451 3797 
Q 1122 3375 1075 2522 
Q 1259 2794 1537 2939 
Q 1816 3084 2150 3084 
Q 2853 3084 3261 2657 
Q 3669 2231 3669 1497 
Q 3669 778 3244 343 
Q 2819 -91 2113 -91 
Q 1303 -91 875 529 
Q 447 1150 447 2328 
Q 447 3434 972 4092 
Q 1497 4750 2381 4750 
Q 2619 4750 2861 4703 
Q 3103 4656 3366 4563 
z
" transform="scale(0.015625)"/>
        <path id="DejaVuSans-30" d="M 2034 4250 
Q 1547 4250 1301 3770 
Q 1056 3291 1056 2328 
Q 1056 1369 1301 889 
Q 1547 409 2034 409 
Q 2525 409 2770 889 
Q 3016 1369 3016 2328 
Q 3016 3291 2770 3770 
Q 2525 4250 2034 4250 
z
M 2034 4750 
Q 2819 4750 3233 4129 
Q 3647 3509 3647 2328 
Q 3647 1150 3233 529 
Q 2819 -91 2034 -91 
Q 1250 -91 836 529 
Q 422 1150 422 2328 
Q 422 3509 836 4129 
Q 1250 4750 2034 4750 
z
" transform="scale(0.015625)"/>
       </defs>
       <use xlink:href="#DejaVuSans-2212"/>
       <use xlink:href="#DejaVuSans-36" transform="translate(83.789062 0)"/>
       <use xlink:href="#DejaVuSans-30" transform="translate(147.412109 0)"/>
      </g>
     </g>
    </g>
    <g id="ytick_2">
     <g id="line2d_83">
      <path d="M 59.375 226.060444 
L 493.2 226.060444 
" clip-path="url(#p0dc2c6fe35)" style="fill: none; stroke: #b0b0b0; stroke-width: 0.8; stroke-linecap: square"/>
     </g>
     <g id="line2d_84">
      <g>
       <use xlink:href="#m8ce19526e3" x="59.375" y="226.060444" style="stroke: #000000; stroke-width: 0.8"/>
      </g>
     </g>
     <g id="text_2">
      <!-- −50 -->
      <g transform="translate(31.270313 229.859663) scale(0.1 -0.1)">
       <defs>
        <path id="DejaVuSans-35" d="M 691 4666 
L 3169 4666 
L 3169 4134 
L 1269 4134 
L 1269 2991 
Q 1406 3038 1543 3061 
Q 1681 3084 1819 3084 
Q 2600 3084 3056 2656 
Q 3513 2228 3513 1497 
Q 3513 744 3044 326 
Q 2575 -91 1722 -91 
Q 1428 -91 1123 -41 
Q 819 9 494 109 
L 494 744 
Q 775 591 1075 516 
Q 1375 441 1709 441 
Q 2250 441 2565 725 
Q 2881 1009 2881 1497 
Q 2881 1984 2565 2268 
Q 2250 2553 1709 2553 
Q 1456 2553 1204 2497 
Q 953 2441 691 2322 
L 691 4666 
z
" transform="scale(0.015625)"/>
       </defs>
       <use xlink:href="#DejaVuSans-2212"/>
       <use xlink:href="#DejaVuSans-35" transform="translate(83.789062 0)"/>
       <use xlink:href="#DejaVuSans-30" transform="translate(147.412109 0)"/>
      </g>
     </g>
    </g>
    <g id="ytick_3">
     <g id="line2d_85">
      <path d="M 59.375 200.622889 
L 493.2 200.622889 
" clip-path="url(#p0dc2c6fe35)" style="fill: none; stroke: #b0b0b0; stroke-width: 0.8; stroke-linecap: square"/>
     </g>
     <g id="line2d_86">
      <g>
       <use xlink:href="#m8ce19526e3" x="59.375" y="200.622889" style="stroke: #000000; stroke-width: 0.8"/>
      </g>
     </g>
     <g id="text_3">
      <!-- −40 -->
      <g transform="translate(31.270313 204.422108) scale(0.1 -0.1)">
       <defs>
        <path id="DejaVuSans-34" d="M 2419 4116 
L 825 1625 
L 2419 1625 
L 2419 4116 
z
M 2253 4666 
L 3047 4666 
L 3047 1625 
L 3713 1625 
L 3713 1100 
L 3047 1100 
L 3047 0 
L 2419 0 
L 2419 1100 
L 313 1100 
L 313 1709 
L 2253 4666 
z
" transform="scale(0.015625)"/>
       </defs>
       <use xlink:href="#DejaVuSans-2212"/>
       <use xlink:href="#DejaVuSans-34" transform="translate(83.789062 0)"/>
       <use xlink:href="#DejaVuSans-30" transform="translate(147.412109 0)"/>
      </g>
     </g>
    </g>
    <g id="ytick_4">
     <g id="line2d_87">
      <path d="M 59.375 175.185333 
L 493.2 175.185333 
" clip-path="url(#p0dc2c6fe35)" style="fill: none; stroke: #b0b0b0; stroke-width: 0.8; stroke-linecap: square"/>
     </g>
     <g id="line2d_88">
      <g>
       <use xlink:href="#m8ce19526e3" x="59.375" y="175.185333" style="stroke: #000000; stroke-width: 0.8"/>
      </g>
     </g>
     <g id="text_4">
      <!-- −30 -->
      <g transform="translate(31.270313 178.984552) scale(0.1 -0.1)">
       <defs>
        <path id="DejaVuSans-33" d="M 2597 2516 
Q 3050 2419 3304 2112 
Q 3559 1806 3559 1356 
Q 3559 666 3084 287 
Q 2609 -91 1734 -91 
Q 1441 -91 1130 -33 
Q 819 25 488 141 
L 488 750 
Q 750 597 1062 519 
Q 1375 441 1716 441 
Q 2309 441 2620 675 
Q 2931 909 2931 1356 
Q 2931 1769 2642 2001 
Q 2353 2234 1838 2234 
L 1294 2234 
L 1294 2753 
L 1863 2753 
Q 2328 2753 2575 2939 
Q 2822 3125 2822 3475 
Q 2822 3834 2567 4026 
Q 2313 4219 1838 4219 
Q 1578 4219 1281 4162 
Q 984 4106 628 3988 
L 628 4550 
Q 988 4650 1302 4700 
Q 1616 4750 1894 4750 
Q 2613 4750 3031 4423 
Q 3450 4097 3450 3541 
Q 3450 3153 3228 2886 
Q 3006 2619 2597 2516 
z
" transform="scale(0.015625)"/>
       </defs>
       <use xlink:href="#DejaVuSans-2212"/>
       <use xlink:href="#DejaVuSans-33" transform="translate(83.789062 0)"/>
       <use xlink:href="#DejaVuSans-30" transform="translate(147.412109 0)"/>
      </g>
     </g>
    </g>
    <g id="ytick_5">
     <g id="line2d_89">
      <path d="M 59.375 149.747778 
L 493.2 149.747778 
" clip-path="url(#p0dc2c6fe35)" style="fill: none; stroke: #b0b0b0; stroke-width: 0.8; stroke-linecap: square"/>
     </g>
     <g id="line2d_90">
      <g>
       <use xlink:href="#m8ce19526e3" x="59.375" y="149.747778" style="stroke: #000000; stroke-width: 0.8"/>
      </g>
     </g>
     <g id="text_5">
      <!-- −20 -->
      <g transform="translate(31.270313 153.546997) scale(0.1 -0.1)">
       <defs>
        <path id="DejaVuSans-32" d="M 1228 531 
L 3431 531 
L 3431 0 
L 469 0 
L 469 531 
Q 828 903 1448 1529 
Q 2069 2156 2228 2338 
Q 2531 2678 2651 2914 
Q 2772 3150 2772 3378 
Q 2772 3750 2511 3984 
Q 2250 4219 1831 4219 
Q 1534 4219 1204 4116 
Q 875 4013 500 3803 
L 500 4441 
Q 881 4594 1212 4672 
Q 1544 4750 1819 4750 
Q 2544 4750 2975 4387 
Q 3406 4025 3406 3419 
Q 3406 3131 3298 2873 
Q 3191 2616 2906 2266 
Q 2828 2175 2409 1742 
Q 1991 1309 1228 531 
z
" transform="scale(0.015625)"/>
       </defs>
       <use xlink:href="#DejaVuSans-2212"/>
       <use xlink:href="#DejaVuSans-32" transform="translate(83.789062 0)"/>
       <use xlink:href="#DejaVuSans-30" transform="translate(147.412109 0)"/>
      </g>
     </g>
    </g>
    <g id="ytick_6">
     <g id="line2d_91">
      <path d="M 59.375 124.310222 
L 493.2 124.310222 
" clip-path="url(#p0dc2c6fe35)" style="fill: none; stroke: #b0b0b0; stroke-width: 0.8; stroke-linecap: square"/>
     </g>
     <g id="line2d_92">
      <g>
       <use xlink:href="#m8ce19526e3" x="59.375" y="124.310222" style="stroke: #000000; stroke-width: 0.8"/>
      </g>
     </g>
     <g id="text_6">
      <!-- −10 -->
      <g transform="translate(31.270313 128.109441) scale(0.1 -0.1)">
       <defs>
        <path id="DejaVuSans-31" d="M 794 531 
L 1825 531 
L 1825 4091 
L 703 3866 
L 703 4441 
L 1819 4666 
L 2450 4666 
L 2450 531 
L 3481 531 
L 3481 0 
L 794 0 
L 794 531 
z
" transform="scale(0.015625)"/>
       </defs>
       <use xlink:href="#DejaVuSans-2212"/>
       <use xlink:href="#DejaVuSans-31" transform="translate(83.789062 0)"/>
       <use xlink:href="#DejaVuSans-30" transform="translate(147.412109 0)"/>
      </g>
     </g>
    </g>
    <g id="ytick_7">
     <g id="line2d_93">
      <path d="M 59.375 98.872667 
L 493.2 98.872667 
" clip-path="url(#p0dc2c6fe35)" style="fill: none; stroke: #b0b0b0; stroke-width: 0.8; stroke-linecap: square"/>
     </g>
     <g id="line2d_94">
      <g>
       <use xlink:href="#m8ce19526e3" x="59.375" y="98.872667" style="stroke: #000000; stroke-width: 0.8"/>
      </g>
     </g>
     <g id="text_7">
      <!-- 0 -->
      <g transform="translate(46.0125 102.671885) scale(0.1 -0.1)">
       <use xlink:href="#DejaVuSans-30"/>
      </g>
     </g>
    </g>
    <g id="ytick_8">
     <g id="line2d_95">
      <path d="M 59.375 73.435111 
L 493.2 73.435111 
" clip-path="url(#p0dc2c6fe35)" style="fill: none; stroke: #b0b0b0; stroke-width: 0.8; stroke-linecap: square"/>
     </g>
     <g id="line2d_96">
      <g>
       <use xlink:href="#m8ce19526e3" x="59.375" y="73.435111" style="stroke: #000000; stroke-width: 0.8"/>
      </g>
     </g>
     <g id="text_8">
      <!-- 10 -->
      <g transform="translate(39.65 77.23433) scale(0.1 -0.1)">
       <use xlink:href="#DejaVuSans-31"/>
       <use xlink:href="#DejaVuSans-30" transform="translate(63.623047 0)"/>
      </g>
     </g>
    </g>
    <g id="ytick_9">
     <g id="line2d_97">
      <path d="M 59.375 47.997556 
L 493.2 47.997556 
" clip-path="url(#p0dc2c6fe35)" style="fill: none; stroke: #b0b0b0; stroke-width: 0.8; stroke-linecap: square"/>
     </g>
     <g id="line2d_98">
      <g>
       <use xlink:href="#m8ce19526e3" x="59.375" y="47.997556" style="stroke: #000000; stroke-width: 0.8"/>
      </g>
     </g>
     <g id="text_9">
      <!-- 20 -->
      <g transform="translate(39.65 51.796774) scale(0.1 -0.1)">
       <use xlink:href="#DejaVuSans-32"/>
       <use xlink:href="#DejaVuSans-30" transform="translate(63.623047 0)"/>
      </g>
     </g>
    </g>
    <g id="ytick_10">
     <g id="line2d_99">
      <path d="M 59.375 22.56 
L 493.2 22.56 
" clip-path="url(#p0dc2c6fe35)" style="fill: none; stroke: #b0b0b0; stroke-width: 0.8; stroke-linecap: square"/>
     </g>
     <g id="line2d_100">
      <g>
       <use xlink:href="#m8ce19526e3" x="59.375" y="22.56" style="stroke: #000000; stroke-width: 0.8"/>
      </g>
     </g>
     <g id="text_10">
      <!-- 30 -->
      <g transform="translate(39.65 26.359219) scale(0.1 -0.1)">
       <use xlink:href="#DejaVuSans-33"/>
       <use xlink:href="#DejaVuSans-30" transform="translate(63.623047 0)"/>
      </g>
     </g>
    </g>
    <g id="text_11">
     <!-- magnitude [dB] -->
     <g transform="translate(25.190625 176.170406) rotate(-90) scale(0.1 -0.1)">
      <defs>
       <path id="DejaVuSans-6d" d="M 3328 2828 
Q 3544 3216 3844 3400 
Q 4144 3584 4550 3584 
Q 5097 3584 5394 3201 
Q 5691 2819 5691 2113 
L 5691 0 
L 5113 0 
L 5113 2094 
Q 5113 2597 4934 2840 
Q 4756 3084 4391 3084 
Q 3944 3084 3684 2787 
Q 3425 2491 3425 1978 
L 3425 0 
L 2847 0 
L 2847 2094 
Q 2847 2600 2669 2842 
Q 2491 3084 2119 3084 
Q 1678 3084 1418 2786 
Q 1159 2488 1159 1978 
L 1159 0 
L 581 0 
L 581 3500 
L 1159 3500 
L 1159 2956 
Q 1356 3278 1631 3431 
Q 1906 3584 2284 3584 
Q 2666 3584 2933 3390 
Q 3200 3197 3328 2828 
z
" transform="scale(0.015625)"/>
       <path id="DejaVuSans-61" d="M 2194 1759 
Q 1497 1759 1228 1600 
Q 959 1441 959 1056 
Q 959 750 1161 570 
Q 1363 391 1709 391 
Q 2188 391 2477 730 
Q 2766 1069 2766 1631 
L 2766 1759 
L 2194 1759 
z
M 3341 1997 
L 3341 0 
L 2766 0 
L 2766 531 
Q 2569 213 2275 61 
Q 1981 -91 1556 -91 
Q 1019 -91 701 211 
Q 384 513 384 1019 
Q 384 1609 779 1909 
Q 1175 2209 1959 2209 
L 2766 2209 
L 2766 2266 
Q 2766 2663 2505 2880 
Q 2244 3097 1772 3097 
Q 1472 3097 1187 3025 
Q 903 2953 641 2809 
L 641 3341 
Q 956 3463 1253 3523 
Q 1550 3584 1831 3584 
Q 2591 3584 2966 3190 
Q 3341 2797 3341 1997 
z
" transform="scale(0.015625)"/>
       <path id="DejaVuSans-67" d="M 2906 1791 
Q 2906 2416 2648 2759 
Q 2391 3103 1925 3103 
Q 1463 3103 1205 2759 
Q 947 2416 947 1791 
Q 947 1169 1205 825 
Q 1463 481 1925 481 
Q 2391 481 2648 825 
Q 2906 1169 2906 1791 
z
M 3481 434 
Q 3481 -459 3084 -895 
Q 2688 -1331 1869 -1331 
Q 1566 -1331 1297 -1286 
Q 1028 -1241 775 -1147 
L 775 -588 
Q 1028 -725 1275 -790 
Q 1522 -856 1778 -856 
Q 2344 -856 2625 -561 
Q 2906 -266 2906 331 
L 2906 616 
Q 2728 306 2450 153 
Q 2172 0 1784 0 
Q 1141 0 747 490 
Q 353 981 353 1791 
Q 353 2603 747 3093 
Q 1141 3584 1784 3584 
Q 2172 3584 2450 3431 
Q 2728 3278 2906 2969 
L 2906 3500 
L 3481 3500 
L 3481 434 
z
" transform="scale(0.015625)"/>
       <path id="DejaVuSans-6e" d="M 3513 2113 
L 3513 0 
L 2938 0 
L 2938 2094 
Q 2938 2591 2744 2837 
Q 2550 3084 2163 3084 
Q 1697 3084 1428 2787 
Q 1159 2491 1159 1978 
L 1159 0 
L 581 0 
L 581 3500 
L 1159 3500 
L 1159 2956 
Q 1366 3272 1645 3428 
Q 1925 3584 2291 3584 
Q 2894 3584 3203 3211 
Q 3513 2838 3513 2113 
z
" transform="scale(0.015625)"/>
       <path id="DejaVuSans-69" d="M 603 3500 
L 1178 3500 
L 1178 0 
L 603 0 
L 603 3500 
z
M 603 4863 
L 1178 4863 
L 1178 4134 
L 603 4134 
L 603 4863 
z
" transform="scale(0.015625)"/>
       <path id="DejaVuSans-74" d="M 1172 4494 
L 1172 3500 
L 2356 3500 
L 2356 3053 
L 1172 3053 
L 1172 1153 
Q 1172 725 1289 603 
Q 1406 481 1766 481 
L 2356 481 
L 2356 0 
L 1766 0 
Q 1100 0 847 248 
Q 594 497 594 1153 
L 594 3053 
L 172 3053 
L 172 3500 
L 594 3500 
L 594 4494 
L 1172 4494 
z
" transform="scale(0.015625)"/>
       <path id="DejaVuSans-75" d="M 544 1381 
L 544 3500 
L 1119 3500 
L 1119 1403 
Q 1119 906 1312 657 
Q 1506 409 1894 409 
Q 2359 409 2629 706 
Q 2900 1003 2900 1516 
L 2900 3500 
L 3475 3500 
L 3475 0 
L 2900 0 
L 2900 538 
Q 2691 219 2414 64 
Q 2138 -91 1772 -91 
Q 1169 -91 856 284 
Q 544 659 544 1381 
z
M 1991 3584 
L 1991 3584 
z
" transform="scale(0.015625)"/>
       <path id="DejaVuSans-64" d="M 2906 2969 
L 2906 4863 
L 3481 4863 
L 3481 0 
L 2906 0 
L 2906 525 
Q 2725 213 2448 61 
Q 2172 -91 1784 -91 
Q 1150 -91 751 415 
Q 353 922 353 1747 
Q 353 2572 751 3078 
Q 1150 3584 1784 3584 
Q 2172 3584 2448 3432 
Q 2725 3281 2906 2969 
z
M 947 1747 
Q 947 1113 1208 752 
Q 1469 391 1925 391 
Q 2381 391 2643 752 
Q 2906 1113 2906 1747 
Q 2906 2381 2643 2742 
Q 2381 3103 1925 3103 
Q 1469 3103 1208 2742 
Q 947 2381 947 1747 
z
" transform="scale(0.015625)"/>
       <path id="DejaVuSans-65" d="M 3597 1894 
L 3597 1613 
L 953 1613 
Q 991 1019 1311 708 
Q 1631 397 2203 397 
Q 2534 397 2845 478 
Q 3156 559 3463 722 
L 3463 178 
Q 3153 47 2828 -22 
Q 2503 -91 2169 -91 
Q 1331 -91 842 396 
Q 353 884 353 1716 
Q 353 2575 817 3079 
Q 1281 3584 2069 3584 
Q 2775 3584 3186 3129 
Q 3597 2675 3597 1894 
z
M 3022 2063 
Q 3016 2534 2758 2815 
Q 2500 3097 2075 3097 
Q 1594 3097 1305 2825 
Q 1016 2553 972 2059 
L 3022 2063 
z
" transform="scale(0.015625)"/>
       <path id="DejaVuSans-20" transform="scale(0.015625)"/>
       <path id="DejaVuSans-5b" d="M 550 4863 
L 1875 4863 
L 1875 4416 
L 1125 4416 
L 1125 -397 
L 1875 -397 
L 1875 -844 
L 550 -844 
L 550 4863 
z
" transform="scale(0.015625)"/>
       <path id="DejaVuSans-42" d="M 1259 2228 
L 1259 519 
L 2272 519 
Q 2781 519 3026 730 
Q 3272 941 3272 1375 
Q 3272 1813 3026 2020 
Q 2781 2228 2272 2228 
L 1259 2228 
z
M 1259 4147 
L 1259 2741 
L 2194 2741 
Q 2656 2741 2882 2914 
Q 3109 3088 3109 3444 
Q 3109 3797 2882 3972 
Q 2656 4147 2194 4147 
L 1259 4147 
z
M 628 4666 
L 2241 4666 
Q 2963 4666 3353 4366 
Q 3744 4066 3744 3513 
Q 3744 3084 3544 2831 
Q 3344 2578 2956 2516 
Q 3422 2416 3680 2098 
Q 3938 1781 3938 1306 
Q 3938 681 3513 340 
Q 3088 0 2303 0 
L 628 0 
L 628 4666 
z
" transform="scale(0.015625)"/>
       <path id="DejaVuSans-5d" d="M 1947 4863 
L 1947 -844 
L 622 -844 
L 622 -397 
L 1369 -397 
L 1369 4416 
L 622 4416 
L 622 4863 
L 1947 4863 
z
" transform="scale(0.015625)"/>
      </defs>
      <use xlink:href="#DejaVuSans-6d"/>
      <use xlink:href="#DejaVuSans-61" transform="translate(97.412109 0)"/>
      <use xlink:href="#DejaVuSans-67" transform="translate(158.691406 0)"/>
      <use xlink:href="#DejaVuSans-6e" transform="translate(222.167969 0)"/>
      <use xlink:href="#DejaVuSans-69" transform="translate(285.546875 0)"/>
      <use xlink:href="#DejaVuSans-74" transform="translate(313.330078 0)"/>
      <use xlink:href="#DejaVuSans-75" transform="translate(352.539062 0)"/>
      <use xlink:href="#DejaVuSans-64" transform="translate(415.917969 0)"/>
      <use xlink:href="#DejaVuSans-65" transform="translate(479.394531 0)"/>
      <use xlink:href="#DejaVuSans-20" transform="translate(540.917969 0)"/>
      <use xlink:href="#DejaVuSans-5b" transform="translate(572.705078 0)"/>
      <use xlink:href="#DejaVuSans-64" transform="translate(611.71875 0)"/>
      <use xlink:href="#DejaVuSans-42" transform="translate(675.195312 0)"/>
      <use xlink:href="#DejaVuSans-5d" transform="translate(743.798828 0)"/>
     </g>
    </g>
   </g>
   <g id="line2d_101">
    <path d="M 79.094318 11.658308 
L 86.19564 21.476245 
L 92.244914 29.474149 
L 97.636658 36.245789 
L 102.633884 42.168804 
L 107.368099 47.432517 
L 111.839301 52.076897 
L 116.310504 56.402351 
L 120.781706 60.42119 
L 125.384415 64.262966 
L 130.250135 68.03622 
L 135.510374 71.833401 
L 141.428142 75.822707 
L 148.134945 80.067853 
L 156.156809 84.871071 
L 166.282767 90.659156 
L 180.879929 98.721536 
L 210.468769 115.018891 
L 220.857739 121.027824 
L 229.011109 125.99582 
L 235.717912 130.335248 
L 241.63568 134.426144 
L 247.027425 138.426529 
L 252.156157 142.509986 
L 258.336937 147.739336 
L 263.597175 152.115139 
L 266.095788 153.917439 
L 268.068378 155.071974 
L 269.646449 155.756725 
L 271.093015 156.157253 
L 272.408074 156.311458 
L 273.723134 156.256721 
L 275.169699 155.958171 
L 276.616265 155.427017 
L 278.194336 154.616451 
L 280.166926 153.33297 
L 282.665539 151.410005 
L 286.479212 148.154157 
L 295.816135 140.114731 
L 301.339385 135.699591 
L 307.388659 131.153532 
L 315.016004 125.716836 
L 336.319969 110.700244 
L 341.711713 106.530721 
L 346.182916 102.798935 
L 349.996589 99.337596 
L 353.415744 95.941858 
L 356.571886 92.488926 
L 359.465018 88.986051 
L 362.226643 85.279771 
L 364.988268 81.185185 
L 371.695071 70.948383 
L 372.747119 69.891831 
L 373.667661 69.293652 
L 374.456697 69.067076 
L 375.114226 69.093453 
L 375.771756 69.314287 
L 376.560792 69.819432 
L 377.481334 70.695488 
L 378.664887 72.168121 
L 380.374465 74.707077 
L 386.949762 84.830228 
L 389.711388 88.514711 
L 392.473013 91.836733 
L 395.49765 95.12444 
L 398.785299 98.360889 
L 402.335959 101.543968 
L 406.281138 104.784446 
L 410.752341 108.167886 
L 415.881073 111.764548 
L 421.798841 115.637533 
L 428.768657 119.928245 
L 437.316544 124.918114 
L 447.968526 130.867691 
L 462.17117 138.531695 
L 473.480682 144.512183 
L 473.480682 144.512183 
" clip-path="url(#p0dc2c6fe35)" style="fill: none; stroke: #1f77b4; stroke-width: 1.4; stroke-linecap: square"/>
   </g>
   <g id="line2d_102">
    <path d="M 79.094318 185.768975 
L 87.510699 173.881914 
L 94.612021 164.221122 
L 100.924307 156.00105 
L 106.579063 148.997812 
L 111.707795 142.993176 
L 116.44201 137.783707 
L 120.913212 133.187985 
L 125.121403 129.172289 
L 129.198088 125.583332 
L 133.143266 122.400979 
L 137.088445 119.50775 
L 140.902118 116.983666 
L 144.71579 114.72094 
L 148.660969 112.643707 
L 152.606148 110.818816 
L 156.682833 109.178316 
L 160.891023 107.722521 
L 165.362226 106.411545 
L 170.09644 105.254726 
L 175.225172 104.230522 
L 180.879929 103.330603 
L 187.192214 102.554641 
L 194.425042 101.894961 
L 202.972929 101.34797 
L 213.3619 100.917234 
L 226.512495 100.605218 
L 244.134294 100.421113 
L 266.490306 100.413523 
L 285.953188 100.613322 
L 299.761313 100.965176 
L 310.018778 101.441193 
L 318.040641 102.02927 
L 324.615939 102.72933 
L 330.139189 103.537079 
L 334.873404 104.450063 
L 338.950088 105.453612 
L 342.632255 106.584073 
L 345.919904 107.821055 
L 348.944541 109.195408 
L 351.706166 110.692822 
L 354.336285 112.379717 
L 356.703392 114.157434 
L 358.938994 116.101179 
L 361.174595 118.340049 
L 363.410196 120.905804 
L 365.777303 123.985091 
L 371.958083 132.349524 
L 373.010131 133.231648 
L 373.799167 133.634193 
L 374.588203 133.779888 
L 375.245732 133.695342 
L 376.034768 133.352157 
L 376.823804 132.768572 
L 377.875851 131.683264 
L 379.190911 129.982494 
L 381.82103 126.11256 
L 384.845667 121.794432 
L 387.212774 118.809706 
L 389.448376 116.343576 
L 391.683977 114.196058 
L 394.051084 112.229241 
L 396.549697 110.448409 
L 399.179816 108.851413 
L 401.941441 107.431209 
L 404.966078 106.125624 
L 408.253727 104.948999 
L 411.935894 103.87266 
L 416.012579 102.91655 
L 420.615287 102.067658 
L 426.007032 101.308126 
L 432.319317 100.654136 
L 439.815157 100.108377 
L 449.15208 99.660957 
L 461.250628 99.315871 
L 473.480682 99.121451 
L 473.480682 99.121451 
" clip-path="url(#p0dc2c6fe35)" style="fill: none; stroke: #ff7f0e; stroke-width: 1.4; stroke-linecap: square"/>
   </g>
   <g id="line2d_103">
    <path d="M 79.094318 98.554617 
L 88.825759 98.192076 
L 96.716116 97.682198 
L 104.211956 96.973348 
L 112.759843 95.927195 
L 126.962486 94.158531 
L 132.485737 93.721312 
L 137.351457 93.555792 
L 141.822659 93.620967 
L 146.162356 93.901021 
L 150.502053 94.400638 
L 154.973255 95.141758 
L 159.575964 96.133123 
L 164.441684 97.413632 
L 169.570416 98.99529 
L 175.093666 100.930958 
L 181.14294 103.286452 
L 187.849744 106.13827 
L 195.345584 109.57349 
L 203.367447 113.496018 
L 211.652322 117.792093 
L 219.674186 122.197599 
L 227.038519 126.491128 
L 233.613817 130.577908 
L 239.531585 134.517164 
L 244.923329 138.375526 
L 249.920556 142.221633 
L 255.180794 146.557223 
L 264.517717 154.346054 
L 266.753318 155.876141 
L 268.594402 156.878149 
L 270.172473 157.49021 
L 271.619039 157.814614 
L 272.934098 157.895614 
L 274.249158 157.768243 
L 275.695723 157.395605 
L 277.273795 156.737084 
L 278.983372 155.774526 
L 281.087467 154.321616 
L 283.980598 152.022716 
L 291.607944 145.524494 
L 296.999688 141.145735 
L 302.12842 137.272705 
L 307.520165 133.486525 
L 313.306427 129.696583 
L 319.750219 125.746059 
L 326.720034 121.735983 
L 333.952862 117.829922 
L 340.922678 114.316985 
L 347.103458 111.446623 
L 352.495202 109.185157 
L 357.09791 107.48612 
L 361.306101 106.166728 
L 365.119774 105.202796 
L 368.670434 104.533143 
L 372.089589 104.117309 
L 375.377238 103.942289 
L 378.664887 103.992645 
L 381.952536 104.265296 
L 385.371691 104.773164 
L 389.053858 105.55421 
L 392.999036 106.627404 
L 397.338733 108.044194 
L 402.335959 109.918439 
L 408.253727 112.386638 
L 415.618061 115.713349 
L 425.349502 120.370709 
L 439.420639 127.37237 
L 463.354723 139.562618 
L 473.480682 144.760968 
L 473.480682 144.760968 
" clip-path="url(#p0dc2c6fe35)" style="fill: none; stroke: #2ca02c; stroke-width: 1.4; stroke-linecap: square"/>
   </g>
   <g id="line2d_104">
    <path d="M 59.375 88.48804 
L 493.2 88.48804 
" clip-path="url(#p0dc2c6fe35)" style="fill: none; stroke-dasharray: 2.96,1.28; stroke-dashoffset: 0; stroke: #ff0000; stroke-width: 0.8"/>
   </g>
   <g id="line2d_105">
    <path d="M 59.375 98.872667 
L 493.2 98.872667 
" clip-path="url(#p0dc2c6fe35)" style="fill: none; stroke: #000000; stroke-width: 0.6; stroke-linecap: square"/>
   </g>
   <g id="line2d_106">
    <path d="M 272.789982 251.498 
L 272.789982 22.56 
" clip-path="url(#p0dc2c6fe35)" style="fill: none; stroke-dasharray: 3.7,1.6; stroke-dashoffset: 0; stroke: #ffa500"/>
   </g>
   <g id="line2d_107">
    <path d="M 374.681845 251.498 
L 374.681845 22.56 
" clip-path="url(#p0dc2c6fe35)" style="fill: none; stroke-dasharray: 3.7,1.6; stroke-dashoffset: 0; stroke: #008000"/>
   </g>
   <g id="patch_3">
    <path d="M 59.375 251.498 
L 59.375 22.56 
" style="fill: none; stroke: #000000; stroke-width: 0.8; stroke-linejoin: miter; stroke-linecap: square"/>
   </g>
   <g id="patch_4">
    <path d="M 493.2 251.498 
L 493.2 22.56 
" style="fill: none; stroke: #000000; stroke-width: 0.8; stroke-linejoin: miter; stroke-linecap: square"/>
   </g>
   <g id="patch_5">
    <path d="M 59.375 251.498 
L 493.2 251.498 
" style="fill: none; stroke: #000000; stroke-width: 0.8; stroke-linejoin: miter; stroke-linecap: square"/>
   </g>
   <g id="patch_6">
    <path d="M 59.375 22.56 
L 493.2 22.56 
" style="fill: none; stroke: #000000; stroke-width: 0.8; stroke-linejoin: miter; stroke-linecap: square"/>
   </g>
   <g id="text_12">
    <!-- Ms 0.99  Mt 1.27  PM 75°  GM -19dB  BW 0.6Hz  | kp 0.03367 ki 0.0126 kd 0.03 @ PLL 200Hz -->
    <g transform="translate(90.525 16.56) scale(0.08 -0.08)">
     <defs>
      <path id="DejaVuSans-4d" d="M 628 4666 
L 1569 4666 
L 2759 1491 
L 3956 4666 
L 4897 4666 
L 4897 0 
L 4281 0 
L 4281 4097 
L 3078 897 
L 2444 897 
L 1241 4097 
L 1241 0 
L 628 0 
L 628 4666 
z
" transform="scale(0.015625)"/>
      <path id="DejaVuSans-73" d="M 2834 3397 
L 2834 2853 
Q 2591 2978 2328 3040 
Q 2066 3103 1784 3103 
Q 1356 3103 1142 2972 
Q 928 2841 928 2578 
Q 928 2378 1081 2264 
Q 1234 2150 1697 2047 
L 1894 2003 
Q 2506 1872 2764 1633 
Q 3022 1394 3022 966 
Q 3022 478 2636 193 
Q 2250 -91 1575 -91 
Q 1294 -91 989 -36 
Q 684 19 347 128 
L 347 722 
Q 666 556 975 473 
Q 1284 391 1588 391 
Q 1994 391 2212 530 
Q 2431 669 2431 922 
Q 2431 1156 2273 1281 
Q 2116 1406 1581 1522 
L 1381 1569 
Q 847 1681 609 1914 
Q 372 2147 372 2553 
Q 372 3047 722 3315 
Q 1072 3584 1716 3584 
Q 2034 3584 2315 3537 
Q 2597 3491 2834 3397 
z
" transform="scale(0.015625)"/>
      <path id="DejaVuSans-2e" d="M 684 794 
L 1344 794 
L 1344 0 
L 684 0 
L 684 794 
z
" transform="scale(0.015625)"/>
      <path id="DejaVuSans-39" d="M 703 97 
L 703 672 
Q 941 559 1184 500 
Q 1428 441 1663 441 
Q 2288 441 2617 861 
Q 2947 1281 2994 2138 
Q 2813 1869 2534 1725 
Q 2256 1581 1919 1581 
Q 1219 1581 811 2004 
Q 403 2428 403 3163 
Q 403 3881 828 4315 
Q 1253 4750 1959 4750 
Q 2769 4750 3195 4129 
Q 3622 3509 3622 2328 
Q 3622 1225 3098 567 
Q 2575 -91 1691 -91 
Q 1453 -91 1209 -44 
Q 966 3 703 97 
z
M 1959 2075 
Q 2384 2075 2632 2365 
Q 2881 2656 2881 3163 
Q 2881 3666 2632 3958 
Q 2384 4250 1959 4250 
Q 1534 4250 1286 3958 
Q 1038 3666 1038 3163 
Q 1038 2656 1286 2365 
Q 1534 2075 1959 2075 
z
" transform="scale(0.015625)"/>
      <path id="DejaVuSans-37" d="M 525 4666 
L 3525 4666 
L 3525 4397 
L 1831 0 
L 1172 0 
L 2766 4134 
L 525 4134 
L 525 4666 
z
" transform="scale(0.015625)"/>
      <path id="DejaVuSans-50" d="M 1259 4147 
L 1259 2394 
L 2053 2394 
Q 2494 2394 2734 2622 
Q 2975 2850 2975 3272 
Q 2975 3691 2734 3919 
Q 2494 4147 2053 4147 
L 1259 4147 
z
M 628 4666 
L 2053 4666 
Q 2838 4666 3239 4311 
Q 3641 3956 3641 3272 
Q 3641 2581 3239 2228 
Q 2838 1875 2053 1875 
L 1259 1875 
L 1259 0 
L 628 0 
L 628 4666 
z
" transform="scale(0.015625)"/>
      <path id="DejaVuSans-b0" d="M 1600 4347 
Q 1350 4347 1178 4173 
Q 1006 4000 1006 3750 
Q 1006 3503 1178 3333 
Q 1350 3163 1600 3163 
Q 1850 3163 2022 3333 
Q 2194 3503 2194 3750 
Q 2194 3997 2020 4172 
Q 1847 4347 1600 4347 
z
M 1600 4750 
Q 1800 4750 1984 4673 
Q 2169 4597 2303 4453 
Q 2447 4313 2519 4134 
Q 2591 3956 2591 3750 
Q 2591 3338 2302 3052 
Q 2013 2766 1594 2766 
Q 1172 2766 890 3047 
Q 609 3328 609 3750 
Q 609 4169 896 4459 
Q 1184 4750 1600 4750 
z
" transform="scale(0.015625)"/>
      <path id="DejaVuSans-47" d="M 3809 666 
L 3809 1919 
L 2778 1919 
L 2778 2438 
L 4434 2438 
L 4434 434 
Q 4069 175 3628 42 
Q 3188 -91 2688 -91 
Q 1594 -91 976 548 
Q 359 1188 359 2328 
Q 359 3472 976 4111 
Q 1594 4750 2688 4750 
Q 3144 4750 3555 4637 
Q 3966 4525 4313 4306 
L 4313 3634 
Q 3963 3931 3569 4081 
Q 3175 4231 2741 4231 
Q 1884 4231 1454 3753 
Q 1025 3275 1025 2328 
Q 1025 1384 1454 906 
Q 1884 428 2741 428 
Q 3075 428 3337 486 
Q 3600 544 3809 666 
z
" transform="scale(0.015625)"/>
      <path id="DejaVuSans-2d" d="M 313 2009 
L 1997 2009 
L 1997 1497 
L 313 1497 
L 313 2009 
z
" transform="scale(0.015625)"/>
      <path id="DejaVuSans-57" d="M 213 4666 
L 850 4666 
L 1831 722 
L 2809 4666 
L 3519 4666 
L 4500 722 
L 5478 4666 
L 6119 4666 
L 4947 0 
L 4153 0 
L 3169 4050 
L 2175 0 
L 1381 0 
L 213 4666 
z
" transform="scale(0.015625)"/>
      <path id="DejaVuSans-48" d="M 628 4666 
L 1259 4666 
L 1259 2753 
L 3553 2753 
L 3553 4666 
L 4184 4666 
L 4184 0 
L 3553 0 
L 3553 2222 
L 1259 2222 
L 1259 0 
L 628 0 
L 628 4666 
z
" transform="scale(0.015625)"/>
      <path id="DejaVuSans-7a" d="M 353 3500 
L 3084 3500 
L 3084 2975 
L 922 459 
L 3084 459 
L 3084 0 
L 275 0 
L 275 525 
L 2438 3041 
L 353 3041 
L 353 3500 
z
" transform="scale(0.015625)"/>
      <path id="DejaVuSans-7c" d="M 1344 4891 
L 1344 -1509 
L 813 -1509 
L 813 4891 
L 1344 4891 
z
" transform="scale(0.015625)"/>
      <path id="DejaVuSans-6b" d="M 581 4863 
L 1159 4863 
L 1159 1991 
L 2875 3500 
L 3609 3500 
L 1753 1863 
L 3688 0 
L 2938 0 
L 1159 1709 
L 1159 0 
L 581 0 
L 581 4863 
z
" transform="scale(0.015625)"/>
      <path id="DejaVuSans-70" d="M 1159 525 
L 1159 -1331 
L 581 -1331 
L 581 3500 
L 1159 3500 
L 1159 2969 
Q 1341 3281 1617 3432 
Q 1894 3584 2278 3584 
Q 2916 3584 3314 3078 
Q 3713 2572 3713 1747 
Q 3713 922 3314 415 
Q 2916 -91 2278 -91 
Q 1894 -91 1617 61 
Q 1341 213 1159 525 
z
M 3116 1747 
Q 3116 2381 2855 2742 
Q 2594 3103 2138 3103 
Q 1681 3103 1420 2742 
Q 1159 2381 1159 1747 
Q 1159 1113 1420 752 
Q 1681 391 2138 391 
Q 2594 391 2855 752 
Q 3116 1113 3116 1747 
z
" transform="scale(0.015625)"/>
      <path id="DejaVuSans-40" d="M 2381 1678 
Q 2381 1231 2603 976 
Q 2825 722 3213 722 
Q 3597 722 3817 978 
Q 4038 1234 4038 1678 
Q 4038 2116 3813 2373 
Q 3588 2631 3206 2631 
Q 2828 2631 2604 2375 
Q 2381 2119 2381 1678 
z
M 4084 744 
Q 3897 503 3655 389 
Q 3413 275 3091 275 
Q 2553 275 2217 664 
Q 1881 1053 1881 1678 
Q 1881 2303 2218 2693 
Q 2556 3084 3091 3084 
Q 3413 3084 3656 2967 
Q 3900 2850 4084 2613 
L 4084 3022 
L 4531 3022 
L 4531 722 
Q 4988 791 5245 1139 
Q 5503 1488 5503 2041 
Q 5503 2375 5404 2669 
Q 5306 2963 5106 3213 
Q 4781 3622 4314 3839 
Q 3847 4056 3297 4056 
Q 2913 4056 2559 3954 
Q 2206 3853 1906 3653 
Q 1416 3334 1139 2817 
Q 863 2300 863 1697 
Q 863 1200 1042 765 
Q 1222 331 1563 0 
Q 1891 -325 2322 -495 
Q 2753 -666 3244 -666 
Q 3647 -666 4036 -530 
Q 4425 -394 4750 -141 
L 5031 -488 
Q 4641 -791 4180 -952 
Q 3719 -1113 3244 -1113 
Q 2666 -1113 2153 -908 
Q 1641 -703 1241 -313 
Q 841 78 631 592 
Q 422 1106 422 1697 
Q 422 2266 634 2781 
Q 847 3297 1241 3688 
Q 1644 4084 2172 4295 
Q 2700 4506 3291 4506 
Q 3953 4506 4520 4234 
Q 5088 3963 5472 3463 
Q 5706 3156 5829 2797 
Q 5953 2438 5953 2053 
Q 5953 1231 5456 756 
Q 4959 281 4084 263 
L 4084 744 
z
" transform="scale(0.015625)"/>
      <path id="DejaVuSans-4c" d="M 628 4666 
L 1259 4666 
L 1259 531 
L 3531 531 
L 3531 0 
L 628 0 
L 628 4666 
z
" transform="scale(0.015625)"/>
     </defs>
     <use xlink:href="#DejaVuSans-4d"/>
     <use xlink:href="#DejaVuSans-73" transform="translate(86.279297 0)"/>
     <use xlink:href="#DejaVuSans-20" transform="translate(138.378906 0)"/>
     <use xlink:href="#DejaVuSans-30" transform="translate(170.166016 0)"/>
     <use xlink:href="#DejaVuSans-2e" transform="translate(233.789062 0)"/>
     <use xlink:href="#DejaVuSans-39" transform="translate(265.576172 0)"/>
     <use xlink:href="#DejaVuSans-39" transform="translate(329.199219 0)"/>
     <use xlink:href="#DejaVuSans-20" transform="translate(392.822266 0)"/>
     <use xlink:href="#DejaVuSans-20" transform="translate(424.609375 0)"/>
     <use xlink:href="#DejaVuSans-4d" transform="translate(456.396484 0)"/>
     <use xlink:href="#DejaVuSans-74" transform="translate(542.675781 0)"/>
     <use xlink:href="#DejaVuSans-20" transform="translate(581.884766 0)"/>
     <use xlink:href="#DejaVuSans-31" transform="translate(613.671875 0)"/>
     <use xlink:href="#DejaVuSans-2e" transform="translate(677.294922 0)"/>
     <use xlink:href="#DejaVuSans-32" transform="translate(709.082031 0)"/>
     <use xlink:href="#DejaVuSans-37" transform="translate(772.705078 0)"/>
     <use xlink:href="#DejaVuSans-20" transform="translate(836.328125 0)"/>
     <use xlink:href="#DejaVuSans-20" transform="translate(868.115234 0)"/>
     <use xlink:href="#DejaVuSans-50" transform="translate(899.902344 0)"/>
     <use xlink:href="#DejaVuSans-4d" transform="translate(960.205078 0)"/>
     <use xlink:href="#DejaVuSans-20" transform="translate(1046.484375 0)"/>
     <use xlink:href="#DejaVuSans-37" transform="translate(1078.271484 0)"/>
     <use xlink:href="#DejaVuSans-35" transform="translate(1141.894531 0)"/>
     <use xlink:href="#DejaVuSans-b0" transform="translate(1205.517578 0)"/>
     <use xlink:href="#DejaVuSans-20" transform="translate(1255.517578 0)"/>
     <use xlink:href="#DejaVuSans-20" transform="translate(1287.304688 0)"/>
     <use xlink:href="#DejaVuSans-47" transform="translate(1319.091797 0)"/>
     <use xlink:href="#DejaVuSans-4d" transform="translate(1396.582031 0)"/>
     <use xlink:href="#DejaVuSans-20" transform="translate(1482.861328 0)"/>
     <use xlink:href="#DejaVuSans-2d" transform="translate(1514.648438 0)"/>
     <use xlink:href="#DejaVuSans-31" transform="translate(1550.732422 0)"/>
     <use xlink:href="#DejaVuSans-39" transform="translate(1614.355469 0)"/>
     <use xlink:href="#DejaVuSans-64" transform="translate(1677.978516 0)"/>
     <use xlink:href="#DejaVuSans-42" transform="translate(1741.455078 0)"/>
     <use xlink:href="#DejaVuSans-20" transform="translate(1810.058594 0)"/>
     <use xlink:href="#DejaVuSans-20" transform="translate(1841.845703 0)"/>
     <use xlink:href="#DejaVuSans-42" transform="translate(1873.632812 0)"/>
     <use xlink:href="#DejaVuSans-57" transform="translate(1938.611328 0)"/>
     <use xlink:href="#DejaVuSans-20" transform="translate(2037.488281 0)"/>
     <use xlink:href="#DejaVuSans-30" transform="translate(2069.275391 0)"/>
     <use xlink:href="#DejaVuSans-2e" transform="translate(2132.898438 0)"/>
     <use xlink:href="#DejaVuSans-36" transform="translate(2164.685547 0)"/>
     <use xlink:href="#DejaVuSans-48" transform="translate(2228.308594 0)"/>
     <use xlink:href="#DejaVuSans-7a" transform="translate(2303.503906 0)"/>
     <use xlink:href="#DejaVuSans-20" transform="translate(2355.994141 0)"/>
     <use xlink:href="#DejaVuSans-20" transform="translate(2387.78125 0)"/>
     <use xlink:href="#DejaVuSans-7c" transform="translate(2419.568359 0)"/>
     <use xlink:href="#DejaVuSans-20" transform="translate(2453.259766 0)"/>
     <use xlink:href="#DejaVuSans-6b" transform="translate(2485.046875 0)"/>
     <use xlink:href="#DejaVuSans-70" transform="translate(2542.957031 0)"/>
     <use xlink:href="#DejaVuSans-20" transform="translate(2606.433594 0)"/>
     <use xlink:href="#DejaVuSans-30" transform="translate(2638.220703 0)"/>
     <use xlink:href="#DejaVuSans-2e" transform="translate(2701.84375 0)"/>
     <use xlink:href="#DejaVuSans-30" transform="translate(2733.630859 0)"/>
     <use xlink:href="#DejaVuSans-33" transform="translate(2797.253906 0)"/>
     <use xlink:href="#DejaVuSans-33" transform="translate(2860.876953 0)"/>
     <use xlink:href="#DejaVuSans-36" transform="translate(2924.5 0)"/>
     <use xlink:href="#DejaVuSans-37" transform="translate(2988.123047 0)"/>
     <use xlink:href="#DejaVuSans-20" transform="translate(3051.746094 0)"/>
     <use xlink:href="#DejaVuSans-6b" transform="translate(3083.533203 0)"/>
     <use xlink:href="#DejaVuSans-69" transform="translate(3141.443359 0)"/>
     <use xlink:href="#DejaVuSans-20" transform="translate(3169.226562 0)"/>
     <use xlink:href="#DejaVuSans-30" transform="translate(3201.013672 0)"/>
     <use xlink:href="#DejaVuSans-2e" transform="translate(3264.636719 0)"/>
     <use xlink:href="#DejaVuSans-30" transform="translate(3296.423828 0)"/>
     <use xlink:href="#DejaVuSans-31" transform="translate(3360.046875 0)"/>
     <use xlink:href="#DejaVuSans-32" transform="translate(3423.669922 0)"/>
     <use xlink:href="#DejaVuSans-36" transform="translate(3487.292969 0)"/>
     <use xlink:href="#DejaVuSans-20" transform="translate(3550.916016 0)"/>
     <use xlink:href="#DejaVuSans-6b" transform="translate(3582.703125 0)"/>
     <use xlink:href="#DejaVuSans-64" transform="translate(3640.613281 0)"/>
     <use xlink:href="#DejaVuSans-20" transform="translate(3704.089844 0)"/>
     <use xlink:href="#DejaVuSans-30" transform="translate(3735.876953 0)"/>
     <use xlink:href="#DejaVuSans-2e" transform="translate(3799.5 0)"/>
     <use xlink:href="#DejaVuSans-30" transform="translate(3831.287109 0)"/>
     <use xlink:href="#DejaVuSans-33" transform="translate(3894.910156 0)"/>
     <use xlink:href="#DejaVuSans-20" transform="translate(3958.533203 0)"/>
     <use xlink:href="#DejaVuSans-40" transform="translate(3990.320312 0)"/>
     <use xlink:href="#DejaVuSans-20" transform="translate(4090.320312 0)"/>
     <use xlink:href="#DejaVuSans-50" transform="translate(4122.107422 0)"/>
     <use xlink:href="#DejaVuSans-4c" transform="translate(4182.410156 0)"/>
     <use xlink:href="#DejaVuSans-4c" transform="translate(4238.123047 0)"/>
     <use xlink:href="#DejaVuSans-20" transform="translate(4293.835938 0)"/>
     <use xlink:href="#DejaVuSans-32" transform="translate(4325.623047 0)"/>
     <use xlink:href="#DejaVuSans-30" transform="translate(4389.246094 0)"/>
     <use xlink:href="#DejaVuSans-30" transform="translate(4452.869141 0)"/>
     <use xlink:href="#DejaVuSans-48" transform="translate(4516.492188 0)"/>
     <use xlink:href="#DejaVuSans-7a" transform="translate(4591.6875 0)"/>
    </g>
   </g>
   <g id="legend_1">
    <g id="patch_7">
     <path d="M 408.7975 75.9825 
L 487.6 75.9825 
Q 489.2 75.9825 489.2 74.3825 
L 489.2 28.16 
Q 489.2 26.56 487.6 26.56 
L 408.7975 26.56 
Q 407.1975 26.56 407.1975 28.16 
L 407.1975 74.3825 
Q 407.1975 75.9825 408.7975 75.9825 
z
" style="fill: #ffffff; opacity: 0.8; stroke: #cccccc; stroke-linejoin: miter"/>
    </g>
    <g id="line2d_108">
     <path d="M 410.3975 33.04 
L 418.3975 33.04 
L 426.3975 33.04 
" style="fill: none; stroke: #1f77b4; stroke-width: 1.4; stroke-linecap: square"/>
    </g>
    <g id="text_13">
     <!-- open loop $L$ -->
     <g transform="translate(432.7975 35.84) scale(0.08 -0.08)">
      <defs>
       <path id="DejaVuSans-6f" d="M 1959 3097 
Q 1497 3097 1228 2736 
Q 959 2375 959 1747 
Q 959 1119 1226 758 
Q 1494 397 1959 397 
Q 2419 397 2687 759 
Q 2956 1122 2956 1747 
Q 2956 2369 2687 2733 
Q 2419 3097 1959 3097 
z
M 1959 3584 
Q 2709 3584 3137 3096 
Q 3566 2609 3566 1747 
Q 3566 888 3137 398 
Q 2709 -91 1959 -91 
Q 1206 -91 779 398 
Q 353 888 353 1747 
Q 353 2609 779 3096 
Q 1206 3584 1959 3584 
z
" transform="scale(0.015625)"/>
       <path id="DejaVuSans-6c" d="M 603 4863 
L 1178 4863 
L 1178 0 
L 603 0 
L 603 4863 
z
" transform="scale(0.015625)"/>
       <path id="DejaVuSans-Oblique-4c" d="M 1075 4666 
L 1709 4666 
L 909 525 
L 3181 525 
L 3078 0 
L 172 0 
L 1075 4666 
z
" transform="scale(0.015625)"/>
      </defs>
      <use xlink:href="#DejaVuSans-6f" transform="translate(0 0.015625)"/>
      <use xlink:href="#DejaVuSans-70" transform="translate(61.181641 0.015625)"/>
      <use xlink:href="#DejaVuSans-65" transform="translate(124.658203 0.015625)"/>
      <use xlink:href="#DejaVuSans-6e" transform="translate(186.181641 0.015625)"/>
      <use xlink:href="#DejaVuSans-20" transform="translate(249.560547 0.015625)"/>
      <use xlink:href="#DejaVuSans-6c" transform="translate(281.347656 0.015625)"/>
      <use xlink:href="#DejaVuSans-6f" transform="translate(309.130859 0.015625)"/>
      <use xlink:href="#DejaVuSans-6f" transform="translate(370.3125 0.015625)"/>
      <use xlink:href="#DejaVuSans-70" transform="translate(431.494141 0.015625)"/>
      <use xlink:href="#DejaVuSans-20" transform="translate(494.970703 0.015625)"/>
      <use xlink:href="#DejaVuSans-Oblique-4c" transform="translate(526.757812 0.015625)"/>
     </g>
    </g>
    <g id="line2d_109">
     <path d="M 410.3975 44.8 
L 418.3975 44.8 
L 426.3975 44.8 
" style="fill: none; stroke: #ff7f0e; stroke-width: 1.4; stroke-linecap: square"/>
    </g>
    <g id="text_14">
     <!-- sensitivity $S$ -->
     <g transform="translate(432.7975 47.6) scale(0.08 -0.08)">
      <defs>
       <path id="DejaVuSans-76" d="M 191 3500 
L 800 3500 
L 1894 563 
L 2988 3500 
L 3597 3500 
L 2284 0 
L 1503 0 
L 191 3500 
z
" transform="scale(0.015625)"/>
       <path id="DejaVuSans-79" d="M 2059 -325 
Q 1816 -950 1584 -1140 
Q 1353 -1331 966 -1331 
L 506 -1331 
L 506 -850 
L 844 -850 
Q 1081 -850 1212 -737 
Q 1344 -625 1503 -206 
L 1606 56 
L 191 3500 
L 800 3500 
L 1894 763 
L 2988 3500 
L 3597 3500 
L 2059 -325 
z
" transform="scale(0.015625)"/>
       <path id="DejaVuSans-Oblique-53" d="M 3859 4513 
L 3738 3897 
Q 3422 4066 3111 4152 
Q 2800 4238 2509 4238 
Q 1944 4238 1609 3991 
Q 1275 3744 1275 3334 
Q 1275 3109 1398 2989 
Q 1522 2869 2034 2731 
L 2413 2638 
Q 3053 2472 3303 2217 
Q 3553 1963 3553 1503 
Q 3553 797 2998 353 
Q 2444 -91 1538 -91 
Q 1166 -91 791 -17 
Q 416 56 38 206 
L 166 856 
Q 513 641 861 531 
Q 1209 422 1556 422 
Q 2147 422 2503 684 
Q 2859 947 2859 1369 
Q 2859 1650 2717 1795 
Q 2575 1941 2106 2059 
L 1728 2156 
Q 1081 2325 845 2545 
Q 609 2766 609 3163 
Q 609 3859 1145 4304 
Q 1681 4750 2541 4750 
Q 2875 4750 3203 4690 
Q 3531 4631 3859 4513 
z
" transform="scale(0.015625)"/>
      </defs>
      <use xlink:href="#DejaVuSans-73" transform="translate(0 0.015625)"/>
      <use xlink:href="#DejaVuSans-65" transform="translate(52.099609 0.015625)"/>
      <use xlink:href="#DejaVuSans-6e" transform="translate(113.623047 0.015625)"/>
      <use xlink:href="#DejaVuSans-73" transform="translate(177.001953 0.015625)"/>
      <use xlink:href="#DejaVuSans-69" transform="translate(229.101562 0.015625)"/>
      <use xlink:href="#DejaVuSans-74" transform="translate(256.884766 0.015625)"/>
      <use xlink:href="#DejaVuSans-69" transform="translate(296.09375 0.015625)"/>
      <use xlink:href="#DejaVuSans-76" transform="translate(323.876953 0.015625)"/>
      <use xlink:href="#DejaVuSans-69" transform="translate(383.056641 0.015625)"/>
      <use xlink:href="#DejaVuSans-74" transform="translate(410.839844 0.015625)"/>
      <use xlink:href="#DejaVuSans-79" transform="translate(450.048828 0.015625)"/>
      <use xlink:href="#DejaVuSans-20" transform="translate(509.228516 0.015625)"/>
      <use xlink:href="#DejaVuSans-Oblique-53" transform="translate(541.015625 0.015625)"/>
     </g>
    </g>
    <g id="line2d_110">
     <path d="M 410.3975 56.56 
L 418.3975 56.56 
L 426.3975 56.56 
" style="fill: none; stroke: #2ca02c; stroke-width: 1.4; stroke-linecap: square"/>
    </g>
    <g id="text_15">
     <!-- compl. $T$ -->
     <g transform="translate(432.7975 59.36) scale(0.08 -0.08)">
      <defs>
       <path id="DejaVuSans-63" d="M 3122 3366 
L 3122 2828 
Q 2878 2963 2633 3030 
Q 2388 3097 2138 3097 
Q 1578 3097 1268 2742 
Q 959 2388 959 1747 
Q 959 1106 1268 751 
Q 1578 397 2138 397 
Q 2388 397 2633 464 
Q 2878 531 3122 666 
L 3122 134 
Q 2881 22 2623 -34 
Q 2366 -91 2075 -91 
Q 1284 -91 818 406 
Q 353 903 353 1747 
Q 353 2603 823 3093 
Q 1294 3584 2113 3584 
Q 2378 3584 2631 3529 
Q 2884 3475 3122 3366 
z
" transform="scale(0.015625)"/>
       <path id="DejaVuSans-Oblique-54" d="M 378 4666 
L 4325 4666 
L 4225 4134 
L 2559 4134 
L 1759 0 
L 1125 0 
L 1925 4134 
L 275 4134 
L 378 4666 
z
" transform="scale(0.015625)"/>
      </defs>
      <use xlink:href="#DejaVuSans-63" transform="translate(0 0.015625)"/>
      <use xlink:href="#DejaVuSans-6f" transform="translate(54.980469 0.015625)"/>
      <use xlink:href="#DejaVuSans-6d" transform="translate(116.162109 0.015625)"/>
      <use xlink:href="#DejaVuSans-70" transform="translate(213.574219 0.015625)"/>
      <use xlink:href="#DejaVuSans-6c" transform="translate(277.050781 0.015625)"/>
      <use xlink:href="#DejaVuSans-2e" transform="translate(304.833984 0.015625)"/>
      <use xlink:href="#DejaVuSans-20" transform="translate(336.621094 0.015625)"/>
      <use xlink:href="#DejaVuSans-Oblique-54" transform="translate(368.408203 0.015625)"/>
     </g>
    </g>
    <g id="line2d_111">
     <path d="M 410.3975 68.31875 
L 418.3975 68.31875 
L 426.3975 68.31875 
" style="fill: none; stroke-dasharray: 2.96,1.28; stroke-dashoffset: 0; stroke: #ff0000; stroke-width: 0.8"/>
    </g>
    <g id="text_16">
     <!-- Ms target 1.6 -->
     <g transform="translate(432.7975 71.11875) scale(0.08 -0.08)">
      <defs>
       <path id="DejaVuSans-72" d="M 2631 2963 
Q 2534 3019 2420 3045 
Q 2306 3072 2169 3072 
Q 1681 3072 1420 2755 
Q 1159 2438 1159 1844 
L 1159 0 
L 581 0 
L 581 3500 
L 1159 3500 
L 1159 2956 
Q 1341 3275 1631 3429 
Q 1922 3584 2338 3584 
Q 2397 3584 2469 3576 
Q 2541 3569 2628 3553 
L 2631 2963 
z
" transform="scale(0.015625)"/>
      </defs>
      <use xlink:href="#DejaVuSans-4d"/>
      <use xlink:href="#DejaVuSans-73" transform="translate(86.279297 0)"/>
      <use xlink:href="#DejaVuSans-20" transform="translate(138.378906 0)"/>
      <use xlink:href="#DejaVuSans-74" transform="translate(170.166016 0)"/>
      <use xlink:href="#DejaVuSans-61" transform="translate(209.375 0)"/>
      <use xlink:href="#DejaVuSans-72" transform="translate(270.654297 0)"/>
      <use xlink:href="#DejaVuSans-67" transform="translate(310.017578 0)"/>
      <use xlink:href="#DejaVuSans-65" transform="translate(373.494141 0)"/>
      <use xlink:href="#DejaVuSans-74" transform="translate(435.017578 0)"/>
      <use xlink:href="#DejaVuSans-20" transform="translate(474.226562 0)"/>
      <use xlink:href="#DejaVuSans-31" transform="translate(506.013672 0)"/>
      <use xlink:href="#DejaVuSans-2e" transform="translate(569.636719 0)"/>
      <use xlink:href="#DejaVuSans-36" transform="translate(601.423828 0)"/>
     </g>
    </g>
   </g>
  </g>
  <g id="axes_2">
   <g id="patch_8">
    <path d="M 59.375 497.356 
L 493.2 497.356 
L 493.2 268.418 
L 59.375 268.418 
z
" style="fill: #ffffff"/>
   </g>
   <g id="matplotlib.axis_3">
    <g id="xtick_41">
     <g id="line2d_112">
      <path d="M 108.77485 497.356 
L 108.77485 268.418 
" clip-path="url(#p90663cdc0e)" style="fill: none; stroke: #b0b0b0; stroke-width: 0.8; stroke-linecap: square"/>
     </g>
     <g id="line2d_113">
      <g>
       <use xlink:href="#mf32a1d9b54" x="108.77485" y="497.356" style="stroke: #000000; stroke-width: 0.8"/>
      </g>
     </g>
     <g id="text_17">
      <!-- $\mathdefault{10^{-1}}$ -->
      <g transform="translate(97.02485 511.954438) scale(0.1 -0.1)">
       <use xlink:href="#DejaVuSans-31" transform="translate(0 0.684375)"/>
       <use xlink:href="#DejaVuSans-30" transform="translate(63.623047 0.684375)"/>
       <use xlink:href="#DejaVuSans-2212" transform="translate(128.203125 38.965625) scale(0.7)"/>
       <use xlink:href="#DejaVuSans-31" transform="translate(186.855469 38.965625) scale(0.7)"/>
      </g>
     </g>
    </g>
    <g id="xtick_42">
     <g id="line2d_114">
      <path d="M 207.37144 497.356 
L 207.37144 268.418 
" clip-path="url(#p90663cdc0e)" style="fill: none; stroke: #b0b0b0; stroke-width: 0.8; stroke-linecap: square"/>
     </g>
     <g id="line2d_115">
      <g>
       <use xlink:href="#mf32a1d9b54" x="207.37144" y="497.356" style="stroke: #000000; stroke-width: 0.8"/>
      </g>
     </g>
     <g id="text_18">
      <!-- $\mathdefault{10^{0}}$ -->
      <g transform="translate(198.57144 511.954438) scale(0.1 -0.1)">
       <use xlink:href="#DejaVuSans-31" transform="translate(0 0.765625)"/>
       <use xlink:href="#DejaVuSans-30" transform="translate(63.623047 0.765625)"/>
       <use xlink:href="#DejaVuSans-30" transform="translate(128.203125 39.046875) scale(0.7)"/>
      </g>
     </g>
    </g>
    <g id="xtick_43">
     <g id="line2d_116">
      <path d="M 305.968031 497.356 
L 305.968031 268.418 
" clip-path="url(#p90663cdc0e)" style="fill: none; stroke: #b0b0b0; stroke-width: 0.8; stroke-linecap: square"/>
     </g>
     <g id="line2d_117">
      <g>
       <use xlink:href="#mf32a1d9b54" x="305.968031" y="497.356" style="stroke: #000000; stroke-width: 0.8"/>
      </g>
     </g>
     <g id="text_19">
      <!-- $\mathdefault{10^{1}}$ -->
      <g transform="translate(297.168031 511.954438) scale(0.1 -0.1)">
       <use xlink:href="#DejaVuSans-31" transform="translate(0 0.684375)"/>
       <use xlink:href="#DejaVuSans-30" transform="translate(63.623047 0.684375)"/>
       <use xlink:href="#DejaVuSans-31" transform="translate(128.203125 38.965625) scale(0.7)"/>
      </g>
     </g>
    </g>
    <g id="xtick_44">
     <g id="line2d_118">
      <path d="M 404.564622 497.356 
L 404.564622 268.418 
" clip-path="url(#p90663cdc0e)" style="fill: none; stroke: #b0b0b0; stroke-width: 0.8; stroke-linecap: square"/>
     </g>
     <g id="line2d_119">
      <g>
       <use xlink:href="#mf32a1d9b54" x="404.564622" y="497.356" style="stroke: #000000; stroke-width: 0.8"/>
      </g>
     </g>
     <g id="text_20">
      <!-- $\mathdefault{10^{2}}$ -->
      <g transform="translate(395.764622 511.954438) scale(0.1 -0.1)">
       <use xlink:href="#DejaVuSans-31" transform="translate(0 0.765625)"/>
       <use xlink:href="#DejaVuSans-30" transform="translate(63.623047 0.765625)"/>
       <use xlink:href="#DejaVuSans-32" transform="translate(128.203125 39.046875) scale(0.7)"/>
      </g>
     </g>
    </g>
    <g id="xtick_45">
     <g id="line2d_120">
      <path d="M 69.539321 497.356 
L 69.539321 268.418 
" clip-path="url(#p90663cdc0e)" style="fill: none; stroke: #b0b0b0; stroke-width: 0.8; stroke-linecap: square"/>
     </g>
     <g id="line2d_121">
      <g>
       <use xlink:href="#md8f4b93e84" x="69.539321" y="497.356" style="stroke: #000000; stroke-width: 0.6"/>
      </g>
     </g>
    </g>
    <g id="xtick_46">
     <g id="line2d_122">
      <path d="M 79.094318 497.356 
L 79.094318 268.418 
" clip-path="url(#p90663cdc0e)" style="fill: none; stroke: #b0b0b0; stroke-width: 0.8; stroke-linecap: square"/>
     </g>
     <g id="line2d_123">
      <g>
       <use xlink:href="#md8f4b93e84" x="79.094318" y="497.356" style="stroke: #000000; stroke-width: 0.6"/>
      </g>
     </g>
    </g>
    <g id="xtick_47">
     <g id="line2d_124">
      <path d="M 86.901319 497.356 
L 86.901319 268.418 
" clip-path="url(#p90663cdc0e)" style="fill: none; stroke: #b0b0b0; stroke-width: 0.8; stroke-linecap: square"/>
     </g>
     <g id="line2d_125">
      <g>
       <use xlink:href="#md8f4b93e84" x="86.901319" y="497.356" style="stroke: #000000; stroke-width: 0.6"/>
      </g>
     </g>
    </g>
    <g id="xtick_48">
     <g id="line2d_126">
      <path d="M 93.502044 497.356 
L 93.502044 268.418 
" clip-path="url(#p90663cdc0e)" style="fill: none; stroke: #b0b0b0; stroke-width: 0.8; stroke-linecap: square"/>
     </g>
     <g id="line2d_127">
      <g>
       <use xlink:href="#md8f4b93e84" x="93.502044" y="497.356" style="stroke: #000000; stroke-width: 0.6"/>
      </g>
     </g>
    </g>
    <g id="xtick_49">
     <g id="line2d_128">
      <path d="M 99.219853 497.356 
L 99.219853 268.418 
" clip-path="url(#p90663cdc0e)" style="fill: none; stroke: #b0b0b0; stroke-width: 0.8; stroke-linecap: square"/>
     </g>
     <g id="line2d_129">
      <g>
       <use xlink:href="#md8f4b93e84" x="99.219853" y="497.356" style="stroke: #000000; stroke-width: 0.6"/>
      </g>
     </g>
    </g>
    <g id="xtick_50">
     <g id="line2d_130">
      <path d="M 104.263317 497.356 
L 104.263317 268.418 
" clip-path="url(#p90663cdc0e)" style="fill: none; stroke: #b0b0b0; stroke-width: 0.8; stroke-linecap: square"/>
     </g>
     <g id="line2d_131">
      <g>
       <use xlink:href="#md8f4b93e84" x="104.263317" y="497.356" style="stroke: #000000; stroke-width: 0.6"/>
      </g>
     </g>
    </g>
    <g id="xtick_51">
     <g id="line2d_132">
      <path d="M 138.455381 497.356 
L 138.455381 268.418 
" clip-path="url(#p90663cdc0e)" style="fill: none; stroke: #b0b0b0; stroke-width: 0.8; stroke-linecap: square"/>
     </g>
     <g id="line2d_133">
      <g>
       <use xlink:href="#md8f4b93e84" x="138.455381" y="497.356" style="stroke: #000000; stroke-width: 0.6"/>
      </g>
     </g>
    </g>
    <g id="xtick_52">
     <g id="line2d_134">
      <path d="M 155.817379 497.356 
L 155.817379 268.418 
" clip-path="url(#p90663cdc0e)" style="fill: none; stroke: #b0b0b0; stroke-width: 0.8; stroke-linecap: square"/>
     </g>
     <g id="line2d_135">
      <g>
       <use xlink:href="#md8f4b93e84" x="155.817379" y="497.356" style="stroke: #000000; stroke-width: 0.6"/>
      </g>
     </g>
    </g>
    <g id="xtick_53">
     <g id="line2d_136">
      <path d="M 168.135912 497.356 
L 168.135912 268.418 
" clip-path="url(#p90663cdc0e)" style="fill: none; stroke: #b0b0b0; stroke-width: 0.8; stroke-linecap: square"/>
     </g>
     <g id="line2d_137">
      <g>
       <use xlink:href="#md8f4b93e84" x="168.135912" y="497.356" style="stroke: #000000; stroke-width: 0.6"/>
      </g>
     </g>
    </g>
    <g id="xtick_54">
     <g id="line2d_138">
      <path d="M 177.690909 497.356 
L 177.690909 268.418 
" clip-path="url(#p90663cdc0e)" style="fill: none; stroke: #b0b0b0; stroke-width: 0.8; stroke-linecap: square"/>
     </g>
     <g id="line2d_139">
      <g>
       <use xlink:href="#md8f4b93e84" x="177.690909" y="497.356" style="stroke: #000000; stroke-width: 0.6"/>
      </g>
     </g>
    </g>
    <g id="xtick_55">
     <g id="line2d_140">
      <path d="M 185.49791 497.356 
L 185.49791 268.418 
" clip-path="url(#p90663cdc0e)" style="fill: none; stroke: #b0b0b0; stroke-width: 0.8; stroke-linecap: square"/>
     </g>
     <g id="line2d_141">
      <g>
       <use xlink:href="#md8f4b93e84" x="185.49791" y="497.356" style="stroke: #000000; stroke-width: 0.6"/>
      </g>
     </g>
    </g>
    <g id="xtick_56">
     <g id="line2d_142">
      <path d="M 192.098635 497.356 
L 192.098635 268.418 
" clip-path="url(#p90663cdc0e)" style="fill: none; stroke: #b0b0b0; stroke-width: 0.8; stroke-linecap: square"/>
     </g>
     <g id="line2d_143">
      <g>
       <use xlink:href="#md8f4b93e84" x="192.098635" y="497.356" style="stroke: #000000; stroke-width: 0.6"/>
      </g>
     </g>
    </g>
    <g id="xtick_57">
     <g id="line2d_144">
      <path d="M 197.816444 497.356 
L 197.816444 268.418 
" clip-path="url(#p90663cdc0e)" style="fill: none; stroke: #b0b0b0; stroke-width: 0.8; stroke-linecap: square"/>
     </g>
     <g id="line2d_145">
      <g>
       <use xlink:href="#md8f4b93e84" x="197.816444" y="497.356" style="stroke: #000000; stroke-width: 0.6"/>
      </g>
     </g>
    </g>
    <g id="xtick_58">
     <g id="line2d_146">
      <path d="M 202.859908 497.356 
L 202.859908 268.418 
" clip-path="url(#p90663cdc0e)" style="fill: none; stroke: #b0b0b0; stroke-width: 0.8; stroke-linecap: square"/>
     </g>
     <g id="line2d_147">
      <g>
       <use xlink:href="#md8f4b93e84" x="202.859908" y="497.356" style="stroke: #000000; stroke-width: 0.6"/>
      </g>
     </g>
    </g>
    <g id="xtick_59">
     <g id="line2d_148">
      <path d="M 237.051972 497.356 
L 237.051972 268.418 
" clip-path="url(#p90663cdc0e)" style="fill: none; stroke: #b0b0b0; stroke-width: 0.8; stroke-linecap: square"/>
     </g>
     <g id="line2d_149">
      <g>
       <use xlink:href="#md8f4b93e84" x="237.051972" y="497.356" style="stroke: #000000; stroke-width: 0.6"/>
      </g>
     </g>
    </g>
    <g id="xtick_60">
     <g id="line2d_150">
      <path d="M 254.41397 497.356 
L 254.41397 268.418 
" clip-path="url(#p90663cdc0e)" style="fill: none; stroke: #b0b0b0; stroke-width: 0.8; stroke-linecap: square"/>
     </g>
     <g id="line2d_151">
      <g>
       <use xlink:href="#md8f4b93e84" x="254.41397" y="497.356" style="stroke: #000000; stroke-width: 0.6"/>
      </g>
     </g>
    </g>
    <g id="xtick_61">
     <g id="line2d_152">
      <path d="M 266.732503 497.356 
L 266.732503 268.418 
" clip-path="url(#p90663cdc0e)" style="fill: none; stroke: #b0b0b0; stroke-width: 0.8; stroke-linecap: square"/>
     </g>
     <g id="line2d_153">
      <g>
       <use xlink:href="#md8f4b93e84" x="266.732503" y="497.356" style="stroke: #000000; stroke-width: 0.6"/>
      </g>
     </g>
    </g>
    <g id="xtick_62">
     <g id="line2d_154">
      <path d="M 276.2875 497.356 
L 276.2875 268.418 
" clip-path="url(#p90663cdc0e)" style="fill: none; stroke: #b0b0b0; stroke-width: 0.8; stroke-linecap: square"/>
     </g>
     <g id="line2d_155">
      <g>
       <use xlink:href="#md8f4b93e84" x="276.2875" y="497.356" style="stroke: #000000; stroke-width: 0.6"/>
      </g>
     </g>
    </g>
    <g id="xtick_63">
     <g id="line2d_156">
      <path d="M 284.094501 497.356 
L 284.094501 268.418 
" clip-path="url(#p90663cdc0e)" style="fill: none; stroke: #b0b0b0; stroke-width: 0.8; stroke-linecap: square"/>
     </g>
     <g id="line2d_157">
      <g>
       <use xlink:href="#md8f4b93e84" x="284.094501" y="497.356" style="stroke: #000000; stroke-width: 0.6"/>
      </g>
     </g>
    </g>
    <g id="xtick_64">
     <g id="line2d_158">
      <path d="M 290.695226 497.356 
L 290.695226 268.418 
" clip-path="url(#p90663cdc0e)" style="fill: none; stroke: #b0b0b0; stroke-width: 0.8; stroke-linecap: square"/>
     </g>
     <g id="line2d_159">
      <g>
       <use xlink:href="#md8f4b93e84" x="290.695226" y="497.356" style="stroke: #000000; stroke-width: 0.6"/>
      </g>
     </g>
    </g>
    <g id="xtick_65">
     <g id="line2d_160">
      <path d="M 296.413034 497.356 
L 296.413034 268.418 
" clip-path="url(#p90663cdc0e)" style="fill: none; stroke: #b0b0b0; stroke-width: 0.8; stroke-linecap: square"/>
     </g>
     <g id="line2d_161">
      <g>
       <use xlink:href="#md8f4b93e84" x="296.413034" y="497.356" style="stroke: #000000; stroke-width: 0.6"/>
      </g>
     </g>
    </g>
    <g id="xtick_66">
     <g id="line2d_162">
      <path d="M 301.456499 497.356 
L 301.456499 268.418 
" clip-path="url(#p90663cdc0e)" style="fill: none; stroke: #b0b0b0; stroke-width: 0.8; stroke-linecap: square"/>
     </g>
     <g id="line2d_163">
      <g>
       <use xlink:href="#md8f4b93e84" x="301.456499" y="497.356" style="stroke: #000000; stroke-width: 0.6"/>
      </g>
     </g>
    </g>
    <g id="xtick_67">
     <g id="line2d_164">
      <path d="M 335.648563 497.356 
L 335.648563 268.418 
" clip-path="url(#p90663cdc0e)" style="fill: none; stroke: #b0b0b0; stroke-width: 0.8; stroke-linecap: square"/>
     </g>
     <g id="line2d_165">
      <g>
       <use xlink:href="#md8f4b93e84" x="335.648563" y="497.356" style="stroke: #000000; stroke-width: 0.6"/>
      </g>
     </g>
    </g>
    <g id="xtick_68">
     <g id="line2d_166">
      <path d="M 353.01056 497.356 
L 353.01056 268.418 
" clip-path="url(#p90663cdc0e)" style="fill: none; stroke: #b0b0b0; stroke-width: 0.8; stroke-linecap: square"/>
     </g>
     <g id="line2d_167">
      <g>
       <use xlink:href="#md8f4b93e84" x="353.01056" y="497.356" style="stroke: #000000; stroke-width: 0.6"/>
      </g>
     </g>
    </g>
    <g id="xtick_69">
     <g id="line2d_168">
      <path d="M 365.329094 497.356 
L 365.329094 268.418 
" clip-path="url(#p90663cdc0e)" style="fill: none; stroke: #b0b0b0; stroke-width: 0.8; stroke-linecap: square"/>
     </g>
     <g id="line2d_169">
      <g>
       <use xlink:href="#md8f4b93e84" x="365.329094" y="497.356" style="stroke: #000000; stroke-width: 0.6"/>
      </g>
     </g>
    </g>
    <g id="xtick_70">
     <g id="line2d_170">
      <path d="M 374.884091 497.356 
L 374.884091 268.418 
" clip-path="url(#p90663cdc0e)" style="fill: none; stroke: #b0b0b0; stroke-width: 0.8; stroke-linecap: square"/>
     </g>
     <g id="line2d_171">
      <g>
       <use xlink:href="#md8f4b93e84" x="374.884091" y="497.356" style="stroke: #000000; stroke-width: 0.6"/>
      </g>
     </g>
    </g>
    <g id="xtick_71">
     <g id="line2d_172">
      <path d="M 382.691092 497.356 
L 382.691092 268.418 
" clip-path="url(#p90663cdc0e)" style="fill: none; stroke: #b0b0b0; stroke-width: 0.8; stroke-linecap: square"/>
     </g>
     <g id="line2d_173">
      <g>
       <use xlink:href="#md8f4b93e84" x="382.691092" y="497.356" style="stroke: #000000; stroke-width: 0.6"/>
      </g>
     </g>
    </g>
    <g id="xtick_72">
     <g id="line2d_174">
      <path d="M 389.291817 497.356 
L 389.291817 268.418 
" clip-path="url(#p90663cdc0e)" style="fill: none; stroke: #b0b0b0; stroke-width: 0.8; stroke-linecap: square"/>
     </g>
     <g id="line2d_175">
      <g>
       <use xlink:href="#md8f4b93e84" x="389.291817" y="497.356" style="stroke: #000000; stroke-width: 0.6"/>
      </g>
     </g>
    </g>
    <g id="xtick_73">
     <g id="line2d_176">
      <path d="M 395.009625 497.356 
L 395.009625 268.418 
" clip-path="url(#p90663cdc0e)" style="fill: none; stroke: #b0b0b0; stroke-width: 0.8; stroke-linecap: square"/>
     </g>
     <g id="line2d_177">
      <g>
       <use xlink:href="#md8f4b93e84" x="395.009625" y="497.356" style="stroke: #000000; stroke-width: 0.6"/>
      </g>
     </g>
    </g>
    <g id="xtick_74">
     <g id="line2d_178">
      <path d="M 400.05309 497.356 
L 400.05309 268.418 
" clip-path="url(#p90663cdc0e)" style="fill: none; stroke: #b0b0b0; stroke-width: 0.8; stroke-linecap: square"/>
     </g>
     <g id="line2d_179">
      <g>
       <use xlink:href="#md8f4b93e84" x="400.05309" y="497.356" style="stroke: #000000; stroke-width: 0.6"/>
      </g>
     </g>
    </g>
    <g id="xtick_75">
     <g id="line2d_180">
      <path d="M 434.245154 497.356 
L 434.245154 268.418 
" clip-path="url(#p90663cdc0e)" style="fill: none; stroke: #b0b0b0; stroke-width: 0.8; stroke-linecap: square"/>
     </g>
     <g id="line2d_181">
      <g>
       <use xlink:href="#md8f4b93e84" x="434.245154" y="497.356" style="stroke: #000000; stroke-width: 0.6"/>
      </g>
     </g>
    </g>
    <g id="xtick_76">
     <g id="line2d_182">
      <path d="M 451.607151 497.356 
L 451.607151 268.418 
" clip-path="url(#p90663cdc0e)" style="fill: none; stroke: #b0b0b0; stroke-width: 0.8; stroke-linecap: square"/>
     </g>
     <g id="line2d_183">
      <g>
       <use xlink:href="#md8f4b93e84" x="451.607151" y="497.356" style="stroke: #000000; stroke-width: 0.6"/>
      </g>
     </g>
    </g>
    <g id="xtick_77">
     <g id="line2d_184">
      <path d="M 463.925685 497.356 
L 463.925685 268.418 
" clip-path="url(#p90663cdc0e)" style="fill: none; stroke: #b0b0b0; stroke-width: 0.8; stroke-linecap: square"/>
     </g>
     <g id="line2d_185">
      <g>
       <use xlink:href="#md8f4b93e84" x="463.925685" y="497.356" style="stroke: #000000; stroke-width: 0.6"/>
      </g>
     </g>
    </g>
    <g id="xtick_78">
     <g id="line2d_186">
      <path d="M 473.480682 497.356 
L 473.480682 268.418 
" clip-path="url(#p90663cdc0e)" style="fill: none; stroke: #b0b0b0; stroke-width: 0.8; stroke-linecap: square"/>
     </g>
     <g id="line2d_187">
      <g>
       <use xlink:href="#md8f4b93e84" x="473.480682" y="497.356" style="stroke: #000000; stroke-width: 0.6"/>
      </g>
     </g>
    </g>
    <g id="xtick_79">
     <g id="line2d_188">
      <path d="M 481.287683 497.356 
L 481.287683 268.418 
" clip-path="url(#p90663cdc0e)" style="fill: none; stroke: #b0b0b0; stroke-width: 0.8; stroke-linecap: square"/>
     </g>
     <g id="line2d_189">
      <g>
       <use xlink:href="#md8f4b93e84" x="481.287683" y="497.356" style="stroke: #000000; stroke-width: 0.6"/>
      </g>
     </g>
    </g>
    <g id="xtick_80">
     <g id="line2d_190">
      <path d="M 487.888408 497.356 
L 487.888408 268.418 
" clip-path="url(#p90663cdc0e)" style="fill: none; stroke: #b0b0b0; stroke-width: 0.8; stroke-linecap: square"/>
     </g>
     <g id="line2d_191">
      <g>
       <use xlink:href="#md8f4b93e84" x="487.888408" y="497.356" style="stroke: #000000; stroke-width: 0.6"/>
      </g>
     </g>
    </g>
    <g id="text_21">
     <!-- frequency [Hz] -->
     <g transform="translate(239.335938 525.632563) scale(0.1 -0.1)">
      <defs>
       <path id="DejaVuSans-66" d="M 2375 4863 
L 2375 4384 
L 1825 4384 
Q 1516 4384 1395 4259 
Q 1275 4134 1275 3809 
L 1275 3500 
L 2222 3500 
L 2222 3053 
L 1275 3053 
L 1275 0 
L 697 0 
L 697 3053 
L 147 3053 
L 147 3500 
L 697 3500 
L 697 3744 
Q 697 4328 969 4595 
Q 1241 4863 1831 4863 
L 2375 4863 
z
" transform="scale(0.015625)"/>
       <path id="DejaVuSans-71" d="M 947 1747 
Q 947 1113 1208 752 
Q 1469 391 1925 391 
Q 2381 391 2643 752 
Q 2906 1113 2906 1747 
Q 2906 2381 2643 2742 
Q 2381 3103 1925 3103 
Q 1469 3103 1208 2742 
Q 947 2381 947 1747 
z
M 2906 525 
Q 2725 213 2448 61 
Q 2172 -91 1784 -91 
Q 1150 -91 751 415 
Q 353 922 353 1747 
Q 353 2572 751 3078 
Q 1150 3584 1784 3584 
Q 2172 3584 2448 3432 
Q 2725 3281 2906 2969 
L 2906 3500 
L 3481 3500 
L 3481 -1331 
L 2906 -1331 
L 2906 525 
z
" transform="scale(0.015625)"/>
      </defs>
      <use xlink:href="#DejaVuSans-66"/>
      <use xlink:href="#DejaVuSans-72" transform="translate(35.205078 0)"/>
      <use xlink:href="#DejaVuSans-65" transform="translate(74.068359 0)"/>
      <use xlink:href="#DejaVuSans-71" transform="translate(135.591797 0)"/>
      <use xlink:href="#DejaVuSans-75" transform="translate(199.068359 0)"/>
      <use xlink:href="#DejaVuSans-65" transform="translate(262.447266 0)"/>
      <use xlink:href="#DejaVuSans-6e" transform="translate(323.970703 0)"/>
      <use xlink:href="#DejaVuSans-63" transform="translate(387.349609 0)"/>
      <use xlink:href="#DejaVuSans-79" transform="translate(442.330078 0)"/>
      <use xlink:href="#DejaVuSans-20" transform="translate(501.509766 0)"/>
      <use xlink:href="#DejaVuSans-5b" transform="translate(533.296875 0)"/>
      <use xlink:href="#DejaVuSans-48" transform="translate(572.310547 0)"/>
      <use xlink:href="#DejaVuSans-7a" transform="translate(647.505859 0)"/>
      <use xlink:href="#DejaVuSans-5d" transform="translate(699.996094 0)"/>
     </g>
    </g>
   </g>
   <g id="matplotlib.axis_4">
    <g id="ytick_11">
     <g id="line2d_192">
      <path d="M 59.375 493.751534 
L 493.2 493.751534 
" clip-path="url(#p90663cdc0e)" style="fill: none; stroke: #b0b0b0; stroke-width: 0.8; stroke-linecap: square"/>
     </g>
     <g id="line2d_193">
      <g>
       <use xlink:href="#m8ce19526e3" x="59.375" y="493.751534" style="stroke: #000000; stroke-width: 0.8"/>
      </g>
     </g>
     <g id="text_22">
      <!-- −200 -->
      <g transform="translate(24.907813 497.550753) scale(0.1 -0.1)">
       <use xlink:href="#DejaVuSans-2212"/>
       <use xlink:href="#DejaVuSans-32" transform="translate(83.789062 0)"/>
       <use xlink:href="#DejaVuSans-30" transform="translate(147.412109 0)"/>
       <use xlink:href="#DejaVuSans-30" transform="translate(211.035156 0)"/>
      </g>
     </g>
    </g>
    <g id="ytick_12">
     <g id="line2d_194">
      <path d="M 59.375 459.742499 
L 493.2 459.742499 
" clip-path="url(#p90663cdc0e)" style="fill: none; stroke: #b0b0b0; stroke-width: 0.8; stroke-linecap: square"/>
     </g>
     <g id="line2d_195">
      <g>
       <use xlink:href="#m8ce19526e3" x="59.375" y="459.742499" style="stroke: #000000; stroke-width: 0.8"/>
      </g>
     </g>
     <g id="text_23">
      <!-- −100 -->
      <g transform="translate(24.907813 463.541718) scale(0.1 -0.1)">
       <use xlink:href="#DejaVuSans-2212"/>
       <use xlink:href="#DejaVuSans-31" transform="translate(83.789062 0)"/>
       <use xlink:href="#DejaVuSans-30" transform="translate(147.412109 0)"/>
       <use xlink:href="#DejaVuSans-30" transform="translate(211.035156 0)"/>
      </g>
     </g>
    </g>
    <g id="ytick_13">
     <g id="line2d_196">
      <path d="M 59.375 425.733464 
L 493.2 425.733464 
" clip-path="url(#p90663cdc0e)" style="fill: none; stroke: #b0b0b0; stroke-width: 0.8; stroke-linecap: square"/>
     </g>
     <g id="line2d_197">
      <g>
       <use xlink:href="#m8ce19526e3" x="59.375" y="425.733464" style="stroke: #000000; stroke-width: 0.8"/>
      </g>
     </g>
     <g id="text_24">
      <!-- 0 -->
      <g transform="translate(46.0125 429.532683) scale(0.1 -0.1)">
       <use xlink:href="#DejaVuSans-30"/>
      </g>
     </g>
    </g>
    <g id="ytick_14">
     <g id="line2d_198">
      <path d="M 59.375 391.724429 
L 493.2 391.724429 
" clip-path="url(#p90663cdc0e)" style="fill: none; stroke: #b0b0b0; stroke-width: 0.8; stroke-linecap: square"/>
     </g>
     <g id="line2d_199">
      <g>
       <use xlink:href="#m8ce19526e3" x="59.375" y="391.724429" style="stroke: #000000; stroke-width: 0.8"/>
      </g>
     </g>
     <g id="text_25">
      <!-- 100 -->
      <g transform="translate(33.2875 395.523648) scale(0.1 -0.1)">
       <use xlink:href="#DejaVuSans-31"/>
       <use xlink:href="#DejaVuSans-30" transform="translate(63.623047 0)"/>
       <use xlink:href="#DejaVuSans-30" transform="translate(127.246094 0)"/>
      </g>
     </g>
    </g>
    <g id="ytick_15">
     <g id="line2d_200">
      <path d="M 59.375 357.715394 
L 493.2 357.715394 
" clip-path="url(#p90663cdc0e)" style="fill: none; stroke: #b0b0b0; stroke-width: 0.8; stroke-linecap: square"/>
     </g>
     <g id="line2d_201">
      <g>
       <use xlink:href="#m8ce19526e3" x="59.375" y="357.715394" style="stroke: #000000; stroke-width: 0.8"/>
      </g>
     </g>
     <g id="text_26">
      <!-- 200 -->
      <g transform="translate(33.2875 361.514613) scale(0.1 -0.1)">
       <use xlink:href="#DejaVuSans-32"/>
       <use xlink:href="#DejaVuSans-30" transform="translate(63.623047 0)"/>
       <use xlink:href="#DejaVuSans-30" transform="translate(127.246094 0)"/>
      </g>
     </g>
    </g>
    <g id="ytick_16">
     <g id="line2d_202">
      <path d="M 59.375 323.706359 
L 493.2 323.706359 
" clip-path="url(#p90663cdc0e)" style="fill: none; stroke: #b0b0b0; stroke-width: 0.8; stroke-linecap: square"/>
     </g>
     <g id="line2d_203">
      <g>
       <use xlink:href="#m8ce19526e3" x="59.375" y="323.706359" style="stroke: #000000; stroke-width: 0.8"/>
      </g>
     </g>
     <g id="text_27">
      <!-- 300 -->
      <g transform="translate(33.2875 327.505578) scale(0.1 -0.1)">
       <use xlink:href="#DejaVuSans-33"/>
       <use xlink:href="#DejaVuSans-30" transform="translate(63.623047 0)"/>
       <use xlink:href="#DejaVuSans-30" transform="translate(127.246094 0)"/>
      </g>
     </g>
    </g>
    <g id="ytick_17">
     <g id="line2d_204">
      <path d="M 59.375 289.697324 
L 493.2 289.697324 
" clip-path="url(#p90663cdc0e)" style="fill: none; stroke: #b0b0b0; stroke-width: 0.8; stroke-linecap: square"/>
     </g>
     <g id="line2d_205">
      <g>
       <use xlink:href="#m8ce19526e3" x="59.375" y="289.697324" style="stroke: #000000; stroke-width: 0.8"/>
      </g>
     </g>
     <g id="text_28">
      <!-- 400 -->
      <g transform="translate(33.2875 293.496542) scale(0.1 -0.1)">
       <use xlink:href="#DejaVuSans-34"/>
       <use xlink:href="#DejaVuSans-30" transform="translate(63.623047 0)"/>
       <use xlink:href="#DejaVuSans-30" transform="translate(127.246094 0)"/>
      </g>
     </g>
    </g>
    <g id="text_29">
     <!-- phase [deg] -->
     <g transform="translate(18.828125 412.890906) rotate(-90) scale(0.1 -0.1)">
      <defs>
       <path id="DejaVuSans-68" d="M 3513 2113 
L 3513 0 
L 2938 0 
L 2938 2094 
Q 2938 2591 2744 2837 
Q 2550 3084 2163 3084 
Q 1697 3084 1428 2787 
Q 1159 2491 1159 1978 
L 1159 0 
L 581 0 
L 581 4863 
L 1159 4863 
L 1159 2956 
Q 1366 3272 1645 3428 
Q 1925 3584 2291 3584 
Q 2894 3584 3203 3211 
Q 3513 2838 3513 2113 
z
" transform="scale(0.015625)"/>
      </defs>
      <use xlink:href="#DejaVuSans-70"/>
      <use xlink:href="#DejaVuSans-68" transform="translate(63.476562 0)"/>
      <use xlink:href="#DejaVuSans-61" transform="translate(126.855469 0)"/>
      <use xlink:href="#DejaVuSans-73" transform="translate(188.134766 0)"/>
      <use xlink:href="#DejaVuSans-65" transform="translate(240.234375 0)"/>
      <use xlink:href="#DejaVuSans-20" transform="translate(301.757812 0)"/>
      <use xlink:href="#DejaVuSans-5b" transform="translate(333.544922 0)"/>
      <use xlink:href="#DejaVuSans-64" transform="translate(372.558594 0)"/>
      <use xlink:href="#DejaVuSans-65" transform="translate(436.035156 0)"/>
      <use xlink:href="#DejaVuSans-67" transform="translate(497.558594 0)"/>
      <use xlink:href="#DejaVuSans-5d" transform="translate(561.035156 0)"/>
     </g>
    </g>
   </g>
   <g id="line2d_206">
    <path d="M 79.094318 378.758731 
L 84.749074 376.552027 
L 90.535336 374.052361 
L 96.716116 371.131728 
L 103.948944 367.454026 
L 126.436463 355.819743 
L 132.617242 352.991448 
L 138.535011 350.527262 
L 144.452779 348.307445 
L 150.502053 346.280194 
L 156.814338 344.403214 
L 163.521142 342.643955 
L 170.75397 340.977435 
L 178.907339 339.332383 
L 188.375768 337.657753 
L 200.605822 335.735531 
L 225.591954 331.866658 
L 233.087793 330.440538 
L 238.742549 329.149602 
L 243.345258 327.883575 
L 247.290437 326.573901 
L 250.709591 325.204971 
L 253.734228 323.74996 
L 256.364348 322.242328 
L 258.862961 320.546692 
L 261.098562 318.765342 
L 263.334163 316.692665 
L 265.569765 314.298397 
L 267.936872 311.408851 
L 270.698497 307.6503 
L 278.194336 297.199782 
L 280.561444 294.41671 
L 282.797045 292.133746 
L 285.032646 290.174415 
L 287.268247 288.504893 
L 289.635355 287.007755 
L 292.265474 285.615038 
L 295.158605 284.348786 
L 298.314748 283.218354 
L 301.865409 282.19034 
L 305.810587 281.281911 
L 310.28179 280.48166 
L 315.410522 279.796854 
L 321.065278 279.272442 
L 327.114552 278.938435 
L 333.163826 278.824273 
L 338.950088 278.934603 
L 344.078821 279.250463 
L 348.418517 279.731853 
L 352.100684 280.357045 
L 355.125321 281.083129 
L 357.75544 281.936506 
L 359.991041 282.889951 
L 361.963631 283.972244 
L 363.673208 285.157978 
L 365.25128 286.523948 
L 366.697845 288.073435 
L 368.012905 289.793783 
L 369.327964 291.876052 
L 370.643024 294.377146 
L 372.089589 297.639873 
L 373.799167 302.083251 
L 377.61284 312.21068 
L 379.059405 315.356721 
L 380.505971 317.971709 
L 381.952536 320.105512 
L 383.399102 321.839541 
L 384.977173 323.369993 
L 386.686751 324.700985 
L 388.527834 325.848615 
L 390.631929 326.892642 
L 392.999036 327.819732 
L 395.892167 328.701297 
L 399.311322 329.497333 
L 403.519513 330.233372 
L 408.648245 330.895017 
L 415.223543 331.507136 
L 423.77143 332.064806 
L 435.080943 332.564904 
L 450.335633 333.002167 
L 471.245081 333.364631 
L 473.480682 333.393002 
L 473.480682 333.393002 
" clip-path="url(#p90663cdc0e)" style="fill: none; stroke: #1f77b4; stroke-width: 1.4; stroke-linecap: square"/>
   </g>
   <g id="line2d_207">
    <path d="M 59.375 486.949727 
L 493.2 486.949727 
" clip-path="url(#p90663cdc0e)" style="fill: none; stroke-dasharray: 2.96,1.28; stroke-dashoffset: 0; stroke: #ff0000; stroke-width: 0.8"/>
   </g>
   <g id="line2d_208">
    <path d="M 272.789982 497.356 
L 272.789982 268.418 
" clip-path="url(#p90663cdc0e)" style="fill: none; stroke-dasharray: 3.7,1.6; stroke-dashoffset: 0; stroke: #ffa500"/>
   </g>
   <g id="line2d_209">
    <path d="M 374.681845 497.356 
L 374.681845 268.418 
" clip-path="url(#p90663cdc0e)" style="fill: none; stroke-dasharray: 3.7,1.6; stroke-dashoffset: 0; stroke: #008000"/>
   </g>
   <g id="patch_9">
    <path d="M 59.375 497.356 
L 59.375 268.418 
" style="fill: none; stroke: #000000; stroke-width: 0.8; stroke-linejoin: miter; stroke-linecap: square"/>
   </g>
   <g id="patch_10">
    <path d="M 493.2 497.356 
L 493.2 268.418 
" style="fill: none; stroke: #000000; stroke-width: 0.8; stroke-linejoin: miter; stroke-linecap: square"/>
   </g>
   <g id="patch_11">
    <path d="M 59.375 497.356 
L 493.2 497.356 
" style="fill: none; stroke: #000000; stroke-width: 0.8; stroke-linejoin: miter; stroke-linecap: square"/>
   </g>
   <g id="patch_12">
    <path d="M 59.375 268.418 
L 493.2 268.418 
" style="fill: none; stroke: #000000; stroke-width: 0.8; stroke-linejoin: miter; stroke-linecap: square"/>
   </g>
  </g>
 </g>
 <defs>
  <clipPath id="p0dc2c6fe35">
   <rect x="59.375" y="22.56" width="433.825" height="228.938"/>
  </clipPath>
  <clipPath id="p90663cdc0e">
   <rect x="59.375" y="268.418" width="433.825" height="228.938"/>
  </clipPath>
 </defs>
</svg>
